ISO-10303-21;
HEADER;
FILE_DESCRIPTION (( 'STEP AP214' ),
    '1' );
FILE_NAME ('Side Skirt Accent.STEP',
    '2026-09-06T12:42:30',
    ( '' ),
    ( '' ),
    '',
    '',
    '' );
FILE_SCHEMA (( 'AUTOMOTIVE_DESIGN' ));
ENDSEC;

DATA;
#1 = EDGE_LOOP ( 'NONE', ( #1012, #258 ) ) ;
#2 = CARTESIAN_POINT ( 'NONE',  ( -2.179211307862333413, -21.35286064894615521, 86.40033282940385106 ) ) ;
#3 = DIRECTION ( 'NONE',  ( -0.9999999997287938314, -2.328974580248652714E-05, 4.369862842100817567E-10 ) ) ;
#4 = CARTESIAN_POINT ( 'NONE',  ( -8.167825390783727713, -7.751159784095816185, 78.00005456568656825 ) ) ;
#5 = DIRECTION ( 'NONE',  ( -6.143077900775131265E-08, -0.9999999999999982236, 2.540158265885085357E-12 ) ) ;
#6 =( GEOMETRIC_REPRESENTATION_CONTEXT ( 3 ) GLOBAL_UNCERTAINTY_ASSIGNED_CONTEXT ( ( #612 ) ) GLOBAL_UNIT_ASSIGNED_CONTEXT ( ( #57, #1042, #1025 ) ) REPRESENTATION_CONTEXT ( 'NONE', 'WORKASPACE' ) );
#7 = AXIS2_PLACEMENT_3D ( 'NONE', #468, #800, #115 ) ;
#8 = COLOUR_RGB ( '',0.2862745098039215508, 0.6627450980392156632, 0.3294117647058823484 ) ;
#9 = STYLED_ITEM ( 'NONE', ( #698 ), #599 ) ;
#10 = ORIENTED_EDGE ( 'NONE', *, *, #69, .F. ) ;
#11 =( NAMED_UNIT ( * ) SI_UNIT ( $, .STERADIAN. ) SOLID_ANGLE_UNIT ( ) );
#12 = VERTEX_POINT ( 'NONE', #119 ) ;
#13 = SURFACE_SIDE_STYLE ('',( #185 ) ) ;
#14 =( NAMED_UNIT ( * ) PLANE_ANGLE_UNIT ( ) SI_UNIT ( $, .RADIAN. ) );
#15 = DIRECTION ( 'NONE',  ( 1.000000000000000000, -2.999834857644149196E-09, -2.197751784482303922E-10 ) ) ;
#16 = SURFACE_SIDE_STYLE ('',( #652 ) ) ;
#17 = SURFACE_STYLE_USAGE ( .BOTH. , #994 ) ;
#18 = EDGE_CURVE ( 'NONE', #293, #671, #188, .T. ) ;
#19 = ORIENTED_EDGE ( 'NONE', *, *, #415, .F. ) ;
#20 = DIRECTION ( 'NONE',  ( -0.9999999999700287523, 7.742255407335559824E-06, -4.333394906465319949E-10 ) ) ;
#21 = DIRECTION ( 'NONE',  ( -1.130001178413123848E-07, -0.9999999999999935607, -2.538818828370839361E-12 ) ) ;
#22 = CARTESIAN_POINT ( 'NONE',  ( -7.474800853798072353, -42.28688318931309453, 86.40133283291507382 ) ) ;
#23 = CARTESIAN_POINT ( 'NONE',  ( -0.8669391318086860920, 31.03687881653988256, 84.79421762876795299 ) ) ;
#24 = CARTESIAN_POINT ( 'NONE',  ( -9.067371327485549415, -1.545347146873480959, 86.40033262048724794 ) ) ;
#25 = UNCERTAINTY_MEASURE_WITH_UNIT (LENGTH_MEASURE( 1.000000000000000082E-05 ), #424, 'distance_accuracy_value', 'NONE');
#26 = ORIENTED_EDGE ( 'NONE', *, *, #260, .T. ) ;
#27 = FACE_BOUND ( 'NONE', #194, .T. ) ;
#28 = DIRECTION ( 'NONE',  ( -2.197734593678702444E-10, 2.529758923907254124E-12, -1.000000000000000000 ) ) ;
#29 = CARTESIAN_POINT ( 'NONE',  ( -7.379893202492826987, 31.03687454862978612, 84.79421763019956870 ) ) ;
#30 = DIRECTION ( 'NONE',  ( 4.369862248743669232E-10, -2.540033718160519065E-12, 1.000000000000000000 ) ) ;
#31 = COLOUR_RGB ( '',0.2862745098039215508, 0.6627450980392156632, 0.3294117647058823484 ) ;
#32 = SURFACE_STYLE_FILL_AREA ( #555 ) ;
#33 = MECHANICAL_DESIGN_GEOMETRIC_PRESENTATION_REPRESENTATION (  '', ( #588 ), #1037 ) ;
#34 = STYLED_ITEM ( 'NONE', ( #570 ), #462 ) ;
#35 = ORIENTED_EDGE ( 'NONE', *, *, #567, .T. ) ;
#36 = CARTESIAN_POINT ( 'NONE',  ( -5.667376053533974556, -83.02899144342359250, 86.40033261974076595 ) ) ;
#37 = ADVANCED_FACE ( 'NONE', ( #743 ), #367, .T. ) ;
#38 = CARTESIAN_POINT ( 'NONE',  ( -9.174800853798071643, -42.28688318931309453, 86.40133283365794625 ) ) ;
#39 = DIRECTION ( 'NONE',  ( -0.9999999999999981126, 6.099980549622879705E-08, 2.197731322063742532E-10 ) ) ;
#40 =( NAMED_UNIT ( * ) SI_UNIT ( $, .STERADIAN. ) SOLID_ANGLE_UNIT ( ) );
#41 = DIRECTION ( 'NONE',  ( 0.9999999999999935607, -1.130001158004577683E-07, -2.197751784482239298E-10 ) ) ;
#42 = CARTESIAN_POINT ( 'NONE',  ( -7.474800855284263079, -42.28688318932173473, 83.00033277270054555 ) ) ;
#43 = LINE ( 'NONE', #924, #1145 ) ;
#44 = EDGE_CURVE ( 'NONE', #894, #932, #1078, .T. ) ;
#45 = DIRECTION ( 'NONE',  ( -4.333394709934745124E-10, 2.540046291517588511E-12, 1.000000000000000000 ) ) ;
#46 = CARTESIAN_POINT ( 'NONE',  ( -7.379890439613401298, 26.59466069093475937, 93.53006483602987942 ) ) ;
#47 = DIRECTION ( 'NONE',  ( -0.9999999999999994449, 3.199982645371692328E-08, 2.197731322799760862E-10 ) ) ;
#48 = CARTESIAN_POINT ( 'NONE',  ( -7.367371328232424688, -1.545347151981783851, 83.00033277264346054 ) ) ;
#49 = MECHANICAL_DESIGN_GEOMETRIC_PRESENTATION_REPRESENTATION (  '', ( #304 ), #620 ) ;
#50 = ORIENTED_EDGE ( 'NONE', *, *, #923, .F. ) ;
#51 = AXIS2_PLACEMENT_3D ( 'NONE', #243, #757, #156 ) ;
#52 = AXIS2_PLACEMENT_3D ( 'NONE', #356, #541, #703 ) ;
#53 = EDGE_LOOP ( 'NONE', ( #361, #759 ) ) ;
#54 = EDGE_CURVE ( 'NONE', #542, #212, #217, .T. ) ;
#55 = VERTEX_POINT ( 'NONE', #1003 ) ;
#56 = CARTESIAN_POINT ( 'NONE',  ( 0.1330531243204924330, -101.6923850154236817, 67.39931595747357562 ) ) ;
#57 =( LENGTH_UNIT ( ) NAMED_UNIT ( * ) SI_UNIT ( .MILLI., .METRE. ) );
#58 = VERTEX_POINT ( 'NONE', #23 ) ;
#59 = CARTESIAN_POINT ( 'NONE',  ( -2.781501288756760282, 31.03687756193573932, 84.79421762918823902 ) ) ;
#60 = DIRECTION ( 'NONE',  ( -0.9999999999997024602, 7.712955491855547219E-07, 2.197731340291639009E-10 ) ) ;
#61 = LINE ( 'NONE', #238, #933 ) ;
#62 = ORIENTED_EDGE ( 'NONE', *, *, #1002, .F. ) ;
#63 = VECTOR ( 'NONE', #852, 1000.000000000000114 ) ;
#64 = ORIENTED_EDGE ( 'NONE', *, *, #379, .T. ) ;
#65 = STYLED_ITEM ( 'NONE', ( #729 ), #891 ) ;
#66 = SURFACE_STYLE_USAGE ( .BOTH. , #416 ) ;
#67 =( GEOMETRIC_REPRESENTATION_CONTEXT ( 3 ) GLOBAL_UNCERTAINTY_ASSIGNED_CONTEXT ( ( #224 ) ) GLOBAL_UNIT_ASSIGNED_CONTEXT ( ( #72, #204, #369 ) ) REPRESENTATION_CONTEXT ( 'NONE', 'WORKASPACE' ) );
#68 = CARTESIAN_POINT ( 'NONE',  ( -7.379898429901360579, -111.1689990927789466, 93.53006483603064680 ) ) ;
#69 = EDGE_CURVE ( 'NONE', #730, #391, #675, .T. ) ;
#70 = COLOUR_RGB ( '',0.7921568627450980005, 0.8196078431372548767, 0.9333333333333333481 ) ;
#71 = LINE ( 'NONE', #880, #270 ) ;
#72 =( LENGTH_UNIT ( ) NAMED_UNIT ( * ) SI_UNIT ( .MILLI., .METRE. ) );
#73 = ADVANCED_FACE ( 'NONE', ( #554 ), #114, .F. ) ;
#74 =( NAMED_UNIT ( * ) PLANE_ANGLE_UNIT ( ) SI_UNIT ( $, .RADIAN. ) );
#75 =( NAMED_UNIT ( * ) SI_UNIT ( $, .STERADIAN. ) SOLID_ANGLE_UNIT ( ) );
#76 = LINE ( 'NONE', #440, #1034 ) ;
#77 = FILL_AREA_STYLE ('',( #449 ) ) ;
#78 = ORIENTED_EDGE ( 'NONE', *, *, #773, .F. ) ;
#79 = AXIS2_PLACEMENT_3D ( 'NONE', #793, #963, #617 ) ;
#80 = AXIS2_PLACEMENT_3D ( 'NONE', #226, #310, #666 ) ;
#81 = FACE_OUTER_BOUND ( 'NONE', #459, .T. ) ;
#82 = LINE ( 'NONE', #608, #1142 ) ;
#83 = DIRECTION ( 'NONE',  ( 0.9999999999999981126, -6.099980549846358761E-08, -2.197731322403357043E-10 ) ) ;
#84 = AXIS2_PLACEMENT_3D ( 'NONE', #364, #538, #20 ) ;
#85 = STYLED_ITEM ( 'NONE', ( #87 ), #865 ) ;
#86 = ORIENTED_EDGE ( 'NONE', *, *, #910, .F. ) ;
#87 = PRESENTATION_STYLE_ASSIGNMENT (( #851 ) ) ;
#88 = EDGE_CURVE ( 'NONE', #351, #384, #321, .T. ) ;
#89 = LINE ( 'NONE', #705, #157 ) ;
#90 = FACE_BOUND ( 'NONE', #1124, .T. ) ;
#91 = FACE_OUTER_BOUND ( 'NONE', #251, .T. ) ;
#92 = ORIENTED_EDGE ( 'NONE', *, *, #537, .F. ) ;
#93 = CYLINDRICAL_SURFACE ( 'NONE', #143, 1.699999999999950662 ) ;
#94 = ORIENTED_EDGE ( 'NONE', *, *, #931, .T. ) ;
#95 = CARTESIAN_POINT ( 'NONE',  ( -0.8669473664659199663, -110.6581082420559454, 78.00005456241125046 ) ) ;
#96 = DIRECTION ( 'NONE',  ( 4.333394712880949467E-10, 2.539807712829532672E-12, -1.000000000000000000 ) ) ;
#97 = CYLINDRICAL_SURFACE ( 'NONE', #176, 1.699999999999998401 ) ;
#98 = CARTESIAN_POINT ( 'NONE',  ( -0.8669469202519652917, -102.5004467990876833, 66.81021927015159179 ) ) ;
#99 = FILL_AREA_STYLE ('',( #414 ) ) ;
#100 = ORIENTED_EDGE ( 'NONE', *, *, #1040, .F. ) ;
#101 = DIRECTION ( 'NONE',  ( -4.369862251690080887E-10, -2.540171340685657558E-12, -1.000000000000000000 ) ) ;
#102 =( GEOMETRIC_REPRESENTATION_CONTEXT ( 3 ) GLOBAL_UNCERTAINTY_ASSIGNED_CONTEXT ( ( #861 ) ) GLOBAL_UNIT_ASSIGNED_CONTEXT ( ( #425, #347, #609 ) ) REPRESENTATION_CONTEXT ( 'NONE', 'WORKASPACE' ) );
#103 = SURFACE_STYLE_USAGE ( .BOTH. , #1082 ) ;
#104 = ADVANCED_FACE ( 'NONE', ( #491 ), #129, .T. ) ;
#105 = AXIS2_PLACEMENT_3D ( 'NONE', #717, #457, #15 ) ;
#106 = UNCERTAINTY_MEASURE_WITH_UNIT (LENGTH_MEASURE( 1.000000000000000082E-05 ), #130, 'distance_accuracy_value', 'NONE');
#107 = AXIS2_PLACEMENT_3D ( 'NONE', #282, #739, #112 ) ;
#108 = CARTESIAN_POINT ( 'NONE',  ( -7.367371329331906082, -1.545347151994516555, 78.00005456532085191 ) ) ;
#109 = FILL_AREA_STYLE_COLOUR ( '', #233 ) ;
#110 = VECTOR ( 'NONE', #578, 1000.000000000000227 ) ;
#111 = ORIENTED_EDGE ( 'NONE', *, *, #976, .T. ) ;
#112 = DIRECTION ( 'NONE',  ( 1.000000000000000000, 0.000000000000000000, 0.000000000000000000 ) ) ;
#113 = CARTESIAN_POINT ( 'NONE',  ( -0.06388166162543673643, 30.62852133829568757, 85.59727512350912093 ) ) ;
#114 = CYLINDRICAL_SURFACE ( 'NONE', #80, 1.700000000000000622 ) ;
#115 = DIRECTION ( 'NONE',  ( 0.9999999999999935607, -1.130001158004611167E-07, -2.197751784482304439E-10 ) ) ;
#116 = EDGE_CURVE ( 'NONE', #581, #953, #679, .T. ) ;
#117 = CARTESIAN_POINT ( 'NONE',  ( -4.773434867317377872, 26.08376652541906537, 78.00005456411670934 ) ) ;
#118 =( NAMED_UNIT ( * ) PLANE_ANGLE_UNIT ( ) SI_UNIT ( $, .RADIAN. ) );
#119 = CARTESIAN_POINT ( 'NONE',  ( -6.467829396958208577, -76.82317871845475565, 78.00005456494442058 ) ) ;
#120 = ORIENTED_EDGE ( 'NONE', *, *, #756, .T. ) ;
#121 =( NAMED_UNIT ( * ) SI_UNIT ( $, .STERADIAN. ) SOLID_ANGLE_UNIT ( ) );
#122 = CARTESIAN_POINT ( 'NONE',  ( -2.158768166283659085, -116.2681129554432857, 83.50239713657451546 ) ) ;
#123 = DIRECTION ( 'NONE',  ( -1.000000000000000000, 0.000000000000000000, 4.369870478542989174E-10 ) ) ;
#124 = AXIS2_PLACEMENT_3D ( 'NONE', #136, #764, #496 ) ;
#125 = STYLED_ITEM ( 'NONE', ( #1100 ), #928 ) ;
#126 = SURFACE_SIDE_STYLE ('',( #32 ) ) ;
#127 = VECTOR ( 'NONE', #986, 1000.000000000000114 ) ;
#128 = DIRECTION ( 'NONE',  ( -3.222283281759063404E-08, -0.5890970285175181065, 0.8080623063797922612 ) ) ;
#129 = PLANE ( 'NONE',  #840 ) ;
#130 =( LENGTH_UNIT ( ) NAMED_UNIT ( * ) SI_UNIT ( .MILLI., .METRE. ) );
#131 = SURFACE_STYLE_FILL_AREA ( #584 ) ;
#132 = CARTESIAN_POINT ( 'NONE',  ( 10.05623919426632007, -95.30110394088289638, 75.47714689960542955 ) ) ;
#133 = CARTESIAN_POINT ( 'NONE',  ( -7.367376055380292499, -83.02899125130205960, 78.00005456532159087 ) ) ;
#134 = PLANE ( 'NONE',  #51 ) ;
#135 = EDGE_CURVE ( 'NONE', #269, #515, #580, .T. ) ;
#136 = CARTESIAN_POINT ( 'NONE',  ( -8.167825389685301474, -7.751159784083097470, 83.00033277231314344 ) ) ;
#137 = CIRCLE ( 'NONE', #585, 1.699999999999948441 ) ;
#138 = STYLED_ITEM ( 'NONE', ( #781 ), #239 ) ;
#139 = MECHANICAL_DESIGN_GEOMETRIC_PRESENTATION_REPRESENTATION (  '', ( #421 ), #67 ) ;
#140 = PRESENTATION_LAYER_ASSIGNMENT (  '', '', ( #34 ) ) ;
#141 = CIRCLE ( 'NONE', #1072, 1.700000000000003952 ) ;
#142 = SURFACE_STYLE_USAGE ( .BOTH. , #568 ) ;
#143 = AXIS2_PLACEMENT_3D ( 'NONE', #1148, #888, #684 ) ;
#144 =( NAMED_UNIT ( * ) SI_UNIT ( $, .STERADIAN. ) SOLID_ANGLE_UNIT ( ) );
#145 = EDGE_CURVE ( 'NONE', #55, #151, #1090, .T. ) ;
#146 =( LENGTH_UNIT ( ) NAMED_UNIT ( * ) SI_UNIT ( .MILLI., .METRE. ) );
#147 = SURFACE_STYLE_FILL_AREA ( #664 ) ;
#148 = PRODUCT_DEFINITION_CONTEXT ( 'detailed design', #742, 'design' ) ;
#149 =( NAMED_UNIT ( * ) PLANE_ANGLE_UNIT ( ) SI_UNIT ( $, .RADIAN. ) );
#150 = CARTESIAN_POINT ( 'NONE',  ( -3.623437845224036558, -114.7944998388496600, 86.40033261920997631 ) ) ;
#151 = VERTEX_POINT ( 'NONE', #1119 ) ;
#152 = EDGE_CURVE ( 'NONE', #776, #942, #765, .T. ) ;
#153 = EDGE_LOOP ( 'NONE', ( #333, #610, #50, #540 ) ) ;
#154 = MECHANICAL_DESIGN_GEOMETRIC_PRESENTATION_REPRESENTATION (  '', ( #895 ), #526 ) ;
#155 =( GEOMETRIC_REPRESENTATION_CONTEXT ( 3 ) GLOBAL_UNCERTAINTY_ASSIGNED_CONTEXT ( ( #582 ) ) GLOBAL_UNIT_ASSIGNED_CONTEXT ( ( #481, #303, #1103 ) ) REPRESENTATION_CONTEXT ( 'NONE', 'WORKASPACE' ) );
#156 = DIRECTION ( 'NONE',  ( -2.798507077081401772E-05, 0.9999999992151267225, -2.804607309803943056E-05 ) ) ;
#157 = VECTOR ( 'NONE', #954, 1000.000000000000000 ) ;
#158 = MECHANICAL_DESIGN_GEOMETRIC_PRESENTATION_REPRESENTATION (  '', ( #509 ), #952 ) ;
#159 = UNCERTAINTY_MEASURE_WITH_UNIT (LENGTH_MEASURE( 1.000000000000000082E-05 ), #587, 'distance_accuracy_value', 'NONE');
#160 =( GEOMETRIC_REPRESENTATION_CONTEXT ( 3 ) GLOBAL_UNCERTAINTY_ASSIGNED_CONTEXT ( ( #478 ) ) GLOBAL_UNIT_ASSIGNED_CONTEXT ( ( #654, #479, #121 ) ) REPRESENTATION_CONTEXT ( 'NONE', 'WORKASPACE' ) );
#161 = FILL_AREA_STYLE ('',( #856 ) ) ;
#162 = ORIENTED_EDGE ( 'NONE', *, *, #676, .F. ) ;
#163 = ORIENTED_EDGE ( 'NONE', *, *, #850, .T. ) ;
#164 = CARTESIAN_POINT ( 'NONE',  ( -8.167825390783727713, -7.751159784095816185, 78.00005456568656825 ) ) ;
#165 = CYLINDRICAL_SURFACE ( 'NONE', #79, 1.700000000000001066 ) ;
#166 = ORIENTED_EDGE ( 'NONE', *, *, #1110, .T. ) ;
#167 =( NAMED_UNIT ( * ) PLANE_ANGLE_UNIT ( ) SI_UNIT ( $, .RADIAN. ) );
#168 = VERTEX_POINT ( 'NONE', #412 ) ;
#169 = FACE_OUTER_BOUND ( 'NONE', #507, .T. ) ;
#170 = LINE ( 'NONE', #544, #603 ) ;
#171 = EDGE_CURVE ( 'NONE', #515, #873, #61, .T. ) ;
#172 =( NAMED_UNIT ( * ) PLANE_ANGLE_UNIT ( ) SI_UNIT ( $, .RADIAN. ) );
#173 = UNCERTAINTY_MEASURE_WITH_UNIT (LENGTH_MEASURE( 1.000000000000000082E-05 ), #966, 'distance_accuracy_value', 'NONE');
#174 = COLOUR_RGB ( '',0.7921568627450980005, 0.8196078431372548767, 0.9333333333333333481 ) ;
#175 = PRESENTATION_LAYER_ASSIGNMENT (  '', '', ( #677 ) ) ;
#176 = AXIS2_PLACEMENT_3D ( 'NONE', #22, #805, #707 ) ;
#177 = CARTESIAN_POINT ( 'NONE',  ( 3.025154424532938702, -107.7373218474129288, 100.2786544208290991 ) ) ;
#178 = VECTOR ( 'NONE', #327, 999.9999999999998863 ) ;
#179 = AXIS2_PLACEMENT_3D ( 'NONE', #164, #772, #766 ) ;
#180 = SURFACE_SIDE_STYLE ('',( #780 ) ) ;
#181 = DIRECTION ( 'NONE',  ( -4.369862251690080887E-10, -2.540171340685657558E-12, -1.000000000000000000 ) ) ;
#182 = CIRCLE ( 'NONE', #179, 1.699999999999948885 ) ;
#183 = MECHANICAL_DESIGN_GEOMETRIC_PRESENTATION_REPRESENTATION (  '', ( #591 ), #505 ) ;
#184 =( LENGTH_UNIT ( ) NAMED_UNIT ( * ) SI_UNIT ( .MILLI., .METRE. ) );
#185 = SURFACE_STYLE_FILL_AREA ( #901 ) ;
#186 = CARTESIAN_POINT ( 'NONE',  ( -6.467825388937476383, -7.751159789174226766, 86.40033261992971347 ) ) ;
#187 = CARTESIAN_POINT ( 'NONE',  ( -14.89281007104531440, 19.59219568458379968, 69.09559894471622954 ) ) ;
#188 = LINE ( 'NONE', #98, #1032 ) ;
#189 = CARTESIAN_POINT ( 'NONE',  ( -6.467825390783778161, -7.751159789189153493, 78.00005456494368161 ) ) ;
#190 = FACE_BOUND ( 'NONE', #317, .T. ) ;
#191 =( LENGTH_UNIT ( ) NAMED_UNIT ( * ) SI_UNIT ( .MILLI., .METRE. ) );
#192 = CARTESIAN_POINT ( 'NONE',  ( -9.067376053533953595, -83.02899105922318768, 86.40033262048800111 ) ) ;
#193 =( NAMED_UNIT ( * ) SI_UNIT ( $, .STERADIAN. ) SOLID_ANGLE_UNIT ( ) );
#194 = EDGE_LOOP ( 'NONE', ( #1152, #700 ) ) ;
#195 = CARTESIAN_POINT ( 'NONE',  ( -4.773442798341659632, -110.6581052296119623, 78.00005456411744831 ) ) ;
#196 = EDGE_CURVE ( 'NONE', #811, #590, #941, .T. ) ;
#197 = FILL_AREA_STYLE ('',( #993 ) ) ;
#198 = VECTOR ( 'NONE', #706, 1000.000000000000000 ) ;
#199 = VECTOR ( 'NONE', #1039, 1000.000000000000000 ) ;
#200 = MECHANICAL_DESIGN_GEOMETRIC_PRESENTATION_REPRESENTATION (  '', ( #951 ), #898 ) ;
#201 = AXIS2_PLACEMENT_3D ( 'NONE', #906, #548, #878 ) ;
#202 = DIRECTION ( 'NONE',  ( -1.130001178413087055E-07, -0.9999999999999935607, -2.538818828370756562E-12 ) ) ;
#203 = AXIS2_PLACEMENT_3D ( 'NONE', #133, #1013, #301 ) ;
#204 =( NAMED_UNIT ( * ) PLANE_ANGLE_UNIT ( ) SI_UNIT ( $, .RADIAN. ) );
#205 =( NAMED_UNIT ( * ) PLANE_ANGLE_UNIT ( ) SI_UNIT ( $, .RADIAN. ) );
#206 = CARTESIAN_POINT ( 'NONE',  ( -8.167829395111848356, -76.82317852636948885, 86.40033262030404160 ) ) ;
#207 = DIRECTION ( 'NONE',  ( -4.369862251690080887E-10, -2.540171391507634394E-12, -1.000000000000000000 ) ) ;
#208 = SURFACE_STYLE_USAGE ( .BOTH. , #645 ) ;
#209 = ORIENTED_EDGE ( 'NONE', *, *, #760, .T. ) ;
#210 = PRESENTATION_STYLE_ASSIGNMENT (( #142 ) ) ;
#211 = CARTESIAN_POINT ( 'NONE',  ( -9.067371328232425753, -1.545347146888409684, 83.00033277190678405 ) ) ;
#212 = VERTEX_POINT ( 'NONE', #657 ) ;
#213 = CARTESIAN_POINT ( 'NONE',  ( -7.379886367142707293, 20.83014784790169927, 70.79368678532648573 ) ) ;
#214 = EDGE_CURVE ( 'NONE', #477, #338, #573, .T. ) ;
#215 = PRODUCT ( 'Side Skirt Accent', 'Side Skirt Accent', '', ( #998 ) ) ;
#216 = DIRECTION ( 'NONE',  ( -4.369862251690081404E-10, -2.540171391507634797E-12, -1.000000000000000000 ) ) ;
#217 = CIRCLE ( 'NONE', #1054, 1.699999999999999067 ) ;
#218 = CARTESIAN_POINT ( 'NONE',  ( -5.529572447702219229, 29.72909017321478942, 83.00033277336029869 ) ) ;
#219 = STYLED_ITEM ( 'NONE', ( #914 ), #428 ) ;
#220 = VECTOR ( 'NONE', #962, 1000.000000000000114 ) ;
#221 = VERTEX_POINT ( 'NONE', #1047 ) ;
#222 =( LENGTH_UNIT ( ) NAMED_UNIT ( * ) SI_UNIT ( .MILLI., .METRE. ) );
#223 = SURFACE_STYLE_FILL_AREA ( #655 ) ;
#224 = UNCERTAINTY_MEASURE_WITH_UNIT (LENGTH_MEASURE( 1.000000000000000082E-05 ), #72, 'distance_accuracy_value', 'NONE');
#225 = LINE ( 'NONE', #670, #199 ) ;
#226 = CARTESIAN_POINT ( 'NONE',  ( -7.367376053533964075, -83.02899125132339009, 86.40033262011438353 ) ) ;
#227 = EDGE_CURVE ( 'NONE', #1048, #287, #71, .T. ) ;
#228 = FACE_BOUND ( 'NONE', #921, .T. ) ;
#229 = CARTESIAN_POINT ( 'NONE',  ( -7.367371328232424688, -1.545347151981783851, 83.00033277264346054 ) ) ;
#230 = ORIENTED_EDGE ( 'NONE', *, *, #756, .F. ) ;
#231 = FACE_OUTER_BOUND ( 'NONE', #153, .T. ) ;
#232 = FACE_OUTER_BOUND ( 'NONE', #889, .T. ) ;
#233 = COLOUR_RGB ( '',0.7921568627450980005, 0.8196078431372548767, 0.9333333333333333481 ) ;
#234 = PRESENTATION_LAYER_ASSIGNMENT (  '', '', ( #138 ) ) ;
#235 = AXIS2_PLACEMENT_3D ( 'NONE', #206, #28, #831 ) ;
#236 = COLOUR_RGB ( '',0.7921568627450980005, 0.8196078431372548767, 0.9333333333333333481 ) ;
#237 = SURFACE_SIDE_STYLE ('',( #1074 ) ) ;
#238 = CARTESIAN_POINT ( 'NONE',  ( -10.35506062196725452, 16.31338494486717039, 64.59806179264313641 ) ) ;
#239 = ADVANCED_FACE ( 'NONE', ( #946 ), #329, .F. ) ;
#240 = ORIENTED_EDGE ( 'NONE', *, *, #498, .F. ) ;
#241 = VERTEX_POINT ( 'NONE', #959 ) ;
#242 = FILL_AREA_STYLE_COLOUR ( '', #844 ) ;
#243 = CARTESIAN_POINT ( 'NONE',  ( -0.3669419848562338604, -15.71186075911919922, 78.50005456229824574 ) ) ;
#244 = FILL_AREA_STYLE ('',( #248 ) ) ;
#245 = ORIENTED_EDGE ( 'NONE', *, *, #618, .F. ) ;
#246 = UNCERTAINTY_MEASURE_WITH_UNIT (LENGTH_MEASURE( 1.000000000000000082E-05 ), #1143, 'distance_accuracy_value', 'NONE');
#247 = SURFACE_STYLE_FILL_AREA ( #674 ) ;
#248 = FILL_AREA_STYLE_COLOUR ( '', #974 ) ;
#249 =( LENGTH_UNIT ( ) NAMED_UNIT ( * ) SI_UNIT ( .MILLI., .METRE. ) );
#250 = STYLED_ITEM ( 'NONE', ( #1017 ), #104 ) ;
#251 = EDGE_LOOP ( 'NONE', ( #408, #348, #299, #911 ) ) ;
#252 = STYLED_ITEM ( 'NONE', ( #300 ), #480 ) ;
#253 = PRODUCT_DEFINITION_FORMATION_WITH_SPECIFIED_SOURCE ( 'ANY', '', #215, .NOT_KNOWN. ) ;
#254 = DIRECTION ( 'NONE',  ( 2.999834857644063996E-09, 1.000000000000000000, -2.538818828370763832E-12 ) ) ;
#255 = CARTESIAN_POINT ( 'NONE',  ( 0.1330526617223104502, -110.1496049433489759, 79.00005456197474984 ) ) ;
#256 = SURFACE_SIDE_STYLE ('',( #862 ) ) ;
#257 = ORIENTED_EDGE ( 'NONE', *, *, #806, .F. ) ;
#258 = ORIENTED_EDGE ( 'NONE', *, *, #69, .T. ) ;
#259 = PLANE ( 'NONE',  #1113 ) ;
#260 = EDGE_CURVE ( 'NONE', #975, #151, #964, .T. ) ;
#261 =( NAMED_UNIT ( * ) SI_UNIT ( $, .STERADIAN. ) SOLID_ANGLE_UNIT ( ) );
#262 = DIRECTION ( 'NONE',  ( 0.2900012486422609559, -0.5637814762040700423, 0.7733367461042369717 ) ) ;
#263 = ORIENTED_EDGE ( 'NONE', *, *, #444, .T. ) ;
#264 = ORIENTED_EDGE ( 'NONE', *, *, #957, .T. ) ;
#265 = FILL_AREA_STYLE_COLOUR ( '', #455 ) ;
#266 = CARTESIAN_POINT ( 'NONE',  ( -14.89281760412802846, -110.6580974261856625, 78.00005456853958208 ) ) ;
#267 = VERTEX_POINT ( 'NONE', #686 ) ;
#268 =( NAMED_UNIT ( * ) PLANE_ANGLE_UNIT ( ) SI_UNIT ( $, .RADIAN. ) );
#269 = VERTEX_POINT ( 'NONE', #1063 ) ;
#270 = VECTOR ( 'NONE', #262, 1000.000000000000227 ) ;
#271 = MECHANICAL_DESIGN_GEOMETRIC_PRESENTATION_REPRESENTATION (  '', ( #401 ), #382 ) ;
#272 = VECTOR ( 'NONE', #723, 1000.000000000000114 ) ;
#273 = DIRECTION ( 'NONE',  ( -6.099980549622820148E-08, -0.9999999999999982236, 2.540198059492947364E-12 ) ) ;
#274 = PRESENTATION_LAYER_ASSIGNMENT (  '', '', ( #770 ) ) ;
#275 = MECHANICAL_DESIGN_GEOMETRIC_PRESENTATION_REPRESENTATION (  '', ( #439 ), #572 ) ;
#276 = FACE_OUTER_BOUND ( 'NONE', #1043, .T. ) ;
#277 = ADVANCED_FACE ( 'NONE', ( #331 ), #1051, .T. ) ;
#278 = ORIENTED_EDGE ( 'NONE', *, *, #519, .T. ) ;
#279 = LINE ( 'NONE', #117, #127 ) ;
#280 = FACE_OUTER_BOUND ( 'NONE', #307, .T. ) ;
#281 = CARTESIAN_POINT ( 'NONE',  ( -5.667371328232424510, -1.545347157087848533, 83.00033277338013704 ) ) ;
#282 = CARTESIAN_POINT ( 'NONE',  ( 0.000000000000000000, 0.000000000000000000, 0.000000000000000000 ) ) ;
#283 = DIRECTION ( 'NONE',  ( -0.9999999999997025713, 7.711371955703482034E-07, 4.369862268359386334E-10 ) ) ;
#284 = FACE_OUTER_BOUND ( 'NONE', #368, .T. ) ;
#285 = FACE_OUTER_BOUND ( 'NONE', #1080, .T. ) ;
#286 = ORIENTED_EDGE ( 'NONE', *, *, #910, .T. ) ;
#287 = VERTEX_POINT ( 'NONE', #1151 ) ;
#288 = LINE ( 'NONE', #726, #735 ) ;
#289 = CARTESIAN_POINT ( 'NONE',  ( -9.067376054280856579, -83.02899105920828049, 83.00033277190752301 ) ) ;
#290 = STYLED_ITEM ( 'NONE', ( #511 ), #1139 ) ;
#291 = AXIS2_PLACEMENT_3D ( 'NONE', #593, #489, #1108 ) ;
#292 = AXIS2_PLACEMENT_3D ( 'NONE', #4, #101, #627 ) ;
#293 = VERTEX_POINT ( 'NONE', #1067 ) ;
#294 = VERTEX_POINT ( 'NONE', #266 ) ;
#295 = DIRECTION ( 'NONE',  ( -1.000000000000000000, 0.000000000000000000, 4.369870478542989174E-10 ) ) ;
#296 = EDGE_CURVE ( 'NONE', #212, #542, #341, .T. ) ;
#297 = SURFACE_STYLE_USAGE ( .BOTH. , #16 ) ;
#298 = LINE ( 'NONE', #909, #731 ) ;
#299 = ORIENTED_EDGE ( 'NONE', *, *, #415, .T. ) ;
#300 = PRESENTATION_STYLE_ASSIGNMENT (( #661 ) ) ;
#301 = DIRECTION ( 'NONE',  ( -1.130001178413087055E-07, -0.9999999999999935607, -2.538818828370756562E-12 ) ) ;
#302 = DIRECTION ( 'NONE',  ( -0.5075573458869405696, -2.414875906411991920E-05, -0.8616179780233477192 ) ) ;
#303 =( NAMED_UNIT ( * ) PLANE_ANGLE_UNIT ( ) SI_UNIT ( $, .RADIAN. ) );
#304 = STYLED_ITEM ( 'NONE', ( #1099 ), #73 ) ;
#305 = PRESENTATION_LAYER_ASSIGNMENT (  '', '', ( #421 ) ) ;
#306 = VECTOR ( 'NONE', #613, 1000.000000000000000 ) ;
#307 = EDGE_LOOP ( 'NONE', ( #785, #286, #1120, #604 ) ) ;
#308 = ADVANCED_FACE ( 'NONE', ( #91 ), #815, .F. ) ;
#309 =( LENGTH_UNIT ( ) NAMED_UNIT ( * ) SI_UNIT ( .MILLI., .METRE. ) );
#310 = DIRECTION ( 'NONE',  ( -2.197723787935429740E-10, 2.530083425617479036E-12, -1.000000000000000000 ) ) ;
#311 = ORIENTED_EDGE ( 'NONE', *, *, #931, .F. ) ;
#312 = PRODUCT_RELATED_PRODUCT_CATEGORY ( 'part', '', ( #215 ) ) ;
#313 =( NAMED_UNIT ( * ) PLANE_ANGLE_UNIT ( ) SI_UNIT ( $, .RADIAN. ) );
#314 = EDGE_CURVE ( 'NONE', #151, #55, #437, .T. ) ;
#315 = DIRECTION ( 'NONE',  ( 2.197731323612604108E-10, 2.540144743851114177E-12, 1.000000000000000000 ) ) ;
#316 = CARTESIAN_POINT ( 'NONE',  ( -7.474800855284263079, -42.28688318932173473, 83.00033277270054555 ) ) ;
#317 = EDGE_LOOP ( 'NONE', ( #1064, #737 ) ) ;
#318 = ORIENTED_EDGE ( 'NONE', *, *, #929, .F. ) ;
#319 = SURFACE_STYLE_USAGE ( .BOTH. , #326 ) ;
#320 = LINE ( 'NONE', #406, #178 ) ;
#321 = CIRCLE ( 'NONE', #971, 1.699999999999999067 ) ;
#322 = MECHANICAL_DESIGN_GEOMETRIC_PRESENTATION_REPRESENTATION (  '', ( #34 ), #155 ) ;
#323 = PRESENTATION_LAYER_ASSIGNMENT (  '', '', ( #290 ) ) ;
#324 = COLOUR_RGB ( '',0.2862745098039215508, 0.6627450980392156632, 0.3294117647058823484 ) ;
#325 = ORIENTED_EDGE ( 'NONE', *, *, #929, .T. ) ;
#326 = SURFACE_SIDE_STYLE ('',( #1033 ) ) ;
#327 = DIRECTION ( 'NONE',  ( 6.099981659845859332E-08, 0.9999999999999982236, -2.520876258795989747E-12 ) ) ;
#328 = CARTESIAN_POINT ( 'NONE',  ( 2.721955116432028809, 24.25880389385233471, 81.58894922325207233 ) ) ;
#329 = CYLINDRICAL_SURFACE ( 'NONE', #916, 1.700000000000001066 ) ;
#330 = PLANE ( 'NONE',  #843 ) ;
#331 = FACE_OUTER_BOUND ( 'NONE', #556, .T. ) ;
#332 = ORIENTED_EDGE ( 'NONE', *, *, #18, .F. ) ;
#333 = ORIENTED_EDGE ( 'NONE', *, *, #586, .T. ) ;
#334 = DIRECTION ( 'NONE',  ( -2.810707033877925885E-05, -0.9999999992117052372, 2.804607308581636904E-05 ) ) ;
#335 = ORIENTED_EDGE ( 'NONE', *, *, #586, .F. ) ;
#336 = STYLED_ITEM ( 'NONE', ( #740 ), #786 ) ;
#337 = COLOUR_RGB ( '',0.7921568627450980005, 0.8196078431372548767, 0.9333333333333333481 ) ;
#338 = VERTEX_POINT ( 'NONE', #113 ) ;
#339 = EDGE_CURVE ( 'NONE', #58, #873, #1087, .T. ) ;
#340 = AXIS2_PLACEMENT_3D ( 'NONE', #892, #539, #524 ) ;
#341 = CIRCLE ( 'NONE', #402, 1.699999999999999067 ) ;
#342 = CARTESIAN_POINT ( 'NONE',  ( -14.89281780352236240, -114.3034215634144886, 83.00033276930395232 ) ) ;
#343 = VECTOR ( 'NONE', #273, 999.9999999999998863 ) ;
#344 = LINE ( 'NONE', #328, #696 ) ;
#345 = FILL_AREA_STYLE ('',( #365 ) ) ;
#346 = UNCERTAINTY_MEASURE_WITH_UNIT (LENGTH_MEASURE( 1.000000000000000082E-05 ), #309, 'distance_accuracy_value', 'NONE');
#347 =( NAMED_UNIT ( * ) PLANE_ANGLE_UNIT ( ) SI_UNIT ( $, .RADIAN. ) );
#348 = ORIENTED_EDGE ( 'NONE', *, *, #470, .T. ) ;
#349 = SURFACE_STYLE_FILL_AREA ( #77 ) ;
#350 = UNCERTAINTY_MEASURE_WITH_UNIT (LENGTH_MEASURE( 1.000000000000000082E-05 ), #495, 'distance_accuracy_value', 'NONE');
#351 = VERTEX_POINT ( 'NONE', #281 ) ;
#352 =( LENGTH_UNIT ( ) NAMED_UNIT ( * ) SI_UNIT ( .MILLI., .METRE. ) );
#353 = DIRECTION ( 'NONE',  ( -1.130001178413123848E-07, -0.9999999999999935607, -2.538818828370839361E-12 ) ) ;
#354 = SURFACE_STYLE_USAGE ( .BOTH. , #256 ) ;
#355 = VERTEX_POINT ( 'NONE', #736 ) ;
#356 = CARTESIAN_POINT ( 'NONE',  ( -0.3669468979652368290, -102.0964159072557464, 67.10476761381208632 ) ) ;
#357 = ORIENTED_EDGE ( 'NONE', *, *, #854, .F. ) ;
#358 = SURFACE_STYLE_USAGE ( .BOTH. , #13 ) ;
#359 = LINE ( 'NONE', #187, #1092 ) ;
#360 = EDGE_CURVE ( 'NONE', #671, #725, #642, .T. ) ;
#361 = ORIENTED_EDGE ( 'NONE', *, *, #701, .T. ) ;
#362 = PRESENTATION_STYLE_ASSIGNMENT (( #319 ) ) ;
#363 = ORIENTED_EDGE ( 'NONE', *, *, #644, .F. ) ;
#364 = CARTESIAN_POINT ( 'NONE',  ( -3.679211981577723556, -32.34391039599018569, 83.00033277432005718 ) ) ;
#365 = FILL_AREA_STYLE_COLOUR ( '', #31 ) ;
#366 = CYLINDRICAL_SURFACE ( 'NONE', #105, 1.699999999999950662 ) ;
#367 = PLANE ( 'NONE',  #710 ) ;
#368 = EDGE_LOOP ( 'NONE', ( #420, #311, #868, #453 ) ) ;
#369 =( NAMED_UNIT ( * ) SI_UNIT ( $, .STERADIAN. ) SOLID_ANGLE_UNIT ( ) );
#370 = CARTESIAN_POINT ( 'NONE',  ( -2.158759584498709749, 31.69377394794821612, 83.50239713657376228 ) ) ;
#371 = DIRECTION ( 'NONE',  ( -6.099979930846478488E-08, -0.9999999996067069352, 2.804607310295816443E-05 ) ) ;
#372 =( NAMED_UNIT ( * ) PLANE_ANGLE_UNIT ( ) SI_UNIT ( $, .RADIAN. ) );
#373 = UNCERTAINTY_MEASURE_WITH_UNIT (LENGTH_MEASURE( 1.000000000000000082E-05 ), #191, 'distance_accuracy_value', 'NONE');
#374 = DIRECTION ( 'NONE',  ( 6.099980549622820148E-08, 0.9999999999999982236, -2.540019759057550333E-12 ) ) ;
#375 = CARTESIAN_POINT ( 'NONE',  ( -9.174800857469314508, -42.28688318933443924, 78.00005456621371991 ) ) ;
#376 =( LENGTH_UNIT ( ) NAMED_UNIT ( * ) SI_UNIT ( .MILLI., .METRE. ) );
#377 = FILL_AREA_STYLE_COLOUR ( '', #174 ) ;
#378 = DIRECTION ( 'NONE',  ( 2.197723790870313082E-10, 2.530246245678732450E-12, 1.000000000000000000 ) ) ;
#379 = EDGE_CURVE ( 'NONE', #269, #853, #359, .T. ) ;
#380 = PLANE ( 'NONE',  #84 ) ;
#381 = DIRECTION ( 'NONE',  ( 4.369862248743669232E-10, -2.540033718160519065E-12, 1.000000000000000000 ) ) ;
#382 =( GEOMETRIC_REPRESENTATION_CONTEXT ( 3 ) GLOBAL_UNCERTAINTY_ASSIGNED_CONTEXT ( ( #246 ) ) GLOBAL_UNIT_ASSIGNED_CONTEXT ( ( #1143, #517, #261 ) ) REPRESENTATION_CONTEXT ( 'NONE', 'WORKASPACE' ) );
#383 = LINE ( 'NONE', #192, #712 ) ;
#384 = VERTEX_POINT ( 'NONE', #211 ) ;
#385 =( LENGTH_UNIT ( ) NAMED_UNIT ( * ) SI_UNIT ( .MILLI., .METRE. ) );
#386 = ORIENTED_EDGE ( 'NONE', *, *, #767, .F. ) ;
#387 = DIRECTION ( 'NONE',  ( -2.197723787935429740E-10, 2.530083425617479036E-12, -1.000000000000000000 ) ) ;
#388 =( NAMED_UNIT ( * ) SI_UNIT ( $, .STERADIAN. ) SOLID_ANGLE_UNIT ( ) );
#389 =( NAMED_UNIT ( * ) SI_UNIT ( $, .STERADIAN. ) SOLID_ANGLE_UNIT ( ) );
#390 = ORIENTED_EDGE ( 'NONE', *, *, #1155, .T. ) ;
#391 = VERTEX_POINT ( 'NONE', #1157 ) ;
#392 = DIRECTION ( 'NONE',  ( 2.197723790870313082E-10, 2.530246245678732450E-12, 1.000000000000000000 ) ) ;
#393 = CARTESIAN_POINT ( 'NONE',  ( -5.529580801583888316, -114.3034287896957437, 83.00033277336103765 ) ) ;
#394 = DIRECTION ( 'NONE',  ( -4.369862251690080887E-10, -2.540171391507634394E-12, -1.000000000000000000 ) ) ;
#395 = EDGE_CURVE ( 'NONE', #404, #730, #383, .T. ) ;
#396 = ORIENTED_EDGE ( 'NONE', *, *, #296, .F. ) ;
#397 = DIRECTION ( 'NONE',  ( -2.197723787935429740E-10, 2.530083425617479036E-12, -1.000000000000000000 ) ) ;
#398 = FACE_BOUND ( 'NONE', #1, .T. ) ;
#399 = DIRECTION ( 'NONE',  ( -3.611239454206620493E-08, -0.5890970285175181065, -0.8080623063797921501 ) ) ;
#400 = DIRECTION ( 'NONE',  ( 4.965965988409080725E-08, 0.5890970285175087806, -0.8080623063797983674 ) ) ;
#401 = STYLED_ITEM ( 'NONE', ( #981 ), #943 ) ;
#402 = AXIS2_PLACEMENT_3D ( 'NONE', #972, #181, #533 ) ;
#403 = ADVANCED_FACE ( 'NONE', ( #447 ), #97, .F. ) ;
#404 = VERTEX_POINT ( 'NONE', #289 ) ;
#405 = FILL_AREA_STYLE ('',( #488 ) ) ;
#406 = CARTESIAN_POINT ( 'NONE',  ( -2.179214911926004472, -80.43604929135540260, 86.40033282955278082 ) ) ;
#407 = CARTESIAN_POINT ( 'NONE',  ( -5.774800853798073952, -42.28688318931309453, 86.40133283217218718 ) ) ;
#408 = ORIENTED_EDGE ( 'NONE', *, *, #152, .T. ) ;
#409 = LINE ( 'NONE', #36, #936 ) ;
#410 = FACE_BOUND ( 'NONE', #791, .T. ) ;
#411 = LINE ( 'NONE', #407, #749 ) ;
#412 = CARTESIAN_POINT ( 'NONE',  ( -2.179208139691163559, 30.22016184066787758, 86.40033282927292646 ) ) ;
#413 = ORIENTED_EDGE ( 'NONE', *, *, #798, .T. ) ;
#414 = FILL_AREA_STYLE_COLOUR ( '', #553 ) ;
#415 = EDGE_CURVE ( 'NONE', #267, #1060, #918, .T. ) ;
#416 = SURFACE_SIDE_STYLE ('',( #147 ) ) ;
#417 = DIRECTION ( 'NONE',  ( 0.6653997981852416421, -0.3383580799436333164, 0.6653998183888373275 ) ) ;
#418 = PRESENTATION_LAYER_ASSIGNMENT (  '', '', ( #250 ) ) ;
#419 = PRESENTATION_LAYER_ASSIGNMENT (  '', '', ( #65 ) ) ;
#420 = ORIENTED_EDGE ( 'NONE', *, *, #632, .F. ) ;
#421 = STYLED_ITEM ( 'NONE', ( #626 ), #779 ) ;
#422 = AXIS2_PLACEMENT_3D ( 'NONE', #229, #579, #254 ) ;
#423 = STYLED_ITEM ( 'NONE', ( #210 ), #838 ) ;
#424 =( LENGTH_UNIT ( ) NAMED_UNIT ( * ) SI_UNIT ( .MILLI., .METRE. ) );
#425 =( LENGTH_UNIT ( ) NAMED_UNIT ( * ) SI_UNIT ( .MILLI., .METRE. ) );
#426 = ORIENTED_EDGE ( 'NONE', *, *, #135, .T. ) ;
#427 =( NAMED_UNIT ( * ) SI_UNIT ( $, .STERADIAN. ) SOLID_ANGLE_UNIT ( ) );
#428 = ADVANCED_FACE ( 'NONE', ( #1098 ), #366, .F. ) ;
#429 = FILL_AREA_STYLE ('',( #516 ) ) ;
#430 = FACE_OUTER_BOUND ( 'NONE', #938, .T. ) ;
#431 = SURFACE_SIDE_STYLE ('',( #602 ) ) ;
#432 = EDGE_LOOP ( 'NONE', ( #525, #230, #775, #1026 ) ) ;
#433 = PRESENTATION_STYLE_ASSIGNMENT (( #592 ) ) ;
#434 = COLOUR_RGB ( '',0.2862745098039215508, 0.6627450980392156632, 0.3294117647058823484 ) ;
#435 = COLOUR_RGB ( '',0.2862745098039215508, 0.6627450980392156632, 0.3294117647058823484 ) ;
#436 = CIRCLE ( 'NONE', #751, 1.699999999999948441 ) ;
#437 = CIRCLE ( 'NONE', #474, 1.699999999999948885 ) ;
#438 = SURFACE_STYLE_FILL_AREA ( #429 ) ;
#439 = STYLED_ITEM ( 'NONE', ( #362 ), #874 ) ;
#440 = CARTESIAN_POINT ( 'NONE',  ( -6.467829395111907687, -76.82317871846969126, 86.40033261993042402 ) ) ;
#441 = ORIENTED_EDGE ( 'NONE', *, *, #214, .F. ) ;
#442 = EDGE_LOOP ( 'NONE', ( #94, #111 ) ) ;
#443 = SURFACE_STYLE_FILL_AREA ( #968 ) ;
#444 = EDGE_CURVE ( 'NONE', #338, #58, #1069, .T. ) ;
#445 = CARTESIAN_POINT ( 'NONE',  ( -0.8669394354413051396, 26.08376908470976119, 78.00005456241052570 ) ) ;
#446 = SURFACE_STYLE_USAGE ( .BOTH. , #180 ) ;
#447 = FACE_OUTER_BOUND ( 'NONE', #653, .T. ) ;
#448 = ORIENTED_EDGE ( 'NONE', *, *, #1040, .T. ) ;
#449 = FILL_AREA_STYLE_COLOUR ( '', #70 ) ;
#450 = CARTESIAN_POINT ( 'NONE',  ( -9.867825390783679040, -7.751159778989714866, 78.00005456642944068 ) ) ;
#451 = DIRECTION ( 'NONE',  ( 2.999834857644152505E-09, 1.000000000000000000, -2.538818828370838553E-12 ) ) ;
#452 =( NAMED_UNIT ( * ) PLANE_ANGLE_UNIT ( ) SI_UNIT ( $, .RADIAN. ) );
#453 = ORIENTED_EDGE ( 'NONE', *, *, #1052, .F. ) ;
#454 = CARTESIAN_POINT ( 'NONE',  ( -9.067376055380282907, -83.02899105920828049, 78.00005456606447751 ) ) ;
#455 = COLOUR_RGB ( '',0.7921568627450980005, 0.8196078431372548767, 0.9333333333333333481 ) ;
#456 = SURFACE_SIDE_STYLE ('',( #702 ) ) ;
#457 = DIRECTION ( 'NONE',  ( 2.197734596613208902E-10, 2.529921743968507539E-12, 1.000000000000000000 ) ) ;
#458 = DIRECTION ( 'NONE',  ( 2.999834857644063996E-09, 1.000000000000000000, -2.538818828370763832E-12 ) ) ;
#459 = EDGE_LOOP ( 'NONE', ( #78, #647, #100, #947, #863 ) ) ;
#460 = DIRECTION ( 'NONE',  ( 6.099980549622820148E-08, 0.9999999999999982236, -2.540198059492947364E-12 ) ) ;
#461 = ORIENTED_EDGE ( 'NONE', *, *, #668, .T. ) ;
#462 = ADVANCED_FACE ( 'NONE', ( #285 ), #634, .F. ) ;
#463 = ORIENTED_EDGE ( 'NONE', *, *, #957, .F. ) ;
#464 = UNCERTAINTY_MEASURE_WITH_UNIT (LENGTH_MEASURE( 1.000000000000000082E-05 ), #535, 'distance_accuracy_value', 'NONE');
#465 = FACE_OUTER_BOUND ( 'NONE', #839, .T. ) ;
#466 = CARTESIAN_POINT ( 'NONE',  ( -7.474800853798072353, -42.28688318931309453, 86.40133283291507382 ) ) ;
#467 = CARTESIAN_POINT ( 'NONE',  ( 0.1330580152532345739, -15.71186078961787302, 79.00005456207884436 ) ) ;
#468 = CARTESIAN_POINT ( 'NONE',  ( -8.167829395111848356, -76.82317852636948885, 86.40033262030404160 ) ) ;
#469 = ORIENTED_EDGE ( 'NONE', *, *, #687, .T. ) ;
#470 = EDGE_CURVE ( 'NONE', #942, #267, #411, .T. ) ;
#471 = CARTESIAN_POINT ( 'NONE',  ( -14.89280967310457982, 26.08375989583974786, 78.00005456853884311 ) ) ;
#472 = MECHANICAL_DESIGN_GEOMETRIC_PRESENTATION_REPRESENTATION (  '', ( #250 ), #6 ) ;
#473 = CARTESIAN_POINT ( 'NONE',  ( -0.3669399600965128627, 17.52207669190959649, 67.10476761381134736 ) ) ;
#474 = AXIS2_PLACEMENT_3D ( 'NONE', #1008, #563, #451 ) ;
#475 = CARTESIAN_POINT ( 'NONE',  ( 0.1330600153216510151, 17.11804574207753760, 67.39931595747283666 ) ) ;
#476 = AXIS2_PLACEMENT_3D ( 'NONE', #530, #877, #3 ) ;
#477 = VERTEX_POINT ( 'NONE', #758 ) ;
#478 = UNCERTAINTY_MEASURE_WITH_UNIT (LENGTH_MEASURE( 1.000000000000000082E-05 ), #654, 'distance_accuracy_value', 'NONE');
#479 =( NAMED_UNIT ( * ) PLANE_ANGLE_UNIT ( ) SI_UNIT ( $, .RADIAN. ) );
#480 = ADVANCED_FACE ( 'NONE', ( #232 ), #1024, .T. ) ;
#481 =( LENGTH_UNIT ( ) NAMED_UNIT ( * ) SI_UNIT ( .MILLI., .METRE. ) );
#482 = CARTESIAN_POINT ( 'NONE',  ( -8.343966405527009300, 26.41805925114089248, 93.87735961422397679 ) ) ;
#483 = ORIENTED_EDGE ( 'NONE', *, *, #518, .F. ) ;
#484 =( NAMED_UNIT ( * ) SI_UNIT ( $, .STERADIAN. ) SOLID_ANGLE_UNIT ( ) );
#485 = FILL_AREA_STYLE_COLOUR ( '', #681 ) ;
#486 = DIRECTION ( 'NONE',  ( 0.4128382476730945716, 0.8118677227461993384, -0.4128382031996420953 ) ) ;
#487 = ORIENTED_EDGE ( 'NONE', *, *, #1096, .F. ) ;
#488 = FILL_AREA_STYLE_COLOUR ( '', #859 ) ;
#489 = DIRECTION ( 'NONE',  ( 0.9363291777212114919, -5.752032270421432990E-08, -0.3511234411826084645 ) ) ;
#490 = VECTOR ( 'NONE', #486, 1000.000000000000227 ) ;
#491 = FACE_OUTER_BOUND ( 'NONE', #738, .T. ) ;
#492 = VECTOR ( 'NONE', #216, 1000.000000000000000 ) ;
#493 = DIRECTION ( 'NONE',  ( 0.9999999999990863975, -3.196192139895615434E-08, 1.351308284912724234E-06 ) ) ;
#494 = PLANE ( 'NONE',  #476 ) ;
#495 =( LENGTH_UNIT ( ) NAMED_UNIT ( * ) SI_UNIT ( .MILLI., .METRE. ) );
#496 = DIRECTION ( 'NONE',  ( 2.999834857644152505E-09, 1.000000000000000000, -2.538818828370838553E-12 ) ) ;
#497 = ORIENTED_EDGE ( 'NONE', *, *, #701, .F. ) ;
#498 = EDGE_CURVE ( 'NONE', #168, #477, #225, .T. ) ;
#499 = PRESENTATION_STYLE_ASSIGNMENT (( #600 ) ) ;
#500 = CARTESIAN_POINT ( 'NONE',  ( -7.367376054280866171, -83.02899125131479252, 83.00033277264419951 ) ) ;
#501 =( NAMED_UNIT ( * ) PLANE_ANGLE_UNIT ( ) SI_UNIT ( $, .RADIAN. ) );
#502 = FACE_OUTER_BOUND ( 'NONE', #897, .T. ) ;
#503 = CARTESIAN_POINT ( 'NONE',  ( -9.867829395111787250, -76.82317833426930065, 86.40033262067765918 ) ) ;
#504 = MECHANICAL_DESIGN_GEOMETRIC_PRESENTATION_REPRESENTATION (  '', ( #138 ), #102 ) ;
#505 =( GEOMETRIC_REPRESENTATION_CONTEXT ( 3 ) GLOBAL_UNCERTAINTY_ASSIGNED_CONTEXT ( ( #173 ) ) GLOBAL_UNIT_ASSIGNED_CONTEXT ( ( #966, #172, #11 ) ) REPRESENTATION_CONTEXT ( 'NONE', 'WORKASPACE' ) );
#506 = AXIS2_PLACEMENT_3D ( 'NONE', #466, #902, #887 ) ;
#507 = EDGE_LOOP ( 'NONE', ( #62, #1031, #566, #520, #917, #441 ) ) ;
#508 = PRESENTATION_LAYER_ASSIGNMENT (  '', '', ( #588 ) ) ;
#509 = STYLED_ITEM ( 'NONE', ( #945 ), #651 ) ;
#510 = PRESENTATION_LAYER_ASSIGNMENT (  '', '', ( #85 ) ) ;
#511 = PRESENTATION_STYLE_ASSIGNMENT (( #66 ) ) ;
#512 = DIRECTION ( 'NONE',  ( 4.333394712880949467E-10, 2.539807712829532672E-12, -1.000000000000000000 ) ) ;
#513 = EDGE_CURVE ( 'NONE', #1060, #267, #935, .T. ) ;
#514 = EDGE_LOOP ( 'NONE', ( #695, #162, #163, #10 ) ) ;
#515 = VERTEX_POINT ( 'NONE', #1029 ) ;
#516 = FILL_AREA_STYLE_COLOUR ( '', #1022 ) ;
#517 =( NAMED_UNIT ( * ) PLANE_ANGLE_UNIT ( ) SI_UNIT ( $, .RADIAN. ) );
#518 = EDGE_CURVE ( 'NONE', #894, #860, #842, .T. ) ;
#519 = EDGE_CURVE ( 'NONE', #776, #1060, #837, .T. ) ;
#520 = ORIENTED_EDGE ( 'NONE', *, *, #760, .F. ) ;
#521 = CYLINDRICAL_SURFACE ( 'NONE', #7, 1.699999999999950218 ) ;
#522 =( NAMED_UNIT ( * ) PLANE_ANGLE_UNIT ( ) SI_UNIT ( $, .RADIAN. ) );
#523 = SURFACE_STYLE_FILL_AREA ( #244 ) ;
#524 = DIRECTION ( 'NONE',  ( -1.130001178413123848E-07, -0.9999999999999935607, -2.538818828370839361E-12 ) ) ;
#525 = ORIENTED_EDGE ( 'NONE', *, *, #135, .F. ) ;
#526 =( GEOMETRIC_REPRESENTATION_CONTEXT ( 3 ) GLOBAL_UNCERTAINTY_ASSIGNED_CONTEXT ( ( #1049 ) ) GLOBAL_UNIT_ASSIGNED_CONTEXT ( ( #908, #452, #799 ) ) REPRESENTATION_CONTEXT ( 'NONE', 'WORKASPACE' ) );
#527 = PRESENTATION_LAYER_ASSIGNMENT (  '', '', ( #401 ) ) ;
#528 = MECHANICAL_DESIGN_GEOMETRIC_PRESENTATION_REPRESENTATION (  '', ( #1111 ), #1021 ) ;
#529 = EDGE_LOOP ( 'NONE', ( #86, #795, #413, #801 ) ) ;
#530 = CARTESIAN_POINT ( 'NONE',  ( -2.166947305829169945, -23.71186064932051352, 78.00005456310418595 ) ) ;
#531 = MECHANICAL_DESIGN_GEOMETRIC_PRESENTATION_REPRESENTATION (  '', ( #85 ), #1075 ) ;
#532 = LINE ( 'NONE', #879, #637 ) ;
#533 = DIRECTION ( 'NONE',  ( 2.999834857644063996E-09, 1.000000000000000000, -2.538818828370763832E-12 ) ) ;
#534 = ORIENTED_EDGE ( 'NONE', *, *, #518, .T. ) ;
#535 =( LENGTH_UNIT ( ) NAMED_UNIT ( * ) SI_UNIT ( .MILLI., .METRE. ) );
#536 = ORIENTED_EDGE ( 'NONE', *, *, #470, .F. ) ;
#537 = EDGE_CURVE ( 'NONE', #58, #725, #43, .T. ) ;
#538 = DIRECTION ( 'NONE',  ( 4.333394709938329918E-10, -2.540046244083746293E-12, -1.000000000000000000 ) ) ;
#539 = DIRECTION ( 'NONE',  ( 4.333394712880949467E-10, 2.539807712829532672E-12, -1.000000000000000000 ) ) ;
#540 = ORIENTED_EDGE ( 'NONE', *, *, #360, .T. ) ;
#541 = DIRECTION ( 'NONE',  ( 0.7071065450279256925, -0.5713865407157714404, -0.4165546243501976886 ) ) ;
#542 = VERTEX_POINT ( 'NONE', #750 ) ;
#543 =( NAMED_UNIT ( * ) SI_UNIT ( $, .STERADIAN. ) SOLID_ANGLE_UNIT ( ) );
#544 = CARTESIAN_POINT ( 'NONE',  ( -2.179211305361334006, -20.02788556784115670, 86.40033261901986350 ) ) ;
#545 = PRESENTATION_LAYER_ASSIGNMENT (  '', '', ( #304 ) ) ;
#546 = VECTOR ( 'NONE', #378, 1000.000000000000000 ) ;
#547 = AXIS2_PLACEMENT_3D ( 'NONE', #869, #83, #789 ) ;
#548 = DIRECTION ( 'NONE',  ( 4.369862248743669232E-10, -2.540033718160519065E-12, 1.000000000000000000 ) ) ;
#549 = MECHANICAL_DESIGN_GEOMETRIC_PRESENTATION_REPRESENTATION (  '', ( #9 ), #858 ) ;
#550 = DIRECTION ( 'NONE',  ( -0.6653998373944766120, -0.3383580026314048084, -0.6653998184931300131 ) ) ;
#551 = SURFACE_STYLE_FILL_AREA ( #197 ) ;
#552 = EDGE_CURVE ( 'NONE', #384, #351, #899, .T. ) ;
#553 = COLOUR_RGB ( '',0.7921568627450980005, 0.8196078431372548767, 0.9333333333333333481 ) ;
#554 = FACE_OUTER_BOUND ( 'NONE', #514, .T. ) ;
#555 = FILL_AREA_STYLE ('',( #109 ) ) ;
#556 = EDGE_LOOP ( 'NONE', ( #1010, #534, #209, #357 ) ) ;
#557 = CARTESIAN_POINT ( 'NONE',  ( -3.454212002000744963, -32.34391040981204668, 83.00033277441806945 ) ) ;
#558 = SURFACE_STYLE_FILL_AREA ( #650 ) ;
#559 = DIRECTION ( 'NONE',  ( 5.296491388704482511E-07, -0.8080623063796907868, 0.5890970285174202958 ) ) ;
#560 = UNCERTAINTY_MEASURE_WITH_UNIT (LENGTH_MEASURE( 1.000000000000000082E-05 ), #722, 'distance_accuracy_value', 'NONE');
#561 = PLANE ( 'NONE',  #52 ) ;
#562 = LINE ( 'NONE', #393, #871 ) ;
#563 = DIRECTION ( 'NONE',  ( -4.333394709934745124E-10, 2.540046291517588511E-12, 1.000000000000000000 ) ) ;
#564 = ORIENTED_EDGE ( 'NONE', *, *, #314, .T. ) ;
#565 = FILL_AREA_STYLE ('',( #828 ) ) ;
#566 = ORIENTED_EDGE ( 'NONE', *, *, #116, .T. ) ;
#567 = EDGE_CURVE ( 'NONE', #866, #975, #182, .T. ) ;
#568 = SURFACE_SIDE_STYLE ('',( #1006 ) ) ;
#569 = VECTOR ( 'NONE', #930, 1000.000000000000114 ) ;
#570 = PRESENTATION_STYLE_ASSIGNMENT (( #575 ) ) ;
#571 = CIRCLE ( 'NONE', #682, 1.700000000000003952 ) ;
#572 =( GEOMETRIC_REPRESENTATION_CONTEXT ( 3 ) GLOBAL_UNCERTAINTY_ASSIGNED_CONTEXT ( ( #1044 ) ) GLOBAL_UNIT_ASSIGNED_CONTEXT ( ( #146, #167, #709 ) ) REPRESENTATION_CONTEXT ( 'NONE', 'WORKASPACE' ) );
#573 = LINE ( 'NONE', #482, #1141 ) ;
#574 =( NAMED_UNIT ( * ) PLANE_ANGLE_UNIT ( ) SI_UNIT ( $, .RADIAN. ) );
#575 = SURFACE_STYLE_USAGE ( .BOTH. , #741 ) ;
#576 = DIRECTION ( 'NONE',  ( -6.233843280756077929E-07, -0.8080623063796241734, -0.5890970285174200738 ) ) ;
#577 = ORIENTED_EDGE ( 'NONE', *, *, #395, .T. ) ;
#578 = DIRECTION ( 'NONE',  ( 0.6653995852653367127, -0.3383589199373789325, -0.6653996041684486773 ) ) ;
#579 = DIRECTION ( 'NONE',  ( -4.333394709934745124E-10, 2.540046291517588511E-12, 1.000000000000000000 ) ) ;
#580 = LINE ( 'NONE', #218, #569 ) ;
#581 = VERTEX_POINT ( 'NONE', #688 ) ;
#582 = UNCERTAINTY_MEASURE_WITH_UNIT (LENGTH_MEASURE( 1.000000000000000082E-05 ), #481, 'distance_accuracy_value', 'NONE');
#583 = DIRECTION ( 'NONE',  ( 5.840141742785343970E-07, -0.8913745084191070367, -0.4532675652859516346 ) ) ;
#584 = FILL_AREA_STYLE ('',( #485 ) ) ;
#585 = AXIS2_PLACEMENT_3D ( 'NONE', #719, #96, #353 ) ;
#586 = EDGE_CURVE ( 'NONE', #725, #894, #344, .T. ) ;
#587 =( LENGTH_UNIT ( ) NAMED_UNIT ( * ) SI_UNIT ( .MILLI., .METRE. ) );
#588 = STYLED_ITEM ( 'NONE', ( #992 ), #1085 ) ;
#589 = VECTOR ( 'NONE', #1086, 1000.000000000000114 ) ;
#590 = VERTEX_POINT ( 'NONE', #607 ) ;
#591 = STYLED_ITEM ( 'NONE', ( #433 ), #884 ) ;
#592 = SURFACE_STYLE_USAGE ( .BOTH. , #673 ) ;
#593 = CARTESIAN_POINT ( 'NONE',  ( -2.179211983050877155, -32.34391048812771885, 86.40033282943210224 ) ) ;
#594 = DIRECTION ( 'NONE',  ( 0.2900013140408835843, 0.5637814425639352534, 0.7733367461042369717 ) ) ;
#595 = ORIENTED_EDGE ( 'NONE', *, *, #976, .F. ) ;
#596 = SURFACE_SIDE_STYLE ('',( #523 ) ) ;
#597 = SURFACE_STYLE_USAGE ( .BOTH. , #431 ) ;
#598 = ORIENTED_EDGE ( 'NONE', *, *, #1096, .T. ) ;
#599 = ADVANCED_FACE ( 'NONE', ( #81 ), #259, .T. ) ;
#600 = SURFACE_STYLE_USAGE ( .BOTH. , #1045 ) ;
#601 = SURFACE_STYLE_USAGE ( .BOTH. , #596 ) ;
#602 = SURFACE_STYLE_FILL_AREA ( #1138 ) ;
#603 = VECTOR ( 'NONE', #5, 999.9999999999998863 ) ;
#604 = ORIENTED_EDGE ( 'NONE', *, *, #798, .F. ) ;
#605 = VECTOR ( 'NONE', #980, 999.9999999999998863 ) ;
#606 = EDGE_LOOP ( 'NONE', ( #1153, #625 ) ) ;
#607 = CARTESIAN_POINT ( 'NONE',  ( -0.8669475921212199676, -114.7945019649182967, 86.40033261860429548 ) ) ;
#608 = CARTESIAN_POINT ( 'NONE',  ( 3.025162016746435256, 23.16298223858313676, 100.2786544208283459 ) ) ;
#609 =( NAMED_UNIT ( * ) SI_UNIT ( $, .STERADIAN. ) SOLID_ANGLE_UNIT ( ) );
#610 = ORIENTED_EDGE ( 'NONE', *, *, #44, .T. ) ;
#611 =( NAMED_UNIT ( * ) PLANE_ANGLE_UNIT ( ) SI_UNIT ( $, .RADIAN. ) );
#612 = UNCERTAINTY_MEASURE_WITH_UNIT (LENGTH_MEASURE( 1.000000000000000082E-05 ), #57, 'distance_accuracy_value', 'NONE');
#613 = DIRECTION ( 'NONE',  ( -2.197734593678702444E-10, 2.529758923907254124E-12, -1.000000000000000000 ) ) ;
#614 = ORIENTED_EDGE ( 'NONE', *, *, #668, .F. ) ;
#615 = UNCERTAINTY_MEASURE_WITH_UNIT (LENGTH_MEASURE( 1.000000000000000082E-05 ), #352, 'distance_accuracy_value', 'NONE');
#616 = ORIENTED_EDGE ( 'NONE', *, *, #54, .F. ) ;
#617 = DIRECTION ( 'NONE',  ( 1.000000000000000000, -2.999834857644060274E-09, -2.197751784482238523E-10 ) ) ;
#618 = EDGE_CURVE ( 'NONE', #404, #883, #141, .T. ) ;
#619 =( NAMED_UNIT ( * ) SI_UNIT ( $, .STERADIAN. ) SOLID_ANGLE_UNIT ( ) );
#620 =( GEOMETRIC_REPRESENTATION_CONTEXT ( 3 ) GLOBAL_UNCERTAINTY_ASSIGNED_CONTEXT ( ( #159 ) ) GLOBAL_UNIT_ASSIGNED_CONTEXT ( ( #587, #501, #144 ) ) REPRESENTATION_CONTEXT ( 'NONE', 'WORKASPACE' ) );
#621 = VECTOR ( 'NONE', #460, 999.9999999999998863 ) ;
#622 = MECHANICAL_DESIGN_GEOMETRIC_PRESENTATION_REPRESENTATION (  '', ( #336 ), #160 ) ;
#623 = DIRECTION ( 'NONE',  ( -6.099980549622820148E-08, -0.9999999999999982236, 2.540158160852999897E-12 ) ) ;
#624 = CARTESIAN_POINT ( 'NONE',  ( -7.367376055380292499, -83.02899125130205960, 78.00005456532159087 ) ) ;
#625 = ORIENTED_EDGE ( 'NONE', *, *, #618, .T. ) ;
#626 = PRESENTATION_STYLE_ASSIGNMENT (( #979 ) ) ;
#627 = DIRECTION ( 'NONE',  ( 2.999834857644152505E-09, 1.000000000000000000, -2.538818828370838553E-12 ) ) ;
#628 = CARTESIAN_POINT ( 'NONE',  ( -7.474800857469315218, -42.28688318933443924, 78.00005456547083327 ) ) ;
#629 = EDGE_LOOP ( 'NONE', ( #595, #876, #497, #1130 ) ) ;
#630 = ORIENTED_EDGE ( 'NONE', *, *, #513, .T. ) ;
#631 = SHAPE_DEFINITION_REPRESENTATION ( #1016, #779 ) ;
#632 = EDGE_CURVE ( 'NONE', #221, #241, #685, .T. ) ;
#633 = FILL_AREA_STYLE_COLOUR ( '', #324 ) ;
#634 = PLANE ( 'NONE',  #291 ) ;
#635 = EDGE_LOOP ( 'NONE', ( #984, #461, #903, #426, #778, #704 ) ) ;
#636 = PLANE ( 'NONE',  #896 ) ;
#637 = VECTOR ( 'NONE', #886, 999.9999999999998863 ) ;
#638 = COLOUR_RGB ( '',0.2862745098039215508, 0.6627450980392156632, 0.3294117647058823484 ) ;
#639 = MECHANICAL_DESIGN_GEOMETRIC_PRESENTATION_REPRESENTATION (  '', ( #219 ), #733 ) ;
#640 = DIRECTION ( 'NONE',  ( 4.333394712880949467E-10, 2.539807712829532672E-12, -1.000000000000000000 ) ) ;
#641 = VECTOR ( 'NONE', #374, 999.9999999999998863 ) ;
#642 = LINE ( 'NONE', #1077, #621 ) ;
#643 = PRESENTATION_LAYER_ASSIGNMENT (  '', '', ( #336 ) ) ;
#644 = EDGE_CURVE ( 'NONE', #1147, #294, #1046, .T. ) ;
#645 = SURFACE_SIDE_STYLE ('',( #1088 ) ) ;
#646 = SURFACE_STYLE_USAGE ( .BOTH. , #126 ) ;
#647 = ORIENTED_EDGE ( 'NONE', *, *, #1121, .F. ) ;
#648 = LINE ( 'NONE', #659, #110 ) ;
#649 = DIRECTION ( 'NONE',  ( -4.333394709934745124E-10, 2.540046244083743465E-12, 1.000000000000000000 ) ) ;
#650 = FILL_AREA_STYLE ('',( #794 ) ) ;
#651 = ADVANCED_FACE ( 'NONE', ( #169 ), #330, .F. ) ;
#652 = SURFACE_STYLE_FILL_AREA ( #827 ) ;
#653 = EDGE_LOOP ( 'NONE', ( #536, #598, #278, #630 ) ) ;
#654 =( LENGTH_UNIT ( ) NAMED_UNIT ( * ) SI_UNIT ( .MILLI., .METRE. ) );
#655 = FILL_AREA_STYLE ('',( #836 ) ) ;
#656 = CARTESIAN_POINT ( 'NONE',  ( 0.1330585048781585122, -7.711860789599102262, 86.40033261848051893 ) ) ;
#657 = CARTESIAN_POINT ( 'NONE',  ( -9.067371329331907148, -1.545347146888409684, 78.00005456606373855 ) ) ;
#658 = EDGE_CURVE ( 'NONE', #1048, #515, #813, .T. ) ;
#659 = CARTESIAN_POINT ( 'NONE',  ( -8.343974375329189286, -110.9923975411523145, 93.87735961422470155 ) ) ;
#660 = MECHANICAL_DESIGN_GEOMETRIC_PRESENTATION_REPRESENTATION (  '', ( #65 ), #768 ) ;
#661 = SURFACE_STYLE_USAGE ( .BOTH. , #1118 ) ;
#662 = PRESENTATION_LAYER_ASSIGNMENT (  '', '', ( #509 ) ) ;
#663 = SURFACE_STYLE_FILL_AREA ( #1123 ) ;
#664 = FILL_AREA_STYLE ('',( #763 ) ) ;
#665 = CARTESIAN_POINT ( 'NONE',  ( -7.474800857469315218, -42.28688318933443924, 78.00005456547083327 ) ) ;
#666 = DIRECTION ( 'NONE',  ( 0.9999999999999935607, -1.130001158004577683E-07, -2.197751784482239298E-10 ) ) ;
#667 =( NAMED_UNIT ( * ) SI_UNIT ( $, .STERADIAN. ) SOLID_ANGLE_UNIT ( ) );
#668 = EDGE_CURVE ( 'NONE', #725, #853, #279, .T. ) ;
#669 = FACE_BOUND ( 'NONE', #53, .T. ) ;
#670 = CARTESIAN_POINT ( 'NONE',  ( -3.623429434378183878, 30.22016100125621207, 86.40033261920923735 ) ) ;
#671 = VERTEX_POINT ( 'NONE', #95 ) ;
#672 = ORIENTED_EDGE ( 'NONE', *, *, #1110, .F. ) ;
#673 = SURFACE_SIDE_STYLE ('',( #349 ) ) ;
#674 = FILL_AREA_STYLE ('',( #1036 ) ) ;
#675 = CIRCLE ( 'NONE', #1125, 1.700000000000003952 ) ;
#676 = EDGE_CURVE ( 'NONE', #883, #404, #571, .T. ) ;
#677 = STYLED_ITEM ( 'NONE', ( #1156 ), #1027 ) ;
#678 = AXIS2_PLACEMENT_3D ( 'NONE', #656, #315, #47 ) ;
#679 = LINE ( 'NONE', #132, #490 ) ;
#680 = AXIS2_PLACEMENT_3D ( 'NONE', #42, #649, #1007 ) ;
#681 = COLOUR_RGB ( '',0.2862745098039215508, 0.6627450980392156632, 0.3294117647058823484 ) ;
#682 = AXIS2_PLACEMENT_3D ( 'NONE', #1000, #640, #1081 ) ;
#683 = PRESENTATION_LAYER_ASSIGNMENT (  '', '', ( #591 ) ) ;
#684 = DIRECTION ( 'NONE',  ( 1.000000000000000000, -2.999834857644149196E-09, -2.197751784482303922E-10 ) ) ;
#685 = LINE ( 'NONE', #503, #306 ) ;
#686 = CARTESIAN_POINT ( 'NONE',  ( -5.774800857469315929, -42.28688318932809409, 78.00005456472796084 ) ) ;
#687 = EDGE_CURVE ( 'NONE', #671, #294, #1076, .T. ) ;
#688 = CARTESIAN_POINT ( 'NONE',  ( -0.06389011984109238540, -115.2028605887965256, 85.59727512350985990 ) ) ;
#689 = DIRECTION ( 'NONE',  ( 2.197723790870313082E-10, 2.530246245678732450E-12, 1.000000000000000000 ) ) ;
#690 = ORIENTED_EDGE ( 'NONE', *, *, #444, .F. ) ;
#691 = ADVANCED_FACE ( 'NONE', ( #90, #969, #190, #27, #808, #792 ), #380, .F. ) ;
#692 = ORIENTED_EDGE ( 'NONE', *, *, #513, .F. ) ;
#693 = DIRECTION ( 'NONE',  ( 2.197734596613208902E-10, 2.529921743968507539E-12, 1.000000000000000000 ) ) ;
#694 =( GEOMETRIC_REPRESENTATION_CONTEXT ( 3 ) GLOBAL_UNCERTAINTY_ASSIGNED_CONTEXT ( ( #350 ) ) GLOBAL_UNIT_ASSIGNED_CONTEXT ( ( #495, #1122, #389 ) ) REPRESENTATION_CONTEXT ( 'NONE', 'WORKASPACE' ) );
#695 = ORIENTED_EDGE ( 'NONE', *, *, #395, .F. ) ;
#696 = VECTOR ( 'NONE', #417, 1000.000000000000000 ) ;
#697 = ORIENTED_EDGE ( 'NONE', *, *, #360, .F. ) ;
#698 = PRESENTATION_STYLE_ASSIGNMENT (( #1128 ) ) ;
#699 = CARTESIAN_POINT ( 'NONE',  ( -7.367371327485550125, -1.545347151973200273, 86.40033262011363036 ) ) ;
#700 = ORIENTED_EDGE ( 'NONE', *, *, #552, .F. ) ;
#701 = EDGE_CURVE ( 'NONE', #12, #241, #1059, .T. ) ;
#702 = SURFACE_STYLE_FILL_AREA ( #958 ) ;
#703 = DIRECTION ( 'NONE',  ( 4.965966106542634400E-08, 0.5890970426075518018, -0.8080622961078148814 ) ) ;
#704 = ORIENTED_EDGE ( 'NONE', *, *, #339, .F. ) ;
#705 = CARTESIAN_POINT ( 'NONE',  ( 10.05624534387908398, 10.72676351644767578, 75.47714689960471901 ) ) ;
#706 = DIRECTION ( 'NONE',  ( 2.197734596613208902E-10, 2.529921743968507539E-12, 1.000000000000000000 ) ) ;
#707 = DIRECTION ( 'NONE',  ( -1.000000000000000000, 0.000000000000000000, 4.369870478542991759E-10 ) ) ;
#708 = ORIENTED_EDGE ( 'NONE', *, *, #145, .T. ) ;
#709 =( NAMED_UNIT ( * ) SI_UNIT ( $, .STERADIAN. ) SOLID_ANGLE_UNIT ( ) );
#710 = AXIS2_PLACEMENT_3D ( 'NONE', #807, #39, #371 ) ;
#711 = MECHANICAL_DESIGN_GEOMETRIC_PRESENTATION_REPRESENTATION (  '', ( #125 ), #1112 ) ;
#712 = VECTOR ( 'NONE', #810, 1000.000000000000000 ) ;
#713 =( GEOMETRIC_REPRESENTATION_CONTEXT ( 3 ) GLOBAL_UNCERTAINTY_ASSIGNED_CONTEXT ( ( #1062 ) ) GLOBAL_UNIT_ASSIGNED_CONTEXT ( ( #1053, #611, #961 ) ) REPRESENTATION_CONTEXT ( 'NONE', 'WORKASPACE' ) );
#714 =( GEOMETRIC_REPRESENTATION_CONTEXT ( 3 ) GLOBAL_UNCERTAINTY_ASSIGNED_CONTEXT ( ( #560 ) ) GLOBAL_UNIT_ASSIGNED_CONTEXT ( ( #722, #205, #543 ) ) REPRESENTATION_CONTEXT ( 'NONE', 'WORKASPACE' ) );
#715 = SURFACE_SIDE_STYLE ('',( #443 ) ) ;
#716 = CARTESIAN_POINT ( 'NONE',  ( -14.89281248480619979, -20.02788479249763398, 83.00033276943025840 ) ) ;
#717 = CARTESIAN_POINT ( 'NONE',  ( -8.167825388937426823, -7.751159784074507009, 86.40033262030333105 ) ) ;
#718 = FILL_AREA_STYLE_COLOUR ( '', #435 ) ;
#719 = CARTESIAN_POINT ( 'NONE',  ( -8.167829395859721231, -76.82317852636089128, 83.00033277231388240 ) ) ;
#720 = EDGE_CURVE ( 'NONE', #853, #294, #1068, .T. ) ;
#721 = ORIENTED_EDGE ( 'NONE', *, *, #720, .T. ) ;
#722 =( LENGTH_UNIT ( ) NAMED_UNIT ( * ) SI_UNIT ( .MILLI., .METRE. ) );
#723 = DIRECTION ( 'NONE',  ( -0.6653997981449597532, 0.3383580798177519555, -0.6653998184931301241 ) ) ;
#724 = DIRECTION ( 'NONE',  ( 3.222283281759063404E-08, 0.5890970285175181065, -0.8080623063797922612 ) ) ;
#725 = VERTEX_POINT ( 'NONE', #445 ) ;
#726 = CARTESIAN_POINT ( 'NONE',  ( 0.1330585046582510866, -7.711860789601606925, 85.40033261848017787 ) ) ;
#727 =( NAMED_UNIT ( * ) PLANE_ANGLE_UNIT ( ) SI_UNIT ( $, .RADIAN. ) );
#728 = FILL_AREA_STYLE ('',( #377 ) ) ;
#729 = PRESENTATION_STYLE_ASSIGNMENT (( #17 ) ) ;
#730 = VERTEX_POINT ( 'NONE', #454 ) ;
#731 = VECTOR ( 'NONE', #1079, 1000.000000000000114 ) ;
#732 = CLOSED_SHELL ( 'NONE', ( #308, #786, #884, #943, #874, #428, #239, #651, #277, #1133, #480, #838, #891, #691, #462, #1139, #37, #1027, #1085, #73, #599, #104, #865, #403 ) ) ;
#733 =( GEOMETRIC_REPRESENTATION_CONTEXT ( 3 ) GLOBAL_UNCERTAINTY_ASSIGNED_CONTEXT ( ( #955 ) ) GLOBAL_UNIT_ASSIGNED_CONTEXT ( ( #376, #118, #988 ) ) REPRESENTATION_CONTEXT ( 'NONE', 'WORKASPACE' ) );
#734 = CARTESIAN_POINT ( 'NONE',  ( -14.89281222262867033, -15.71185987304523479, 78.00005456864522557 ) ) ;
#735 = VECTOR ( 'NONE', #623, 999.9999999999998863 ) ;
#736 = CARTESIAN_POINT ( 'NONE',  ( -6.467829395859782338, -76.82317871845475565, 83.00033277305054469 ) ) ;
#737 = ORIENTED_EDGE ( 'NONE', *, *, #314, .F. ) ;
#738 = EDGE_LOOP ( 'NONE', ( #332, #1117, #982, #965, #1093, #796 ) ) ;
#739 = DIRECTION ( 'NONE',  ( 0.000000000000000000, 0.000000000000000000, 1.000000000000000000 ) ) ;
#740 = PRESENTATION_STYLE_ASSIGNMENT (( #744 ) ) ;
#741 = SURFACE_SIDE_STYLE ('',( #551 ) ) ;
#742 = APPLICATION_CONTEXT ( 'automotive_design' ) ;
#743 = FACE_OUTER_BOUND ( 'NONE', #1135, .T. ) ;
#744 = SURFACE_STYLE_USAGE ( .BOTH. , #912 ) ;
#745 = DIRECTION ( 'NONE',  ( 0.9999999999997021272, -7.717716841208015649E-07, 4.333394693248274128E-10 ) ) ;
#746 = EDGE_LOOP ( 'NONE', ( #864, #755, #264, #708 ) ) ;
#747 = SURFACE_STYLE_FILL_AREA ( #926 ) ;
#748 = PRESENTATION_LAYER_ASSIGNMENT (  '', '', ( #1111 ) ) ;
#749 = VECTOR ( 'NONE', #1116, 1000.000000000000000 ) ;
#750 = CARTESIAN_POINT ( 'NONE',  ( -5.667371329331906793, -1.545347157087848533, 78.00005456457797948 ) ) ;
#751 = AXIS2_PLACEMENT_3D ( 'NONE', #814, #381, #21 ) ;
#752 = MECHANICAL_DESIGN_GEOMETRIC_PRESENTATION_REPRESENTATION (  '', ( #770 ), #714 ) ;
#753 = VECTOR ( 'NONE', #128, 1000.000000000000114 ) ;
#754 = SURFACE_STYLE_USAGE ( .BOTH. , #1030 ) ;
#755 = ORIENTED_EDGE ( 'NONE', *, *, #767, .T. ) ;
#756 = EDGE_CURVE ( 'NONE', #1147, #269, #1154, .T. ) ;
#757 = DIRECTION ( 'NONE',  ( 0.7071067809543299942, -4.313517229448600324E-08, -0.7071067814187638190 ) ) ;
#758 = CARTESIAN_POINT ( 'NONE',  ( -0.8669391812751170434, 30.22016280757210183, 86.40033261860352809 ) ) ;
#759 = ORIENTED_EDGE ( 'NONE', *, *, #1052, .T. ) ;
#760 = EDGE_CURVE ( 'NONE', #860, #953, #288, .T. ) ;
#761 = ORIENTED_EDGE ( 'NONE', *, *, #152, .F. ) ;
#762 = CARTESIAN_POINT ( 'NONE',  ( 0.1330608197899207923, 30.24122367218774698, 85.40033261838387091 ) ) ;
#763 = FILL_AREA_STYLE_COLOUR ( '', #1058 ) ;
#764 = DIRECTION ( 'NONE',  ( -4.333394709934745124E-10, 2.540046291517588511E-12, 1.000000000000000000 ) ) ;
#765 = CIRCLE ( 'NONE', #1018, 1.699999999999999289 ) ;
#766 = DIRECTION ( 'NONE',  ( 2.999834857644152505E-09, 1.000000000000000000, -2.538818828370838553E-12 ) ) ;
#767 = EDGE_CURVE ( 'NONE', #975, #866, #784, .T. ) ;
#768 =( GEOMETRIC_REPRESENTATION_CONTEXT ( 3 ) GLOBAL_UNCERTAINTY_ASSIGNED_CONTEXT ( ( #1131 ) ) GLOBAL_UNIT_ASSIGNED_CONTEXT ( ( #915, #372, #40 ) ) REPRESENTATION_CONTEXT ( 'NONE', 'WORKASPACE' ) );
#769 = AXIS2_PLACEMENT_3D ( 'NONE', #665, #394, #123 ) ;
#770 = STYLED_ITEM ( 'NONE', ( #885 ), #691 ) ;
#771 = CIRCLE ( 'NONE', #203, 1.700000000000003952 ) ;
#772 = DIRECTION ( 'NONE',  ( -4.369862251690080887E-10, -2.540171340685657558E-12, -1.000000000000000000 ) ) ;
#773 = EDGE_CURVE ( 'NONE', #287, #811, #803, .T. ) ;
#774 = CARTESIAN_POINT ( 'NONE',  ( -9.867825388937379927, -7.751159778974788139, 86.40033262067694864 ) ) ;
#775 = ORIENTED_EDGE ( 'NONE', *, *, #1104, .T. ) ;
#776 = VERTEX_POINT ( 'NONE', #991 ) ;
#777 = CARTESIAN_POINT ( 'NONE',  ( -0.3669414952312821665, -7.711860759100436447, 85.90033261858987146 ) ) ;
#778 = ORIENTED_EDGE ( 'NONE', *, *, #171, .T. ) ;
#779 = ADVANCED_BREP_SHAPE_REPRESENTATION ( 'Side Skirt Accent', ( #928, #107 ), #919 ) ;
#780 = SURFACE_STYLE_FILL_AREA ( #345 ) ;
#781 = PRESENTATION_STYLE_ASSIGNMENT (( #597 ) ) ;
#782 = CIRCLE ( 'NONE', #680, 1.699999999999999289 ) ;
#783 = EDGE_LOOP ( 'NONE', ( #1065, #925, #790, #263, #990 ) ) ;
#784 = CIRCLE ( 'NONE', #292, 1.699999999999948885 ) ;
#785 = ORIENTED_EDGE ( 'NONE', *, *, #54, .T. ) ;
#786 = ADVANCED_FACE ( 'NONE', ( #465 ), #1095, .F. ) ;
#787 =( NAMED_UNIT ( * ) SI_UNIT ( $, .STERADIAN. ) SOLID_ANGLE_UNIT ( ) );
#788 = PLANE ( 'NONE',  #857 ) ;
#789 = DIRECTION ( 'NONE',  ( -6.990788275104642770E-10, -0.01506278616688945873, 0.9998865498009714692 ) ) ;
#790 = ORIENTED_EDGE ( 'NONE', *, *, #214, .T. ) ;
#791 = EDGE_LOOP ( 'NONE', ( #1019, #386 ) ) ;
#792 = FACE_BOUND ( 'NONE', #606, .T. ) ;
#793 = CARTESIAN_POINT ( 'NONE',  ( -7.367371327485550125, -1.545347151973200273, 86.40033262011363036 ) ) ;
#794 = FILL_AREA_STYLE_COLOUR ( '', #872 ) ;
#795 = ORIENTED_EDGE ( 'NONE', *, *, #296, .T. ) ;
#796 = ORIENTED_EDGE ( 'NONE', *, *, #687, .F. ) ;
#797 = DIRECTION ( 'NONE',  ( -2.197734593678702444E-10, 2.529758923907254124E-12, -1.000000000000000000 ) ) ;
#798 = EDGE_CURVE ( 'NONE', #542, #351, #830, .T. ) ;
#799 =( NAMED_UNIT ( * ) SI_UNIT ( $, .STERADIAN. ) SOLID_ANGLE_UNIT ( ) );
#800 = DIRECTION ( 'NONE',  ( -2.197734593678702444E-10, 2.529758923907254124E-12, -1.000000000000000000 ) ) ;
#801 = ORIENTED_EDGE ( 'NONE', *, *, #88, .T. ) ;
#802 = MECHANICAL_DESIGN_GEOMETRIC_PRESENTATION_REPRESENTATION (  '', ( #290 ), #713 ) ;
#803 = LINE ( 'NONE', #177, #589 ) ;
#804 = CARTESIAN_POINT ( 'NONE',  ( -5.774800855284264678, -42.28688318932809409, 83.00033277343720783 ) ) ;
#805 = DIRECTION ( 'NONE',  ( -4.369862251690081404E-10, -2.540171391507634797E-12, -1.000000000000000000 ) ) ;
#806 = EDGE_CURVE ( 'NONE', #391, #730, #771, .T. ) ;
#807 = CARTESIAN_POINT ( 'NONE',  ( -14.89281173278383896, -7.711859873023863443, 86.40033262178320683 ) ) ;
#808 = FACE_BOUND ( 'NONE', #442, .T. ) ;
#809 = DIRECTION ( 'NONE',  ( -0.7071066113087326466, -0.5713864586914420007, 0.4165546243501974666 ) ) ;
#810 = DIRECTION ( 'NONE',  ( -2.197723787935429740E-10, 2.530083425617479036E-12, -1.000000000000000000 ) ) ;
#811 = VERTEX_POINT ( 'NONE', #1028 ) ;
#812 = LINE ( 'NONE', #24, #546 ) ;
#813 = LINE ( 'NONE', #557, #605 ) ;
#814 = CARTESIAN_POINT ( 'NONE',  ( -8.167829396958147470, -76.82317852634817257, 78.00005456568730722 ) ) ;
#815 = CYLINDRICAL_SURFACE ( 'NONE', #506, 1.699999999999998401 ) ;
#816 = DIRECTION ( 'NONE',  ( -4.369862251690080887E-10, -2.540171340685657558E-12, -1.000000000000000000 ) ) ;
#817 = SURFACE_STYLE_FILL_AREA ( #565 ) ;
#818 = VECTOR ( 'NONE', #1083, 999.9999999999998863 ) ;
#819 = MECHANICAL_DESIGN_GEOMETRIC_PRESENTATION_REPRESENTATION (  '', ( #677 ), #1126 ) ;
#820 = PRESENTATION_LAYER_ASSIGNMENT (  '', '', ( #219 ) ) ;
#821 = EDGE_CURVE ( 'NONE', #590, #581, #648, .T. ) ;
#822 = PRESENTATION_LAYER_ASSIGNMENT (  '', '', ( #951 ) ) ;
#823 = PRESENTATION_LAYER_ASSIGNMENT (  '', '', ( #9 ) ) ;
#824 = FILL_AREA_STYLE_COLOUR ( '', #236 ) ;
#825 = VECTOR ( 'NONE', #283, 1000.000000000000227 ) ;
#826 = SURFACE_SIDE_STYLE ('',( #223 ) ) ;
#827 = FILL_AREA_STYLE ('',( #718 ) ) ;
#828 = FILL_AREA_STYLE_COLOUR ( '', #434 ) ;
#829 = ORIENTED_EDGE ( 'NONE', *, *, #196, .T. ) ;
#830 = LINE ( 'NONE', #922, #900 ) ;
#831 = DIRECTION ( 'NONE',  ( 0.9999999999999935607, -1.130001158004611167E-07, -2.197751784482304439E-10 ) ) ;
#832 = DIRECTION ( 'NONE',  ( 2.999834857644063996E-09, 1.000000000000000000, -2.538818828370763832E-12 ) ) ;
#833 = ORIENTED_EDGE ( 'NONE', *, *, #720, .F. ) ;
#834 = FACE_OUTER_BOUND ( 'NONE', #783, .T. ) ;
#835 = APPLICATION_CONTEXT ( 'automotive_design' ) ;
#836 = FILL_AREA_STYLE_COLOUR ( '', #1091 ) ;
#837 = LINE ( 'NONE', #38, #492 ) ;
#838 = ADVANCED_FACE ( 'NONE', ( #834 ), #920, .F. ) ;
#839 = EDGE_LOOP ( 'NONE', ( #245, #577, #257, #1073 ) ) ;
#840 = AXIS2_PLACEMENT_3D ( 'NONE', #937, #576, #400 ) ;
#841 = CIRCLE ( 'NONE', #340, 1.699999999999948441 ) ;
#842 = LINE ( 'NONE', #475, #997 ) ;
#843 = AXIS2_PLACEMENT_3D ( 'NONE', #777, #1137, #334 ) ;
#844 = COLOUR_RGB ( '',0.2862745098039215508, 0.6627450980392156632, 0.3294117647058823484 ) ;
#845 = UNCERTAINTY_MEASURE_WITH_UNIT (LENGTH_MEASURE( 1.000000000000000082E-05 ), #222, 'distance_accuracy_value', 'NONE');
#846 = ORIENTED_EDGE ( 'NONE', *, *, #171, .F. ) ;
#847 = LINE ( 'NONE', #56, #753 ) ;
#848 = DIRECTION ( 'NONE',  ( -4.333394709934745124E-10, 2.540046244083743465E-12, 1.000000000000000000 ) ) ;
#849 = EDGE_LOOP ( 'NONE', ( #692, #19 ) ) ;
#850 = EDGE_CURVE ( 'NONE', #883, #391, #409, .T. ) ;
#851 = SURFACE_STYLE_USAGE ( .BOTH. , #237 ) ;
#852 = DIRECTION ( 'NONE',  ( 0.9999999999997024602, -7.712955491855547219E-07, -2.197731340289799049E-10 ) ) ;
#853 = VERTEX_POINT ( 'NONE', #471 ) ;
#854 = EDGE_CURVE ( 'NONE', #932, #953, #847, .T. ) ;
#855 = SURFACE_SIDE_STYLE ('',( #438 ) ) ;
#856 = FILL_AREA_STYLE_COLOUR ( '', #1035 ) ;
#857 = AXIS2_PLACEMENT_3D ( 'NONE', #473, #809, #302 ) ;
#858 =( GEOMETRIC_REPRESENTATION_CONTEXT ( 3 ) GLOBAL_UNCERTAINTY_ASSIGNED_CONTEXT ( ( #25 ) ) GLOBAL_UNIT_ASSIGNED_CONTEXT ( ( #424, #1050, #787 ) ) REPRESENTATION_CONTEXT ( 'NONE', 'WORKASPACE' ) );
#859 = COLOUR_RGB ( '',0.2862745098039215508, 0.6627450980392156632, 0.3294117647058823484 ) ;
#860 = VERTEX_POINT ( 'NONE', #762 ) ;
#861 = UNCERTAINTY_MEASURE_WITH_UNIT (LENGTH_MEASURE( 1.000000000000000082E-05 ), #425, 'distance_accuracy_value', 'NONE');
#862 = SURFACE_STYLE_FILL_AREA ( #161 ) ;
#863 = ORIENTED_EDGE ( 'NONE', *, *, #196, .F. ) ;
#864 = ORIENTED_EDGE ( 'NONE', *, *, #260, .F. ) ;
#865 = ADVANCED_FACE ( 'NONE', ( #1102 ), #561, .T. ) ;
#866 = VERTEX_POINT ( 'NONE', #189 ) ;
#867 = FACE_OUTER_BOUND ( 'NONE', #629, .T. ) ;
#868 = ORIENTED_EDGE ( 'NONE', *, *, #1020, .T. ) ;
#869 = CARTESIAN_POINT ( 'NONE',  ( 0.1330585033398334893, -7.711860789616831191, 79.40033730319944993 ) ) ;
#870 = COLOUR_RGB ( '',0.2862745098039215508, 0.6627450980392156632, 0.3294117647058823484 ) ;
#871 = VECTOR ( 'NONE', #745, 1000.000000000000227 ) ;
#872 = COLOUR_RGB ( '',0.2862745098039215508, 0.6627450980392156632, 0.3294117647058823484 ) ;
#873 = VERTEX_POINT ( 'NONE', #59 ) ;
#874 = ADVANCED_FACE ( 'NONE', ( #276 ), #93, .F. ) ;
#875 = UNCERTAINTY_MEASURE_WITH_UNIT (LENGTH_MEASURE( 1.000000000000000082E-05 ), #385, 'distance_accuracy_value', 'NONE');
#876 = ORIENTED_EDGE ( 'NONE', *, *, #632, .T. ) ;
#877 = DIRECTION ( 'NONE',  ( -4.369862251686491440E-10, -2.540171391507625912E-12, -1.000000000000000000 ) ) ;
#878 = DIRECTION ( 'NONE',  ( -1.130001178413123848E-07, -0.9999999999999935607, -2.538818828370839361E-12 ) ) ;
#879 = CARTESIAN_POINT ( 'NONE',  ( -0.8669414951218423759, -7.711860728599272186, 86.40033261870058823 ) ) ;
#880 = CARTESIAN_POINT ( 'NONE',  ( -10.35506741962774413, -100.8877230015918229, 64.59806179264388959 ) ) ;
#881 = VERTEX_POINT ( 'NONE', #2 ) ;
#882 = CARTESIAN_POINT ( 'NONE',  ( -5.667376054280877540, -83.02899144340867110, 83.00033277338087601 ) ) ;
#883 = VERTEX_POINT ( 'NONE', #882 ) ;
#884 = ADVANCED_FACE ( 'NONE', ( #867 ), #521, .F. ) ;
#885 = PRESENTATION_STYLE_ASSIGNMENT (( #358 ) ) ;
#886 = DIRECTION ( 'NONE',  ( 6.099980549622820148E-08, 0.9999999999999982236, -2.540158160852999897E-12 ) ) ;
#887 = DIRECTION ( 'NONE',  ( -1.000000000000000000, 0.000000000000000000, 4.369870478542991759E-10 ) ) ;
#888 = DIRECTION ( 'NONE',  ( 2.197734596613208902E-10, 2.529921743968507539E-12, 1.000000000000000000 ) ) ;
#889 = EDGE_LOOP ( 'NONE', ( #325, #672, #829, #996, #240 ) ) ;
#890 = APPLICATION_PROTOCOL_DEFINITION ( 'draft international standard', 'automotive_design', 1998, #742 ) ;
#891 = ADVANCED_FACE ( 'NONE', ( #904 ), #636, .F. ) ;
#892 = CARTESIAN_POINT ( 'NONE',  ( -8.167829395859721231, -76.82317852636089128, 83.00033277231388240 ) ) ;
#893 = DIRECTION ( 'NONE',  ( -0.9999999999997852829, -6.552955966260871663E-07, 2.197731340259421099E-10 ) ) ;
#894 = VERTEX_POINT ( 'NONE', #1011 ) ;
#895 = STYLED_ITEM ( 'NONE', ( #989 ), #37 ) ;
#896 = AXIS2_PLACEMENT_3D ( 'NONE', #213, #559, #1089 ) ;
#897 = EDGE_LOOP ( 'NONE', ( #469, #833, #614, #697 ) ) ;
#898 =( GEOMETRIC_REPRESENTATION_CONTEXT ( 3 ) GLOBAL_UNCERTAINTY_ASSIGNED_CONTEXT ( ( #346 ) ) GLOBAL_UNIT_ASSIGNED_CONTEXT ( ( #309, #313, #939 ) ) REPRESENTATION_CONTEXT ( 'NONE', 'WORKASPACE' ) );
#899 = CIRCLE ( 'NONE', #422, 1.699999999999999067 ) ;
#900 = VECTOR ( 'NONE', #392, 1000.000000000000000 ) ;
#901 = FILL_AREA_STYLE ('',( #633 ) ) ;
#902 = DIRECTION ( 'NONE',  ( -4.369862251690081404E-10, -2.540171391507634797E-12, -1.000000000000000000 ) ) ;
#903 = ORIENTED_EDGE ( 'NONE', *, *, #379, .F. ) ;
#904 = FACE_OUTER_BOUND ( 'NONE', #635, .T. ) ;
#905 = ORIENTED_EDGE ( 'NONE', *, *, #116, .F. ) ;
#906 = CARTESIAN_POINT ( 'NONE',  ( -8.167829396958147470, -76.82317852634817257, 78.00005456568730722 ) ) ;
#907 = CARTESIAN_POINT ( 'NONE',  ( -3.454216542690041969, -114.3034303914031256, 83.00033277426057055 ) ) ;
#908 =( LENGTH_UNIT ( ) NAMED_UNIT ( * ) SI_UNIT ( .MILLI., .METRE. ) );
#909 = CARTESIAN_POINT ( 'NONE',  ( 2.721947397103269495, -108.8331434675101406, 81.58894922325281129 ) ) ;
#910 = EDGE_CURVE ( 'NONE', #212, #384, #812, .T. ) ;
#911 = ORIENTED_EDGE ( 'NONE', *, *, #519, .F. ) ;
#912 = SURFACE_SIDE_STYLE ('',( #747 ) ) ;
#913 = CYLINDRICAL_SURFACE ( 'NONE', #235, 1.699999999999950218 ) ;
#914 = PRESENTATION_STYLE_ASSIGNMENT (( #103 ) ) ;
#915 =( LENGTH_UNIT ( ) NAMED_UNIT ( * ) SI_UNIT ( .MILLI., .METRE. ) );
#916 = AXIS2_PLACEMENT_3D ( 'NONE', #699, #689, #950 ) ;
#917 = ORIENTED_EDGE ( 'NONE', *, *, #1155, .F. ) ;
#918 = CIRCLE ( 'NONE', #1038, 1.699999999999999289 ) ;
#919 =( GEOMETRIC_REPRESENTATION_CONTEXT ( 3 ) GLOBAL_UNCERTAINTY_ASSIGNED_CONTEXT ( ( #1014 ) ) GLOBAL_UNIT_ASSIGNED_CONTEXT ( ( #184, #522, #75 ) ) REPRESENTATION_CONTEXT ( 'NONE', 'WORKASPACE' ) );
#920 = PLANE ( 'NONE',  #1094 ) ;
#921 = EDGE_LOOP ( 'NONE', ( #616, #396 ) ) ;
#922 = CARTESIAN_POINT ( 'NONE',  ( -5.667371327485549060, -1.545347157072919586, 86.40033261973999856 ) ) ;
#923 = EDGE_CURVE ( 'NONE', #671, #932, #298, .T. ) ;
#924 = CARTESIAN_POINT ( 'NONE',  ( -0.8669399355156759412, 17.92610764174148841, 66.81021927015082440 ) ) ;
#925 = ORIENTED_EDGE ( 'NONE', *, *, #498, .T. ) ;
#926 = FILL_AREA_STYLE ('',( #824 ) ) ;
#927 = CARTESIAN_POINT ( 'NONE',  ( -7.379901708077396094, -115.6112129504736146, 84.79421763020032188 ) ) ;
#928 = MANIFOLD_SOLID_BREP ( 'Enlèv. mat.-Extru.1', #732 ) ;
#929 = EDGE_CURVE ( 'NONE', #168, #881, #170, .T. ) ;
#930 = DIRECTION ( 'NONE',  ( 0.9999999999997849498, 6.557717315613340092E-07, 4.333394693280489711E-10 ) ) ;
#931 = EDGE_CURVE ( 'NONE', #355, #221, #137, .T. ) ;
#932 = VERTEX_POINT ( 'NONE', #255 ) ;
#933 = VECTOR ( 'NONE', #594, 1000.000000000000114 ) ;
#934 = VECTOR ( 'NONE', #550, 1000.000000000000000 ) ;
#935 = CIRCLE ( 'NONE', #769, 1.699999999999999289 ) ;
#936 = VECTOR ( 'NONE', #387, 1000.000000000000000 ) ;
#937 = CARTESIAN_POINT ( 'NONE',  ( -7.379893688747474201, -105.4044862497463839, 70.79368678532722470 ) ) ;
#938 = EDGE_LOOP ( 'NONE', ( #92, #690, #390, #483, #335 ) ) ;
#939 =( NAMED_UNIT ( * ) SI_UNIT ( $, .STERADIAN. ) SOLID_ANGLE_UNIT ( ) );
#940 =( NAMED_UNIT ( * ) SI_UNIT ( $, .STERADIAN. ) SOLID_ANGLE_UNIT ( ) );
#941 = LINE ( 'NONE', #150, #63 ) ;
#942 = VERTEX_POINT ( 'NONE', #804 ) ;
#943 = ADVANCED_FACE ( 'NONE', ( #280 ), #165, .F. ) ;
#944 = FACE_BOUND ( 'NONE', #849, .T. ) ;
#945 = PRESENTATION_STYLE_ASSIGNMENT (( #601 ) ) ;
#946 = FACE_OUTER_BOUND ( 'NONE', #529, .T. ) ;
#947 = ORIENTED_EDGE ( 'NONE', *, *, #821, .F. ) ;
#948 = VECTOR ( 'NONE', #693, 1000.000000000000000 ) ;
#949 = DIRECTION ( 'NONE',  ( -1.130001178413087055E-07, -0.9999999999999935607, -2.538818828370756562E-12 ) ) ;
#950 = DIRECTION ( 'NONE',  ( 1.000000000000000000, -2.999834857644060274E-09, -2.197751784482238523E-10 ) ) ;
#951 = STYLED_ITEM ( 'NONE', ( #499 ), #1133 ) ;
#952 =( GEOMETRIC_REPRESENTATION_CONTEXT ( 3 ) GLOBAL_UNCERTAINTY_ASSIGNED_CONTEXT ( ( #615 ) ) GLOBAL_UNIT_ASSIGNED_CONTEXT ( ( #352, #149, #940 ) ) REPRESENTATION_CONTEXT ( 'NONE', 'WORKASPACE' ) );
#953 = VERTEX_POINT ( 'NONE', #987 ) ;
#954 = DIRECTION ( 'NONE',  ( 0.4128381534964745136, -0.8118677706354111567, -0.4128382031996419288 ) ) ;
#955 = UNCERTAINTY_MEASURE_WITH_UNIT (LENGTH_MEASURE( 1.000000000000000082E-05 ), #376, 'distance_accuracy_value', 'NONE');
#956 = DIRECTION ( 'NONE',  ( -0.9999999999997026823, 7.710831977584226568E-07, -1.978271168377283215E-10 ) ) ;
#957 = EDGE_CURVE ( 'NONE', #866, #55, #1150, .T. ) ;
#958 = FILL_AREA_STYLE ('',( #1066 ) ) ;
#959 = CARTESIAN_POINT ( 'NONE',  ( -9.867829396958088140, -76.82317833425436504, 78.00005456643017965 ) ) ;
#960 = ORIENTED_EDGE ( 'NONE', *, *, #985, .F. ) ;
#961 =( NAMED_UNIT ( * ) SI_UNIT ( $, .STERADIAN. ) SOLID_ANGLE_UNIT ( ) );
#962 = DIRECTION ( 'NONE',  ( 3.222283281759063404E-08, 0.5890970285175181065, -0.8080623063797922612 ) ) ;
#963 = DIRECTION ( 'NONE',  ( 2.197723790870313082E-10, 2.530246245678732450E-12, 1.000000000000000000 ) ) ;
#964 = LINE ( 'NONE', #774, #948 ) ;
#965 = ORIENTED_EDGE ( 'NONE', *, *, #1104, .F. ) ;
#966 =( LENGTH_UNIT ( ) NAMED_UNIT ( * ) SI_UNIT ( .MILLI., .METRE. ) );
#967 = ORIENTED_EDGE ( 'NONE', *, *, #227, .T. ) ;
#968 = FILL_AREA_STYLE ('',( #265 ) ) ;
#969 = FACE_OUTER_BOUND ( 'NONE', #432, .T. ) ;
#970 = DIRECTION ( 'NONE',  ( 0.3170232834068810734, -0.4298868415954908984, 0.8453954939559198412 ) ) ;
#971 = AXIS2_PLACEMENT_3D ( 'NONE', #48, #45, #832 ) ;
#972 = CARTESIAN_POINT ( 'NONE',  ( -7.367371329331906082, -1.545347151994516555, 78.00005456532085191 ) ) ;
#973 = PRESENTATION_LAYER_ASSIGNMENT (  '', '', ( #252 ) ) ;
#974 = COLOUR_RGB ( '',0.2862745098039215508, 0.6627450980392156632, 0.3294117647058823484 ) ;
#975 = VERTEX_POINT ( 'NONE', #450 ) ;
#976 = EDGE_CURVE ( 'NONE', #221, #355, #841, .T. ) ;
#977 = PRESENTATION_LAYER_ASSIGNMENT (  '', '', ( #423 ) ) ;
#978 = ORIENTED_EDGE ( 'NONE', *, *, #18, .T. ) ;
#979 = SURFACE_STYLE_USAGE ( .BOTH. , #715 ) ;
#980 = DIRECTION ( 'NONE',  ( 6.143077905975500633E-08, 0.9999999999999982236, -2.540019565934038359E-12 ) ) ;
#981 = PRESENTATION_STYLE_ASSIGNMENT (( #1061 ) ) ;
#982 = ORIENTED_EDGE ( 'NONE', *, *, #227, .F. ) ;
#983 = FILL_AREA_STYLE ('',( #242 ) ) ;
#984 = ORIENTED_EDGE ( 'NONE', *, *, #537, .T. ) ;
#985 = EDGE_CURVE ( 'NONE', #873, #168, #82, .T. ) ;
#986 = DIRECTION ( 'NONE',  ( -0.9999999999997853939, -6.551372430108806478E-07, 4.369862268327168166E-10 ) ) ;
#987 = CARTESIAN_POINT ( 'NONE',  ( 0.1330524065007443468, -114.8155629455338982, 85.40033261838462408 ) ) ;
#988 =( NAMED_UNIT ( * ) SI_UNIT ( $, .STERADIAN. ) SOLID_ANGLE_UNIT ( ) );
#989 = PRESENTATION_STYLE_ASSIGNMENT (( #297 ) ) ;
#990 = ORIENTED_EDGE ( 'NONE', *, *, #339, .T. ) ;
#991 = CARTESIAN_POINT ( 'NONE',  ( -9.174800855284262369, -42.28688318932173473, 83.00033277196386905 ) ) ;
#992 = PRESENTATION_STYLE_ASSIGNMENT (( #1097 ) ) ;
#993 = FILL_AREA_STYLE_COLOUR ( '', #8 ) ;
#994 = SURFACE_SIDE_STYLE ('',( #817 ) ) ;
#995 = PRESENTATION_LAYER_ASSIGNMENT (  '', '', ( #895 ) ) ;
#996 = ORIENTED_EDGE ( 'NONE', *, *, #1002, .T. ) ;
#997 = VECTOR ( 'NONE', #1015, 1000.000000000000114 ) ;
#998 = PRODUCT_CONTEXT ( 'NONE', #835, 'mechanical' ) ;
#999 = PRESENTATION_LAYER_ASSIGNMENT (  '', '', ( #439 ) ) ;
#1000 = CARTESIAN_POINT ( 'NONE',  ( -7.367376054280866171, -83.02899125131479252, 83.00033277264419951 ) ) ;
#1001 = DIRECTION ( 'NONE',  ( -3.611239454206620493E-08, -0.5890970285175181065, -0.8080623063797921501 ) ) ;
#1002 = EDGE_CURVE ( 'NONE', #590, #477, #532, .T. ) ;
#1003 = CARTESIAN_POINT ( 'NONE',  ( -6.467825389685351922, -7.751159789189153493, 83.00033277304981993 ) ) ;
#1004 =( NAMED_UNIT ( * ) PLANE_ANGLE_UNIT ( ) SI_UNIT ( $, .RADIAN. ) );
#1005 = ORIENTED_EDGE ( 'NONE', *, *, #923, .T. ) ;
#1006 = SURFACE_STYLE_FILL_AREA ( #405 ) ;
#1007 = DIRECTION ( 'NONE',  ( -1.000000000000000000, 0.000000000000000000, -4.333380060013029894E-10 ) ) ;
#1008 = CARTESIAN_POINT ( 'NONE',  ( -8.167825389685301474, -7.751159784083097470, 83.00033277231314344 ) ) ;
#1009 = PRODUCT_DEFINITION ( 'UNKNOWN', '', #253, #148 ) ;
#1010 = ORIENTED_EDGE ( 'NONE', *, *, #44, .F. ) ;
#1011 = CARTESIAN_POINT ( 'NONE',  ( 0.1330605337605816896, 25.57526567000283180, 79.00005456197398246 ) ) ;
#1012 = ORIENTED_EDGE ( 'NONE', *, *, #806, .T. ) ;
#1013 = DIRECTION ( 'NONE',  ( 4.369862248743669232E-10, -2.540033718160519065E-12, 1.000000000000000000 ) ) ;
#1014 = UNCERTAINTY_MEASURE_WITH_UNIT (LENGTH_MEASURE( 1.000000000000000082E-05 ), #184, 'distance_accuracy_value', 'NONE');
#1015 = DIRECTION ( 'NONE',  ( 3.611239454206620493E-08, 0.5890970285175181065, 0.8080623063797921501 ) ) ;
#1016 = PRODUCT_DEFINITION_SHAPE ( 'NONE', 'NONE',  #1009 ) ;
#1017 = PRESENTATION_STYLE_ASSIGNMENT (( #754 ) ) ;
#1018 = AXIS2_PLACEMENT_3D ( 'NONE', #316, #848, #1105 ) ;
#1019 = ORIENTED_EDGE ( 'NONE', *, *, #567, .F. ) ;
#1020 = EDGE_CURVE ( 'NONE', #355, #12, #76, .T. ) ;
#1021 =( GEOMETRIC_REPRESENTATION_CONTEXT ( 3 ) GLOBAL_UNCERTAINTY_ASSIGNED_CONTEXT ( ( #1136 ) ) GLOBAL_UNIT_ASSIGNED_CONTEXT ( ( #249, #74, #427 ) ) REPRESENTATION_CONTEXT ( 'NONE', 'WORKASPACE' ) );
#1022 = COLOUR_RGB ( '',0.7921568627450980005, 0.8196078431372548767, 0.9333333333333333481 ) ;
#1023 = LINE ( 'NONE', #122, #934 ) ;
#1024 = PLANE ( 'NONE',  #678 ) ;
#1025 =( NAMED_UNIT ( * ) SI_UNIT ( $, .STERADIAN. ) SOLID_ANGLE_UNIT ( ) );
#1026 = ORIENTED_EDGE ( 'NONE', *, *, #658, .T. ) ;
#1027 = ADVANCED_FACE ( 'NONE', ( #430 ), #788, .F. ) ;
#1028 = CARTESIAN_POINT ( 'NONE',  ( -2.179216550537155239, -114.7945008457909353, 86.40033282927369385 ) ) ;
#1029 = CARTESIAN_POINT ( 'NONE',  ( -3.454208188808205460, 29.72909153418001793, 83.00033277425980316 ) ) ;
#1030 = SURFACE_SIDE_STYLE ('',( #663 ) ) ;
#1031 = ORIENTED_EDGE ( 'NONE', *, *, #821, .T. ) ;
#1032 = VECTOR ( 'NONE', #724, 1000.000000000000114 ) ;
#1033 = SURFACE_STYLE_FILL_AREA ( #983 ) ;
#1034 = VECTOR ( 'NONE', #797, 1000.000000000000000 ) ;
#1035 = COLOUR_RGB ( '',0.2862745098039215508, 0.6627450980392156632, 0.3294117647058823484 ) ;
#1036 = FILL_AREA_STYLE_COLOUR ( '', #1127 ) ;
#1037 =( GEOMETRIC_REPRESENTATION_CONTEXT ( 3 ) GLOBAL_UNCERTAINTY_ASSIGNED_CONTEXT ( ( #106 ) ) GLOBAL_UNIT_ASSIGNED_CONTEXT ( ( #130, #727, #388 ) ) REPRESENTATION_CONTEXT ( 'NONE', 'WORKASPACE' ) );
#1038 = AXIS2_PLACEMENT_3D ( 'NONE', #628, #207, #295 ) ;
#1039 = DIRECTION ( 'NONE',  ( 0.9999999999997852829, 6.552955966260871663E-07, -2.197731340257581140E-10 ) ) ;
#1040 = EDGE_CURVE ( 'NONE', #581, #293, #1023, .T. ) ;
#1041 =( GEOMETRIC_REPRESENTATION_CONTEXT ( 3 ) GLOBAL_UNCERTAINTY_ASSIGNED_CONTEXT ( ( #845 ) ) GLOBAL_UNIT_ASSIGNED_CONTEXT ( ( #222, #574, #667 ) ) REPRESENTATION_CONTEXT ( 'NONE', 'WORKASPACE' ) );
#1042 =( NAMED_UNIT ( * ) PLANE_ANGLE_UNIT ( ) SI_UNIT ( $, .RADIAN. ) );
#1043 = EDGE_LOOP ( 'NONE', ( #35, #26, #564, #463 ) ) ;
#1044 = UNCERTAINTY_MEASURE_WITH_UNIT (LENGTH_MEASURE( 1.000000000000000082E-05 ), #146, 'distance_accuracy_value', 'NONE');
#1045 = SURFACE_SIDE_STYLE ('',( #247 ) ) ;
#1046 = LINE ( 'NONE', #1055, #220 ) ;
#1047 = CARTESIAN_POINT ( 'NONE',  ( -9.867829395859660124, -76.82317833425436504, 83.00033277157720590 ) ) ;
#1048 = VERTEX_POINT ( 'NONE', #907 ) ;
#1049 = UNCERTAINTY_MEASURE_WITH_UNIT (LENGTH_MEASURE( 1.000000000000000082E-05 ), #908, 'distance_accuracy_value', 'NONE');
#1050 =( NAMED_UNIT ( * ) PLANE_ANGLE_UNIT ( ) SI_UNIT ( $, .RADIAN. ) );
#1051 = PLANE ( 'NONE',  #547 ) ;
#1052 = EDGE_CURVE ( 'NONE', #241, #12, #436, .T. ) ;
#1053 =( LENGTH_UNIT ( ) NAMED_UNIT ( * ) SI_UNIT ( .MILLI., .METRE. ) );
#1054 = AXIS2_PLACEMENT_3D ( 'NONE', #108, #816, #458 ) ;
#1055 = CARTESIAN_POINT ( 'NONE',  ( -14.89281724904764559, -104.1665332149297143, 69.09559894471696850 ) ) ;
#1056 = MECHANICAL_DESIGN_GEOMETRIC_PRESENTATION_REPRESENTATION (  '', ( #252 ), #694 ) ;
#1057 = PRESENTATION_STYLE_ASSIGNMENT (( #354 ) ) ;
#1058 = COLOUR_RGB ( '',0.2862745098039215508, 0.6627450980392156632, 0.3294117647058823484 ) ;
#1059 = CIRCLE ( 'NONE', #201, 1.699999999999948441 ) ;
#1060 = VERTEX_POINT ( 'NONE', #375 ) ;
#1061 = SURFACE_STYLE_USAGE ( .BOTH. , #456 ) ;
#1062 = UNCERTAINTY_MEASURE_WITH_UNIT (LENGTH_MEASURE( 1.000000000000000082E-05 ), #1053, 'distance_accuracy_value', 'NONE');
#1063 = CARTESIAN_POINT ( 'NONE',  ( -14.89280944964147047, 29.72908403306857750, 83.00033276930318493 ) ) ;
#1064 = ORIENTED_EDGE ( 'NONE', *, *, #145, .F. ) ;
#1065 = ORIENTED_EDGE ( 'NONE', *, *, #985, .T. ) ;
#1066 = FILL_AREA_STYLE_COLOUR ( '', #870 ) ;
#1067 = CARTESIAN_POINT ( 'NONE',  ( -0.8669476373937834435, -115.6112179738860846, 84.79421762876872037 ) ) ;
#1068 = LINE ( 'NONE', #734, #343 ) ;
#1069 = LINE ( 'NONE', #370, #272 ) ;
#1070 = VECTOR ( 'NONE', #893, 1000.000000000000000 ) ;
#1071 = VECTOR ( 'NONE', #60, 1000.000000000000114 ) ;
#1072 = AXIS2_PLACEMENT_3D ( 'NONE', #500, #512, #949 ) ;
#1073 = ORIENTED_EDGE ( 'NONE', *, *, #850, .F. ) ;
#1074 = SURFACE_STYLE_FILL_AREA ( #99 ) ;
#1075 =( GEOMETRIC_REPRESENTATION_CONTEXT ( 3 ) GLOBAL_UNCERTAINTY_ASSIGNED_CONTEXT ( ( #464 ) ) GLOBAL_UNIT_ASSIGNED_CONTEXT ( ( #535, #268, #619 ) ) REPRESENTATION_CONTEXT ( 'NONE', 'WORKASPACE' ) );
#1076 = LINE ( 'NONE', #195, #825 ) ;
#1077 = CARTESIAN_POINT ( 'NONE',  ( -0.8669419849667014955, -15.71186072862063732, 78.00005456251662395 ) ) ;
#1078 = LINE ( 'NONE', #467, #818 ) ;
#1079 = DIRECTION ( 'NONE',  ( 0.6653998374347583900, 0.3383580027572860582, 0.6653998183888372164 ) ) ;
#1080 = EDGE_LOOP ( 'NONE', ( #846, #1084, #967, #1134, #166, #318, #960 ) ) ;
#1081 = DIRECTION ( 'NONE',  ( -1.130001178413087055E-07, -0.9999999999999935607, -2.538818828370756562E-12 ) ) ;
#1082 = SURFACE_SIDE_STYLE ('',( #558 ) ) ;
#1083 = DIRECTION ( 'NONE',  ( -6.099980549622820148E-08, -0.9999999999999982236, 2.540198059492947364E-12 ) ) ;
#1084 = ORIENTED_EDGE ( 'NONE', *, *, #658, .F. ) ;
#1085 = ADVANCED_FACE ( 'NONE', ( #284 ), #913, .F. ) ;
#1086 = DIRECTION ( 'NONE',  ( 0.3170233332737321108, 0.4298868048208023263, 0.8453954939559197301 ) ) ;
#1087 = LINE ( 'NONE', #29, #1070 ) ;
#1088 = SURFACE_STYLE_FILL_AREA ( #728 ) ;
#1089 = DIRECTION ( 'NONE',  ( -0.9999999999995548006, 3.202626820635024026E-08, 9.430167393983770246E-07 ) ) ;
#1090 = CIRCLE ( 'NONE', #124, 1.699999999999948885 ) ;
#1091 = COLOUR_RGB ( '',0.7921568627450980005, 0.8196078431372548767, 0.9333333333333333481 ) ;
#1092 = VECTOR ( 'NONE', #1001, 1000.000000000000114 ) ;
#1093 = ORIENTED_EDGE ( 'NONE', *, *, #644, .T. ) ;
#1094 = AXIS2_PLACEMENT_3D ( 'NONE', #46, #583, #493 ) ;
#1095 = CYLINDRICAL_SURFACE ( 'NONE', #1146, 1.700000000000000622 ) ;
#1096 = EDGE_CURVE ( 'NONE', #942, #776, #782, .T. ) ;
#1097 = SURFACE_STYLE_USAGE ( .BOTH. , #826 ) ;
#1098 = FACE_OUTER_BOUND ( 'NONE', #746, .T. ) ;
#1099 = PRESENTATION_STYLE_ASSIGNMENT (( #208 ) ) ;
#1100 = PRESENTATION_STYLE_ASSIGNMENT (( #646 ) ) ;
#1101 = ORIENTED_EDGE ( 'NONE', *, *, #854, .T. ) ;
#1102 = FACE_OUTER_BOUND ( 'NONE', #1106, .T. ) ;
#1103 =( NAMED_UNIT ( * ) SI_UNIT ( $, .STERADIAN. ) SOLID_ANGLE_UNIT ( ) );
#1104 = EDGE_CURVE ( 'NONE', #1147, #1048, #562, .T. ) ;
#1105 = DIRECTION ( 'NONE',  ( -1.000000000000000000, 0.000000000000000000, -4.333380060013029894E-10 ) ) ;
#1106 = EDGE_LOOP ( 'NONE', ( #978, #1005, #1101, #905, #448 ) ) ;
#1107 = CARTESIAN_POINT ( 'NONE',  ( -7.367376053533964075, -83.02899125132339009, 86.40033262011438353 ) ) ;
#1108 = DIRECTION ( 'NONE',  ( 3.199981421602595502E-08, 0.9999999999999963363, -7.848511303965877475E-08 ) ) ;
#1109 = FILL_AREA_STYLE_COLOUR ( '', #337 ) ;
#1110 = EDGE_CURVE ( 'NONE', #811, #881, #320, .T. ) ;
#1111 = STYLED_ITEM ( 'NONE', ( #1057 ), #277 ) ;
#1112 =( GEOMETRIC_REPRESENTATION_CONTEXT ( 3 ) GLOBAL_UNCERTAINTY_ASSIGNED_CONTEXT ( ( #875 ) ) GLOBAL_UNIT_ASSIGNED_CONTEXT ( ( #385, #1004, #193 ) ) REPRESENTATION_CONTEXT ( 'NONE', 'WORKASPACE' ) );
#1113 = AXIS2_PLACEMENT_3D ( 'NONE', #68, #1132, #956 ) ;
#1114 = MECHANICAL_DESIGN_GEOMETRIC_PRESENTATION_REPRESENTATION (  '', ( #423 ), #1041 ) ;
#1115 = LINE ( 'NONE', #927, #1071 ) ;
#1116 = DIRECTION ( 'NONE',  ( -4.369862251690081404E-10, -2.540171391507634797E-12, -1.000000000000000000 ) ) ;
#1117 = ORIENTED_EDGE ( 'NONE', *, *, #1121, .T. ) ;
#1118 = SURFACE_SIDE_STYLE ('',( #131 ) ) ;
#1119 = CARTESIAN_POINT ( 'NONE',  ( -9.867825389685251025, -7.751159778989714866, 83.00033277157646694 ) ) ;
#1120 = ORIENTED_EDGE ( 'NONE', *, *, #552, .T. ) ;
#1121 = EDGE_CURVE ( 'NONE', #293, #287, #1115, .T. ) ;
#1122 =( NAMED_UNIT ( * ) PLANE_ANGLE_UNIT ( ) SI_UNIT ( $, .RADIAN. ) );
#1123 = FILL_AREA_STYLE ('',( #1109 ) ) ;
#1124 = EDGE_LOOP ( 'NONE', ( #761, #487 ) ) ;
#1125 = AXIS2_PLACEMENT_3D ( 'NONE', #624, #30, #202 ) ;
#1126 =( GEOMETRIC_REPRESENTATION_CONTEXT ( 3 ) GLOBAL_UNCERTAINTY_ASSIGNED_CONTEXT ( ( #373 ) ) GLOBAL_UNIT_ASSIGNED_CONTEXT ( ( #191, #14, #484 ) ) REPRESENTATION_CONTEXT ( 'NONE', 'WORKASPACE' ) );
#1127 = COLOUR_RGB ( '',0.2862745098039215508, 0.6627450980392156632, 0.3294117647058823484 ) ;
#1128 = SURFACE_STYLE_USAGE ( .BOTH. , #855 ) ;
#1129 = DIRECTION ( 'NONE',  ( 0.6653996245149511601, 0.3383588427510562102, -0.6653996041684485663 ) ) ;
#1130 = ORIENTED_EDGE ( 'NONE', *, *, #1020, .F. ) ;
#1131 = UNCERTAINTY_MEASURE_WITH_UNIT (LENGTH_MEASURE( 1.000000000000000082E-05 ), #915, 'distance_accuracy_value', 'NONE');
#1132 = DIRECTION ( 'NONE',  ( -6.874135749678911885E-07, -0.8913745084190332069, 0.4532675652859518012 ) ) ;
#1133 = ADVANCED_FACE ( 'NONE', ( #231 ), #134, .T. ) ;
#1134 = ORIENTED_EDGE ( 'NONE', *, *, #773, .T. ) ;
#1135 = EDGE_LOOP ( 'NONE', ( #721, #363, #120, #64 ) ) ;
#1136 = UNCERTAINTY_MEASURE_WITH_UNIT (LENGTH_MEASURE( 1.000000000000000082E-05 ), #249, 'distance_accuracy_value', 'NONE');
#1137 = DIRECTION ( 'NONE',  ( -0.7071067813419431580, 4.313157996380231549E-08, -0.7071067810311505442 ) ) ;
#1138 = FILL_AREA_STYLE ('',( #1144 ) ) ;
#1139 = ADVANCED_FACE ( 'NONE', ( #944, #502, #410, #228, #669, #398 ), #494, .T. ) ;
#1140 = PRESENTATION_LAYER_ASSIGNMENT (  '', '', ( #125 ) ) ;
#1141 = VECTOR ( 'NONE', #1129, 1000.000000000000227 ) ;
#1142 = VECTOR ( 'NONE', #970, 1000.000000000000000 ) ;
#1143 =( LENGTH_UNIT ( ) NAMED_UNIT ( * ) SI_UNIT ( .MILLI., .METRE. ) );
#1144 = FILL_AREA_STYLE_COLOUR ( '', #638 ) ;
#1145 = VECTOR ( 'NONE', #399, 1000.000000000000114 ) ;
#1146 = AXIS2_PLACEMENT_3D ( 'NONE', #1107, #397, #41 ) ;
#1147 = VERTEX_POINT ( 'NONE', #342 ) ;
#1148 = CARTESIAN_POINT ( 'NONE',  ( -8.167825388937426823, -7.751159784074507009, 86.40033262030333105 ) ) ;
#1149 = APPLICATION_PROTOCOL_DEFINITION ( 'draft international standard', 'automotive_design', 1998, #835 ) ;
#1150 = LINE ( 'NONE', #186, #198 ) ;
#1151 = CARTESIAN_POINT ( 'NONE',  ( -2.781509794341663344, -115.6112164971927996, 84.79421762918896377 ) ) ;
#1152 = ORIENTED_EDGE ( 'NONE', *, *, #88, .F. ) ;
#1153 = ORIENTED_EDGE ( 'NONE', *, *, #676, .T. ) ;
#1154 = LINE ( 'NONE', #716, #641 ) ;
#1155 = EDGE_CURVE ( 'NONE', #338, #860, #89, .T. ) ;
#1156 = PRESENTATION_STYLE_ASSIGNMENT (( #446 ) ) ;
#1157 = CARTESIAN_POINT ( 'NONE',  ( -5.667376055380303868, -83.02899144340867110, 78.00005456457871844 ) ) ;
ENDSEC;
END-ISO-10303-21;
