%TF.GenerationSoftware,KiCad,Pcbnew,8.0.7*%
%TF.CreationDate,2025-01-12T19:07:44+01:00*%
%TF.ProjectId,BT_Lane_FAB,42545f4c-616e-4655-9f46-41422e6b6963,rev?*%
%TF.SameCoordinates,Original*%
%TF.FileFunction,Drillmap*%
%TF.FilePolarity,Positive*%
%FSLAX45Y45*%
G04 Gerber Fmt 4.5, Leading zero omitted, Abs format (unit mm)*
G04 Created by KiCad (PCBNEW 8.0.7) date 2025-01-12 19:07:44*
%MOMM*%
%LPD*%
G01*
G04 APERTURE LIST*
%ADD10C,0.050000*%
%ADD11C,0.200000*%
%ADD12C,0.100000*%
%ADD13C,0.350000*%
G04 APERTURE END LIST*
D10*
X10776900Y-5811200D02*
X15858500Y-5811200D01*
X15858500Y-8158800D01*
X10776900Y-8158800D01*
X10776900Y-5811200D01*
D11*
D12*
X11136400Y-6960000D02*
X11186400Y-7010000D01*
X11186400Y-6960000D02*
X11136400Y-7010000D01*
X11213284Y-6774384D02*
X11263284Y-6824384D01*
X11263284Y-6774384D02*
X11213284Y-6824384D01*
X11213284Y-7145615D02*
X11263284Y-7195615D01*
X11263284Y-7145615D02*
X11213284Y-7195615D01*
X11398900Y-6697500D02*
X11448900Y-6747500D01*
X11448900Y-6697500D02*
X11398900Y-6747500D01*
X11398900Y-7222500D02*
X11448900Y-7272500D01*
X11448900Y-7222500D02*
X11398900Y-7272500D01*
X11584515Y-6774384D02*
X11634515Y-6824384D01*
X11634515Y-6774384D02*
X11584515Y-6824384D01*
X11584515Y-7145615D02*
X11634515Y-7195615D01*
X11634515Y-7145615D02*
X11584515Y-7195615D01*
X11661400Y-6960000D02*
X11711400Y-7010000D01*
X11711400Y-6960000D02*
X11661400Y-7010000D01*
X14936400Y-6960000D02*
X14986400Y-7010000D01*
X14986400Y-6960000D02*
X14936400Y-7010000D01*
X15013284Y-6774384D02*
X15063284Y-6824384D01*
X15063284Y-6774384D02*
X15013284Y-6824384D01*
X15013284Y-7145615D02*
X15063284Y-7195615D01*
X15063284Y-7145615D02*
X15013284Y-7195615D01*
X15198900Y-6697500D02*
X15248900Y-6747500D01*
X15248900Y-6697500D02*
X15198900Y-6747500D01*
X15198900Y-7222500D02*
X15248900Y-7272500D01*
X15248900Y-7222500D02*
X15198900Y-7272500D01*
X15384515Y-6774384D02*
X15434515Y-6824384D01*
X15434515Y-6774384D02*
X15384515Y-6824384D01*
X15384515Y-7145615D02*
X15434515Y-7195615D01*
X15434515Y-7145615D02*
X15384515Y-7195615D01*
X15461400Y-6960000D02*
X15511400Y-7010000D01*
X15511400Y-6960000D02*
X15461400Y-7010000D01*
X12111100Y-7264400D02*
G75*
G02*
X12041100Y-7264400I-35000J0D01*
G01*
X12041100Y-7264400D02*
G75*
G02*
X12111100Y-7264400I35000J0D01*
G01*
X12301100Y-7264400D02*
G75*
G02*
X12231100Y-7264400I-35000J0D01*
G01*
X12231100Y-7264400D02*
G75*
G02*
X12301100Y-7264400I35000J0D01*
G01*
X11115800Y-7801100D02*
X11115800Y-7896100D01*
X11068300Y-7848600D02*
X11163300Y-7848600D01*
X11334400Y-6202600D02*
X11334400Y-6297600D01*
X11286900Y-6250100D02*
X11381900Y-6250100D01*
X11365800Y-7801100D02*
X11365800Y-7896100D01*
X11318300Y-7848600D02*
X11413300Y-7848600D01*
X11584400Y-6202600D02*
X11584400Y-6297600D01*
X11536900Y-6250100D02*
X11631900Y-6250100D01*
X11615800Y-7801100D02*
X11615800Y-7896100D01*
X11568300Y-7848600D02*
X11663300Y-7848600D01*
X11834400Y-6202600D02*
X11834400Y-6297600D01*
X11786900Y-6250100D02*
X11881900Y-6250100D01*
X11865800Y-7801100D02*
X11865800Y-7896100D01*
X11818300Y-7848600D02*
X11913300Y-7848600D01*
X12084400Y-6202600D02*
X12084400Y-6297600D01*
X12036900Y-6250100D02*
X12131900Y-6250100D01*
X12115800Y-7801100D02*
X12115800Y-7896100D01*
X12068300Y-7848600D02*
X12163300Y-7848600D01*
X12735356Y-6042456D02*
X12735356Y-5971744D01*
X12664644Y-5971744D01*
X12664644Y-6042456D01*
X12735356Y-6042456D01*
X12735356Y-6296456D02*
X12735356Y-6225744D01*
X12664644Y-6225744D01*
X12664644Y-6296456D01*
X12735356Y-6296456D01*
X12735356Y-6550456D02*
X12735356Y-6479744D01*
X12664644Y-6479744D01*
X12664644Y-6550456D01*
X12735356Y-6550456D01*
X12735356Y-6804456D02*
X12735356Y-6733744D01*
X12664644Y-6733744D01*
X12664644Y-6804456D01*
X12735356Y-6804456D01*
X12735356Y-7058456D02*
X12735356Y-6987744D01*
X12664644Y-6987744D01*
X12664644Y-7058456D01*
X12735356Y-7058456D01*
X12735356Y-7312456D02*
X12735356Y-7241744D01*
X12664644Y-7241744D01*
X12664644Y-7312456D01*
X12735356Y-7312456D01*
X13372356Y-7885656D02*
X13372356Y-7814944D01*
X13301644Y-7814944D01*
X13301644Y-7885656D01*
X13372356Y-7885656D01*
X13622356Y-7885656D02*
X13622356Y-7814944D01*
X13551644Y-7814944D01*
X13551644Y-7885656D01*
X13622356Y-7885656D01*
X14259356Y-6042456D02*
X14259356Y-5971744D01*
X14188644Y-5971744D01*
X14188644Y-6042456D01*
X14259356Y-6042456D01*
X14259356Y-6296456D02*
X14259356Y-6225744D01*
X14188644Y-6225744D01*
X14188644Y-6296456D01*
X14259356Y-6296456D01*
X14259356Y-6550456D02*
X14259356Y-6479744D01*
X14188644Y-6479744D01*
X14188644Y-6550456D01*
X14259356Y-6550456D01*
X14259356Y-6804456D02*
X14259356Y-6733744D01*
X14188644Y-6733744D01*
X14188644Y-6804456D01*
X14259356Y-6804456D01*
X14259356Y-7058456D02*
X14259356Y-6987744D01*
X14188644Y-6987744D01*
X14188644Y-7058456D01*
X14259356Y-7058456D01*
X14259356Y-7312456D02*
X14259356Y-7241744D01*
X14188644Y-7241744D01*
X14188644Y-7312456D01*
X14259356Y-7312456D01*
X14868956Y-7885656D02*
X14868956Y-7814944D01*
X14798244Y-7814944D01*
X14798244Y-7885656D01*
X14868956Y-7885656D01*
X14870956Y-6205856D02*
X14870956Y-6135144D01*
X14800244Y-6135144D01*
X14800244Y-6205856D01*
X14870956Y-6205856D01*
X15118956Y-7885656D02*
X15118956Y-7814944D01*
X15048244Y-7814944D01*
X15048244Y-7885656D01*
X15118956Y-7885656D01*
X15120956Y-6205856D02*
X15120956Y-6135144D01*
X15050244Y-6135144D01*
X15050244Y-6205856D01*
X15120956Y-6205856D01*
D13*
X11423900Y-7160000D02*
X11598900Y-6985000D01*
X11423900Y-6810000D01*
X11248900Y-6985000D01*
X11423900Y-7160000D01*
X15223900Y-7160000D02*
X15398900Y-6985000D01*
X15223900Y-6810000D01*
X15048900Y-6985000D01*
X15223900Y-7160000D01*
D11*
X11035177Y-8472784D02*
X11035177Y-8272784D01*
X11035177Y-8272784D02*
X11082796Y-8272784D01*
X11082796Y-8272784D02*
X11111367Y-8282308D01*
X11111367Y-8282308D02*
X11130415Y-8301355D01*
X11130415Y-8301355D02*
X11139939Y-8320403D01*
X11139939Y-8320403D02*
X11149463Y-8358498D01*
X11149463Y-8358498D02*
X11149463Y-8387069D01*
X11149463Y-8387069D02*
X11139939Y-8425165D01*
X11139939Y-8425165D02*
X11130415Y-8444212D01*
X11130415Y-8444212D02*
X11111367Y-8463260D01*
X11111367Y-8463260D02*
X11082796Y-8472784D01*
X11082796Y-8472784D02*
X11035177Y-8472784D01*
X11235177Y-8472784D02*
X11235177Y-8339450D01*
X11235177Y-8377546D02*
X11244701Y-8358498D01*
X11244701Y-8358498D02*
X11254224Y-8348974D01*
X11254224Y-8348974D02*
X11273272Y-8339450D01*
X11273272Y-8339450D02*
X11292320Y-8339450D01*
X11358986Y-8472784D02*
X11358986Y-8339450D01*
X11358986Y-8272784D02*
X11349462Y-8282308D01*
X11349462Y-8282308D02*
X11358986Y-8291831D01*
X11358986Y-8291831D02*
X11368510Y-8282308D01*
X11368510Y-8282308D02*
X11358986Y-8272784D01*
X11358986Y-8272784D02*
X11358986Y-8291831D01*
X11482796Y-8472784D02*
X11463748Y-8463260D01*
X11463748Y-8463260D02*
X11454224Y-8444212D01*
X11454224Y-8444212D02*
X11454224Y-8272784D01*
X11587558Y-8472784D02*
X11568510Y-8463260D01*
X11568510Y-8463260D02*
X11558986Y-8444212D01*
X11558986Y-8444212D02*
X11558986Y-8272784D01*
X11816129Y-8472784D02*
X11816129Y-8272784D01*
X11816129Y-8272784D02*
X11882796Y-8415641D01*
X11882796Y-8415641D02*
X11949462Y-8272784D01*
X11949462Y-8272784D02*
X11949462Y-8472784D01*
X12130415Y-8472784D02*
X12130415Y-8368022D01*
X12130415Y-8368022D02*
X12120891Y-8348974D01*
X12120891Y-8348974D02*
X12101843Y-8339450D01*
X12101843Y-8339450D02*
X12063748Y-8339450D01*
X12063748Y-8339450D02*
X12044701Y-8348974D01*
X12130415Y-8463260D02*
X12111367Y-8472784D01*
X12111367Y-8472784D02*
X12063748Y-8472784D01*
X12063748Y-8472784D02*
X12044701Y-8463260D01*
X12044701Y-8463260D02*
X12035177Y-8444212D01*
X12035177Y-8444212D02*
X12035177Y-8425165D01*
X12035177Y-8425165D02*
X12044701Y-8406117D01*
X12044701Y-8406117D02*
X12063748Y-8396593D01*
X12063748Y-8396593D02*
X12111367Y-8396593D01*
X12111367Y-8396593D02*
X12130415Y-8387069D01*
X12225653Y-8339450D02*
X12225653Y-8539450D01*
X12225653Y-8348974D02*
X12244701Y-8339450D01*
X12244701Y-8339450D02*
X12282796Y-8339450D01*
X12282796Y-8339450D02*
X12301843Y-8348974D01*
X12301843Y-8348974D02*
X12311367Y-8358498D01*
X12311367Y-8358498D02*
X12320891Y-8377546D01*
X12320891Y-8377546D02*
X12320891Y-8434689D01*
X12320891Y-8434689D02*
X12311367Y-8453736D01*
X12311367Y-8453736D02*
X12301843Y-8463260D01*
X12301843Y-8463260D02*
X12282796Y-8472784D01*
X12282796Y-8472784D02*
X12244701Y-8472784D01*
X12244701Y-8472784D02*
X12225653Y-8463260D01*
X12406605Y-8453736D02*
X12416129Y-8463260D01*
X12416129Y-8463260D02*
X12406605Y-8472784D01*
X12406605Y-8472784D02*
X12397082Y-8463260D01*
X12397082Y-8463260D02*
X12406605Y-8453736D01*
X12406605Y-8453736D02*
X12406605Y-8472784D01*
X12406605Y-8348974D02*
X12416129Y-8358498D01*
X12416129Y-8358498D02*
X12406605Y-8368022D01*
X12406605Y-8368022D02*
X12397082Y-8358498D01*
X12397082Y-8358498D02*
X12406605Y-8348974D01*
X12406605Y-8348974D02*
X12406605Y-8368022D01*
D12*
X10724400Y-8776300D02*
X10774400Y-8826300D01*
X10774400Y-8776300D02*
X10724400Y-8826300D01*
D11*
X11073272Y-8692784D02*
X11092320Y-8692784D01*
X11092320Y-8692784D02*
X11111367Y-8702308D01*
X11111367Y-8702308D02*
X11120891Y-8711831D01*
X11120891Y-8711831D02*
X11130415Y-8730879D01*
X11130415Y-8730879D02*
X11139939Y-8768974D01*
X11139939Y-8768974D02*
X11139939Y-8816593D01*
X11139939Y-8816593D02*
X11130415Y-8854689D01*
X11130415Y-8854689D02*
X11120891Y-8873736D01*
X11120891Y-8873736D02*
X11111367Y-8883260D01*
X11111367Y-8883260D02*
X11092320Y-8892784D01*
X11092320Y-8892784D02*
X11073272Y-8892784D01*
X11073272Y-8892784D02*
X11054224Y-8883260D01*
X11054224Y-8883260D02*
X11044701Y-8873736D01*
X11044701Y-8873736D02*
X11035177Y-8854689D01*
X11035177Y-8854689D02*
X11025653Y-8816593D01*
X11025653Y-8816593D02*
X11025653Y-8768974D01*
X11025653Y-8768974D02*
X11035177Y-8730879D01*
X11035177Y-8730879D02*
X11044701Y-8711831D01*
X11044701Y-8711831D02*
X11054224Y-8702308D01*
X11054224Y-8702308D02*
X11073272Y-8692784D01*
X11225653Y-8873736D02*
X11235177Y-8883260D01*
X11235177Y-8883260D02*
X11225653Y-8892784D01*
X11225653Y-8892784D02*
X11216129Y-8883260D01*
X11216129Y-8883260D02*
X11225653Y-8873736D01*
X11225653Y-8873736D02*
X11225653Y-8892784D01*
X11416129Y-8692784D02*
X11320891Y-8692784D01*
X11320891Y-8692784D02*
X11311367Y-8788022D01*
X11311367Y-8788022D02*
X11320891Y-8778498D01*
X11320891Y-8778498D02*
X11339939Y-8768974D01*
X11339939Y-8768974D02*
X11387558Y-8768974D01*
X11387558Y-8768974D02*
X11406605Y-8778498D01*
X11406605Y-8778498D02*
X11416129Y-8788022D01*
X11416129Y-8788022D02*
X11425653Y-8807070D01*
X11425653Y-8807070D02*
X11425653Y-8854689D01*
X11425653Y-8854689D02*
X11416129Y-8873736D01*
X11416129Y-8873736D02*
X11406605Y-8883260D01*
X11406605Y-8883260D02*
X11387558Y-8892784D01*
X11387558Y-8892784D02*
X11339939Y-8892784D01*
X11339939Y-8892784D02*
X11320891Y-8883260D01*
X11320891Y-8883260D02*
X11311367Y-8873736D01*
X11549462Y-8692784D02*
X11568510Y-8692784D01*
X11568510Y-8692784D02*
X11587558Y-8702308D01*
X11587558Y-8702308D02*
X11597082Y-8711831D01*
X11597082Y-8711831D02*
X11606605Y-8730879D01*
X11606605Y-8730879D02*
X11616129Y-8768974D01*
X11616129Y-8768974D02*
X11616129Y-8816593D01*
X11616129Y-8816593D02*
X11606605Y-8854689D01*
X11606605Y-8854689D02*
X11597082Y-8873736D01*
X11597082Y-8873736D02*
X11587558Y-8883260D01*
X11587558Y-8883260D02*
X11568510Y-8892784D01*
X11568510Y-8892784D02*
X11549462Y-8892784D01*
X11549462Y-8892784D02*
X11530415Y-8883260D01*
X11530415Y-8883260D02*
X11520891Y-8873736D01*
X11520891Y-8873736D02*
X11511367Y-8854689D01*
X11511367Y-8854689D02*
X11501843Y-8816593D01*
X11501843Y-8816593D02*
X11501843Y-8768974D01*
X11501843Y-8768974D02*
X11511367Y-8730879D01*
X11511367Y-8730879D02*
X11520891Y-8711831D01*
X11520891Y-8711831D02*
X11530415Y-8702308D01*
X11530415Y-8702308D02*
X11549462Y-8692784D01*
X11739939Y-8692784D02*
X11758986Y-8692784D01*
X11758986Y-8692784D02*
X11778034Y-8702308D01*
X11778034Y-8702308D02*
X11787558Y-8711831D01*
X11787558Y-8711831D02*
X11797082Y-8730879D01*
X11797082Y-8730879D02*
X11806605Y-8768974D01*
X11806605Y-8768974D02*
X11806605Y-8816593D01*
X11806605Y-8816593D02*
X11797082Y-8854689D01*
X11797082Y-8854689D02*
X11787558Y-8873736D01*
X11787558Y-8873736D02*
X11778034Y-8883260D01*
X11778034Y-8883260D02*
X11758986Y-8892784D01*
X11758986Y-8892784D02*
X11739939Y-8892784D01*
X11739939Y-8892784D02*
X11720891Y-8883260D01*
X11720891Y-8883260D02*
X11711367Y-8873736D01*
X11711367Y-8873736D02*
X11701843Y-8854689D01*
X11701843Y-8854689D02*
X11692320Y-8816593D01*
X11692320Y-8816593D02*
X11692320Y-8768974D01*
X11692320Y-8768974D02*
X11701843Y-8730879D01*
X11701843Y-8730879D02*
X11711367Y-8711831D01*
X11711367Y-8711831D02*
X11720891Y-8702308D01*
X11720891Y-8702308D02*
X11739939Y-8692784D01*
X11892320Y-8892784D02*
X11892320Y-8759450D01*
X11892320Y-8778498D02*
X11901843Y-8768974D01*
X11901843Y-8768974D02*
X11920891Y-8759450D01*
X11920891Y-8759450D02*
X11949463Y-8759450D01*
X11949463Y-8759450D02*
X11968510Y-8768974D01*
X11968510Y-8768974D02*
X11978034Y-8788022D01*
X11978034Y-8788022D02*
X11978034Y-8892784D01*
X11978034Y-8788022D02*
X11987558Y-8768974D01*
X11987558Y-8768974D02*
X12006605Y-8759450D01*
X12006605Y-8759450D02*
X12035177Y-8759450D01*
X12035177Y-8759450D02*
X12054224Y-8768974D01*
X12054224Y-8768974D02*
X12063748Y-8788022D01*
X12063748Y-8788022D02*
X12063748Y-8892784D01*
X12158986Y-8892784D02*
X12158986Y-8759450D01*
X12158986Y-8778498D02*
X12168510Y-8768974D01*
X12168510Y-8768974D02*
X12187558Y-8759450D01*
X12187558Y-8759450D02*
X12216129Y-8759450D01*
X12216129Y-8759450D02*
X12235177Y-8768974D01*
X12235177Y-8768974D02*
X12244701Y-8788022D01*
X12244701Y-8788022D02*
X12244701Y-8892784D01*
X12244701Y-8788022D02*
X12254224Y-8768974D01*
X12254224Y-8768974D02*
X12273272Y-8759450D01*
X12273272Y-8759450D02*
X12301843Y-8759450D01*
X12301843Y-8759450D02*
X12320891Y-8768974D01*
X12320891Y-8768974D02*
X12330415Y-8788022D01*
X12330415Y-8788022D02*
X12330415Y-8892784D01*
X12720891Y-8683260D02*
X12549463Y-8940403D01*
X12978034Y-8692784D02*
X12997082Y-8692784D01*
X12997082Y-8692784D02*
X13016129Y-8702308D01*
X13016129Y-8702308D02*
X13025653Y-8711831D01*
X13025653Y-8711831D02*
X13035177Y-8730879D01*
X13035177Y-8730879D02*
X13044701Y-8768974D01*
X13044701Y-8768974D02*
X13044701Y-8816593D01*
X13044701Y-8816593D02*
X13035177Y-8854689D01*
X13035177Y-8854689D02*
X13025653Y-8873736D01*
X13025653Y-8873736D02*
X13016129Y-8883260D01*
X13016129Y-8883260D02*
X12997082Y-8892784D01*
X12997082Y-8892784D02*
X12978034Y-8892784D01*
X12978034Y-8892784D02*
X12958986Y-8883260D01*
X12958986Y-8883260D02*
X12949463Y-8873736D01*
X12949463Y-8873736D02*
X12939939Y-8854689D01*
X12939939Y-8854689D02*
X12930415Y-8816593D01*
X12930415Y-8816593D02*
X12930415Y-8768974D01*
X12930415Y-8768974D02*
X12939939Y-8730879D01*
X12939939Y-8730879D02*
X12949463Y-8711831D01*
X12949463Y-8711831D02*
X12958986Y-8702308D01*
X12958986Y-8702308D02*
X12978034Y-8692784D01*
X13130415Y-8873736D02*
X13139939Y-8883260D01*
X13139939Y-8883260D02*
X13130415Y-8892784D01*
X13130415Y-8892784D02*
X13120891Y-8883260D01*
X13120891Y-8883260D02*
X13130415Y-8873736D01*
X13130415Y-8873736D02*
X13130415Y-8892784D01*
X13263748Y-8692784D02*
X13282796Y-8692784D01*
X13282796Y-8692784D02*
X13301844Y-8702308D01*
X13301844Y-8702308D02*
X13311367Y-8711831D01*
X13311367Y-8711831D02*
X13320891Y-8730879D01*
X13320891Y-8730879D02*
X13330415Y-8768974D01*
X13330415Y-8768974D02*
X13330415Y-8816593D01*
X13330415Y-8816593D02*
X13320891Y-8854689D01*
X13320891Y-8854689D02*
X13311367Y-8873736D01*
X13311367Y-8873736D02*
X13301844Y-8883260D01*
X13301844Y-8883260D02*
X13282796Y-8892784D01*
X13282796Y-8892784D02*
X13263748Y-8892784D01*
X13263748Y-8892784D02*
X13244701Y-8883260D01*
X13244701Y-8883260D02*
X13235177Y-8873736D01*
X13235177Y-8873736D02*
X13225653Y-8854689D01*
X13225653Y-8854689D02*
X13216129Y-8816593D01*
X13216129Y-8816593D02*
X13216129Y-8768974D01*
X13216129Y-8768974D02*
X13225653Y-8730879D01*
X13225653Y-8730879D02*
X13235177Y-8711831D01*
X13235177Y-8711831D02*
X13244701Y-8702308D01*
X13244701Y-8702308D02*
X13263748Y-8692784D01*
X13520891Y-8892784D02*
X13406606Y-8892784D01*
X13463748Y-8892784D02*
X13463748Y-8692784D01*
X13463748Y-8692784D02*
X13444701Y-8721355D01*
X13444701Y-8721355D02*
X13425653Y-8740403D01*
X13425653Y-8740403D02*
X13406606Y-8749927D01*
X13616129Y-8892784D02*
X13654225Y-8892784D01*
X13654225Y-8892784D02*
X13673272Y-8883260D01*
X13673272Y-8883260D02*
X13682796Y-8873736D01*
X13682796Y-8873736D02*
X13701844Y-8845165D01*
X13701844Y-8845165D02*
X13711367Y-8807070D01*
X13711367Y-8807070D02*
X13711367Y-8730879D01*
X13711367Y-8730879D02*
X13701844Y-8711831D01*
X13701844Y-8711831D02*
X13692320Y-8702308D01*
X13692320Y-8702308D02*
X13673272Y-8692784D01*
X13673272Y-8692784D02*
X13635177Y-8692784D01*
X13635177Y-8692784D02*
X13616129Y-8702308D01*
X13616129Y-8702308D02*
X13606606Y-8711831D01*
X13606606Y-8711831D02*
X13597082Y-8730879D01*
X13597082Y-8730879D02*
X13597082Y-8778498D01*
X13597082Y-8778498D02*
X13606606Y-8797546D01*
X13606606Y-8797546D02*
X13616129Y-8807070D01*
X13616129Y-8807070D02*
X13635177Y-8816593D01*
X13635177Y-8816593D02*
X13673272Y-8816593D01*
X13673272Y-8816593D02*
X13692320Y-8807070D01*
X13692320Y-8807070D02*
X13701844Y-8797546D01*
X13701844Y-8797546D02*
X13711367Y-8778498D01*
X13778034Y-8692784D02*
X13911367Y-8692784D01*
X13911367Y-8692784D02*
X13825653Y-8892784D01*
X13978034Y-8692784D02*
X13978034Y-8730879D01*
X14054225Y-8692784D02*
X14054225Y-8730879D01*
X14349463Y-8968974D02*
X14339939Y-8959450D01*
X14339939Y-8959450D02*
X14320891Y-8930879D01*
X14320891Y-8930879D02*
X14311368Y-8911831D01*
X14311368Y-8911831D02*
X14301844Y-8883260D01*
X14301844Y-8883260D02*
X14292320Y-8835641D01*
X14292320Y-8835641D02*
X14292320Y-8797546D01*
X14292320Y-8797546D02*
X14301844Y-8749927D01*
X14301844Y-8749927D02*
X14311368Y-8721355D01*
X14311368Y-8721355D02*
X14320891Y-8702308D01*
X14320891Y-8702308D02*
X14339939Y-8673736D01*
X14339939Y-8673736D02*
X14349463Y-8664212D01*
X14530415Y-8892784D02*
X14416129Y-8892784D01*
X14473272Y-8892784D02*
X14473272Y-8692784D01*
X14473272Y-8692784D02*
X14454225Y-8721355D01*
X14454225Y-8721355D02*
X14435177Y-8740403D01*
X14435177Y-8740403D02*
X14416129Y-8749927D01*
X14701844Y-8692784D02*
X14663748Y-8692784D01*
X14663748Y-8692784D02*
X14644701Y-8702308D01*
X14644701Y-8702308D02*
X14635177Y-8711831D01*
X14635177Y-8711831D02*
X14616129Y-8740403D01*
X14616129Y-8740403D02*
X14606606Y-8778498D01*
X14606606Y-8778498D02*
X14606606Y-8854689D01*
X14606606Y-8854689D02*
X14616129Y-8873736D01*
X14616129Y-8873736D02*
X14625653Y-8883260D01*
X14625653Y-8883260D02*
X14644701Y-8892784D01*
X14644701Y-8892784D02*
X14682796Y-8892784D01*
X14682796Y-8892784D02*
X14701844Y-8883260D01*
X14701844Y-8883260D02*
X14711368Y-8873736D01*
X14711368Y-8873736D02*
X14720891Y-8854689D01*
X14720891Y-8854689D02*
X14720891Y-8807070D01*
X14720891Y-8807070D02*
X14711368Y-8788022D01*
X14711368Y-8788022D02*
X14701844Y-8778498D01*
X14701844Y-8778498D02*
X14682796Y-8768974D01*
X14682796Y-8768974D02*
X14644701Y-8768974D01*
X14644701Y-8768974D02*
X14625653Y-8778498D01*
X14625653Y-8778498D02*
X14616129Y-8788022D01*
X14616129Y-8788022D02*
X14606606Y-8807070D01*
X14958987Y-8892784D02*
X14958987Y-8692784D01*
X15044701Y-8892784D02*
X15044701Y-8788022D01*
X15044701Y-8788022D02*
X15035177Y-8768974D01*
X15035177Y-8768974D02*
X15016130Y-8759450D01*
X15016130Y-8759450D02*
X14987558Y-8759450D01*
X14987558Y-8759450D02*
X14968510Y-8768974D01*
X14968510Y-8768974D02*
X14958987Y-8778498D01*
X15168510Y-8892784D02*
X15149463Y-8883260D01*
X15149463Y-8883260D02*
X15139939Y-8873736D01*
X15139939Y-8873736D02*
X15130415Y-8854689D01*
X15130415Y-8854689D02*
X15130415Y-8797546D01*
X15130415Y-8797546D02*
X15139939Y-8778498D01*
X15139939Y-8778498D02*
X15149463Y-8768974D01*
X15149463Y-8768974D02*
X15168510Y-8759450D01*
X15168510Y-8759450D02*
X15197082Y-8759450D01*
X15197082Y-8759450D02*
X15216130Y-8768974D01*
X15216130Y-8768974D02*
X15225653Y-8778498D01*
X15225653Y-8778498D02*
X15235177Y-8797546D01*
X15235177Y-8797546D02*
X15235177Y-8854689D01*
X15235177Y-8854689D02*
X15225653Y-8873736D01*
X15225653Y-8873736D02*
X15216130Y-8883260D01*
X15216130Y-8883260D02*
X15197082Y-8892784D01*
X15197082Y-8892784D02*
X15168510Y-8892784D01*
X15349463Y-8892784D02*
X15330415Y-8883260D01*
X15330415Y-8883260D02*
X15320891Y-8864212D01*
X15320891Y-8864212D02*
X15320891Y-8692784D01*
X15501844Y-8883260D02*
X15482796Y-8892784D01*
X15482796Y-8892784D02*
X15444701Y-8892784D01*
X15444701Y-8892784D02*
X15425653Y-8883260D01*
X15425653Y-8883260D02*
X15416130Y-8864212D01*
X15416130Y-8864212D02*
X15416130Y-8788022D01*
X15416130Y-8788022D02*
X15425653Y-8768974D01*
X15425653Y-8768974D02*
X15444701Y-8759450D01*
X15444701Y-8759450D02*
X15482796Y-8759450D01*
X15482796Y-8759450D02*
X15501844Y-8768974D01*
X15501844Y-8768974D02*
X15511368Y-8788022D01*
X15511368Y-8788022D02*
X15511368Y-8807070D01*
X15511368Y-8807070D02*
X15416130Y-8826117D01*
X15587558Y-8883260D02*
X15606606Y-8892784D01*
X15606606Y-8892784D02*
X15644701Y-8892784D01*
X15644701Y-8892784D02*
X15663749Y-8883260D01*
X15663749Y-8883260D02*
X15673272Y-8864212D01*
X15673272Y-8864212D02*
X15673272Y-8854689D01*
X15673272Y-8854689D02*
X15663749Y-8835641D01*
X15663749Y-8835641D02*
X15644701Y-8826117D01*
X15644701Y-8826117D02*
X15616130Y-8826117D01*
X15616130Y-8826117D02*
X15597082Y-8816593D01*
X15597082Y-8816593D02*
X15587558Y-8797546D01*
X15587558Y-8797546D02*
X15587558Y-8788022D01*
X15587558Y-8788022D02*
X15597082Y-8768974D01*
X15597082Y-8768974D02*
X15616130Y-8759450D01*
X15616130Y-8759450D02*
X15644701Y-8759450D01*
X15644701Y-8759450D02*
X15663749Y-8768974D01*
X15739939Y-8968974D02*
X15749463Y-8959450D01*
X15749463Y-8959450D02*
X15768511Y-8930879D01*
X15768511Y-8930879D02*
X15778034Y-8911831D01*
X15778034Y-8911831D02*
X15787558Y-8883260D01*
X15787558Y-8883260D02*
X15797082Y-8835641D01*
X15797082Y-8835641D02*
X15797082Y-8797546D01*
X15797082Y-8797546D02*
X15787558Y-8749927D01*
X15787558Y-8749927D02*
X15778034Y-8721355D01*
X15778034Y-8721355D02*
X15768511Y-8702308D01*
X15768511Y-8702308D02*
X15749463Y-8673736D01*
X15749463Y-8673736D02*
X15739939Y-8664212D01*
D12*
X10774400Y-9065300D02*
G75*
G02*
X10704400Y-9065300I-35000J0D01*
G01*
X10704400Y-9065300D02*
G75*
G02*
X10774400Y-9065300I35000J0D01*
G01*
D11*
X11073272Y-8956784D02*
X11092320Y-8956784D01*
X11092320Y-8956784D02*
X11111367Y-8966308D01*
X11111367Y-8966308D02*
X11120891Y-8975831D01*
X11120891Y-8975831D02*
X11130415Y-8994879D01*
X11130415Y-8994879D02*
X11139939Y-9032974D01*
X11139939Y-9032974D02*
X11139939Y-9080593D01*
X11139939Y-9080593D02*
X11130415Y-9118689D01*
X11130415Y-9118689D02*
X11120891Y-9137736D01*
X11120891Y-9137736D02*
X11111367Y-9147260D01*
X11111367Y-9147260D02*
X11092320Y-9156784D01*
X11092320Y-9156784D02*
X11073272Y-9156784D01*
X11073272Y-9156784D02*
X11054224Y-9147260D01*
X11054224Y-9147260D02*
X11044701Y-9137736D01*
X11044701Y-9137736D02*
X11035177Y-9118689D01*
X11035177Y-9118689D02*
X11025653Y-9080593D01*
X11025653Y-9080593D02*
X11025653Y-9032974D01*
X11025653Y-9032974D02*
X11035177Y-8994879D01*
X11035177Y-8994879D02*
X11044701Y-8975831D01*
X11044701Y-8975831D02*
X11054224Y-8966308D01*
X11054224Y-8966308D02*
X11073272Y-8956784D01*
X11225653Y-9137736D02*
X11235177Y-9147260D01*
X11235177Y-9147260D02*
X11225653Y-9156784D01*
X11225653Y-9156784D02*
X11216129Y-9147260D01*
X11216129Y-9147260D02*
X11225653Y-9137736D01*
X11225653Y-9137736D02*
X11225653Y-9156784D01*
X11301843Y-8956784D02*
X11435177Y-8956784D01*
X11435177Y-8956784D02*
X11349462Y-9156784D01*
X11549462Y-8956784D02*
X11568510Y-8956784D01*
X11568510Y-8956784D02*
X11587558Y-8966308D01*
X11587558Y-8966308D02*
X11597082Y-8975831D01*
X11597082Y-8975831D02*
X11606605Y-8994879D01*
X11606605Y-8994879D02*
X11616129Y-9032974D01*
X11616129Y-9032974D02*
X11616129Y-9080593D01*
X11616129Y-9080593D02*
X11606605Y-9118689D01*
X11606605Y-9118689D02*
X11597082Y-9137736D01*
X11597082Y-9137736D02*
X11587558Y-9147260D01*
X11587558Y-9147260D02*
X11568510Y-9156784D01*
X11568510Y-9156784D02*
X11549462Y-9156784D01*
X11549462Y-9156784D02*
X11530415Y-9147260D01*
X11530415Y-9147260D02*
X11520891Y-9137736D01*
X11520891Y-9137736D02*
X11511367Y-9118689D01*
X11511367Y-9118689D02*
X11501843Y-9080593D01*
X11501843Y-9080593D02*
X11501843Y-9032974D01*
X11501843Y-9032974D02*
X11511367Y-8994879D01*
X11511367Y-8994879D02*
X11520891Y-8975831D01*
X11520891Y-8975831D02*
X11530415Y-8966308D01*
X11530415Y-8966308D02*
X11549462Y-8956784D01*
X11739939Y-8956784D02*
X11758986Y-8956784D01*
X11758986Y-8956784D02*
X11778034Y-8966308D01*
X11778034Y-8966308D02*
X11787558Y-8975831D01*
X11787558Y-8975831D02*
X11797082Y-8994879D01*
X11797082Y-8994879D02*
X11806605Y-9032974D01*
X11806605Y-9032974D02*
X11806605Y-9080593D01*
X11806605Y-9080593D02*
X11797082Y-9118689D01*
X11797082Y-9118689D02*
X11787558Y-9137736D01*
X11787558Y-9137736D02*
X11778034Y-9147260D01*
X11778034Y-9147260D02*
X11758986Y-9156784D01*
X11758986Y-9156784D02*
X11739939Y-9156784D01*
X11739939Y-9156784D02*
X11720891Y-9147260D01*
X11720891Y-9147260D02*
X11711367Y-9137736D01*
X11711367Y-9137736D02*
X11701843Y-9118689D01*
X11701843Y-9118689D02*
X11692320Y-9080593D01*
X11692320Y-9080593D02*
X11692320Y-9032974D01*
X11692320Y-9032974D02*
X11701843Y-8994879D01*
X11701843Y-8994879D02*
X11711367Y-8975831D01*
X11711367Y-8975831D02*
X11720891Y-8966308D01*
X11720891Y-8966308D02*
X11739939Y-8956784D01*
X11892320Y-9156784D02*
X11892320Y-9023450D01*
X11892320Y-9042498D02*
X11901843Y-9032974D01*
X11901843Y-9032974D02*
X11920891Y-9023450D01*
X11920891Y-9023450D02*
X11949463Y-9023450D01*
X11949463Y-9023450D02*
X11968510Y-9032974D01*
X11968510Y-9032974D02*
X11978034Y-9052022D01*
X11978034Y-9052022D02*
X11978034Y-9156784D01*
X11978034Y-9052022D02*
X11987558Y-9032974D01*
X11987558Y-9032974D02*
X12006605Y-9023450D01*
X12006605Y-9023450D02*
X12035177Y-9023450D01*
X12035177Y-9023450D02*
X12054224Y-9032974D01*
X12054224Y-9032974D02*
X12063748Y-9052022D01*
X12063748Y-9052022D02*
X12063748Y-9156784D01*
X12158986Y-9156784D02*
X12158986Y-9023450D01*
X12158986Y-9042498D02*
X12168510Y-9032974D01*
X12168510Y-9032974D02*
X12187558Y-9023450D01*
X12187558Y-9023450D02*
X12216129Y-9023450D01*
X12216129Y-9023450D02*
X12235177Y-9032974D01*
X12235177Y-9032974D02*
X12244701Y-9052022D01*
X12244701Y-9052022D02*
X12244701Y-9156784D01*
X12244701Y-9052022D02*
X12254224Y-9032974D01*
X12254224Y-9032974D02*
X12273272Y-9023450D01*
X12273272Y-9023450D02*
X12301843Y-9023450D01*
X12301843Y-9023450D02*
X12320891Y-9032974D01*
X12320891Y-9032974D02*
X12330415Y-9052022D01*
X12330415Y-9052022D02*
X12330415Y-9156784D01*
X12720891Y-8947260D02*
X12549463Y-9204403D01*
X12978034Y-8956784D02*
X12997082Y-8956784D01*
X12997082Y-8956784D02*
X13016129Y-8966308D01*
X13016129Y-8966308D02*
X13025653Y-8975831D01*
X13025653Y-8975831D02*
X13035177Y-8994879D01*
X13035177Y-8994879D02*
X13044701Y-9032974D01*
X13044701Y-9032974D02*
X13044701Y-9080593D01*
X13044701Y-9080593D02*
X13035177Y-9118689D01*
X13035177Y-9118689D02*
X13025653Y-9137736D01*
X13025653Y-9137736D02*
X13016129Y-9147260D01*
X13016129Y-9147260D02*
X12997082Y-9156784D01*
X12997082Y-9156784D02*
X12978034Y-9156784D01*
X12978034Y-9156784D02*
X12958986Y-9147260D01*
X12958986Y-9147260D02*
X12949463Y-9137736D01*
X12949463Y-9137736D02*
X12939939Y-9118689D01*
X12939939Y-9118689D02*
X12930415Y-9080593D01*
X12930415Y-9080593D02*
X12930415Y-9032974D01*
X12930415Y-9032974D02*
X12939939Y-8994879D01*
X12939939Y-8994879D02*
X12949463Y-8975831D01*
X12949463Y-8975831D02*
X12958986Y-8966308D01*
X12958986Y-8966308D02*
X12978034Y-8956784D01*
X13130415Y-9137736D02*
X13139939Y-9147260D01*
X13139939Y-9147260D02*
X13130415Y-9156784D01*
X13130415Y-9156784D02*
X13120891Y-9147260D01*
X13120891Y-9147260D02*
X13130415Y-9137736D01*
X13130415Y-9137736D02*
X13130415Y-9156784D01*
X13263748Y-8956784D02*
X13282796Y-8956784D01*
X13282796Y-8956784D02*
X13301844Y-8966308D01*
X13301844Y-8966308D02*
X13311367Y-8975831D01*
X13311367Y-8975831D02*
X13320891Y-8994879D01*
X13320891Y-8994879D02*
X13330415Y-9032974D01*
X13330415Y-9032974D02*
X13330415Y-9080593D01*
X13330415Y-9080593D02*
X13320891Y-9118689D01*
X13320891Y-9118689D02*
X13311367Y-9137736D01*
X13311367Y-9137736D02*
X13301844Y-9147260D01*
X13301844Y-9147260D02*
X13282796Y-9156784D01*
X13282796Y-9156784D02*
X13263748Y-9156784D01*
X13263748Y-9156784D02*
X13244701Y-9147260D01*
X13244701Y-9147260D02*
X13235177Y-9137736D01*
X13235177Y-9137736D02*
X13225653Y-9118689D01*
X13225653Y-9118689D02*
X13216129Y-9080593D01*
X13216129Y-9080593D02*
X13216129Y-9032974D01*
X13216129Y-9032974D02*
X13225653Y-8994879D01*
X13225653Y-8994879D02*
X13235177Y-8975831D01*
X13235177Y-8975831D02*
X13244701Y-8966308D01*
X13244701Y-8966308D02*
X13263748Y-8956784D01*
X13406606Y-8975831D02*
X13416129Y-8966308D01*
X13416129Y-8966308D02*
X13435177Y-8956784D01*
X13435177Y-8956784D02*
X13482796Y-8956784D01*
X13482796Y-8956784D02*
X13501844Y-8966308D01*
X13501844Y-8966308D02*
X13511367Y-8975831D01*
X13511367Y-8975831D02*
X13520891Y-8994879D01*
X13520891Y-8994879D02*
X13520891Y-9013927D01*
X13520891Y-9013927D02*
X13511367Y-9042498D01*
X13511367Y-9042498D02*
X13397082Y-9156784D01*
X13397082Y-9156784D02*
X13520891Y-9156784D01*
X13587558Y-8956784D02*
X13720891Y-8956784D01*
X13720891Y-8956784D02*
X13635177Y-9156784D01*
X13882796Y-8956784D02*
X13844701Y-8956784D01*
X13844701Y-8956784D02*
X13825653Y-8966308D01*
X13825653Y-8966308D02*
X13816129Y-8975831D01*
X13816129Y-8975831D02*
X13797082Y-9004403D01*
X13797082Y-9004403D02*
X13787558Y-9042498D01*
X13787558Y-9042498D02*
X13787558Y-9118689D01*
X13787558Y-9118689D02*
X13797082Y-9137736D01*
X13797082Y-9137736D02*
X13806606Y-9147260D01*
X13806606Y-9147260D02*
X13825653Y-9156784D01*
X13825653Y-9156784D02*
X13863748Y-9156784D01*
X13863748Y-9156784D02*
X13882796Y-9147260D01*
X13882796Y-9147260D02*
X13892320Y-9137736D01*
X13892320Y-9137736D02*
X13901844Y-9118689D01*
X13901844Y-9118689D02*
X13901844Y-9071070D01*
X13901844Y-9071070D02*
X13892320Y-9052022D01*
X13892320Y-9052022D02*
X13882796Y-9042498D01*
X13882796Y-9042498D02*
X13863748Y-9032974D01*
X13863748Y-9032974D02*
X13825653Y-9032974D01*
X13825653Y-9032974D02*
X13806606Y-9042498D01*
X13806606Y-9042498D02*
X13797082Y-9052022D01*
X13797082Y-9052022D02*
X13787558Y-9071070D01*
X13978034Y-8956784D02*
X13978034Y-8994879D01*
X14054225Y-8956784D02*
X14054225Y-8994879D01*
X14349463Y-9232974D02*
X14339939Y-9223450D01*
X14339939Y-9223450D02*
X14320891Y-9194879D01*
X14320891Y-9194879D02*
X14311368Y-9175831D01*
X14311368Y-9175831D02*
X14301844Y-9147260D01*
X14301844Y-9147260D02*
X14292320Y-9099641D01*
X14292320Y-9099641D02*
X14292320Y-9061546D01*
X14292320Y-9061546D02*
X14301844Y-9013927D01*
X14301844Y-9013927D02*
X14311368Y-8985355D01*
X14311368Y-8985355D02*
X14320891Y-8966308D01*
X14320891Y-8966308D02*
X14339939Y-8937736D01*
X14339939Y-8937736D02*
X14349463Y-8928212D01*
X14416129Y-8975831D02*
X14425653Y-8966308D01*
X14425653Y-8966308D02*
X14444701Y-8956784D01*
X14444701Y-8956784D02*
X14492320Y-8956784D01*
X14492320Y-8956784D02*
X14511368Y-8966308D01*
X14511368Y-8966308D02*
X14520891Y-8975831D01*
X14520891Y-8975831D02*
X14530415Y-8994879D01*
X14530415Y-8994879D02*
X14530415Y-9013927D01*
X14530415Y-9013927D02*
X14520891Y-9042498D01*
X14520891Y-9042498D02*
X14406606Y-9156784D01*
X14406606Y-9156784D02*
X14530415Y-9156784D01*
X14768510Y-9156784D02*
X14768510Y-8956784D01*
X14854225Y-9156784D02*
X14854225Y-9052022D01*
X14854225Y-9052022D02*
X14844701Y-9032974D01*
X14844701Y-9032974D02*
X14825653Y-9023450D01*
X14825653Y-9023450D02*
X14797082Y-9023450D01*
X14797082Y-9023450D02*
X14778034Y-9032974D01*
X14778034Y-9032974D02*
X14768510Y-9042498D01*
X14978034Y-9156784D02*
X14958987Y-9147260D01*
X14958987Y-9147260D02*
X14949463Y-9137736D01*
X14949463Y-9137736D02*
X14939939Y-9118689D01*
X14939939Y-9118689D02*
X14939939Y-9061546D01*
X14939939Y-9061546D02*
X14949463Y-9042498D01*
X14949463Y-9042498D02*
X14958987Y-9032974D01*
X14958987Y-9032974D02*
X14978034Y-9023450D01*
X14978034Y-9023450D02*
X15006606Y-9023450D01*
X15006606Y-9023450D02*
X15025653Y-9032974D01*
X15025653Y-9032974D02*
X15035177Y-9042498D01*
X15035177Y-9042498D02*
X15044701Y-9061546D01*
X15044701Y-9061546D02*
X15044701Y-9118689D01*
X15044701Y-9118689D02*
X15035177Y-9137736D01*
X15035177Y-9137736D02*
X15025653Y-9147260D01*
X15025653Y-9147260D02*
X15006606Y-9156784D01*
X15006606Y-9156784D02*
X14978034Y-9156784D01*
X15158987Y-9156784D02*
X15139939Y-9147260D01*
X15139939Y-9147260D02*
X15130415Y-9128212D01*
X15130415Y-9128212D02*
X15130415Y-8956784D01*
X15311368Y-9147260D02*
X15292320Y-9156784D01*
X15292320Y-9156784D02*
X15254225Y-9156784D01*
X15254225Y-9156784D02*
X15235177Y-9147260D01*
X15235177Y-9147260D02*
X15225653Y-9128212D01*
X15225653Y-9128212D02*
X15225653Y-9052022D01*
X15225653Y-9052022D02*
X15235177Y-9032974D01*
X15235177Y-9032974D02*
X15254225Y-9023450D01*
X15254225Y-9023450D02*
X15292320Y-9023450D01*
X15292320Y-9023450D02*
X15311368Y-9032974D01*
X15311368Y-9032974D02*
X15320891Y-9052022D01*
X15320891Y-9052022D02*
X15320891Y-9071070D01*
X15320891Y-9071070D02*
X15225653Y-9090117D01*
X15397082Y-9147260D02*
X15416130Y-9156784D01*
X15416130Y-9156784D02*
X15454225Y-9156784D01*
X15454225Y-9156784D02*
X15473272Y-9147260D01*
X15473272Y-9147260D02*
X15482796Y-9128212D01*
X15482796Y-9128212D02*
X15482796Y-9118689D01*
X15482796Y-9118689D02*
X15473272Y-9099641D01*
X15473272Y-9099641D02*
X15454225Y-9090117D01*
X15454225Y-9090117D02*
X15425653Y-9090117D01*
X15425653Y-9090117D02*
X15406606Y-9080593D01*
X15406606Y-9080593D02*
X15397082Y-9061546D01*
X15397082Y-9061546D02*
X15397082Y-9052022D01*
X15397082Y-9052022D02*
X15406606Y-9032974D01*
X15406606Y-9032974D02*
X15425653Y-9023450D01*
X15425653Y-9023450D02*
X15454225Y-9023450D01*
X15454225Y-9023450D02*
X15473272Y-9032974D01*
X15549463Y-9232974D02*
X15558987Y-9223450D01*
X15558987Y-9223450D02*
X15578034Y-9194879D01*
X15578034Y-9194879D02*
X15587558Y-9175831D01*
X15587558Y-9175831D02*
X15597082Y-9147260D01*
X15597082Y-9147260D02*
X15606606Y-9099641D01*
X15606606Y-9099641D02*
X15606606Y-9061546D01*
X15606606Y-9061546D02*
X15597082Y-9013927D01*
X15597082Y-9013927D02*
X15587558Y-8985355D01*
X15587558Y-8985355D02*
X15578034Y-8966308D01*
X15578034Y-8966308D02*
X15558987Y-8937736D01*
X15558987Y-8937736D02*
X15549463Y-8928212D01*
D12*
X10726900Y-9281800D02*
X10726900Y-9376800D01*
X10679400Y-9329300D02*
X10774400Y-9329300D01*
D11*
X11073272Y-9220784D02*
X11092320Y-9220784D01*
X11092320Y-9220784D02*
X11111367Y-9230308D01*
X11111367Y-9230308D02*
X11120891Y-9239831D01*
X11120891Y-9239831D02*
X11130415Y-9258879D01*
X11130415Y-9258879D02*
X11139939Y-9296974D01*
X11139939Y-9296974D02*
X11139939Y-9344593D01*
X11139939Y-9344593D02*
X11130415Y-9382689D01*
X11130415Y-9382689D02*
X11120891Y-9401736D01*
X11120891Y-9401736D02*
X11111367Y-9411260D01*
X11111367Y-9411260D02*
X11092320Y-9420784D01*
X11092320Y-9420784D02*
X11073272Y-9420784D01*
X11073272Y-9420784D02*
X11054224Y-9411260D01*
X11054224Y-9411260D02*
X11044701Y-9401736D01*
X11044701Y-9401736D02*
X11035177Y-9382689D01*
X11035177Y-9382689D02*
X11025653Y-9344593D01*
X11025653Y-9344593D02*
X11025653Y-9296974D01*
X11025653Y-9296974D02*
X11035177Y-9258879D01*
X11035177Y-9258879D02*
X11044701Y-9239831D01*
X11044701Y-9239831D02*
X11054224Y-9230308D01*
X11054224Y-9230308D02*
X11073272Y-9220784D01*
X11225653Y-9401736D02*
X11235177Y-9411260D01*
X11235177Y-9411260D02*
X11225653Y-9420784D01*
X11225653Y-9420784D02*
X11216129Y-9411260D01*
X11216129Y-9411260D02*
X11225653Y-9401736D01*
X11225653Y-9401736D02*
X11225653Y-9420784D01*
X11330415Y-9420784D02*
X11368510Y-9420784D01*
X11368510Y-9420784D02*
X11387558Y-9411260D01*
X11387558Y-9411260D02*
X11397082Y-9401736D01*
X11397082Y-9401736D02*
X11416129Y-9373165D01*
X11416129Y-9373165D02*
X11425653Y-9335070D01*
X11425653Y-9335070D02*
X11425653Y-9258879D01*
X11425653Y-9258879D02*
X11416129Y-9239831D01*
X11416129Y-9239831D02*
X11406605Y-9230308D01*
X11406605Y-9230308D02*
X11387558Y-9220784D01*
X11387558Y-9220784D02*
X11349462Y-9220784D01*
X11349462Y-9220784D02*
X11330415Y-9230308D01*
X11330415Y-9230308D02*
X11320891Y-9239831D01*
X11320891Y-9239831D02*
X11311367Y-9258879D01*
X11311367Y-9258879D02*
X11311367Y-9306498D01*
X11311367Y-9306498D02*
X11320891Y-9325546D01*
X11320891Y-9325546D02*
X11330415Y-9335070D01*
X11330415Y-9335070D02*
X11349462Y-9344593D01*
X11349462Y-9344593D02*
X11387558Y-9344593D01*
X11387558Y-9344593D02*
X11406605Y-9335070D01*
X11406605Y-9335070D02*
X11416129Y-9325546D01*
X11416129Y-9325546D02*
X11425653Y-9306498D01*
X11606605Y-9220784D02*
X11511367Y-9220784D01*
X11511367Y-9220784D02*
X11501843Y-9316022D01*
X11501843Y-9316022D02*
X11511367Y-9306498D01*
X11511367Y-9306498D02*
X11530415Y-9296974D01*
X11530415Y-9296974D02*
X11578034Y-9296974D01*
X11578034Y-9296974D02*
X11597082Y-9306498D01*
X11597082Y-9306498D02*
X11606605Y-9316022D01*
X11606605Y-9316022D02*
X11616129Y-9335070D01*
X11616129Y-9335070D02*
X11616129Y-9382689D01*
X11616129Y-9382689D02*
X11606605Y-9401736D01*
X11606605Y-9401736D02*
X11597082Y-9411260D01*
X11597082Y-9411260D02*
X11578034Y-9420784D01*
X11578034Y-9420784D02*
X11530415Y-9420784D01*
X11530415Y-9420784D02*
X11511367Y-9411260D01*
X11511367Y-9411260D02*
X11501843Y-9401736D01*
X11739939Y-9220784D02*
X11758986Y-9220784D01*
X11758986Y-9220784D02*
X11778034Y-9230308D01*
X11778034Y-9230308D02*
X11787558Y-9239831D01*
X11787558Y-9239831D02*
X11797082Y-9258879D01*
X11797082Y-9258879D02*
X11806605Y-9296974D01*
X11806605Y-9296974D02*
X11806605Y-9344593D01*
X11806605Y-9344593D02*
X11797082Y-9382689D01*
X11797082Y-9382689D02*
X11787558Y-9401736D01*
X11787558Y-9401736D02*
X11778034Y-9411260D01*
X11778034Y-9411260D02*
X11758986Y-9420784D01*
X11758986Y-9420784D02*
X11739939Y-9420784D01*
X11739939Y-9420784D02*
X11720891Y-9411260D01*
X11720891Y-9411260D02*
X11711367Y-9401736D01*
X11711367Y-9401736D02*
X11701843Y-9382689D01*
X11701843Y-9382689D02*
X11692320Y-9344593D01*
X11692320Y-9344593D02*
X11692320Y-9296974D01*
X11692320Y-9296974D02*
X11701843Y-9258879D01*
X11701843Y-9258879D02*
X11711367Y-9239831D01*
X11711367Y-9239831D02*
X11720891Y-9230308D01*
X11720891Y-9230308D02*
X11739939Y-9220784D01*
X11892320Y-9420784D02*
X11892320Y-9287450D01*
X11892320Y-9306498D02*
X11901843Y-9296974D01*
X11901843Y-9296974D02*
X11920891Y-9287450D01*
X11920891Y-9287450D02*
X11949463Y-9287450D01*
X11949463Y-9287450D02*
X11968510Y-9296974D01*
X11968510Y-9296974D02*
X11978034Y-9316022D01*
X11978034Y-9316022D02*
X11978034Y-9420784D01*
X11978034Y-9316022D02*
X11987558Y-9296974D01*
X11987558Y-9296974D02*
X12006605Y-9287450D01*
X12006605Y-9287450D02*
X12035177Y-9287450D01*
X12035177Y-9287450D02*
X12054224Y-9296974D01*
X12054224Y-9296974D02*
X12063748Y-9316022D01*
X12063748Y-9316022D02*
X12063748Y-9420784D01*
X12158986Y-9420784D02*
X12158986Y-9287450D01*
X12158986Y-9306498D02*
X12168510Y-9296974D01*
X12168510Y-9296974D02*
X12187558Y-9287450D01*
X12187558Y-9287450D02*
X12216129Y-9287450D01*
X12216129Y-9287450D02*
X12235177Y-9296974D01*
X12235177Y-9296974D02*
X12244701Y-9316022D01*
X12244701Y-9316022D02*
X12244701Y-9420784D01*
X12244701Y-9316022D02*
X12254224Y-9296974D01*
X12254224Y-9296974D02*
X12273272Y-9287450D01*
X12273272Y-9287450D02*
X12301843Y-9287450D01*
X12301843Y-9287450D02*
X12320891Y-9296974D01*
X12320891Y-9296974D02*
X12330415Y-9316022D01*
X12330415Y-9316022D02*
X12330415Y-9420784D01*
X12720891Y-9211260D02*
X12549463Y-9468403D01*
X12978034Y-9220784D02*
X12997082Y-9220784D01*
X12997082Y-9220784D02*
X13016129Y-9230308D01*
X13016129Y-9230308D02*
X13025653Y-9239831D01*
X13025653Y-9239831D02*
X13035177Y-9258879D01*
X13035177Y-9258879D02*
X13044701Y-9296974D01*
X13044701Y-9296974D02*
X13044701Y-9344593D01*
X13044701Y-9344593D02*
X13035177Y-9382689D01*
X13035177Y-9382689D02*
X13025653Y-9401736D01*
X13025653Y-9401736D02*
X13016129Y-9411260D01*
X13016129Y-9411260D02*
X12997082Y-9420784D01*
X12997082Y-9420784D02*
X12978034Y-9420784D01*
X12978034Y-9420784D02*
X12958986Y-9411260D01*
X12958986Y-9411260D02*
X12949463Y-9401736D01*
X12949463Y-9401736D02*
X12939939Y-9382689D01*
X12939939Y-9382689D02*
X12930415Y-9344593D01*
X12930415Y-9344593D02*
X12930415Y-9296974D01*
X12930415Y-9296974D02*
X12939939Y-9258879D01*
X12939939Y-9258879D02*
X12949463Y-9239831D01*
X12949463Y-9239831D02*
X12958986Y-9230308D01*
X12958986Y-9230308D02*
X12978034Y-9220784D01*
X13130415Y-9401736D02*
X13139939Y-9411260D01*
X13139939Y-9411260D02*
X13130415Y-9420784D01*
X13130415Y-9420784D02*
X13120891Y-9411260D01*
X13120891Y-9411260D02*
X13130415Y-9401736D01*
X13130415Y-9401736D02*
X13130415Y-9420784D01*
X13263748Y-9220784D02*
X13282796Y-9220784D01*
X13282796Y-9220784D02*
X13301844Y-9230308D01*
X13301844Y-9230308D02*
X13311367Y-9239831D01*
X13311367Y-9239831D02*
X13320891Y-9258879D01*
X13320891Y-9258879D02*
X13330415Y-9296974D01*
X13330415Y-9296974D02*
X13330415Y-9344593D01*
X13330415Y-9344593D02*
X13320891Y-9382689D01*
X13320891Y-9382689D02*
X13311367Y-9401736D01*
X13311367Y-9401736D02*
X13301844Y-9411260D01*
X13301844Y-9411260D02*
X13282796Y-9420784D01*
X13282796Y-9420784D02*
X13263748Y-9420784D01*
X13263748Y-9420784D02*
X13244701Y-9411260D01*
X13244701Y-9411260D02*
X13235177Y-9401736D01*
X13235177Y-9401736D02*
X13225653Y-9382689D01*
X13225653Y-9382689D02*
X13216129Y-9344593D01*
X13216129Y-9344593D02*
X13216129Y-9296974D01*
X13216129Y-9296974D02*
X13225653Y-9258879D01*
X13225653Y-9258879D02*
X13235177Y-9239831D01*
X13235177Y-9239831D02*
X13244701Y-9230308D01*
X13244701Y-9230308D02*
X13263748Y-9220784D01*
X13397082Y-9220784D02*
X13520891Y-9220784D01*
X13520891Y-9220784D02*
X13454225Y-9296974D01*
X13454225Y-9296974D02*
X13482796Y-9296974D01*
X13482796Y-9296974D02*
X13501844Y-9306498D01*
X13501844Y-9306498D02*
X13511367Y-9316022D01*
X13511367Y-9316022D02*
X13520891Y-9335070D01*
X13520891Y-9335070D02*
X13520891Y-9382689D01*
X13520891Y-9382689D02*
X13511367Y-9401736D01*
X13511367Y-9401736D02*
X13501844Y-9411260D01*
X13501844Y-9411260D02*
X13482796Y-9420784D01*
X13482796Y-9420784D02*
X13425653Y-9420784D01*
X13425653Y-9420784D02*
X13406606Y-9411260D01*
X13406606Y-9411260D02*
X13397082Y-9401736D01*
X13587558Y-9220784D02*
X13720891Y-9220784D01*
X13720891Y-9220784D02*
X13635177Y-9420784D01*
X13882796Y-9287450D02*
X13882796Y-9420784D01*
X13835177Y-9211260D02*
X13787558Y-9354117D01*
X13787558Y-9354117D02*
X13911367Y-9354117D01*
X13978034Y-9220784D02*
X13978034Y-9258879D01*
X14054225Y-9220784D02*
X14054225Y-9258879D01*
X14349463Y-9496974D02*
X14339939Y-9487450D01*
X14339939Y-9487450D02*
X14320891Y-9458879D01*
X14320891Y-9458879D02*
X14311368Y-9439831D01*
X14311368Y-9439831D02*
X14301844Y-9411260D01*
X14301844Y-9411260D02*
X14292320Y-9363641D01*
X14292320Y-9363641D02*
X14292320Y-9325546D01*
X14292320Y-9325546D02*
X14301844Y-9277927D01*
X14301844Y-9277927D02*
X14311368Y-9249355D01*
X14311368Y-9249355D02*
X14320891Y-9230308D01*
X14320891Y-9230308D02*
X14339939Y-9201736D01*
X14339939Y-9201736D02*
X14349463Y-9192212D01*
X14435177Y-9420784D02*
X14473272Y-9420784D01*
X14473272Y-9420784D02*
X14492320Y-9411260D01*
X14492320Y-9411260D02*
X14501844Y-9401736D01*
X14501844Y-9401736D02*
X14520891Y-9373165D01*
X14520891Y-9373165D02*
X14530415Y-9335070D01*
X14530415Y-9335070D02*
X14530415Y-9258879D01*
X14530415Y-9258879D02*
X14520891Y-9239831D01*
X14520891Y-9239831D02*
X14511368Y-9230308D01*
X14511368Y-9230308D02*
X14492320Y-9220784D01*
X14492320Y-9220784D02*
X14454225Y-9220784D01*
X14454225Y-9220784D02*
X14435177Y-9230308D01*
X14435177Y-9230308D02*
X14425653Y-9239831D01*
X14425653Y-9239831D02*
X14416129Y-9258879D01*
X14416129Y-9258879D02*
X14416129Y-9306498D01*
X14416129Y-9306498D02*
X14425653Y-9325546D01*
X14425653Y-9325546D02*
X14435177Y-9335070D01*
X14435177Y-9335070D02*
X14454225Y-9344593D01*
X14454225Y-9344593D02*
X14492320Y-9344593D01*
X14492320Y-9344593D02*
X14511368Y-9335070D01*
X14511368Y-9335070D02*
X14520891Y-9325546D01*
X14520891Y-9325546D02*
X14530415Y-9306498D01*
X14768510Y-9420784D02*
X14768510Y-9220784D01*
X14854225Y-9420784D02*
X14854225Y-9316022D01*
X14854225Y-9316022D02*
X14844701Y-9296974D01*
X14844701Y-9296974D02*
X14825653Y-9287450D01*
X14825653Y-9287450D02*
X14797082Y-9287450D01*
X14797082Y-9287450D02*
X14778034Y-9296974D01*
X14778034Y-9296974D02*
X14768510Y-9306498D01*
X14978034Y-9420784D02*
X14958987Y-9411260D01*
X14958987Y-9411260D02*
X14949463Y-9401736D01*
X14949463Y-9401736D02*
X14939939Y-9382689D01*
X14939939Y-9382689D02*
X14939939Y-9325546D01*
X14939939Y-9325546D02*
X14949463Y-9306498D01*
X14949463Y-9306498D02*
X14958987Y-9296974D01*
X14958987Y-9296974D02*
X14978034Y-9287450D01*
X14978034Y-9287450D02*
X15006606Y-9287450D01*
X15006606Y-9287450D02*
X15025653Y-9296974D01*
X15025653Y-9296974D02*
X15035177Y-9306498D01*
X15035177Y-9306498D02*
X15044701Y-9325546D01*
X15044701Y-9325546D02*
X15044701Y-9382689D01*
X15044701Y-9382689D02*
X15035177Y-9401736D01*
X15035177Y-9401736D02*
X15025653Y-9411260D01*
X15025653Y-9411260D02*
X15006606Y-9420784D01*
X15006606Y-9420784D02*
X14978034Y-9420784D01*
X15158987Y-9420784D02*
X15139939Y-9411260D01*
X15139939Y-9411260D02*
X15130415Y-9392212D01*
X15130415Y-9392212D02*
X15130415Y-9220784D01*
X15311368Y-9411260D02*
X15292320Y-9420784D01*
X15292320Y-9420784D02*
X15254225Y-9420784D01*
X15254225Y-9420784D02*
X15235177Y-9411260D01*
X15235177Y-9411260D02*
X15225653Y-9392212D01*
X15225653Y-9392212D02*
X15225653Y-9316022D01*
X15225653Y-9316022D02*
X15235177Y-9296974D01*
X15235177Y-9296974D02*
X15254225Y-9287450D01*
X15254225Y-9287450D02*
X15292320Y-9287450D01*
X15292320Y-9287450D02*
X15311368Y-9296974D01*
X15311368Y-9296974D02*
X15320891Y-9316022D01*
X15320891Y-9316022D02*
X15320891Y-9335070D01*
X15320891Y-9335070D02*
X15225653Y-9354117D01*
X15397082Y-9411260D02*
X15416130Y-9420784D01*
X15416130Y-9420784D02*
X15454225Y-9420784D01*
X15454225Y-9420784D02*
X15473272Y-9411260D01*
X15473272Y-9411260D02*
X15482796Y-9392212D01*
X15482796Y-9392212D02*
X15482796Y-9382689D01*
X15482796Y-9382689D02*
X15473272Y-9363641D01*
X15473272Y-9363641D02*
X15454225Y-9354117D01*
X15454225Y-9354117D02*
X15425653Y-9354117D01*
X15425653Y-9354117D02*
X15406606Y-9344593D01*
X15406606Y-9344593D02*
X15397082Y-9325546D01*
X15397082Y-9325546D02*
X15397082Y-9316022D01*
X15397082Y-9316022D02*
X15406606Y-9296974D01*
X15406606Y-9296974D02*
X15425653Y-9287450D01*
X15425653Y-9287450D02*
X15454225Y-9287450D01*
X15454225Y-9287450D02*
X15473272Y-9296974D01*
X15549463Y-9496974D02*
X15558987Y-9487450D01*
X15558987Y-9487450D02*
X15578034Y-9458879D01*
X15578034Y-9458879D02*
X15587558Y-9439831D01*
X15587558Y-9439831D02*
X15597082Y-9411260D01*
X15597082Y-9411260D02*
X15606606Y-9363641D01*
X15606606Y-9363641D02*
X15606606Y-9325546D01*
X15606606Y-9325546D02*
X15597082Y-9277927D01*
X15597082Y-9277927D02*
X15587558Y-9249355D01*
X15587558Y-9249355D02*
X15578034Y-9230308D01*
X15578034Y-9230308D02*
X15558987Y-9201736D01*
X15558987Y-9201736D02*
X15549463Y-9192212D01*
D12*
X10759756Y-9628656D02*
X10759756Y-9557944D01*
X10689044Y-9557944D01*
X10689044Y-9628656D01*
X10759756Y-9628656D01*
D11*
X11139939Y-9684784D02*
X11025653Y-9684784D01*
X11082796Y-9684784D02*
X11082796Y-9484784D01*
X11082796Y-9484784D02*
X11063748Y-9513355D01*
X11063748Y-9513355D02*
X11044701Y-9532403D01*
X11044701Y-9532403D02*
X11025653Y-9541927D01*
X11225653Y-9665736D02*
X11235177Y-9675260D01*
X11235177Y-9675260D02*
X11225653Y-9684784D01*
X11225653Y-9684784D02*
X11216129Y-9675260D01*
X11216129Y-9675260D02*
X11225653Y-9665736D01*
X11225653Y-9665736D02*
X11225653Y-9684784D01*
X11358986Y-9484784D02*
X11378034Y-9484784D01*
X11378034Y-9484784D02*
X11397082Y-9494308D01*
X11397082Y-9494308D02*
X11406605Y-9503831D01*
X11406605Y-9503831D02*
X11416129Y-9522879D01*
X11416129Y-9522879D02*
X11425653Y-9560974D01*
X11425653Y-9560974D02*
X11425653Y-9608593D01*
X11425653Y-9608593D02*
X11416129Y-9646689D01*
X11416129Y-9646689D02*
X11406605Y-9665736D01*
X11406605Y-9665736D02*
X11397082Y-9675260D01*
X11397082Y-9675260D02*
X11378034Y-9684784D01*
X11378034Y-9684784D02*
X11358986Y-9684784D01*
X11358986Y-9684784D02*
X11339939Y-9675260D01*
X11339939Y-9675260D02*
X11330415Y-9665736D01*
X11330415Y-9665736D02*
X11320891Y-9646689D01*
X11320891Y-9646689D02*
X11311367Y-9608593D01*
X11311367Y-9608593D02*
X11311367Y-9560974D01*
X11311367Y-9560974D02*
X11320891Y-9522879D01*
X11320891Y-9522879D02*
X11330415Y-9503831D01*
X11330415Y-9503831D02*
X11339939Y-9494308D01*
X11339939Y-9494308D02*
X11358986Y-9484784D01*
X11549462Y-9484784D02*
X11568510Y-9484784D01*
X11568510Y-9484784D02*
X11587558Y-9494308D01*
X11587558Y-9494308D02*
X11597082Y-9503831D01*
X11597082Y-9503831D02*
X11606605Y-9522879D01*
X11606605Y-9522879D02*
X11616129Y-9560974D01*
X11616129Y-9560974D02*
X11616129Y-9608593D01*
X11616129Y-9608593D02*
X11606605Y-9646689D01*
X11606605Y-9646689D02*
X11597082Y-9665736D01*
X11597082Y-9665736D02*
X11587558Y-9675260D01*
X11587558Y-9675260D02*
X11568510Y-9684784D01*
X11568510Y-9684784D02*
X11549462Y-9684784D01*
X11549462Y-9684784D02*
X11530415Y-9675260D01*
X11530415Y-9675260D02*
X11520891Y-9665736D01*
X11520891Y-9665736D02*
X11511367Y-9646689D01*
X11511367Y-9646689D02*
X11501843Y-9608593D01*
X11501843Y-9608593D02*
X11501843Y-9560974D01*
X11501843Y-9560974D02*
X11511367Y-9522879D01*
X11511367Y-9522879D02*
X11520891Y-9503831D01*
X11520891Y-9503831D02*
X11530415Y-9494308D01*
X11530415Y-9494308D02*
X11549462Y-9484784D01*
X11739939Y-9484784D02*
X11758986Y-9484784D01*
X11758986Y-9484784D02*
X11778034Y-9494308D01*
X11778034Y-9494308D02*
X11787558Y-9503831D01*
X11787558Y-9503831D02*
X11797082Y-9522879D01*
X11797082Y-9522879D02*
X11806605Y-9560974D01*
X11806605Y-9560974D02*
X11806605Y-9608593D01*
X11806605Y-9608593D02*
X11797082Y-9646689D01*
X11797082Y-9646689D02*
X11787558Y-9665736D01*
X11787558Y-9665736D02*
X11778034Y-9675260D01*
X11778034Y-9675260D02*
X11758986Y-9684784D01*
X11758986Y-9684784D02*
X11739939Y-9684784D01*
X11739939Y-9684784D02*
X11720891Y-9675260D01*
X11720891Y-9675260D02*
X11711367Y-9665736D01*
X11711367Y-9665736D02*
X11701843Y-9646689D01*
X11701843Y-9646689D02*
X11692320Y-9608593D01*
X11692320Y-9608593D02*
X11692320Y-9560974D01*
X11692320Y-9560974D02*
X11701843Y-9522879D01*
X11701843Y-9522879D02*
X11711367Y-9503831D01*
X11711367Y-9503831D02*
X11720891Y-9494308D01*
X11720891Y-9494308D02*
X11739939Y-9484784D01*
X11892320Y-9684784D02*
X11892320Y-9551450D01*
X11892320Y-9570498D02*
X11901843Y-9560974D01*
X11901843Y-9560974D02*
X11920891Y-9551450D01*
X11920891Y-9551450D02*
X11949463Y-9551450D01*
X11949463Y-9551450D02*
X11968510Y-9560974D01*
X11968510Y-9560974D02*
X11978034Y-9580022D01*
X11978034Y-9580022D02*
X11978034Y-9684784D01*
X11978034Y-9580022D02*
X11987558Y-9560974D01*
X11987558Y-9560974D02*
X12006605Y-9551450D01*
X12006605Y-9551450D02*
X12035177Y-9551450D01*
X12035177Y-9551450D02*
X12054224Y-9560974D01*
X12054224Y-9560974D02*
X12063748Y-9580022D01*
X12063748Y-9580022D02*
X12063748Y-9684784D01*
X12158986Y-9684784D02*
X12158986Y-9551450D01*
X12158986Y-9570498D02*
X12168510Y-9560974D01*
X12168510Y-9560974D02*
X12187558Y-9551450D01*
X12187558Y-9551450D02*
X12216129Y-9551450D01*
X12216129Y-9551450D02*
X12235177Y-9560974D01*
X12235177Y-9560974D02*
X12244701Y-9580022D01*
X12244701Y-9580022D02*
X12244701Y-9684784D01*
X12244701Y-9580022D02*
X12254224Y-9560974D01*
X12254224Y-9560974D02*
X12273272Y-9551450D01*
X12273272Y-9551450D02*
X12301843Y-9551450D01*
X12301843Y-9551450D02*
X12320891Y-9560974D01*
X12320891Y-9560974D02*
X12330415Y-9580022D01*
X12330415Y-9580022D02*
X12330415Y-9684784D01*
X12720891Y-9475260D02*
X12549463Y-9732403D01*
X12978034Y-9484784D02*
X12997082Y-9484784D01*
X12997082Y-9484784D02*
X13016129Y-9494308D01*
X13016129Y-9494308D02*
X13025653Y-9503831D01*
X13025653Y-9503831D02*
X13035177Y-9522879D01*
X13035177Y-9522879D02*
X13044701Y-9560974D01*
X13044701Y-9560974D02*
X13044701Y-9608593D01*
X13044701Y-9608593D02*
X13035177Y-9646689D01*
X13035177Y-9646689D02*
X13025653Y-9665736D01*
X13025653Y-9665736D02*
X13016129Y-9675260D01*
X13016129Y-9675260D02*
X12997082Y-9684784D01*
X12997082Y-9684784D02*
X12978034Y-9684784D01*
X12978034Y-9684784D02*
X12958986Y-9675260D01*
X12958986Y-9675260D02*
X12949463Y-9665736D01*
X12949463Y-9665736D02*
X12939939Y-9646689D01*
X12939939Y-9646689D02*
X12930415Y-9608593D01*
X12930415Y-9608593D02*
X12930415Y-9560974D01*
X12930415Y-9560974D02*
X12939939Y-9522879D01*
X12939939Y-9522879D02*
X12949463Y-9503831D01*
X12949463Y-9503831D02*
X12958986Y-9494308D01*
X12958986Y-9494308D02*
X12978034Y-9484784D01*
X13130415Y-9665736D02*
X13139939Y-9675260D01*
X13139939Y-9675260D02*
X13130415Y-9684784D01*
X13130415Y-9684784D02*
X13120891Y-9675260D01*
X13120891Y-9675260D02*
X13130415Y-9665736D01*
X13130415Y-9665736D02*
X13130415Y-9684784D01*
X13263748Y-9484784D02*
X13282796Y-9484784D01*
X13282796Y-9484784D02*
X13301844Y-9494308D01*
X13301844Y-9494308D02*
X13311367Y-9503831D01*
X13311367Y-9503831D02*
X13320891Y-9522879D01*
X13320891Y-9522879D02*
X13330415Y-9560974D01*
X13330415Y-9560974D02*
X13330415Y-9608593D01*
X13330415Y-9608593D02*
X13320891Y-9646689D01*
X13320891Y-9646689D02*
X13311367Y-9665736D01*
X13311367Y-9665736D02*
X13301844Y-9675260D01*
X13301844Y-9675260D02*
X13282796Y-9684784D01*
X13282796Y-9684784D02*
X13263748Y-9684784D01*
X13263748Y-9684784D02*
X13244701Y-9675260D01*
X13244701Y-9675260D02*
X13235177Y-9665736D01*
X13235177Y-9665736D02*
X13225653Y-9646689D01*
X13225653Y-9646689D02*
X13216129Y-9608593D01*
X13216129Y-9608593D02*
X13216129Y-9560974D01*
X13216129Y-9560974D02*
X13225653Y-9522879D01*
X13225653Y-9522879D02*
X13235177Y-9503831D01*
X13235177Y-9503831D02*
X13244701Y-9494308D01*
X13244701Y-9494308D02*
X13263748Y-9484784D01*
X13397082Y-9484784D02*
X13520891Y-9484784D01*
X13520891Y-9484784D02*
X13454225Y-9560974D01*
X13454225Y-9560974D02*
X13482796Y-9560974D01*
X13482796Y-9560974D02*
X13501844Y-9570498D01*
X13501844Y-9570498D02*
X13511367Y-9580022D01*
X13511367Y-9580022D02*
X13520891Y-9599070D01*
X13520891Y-9599070D02*
X13520891Y-9646689D01*
X13520891Y-9646689D02*
X13511367Y-9665736D01*
X13511367Y-9665736D02*
X13501844Y-9675260D01*
X13501844Y-9675260D02*
X13482796Y-9684784D01*
X13482796Y-9684784D02*
X13425653Y-9684784D01*
X13425653Y-9684784D02*
X13406606Y-9675260D01*
X13406606Y-9675260D02*
X13397082Y-9665736D01*
X13616129Y-9684784D02*
X13654225Y-9684784D01*
X13654225Y-9684784D02*
X13673272Y-9675260D01*
X13673272Y-9675260D02*
X13682796Y-9665736D01*
X13682796Y-9665736D02*
X13701844Y-9637165D01*
X13701844Y-9637165D02*
X13711367Y-9599070D01*
X13711367Y-9599070D02*
X13711367Y-9522879D01*
X13711367Y-9522879D02*
X13701844Y-9503831D01*
X13701844Y-9503831D02*
X13692320Y-9494308D01*
X13692320Y-9494308D02*
X13673272Y-9484784D01*
X13673272Y-9484784D02*
X13635177Y-9484784D01*
X13635177Y-9484784D02*
X13616129Y-9494308D01*
X13616129Y-9494308D02*
X13606606Y-9503831D01*
X13606606Y-9503831D02*
X13597082Y-9522879D01*
X13597082Y-9522879D02*
X13597082Y-9570498D01*
X13597082Y-9570498D02*
X13606606Y-9589546D01*
X13606606Y-9589546D02*
X13616129Y-9599070D01*
X13616129Y-9599070D02*
X13635177Y-9608593D01*
X13635177Y-9608593D02*
X13673272Y-9608593D01*
X13673272Y-9608593D02*
X13692320Y-9599070D01*
X13692320Y-9599070D02*
X13701844Y-9589546D01*
X13701844Y-9589546D02*
X13711367Y-9570498D01*
X13882796Y-9551450D02*
X13882796Y-9684784D01*
X13835177Y-9475260D02*
X13787558Y-9618117D01*
X13787558Y-9618117D02*
X13911367Y-9618117D01*
X13978034Y-9484784D02*
X13978034Y-9522879D01*
X14054225Y-9484784D02*
X14054225Y-9522879D01*
X14349463Y-9760974D02*
X14339939Y-9751450D01*
X14339939Y-9751450D02*
X14320891Y-9722879D01*
X14320891Y-9722879D02*
X14311368Y-9703831D01*
X14311368Y-9703831D02*
X14301844Y-9675260D01*
X14301844Y-9675260D02*
X14292320Y-9627641D01*
X14292320Y-9627641D02*
X14292320Y-9589546D01*
X14292320Y-9589546D02*
X14301844Y-9541927D01*
X14301844Y-9541927D02*
X14311368Y-9513355D01*
X14311368Y-9513355D02*
X14320891Y-9494308D01*
X14320891Y-9494308D02*
X14339939Y-9465736D01*
X14339939Y-9465736D02*
X14349463Y-9456212D01*
X14530415Y-9684784D02*
X14416129Y-9684784D01*
X14473272Y-9684784D02*
X14473272Y-9484784D01*
X14473272Y-9484784D02*
X14454225Y-9513355D01*
X14454225Y-9513355D02*
X14435177Y-9532403D01*
X14435177Y-9532403D02*
X14416129Y-9541927D01*
X14644701Y-9570498D02*
X14625653Y-9560974D01*
X14625653Y-9560974D02*
X14616129Y-9551450D01*
X14616129Y-9551450D02*
X14606606Y-9532403D01*
X14606606Y-9532403D02*
X14606606Y-9522879D01*
X14606606Y-9522879D02*
X14616129Y-9503831D01*
X14616129Y-9503831D02*
X14625653Y-9494308D01*
X14625653Y-9494308D02*
X14644701Y-9484784D01*
X14644701Y-9484784D02*
X14682796Y-9484784D01*
X14682796Y-9484784D02*
X14701844Y-9494308D01*
X14701844Y-9494308D02*
X14711368Y-9503831D01*
X14711368Y-9503831D02*
X14720891Y-9522879D01*
X14720891Y-9522879D02*
X14720891Y-9532403D01*
X14720891Y-9532403D02*
X14711368Y-9551450D01*
X14711368Y-9551450D02*
X14701844Y-9560974D01*
X14701844Y-9560974D02*
X14682796Y-9570498D01*
X14682796Y-9570498D02*
X14644701Y-9570498D01*
X14644701Y-9570498D02*
X14625653Y-9580022D01*
X14625653Y-9580022D02*
X14616129Y-9589546D01*
X14616129Y-9589546D02*
X14606606Y-9608593D01*
X14606606Y-9608593D02*
X14606606Y-9646689D01*
X14606606Y-9646689D02*
X14616129Y-9665736D01*
X14616129Y-9665736D02*
X14625653Y-9675260D01*
X14625653Y-9675260D02*
X14644701Y-9684784D01*
X14644701Y-9684784D02*
X14682796Y-9684784D01*
X14682796Y-9684784D02*
X14701844Y-9675260D01*
X14701844Y-9675260D02*
X14711368Y-9665736D01*
X14711368Y-9665736D02*
X14720891Y-9646689D01*
X14720891Y-9646689D02*
X14720891Y-9608593D01*
X14720891Y-9608593D02*
X14711368Y-9589546D01*
X14711368Y-9589546D02*
X14701844Y-9580022D01*
X14701844Y-9580022D02*
X14682796Y-9570498D01*
X14958987Y-9684784D02*
X14958987Y-9484784D01*
X15044701Y-9684784D02*
X15044701Y-9580022D01*
X15044701Y-9580022D02*
X15035177Y-9560974D01*
X15035177Y-9560974D02*
X15016130Y-9551450D01*
X15016130Y-9551450D02*
X14987558Y-9551450D01*
X14987558Y-9551450D02*
X14968510Y-9560974D01*
X14968510Y-9560974D02*
X14958987Y-9570498D01*
X15168510Y-9684784D02*
X15149463Y-9675260D01*
X15149463Y-9675260D02*
X15139939Y-9665736D01*
X15139939Y-9665736D02*
X15130415Y-9646689D01*
X15130415Y-9646689D02*
X15130415Y-9589546D01*
X15130415Y-9589546D02*
X15139939Y-9570498D01*
X15139939Y-9570498D02*
X15149463Y-9560974D01*
X15149463Y-9560974D02*
X15168510Y-9551450D01*
X15168510Y-9551450D02*
X15197082Y-9551450D01*
X15197082Y-9551450D02*
X15216130Y-9560974D01*
X15216130Y-9560974D02*
X15225653Y-9570498D01*
X15225653Y-9570498D02*
X15235177Y-9589546D01*
X15235177Y-9589546D02*
X15235177Y-9646689D01*
X15235177Y-9646689D02*
X15225653Y-9665736D01*
X15225653Y-9665736D02*
X15216130Y-9675260D01*
X15216130Y-9675260D02*
X15197082Y-9684784D01*
X15197082Y-9684784D02*
X15168510Y-9684784D01*
X15349463Y-9684784D02*
X15330415Y-9675260D01*
X15330415Y-9675260D02*
X15320891Y-9656212D01*
X15320891Y-9656212D02*
X15320891Y-9484784D01*
X15501844Y-9675260D02*
X15482796Y-9684784D01*
X15482796Y-9684784D02*
X15444701Y-9684784D01*
X15444701Y-9684784D02*
X15425653Y-9675260D01*
X15425653Y-9675260D02*
X15416130Y-9656212D01*
X15416130Y-9656212D02*
X15416130Y-9580022D01*
X15416130Y-9580022D02*
X15425653Y-9560974D01*
X15425653Y-9560974D02*
X15444701Y-9551450D01*
X15444701Y-9551450D02*
X15482796Y-9551450D01*
X15482796Y-9551450D02*
X15501844Y-9560974D01*
X15501844Y-9560974D02*
X15511368Y-9580022D01*
X15511368Y-9580022D02*
X15511368Y-9599070D01*
X15511368Y-9599070D02*
X15416130Y-9618117D01*
X15587558Y-9675260D02*
X15606606Y-9684784D01*
X15606606Y-9684784D02*
X15644701Y-9684784D01*
X15644701Y-9684784D02*
X15663749Y-9675260D01*
X15663749Y-9675260D02*
X15673272Y-9656212D01*
X15673272Y-9656212D02*
X15673272Y-9646689D01*
X15673272Y-9646689D02*
X15663749Y-9627641D01*
X15663749Y-9627641D02*
X15644701Y-9618117D01*
X15644701Y-9618117D02*
X15616130Y-9618117D01*
X15616130Y-9618117D02*
X15597082Y-9608593D01*
X15597082Y-9608593D02*
X15587558Y-9589546D01*
X15587558Y-9589546D02*
X15587558Y-9580022D01*
X15587558Y-9580022D02*
X15597082Y-9560974D01*
X15597082Y-9560974D02*
X15616130Y-9551450D01*
X15616130Y-9551450D02*
X15644701Y-9551450D01*
X15644701Y-9551450D02*
X15663749Y-9560974D01*
X15739939Y-9760974D02*
X15749463Y-9751450D01*
X15749463Y-9751450D02*
X15768511Y-9722879D01*
X15768511Y-9722879D02*
X15778034Y-9703831D01*
X15778034Y-9703831D02*
X15787558Y-9675260D01*
X15787558Y-9675260D02*
X15797082Y-9627641D01*
X15797082Y-9627641D02*
X15797082Y-9589546D01*
X15797082Y-9589546D02*
X15787558Y-9541927D01*
X15787558Y-9541927D02*
X15778034Y-9513355D01*
X15778034Y-9513355D02*
X15768511Y-9494308D01*
X15768511Y-9494308D02*
X15749463Y-9465736D01*
X15749463Y-9465736D02*
X15739939Y-9456212D01*
X10674400Y-9957300D02*
X10774400Y-9857300D01*
X10674400Y-9757300D01*
X10574400Y-9857300D01*
X10674400Y-9957300D01*
X11016129Y-9748784D02*
X11139939Y-9748784D01*
X11139939Y-9748784D02*
X11073272Y-9824974D01*
X11073272Y-9824974D02*
X11101844Y-9824974D01*
X11101844Y-9824974D02*
X11120891Y-9834498D01*
X11120891Y-9834498D02*
X11130415Y-9844022D01*
X11130415Y-9844022D02*
X11139939Y-9863070D01*
X11139939Y-9863070D02*
X11139939Y-9910689D01*
X11139939Y-9910689D02*
X11130415Y-9929736D01*
X11130415Y-9929736D02*
X11120891Y-9939260D01*
X11120891Y-9939260D02*
X11101844Y-9948784D01*
X11101844Y-9948784D02*
X11044701Y-9948784D01*
X11044701Y-9948784D02*
X11025653Y-9939260D01*
X11025653Y-9939260D02*
X11016129Y-9929736D01*
X11225653Y-9929736D02*
X11235177Y-9939260D01*
X11235177Y-9939260D02*
X11225653Y-9948784D01*
X11225653Y-9948784D02*
X11216129Y-9939260D01*
X11216129Y-9939260D02*
X11225653Y-9929736D01*
X11225653Y-9929736D02*
X11225653Y-9948784D01*
X11416129Y-9748784D02*
X11320891Y-9748784D01*
X11320891Y-9748784D02*
X11311367Y-9844022D01*
X11311367Y-9844022D02*
X11320891Y-9834498D01*
X11320891Y-9834498D02*
X11339939Y-9824974D01*
X11339939Y-9824974D02*
X11387558Y-9824974D01*
X11387558Y-9824974D02*
X11406605Y-9834498D01*
X11406605Y-9834498D02*
X11416129Y-9844022D01*
X11416129Y-9844022D02*
X11425653Y-9863070D01*
X11425653Y-9863070D02*
X11425653Y-9910689D01*
X11425653Y-9910689D02*
X11416129Y-9929736D01*
X11416129Y-9929736D02*
X11406605Y-9939260D01*
X11406605Y-9939260D02*
X11387558Y-9948784D01*
X11387558Y-9948784D02*
X11339939Y-9948784D01*
X11339939Y-9948784D02*
X11320891Y-9939260D01*
X11320891Y-9939260D02*
X11311367Y-9929736D01*
X11549462Y-9748784D02*
X11568510Y-9748784D01*
X11568510Y-9748784D02*
X11587558Y-9758308D01*
X11587558Y-9758308D02*
X11597082Y-9767831D01*
X11597082Y-9767831D02*
X11606605Y-9786879D01*
X11606605Y-9786879D02*
X11616129Y-9824974D01*
X11616129Y-9824974D02*
X11616129Y-9872593D01*
X11616129Y-9872593D02*
X11606605Y-9910689D01*
X11606605Y-9910689D02*
X11597082Y-9929736D01*
X11597082Y-9929736D02*
X11587558Y-9939260D01*
X11587558Y-9939260D02*
X11568510Y-9948784D01*
X11568510Y-9948784D02*
X11549462Y-9948784D01*
X11549462Y-9948784D02*
X11530415Y-9939260D01*
X11530415Y-9939260D02*
X11520891Y-9929736D01*
X11520891Y-9929736D02*
X11511367Y-9910689D01*
X11511367Y-9910689D02*
X11501843Y-9872593D01*
X11501843Y-9872593D02*
X11501843Y-9824974D01*
X11501843Y-9824974D02*
X11511367Y-9786879D01*
X11511367Y-9786879D02*
X11520891Y-9767831D01*
X11520891Y-9767831D02*
X11530415Y-9758308D01*
X11530415Y-9758308D02*
X11549462Y-9748784D01*
X11739939Y-9748784D02*
X11758986Y-9748784D01*
X11758986Y-9748784D02*
X11778034Y-9758308D01*
X11778034Y-9758308D02*
X11787558Y-9767831D01*
X11787558Y-9767831D02*
X11797082Y-9786879D01*
X11797082Y-9786879D02*
X11806605Y-9824974D01*
X11806605Y-9824974D02*
X11806605Y-9872593D01*
X11806605Y-9872593D02*
X11797082Y-9910689D01*
X11797082Y-9910689D02*
X11787558Y-9929736D01*
X11787558Y-9929736D02*
X11778034Y-9939260D01*
X11778034Y-9939260D02*
X11758986Y-9948784D01*
X11758986Y-9948784D02*
X11739939Y-9948784D01*
X11739939Y-9948784D02*
X11720891Y-9939260D01*
X11720891Y-9939260D02*
X11711367Y-9929736D01*
X11711367Y-9929736D02*
X11701843Y-9910689D01*
X11701843Y-9910689D02*
X11692320Y-9872593D01*
X11692320Y-9872593D02*
X11692320Y-9824974D01*
X11692320Y-9824974D02*
X11701843Y-9786879D01*
X11701843Y-9786879D02*
X11711367Y-9767831D01*
X11711367Y-9767831D02*
X11720891Y-9758308D01*
X11720891Y-9758308D02*
X11739939Y-9748784D01*
X11892320Y-9948784D02*
X11892320Y-9815450D01*
X11892320Y-9834498D02*
X11901843Y-9824974D01*
X11901843Y-9824974D02*
X11920891Y-9815450D01*
X11920891Y-9815450D02*
X11949463Y-9815450D01*
X11949463Y-9815450D02*
X11968510Y-9824974D01*
X11968510Y-9824974D02*
X11978034Y-9844022D01*
X11978034Y-9844022D02*
X11978034Y-9948784D01*
X11978034Y-9844022D02*
X11987558Y-9824974D01*
X11987558Y-9824974D02*
X12006605Y-9815450D01*
X12006605Y-9815450D02*
X12035177Y-9815450D01*
X12035177Y-9815450D02*
X12054224Y-9824974D01*
X12054224Y-9824974D02*
X12063748Y-9844022D01*
X12063748Y-9844022D02*
X12063748Y-9948784D01*
X12158986Y-9948784D02*
X12158986Y-9815450D01*
X12158986Y-9834498D02*
X12168510Y-9824974D01*
X12168510Y-9824974D02*
X12187558Y-9815450D01*
X12187558Y-9815450D02*
X12216129Y-9815450D01*
X12216129Y-9815450D02*
X12235177Y-9824974D01*
X12235177Y-9824974D02*
X12244701Y-9844022D01*
X12244701Y-9844022D02*
X12244701Y-9948784D01*
X12244701Y-9844022D02*
X12254224Y-9824974D01*
X12254224Y-9824974D02*
X12273272Y-9815450D01*
X12273272Y-9815450D02*
X12301843Y-9815450D01*
X12301843Y-9815450D02*
X12320891Y-9824974D01*
X12320891Y-9824974D02*
X12330415Y-9844022D01*
X12330415Y-9844022D02*
X12330415Y-9948784D01*
X12720891Y-9739260D02*
X12549463Y-9996403D01*
X12978034Y-9748784D02*
X12997082Y-9748784D01*
X12997082Y-9748784D02*
X13016129Y-9758308D01*
X13016129Y-9758308D02*
X13025653Y-9767831D01*
X13025653Y-9767831D02*
X13035177Y-9786879D01*
X13035177Y-9786879D02*
X13044701Y-9824974D01*
X13044701Y-9824974D02*
X13044701Y-9872593D01*
X13044701Y-9872593D02*
X13035177Y-9910689D01*
X13035177Y-9910689D02*
X13025653Y-9929736D01*
X13025653Y-9929736D02*
X13016129Y-9939260D01*
X13016129Y-9939260D02*
X12997082Y-9948784D01*
X12997082Y-9948784D02*
X12978034Y-9948784D01*
X12978034Y-9948784D02*
X12958986Y-9939260D01*
X12958986Y-9939260D02*
X12949463Y-9929736D01*
X12949463Y-9929736D02*
X12939939Y-9910689D01*
X12939939Y-9910689D02*
X12930415Y-9872593D01*
X12930415Y-9872593D02*
X12930415Y-9824974D01*
X12930415Y-9824974D02*
X12939939Y-9786879D01*
X12939939Y-9786879D02*
X12949463Y-9767831D01*
X12949463Y-9767831D02*
X12958986Y-9758308D01*
X12958986Y-9758308D02*
X12978034Y-9748784D01*
X13130415Y-9929736D02*
X13139939Y-9939260D01*
X13139939Y-9939260D02*
X13130415Y-9948784D01*
X13130415Y-9948784D02*
X13120891Y-9939260D01*
X13120891Y-9939260D02*
X13130415Y-9929736D01*
X13130415Y-9929736D02*
X13130415Y-9948784D01*
X13330415Y-9948784D02*
X13216129Y-9948784D01*
X13273272Y-9948784D02*
X13273272Y-9748784D01*
X13273272Y-9748784D02*
X13254225Y-9777355D01*
X13254225Y-9777355D02*
X13235177Y-9796403D01*
X13235177Y-9796403D02*
X13216129Y-9805927D01*
X13397082Y-9748784D02*
X13520891Y-9748784D01*
X13520891Y-9748784D02*
X13454225Y-9824974D01*
X13454225Y-9824974D02*
X13482796Y-9824974D01*
X13482796Y-9824974D02*
X13501844Y-9834498D01*
X13501844Y-9834498D02*
X13511367Y-9844022D01*
X13511367Y-9844022D02*
X13520891Y-9863070D01*
X13520891Y-9863070D02*
X13520891Y-9910689D01*
X13520891Y-9910689D02*
X13511367Y-9929736D01*
X13511367Y-9929736D02*
X13501844Y-9939260D01*
X13501844Y-9939260D02*
X13482796Y-9948784D01*
X13482796Y-9948784D02*
X13425653Y-9948784D01*
X13425653Y-9948784D02*
X13406606Y-9939260D01*
X13406606Y-9939260D02*
X13397082Y-9929736D01*
X13587558Y-9748784D02*
X13720891Y-9748784D01*
X13720891Y-9748784D02*
X13635177Y-9948784D01*
X13825653Y-9834498D02*
X13806606Y-9824974D01*
X13806606Y-9824974D02*
X13797082Y-9815450D01*
X13797082Y-9815450D02*
X13787558Y-9796403D01*
X13787558Y-9796403D02*
X13787558Y-9786879D01*
X13787558Y-9786879D02*
X13797082Y-9767831D01*
X13797082Y-9767831D02*
X13806606Y-9758308D01*
X13806606Y-9758308D02*
X13825653Y-9748784D01*
X13825653Y-9748784D02*
X13863748Y-9748784D01*
X13863748Y-9748784D02*
X13882796Y-9758308D01*
X13882796Y-9758308D02*
X13892320Y-9767831D01*
X13892320Y-9767831D02*
X13901844Y-9786879D01*
X13901844Y-9786879D02*
X13901844Y-9796403D01*
X13901844Y-9796403D02*
X13892320Y-9815450D01*
X13892320Y-9815450D02*
X13882796Y-9824974D01*
X13882796Y-9824974D02*
X13863748Y-9834498D01*
X13863748Y-9834498D02*
X13825653Y-9834498D01*
X13825653Y-9834498D02*
X13806606Y-9844022D01*
X13806606Y-9844022D02*
X13797082Y-9853546D01*
X13797082Y-9853546D02*
X13787558Y-9872593D01*
X13787558Y-9872593D02*
X13787558Y-9910689D01*
X13787558Y-9910689D02*
X13797082Y-9929736D01*
X13797082Y-9929736D02*
X13806606Y-9939260D01*
X13806606Y-9939260D02*
X13825653Y-9948784D01*
X13825653Y-9948784D02*
X13863748Y-9948784D01*
X13863748Y-9948784D02*
X13882796Y-9939260D01*
X13882796Y-9939260D02*
X13892320Y-9929736D01*
X13892320Y-9929736D02*
X13901844Y-9910689D01*
X13901844Y-9910689D02*
X13901844Y-9872593D01*
X13901844Y-9872593D02*
X13892320Y-9853546D01*
X13892320Y-9853546D02*
X13882796Y-9844022D01*
X13882796Y-9844022D02*
X13863748Y-9834498D01*
X13978034Y-9748784D02*
X13978034Y-9786879D01*
X14054225Y-9748784D02*
X14054225Y-9786879D01*
X14349463Y-10024974D02*
X14339939Y-10015450D01*
X14339939Y-10015450D02*
X14320891Y-9986879D01*
X14320891Y-9986879D02*
X14311368Y-9967831D01*
X14311368Y-9967831D02*
X14301844Y-9939260D01*
X14301844Y-9939260D02*
X14292320Y-9891641D01*
X14292320Y-9891641D02*
X14292320Y-9853546D01*
X14292320Y-9853546D02*
X14301844Y-9805927D01*
X14301844Y-9805927D02*
X14311368Y-9777355D01*
X14311368Y-9777355D02*
X14320891Y-9758308D01*
X14320891Y-9758308D02*
X14339939Y-9729736D01*
X14339939Y-9729736D02*
X14349463Y-9720212D01*
X14416129Y-9767831D02*
X14425653Y-9758308D01*
X14425653Y-9758308D02*
X14444701Y-9748784D01*
X14444701Y-9748784D02*
X14492320Y-9748784D01*
X14492320Y-9748784D02*
X14511368Y-9758308D01*
X14511368Y-9758308D02*
X14520891Y-9767831D01*
X14520891Y-9767831D02*
X14530415Y-9786879D01*
X14530415Y-9786879D02*
X14530415Y-9805927D01*
X14530415Y-9805927D02*
X14520891Y-9834498D01*
X14520891Y-9834498D02*
X14406606Y-9948784D01*
X14406606Y-9948784D02*
X14530415Y-9948784D01*
X14768510Y-9948784D02*
X14768510Y-9748784D01*
X14854225Y-9948784D02*
X14854225Y-9844022D01*
X14854225Y-9844022D02*
X14844701Y-9824974D01*
X14844701Y-9824974D02*
X14825653Y-9815450D01*
X14825653Y-9815450D02*
X14797082Y-9815450D01*
X14797082Y-9815450D02*
X14778034Y-9824974D01*
X14778034Y-9824974D02*
X14768510Y-9834498D01*
X14978034Y-9948784D02*
X14958987Y-9939260D01*
X14958987Y-9939260D02*
X14949463Y-9929736D01*
X14949463Y-9929736D02*
X14939939Y-9910689D01*
X14939939Y-9910689D02*
X14939939Y-9853546D01*
X14939939Y-9853546D02*
X14949463Y-9834498D01*
X14949463Y-9834498D02*
X14958987Y-9824974D01*
X14958987Y-9824974D02*
X14978034Y-9815450D01*
X14978034Y-9815450D02*
X15006606Y-9815450D01*
X15006606Y-9815450D02*
X15025653Y-9824974D01*
X15025653Y-9824974D02*
X15035177Y-9834498D01*
X15035177Y-9834498D02*
X15044701Y-9853546D01*
X15044701Y-9853546D02*
X15044701Y-9910689D01*
X15044701Y-9910689D02*
X15035177Y-9929736D01*
X15035177Y-9929736D02*
X15025653Y-9939260D01*
X15025653Y-9939260D02*
X15006606Y-9948784D01*
X15006606Y-9948784D02*
X14978034Y-9948784D01*
X15158987Y-9948784D02*
X15139939Y-9939260D01*
X15139939Y-9939260D02*
X15130415Y-9920212D01*
X15130415Y-9920212D02*
X15130415Y-9748784D01*
X15311368Y-9939260D02*
X15292320Y-9948784D01*
X15292320Y-9948784D02*
X15254225Y-9948784D01*
X15254225Y-9948784D02*
X15235177Y-9939260D01*
X15235177Y-9939260D02*
X15225653Y-9920212D01*
X15225653Y-9920212D02*
X15225653Y-9844022D01*
X15225653Y-9844022D02*
X15235177Y-9824974D01*
X15235177Y-9824974D02*
X15254225Y-9815450D01*
X15254225Y-9815450D02*
X15292320Y-9815450D01*
X15292320Y-9815450D02*
X15311368Y-9824974D01*
X15311368Y-9824974D02*
X15320891Y-9844022D01*
X15320891Y-9844022D02*
X15320891Y-9863070D01*
X15320891Y-9863070D02*
X15225653Y-9882117D01*
X15397082Y-9939260D02*
X15416130Y-9948784D01*
X15416130Y-9948784D02*
X15454225Y-9948784D01*
X15454225Y-9948784D02*
X15473272Y-9939260D01*
X15473272Y-9939260D02*
X15482796Y-9920212D01*
X15482796Y-9920212D02*
X15482796Y-9910689D01*
X15482796Y-9910689D02*
X15473272Y-9891641D01*
X15473272Y-9891641D02*
X15454225Y-9882117D01*
X15454225Y-9882117D02*
X15425653Y-9882117D01*
X15425653Y-9882117D02*
X15406606Y-9872593D01*
X15406606Y-9872593D02*
X15397082Y-9853546D01*
X15397082Y-9853546D02*
X15397082Y-9844022D01*
X15397082Y-9844022D02*
X15406606Y-9824974D01*
X15406606Y-9824974D02*
X15425653Y-9815450D01*
X15425653Y-9815450D02*
X15454225Y-9815450D01*
X15454225Y-9815450D02*
X15473272Y-9824974D01*
X15549463Y-10024974D02*
X15558987Y-10015450D01*
X15558987Y-10015450D02*
X15578034Y-9986879D01*
X15578034Y-9986879D02*
X15587558Y-9967831D01*
X15587558Y-9967831D02*
X15597082Y-9939260D01*
X15597082Y-9939260D02*
X15606606Y-9891641D01*
X15606606Y-9891641D02*
X15606606Y-9853546D01*
X15606606Y-9853546D02*
X15597082Y-9805927D01*
X15597082Y-9805927D02*
X15587558Y-9777355D01*
X15587558Y-9777355D02*
X15578034Y-9758308D01*
X15578034Y-9758308D02*
X15558987Y-9729736D01*
X15558987Y-9729736D02*
X15549463Y-9720212D01*
M02*
