G04 #@! TF.GenerationSoftware,KiCad,Pcbnew,8.0.7*
G04 #@! TF.CreationDate,2025-01-12T19:07:08+01:00*
G04 #@! TF.ProjectId,BT_Lane_FAB,42545f4c-616e-4655-9f46-41422e6b6963,rev?*
G04 #@! TF.SameCoordinates,Original*
G04 #@! TF.FileFunction,Legend,Top*
G04 #@! TF.FilePolarity,Positive*
%FSLAX46Y46*%
G04 Gerber Fmt 4.6, Leading zero omitted, Abs format (unit mm)*
G04 Created by KiCad (PCBNEW 8.0.7) date 2025-01-12 19:07:08*
%MOMM*%
%LPD*%
G01*
G04 APERTURE LIST*
G04 Aperture macros list*
%AMRoundRect*
0 Rectangle with rounded corners*
0 $1 Rounding radius*
0 $2 $3 $4 $5 $6 $7 $8 $9 X,Y pos of 4 corners*
0 Add a 4 corners polygon primitive as box body*
4,1,4,$2,$3,$4,$5,$6,$7,$8,$9,$2,$3,0*
0 Add four circle primitives for the rounded corners*
1,1,$1+$1,$2,$3*
1,1,$1+$1,$4,$5*
1,1,$1+$1,$6,$7*
1,1,$1+$1,$8,$9*
0 Add four rect primitives between the rounded corners*
20,1,$1+$1,$2,$3,$4,$5,0*
20,1,$1+$1,$4,$5,$6,$7,0*
20,1,$1+$1,$6,$7,$8,$9,0*
20,1,$1+$1,$8,$9,$2,$3,0*%
G04 Aperture macros list end*
%ADD10C,0.100000*%
%ADD11C,0.150000*%
%ADD12C,0.120000*%
%ADD13C,0.050000*%
%ADD14C,1.400000*%
%ADD15O,1.400000X1.400000*%
%ADD16RoundRect,0.250000X0.600000X0.725000X-0.600000X0.725000X-0.600000X-0.725000X0.600000X-0.725000X0*%
%ADD17O,1.700000X1.950000*%
%ADD18C,0.800000*%
%ADD19C,7.000000*%
%ADD20R,1.700000X1.700000*%
%ADD21O,1.700000X1.700000*%
%ADD22RoundRect,0.250000X0.600000X0.750000X-0.600000X0.750000X-0.600000X-0.750000X0.600000X-0.750000X0*%
%ADD23O,1.700000X2.000000*%
%ADD24RoundRect,0.250000X-0.600000X-0.750000X0.600000X-0.750000X0.600000X0.750000X-0.600000X0.750000X0*%
G04 APERTURE END LIST*
D10*
X154980475Y-79684380D02*
X153980475Y-79684380D01*
X153980475Y-79684380D02*
X153980475Y-79303428D01*
X153980475Y-79303428D02*
X154028094Y-79208190D01*
X154028094Y-79208190D02*
X154075713Y-79160571D01*
X154075713Y-79160571D02*
X154170951Y-79112952D01*
X154170951Y-79112952D02*
X154313808Y-79112952D01*
X154313808Y-79112952D02*
X154409046Y-79160571D01*
X154409046Y-79160571D02*
X154456665Y-79208190D01*
X154456665Y-79208190D02*
X154504284Y-79303428D01*
X154504284Y-79303428D02*
X154504284Y-79684380D01*
X154980475Y-78684380D02*
X154313808Y-78684380D01*
X154504284Y-78684380D02*
X154409046Y-78636761D01*
X154409046Y-78636761D02*
X154361427Y-78589142D01*
X154361427Y-78589142D02*
X154313808Y-78493904D01*
X154313808Y-78493904D02*
X154313808Y-78398666D01*
X154932856Y-77684380D02*
X154980475Y-77779618D01*
X154980475Y-77779618D02*
X154980475Y-77970094D01*
X154980475Y-77970094D02*
X154932856Y-78065332D01*
X154932856Y-78065332D02*
X154837617Y-78112951D01*
X154837617Y-78112951D02*
X154456665Y-78112951D01*
X154456665Y-78112951D02*
X154361427Y-78065332D01*
X154361427Y-78065332D02*
X154313808Y-77970094D01*
X154313808Y-77970094D02*
X154313808Y-77779618D01*
X154313808Y-77779618D02*
X154361427Y-77684380D01*
X154361427Y-77684380D02*
X154456665Y-77636761D01*
X154456665Y-77636761D02*
X154551903Y-77636761D01*
X154551903Y-77636761D02*
X154647141Y-78112951D01*
X154313808Y-77208189D02*
X155313808Y-77208189D01*
X154361427Y-77208189D02*
X154313808Y-77112951D01*
X154313808Y-77112951D02*
X154313808Y-76922475D01*
X154313808Y-76922475D02*
X154361427Y-76827237D01*
X154361427Y-76827237D02*
X154409046Y-76779618D01*
X154409046Y-76779618D02*
X154504284Y-76731999D01*
X154504284Y-76731999D02*
X154789998Y-76731999D01*
X154789998Y-76731999D02*
X154885236Y-76779618D01*
X154885236Y-76779618D02*
X154932856Y-76827237D01*
X154932856Y-76827237D02*
X154980475Y-76922475D01*
X154980475Y-76922475D02*
X154980475Y-77112951D01*
X154980475Y-77112951D02*
X154932856Y-77208189D01*
X156590419Y-79470095D02*
X156590419Y-79946285D01*
X156590419Y-79946285D02*
X155590419Y-79946285D01*
X156542800Y-78755809D02*
X156590419Y-78851047D01*
X156590419Y-78851047D02*
X156590419Y-79041523D01*
X156590419Y-79041523D02*
X156542800Y-79136761D01*
X156542800Y-79136761D02*
X156447561Y-79184380D01*
X156447561Y-79184380D02*
X156066609Y-79184380D01*
X156066609Y-79184380D02*
X155971371Y-79136761D01*
X155971371Y-79136761D02*
X155923752Y-79041523D01*
X155923752Y-79041523D02*
X155923752Y-78851047D01*
X155923752Y-78851047D02*
X155971371Y-78755809D01*
X155971371Y-78755809D02*
X156066609Y-78708190D01*
X156066609Y-78708190D02*
X156161847Y-78708190D01*
X156161847Y-78708190D02*
X156257085Y-79184380D01*
X155923752Y-78374856D02*
X156590419Y-78136761D01*
X156590419Y-78136761D02*
X155923752Y-77898666D01*
X156542800Y-77136761D02*
X156590419Y-77231999D01*
X156590419Y-77231999D02*
X156590419Y-77422475D01*
X156590419Y-77422475D02*
X156542800Y-77517713D01*
X156542800Y-77517713D02*
X156447561Y-77565332D01*
X156447561Y-77565332D02*
X156066609Y-77565332D01*
X156066609Y-77565332D02*
X155971371Y-77517713D01*
X155971371Y-77517713D02*
X155923752Y-77422475D01*
X155923752Y-77422475D02*
X155923752Y-77231999D01*
X155923752Y-77231999D02*
X155971371Y-77136761D01*
X155971371Y-77136761D02*
X156066609Y-77089142D01*
X156066609Y-77089142D02*
X156161847Y-77089142D01*
X156161847Y-77089142D02*
X156257085Y-77565332D01*
X156590419Y-76660570D02*
X155923752Y-76660570D01*
X156114228Y-76660570D02*
X156018990Y-76612951D01*
X156018990Y-76612951D02*
X155971371Y-76565332D01*
X155971371Y-76565332D02*
X155923752Y-76470094D01*
X155923752Y-76470094D02*
X155923752Y-76374856D01*
X119912095Y-68858665D02*
X120245428Y-68858665D01*
X120388285Y-69382475D02*
X119912095Y-69382475D01*
X119912095Y-69382475D02*
X119912095Y-68382475D01*
X119912095Y-68382475D02*
X120388285Y-68382475D01*
X120816857Y-68715808D02*
X120816857Y-69382475D01*
X120816857Y-68811046D02*
X120864476Y-68763427D01*
X120864476Y-68763427D02*
X120959714Y-68715808D01*
X120959714Y-68715808D02*
X121102571Y-68715808D01*
X121102571Y-68715808D02*
X121197809Y-68763427D01*
X121197809Y-68763427D02*
X121245428Y-68858665D01*
X121245428Y-68858665D02*
X121245428Y-69382475D01*
X122150190Y-69382475D02*
X122150190Y-68858665D01*
X122150190Y-68858665D02*
X122102571Y-68763427D01*
X122102571Y-68763427D02*
X122007333Y-68715808D01*
X122007333Y-68715808D02*
X121816857Y-68715808D01*
X121816857Y-68715808D02*
X121721619Y-68763427D01*
X122150190Y-69334856D02*
X122054952Y-69382475D01*
X122054952Y-69382475D02*
X121816857Y-69382475D01*
X121816857Y-69382475D02*
X121721619Y-69334856D01*
X121721619Y-69334856D02*
X121674000Y-69239617D01*
X121674000Y-69239617D02*
X121674000Y-69144379D01*
X121674000Y-69144379D02*
X121721619Y-69049141D01*
X121721619Y-69049141D02*
X121816857Y-69001522D01*
X121816857Y-69001522D02*
X122054952Y-69001522D01*
X122054952Y-69001522D02*
X122150190Y-68953903D01*
X122626381Y-69382475D02*
X122626381Y-68382475D01*
X122626381Y-68763427D02*
X122721619Y-68715808D01*
X122721619Y-68715808D02*
X122912095Y-68715808D01*
X122912095Y-68715808D02*
X123007333Y-68763427D01*
X123007333Y-68763427D02*
X123054952Y-68811046D01*
X123054952Y-68811046D02*
X123102571Y-68906284D01*
X123102571Y-68906284D02*
X123102571Y-69191998D01*
X123102571Y-69191998D02*
X123054952Y-69287236D01*
X123054952Y-69287236D02*
X123007333Y-69334856D01*
X123007333Y-69334856D02*
X122912095Y-69382475D01*
X122912095Y-69382475D02*
X122721619Y-69382475D01*
X122721619Y-69382475D02*
X122626381Y-69334856D01*
X123674000Y-69382475D02*
X123578762Y-69334856D01*
X123578762Y-69334856D02*
X123531143Y-69239617D01*
X123531143Y-69239617D02*
X123531143Y-68382475D01*
X124435905Y-69334856D02*
X124340667Y-69382475D01*
X124340667Y-69382475D02*
X124150191Y-69382475D01*
X124150191Y-69382475D02*
X124054953Y-69334856D01*
X124054953Y-69334856D02*
X124007334Y-69239617D01*
X124007334Y-69239617D02*
X124007334Y-68858665D01*
X124007334Y-68858665D02*
X124054953Y-68763427D01*
X124054953Y-68763427D02*
X124150191Y-68715808D01*
X124150191Y-68715808D02*
X124340667Y-68715808D01*
X124340667Y-68715808D02*
X124435905Y-68763427D01*
X124435905Y-68763427D02*
X124483524Y-68858665D01*
X124483524Y-68858665D02*
X124483524Y-68953903D01*
X124483524Y-68953903D02*
X124007334Y-69049141D01*
X121483523Y-70325752D02*
X121483523Y-70992419D01*
X121245428Y-69944800D02*
X121007333Y-70659085D01*
X121007333Y-70659085D02*
X121626380Y-70659085D01*
X121912095Y-69992419D02*
X122578761Y-69992419D01*
X122578761Y-69992419D02*
X122150190Y-70992419D01*
X122959714Y-70992419D02*
X122959714Y-69992419D01*
X123054952Y-70611466D02*
X123340666Y-70992419D01*
X123340666Y-70325752D02*
X122959714Y-70706704D01*
X124738665Y-79890666D02*
X124738665Y-79557333D01*
X125262475Y-79414476D02*
X125262475Y-79890666D01*
X125262475Y-79890666D02*
X124262475Y-79890666D01*
X124262475Y-79890666D02*
X124262475Y-79414476D01*
X124738665Y-78652571D02*
X124786284Y-78509714D01*
X124786284Y-78509714D02*
X124833903Y-78462095D01*
X124833903Y-78462095D02*
X124929141Y-78414476D01*
X124929141Y-78414476D02*
X125071998Y-78414476D01*
X125071998Y-78414476D02*
X125167236Y-78462095D01*
X125167236Y-78462095D02*
X125214856Y-78509714D01*
X125214856Y-78509714D02*
X125262475Y-78604952D01*
X125262475Y-78604952D02*
X125262475Y-78985904D01*
X125262475Y-78985904D02*
X124262475Y-78985904D01*
X124262475Y-78985904D02*
X124262475Y-78652571D01*
X124262475Y-78652571D02*
X124310094Y-78557333D01*
X124310094Y-78557333D02*
X124357713Y-78509714D01*
X124357713Y-78509714D02*
X124452951Y-78462095D01*
X124452951Y-78462095D02*
X124548189Y-78462095D01*
X124548189Y-78462095D02*
X124643427Y-78509714D01*
X124643427Y-78509714D02*
X124691046Y-78557333D01*
X124691046Y-78557333D02*
X124738665Y-78652571D01*
X124738665Y-78652571D02*
X124738665Y-78985904D01*
X124738665Y-77652571D02*
X124786284Y-77509714D01*
X124786284Y-77509714D02*
X124833903Y-77462095D01*
X124833903Y-77462095D02*
X124929141Y-77414476D01*
X124929141Y-77414476D02*
X125071998Y-77414476D01*
X125071998Y-77414476D02*
X125167236Y-77462095D01*
X125167236Y-77462095D02*
X125214856Y-77509714D01*
X125214856Y-77509714D02*
X125262475Y-77604952D01*
X125262475Y-77604952D02*
X125262475Y-77985904D01*
X125262475Y-77985904D02*
X124262475Y-77985904D01*
X124262475Y-77985904D02*
X124262475Y-77652571D01*
X124262475Y-77652571D02*
X124310094Y-77557333D01*
X124310094Y-77557333D02*
X124357713Y-77509714D01*
X124357713Y-77509714D02*
X124452951Y-77462095D01*
X124452951Y-77462095D02*
X124548189Y-77462095D01*
X124548189Y-77462095D02*
X124643427Y-77509714D01*
X124643427Y-77509714D02*
X124691046Y-77557333D01*
X124691046Y-77557333D02*
X124738665Y-77652571D01*
X124738665Y-77652571D02*
X124738665Y-77985904D01*
X124262475Y-77081142D02*
X124262475Y-76462095D01*
X124262475Y-76462095D02*
X124643427Y-76795428D01*
X124643427Y-76795428D02*
X124643427Y-76652571D01*
X124643427Y-76652571D02*
X124691046Y-76557333D01*
X124691046Y-76557333D02*
X124738665Y-76509714D01*
X124738665Y-76509714D02*
X124833903Y-76462095D01*
X124833903Y-76462095D02*
X125071998Y-76462095D01*
X125071998Y-76462095D02*
X125167236Y-76509714D01*
X125167236Y-76509714D02*
X125214856Y-76557333D01*
X125214856Y-76557333D02*
X125262475Y-76652571D01*
X125262475Y-76652571D02*
X125262475Y-76938285D01*
X125262475Y-76938285D02*
X125214856Y-77033523D01*
X125214856Y-77033523D02*
X125167236Y-77081142D01*
X124262475Y-75604952D02*
X124262475Y-75795428D01*
X124262475Y-75795428D02*
X124310094Y-75890666D01*
X124310094Y-75890666D02*
X124357713Y-75938285D01*
X124357713Y-75938285D02*
X124500570Y-76033523D01*
X124500570Y-76033523D02*
X124691046Y-76081142D01*
X124691046Y-76081142D02*
X125071998Y-76081142D01*
X125071998Y-76081142D02*
X125167236Y-76033523D01*
X125167236Y-76033523D02*
X125214856Y-75985904D01*
X125214856Y-75985904D02*
X125262475Y-75890666D01*
X125262475Y-75890666D02*
X125262475Y-75700190D01*
X125262475Y-75700190D02*
X125214856Y-75604952D01*
X125214856Y-75604952D02*
X125167236Y-75557333D01*
X125167236Y-75557333D02*
X125071998Y-75509714D01*
X125071998Y-75509714D02*
X124833903Y-75509714D01*
X124833903Y-75509714D02*
X124738665Y-75557333D01*
X124738665Y-75557333D02*
X124691046Y-75604952D01*
X124691046Y-75604952D02*
X124643427Y-75700190D01*
X124643427Y-75700190D02*
X124643427Y-75890666D01*
X124643427Y-75890666D02*
X124691046Y-75985904D01*
X124691046Y-75985904D02*
X124738665Y-76033523D01*
X124738665Y-76033523D02*
X124833903Y-76081142D01*
X126348609Y-80628761D02*
X126348609Y-80295428D01*
X126872419Y-80152571D02*
X126872419Y-80628761D01*
X126872419Y-80628761D02*
X125872419Y-80628761D01*
X125872419Y-80628761D02*
X125872419Y-80152571D01*
X126491466Y-79723999D02*
X126491466Y-78962095D01*
X126824800Y-78533523D02*
X126872419Y-78390666D01*
X126872419Y-78390666D02*
X126872419Y-78152571D01*
X126872419Y-78152571D02*
X126824800Y-78057333D01*
X126824800Y-78057333D02*
X126777180Y-78009714D01*
X126777180Y-78009714D02*
X126681942Y-77962095D01*
X126681942Y-77962095D02*
X126586704Y-77962095D01*
X126586704Y-77962095D02*
X126491466Y-78009714D01*
X126491466Y-78009714D02*
X126443847Y-78057333D01*
X126443847Y-78057333D02*
X126396228Y-78152571D01*
X126396228Y-78152571D02*
X126348609Y-78343047D01*
X126348609Y-78343047D02*
X126300990Y-78438285D01*
X126300990Y-78438285D02*
X126253371Y-78485904D01*
X126253371Y-78485904D02*
X126158133Y-78533523D01*
X126158133Y-78533523D02*
X126062895Y-78533523D01*
X126062895Y-78533523D02*
X125967657Y-78485904D01*
X125967657Y-78485904D02*
X125920038Y-78438285D01*
X125920038Y-78438285D02*
X125872419Y-78343047D01*
X125872419Y-78343047D02*
X125872419Y-78104952D01*
X125872419Y-78104952D02*
X125920038Y-77962095D01*
X126205752Y-77676380D02*
X126205752Y-77295428D01*
X125872419Y-77533523D02*
X126729561Y-77533523D01*
X126729561Y-77533523D02*
X126824800Y-77485904D01*
X126824800Y-77485904D02*
X126872419Y-77390666D01*
X126872419Y-77390666D02*
X126872419Y-77295428D01*
X126872419Y-76819237D02*
X126824800Y-76914475D01*
X126824800Y-76914475D02*
X126777180Y-76962094D01*
X126777180Y-76962094D02*
X126681942Y-77009713D01*
X126681942Y-77009713D02*
X126396228Y-77009713D01*
X126396228Y-77009713D02*
X126300990Y-76962094D01*
X126300990Y-76962094D02*
X126253371Y-76914475D01*
X126253371Y-76914475D02*
X126205752Y-76819237D01*
X126205752Y-76819237D02*
X126205752Y-76676380D01*
X126205752Y-76676380D02*
X126253371Y-76581142D01*
X126253371Y-76581142D02*
X126300990Y-76533523D01*
X126300990Y-76533523D02*
X126396228Y-76485904D01*
X126396228Y-76485904D02*
X126681942Y-76485904D01*
X126681942Y-76485904D02*
X126777180Y-76533523D01*
X126777180Y-76533523D02*
X126824800Y-76581142D01*
X126824800Y-76581142D02*
X126872419Y-76676380D01*
X126872419Y-76676380D02*
X126872419Y-76819237D01*
X126205752Y-76057332D02*
X127205752Y-76057332D01*
X126253371Y-76057332D02*
X126205752Y-75962094D01*
X126205752Y-75962094D02*
X126205752Y-75771618D01*
X126205752Y-75771618D02*
X126253371Y-75676380D01*
X126253371Y-75676380D02*
X126300990Y-75628761D01*
X126300990Y-75628761D02*
X126396228Y-75581142D01*
X126396228Y-75581142D02*
X126681942Y-75581142D01*
X126681942Y-75581142D02*
X126777180Y-75628761D01*
X126777180Y-75628761D02*
X126824800Y-75676380D01*
X126824800Y-75676380D02*
X126872419Y-75771618D01*
X126872419Y-75771618D02*
X126872419Y-75962094D01*
X126872419Y-75962094D02*
X126824800Y-76057332D01*
X126824800Y-75200189D02*
X126872419Y-75104951D01*
X126872419Y-75104951D02*
X126872419Y-74914475D01*
X126872419Y-74914475D02*
X126824800Y-74819237D01*
X126824800Y-74819237D02*
X126729561Y-74771618D01*
X126729561Y-74771618D02*
X126681942Y-74771618D01*
X126681942Y-74771618D02*
X126586704Y-74819237D01*
X126586704Y-74819237D02*
X126539085Y-74914475D01*
X126539085Y-74914475D02*
X126539085Y-75057332D01*
X126539085Y-75057332D02*
X126491466Y-75152570D01*
X126491466Y-75152570D02*
X126396228Y-75200189D01*
X126396228Y-75200189D02*
X126348609Y-75200189D01*
X126348609Y-75200189D02*
X126253371Y-75152570D01*
X126253371Y-75152570D02*
X126205752Y-75057332D01*
X126205752Y-75057332D02*
X126205752Y-74914475D01*
X126205752Y-74914475D02*
X126253371Y-74819237D01*
X139994475Y-79025619D02*
X139994475Y-79501809D01*
X139994475Y-79501809D02*
X138994475Y-79501809D01*
X139994475Y-78549428D02*
X139946856Y-78644666D01*
X139946856Y-78644666D02*
X139899236Y-78692285D01*
X139899236Y-78692285D02*
X139803998Y-78739904D01*
X139803998Y-78739904D02*
X139518284Y-78739904D01*
X139518284Y-78739904D02*
X139423046Y-78692285D01*
X139423046Y-78692285D02*
X139375427Y-78644666D01*
X139375427Y-78644666D02*
X139327808Y-78549428D01*
X139327808Y-78549428D02*
X139327808Y-78406571D01*
X139327808Y-78406571D02*
X139375427Y-78311333D01*
X139375427Y-78311333D02*
X139423046Y-78263714D01*
X139423046Y-78263714D02*
X139518284Y-78216095D01*
X139518284Y-78216095D02*
X139803998Y-78216095D01*
X139803998Y-78216095D02*
X139899236Y-78263714D01*
X139899236Y-78263714D02*
X139946856Y-78311333D01*
X139946856Y-78311333D02*
X139994475Y-78406571D01*
X139994475Y-78406571D02*
X139994475Y-78549428D01*
X139994475Y-77358952D02*
X139470665Y-77358952D01*
X139470665Y-77358952D02*
X139375427Y-77406571D01*
X139375427Y-77406571D02*
X139327808Y-77501809D01*
X139327808Y-77501809D02*
X139327808Y-77692285D01*
X139327808Y-77692285D02*
X139375427Y-77787523D01*
X139946856Y-77358952D02*
X139994475Y-77454190D01*
X139994475Y-77454190D02*
X139994475Y-77692285D01*
X139994475Y-77692285D02*
X139946856Y-77787523D01*
X139946856Y-77787523D02*
X139851617Y-77835142D01*
X139851617Y-77835142D02*
X139756379Y-77835142D01*
X139756379Y-77835142D02*
X139661141Y-77787523D01*
X139661141Y-77787523D02*
X139613522Y-77692285D01*
X139613522Y-77692285D02*
X139613522Y-77454190D01*
X139613522Y-77454190D02*
X139565903Y-77358952D01*
X139994475Y-76454190D02*
X138994475Y-76454190D01*
X139946856Y-76454190D02*
X139994475Y-76549428D01*
X139994475Y-76549428D02*
X139994475Y-76739904D01*
X139994475Y-76739904D02*
X139946856Y-76835142D01*
X139946856Y-76835142D02*
X139899236Y-76882761D01*
X139899236Y-76882761D02*
X139803998Y-76930380D01*
X139803998Y-76930380D02*
X139518284Y-76930380D01*
X139518284Y-76930380D02*
X139423046Y-76882761D01*
X139423046Y-76882761D02*
X139375427Y-76835142D01*
X139375427Y-76835142D02*
X139327808Y-76739904D01*
X139327808Y-76739904D02*
X139327808Y-76549428D01*
X139327808Y-76549428D02*
X139375427Y-76454190D01*
X141080609Y-80835143D02*
X141080609Y-80501810D01*
X141604419Y-80358953D02*
X141604419Y-80835143D01*
X141604419Y-80835143D02*
X140604419Y-80835143D01*
X140604419Y-80835143D02*
X140604419Y-80358953D01*
X141604419Y-80025619D02*
X140937752Y-79501810D01*
X140937752Y-80025619D02*
X141604419Y-79501810D01*
X140937752Y-79263714D02*
X140937752Y-78882762D01*
X140604419Y-79120857D02*
X141461561Y-79120857D01*
X141461561Y-79120857D02*
X141556800Y-79073238D01*
X141556800Y-79073238D02*
X141604419Y-78978000D01*
X141604419Y-78978000D02*
X141604419Y-78882762D01*
X141604419Y-78549428D02*
X140937752Y-78549428D01*
X141128228Y-78549428D02*
X141032990Y-78501809D01*
X141032990Y-78501809D02*
X140985371Y-78454190D01*
X140985371Y-78454190D02*
X140937752Y-78358952D01*
X140937752Y-78358952D02*
X140937752Y-78263714D01*
X140937752Y-77501809D02*
X141604419Y-77501809D01*
X140937752Y-77930380D02*
X141461561Y-77930380D01*
X141461561Y-77930380D02*
X141556800Y-77882761D01*
X141556800Y-77882761D02*
X141604419Y-77787523D01*
X141604419Y-77787523D02*
X141604419Y-77644666D01*
X141604419Y-77644666D02*
X141556800Y-77549428D01*
X141556800Y-77549428D02*
X141509180Y-77501809D01*
X141604419Y-76597047D02*
X140604419Y-76597047D01*
X141556800Y-76597047D02*
X141604419Y-76692285D01*
X141604419Y-76692285D02*
X141604419Y-76882761D01*
X141604419Y-76882761D02*
X141556800Y-76977999D01*
X141556800Y-76977999D02*
X141509180Y-77025618D01*
X141509180Y-77025618D02*
X141413942Y-77073237D01*
X141413942Y-77073237D02*
X141128228Y-77073237D01*
X141128228Y-77073237D02*
X141032990Y-77025618D01*
X141032990Y-77025618D02*
X140985371Y-76977999D01*
X140985371Y-76977999D02*
X140937752Y-76882761D01*
X140937752Y-76882761D02*
X140937752Y-76692285D01*
X140937752Y-76692285D02*
X140985371Y-76597047D01*
X141556800Y-75739904D02*
X141604419Y-75835142D01*
X141604419Y-75835142D02*
X141604419Y-76025618D01*
X141604419Y-76025618D02*
X141556800Y-76120856D01*
X141556800Y-76120856D02*
X141461561Y-76168475D01*
X141461561Y-76168475D02*
X141080609Y-76168475D01*
X141080609Y-76168475D02*
X140985371Y-76120856D01*
X140985371Y-76120856D02*
X140937752Y-76025618D01*
X140937752Y-76025618D02*
X140937752Y-75835142D01*
X140937752Y-75835142D02*
X140985371Y-75739904D01*
X140985371Y-75739904D02*
X141080609Y-75692285D01*
X141080609Y-75692285D02*
X141175847Y-75692285D01*
X141175847Y-75692285D02*
X141271085Y-76168475D01*
X141604419Y-75263713D02*
X140937752Y-75263713D01*
X141128228Y-75263713D02*
X141032990Y-75216094D01*
X141032990Y-75216094D02*
X140985371Y-75168475D01*
X140985371Y-75168475D02*
X140937752Y-75073237D01*
X140937752Y-75073237D02*
X140937752Y-74977999D01*
X109330609Y-67514115D02*
X109330609Y-67180782D01*
X109854419Y-67037925D02*
X109854419Y-67514115D01*
X109854419Y-67514115D02*
X108854419Y-67514115D01*
X108854419Y-67514115D02*
X108854419Y-67037925D01*
X109330609Y-66276020D02*
X109378228Y-66133163D01*
X109378228Y-66133163D02*
X109425847Y-66085544D01*
X109425847Y-66085544D02*
X109521085Y-66037925D01*
X109521085Y-66037925D02*
X109663942Y-66037925D01*
X109663942Y-66037925D02*
X109759180Y-66085544D01*
X109759180Y-66085544D02*
X109806800Y-66133163D01*
X109806800Y-66133163D02*
X109854419Y-66228401D01*
X109854419Y-66228401D02*
X109854419Y-66609353D01*
X109854419Y-66609353D02*
X108854419Y-66609353D01*
X108854419Y-66609353D02*
X108854419Y-66276020D01*
X108854419Y-66276020D02*
X108902038Y-66180782D01*
X108902038Y-66180782D02*
X108949657Y-66133163D01*
X108949657Y-66133163D02*
X109044895Y-66085544D01*
X109044895Y-66085544D02*
X109140133Y-66085544D01*
X109140133Y-66085544D02*
X109235371Y-66133163D01*
X109235371Y-66133163D02*
X109282990Y-66180782D01*
X109282990Y-66180782D02*
X109330609Y-66276020D01*
X109330609Y-66276020D02*
X109330609Y-66609353D01*
X109330609Y-65276020D02*
X109378228Y-65133163D01*
X109378228Y-65133163D02*
X109425847Y-65085544D01*
X109425847Y-65085544D02*
X109521085Y-65037925D01*
X109521085Y-65037925D02*
X109663942Y-65037925D01*
X109663942Y-65037925D02*
X109759180Y-65085544D01*
X109759180Y-65085544D02*
X109806800Y-65133163D01*
X109806800Y-65133163D02*
X109854419Y-65228401D01*
X109854419Y-65228401D02*
X109854419Y-65609353D01*
X109854419Y-65609353D02*
X108854419Y-65609353D01*
X108854419Y-65609353D02*
X108854419Y-65276020D01*
X108854419Y-65276020D02*
X108902038Y-65180782D01*
X108902038Y-65180782D02*
X108949657Y-65133163D01*
X108949657Y-65133163D02*
X109044895Y-65085544D01*
X109044895Y-65085544D02*
X109140133Y-65085544D01*
X109140133Y-65085544D02*
X109235371Y-65133163D01*
X109235371Y-65133163D02*
X109282990Y-65180782D01*
X109282990Y-65180782D02*
X109330609Y-65276020D01*
X109330609Y-65276020D02*
X109330609Y-65609353D01*
X108854419Y-64704591D02*
X108854419Y-64085544D01*
X108854419Y-64085544D02*
X109235371Y-64418877D01*
X109235371Y-64418877D02*
X109235371Y-64276020D01*
X109235371Y-64276020D02*
X109282990Y-64180782D01*
X109282990Y-64180782D02*
X109330609Y-64133163D01*
X109330609Y-64133163D02*
X109425847Y-64085544D01*
X109425847Y-64085544D02*
X109663942Y-64085544D01*
X109663942Y-64085544D02*
X109759180Y-64133163D01*
X109759180Y-64133163D02*
X109806800Y-64180782D01*
X109806800Y-64180782D02*
X109854419Y-64276020D01*
X109854419Y-64276020D02*
X109854419Y-64561734D01*
X109854419Y-64561734D02*
X109806800Y-64656972D01*
X109806800Y-64656972D02*
X109759180Y-64704591D01*
X108854419Y-63228401D02*
X108854419Y-63418877D01*
X108854419Y-63418877D02*
X108902038Y-63514115D01*
X108902038Y-63514115D02*
X108949657Y-63561734D01*
X108949657Y-63561734D02*
X109092514Y-63656972D01*
X109092514Y-63656972D02*
X109282990Y-63704591D01*
X109282990Y-63704591D02*
X109663942Y-63704591D01*
X109663942Y-63704591D02*
X109759180Y-63656972D01*
X109759180Y-63656972D02*
X109806800Y-63609353D01*
X109806800Y-63609353D02*
X109854419Y-63514115D01*
X109854419Y-63514115D02*
X109854419Y-63323639D01*
X109854419Y-63323639D02*
X109806800Y-63228401D01*
X109806800Y-63228401D02*
X109759180Y-63180782D01*
X109759180Y-63180782D02*
X109663942Y-63133163D01*
X109663942Y-63133163D02*
X109425847Y-63133163D01*
X109425847Y-63133163D02*
X109330609Y-63180782D01*
X109330609Y-63180782D02*
X109282990Y-63228401D01*
X109282990Y-63228401D02*
X109235371Y-63323639D01*
X109235371Y-63323639D02*
X109235371Y-63514115D01*
X109235371Y-63514115D02*
X109282990Y-63609353D01*
X109282990Y-63609353D02*
X109330609Y-63656972D01*
X109330609Y-63656972D02*
X109425847Y-63704591D01*
X108854419Y-61895067D02*
X109044895Y-61990305D01*
X109854419Y-61466496D02*
X108854419Y-61466496D01*
X108616323Y-61037925D02*
X108568704Y-60942687D01*
X108568704Y-60942687D02*
X108568704Y-60799830D01*
X108568704Y-60799830D02*
X108616323Y-60704592D01*
X108616323Y-60704592D02*
X108711561Y-60656973D01*
X108711561Y-60656973D02*
X108806800Y-60656973D01*
X108806800Y-60656973D02*
X108902038Y-60704592D01*
X108902038Y-60704592D02*
X109235371Y-61037925D01*
X109235371Y-61037925D02*
X109235371Y-60656973D01*
X109759180Y-59656973D02*
X109806800Y-59704592D01*
X109806800Y-59704592D02*
X109854419Y-59847449D01*
X109854419Y-59847449D02*
X109854419Y-59942687D01*
X109854419Y-59942687D02*
X109806800Y-60085544D01*
X109806800Y-60085544D02*
X109711561Y-60180782D01*
X109711561Y-60180782D02*
X109616323Y-60228401D01*
X109616323Y-60228401D02*
X109425847Y-60276020D01*
X109425847Y-60276020D02*
X109282990Y-60276020D01*
X109282990Y-60276020D02*
X109092514Y-60228401D01*
X109092514Y-60228401D02*
X108997276Y-60180782D01*
X108997276Y-60180782D02*
X108902038Y-60085544D01*
X108902038Y-60085544D02*
X108854419Y-59942687D01*
X108854419Y-59942687D02*
X108854419Y-59847449D01*
X108854419Y-59847449D02*
X108902038Y-59704592D01*
X108902038Y-59704592D02*
X108949657Y-59656973D01*
X108854419Y-59180782D02*
X109044895Y-59276020D01*
X154980475Y-62960094D02*
X153980475Y-62960094D01*
X153980475Y-62960094D02*
X154980475Y-62388666D01*
X154980475Y-62388666D02*
X153980475Y-62388666D01*
X154075713Y-61960094D02*
X154028094Y-61912475D01*
X154028094Y-61912475D02*
X153980475Y-61817237D01*
X153980475Y-61817237D02*
X153980475Y-61579142D01*
X153980475Y-61579142D02*
X154028094Y-61483904D01*
X154028094Y-61483904D02*
X154075713Y-61436285D01*
X154075713Y-61436285D02*
X154170951Y-61388666D01*
X154170951Y-61388666D02*
X154266189Y-61388666D01*
X154266189Y-61388666D02*
X154409046Y-61436285D01*
X154409046Y-61436285D02*
X154980475Y-62007713D01*
X154980475Y-62007713D02*
X154980475Y-61388666D01*
X153980475Y-60769618D02*
X153980475Y-60674380D01*
X153980475Y-60674380D02*
X154028094Y-60579142D01*
X154028094Y-60579142D02*
X154075713Y-60531523D01*
X154075713Y-60531523D02*
X154170951Y-60483904D01*
X154170951Y-60483904D02*
X154361427Y-60436285D01*
X154361427Y-60436285D02*
X154599522Y-60436285D01*
X154599522Y-60436285D02*
X154789998Y-60483904D01*
X154789998Y-60483904D02*
X154885236Y-60531523D01*
X154885236Y-60531523D02*
X154932856Y-60579142D01*
X154932856Y-60579142D02*
X154980475Y-60674380D01*
X154980475Y-60674380D02*
X154980475Y-60769618D01*
X154980475Y-60769618D02*
X154932856Y-60864856D01*
X154932856Y-60864856D02*
X154885236Y-60912475D01*
X154885236Y-60912475D02*
X154789998Y-60960094D01*
X154789998Y-60960094D02*
X154599522Y-61007713D01*
X154599522Y-61007713D02*
X154361427Y-61007713D01*
X154361427Y-61007713D02*
X154170951Y-60960094D01*
X154170951Y-60960094D02*
X154075713Y-60912475D01*
X154075713Y-60912475D02*
X154028094Y-60864856D01*
X154028094Y-60864856D02*
X153980475Y-60769618D01*
X156590419Y-63555333D02*
X155590419Y-63555333D01*
X155590419Y-63555333D02*
X156304704Y-63222000D01*
X156304704Y-63222000D02*
X155590419Y-62888667D01*
X155590419Y-62888667D02*
X156590419Y-62888667D01*
X156590419Y-62269619D02*
X156542800Y-62364857D01*
X156542800Y-62364857D02*
X156495180Y-62412476D01*
X156495180Y-62412476D02*
X156399942Y-62460095D01*
X156399942Y-62460095D02*
X156114228Y-62460095D01*
X156114228Y-62460095D02*
X156018990Y-62412476D01*
X156018990Y-62412476D02*
X155971371Y-62364857D01*
X155971371Y-62364857D02*
X155923752Y-62269619D01*
X155923752Y-62269619D02*
X155923752Y-62126762D01*
X155923752Y-62126762D02*
X155971371Y-62031524D01*
X155971371Y-62031524D02*
X156018990Y-61983905D01*
X156018990Y-61983905D02*
X156114228Y-61936286D01*
X156114228Y-61936286D02*
X156399942Y-61936286D01*
X156399942Y-61936286D02*
X156495180Y-61983905D01*
X156495180Y-61983905D02*
X156542800Y-62031524D01*
X156542800Y-62031524D02*
X156590419Y-62126762D01*
X156590419Y-62126762D02*
X156590419Y-62269619D01*
X155923752Y-61650571D02*
X155923752Y-61269619D01*
X155590419Y-61507714D02*
X156447561Y-61507714D01*
X156447561Y-61507714D02*
X156542800Y-61460095D01*
X156542800Y-61460095D02*
X156590419Y-61364857D01*
X156590419Y-61364857D02*
X156590419Y-61269619D01*
X156590419Y-60793428D02*
X156542800Y-60888666D01*
X156542800Y-60888666D02*
X156495180Y-60936285D01*
X156495180Y-60936285D02*
X156399942Y-60983904D01*
X156399942Y-60983904D02*
X156114228Y-60983904D01*
X156114228Y-60983904D02*
X156018990Y-60936285D01*
X156018990Y-60936285D02*
X155971371Y-60888666D01*
X155971371Y-60888666D02*
X155923752Y-60793428D01*
X155923752Y-60793428D02*
X155923752Y-60650571D01*
X155923752Y-60650571D02*
X155971371Y-60555333D01*
X155971371Y-60555333D02*
X156018990Y-60507714D01*
X156018990Y-60507714D02*
X156114228Y-60460095D01*
X156114228Y-60460095D02*
X156399942Y-60460095D01*
X156399942Y-60460095D02*
X156495180Y-60507714D01*
X156495180Y-60507714D02*
X156542800Y-60555333D01*
X156542800Y-60555333D02*
X156590419Y-60650571D01*
X156590419Y-60650571D02*
X156590419Y-60793428D01*
X156590419Y-60031523D02*
X155923752Y-60031523D01*
X156114228Y-60031523D02*
X156018990Y-59983904D01*
X156018990Y-59983904D02*
X155971371Y-59936285D01*
X155971371Y-59936285D02*
X155923752Y-59841047D01*
X155923752Y-59841047D02*
X155923752Y-59745809D01*
D11*
X118705333Y-71320819D02*
X118372000Y-70844628D01*
X118133905Y-71320819D02*
X118133905Y-70320819D01*
X118133905Y-70320819D02*
X118514857Y-70320819D01*
X118514857Y-70320819D02*
X118610095Y-70368438D01*
X118610095Y-70368438D02*
X118657714Y-70416057D01*
X118657714Y-70416057D02*
X118705333Y-70511295D01*
X118705333Y-70511295D02*
X118705333Y-70654152D01*
X118705333Y-70654152D02*
X118657714Y-70749390D01*
X118657714Y-70749390D02*
X118610095Y-70797009D01*
X118610095Y-70797009D02*
X118514857Y-70844628D01*
X118514857Y-70844628D02*
X118133905Y-70844628D01*
X119657714Y-71320819D02*
X119086286Y-71320819D01*
X119372000Y-71320819D02*
X119372000Y-70320819D01*
X119372000Y-70320819D02*
X119276762Y-70463676D01*
X119276762Y-70463676D02*
X119181524Y-70558914D01*
X119181524Y-70558914D02*
X119086286Y-70606533D01*
X121840666Y-65494819D02*
X121840666Y-66209104D01*
X121840666Y-66209104D02*
X121793047Y-66351961D01*
X121793047Y-66351961D02*
X121697809Y-66447200D01*
X121697809Y-66447200D02*
X121554952Y-66494819D01*
X121554952Y-66494819D02*
X121459714Y-66494819D01*
X122840666Y-66494819D02*
X122269238Y-66494819D01*
X122554952Y-66494819D02*
X122554952Y-65494819D01*
X122554952Y-65494819D02*
X122459714Y-65637676D01*
X122459714Y-65637676D02*
X122364476Y-65732914D01*
X122364476Y-65732914D02*
X122269238Y-65780533D01*
X144526095Y-72352819D02*
X144526095Y-73162342D01*
X144526095Y-73162342D02*
X144573714Y-73257580D01*
X144573714Y-73257580D02*
X144621333Y-73305200D01*
X144621333Y-73305200D02*
X144716571Y-73352819D01*
X144716571Y-73352819D02*
X144907047Y-73352819D01*
X144907047Y-73352819D02*
X145002285Y-73305200D01*
X145002285Y-73305200D02*
X145049904Y-73257580D01*
X145049904Y-73257580D02*
X145097523Y-73162342D01*
X145097523Y-73162342D02*
X145097523Y-72352819D01*
X146097523Y-73352819D02*
X145526095Y-73352819D01*
X145811809Y-73352819D02*
X145811809Y-72352819D01*
X145811809Y-72352819D02*
X145716571Y-72495676D01*
X145716571Y-72495676D02*
X145621333Y-72590914D01*
X145621333Y-72590914D02*
X145526095Y-72638533D01*
X140887220Y-72839990D02*
X140553887Y-72839990D01*
X140411030Y-72316180D02*
X140887220Y-72316180D01*
X140887220Y-72316180D02*
X140887220Y-73316180D01*
X140887220Y-73316180D02*
X140411030Y-73316180D01*
X139982458Y-72839990D02*
X139649125Y-72839990D01*
X139506268Y-72316180D02*
X139982458Y-72316180D01*
X139982458Y-72316180D02*
X139982458Y-73316180D01*
X139982458Y-73316180D02*
X139506268Y-73316180D01*
X139077696Y-72316180D02*
X139077696Y-73316180D01*
X139077696Y-73316180D02*
X138696744Y-73316180D01*
X138696744Y-73316180D02*
X138601506Y-73268561D01*
X138601506Y-73268561D02*
X138553887Y-73220942D01*
X138553887Y-73220942D02*
X138506268Y-73125704D01*
X138506268Y-73125704D02*
X138506268Y-72982847D01*
X138506268Y-72982847D02*
X138553887Y-72887609D01*
X138553887Y-72887609D02*
X138601506Y-72839990D01*
X138601506Y-72839990D02*
X138696744Y-72792371D01*
X138696744Y-72792371D02*
X139077696Y-72792371D01*
X130352778Y-72316180D02*
X130352778Y-73316180D01*
X129876588Y-72316180D02*
X129876588Y-73316180D01*
X129876588Y-73316180D02*
X129305160Y-72316180D01*
X129305160Y-72316180D02*
X129305160Y-73316180D01*
X128400398Y-72982847D02*
X128400398Y-72316180D01*
X128638493Y-73363800D02*
X128876588Y-72649514D01*
X128876588Y-72649514D02*
X128257541Y-72649514D01*
X130400398Y-68188561D02*
X130495636Y-68236180D01*
X130495636Y-68236180D02*
X130638493Y-68236180D01*
X130638493Y-68236180D02*
X130781350Y-68188561D01*
X130781350Y-68188561D02*
X130876588Y-68093323D01*
X130876588Y-68093323D02*
X130924207Y-67998085D01*
X130924207Y-67998085D02*
X130971826Y-67807609D01*
X130971826Y-67807609D02*
X130971826Y-67664752D01*
X130971826Y-67664752D02*
X130924207Y-67474276D01*
X130924207Y-67474276D02*
X130876588Y-67379038D01*
X130876588Y-67379038D02*
X130781350Y-67283800D01*
X130781350Y-67283800D02*
X130638493Y-67236180D01*
X130638493Y-67236180D02*
X130543255Y-67236180D01*
X130543255Y-67236180D02*
X130400398Y-67283800D01*
X130400398Y-67283800D02*
X130352779Y-67331419D01*
X130352779Y-67331419D02*
X130352779Y-67664752D01*
X130352779Y-67664752D02*
X130543255Y-67664752D01*
X129924207Y-67236180D02*
X129924207Y-68236180D01*
X129924207Y-68236180D02*
X129352779Y-67236180D01*
X129352779Y-67236180D02*
X129352779Y-68236180D01*
X128876588Y-67236180D02*
X128876588Y-68236180D01*
X128876588Y-68236180D02*
X128638493Y-68236180D01*
X128638493Y-68236180D02*
X128495636Y-68188561D01*
X128495636Y-68188561D02*
X128400398Y-68093323D01*
X128400398Y-68093323D02*
X128352779Y-67998085D01*
X128352779Y-67998085D02*
X128305160Y-67807609D01*
X128305160Y-67807609D02*
X128305160Y-67664752D01*
X128305160Y-67664752D02*
X128352779Y-67474276D01*
X128352779Y-67474276D02*
X128400398Y-67379038D01*
X128400398Y-67379038D02*
X128495636Y-67283800D01*
X128495636Y-67283800D02*
X128638493Y-67236180D01*
X128638493Y-67236180D02*
X128876588Y-67236180D01*
X129971826Y-65077133D02*
X129209922Y-65077133D01*
X129590874Y-64696180D02*
X129590874Y-65458085D01*
X128876588Y-65696180D02*
X128543255Y-64696180D01*
X128543255Y-64696180D02*
X128209922Y-65696180D01*
X140553887Y-60139990D02*
X140887220Y-60139990D01*
X140887220Y-59616180D02*
X140887220Y-60616180D01*
X140887220Y-60616180D02*
X140411030Y-60616180D01*
X140077696Y-59901895D02*
X139601506Y-59901895D01*
X140172934Y-59616180D02*
X139839601Y-60616180D01*
X139839601Y-60616180D02*
X139506268Y-59616180D01*
X139172934Y-60616180D02*
X139172934Y-59806657D01*
X139172934Y-59806657D02*
X139125315Y-59711419D01*
X139125315Y-59711419D02*
X139077696Y-59663800D01*
X139077696Y-59663800D02*
X138982458Y-59616180D01*
X138982458Y-59616180D02*
X138791982Y-59616180D01*
X138791982Y-59616180D02*
X138696744Y-59663800D01*
X138696744Y-59663800D02*
X138649125Y-59711419D01*
X138649125Y-59711419D02*
X138601506Y-59806657D01*
X138601506Y-59806657D02*
X138601506Y-60616180D01*
X137649125Y-59616180D02*
X138125315Y-59616180D01*
X138125315Y-59616180D02*
X138125315Y-60616180D01*
X137458648Y-60616180D02*
X136887220Y-60616180D01*
X137172934Y-59616180D02*
X137172934Y-60616180D01*
X140696744Y-68236180D02*
X140506268Y-68236180D01*
X140506268Y-68236180D02*
X140411030Y-68188561D01*
X140411030Y-68188561D02*
X140315792Y-68093323D01*
X140315792Y-68093323D02*
X140268173Y-67902847D01*
X140268173Y-67902847D02*
X140268173Y-67569514D01*
X140268173Y-67569514D02*
X140315792Y-67379038D01*
X140315792Y-67379038D02*
X140411030Y-67283800D01*
X140411030Y-67283800D02*
X140506268Y-67236180D01*
X140506268Y-67236180D02*
X140696744Y-67236180D01*
X140696744Y-67236180D02*
X140791982Y-67283800D01*
X140791982Y-67283800D02*
X140887220Y-67379038D01*
X140887220Y-67379038D02*
X140934839Y-67569514D01*
X140934839Y-67569514D02*
X140934839Y-67902847D01*
X140934839Y-67902847D02*
X140887220Y-68093323D01*
X140887220Y-68093323D02*
X140791982Y-68188561D01*
X140791982Y-68188561D02*
X140696744Y-68236180D01*
X139839601Y-68236180D02*
X139839601Y-67426657D01*
X139839601Y-67426657D02*
X139791982Y-67331419D01*
X139791982Y-67331419D02*
X139744363Y-67283800D01*
X139744363Y-67283800D02*
X139649125Y-67236180D01*
X139649125Y-67236180D02*
X139458649Y-67236180D01*
X139458649Y-67236180D02*
X139363411Y-67283800D01*
X139363411Y-67283800D02*
X139315792Y-67331419D01*
X139315792Y-67331419D02*
X139268173Y-67426657D01*
X139268173Y-67426657D02*
X139268173Y-68236180D01*
X138934839Y-68236180D02*
X138363411Y-68236180D01*
X138649125Y-67236180D02*
X138649125Y-68236180D01*
X138077696Y-68140942D02*
X138030077Y-68188561D01*
X138030077Y-68188561D02*
X137934839Y-68236180D01*
X137934839Y-68236180D02*
X137696744Y-68236180D01*
X137696744Y-68236180D02*
X137601506Y-68188561D01*
X137601506Y-68188561D02*
X137553887Y-68140942D01*
X137553887Y-68140942D02*
X137506268Y-68045704D01*
X137506268Y-68045704D02*
X137506268Y-67950466D01*
X137506268Y-67950466D02*
X137553887Y-67807609D01*
X137553887Y-67807609D02*
X138125315Y-67236180D01*
X138125315Y-67236180D02*
X137506268Y-67236180D01*
X130352778Y-69776180D02*
X130352778Y-70776180D01*
X129876588Y-69776180D02*
X129876588Y-70776180D01*
X129876588Y-70776180D02*
X129305160Y-69776180D01*
X129305160Y-69776180D02*
X129305160Y-70776180D01*
X128924207Y-70776180D02*
X128305160Y-70776180D01*
X128305160Y-70776180D02*
X128638493Y-70395228D01*
X128638493Y-70395228D02*
X128495636Y-70395228D01*
X128495636Y-70395228D02*
X128400398Y-70347609D01*
X128400398Y-70347609D02*
X128352779Y-70299990D01*
X128352779Y-70299990D02*
X128305160Y-70204752D01*
X128305160Y-70204752D02*
X128305160Y-69966657D01*
X128305160Y-69966657D02*
X128352779Y-69871419D01*
X128352779Y-69871419D02*
X128400398Y-69823800D01*
X128400398Y-69823800D02*
X128495636Y-69776180D01*
X128495636Y-69776180D02*
X128781350Y-69776180D01*
X128781350Y-69776180D02*
X128876588Y-69823800D01*
X128876588Y-69823800D02*
X128924207Y-69871419D01*
X140696744Y-63156180D02*
X140506268Y-63156180D01*
X140506268Y-63156180D02*
X140411030Y-63108561D01*
X140411030Y-63108561D02*
X140315792Y-63013323D01*
X140315792Y-63013323D02*
X140268173Y-62822847D01*
X140268173Y-62822847D02*
X140268173Y-62489514D01*
X140268173Y-62489514D02*
X140315792Y-62299038D01*
X140315792Y-62299038D02*
X140411030Y-62203800D01*
X140411030Y-62203800D02*
X140506268Y-62156180D01*
X140506268Y-62156180D02*
X140696744Y-62156180D01*
X140696744Y-62156180D02*
X140791982Y-62203800D01*
X140791982Y-62203800D02*
X140887220Y-62299038D01*
X140887220Y-62299038D02*
X140934839Y-62489514D01*
X140934839Y-62489514D02*
X140934839Y-62822847D01*
X140934839Y-62822847D02*
X140887220Y-63013323D01*
X140887220Y-63013323D02*
X140791982Y-63108561D01*
X140791982Y-63108561D02*
X140696744Y-63156180D01*
X139839601Y-63156180D02*
X139839601Y-62346657D01*
X139839601Y-62346657D02*
X139791982Y-62251419D01*
X139791982Y-62251419D02*
X139744363Y-62203800D01*
X139744363Y-62203800D02*
X139649125Y-62156180D01*
X139649125Y-62156180D02*
X139458649Y-62156180D01*
X139458649Y-62156180D02*
X139363411Y-62203800D01*
X139363411Y-62203800D02*
X139315792Y-62251419D01*
X139315792Y-62251419D02*
X139268173Y-62346657D01*
X139268173Y-62346657D02*
X139268173Y-63156180D01*
X138934839Y-63156180D02*
X138363411Y-63156180D01*
X138649125Y-62156180D02*
X138649125Y-63156180D01*
X137601506Y-62822847D02*
X137601506Y-62156180D01*
X137839601Y-63203800D02*
X138077696Y-62489514D01*
X138077696Y-62489514D02*
X137458649Y-62489514D01*
X140696744Y-70776180D02*
X140506268Y-70776180D01*
X140506268Y-70776180D02*
X140411030Y-70728561D01*
X140411030Y-70728561D02*
X140315792Y-70633323D01*
X140315792Y-70633323D02*
X140268173Y-70442847D01*
X140268173Y-70442847D02*
X140268173Y-70109514D01*
X140268173Y-70109514D02*
X140315792Y-69919038D01*
X140315792Y-69919038D02*
X140411030Y-69823800D01*
X140411030Y-69823800D02*
X140506268Y-69776180D01*
X140506268Y-69776180D02*
X140696744Y-69776180D01*
X140696744Y-69776180D02*
X140791982Y-69823800D01*
X140791982Y-69823800D02*
X140887220Y-69919038D01*
X140887220Y-69919038D02*
X140934839Y-70109514D01*
X140934839Y-70109514D02*
X140934839Y-70442847D01*
X140934839Y-70442847D02*
X140887220Y-70633323D01*
X140887220Y-70633323D02*
X140791982Y-70728561D01*
X140791982Y-70728561D02*
X140696744Y-70776180D01*
X139839601Y-70776180D02*
X139839601Y-69966657D01*
X139839601Y-69966657D02*
X139791982Y-69871419D01*
X139791982Y-69871419D02*
X139744363Y-69823800D01*
X139744363Y-69823800D02*
X139649125Y-69776180D01*
X139649125Y-69776180D02*
X139458649Y-69776180D01*
X139458649Y-69776180D02*
X139363411Y-69823800D01*
X139363411Y-69823800D02*
X139315792Y-69871419D01*
X139315792Y-69871419D02*
X139268173Y-69966657D01*
X139268173Y-69966657D02*
X139268173Y-70776180D01*
X138934839Y-70776180D02*
X138363411Y-70776180D01*
X138649125Y-69776180D02*
X138649125Y-70776180D01*
X137506268Y-69776180D02*
X138077696Y-69776180D01*
X137791982Y-69776180D02*
X137791982Y-70776180D01*
X137791982Y-70776180D02*
X137887220Y-70633323D01*
X137887220Y-70633323D02*
X137982458Y-70538085D01*
X137982458Y-70538085D02*
X138077696Y-70490466D01*
X140696744Y-65696180D02*
X140506268Y-65696180D01*
X140506268Y-65696180D02*
X140411030Y-65648561D01*
X140411030Y-65648561D02*
X140315792Y-65553323D01*
X140315792Y-65553323D02*
X140268173Y-65362847D01*
X140268173Y-65362847D02*
X140268173Y-65029514D01*
X140268173Y-65029514D02*
X140315792Y-64839038D01*
X140315792Y-64839038D02*
X140411030Y-64743800D01*
X140411030Y-64743800D02*
X140506268Y-64696180D01*
X140506268Y-64696180D02*
X140696744Y-64696180D01*
X140696744Y-64696180D02*
X140791982Y-64743800D01*
X140791982Y-64743800D02*
X140887220Y-64839038D01*
X140887220Y-64839038D02*
X140934839Y-65029514D01*
X140934839Y-65029514D02*
X140934839Y-65362847D01*
X140934839Y-65362847D02*
X140887220Y-65553323D01*
X140887220Y-65553323D02*
X140791982Y-65648561D01*
X140791982Y-65648561D02*
X140696744Y-65696180D01*
X139839601Y-65696180D02*
X139839601Y-64886657D01*
X139839601Y-64886657D02*
X139791982Y-64791419D01*
X139791982Y-64791419D02*
X139744363Y-64743800D01*
X139744363Y-64743800D02*
X139649125Y-64696180D01*
X139649125Y-64696180D02*
X139458649Y-64696180D01*
X139458649Y-64696180D02*
X139363411Y-64743800D01*
X139363411Y-64743800D02*
X139315792Y-64791419D01*
X139315792Y-64791419D02*
X139268173Y-64886657D01*
X139268173Y-64886657D02*
X139268173Y-65696180D01*
X138934839Y-65696180D02*
X138363411Y-65696180D01*
X138649125Y-64696180D02*
X138649125Y-65696180D01*
X138125315Y-65696180D02*
X137506268Y-65696180D01*
X137506268Y-65696180D02*
X137839601Y-65315228D01*
X137839601Y-65315228D02*
X137696744Y-65315228D01*
X137696744Y-65315228D02*
X137601506Y-65267609D01*
X137601506Y-65267609D02*
X137553887Y-65219990D01*
X137553887Y-65219990D02*
X137506268Y-65124752D01*
X137506268Y-65124752D02*
X137506268Y-64886657D01*
X137506268Y-64886657D02*
X137553887Y-64791419D01*
X137553887Y-64791419D02*
X137601506Y-64743800D01*
X137601506Y-64743800D02*
X137696744Y-64696180D01*
X137696744Y-64696180D02*
X137982458Y-64696180D01*
X137982458Y-64696180D02*
X138077696Y-64743800D01*
X138077696Y-64743800D02*
X138125315Y-64791419D01*
X130352778Y-59743180D02*
X130352778Y-60743180D01*
X129876588Y-59743180D02*
X129876588Y-60743180D01*
X129876588Y-60743180D02*
X129305160Y-59743180D01*
X129305160Y-59743180D02*
X129305160Y-60743180D01*
X128305160Y-59743180D02*
X128876588Y-59743180D01*
X128590874Y-59743180D02*
X128590874Y-60743180D01*
X128590874Y-60743180D02*
X128686112Y-60600323D01*
X128686112Y-60600323D02*
X128781350Y-60505085D01*
X128781350Y-60505085D02*
X128876588Y-60457466D01*
X130352778Y-62156180D02*
X130352778Y-63156180D01*
X129876588Y-62156180D02*
X129876588Y-63156180D01*
X129876588Y-63156180D02*
X129305160Y-62156180D01*
X129305160Y-62156180D02*
X129305160Y-63156180D01*
X128876588Y-63060942D02*
X128828969Y-63108561D01*
X128828969Y-63108561D02*
X128733731Y-63156180D01*
X128733731Y-63156180D02*
X128495636Y-63156180D01*
X128495636Y-63156180D02*
X128400398Y-63108561D01*
X128400398Y-63108561D02*
X128352779Y-63060942D01*
X128352779Y-63060942D02*
X128305160Y-62965704D01*
X128305160Y-62965704D02*
X128305160Y-62870466D01*
X128305160Y-62870466D02*
X128352779Y-62727609D01*
X128352779Y-62727609D02*
X128924207Y-62156180D01*
X128924207Y-62156180D02*
X128305160Y-62156180D01*
X129248819Y-80614333D02*
X129963104Y-80614333D01*
X129963104Y-80614333D02*
X130105961Y-80661952D01*
X130105961Y-80661952D02*
X130201200Y-80757190D01*
X130201200Y-80757190D02*
X130248819Y-80900047D01*
X130248819Y-80900047D02*
X130248819Y-80995285D01*
X129582152Y-79709571D02*
X130248819Y-79709571D01*
X129201200Y-79947666D02*
X129915485Y-80185761D01*
X129915485Y-80185761D02*
X129915485Y-79566714D01*
X109728666Y-73368819D02*
X109728666Y-74083104D01*
X109728666Y-74083104D02*
X109681047Y-74225961D01*
X109681047Y-74225961D02*
X109585809Y-74321200D01*
X109585809Y-74321200D02*
X109442952Y-74368819D01*
X109442952Y-74368819D02*
X109347714Y-74368819D01*
X110157238Y-73464057D02*
X110204857Y-73416438D01*
X110204857Y-73416438D02*
X110300095Y-73368819D01*
X110300095Y-73368819D02*
X110538190Y-73368819D01*
X110538190Y-73368819D02*
X110633428Y-73416438D01*
X110633428Y-73416438D02*
X110681047Y-73464057D01*
X110681047Y-73464057D02*
X110728666Y-73559295D01*
X110728666Y-73559295D02*
X110728666Y-73654533D01*
X110728666Y-73654533D02*
X110681047Y-73797390D01*
X110681047Y-73797390D02*
X110109619Y-74368819D01*
X110109619Y-74368819D02*
X110728666Y-74368819D01*
X144214819Y-80614333D02*
X144929104Y-80614333D01*
X144929104Y-80614333D02*
X145071961Y-80661952D01*
X145071961Y-80661952D02*
X145167200Y-80757190D01*
X145167200Y-80757190D02*
X145214819Y-80900047D01*
X145214819Y-80900047D02*
X145214819Y-80995285D01*
X144214819Y-79661952D02*
X144214819Y-80138142D01*
X144214819Y-80138142D02*
X144691009Y-80185761D01*
X144691009Y-80185761D02*
X144643390Y-80138142D01*
X144643390Y-80138142D02*
X144595771Y-80042904D01*
X144595771Y-80042904D02*
X144595771Y-79804809D01*
X144595771Y-79804809D02*
X144643390Y-79709571D01*
X144643390Y-79709571D02*
X144691009Y-79661952D01*
X144691009Y-79661952D02*
X144786247Y-79614333D01*
X144786247Y-79614333D02*
X145024342Y-79614333D01*
X145024342Y-79614333D02*
X145119580Y-79661952D01*
X145119580Y-79661952D02*
X145167200Y-79709571D01*
X145167200Y-79709571D02*
X145214819Y-79804809D01*
X145214819Y-79804809D02*
X145214819Y-80042904D01*
X145214819Y-80042904D02*
X145167200Y-80138142D01*
X145167200Y-80138142D02*
X145119580Y-80185761D01*
X145758819Y-67135333D02*
X146473104Y-67135333D01*
X146473104Y-67135333D02*
X146615961Y-67182952D01*
X146615961Y-67182952D02*
X146711200Y-67278190D01*
X146711200Y-67278190D02*
X146758819Y-67421047D01*
X146758819Y-67421047D02*
X146758819Y-67516285D01*
X145758819Y-66754380D02*
X145758819Y-66135333D01*
X145758819Y-66135333D02*
X146139771Y-66468666D01*
X146139771Y-66468666D02*
X146139771Y-66325809D01*
X146139771Y-66325809D02*
X146187390Y-66230571D01*
X146187390Y-66230571D02*
X146235009Y-66182952D01*
X146235009Y-66182952D02*
X146330247Y-66135333D01*
X146330247Y-66135333D02*
X146568342Y-66135333D01*
X146568342Y-66135333D02*
X146663580Y-66182952D01*
X146663580Y-66182952D02*
X146711200Y-66230571D01*
X146711200Y-66230571D02*
X146758819Y-66325809D01*
X146758819Y-66325809D02*
X146758819Y-66611523D01*
X146758819Y-66611523D02*
X146711200Y-66706761D01*
X146711200Y-66706761D02*
X146663580Y-66754380D01*
D12*
X121081095Y-73393359D02*
G75*
G02*
X121178133Y-71944000I-320095J749359D01*
G01*
X110784000Y-58991000D02*
X110784000Y-64961000D01*
X110784000Y-64961000D02*
X123404000Y-64961000D01*
X110794000Y-62701000D02*
X111544000Y-62701000D01*
X110794000Y-64201000D02*
X110794000Y-64951000D01*
X110794000Y-64951000D02*
X112594000Y-64951000D01*
X111544000Y-59751000D02*
X117094000Y-59751000D01*
X111544000Y-62701000D02*
X111544000Y-59751000D01*
X112594000Y-64201000D02*
X110794000Y-64201000D01*
X112594000Y-64951000D02*
X112594000Y-64201000D01*
X114094000Y-64201000D02*
X114094000Y-64951000D01*
X114094000Y-64951000D02*
X120094000Y-64951000D01*
X120094000Y-64201000D02*
X114094000Y-64201000D01*
X120094000Y-64951000D02*
X120094000Y-64201000D01*
X121594000Y-64201000D02*
X121594000Y-64951000D01*
X121594000Y-64951000D02*
X123394000Y-64951000D01*
X122444000Y-65251000D02*
X123694000Y-65251000D01*
X122644000Y-59751000D02*
X117094000Y-59751000D01*
X122644000Y-62701000D02*
X122644000Y-59751000D01*
X123394000Y-62701000D02*
X122644000Y-62701000D01*
X123394000Y-64201000D02*
X121594000Y-64201000D01*
X123394000Y-64951000D02*
X123394000Y-64201000D01*
X123404000Y-58991000D02*
X110784000Y-58991000D01*
X123404000Y-64961000D02*
X123404000Y-58991000D01*
X123694000Y-65251000D02*
X123694000Y-64001000D01*
D13*
X143870000Y-74295000D02*
X125370000Y-74295000D01*
X125370000Y-58295000D01*
X143870000Y-58295000D01*
X143870000Y-74295000D01*
D12*
X130810000Y-74993000D02*
X130810000Y-80963000D01*
X130810000Y-80963000D02*
X138430000Y-80963000D01*
X130820000Y-78703000D02*
X131570000Y-78703000D01*
X130820000Y-80203000D02*
X130820000Y-80953000D01*
X130820000Y-80953000D02*
X132620000Y-80953000D01*
X131570000Y-75753000D02*
X134620000Y-75753000D01*
X131570000Y-78703000D02*
X131570000Y-75753000D01*
X132620000Y-80203000D02*
X130820000Y-80203000D01*
X132620000Y-80953000D02*
X132620000Y-80203000D01*
X134120000Y-80203000D02*
X134120000Y-80953000D01*
X134120000Y-80953000D02*
X135120000Y-80953000D01*
X135120000Y-80203000D02*
X134120000Y-80203000D01*
X135120000Y-80953000D02*
X135120000Y-80203000D01*
X136620000Y-80203000D02*
X136620000Y-80953000D01*
X136620000Y-80953000D02*
X138420000Y-80953000D01*
X137470000Y-81253000D02*
X138720000Y-81253000D01*
X137670000Y-75753000D02*
X134620000Y-75753000D01*
X137670000Y-78703000D02*
X137670000Y-75753000D01*
X138420000Y-78703000D02*
X137670000Y-78703000D01*
X138420000Y-80203000D02*
X136620000Y-80203000D01*
X138420000Y-80953000D02*
X138420000Y-80203000D01*
X138430000Y-74993000D02*
X130810000Y-74993000D01*
X138430000Y-80963000D02*
X138430000Y-74993000D01*
X138720000Y-81253000D02*
X138720000Y-80003000D01*
X108598000Y-74976000D02*
X108598000Y-80946000D01*
X108598000Y-80946000D02*
X123718000Y-80946000D01*
X108608000Y-78686000D02*
X109358000Y-78686000D01*
X108608000Y-80186000D02*
X108608000Y-80936000D01*
X108608000Y-80936000D02*
X110408000Y-80936000D01*
X109358000Y-75736000D02*
X116158000Y-75736000D01*
X109358000Y-78686000D02*
X109358000Y-75736000D01*
X110408000Y-80186000D02*
X108608000Y-80186000D01*
X110408000Y-80936000D02*
X110408000Y-80186000D01*
X111908000Y-80186000D02*
X111908000Y-80936000D01*
X111908000Y-80936000D02*
X120408000Y-80936000D01*
X120408000Y-80186000D02*
X111908000Y-80186000D01*
X120408000Y-80936000D02*
X120408000Y-80186000D01*
X121908000Y-80186000D02*
X121908000Y-80936000D01*
X121908000Y-80936000D02*
X123708000Y-80936000D01*
X122758000Y-81236000D02*
X124008000Y-81236000D01*
X122958000Y-75736000D02*
X116158000Y-75736000D01*
X122958000Y-78686000D02*
X122958000Y-75736000D01*
X123708000Y-78686000D02*
X122958000Y-78686000D01*
X123708000Y-80186000D02*
X121908000Y-80186000D01*
X123708000Y-80936000D02*
X123708000Y-80186000D01*
X123718000Y-74976000D02*
X108598000Y-74976000D01*
X123718000Y-80946000D02*
X123718000Y-74976000D01*
X124008000Y-81236000D02*
X124008000Y-79986000D01*
X145776000Y-74993000D02*
X145776000Y-80963000D01*
X145776000Y-80963000D02*
X153396000Y-80963000D01*
X145786000Y-78703000D02*
X146536000Y-78703000D01*
X145786000Y-80203000D02*
X145786000Y-80953000D01*
X145786000Y-80953000D02*
X147586000Y-80953000D01*
X146536000Y-75753000D02*
X149586000Y-75753000D01*
X146536000Y-78703000D02*
X146536000Y-75753000D01*
X147586000Y-80203000D02*
X145786000Y-80203000D01*
X147586000Y-80953000D02*
X147586000Y-80203000D01*
X149086000Y-80203000D02*
X149086000Y-80953000D01*
X149086000Y-80953000D02*
X150086000Y-80953000D01*
X150086000Y-80203000D02*
X149086000Y-80203000D01*
X150086000Y-80953000D02*
X150086000Y-80203000D01*
X151586000Y-80203000D02*
X151586000Y-80953000D01*
X151586000Y-80953000D02*
X153386000Y-80953000D01*
X152436000Y-81253000D02*
X153686000Y-81253000D01*
X152636000Y-75753000D02*
X149586000Y-75753000D01*
X152636000Y-78703000D02*
X152636000Y-75753000D01*
X153386000Y-78703000D02*
X152636000Y-78703000D01*
X153386000Y-80203000D02*
X151586000Y-80203000D01*
X153386000Y-80953000D02*
X153386000Y-80203000D01*
X153396000Y-74993000D02*
X145776000Y-74993000D01*
X153396000Y-80963000D02*
X153396000Y-74993000D01*
X153686000Y-81253000D02*
X153686000Y-80003000D01*
X145506000Y-58955000D02*
X145506000Y-60205000D01*
X145796000Y-59245000D02*
X145796000Y-65215000D01*
X145796000Y-65215000D02*
X153416000Y-65215000D01*
X145806000Y-59255000D02*
X145806000Y-60005000D01*
X145806000Y-60005000D02*
X147606000Y-60005000D01*
X145806000Y-61505000D02*
X146556000Y-61505000D01*
X146556000Y-61505000D02*
X146556000Y-64455000D01*
X146556000Y-64455000D02*
X149606000Y-64455000D01*
X146756000Y-58955000D02*
X145506000Y-58955000D01*
X147606000Y-59255000D02*
X145806000Y-59255000D01*
X147606000Y-60005000D02*
X147606000Y-59255000D01*
X149106000Y-59255000D02*
X149106000Y-60005000D01*
X149106000Y-60005000D02*
X150106000Y-60005000D01*
X150106000Y-59255000D02*
X149106000Y-59255000D01*
X150106000Y-60005000D02*
X150106000Y-59255000D01*
X151606000Y-59255000D02*
X151606000Y-60005000D01*
X151606000Y-60005000D02*
X153406000Y-60005000D01*
X152656000Y-61505000D02*
X152656000Y-64455000D01*
X152656000Y-64455000D02*
X149606000Y-64455000D01*
X153406000Y-59255000D02*
X151606000Y-59255000D01*
X153406000Y-60005000D02*
X153406000Y-59255000D01*
X153406000Y-61505000D02*
X152656000Y-61505000D01*
X153416000Y-59245000D02*
X145796000Y-59245000D01*
X153416000Y-65215000D02*
X153416000Y-59245000D01*
%LPC*%
D14*
X120761000Y-72644000D03*
D15*
X122661000Y-72644000D03*
D16*
X120844000Y-62501000D03*
D17*
X118344000Y-62501000D03*
X115844000Y-62501000D03*
X113344000Y-62501000D03*
D18*
X111614000Y-69850000D03*
X112382845Y-67993845D03*
X112382845Y-71706155D03*
X114239000Y-67225000D03*
D19*
X114239000Y-69850000D03*
D18*
X114239000Y-72475000D03*
X116095155Y-67993845D03*
X116095155Y-71706155D03*
X116864000Y-69850000D03*
D20*
X142240000Y-72771000D03*
D21*
X142240000Y-70231000D03*
X142240000Y-67691000D03*
X142240000Y-65151000D03*
X142240000Y-62611000D03*
X142240000Y-60071000D03*
X127000000Y-60071000D03*
X127000000Y-62611000D03*
X127000000Y-65151000D03*
X127000000Y-67691000D03*
X127000000Y-70231000D03*
X127000000Y-72771000D03*
D22*
X135870000Y-78503000D03*
D23*
X133370000Y-78503000D03*
D16*
X121158000Y-78486000D03*
D17*
X118658000Y-78486000D03*
X116158000Y-78486000D03*
X113658000Y-78486000D03*
X111158000Y-78486000D03*
D22*
X150836000Y-78503000D03*
D23*
X148336000Y-78503000D03*
D24*
X148356000Y-61705000D03*
D23*
X150856000Y-61705000D03*
D18*
X149614000Y-69850000D03*
X150382845Y-67993845D03*
X150382845Y-71706155D03*
X152239000Y-67225000D03*
D19*
X152239000Y-69850000D03*
D18*
X152239000Y-72475000D03*
X154095155Y-67993845D03*
X154095155Y-71706155D03*
X154864000Y-69850000D03*
%LPD*%
M02*
