M48
; DRILL file {KiCad 8.0.7} date 2025-01-12T19:07:43+0100
; FORMAT={-:-/ absolute / metric / decimal}
; #@! TF.CreationDate,2025-01-12T19:07:43+01:00
; #@! TF.GenerationSoftware,Kicad,Pcbnew,8.0.7
; #@! TF.FileFunction,Plated,1,2,PTH
FMAT,2
METRIC
; #@! TA.AperFunction,Plated,PTH,ComponentDrill
T1C0.500
; #@! TA.AperFunction,Plated,PTH,ComponentDrill
T2C0.700
; #@! TA.AperFunction,Plated,PTH,ComponentDrill
T3C0.950
; #@! TA.AperFunction,Plated,PTH,ComponentDrill
T4C1.000
; #@! TA.AperFunction,Plated,PTH,ComponentDrill
T5C3.500
%
G90
G05
T1
X111.614Y-69.85
X112.383Y-67.994
X112.383Y-71.706
X114.239Y-67.225
X114.239Y-72.475
X116.095Y-67.994
X116.095Y-71.706
X116.864Y-69.85
X149.614Y-69.85
X150.383Y-67.994
X150.383Y-71.706
X152.239Y-67.225
X152.239Y-72.475
X154.095Y-67.994
X154.095Y-71.706
X154.864Y-69.85
T2
X120.761Y-72.644
X122.661Y-72.644
T3
X111.158Y-78.486
X113.344Y-62.501
X113.658Y-78.486
X115.844Y-62.501
X116.158Y-78.486
X118.344Y-62.501
X118.658Y-78.486
X120.844Y-62.501
X121.158Y-78.486
T4
X127.0Y-60.071
X127.0Y-62.611
X127.0Y-65.151
X127.0Y-67.691
X127.0Y-70.231
X127.0Y-72.771
X133.37Y-78.503
X135.87Y-78.503
X142.24Y-60.071
X142.24Y-62.611
X142.24Y-65.151
X142.24Y-67.691
X142.24Y-70.231
X142.24Y-72.771
X148.336Y-78.503
X148.356Y-61.705
X150.836Y-78.503
X150.856Y-61.705
T5
X114.239Y-69.85
X152.239Y-69.85
M30
