G04 #@! TF.GenerationSoftware,KiCad,Pcbnew,8.0.7*
G04 #@! TF.CreationDate,2025-01-12T19:07:08+01:00*
G04 #@! TF.ProjectId,BT_Lane_FAB,42545f4c-616e-4655-9f46-41422e6b6963,rev?*
G04 #@! TF.SameCoordinates,Original*
G04 #@! TF.FileFunction,Copper,L2,Bot*
G04 #@! TF.FilePolarity,Positive*
%FSLAX46Y46*%
G04 Gerber Fmt 4.6, Leading zero omitted, Abs format (unit mm)*
G04 Created by KiCad (PCBNEW 8.0.7) date 2025-01-12 19:07:08*
%MOMM*%
%LPD*%
G01*
G04 APERTURE LIST*
G04 Aperture macros list*
%AMRoundRect*
0 Rectangle with rounded corners*
0 $1 Rounding radius*
0 $2 $3 $4 $5 $6 $7 $8 $9 X,Y pos of 4 corners*
0 Add a 4 corners polygon primitive as box body*
4,1,4,$2,$3,$4,$5,$6,$7,$8,$9,$2,$3,0*
0 Add four circle primitives for the rounded corners*
1,1,$1+$1,$2,$3*
1,1,$1+$1,$4,$5*
1,1,$1+$1,$6,$7*
1,1,$1+$1,$8,$9*
0 Add four rect primitives between the rounded corners*
20,1,$1+$1,$2,$3,$4,$5,0*
20,1,$1+$1,$4,$5,$6,$7,0*
20,1,$1+$1,$6,$7,$8,$9,0*
20,1,$1+$1,$8,$9,$2,$3,0*%
G04 Aperture macros list end*
G04 #@! TA.AperFunction,ComponentPad*
%ADD10C,1.400000*%
G04 #@! TD*
G04 #@! TA.AperFunction,ComponentPad*
%ADD11O,1.400000X1.400000*%
G04 #@! TD*
G04 #@! TA.AperFunction,ComponentPad*
%ADD12RoundRect,0.250000X0.600000X0.725000X-0.600000X0.725000X-0.600000X-0.725000X0.600000X-0.725000X0*%
G04 #@! TD*
G04 #@! TA.AperFunction,ComponentPad*
%ADD13O,1.700000X1.950000*%
G04 #@! TD*
G04 #@! TA.AperFunction,ComponentPad*
%ADD14C,0.800000*%
G04 #@! TD*
G04 #@! TA.AperFunction,ComponentPad*
%ADD15C,7.000000*%
G04 #@! TD*
G04 #@! TA.AperFunction,ComponentPad*
%ADD16R,1.700000X1.700000*%
G04 #@! TD*
G04 #@! TA.AperFunction,ComponentPad*
%ADD17O,1.700000X1.700000*%
G04 #@! TD*
G04 #@! TA.AperFunction,ComponentPad*
%ADD18RoundRect,0.250000X0.600000X0.750000X-0.600000X0.750000X-0.600000X-0.750000X0.600000X-0.750000X0*%
G04 #@! TD*
G04 #@! TA.AperFunction,ComponentPad*
%ADD19O,1.700000X2.000000*%
G04 #@! TD*
G04 #@! TA.AperFunction,ComponentPad*
%ADD20RoundRect,0.250000X-0.600000X-0.750000X0.600000X-0.750000X0.600000X0.750000X-0.600000X0.750000X0*%
G04 #@! TD*
G04 #@! TA.AperFunction,Conductor*
%ADD21C,1.000000*%
G04 #@! TD*
G04 #@! TA.AperFunction,Conductor*
%ADD22C,0.200000*%
G04 #@! TD*
G04 APERTURE END LIST*
D10*
X120761000Y-72644000D03*
D11*
X122661000Y-72644000D03*
D12*
X120844000Y-62501000D03*
D13*
X118344000Y-62501000D03*
X115844000Y-62501000D03*
X113344000Y-62501000D03*
D14*
X111614000Y-69850000D03*
X112382845Y-67993845D03*
X112382845Y-71706155D03*
X114239000Y-67225000D03*
D15*
X114239000Y-69850000D03*
D14*
X114239000Y-72475000D03*
X116095155Y-67993845D03*
X116095155Y-71706155D03*
X116864000Y-69850000D03*
D16*
X142240000Y-72771000D03*
D17*
X142240000Y-70231000D03*
X142240000Y-67691000D03*
X142240000Y-65151000D03*
X142240000Y-62611000D03*
X142240000Y-60071000D03*
X127000000Y-60071000D03*
X127000000Y-62611000D03*
X127000000Y-65151000D03*
X127000000Y-67691000D03*
X127000000Y-70231000D03*
X127000000Y-72771000D03*
D18*
X135870000Y-78503000D03*
D19*
X133370000Y-78503000D03*
D12*
X121158000Y-78486000D03*
D13*
X118658000Y-78486000D03*
X116158000Y-78486000D03*
X113658000Y-78486000D03*
X111158000Y-78486000D03*
D18*
X150836000Y-78503000D03*
D19*
X148336000Y-78503000D03*
D20*
X148356000Y-61705000D03*
D19*
X150856000Y-61705000D03*
D14*
X149614000Y-69850000D03*
X150382845Y-67993845D03*
X150382845Y-71706155D03*
X152239000Y-67225000D03*
D15*
X152239000Y-69850000D03*
D14*
X152239000Y-72475000D03*
X154095155Y-67993845D03*
X154095155Y-71706155D03*
X154864000Y-69850000D03*
D21*
X144399000Y-70231000D02*
X142240000Y-70231000D01*
X150856000Y-61705000D02*
X150856000Y-63774000D01*
X150856000Y-63774000D02*
X144399000Y-70231000D01*
X148356000Y-63754000D02*
X148356000Y-61705000D01*
X144399000Y-67691000D02*
X148336000Y-63754000D01*
X142240000Y-67691000D02*
X144399000Y-67691000D01*
X148336000Y-63754000D02*
X148356000Y-63754000D01*
D22*
X122661000Y-72644000D02*
X124185000Y-74168000D01*
X124185000Y-74168000D02*
X140843000Y-74168000D01*
X140843000Y-74168000D02*
X142240000Y-72771000D01*
X125349000Y-60960000D02*
X127000000Y-62611000D01*
X117385000Y-60960000D02*
X125349000Y-60960000D01*
X115844000Y-62501000D02*
X117385000Y-60960000D01*
X115774000Y-60071000D02*
X127000000Y-60071000D01*
X113344000Y-62501000D02*
X115774000Y-60071000D01*
X133353000Y-78232000D02*
X133370000Y-78249000D01*
X121078000Y-78232000D02*
X133353000Y-78232000D01*
X148630000Y-78740000D02*
X148590000Y-78740000D01*
X118578000Y-77764000D02*
X120142000Y-76200000D01*
X118578000Y-78232000D02*
X118578000Y-77764000D01*
X146307000Y-76200000D02*
X148356000Y-78249000D01*
X120142000Y-76200000D02*
X146307000Y-76200000D01*
X147845000Y-61705000D02*
X148356000Y-61705000D01*
G04 #@! TA.AperFunction,Conductor*
G36*
X125609174Y-58632185D02*
G01*
X125654929Y-58684989D01*
X125664873Y-58754147D01*
X125635848Y-58817703D01*
X125629816Y-58824181D01*
X125597922Y-58856074D01*
X125597906Y-58856092D01*
X125549460Y-58920810D01*
X125493527Y-58962682D01*
X125450193Y-58970500D01*
X115860611Y-58970500D01*
X115687389Y-58970500D01*
X115647728Y-58976781D01*
X115516302Y-58997597D01*
X115351552Y-59051128D01*
X115197211Y-59129768D01*
X115117256Y-59187859D01*
X115057072Y-59231586D01*
X115057070Y-59231588D01*
X115057069Y-59231588D01*
X113771743Y-60516913D01*
X113710420Y-60550398D01*
X113667877Y-60552170D01*
X113570588Y-60539362D01*
X113465289Y-60525500D01*
X113465288Y-60525500D01*
X113222712Y-60525500D01*
X113222711Y-60525500D01*
X112982214Y-60557161D01*
X112747895Y-60619947D01*
X112523794Y-60712773D01*
X112523785Y-60712777D01*
X112313706Y-60834067D01*
X112121263Y-60981733D01*
X112121256Y-60981739D01*
X111949739Y-61153256D01*
X111949733Y-61153263D01*
X111802067Y-61345706D01*
X111680777Y-61555785D01*
X111680773Y-61555794D01*
X111587947Y-61779895D01*
X111525161Y-62014214D01*
X111493500Y-62254711D01*
X111493500Y-62747288D01*
X111525161Y-62987785D01*
X111587947Y-63222104D01*
X111654050Y-63381689D01*
X111680776Y-63446212D01*
X111802064Y-63656289D01*
X111802066Y-63656292D01*
X111802067Y-63656293D01*
X111949733Y-63848736D01*
X111949739Y-63848743D01*
X112121256Y-64020260D01*
X112121263Y-64020266D01*
X112192073Y-64074600D01*
X112313711Y-64167936D01*
X112523788Y-64289224D01*
X112670505Y-64349996D01*
X112743677Y-64380305D01*
X112747900Y-64382054D01*
X112982211Y-64444838D01*
X113162586Y-64468584D01*
X113222711Y-64476500D01*
X113222712Y-64476500D01*
X113465289Y-64476500D01*
X113513388Y-64470167D01*
X113705789Y-64444838D01*
X113940100Y-64382054D01*
X114164212Y-64289224D01*
X114374289Y-64167936D01*
X114518516Y-64057266D01*
X114583683Y-64032074D01*
X114652127Y-64046112D01*
X114669476Y-64057261D01*
X114813711Y-64167936D01*
X115023788Y-64289224D01*
X115170505Y-64349996D01*
X115243677Y-64380305D01*
X115247900Y-64382054D01*
X115482211Y-64444838D01*
X115662586Y-64468584D01*
X115722711Y-64476500D01*
X115722712Y-64476500D01*
X115965289Y-64476500D01*
X116013388Y-64470167D01*
X116205789Y-64444838D01*
X116440100Y-64382054D01*
X116664212Y-64289224D01*
X116874289Y-64167936D01*
X117066738Y-64020265D01*
X117155613Y-63931389D01*
X117216932Y-63897907D01*
X117286624Y-63902891D01*
X117316176Y-63918755D01*
X117479208Y-64037203D01*
X117710619Y-64155115D01*
X117710622Y-64155116D01*
X117943999Y-64230943D01*
X117944000Y-64230943D01*
X117944000Y-62758180D01*
X117963905Y-62792657D01*
X118052343Y-62881095D01*
X118160657Y-62943630D01*
X118281465Y-62976000D01*
X118406535Y-62976000D01*
X118527343Y-62943630D01*
X118635657Y-62881095D01*
X118724095Y-62792657D01*
X118744000Y-62758180D01*
X118744000Y-64230943D01*
X118977377Y-64155116D01*
X118977380Y-64155115D01*
X119180151Y-64051797D01*
X119248820Y-64038901D01*
X119313560Y-64065177D01*
X119324127Y-64074600D01*
X119439346Y-64189819D01*
X119439350Y-64189822D01*
X119439354Y-64189825D01*
X119578603Y-64286297D01*
X119624374Y-64318007D01*
X119829317Y-64411096D01*
X119829321Y-64411097D01*
X120047579Y-64466094D01*
X120047581Y-64466094D01*
X120047588Y-64466096D01*
X120179783Y-64476500D01*
X121508216Y-64476499D01*
X121640412Y-64466096D01*
X121858683Y-64411096D01*
X122063626Y-64318007D01*
X122248654Y-64189819D01*
X122407819Y-64030654D01*
X122536007Y-63845626D01*
X122629096Y-63640683D01*
X122684096Y-63422412D01*
X122694500Y-63290217D01*
X122694499Y-62184499D01*
X122714184Y-62117461D01*
X122766987Y-62071706D01*
X122818499Y-62060500D01*
X124841796Y-62060500D01*
X124908835Y-62080185D01*
X124929477Y-62096819D01*
X125124680Y-62292022D01*
X125158165Y-62353345D01*
X125160683Y-62388549D01*
X125144773Y-62610998D01*
X125144773Y-62611001D01*
X125163657Y-62875027D01*
X125163658Y-62875034D01*
X125219921Y-63133673D01*
X125312426Y-63381690D01*
X125312428Y-63381694D01*
X125439280Y-63614005D01*
X125439285Y-63614013D01*
X125583520Y-63806690D01*
X125607937Y-63872155D01*
X125593085Y-63940427D01*
X125583520Y-63955310D01*
X125439285Y-64147986D01*
X125439280Y-64147994D01*
X125312428Y-64380305D01*
X125312426Y-64380309D01*
X125219921Y-64628326D01*
X125163658Y-64886965D01*
X125163657Y-64886972D01*
X125144773Y-65150998D01*
X125144773Y-65151001D01*
X125163657Y-65415027D01*
X125163658Y-65415034D01*
X125219921Y-65673673D01*
X125312426Y-65921690D01*
X125312428Y-65921694D01*
X125439280Y-66154005D01*
X125439285Y-66154013D01*
X125597906Y-66365907D01*
X125597922Y-66365925D01*
X125713142Y-66481145D01*
X125746627Y-66542468D01*
X125741643Y-66612160D01*
X125719752Y-66649357D01*
X125660994Y-66718153D01*
X125660992Y-66718157D01*
X125525292Y-66939599D01*
X125525290Y-66939602D01*
X125425902Y-67179547D01*
X125399146Y-67290999D01*
X125399146Y-67291000D01*
X126692894Y-67291000D01*
X126599901Y-67383993D01*
X126534075Y-67498007D01*
X126500000Y-67625174D01*
X126500000Y-67756826D01*
X126534075Y-67883993D01*
X126599901Y-67998007D01*
X126692894Y-68091000D01*
X125399146Y-68091000D01*
X125425902Y-68202452D01*
X125525290Y-68442397D01*
X125525292Y-68442400D01*
X125660990Y-68663840D01*
X125660991Y-68663841D01*
X125719752Y-68732641D01*
X125748323Y-68796402D01*
X125737886Y-68865488D01*
X125713143Y-68900854D01*
X125597922Y-69016074D01*
X125597906Y-69016092D01*
X125439285Y-69227986D01*
X125439280Y-69227994D01*
X125312428Y-69460305D01*
X125312426Y-69460309D01*
X125219921Y-69708326D01*
X125163658Y-69966965D01*
X125163657Y-69966972D01*
X125144773Y-70230998D01*
X125144773Y-70231001D01*
X125163657Y-70495027D01*
X125163658Y-70495034D01*
X125219921Y-70753673D01*
X125312426Y-71001690D01*
X125312428Y-71001694D01*
X125439280Y-71234005D01*
X125439285Y-71234013D01*
X125583520Y-71426690D01*
X125607937Y-71492155D01*
X125593085Y-71560427D01*
X125583520Y-71575310D01*
X125439285Y-71767986D01*
X125439280Y-71767994D01*
X125312428Y-72000305D01*
X125312426Y-72000309D01*
X125219921Y-72248326D01*
X125163658Y-72506965D01*
X125163657Y-72506972D01*
X125144773Y-72770998D01*
X125144773Y-72771001D01*
X125156478Y-72934654D01*
X125141626Y-73002927D01*
X125092221Y-73052332D01*
X125032794Y-73067500D01*
X124692204Y-73067500D01*
X124625165Y-73047815D01*
X124604523Y-73031181D01*
X124396108Y-72822766D01*
X124362623Y-72761443D01*
X124360136Y-72725817D01*
X124366268Y-72644001D01*
X124366268Y-72643996D01*
X124347222Y-72389844D01*
X124347222Y-72389843D01*
X124290508Y-72141363D01*
X124197393Y-71904112D01*
X124069959Y-71683388D01*
X123911050Y-71484123D01*
X123724217Y-71310768D01*
X123513634Y-71167195D01*
X123513628Y-71167192D01*
X123513627Y-71167191D01*
X123513626Y-71167190D01*
X123284006Y-71056612D01*
X123284008Y-71056612D01*
X123040466Y-70981489D01*
X123040462Y-70981488D01*
X123040458Y-70981487D01*
X122919231Y-70963214D01*
X122788440Y-70943500D01*
X122788435Y-70943500D01*
X122533565Y-70943500D01*
X122533559Y-70943500D01*
X122376609Y-70967157D01*
X122281542Y-70981487D01*
X122281539Y-70981488D01*
X122281533Y-70981489D01*
X122037992Y-71056612D01*
X121808371Y-71167192D01*
X121808361Y-71167197D01*
X121780850Y-71185954D01*
X121714370Y-71207453D01*
X121646821Y-71189598D01*
X121641150Y-71185954D01*
X121613638Y-71167197D01*
X121613628Y-71167192D01*
X121384006Y-71056612D01*
X121384008Y-71056612D01*
X121140466Y-70981489D01*
X121140462Y-70981488D01*
X121140458Y-70981487D01*
X121019231Y-70963214D01*
X120888440Y-70943500D01*
X120888435Y-70943500D01*
X120633565Y-70943500D01*
X120633559Y-70943500D01*
X120476609Y-70967157D01*
X120381542Y-70981487D01*
X120381539Y-70981488D01*
X120381533Y-70981489D01*
X120137992Y-71056612D01*
X119908373Y-71167190D01*
X119908372Y-71167191D01*
X119697782Y-71310768D01*
X119510952Y-71484121D01*
X119510950Y-71484123D01*
X119352041Y-71683388D01*
X119224608Y-71904109D01*
X119131492Y-72141362D01*
X119131490Y-72141369D01*
X119074777Y-72389845D01*
X119055732Y-72643995D01*
X119055732Y-72644004D01*
X119074777Y-72898154D01*
X119112894Y-73065157D01*
X119131492Y-73146637D01*
X119224607Y-73383888D01*
X119352041Y-73604612D01*
X119510950Y-73803877D01*
X119697783Y-73977232D01*
X119908366Y-74120805D01*
X119908371Y-74120807D01*
X119908372Y-74120808D01*
X119908373Y-74120809D01*
X120019672Y-74174407D01*
X120137992Y-74231387D01*
X120137993Y-74231387D01*
X120137996Y-74231389D01*
X120381542Y-74306513D01*
X120633565Y-74344500D01*
X120888435Y-74344500D01*
X121140458Y-74306513D01*
X121384004Y-74231389D01*
X121613634Y-74120805D01*
X121641148Y-74102045D01*
X121707627Y-74080545D01*
X121775177Y-74098398D01*
X121780852Y-74102046D01*
X121808363Y-74120803D01*
X121808373Y-74120809D01*
X121919672Y-74174407D01*
X122037992Y-74231387D01*
X122037993Y-74231387D01*
X122037996Y-74231389D01*
X122281542Y-74306513D01*
X122533565Y-74344500D01*
X122753796Y-74344500D01*
X122820835Y-74364185D01*
X122841477Y-74380819D01*
X123348477Y-74887819D01*
X123381962Y-74949142D01*
X123376978Y-75018834D01*
X123335106Y-75074767D01*
X123269642Y-75099184D01*
X123260796Y-75099500D01*
X120228611Y-75099500D01*
X120055389Y-75099500D01*
X120015728Y-75105781D01*
X119884302Y-75126597D01*
X119719552Y-75180128D01*
X119565211Y-75258768D01*
X119485256Y-75316859D01*
X119425072Y-75360586D01*
X119425070Y-75360588D01*
X119425069Y-75360588D01*
X118247694Y-76537962D01*
X118192108Y-76570055D01*
X118061904Y-76604944D01*
X117837799Y-76697770D01*
X117837785Y-76697777D01*
X117698432Y-76778233D01*
X117641568Y-76811064D01*
X117627706Y-76819067D01*
X117483486Y-76929731D01*
X117418317Y-76954925D01*
X117349872Y-76940887D01*
X117332514Y-76929731D01*
X117188293Y-76819067D01*
X117188292Y-76819066D01*
X117188289Y-76819064D01*
X116978212Y-76697776D01*
X116958901Y-76689777D01*
X116754104Y-76604947D01*
X116519785Y-76542161D01*
X116279289Y-76510500D01*
X116279288Y-76510500D01*
X116036712Y-76510500D01*
X116036711Y-76510500D01*
X115796214Y-76542161D01*
X115561895Y-76604947D01*
X115337794Y-76697773D01*
X115337785Y-76697777D01*
X115198432Y-76778233D01*
X115141568Y-76811064D01*
X115127706Y-76819067D01*
X114935264Y-76966732D01*
X114846388Y-77055608D01*
X114785064Y-77089092D01*
X114715373Y-77084108D01*
X114685822Y-77068244D01*
X114522791Y-76949796D01*
X114291382Y-76831886D01*
X114058000Y-76756055D01*
X114058000Y-78228819D01*
X114038095Y-78194343D01*
X113949657Y-78105905D01*
X113841343Y-78043370D01*
X113720535Y-78011000D01*
X113595465Y-78011000D01*
X113474657Y-78043370D01*
X113366343Y-78105905D01*
X113277905Y-78194343D01*
X113258000Y-78228819D01*
X113258000Y-76756055D01*
X113257999Y-76756055D01*
X113024617Y-76831886D01*
X112793208Y-76949796D01*
X112630177Y-77068244D01*
X112564370Y-77091724D01*
X112496317Y-77075898D01*
X112469611Y-77055607D01*
X112380743Y-76966739D01*
X112380736Y-76966733D01*
X112188293Y-76819067D01*
X112188292Y-76819066D01*
X112188289Y-76819064D01*
X111978212Y-76697776D01*
X111958901Y-76689777D01*
X111754104Y-76604947D01*
X111519785Y-76542161D01*
X111279289Y-76510500D01*
X111279288Y-76510500D01*
X111036712Y-76510500D01*
X111036711Y-76510500D01*
X110796214Y-76542161D01*
X110561895Y-76604947D01*
X110337794Y-76697773D01*
X110337785Y-76697777D01*
X110198432Y-76778233D01*
X110141568Y-76811064D01*
X110127706Y-76819067D01*
X109935263Y-76966733D01*
X109935256Y-76966739D01*
X109763739Y-77138256D01*
X109763733Y-77138263D01*
X109616067Y-77330706D01*
X109494777Y-77540785D01*
X109494773Y-77540794D01*
X109401947Y-77764895D01*
X109339161Y-77999214D01*
X109307500Y-78239711D01*
X109307500Y-78732288D01*
X109339161Y-78972785D01*
X109401947Y-79207104D01*
X109442325Y-79304584D01*
X109494776Y-79431212D01*
X109616064Y-79641289D01*
X109616066Y-79641292D01*
X109616067Y-79641293D01*
X109763733Y-79833736D01*
X109763739Y-79833743D01*
X109935256Y-80005260D01*
X109935263Y-80005266D01*
X109989999Y-80047266D01*
X110127711Y-80152936D01*
X110337788Y-80274224D01*
X110561900Y-80367054D01*
X110796211Y-80429838D01*
X110976586Y-80453584D01*
X111036711Y-80461500D01*
X111036712Y-80461500D01*
X111279289Y-80461500D01*
X111327388Y-80455167D01*
X111519789Y-80429838D01*
X111754100Y-80367054D01*
X111978212Y-80274224D01*
X112188289Y-80152936D01*
X112380738Y-80005265D01*
X112469613Y-79916389D01*
X112530932Y-79882907D01*
X112600624Y-79887891D01*
X112630176Y-79903755D01*
X112793208Y-80022203D01*
X113024619Y-80140115D01*
X113024622Y-80140116D01*
X113257999Y-80215943D01*
X113258000Y-80215943D01*
X113258000Y-78743180D01*
X113277905Y-78777657D01*
X113366343Y-78866095D01*
X113474657Y-78928630D01*
X113595465Y-78961000D01*
X113720535Y-78961000D01*
X113841343Y-78928630D01*
X113949657Y-78866095D01*
X114038095Y-78777657D01*
X114058000Y-78743180D01*
X114058000Y-80215943D01*
X114291377Y-80140116D01*
X114291380Y-80140115D01*
X114522788Y-80022205D01*
X114685821Y-79903755D01*
X114751628Y-79880275D01*
X114819682Y-79896100D01*
X114846388Y-79916392D01*
X114935256Y-80005260D01*
X114935263Y-80005266D01*
X114989999Y-80047266D01*
X115127711Y-80152936D01*
X115337788Y-80274224D01*
X115561900Y-80367054D01*
X115796211Y-80429838D01*
X115976586Y-80453584D01*
X116036711Y-80461500D01*
X116036712Y-80461500D01*
X116279289Y-80461500D01*
X116327388Y-80455167D01*
X116519789Y-80429838D01*
X116754100Y-80367054D01*
X116978212Y-80274224D01*
X117188289Y-80152936D01*
X117332516Y-80042266D01*
X117397683Y-80017074D01*
X117466127Y-80031112D01*
X117483476Y-80042261D01*
X117627711Y-80152936D01*
X117837788Y-80274224D01*
X118061900Y-80367054D01*
X118296211Y-80429838D01*
X118476586Y-80453584D01*
X118536711Y-80461500D01*
X118536712Y-80461500D01*
X118779289Y-80461500D01*
X118827388Y-80455167D01*
X119019789Y-80429838D01*
X119254100Y-80367054D01*
X119478212Y-80274224D01*
X119638512Y-80181674D01*
X119706406Y-80165203D01*
X119771123Y-80187135D01*
X119938367Y-80303003D01*
X119938371Y-80303005D01*
X119938374Y-80303007D01*
X120143317Y-80396096D01*
X120143321Y-80396097D01*
X120361579Y-80451094D01*
X120361581Y-80451094D01*
X120361588Y-80451096D01*
X120493783Y-80461500D01*
X121822216Y-80461499D01*
X121954412Y-80451096D01*
X122172683Y-80396096D01*
X122377626Y-80303007D01*
X122562654Y-80174819D01*
X122721819Y-80015654D01*
X122850007Y-79830626D01*
X122943096Y-79625683D01*
X122981514Y-79473219D01*
X122993362Y-79426202D01*
X123028830Y-79366004D01*
X123091213Y-79334538D01*
X123113603Y-79332500D01*
X131565637Y-79332500D01*
X131632676Y-79352185D01*
X131678431Y-79404989D01*
X131680198Y-79409048D01*
X131706771Y-79473203D01*
X131706779Y-79473219D01*
X131779707Y-79599532D01*
X131828064Y-79683289D01*
X131828066Y-79683292D01*
X131828067Y-79683293D01*
X131975733Y-79875736D01*
X131975739Y-79875743D01*
X132147256Y-80047260D01*
X132147263Y-80047266D01*
X132255433Y-80130267D01*
X132339711Y-80194936D01*
X132549788Y-80316224D01*
X132773900Y-80409054D01*
X133008211Y-80471838D01*
X133188586Y-80495584D01*
X133248711Y-80503500D01*
X133248712Y-80503500D01*
X133491289Y-80503500D01*
X133539388Y-80497167D01*
X133731789Y-80471838D01*
X133966100Y-80409054D01*
X134190212Y-80316224D01*
X134400289Y-80194936D01*
X134509467Y-80111160D01*
X134574635Y-80085966D01*
X134643080Y-80100004D01*
X134663617Y-80113682D01*
X134683826Y-80130267D01*
X134683833Y-80130271D01*
X134866233Y-80227766D01*
X135064165Y-80287808D01*
X135218415Y-80303000D01*
X135470000Y-80303000D01*
X136270000Y-80303000D01*
X136521585Y-80303000D01*
X136675834Y-80287808D01*
X136873766Y-80227766D01*
X137056166Y-80130271D01*
X137056173Y-80130267D01*
X137216055Y-79999055D01*
X137347267Y-79839173D01*
X137347271Y-79839166D01*
X137444766Y-79656766D01*
X137504808Y-79458834D01*
X137520000Y-79304584D01*
X137520000Y-78903000D01*
X136270000Y-78903000D01*
X136270000Y-80303000D01*
X135470000Y-80303000D01*
X135470000Y-78810106D01*
X135562993Y-78903099D01*
X135677007Y-78968925D01*
X135804174Y-79003000D01*
X135935826Y-79003000D01*
X136062993Y-78968925D01*
X136177007Y-78903099D01*
X136270099Y-78810007D01*
X136335925Y-78695993D01*
X136370000Y-78568826D01*
X136370000Y-78437174D01*
X136335925Y-78310007D01*
X136270099Y-78195993D01*
X136177106Y-78103000D01*
X137520000Y-78103000D01*
X137520000Y-77701415D01*
X137504808Y-77547165D01*
X137478517Y-77460495D01*
X137477894Y-77390628D01*
X137515142Y-77331516D01*
X137578436Y-77301925D01*
X137597178Y-77300500D01*
X145799796Y-77300500D01*
X145866835Y-77320185D01*
X145887477Y-77336819D01*
X146476796Y-77926138D01*
X146510281Y-77987461D01*
X146512054Y-78030004D01*
X146485500Y-78231711D01*
X146485500Y-78774288D01*
X146517161Y-79014785D01*
X146579947Y-79249104D01*
X146602928Y-79304584D01*
X146672776Y-79473212D01*
X146794064Y-79683289D01*
X146794066Y-79683292D01*
X146794067Y-79683293D01*
X146941733Y-79875736D01*
X146941739Y-79875743D01*
X147113256Y-80047260D01*
X147113263Y-80047266D01*
X147221433Y-80130267D01*
X147305711Y-80194936D01*
X147515788Y-80316224D01*
X147739900Y-80409054D01*
X147974211Y-80471838D01*
X148154586Y-80495584D01*
X148214711Y-80503500D01*
X148214712Y-80503500D01*
X148457289Y-80503500D01*
X148505388Y-80497167D01*
X148697789Y-80471838D01*
X148932100Y-80409054D01*
X149156212Y-80316224D01*
X149366289Y-80194936D01*
X149475467Y-80111160D01*
X149540635Y-80085966D01*
X149609080Y-80100004D01*
X149629617Y-80113682D01*
X149649826Y-80130267D01*
X149649833Y-80130271D01*
X149832233Y-80227766D01*
X150030165Y-80287808D01*
X150184415Y-80303000D01*
X150436000Y-80303000D01*
X151236000Y-80303000D01*
X151487585Y-80303000D01*
X151641834Y-80287808D01*
X151839766Y-80227766D01*
X152022166Y-80130271D01*
X152022173Y-80130267D01*
X152182055Y-79999055D01*
X152313267Y-79839173D01*
X152313271Y-79839166D01*
X152410766Y-79656766D01*
X152470808Y-79458834D01*
X152486000Y-79304584D01*
X152486000Y-78903000D01*
X151236000Y-78903000D01*
X151236000Y-80303000D01*
X150436000Y-80303000D01*
X150436000Y-78810106D01*
X150528993Y-78903099D01*
X150643007Y-78968925D01*
X150770174Y-79003000D01*
X150901826Y-79003000D01*
X151028993Y-78968925D01*
X151143007Y-78903099D01*
X151236099Y-78810007D01*
X151301925Y-78695993D01*
X151336000Y-78568826D01*
X151336000Y-78437174D01*
X151301925Y-78310007D01*
X151236099Y-78195993D01*
X151143106Y-78103000D01*
X151236000Y-78103000D01*
X152486000Y-78103000D01*
X152486000Y-77701415D01*
X152470808Y-77547165D01*
X152410766Y-77349233D01*
X152313271Y-77166833D01*
X152313267Y-77166826D01*
X152182055Y-77006944D01*
X152022173Y-76875732D01*
X152022166Y-76875728D01*
X151839766Y-76778233D01*
X151641834Y-76718191D01*
X151487585Y-76703000D01*
X151236000Y-76703000D01*
X151236000Y-78103000D01*
X151143106Y-78103000D01*
X151143007Y-78102901D01*
X151028993Y-78037075D01*
X150901826Y-78003000D01*
X150770174Y-78003000D01*
X150643007Y-78037075D01*
X150528993Y-78102901D01*
X150436000Y-78195894D01*
X150436000Y-76703000D01*
X150184415Y-76703000D01*
X150030165Y-76718191D01*
X149832233Y-76778233D01*
X149649834Y-76875728D01*
X149649823Y-76875735D01*
X149629615Y-76892319D01*
X149565304Y-76919630D01*
X149496437Y-76907836D01*
X149475468Y-76894839D01*
X149366288Y-76811063D01*
X149156215Y-76689777D01*
X149156205Y-76689773D01*
X148932104Y-76596947D01*
X148727641Y-76542161D01*
X148697789Y-76534162D01*
X148697788Y-76534161D01*
X148697785Y-76534161D01*
X148457289Y-76502500D01*
X148457288Y-76502500D01*
X148217204Y-76502500D01*
X148150165Y-76482815D01*
X148129523Y-76466181D01*
X147023930Y-75360588D01*
X147023928Y-75360586D01*
X146883788Y-75258768D01*
X146729445Y-75180127D01*
X146564701Y-75126598D01*
X146564699Y-75126597D01*
X146564698Y-75126597D01*
X146433271Y-75105781D01*
X146393611Y-75099500D01*
X146393610Y-75099500D01*
X141767204Y-75099500D01*
X141700165Y-75079815D01*
X141654410Y-75027011D01*
X141644466Y-74957853D01*
X141673491Y-74894297D01*
X141679523Y-74887819D01*
X141909523Y-74657818D01*
X141970846Y-74624333D01*
X141997204Y-74621499D01*
X143148028Y-74621499D01*
X143148036Y-74621499D01*
X143267418Y-74610886D01*
X143463049Y-74554909D01*
X143643407Y-74460698D01*
X143801109Y-74332109D01*
X143929698Y-74174407D01*
X144023909Y-73994049D01*
X144079886Y-73798418D01*
X144090500Y-73679037D01*
X144090499Y-71862964D01*
X144090499Y-71862963D01*
X144090499Y-71862953D01*
X144090412Y-71860991D01*
X144090499Y-71860637D01*
X144090499Y-71860215D01*
X144090603Y-71860215D01*
X144107108Y-71793146D01*
X144157834Y-71745097D01*
X144214290Y-71731500D01*
X144517097Y-71731500D01*
X144750368Y-71694553D01*
X144784730Y-71683388D01*
X144974992Y-71621568D01*
X145185434Y-71514343D01*
X145376510Y-71375517D01*
X147561855Y-69190170D01*
X147623176Y-69156687D01*
X147692868Y-69161671D01*
X147748801Y-69203543D01*
X147773218Y-69269007D01*
X147772345Y-69294984D01*
X147752913Y-69434292D01*
X147752912Y-69434297D01*
X147752912Y-69434303D01*
X147733693Y-69850000D01*
X147752912Y-70265697D01*
X147752912Y-70265702D01*
X147752913Y-70265707D01*
X147810403Y-70677845D01*
X147810405Y-70677853D01*
X147905679Y-71082933D01*
X148037929Y-71477514D01*
X148206010Y-71858177D01*
X148206020Y-71858198D01*
X148408506Y-72221731D01*
X148408509Y-72221735D01*
X148408511Y-72221739D01*
X148643687Y-72565054D01*
X148643689Y-72565056D01*
X148643696Y-72565066D01*
X148857688Y-72822766D01*
X148909538Y-72885206D01*
X149203794Y-73179462D01*
X149203805Y-73179471D01*
X149523933Y-73445303D01*
X149523939Y-73445307D01*
X149523946Y-73445313D01*
X149867261Y-73680489D01*
X149867267Y-73680492D01*
X149867268Y-73680493D01*
X150088785Y-73803877D01*
X150230812Y-73882985D01*
X150421153Y-73967029D01*
X150611485Y-74051070D01*
X150611488Y-74051071D01*
X150611495Y-74051074D01*
X151006064Y-74183320D01*
X151411152Y-74278596D01*
X151823303Y-74336088D01*
X152239000Y-74355307D01*
X152654697Y-74336088D01*
X153066848Y-74278596D01*
X153471936Y-74183320D01*
X153866505Y-74051074D01*
X154247188Y-73882985D01*
X154610739Y-73680489D01*
X154954054Y-73445313D01*
X155274206Y-73179462D01*
X155568462Y-72885206D01*
X155834313Y-72565054D01*
X156069489Y-72221739D01*
X156271985Y-71858188D01*
X156440074Y-71477505D01*
X156572320Y-71082936D01*
X156667596Y-70677848D01*
X156725088Y-70265697D01*
X156744307Y-69850000D01*
X156725088Y-69434303D01*
X156667596Y-69022152D01*
X156572320Y-68617064D01*
X156440074Y-68222495D01*
X156271985Y-67841812D01*
X156187982Y-67690998D01*
X156069493Y-67478268D01*
X156069492Y-67478267D01*
X156069489Y-67478261D01*
X155834313Y-67134946D01*
X155834307Y-67134939D01*
X155834303Y-67134933D01*
X155568471Y-66814805D01*
X155568462Y-66814794D01*
X155274206Y-66520538D01*
X155225902Y-66480427D01*
X154954066Y-66254696D01*
X154954056Y-66254689D01*
X154954054Y-66254687D01*
X154610739Y-66019511D01*
X154610735Y-66019509D01*
X154610731Y-66019506D01*
X154247198Y-65817020D01*
X154247177Y-65817010D01*
X153866514Y-65648929D01*
X153471933Y-65516679D01*
X153066853Y-65421405D01*
X153066845Y-65421403D01*
X152654707Y-65363913D01*
X152654702Y-65363912D01*
X152654697Y-65363912D01*
X152239000Y-65344693D01*
X151823303Y-65363912D01*
X151823297Y-65363912D01*
X151823292Y-65363913D01*
X151683984Y-65383345D01*
X151614868Y-65373111D01*
X151562256Y-65327134D01*
X151542854Y-65260012D01*
X151562820Y-65193056D01*
X151579166Y-65172860D01*
X152000517Y-64751510D01*
X152139343Y-64560434D01*
X152246568Y-64349992D01*
X152319553Y-64125368D01*
X152330339Y-64057268D01*
X152356500Y-63892097D01*
X152356500Y-62981381D01*
X152376185Y-62914342D01*
X152382126Y-62905893D01*
X152384441Y-62902875D01*
X152397936Y-62885289D01*
X152519224Y-62675212D01*
X152612054Y-62451100D01*
X152674838Y-62216789D01*
X152706500Y-61976288D01*
X152706500Y-61433712D01*
X152674838Y-61193211D01*
X152612054Y-60958900D01*
X152519224Y-60734788D01*
X152397936Y-60524711D01*
X152250265Y-60332262D01*
X152250260Y-60332256D01*
X152078743Y-60160739D01*
X152078736Y-60160733D01*
X151886293Y-60013067D01*
X151886292Y-60013066D01*
X151886289Y-60013064D01*
X151676212Y-59891776D01*
X151676205Y-59891773D01*
X151452104Y-59798947D01*
X151217785Y-59736161D01*
X150977289Y-59704500D01*
X150977288Y-59704500D01*
X150734712Y-59704500D01*
X150734711Y-59704500D01*
X150494214Y-59736161D01*
X150259895Y-59798947D01*
X150035794Y-59891773D01*
X150035784Y-59891777D01*
X149875492Y-59984322D01*
X149807591Y-60000795D01*
X149742876Y-59978863D01*
X149575632Y-59862997D01*
X149575630Y-59862995D01*
X149575626Y-59862993D01*
X149434621Y-59798946D01*
X149370681Y-59769903D01*
X149370678Y-59769902D01*
X149152420Y-59714905D01*
X149152413Y-59714904D01*
X149108347Y-59711436D01*
X149020217Y-59704500D01*
X149020215Y-59704500D01*
X147691791Y-59704500D01*
X147691776Y-59704501D01*
X147559586Y-59714904D01*
X147559579Y-59714905D01*
X147341321Y-59769902D01*
X147341318Y-59769903D01*
X147136377Y-59862991D01*
X147136367Y-59862997D01*
X146951354Y-59991174D01*
X146951342Y-59991184D01*
X146792184Y-60150342D01*
X146792174Y-60150354D01*
X146663997Y-60335367D01*
X146663991Y-60335377D01*
X146570903Y-60540318D01*
X146570902Y-60540321D01*
X146515905Y-60758579D01*
X146515904Y-60758586D01*
X146505500Y-60890777D01*
X146505500Y-62519208D01*
X146505501Y-62519223D01*
X146515904Y-62651413D01*
X146515905Y-62651420D01*
X146570902Y-62869678D01*
X146570903Y-62869681D01*
X146663991Y-63074622D01*
X146663995Y-63074630D01*
X146698904Y-63125018D01*
X146720900Y-63191334D01*
X146703552Y-63259016D01*
X146684656Y-63283314D01*
X144242454Y-65725517D01*
X144181131Y-65759002D01*
X144111439Y-65754018D01*
X144055506Y-65712146D01*
X144031089Y-65646682D01*
X144033606Y-65611483D01*
X144076343Y-65415026D01*
X144095227Y-65151000D01*
X144076343Y-64886974D01*
X144020077Y-64628322D01*
X143927574Y-64380311D01*
X143911018Y-64349992D01*
X143800719Y-64147994D01*
X143800714Y-64147986D01*
X143656479Y-63955310D01*
X143632062Y-63889846D01*
X143646914Y-63821573D01*
X143656479Y-63806690D01*
X143769352Y-63655908D01*
X143800716Y-63614011D01*
X143927574Y-63381689D01*
X144020077Y-63133678D01*
X144076343Y-62875026D01*
X144095227Y-62611000D01*
X144076343Y-62346974D01*
X144026416Y-62117461D01*
X144020078Y-62088326D01*
X144013879Y-62071706D01*
X143927574Y-61840311D01*
X143800716Y-61607989D01*
X143800714Y-61607986D01*
X143656479Y-61415310D01*
X143632062Y-61349846D01*
X143646914Y-61281573D01*
X143656479Y-61266690D01*
X143741389Y-61153263D01*
X143800716Y-61074011D01*
X143927574Y-60841689D01*
X144020077Y-60593678D01*
X144076343Y-60335026D01*
X144095227Y-60071000D01*
X144076343Y-59806974D01*
X144056315Y-59714904D01*
X144020078Y-59548326D01*
X143927573Y-59300309D01*
X143927571Y-59300305D01*
X143800719Y-59067994D01*
X143800714Y-59067986D01*
X143642093Y-58856092D01*
X143642077Y-58856074D01*
X143610184Y-58824181D01*
X143576699Y-58762858D01*
X143581683Y-58693166D01*
X143623555Y-58637233D01*
X143689019Y-58612816D01*
X143697865Y-58612500D01*
X157960500Y-58612500D01*
X158027539Y-58632185D01*
X158073294Y-58684989D01*
X158084500Y-58736500D01*
X158084500Y-80963500D01*
X158064815Y-81030539D01*
X158012011Y-81076294D01*
X157960500Y-81087500D01*
X108393500Y-81087500D01*
X108326461Y-81067815D01*
X108280706Y-81015011D01*
X108269500Y-80963500D01*
X108269500Y-69850000D01*
X109733693Y-69850000D01*
X109752912Y-70265697D01*
X109752912Y-70265702D01*
X109752913Y-70265707D01*
X109810403Y-70677845D01*
X109810405Y-70677853D01*
X109905679Y-71082933D01*
X110037929Y-71477514D01*
X110206010Y-71858177D01*
X110206020Y-71858198D01*
X110408506Y-72221731D01*
X110408509Y-72221735D01*
X110408511Y-72221739D01*
X110643687Y-72565054D01*
X110643689Y-72565056D01*
X110643696Y-72565066D01*
X110857688Y-72822766D01*
X110909538Y-72885206D01*
X111203794Y-73179462D01*
X111203805Y-73179471D01*
X111523933Y-73445303D01*
X111523939Y-73445307D01*
X111523946Y-73445313D01*
X111867261Y-73680489D01*
X111867267Y-73680492D01*
X111867268Y-73680493D01*
X112088785Y-73803877D01*
X112230812Y-73882985D01*
X112421153Y-73967029D01*
X112611485Y-74051070D01*
X112611488Y-74051071D01*
X112611495Y-74051074D01*
X113006064Y-74183320D01*
X113411152Y-74278596D01*
X113823303Y-74336088D01*
X114239000Y-74355307D01*
X114654697Y-74336088D01*
X115066848Y-74278596D01*
X115471936Y-74183320D01*
X115866505Y-74051074D01*
X116247188Y-73882985D01*
X116610739Y-73680489D01*
X116954054Y-73445313D01*
X117274206Y-73179462D01*
X117568462Y-72885206D01*
X117834313Y-72565054D01*
X118069489Y-72221739D01*
X118271985Y-71858188D01*
X118440074Y-71477505D01*
X118572320Y-71082936D01*
X118667596Y-70677848D01*
X118725088Y-70265697D01*
X118744307Y-69850000D01*
X118725088Y-69434303D01*
X118667596Y-69022152D01*
X118572320Y-68617064D01*
X118440074Y-68222495D01*
X118271985Y-67841812D01*
X118187982Y-67690998D01*
X118069493Y-67478268D01*
X118069492Y-67478267D01*
X118069489Y-67478261D01*
X117834313Y-67134946D01*
X117834307Y-67134939D01*
X117834303Y-67134933D01*
X117568471Y-66814805D01*
X117568462Y-66814794D01*
X117274206Y-66520538D01*
X117225902Y-66480427D01*
X116954066Y-66254696D01*
X116954056Y-66254689D01*
X116954054Y-66254687D01*
X116610739Y-66019511D01*
X116610735Y-66019509D01*
X116610731Y-66019506D01*
X116247198Y-65817020D01*
X116247177Y-65817010D01*
X115866514Y-65648929D01*
X115471933Y-65516679D01*
X115066853Y-65421405D01*
X115066845Y-65421403D01*
X114654707Y-65363913D01*
X114654702Y-65363912D01*
X114654697Y-65363912D01*
X114239000Y-65344693D01*
X113823303Y-65363912D01*
X113823297Y-65363912D01*
X113823292Y-65363913D01*
X113411154Y-65421403D01*
X113411146Y-65421405D01*
X113006066Y-65516679D01*
X112611485Y-65648929D01*
X112230822Y-65817010D01*
X112230801Y-65817020D01*
X111867268Y-66019506D01*
X111867262Y-66019510D01*
X111523943Y-66254689D01*
X111523933Y-66254696D01*
X111203805Y-66520528D01*
X111203785Y-66520546D01*
X110909546Y-66814785D01*
X110909528Y-66814805D01*
X110643696Y-67134933D01*
X110643689Y-67134943D01*
X110408510Y-67478262D01*
X110408506Y-67478268D01*
X110206020Y-67841801D01*
X110206010Y-67841822D01*
X110037929Y-68222485D01*
X109905679Y-68617066D01*
X109810405Y-69022146D01*
X109810403Y-69022154D01*
X109752913Y-69434292D01*
X109752912Y-69434297D01*
X109752912Y-69434303D01*
X109733693Y-69850000D01*
X108269500Y-69850000D01*
X108269500Y-58736500D01*
X108289185Y-58669461D01*
X108341989Y-58623706D01*
X108393500Y-58612500D01*
X125542135Y-58612500D01*
X125609174Y-58632185D01*
G37*
G04 #@! TD.AperFunction*
G04 #@! TA.AperFunction,Conductor*
G36*
X140849174Y-58632185D02*
G01*
X140894929Y-58684989D01*
X140904873Y-58754147D01*
X140875848Y-58817703D01*
X140869816Y-58824181D01*
X140837922Y-58856074D01*
X140837906Y-58856092D01*
X140679285Y-59067986D01*
X140679280Y-59067994D01*
X140552428Y-59300305D01*
X140552426Y-59300309D01*
X140459921Y-59548326D01*
X140403658Y-59806965D01*
X140403657Y-59806972D01*
X140384773Y-60070998D01*
X140384773Y-60071001D01*
X140403657Y-60335027D01*
X140403658Y-60335034D01*
X140459921Y-60593673D01*
X140552426Y-60841690D01*
X140552428Y-60841694D01*
X140679280Y-61074005D01*
X140679285Y-61074013D01*
X140823520Y-61266690D01*
X140847937Y-61332155D01*
X140833085Y-61400427D01*
X140823520Y-61415310D01*
X140679285Y-61607986D01*
X140679280Y-61607994D01*
X140552428Y-61840305D01*
X140552426Y-61840309D01*
X140459921Y-62088326D01*
X140403658Y-62346965D01*
X140403657Y-62346972D01*
X140384773Y-62610998D01*
X140384773Y-62611001D01*
X140403657Y-62875027D01*
X140403658Y-62875034D01*
X140459921Y-63133673D01*
X140552426Y-63381690D01*
X140552428Y-63381694D01*
X140679280Y-63614005D01*
X140679285Y-63614013D01*
X140823520Y-63806690D01*
X140847937Y-63872155D01*
X140833085Y-63940427D01*
X140823520Y-63955310D01*
X140679285Y-64147986D01*
X140679280Y-64147994D01*
X140552428Y-64380305D01*
X140552426Y-64380309D01*
X140459921Y-64628326D01*
X140403658Y-64886965D01*
X140403657Y-64886972D01*
X140384773Y-65150998D01*
X140384773Y-65151001D01*
X140403657Y-65415027D01*
X140403658Y-65415034D01*
X140459921Y-65673673D01*
X140552426Y-65921690D01*
X140552428Y-65921694D01*
X140679280Y-66154005D01*
X140679285Y-66154013D01*
X140823520Y-66346690D01*
X140847937Y-66412155D01*
X140833085Y-66480427D01*
X140823520Y-66495310D01*
X140679285Y-66687986D01*
X140679280Y-66687994D01*
X140552428Y-66920305D01*
X140552426Y-66920309D01*
X140459921Y-67168326D01*
X140403658Y-67426965D01*
X140403657Y-67426972D01*
X140384773Y-67690998D01*
X140384773Y-67691001D01*
X140403657Y-67955027D01*
X140403658Y-67955034D01*
X140459921Y-68213673D01*
X140552426Y-68461690D01*
X140552428Y-68461694D01*
X140679280Y-68694005D01*
X140679285Y-68694013D01*
X140823520Y-68886690D01*
X140847937Y-68952155D01*
X140833085Y-69020427D01*
X140823520Y-69035310D01*
X140679285Y-69227986D01*
X140679280Y-69227994D01*
X140552428Y-69460305D01*
X140552426Y-69460309D01*
X140459921Y-69708326D01*
X140403658Y-69966965D01*
X140403657Y-69966972D01*
X140384773Y-70230998D01*
X140384773Y-70231001D01*
X140403657Y-70495027D01*
X140403658Y-70495034D01*
X140459921Y-70753673D01*
X140552426Y-71001690D01*
X140552428Y-71001694D01*
X140631282Y-71146102D01*
X140646134Y-71214374D01*
X140621718Y-71279839D01*
X140618552Y-71283889D01*
X140550305Y-71367587D01*
X140456089Y-71547954D01*
X140400114Y-71743583D01*
X140400113Y-71743586D01*
X140395707Y-71793146D01*
X140389676Y-71860991D01*
X140389500Y-71862966D01*
X140389500Y-72943500D01*
X140369815Y-73010539D01*
X140317011Y-73056294D01*
X140265500Y-73067500D01*
X128967206Y-73067500D01*
X128900167Y-73047815D01*
X128854412Y-72995011D01*
X128843522Y-72934654D01*
X128855227Y-72771001D01*
X128855227Y-72770998D01*
X128851995Y-72725817D01*
X128836343Y-72506974D01*
X128780077Y-72248322D01*
X128687574Y-72000311D01*
X128635043Y-71904109D01*
X128560719Y-71767994D01*
X128560714Y-71767986D01*
X128416479Y-71575310D01*
X128392062Y-71509846D01*
X128406914Y-71441573D01*
X128416479Y-71426690D01*
X128478263Y-71344155D01*
X128560716Y-71234011D01*
X128687574Y-71001689D01*
X128780077Y-70753678D01*
X128836343Y-70495026D01*
X128855227Y-70231000D01*
X128836343Y-69966974D01*
X128780077Y-69708322D01*
X128687574Y-69460311D01*
X128673372Y-69434303D01*
X128560719Y-69227994D01*
X128560714Y-69227986D01*
X128402093Y-69016092D01*
X128402084Y-69016082D01*
X128347002Y-68961000D01*
X128286854Y-68900852D01*
X128253371Y-68839532D01*
X128258355Y-68769840D01*
X128280247Y-68732640D01*
X128339011Y-68663837D01*
X128474707Y-68442400D01*
X128474709Y-68442397D01*
X128574097Y-68202452D01*
X128600854Y-68091000D01*
X127307106Y-68091000D01*
X127400099Y-67998007D01*
X127465925Y-67883993D01*
X127500000Y-67756826D01*
X127500000Y-67625174D01*
X127465925Y-67498007D01*
X127400099Y-67383993D01*
X127307106Y-67291000D01*
X128600854Y-67291000D01*
X128600853Y-67290999D01*
X128574097Y-67179547D01*
X128474709Y-66939602D01*
X128474707Y-66939599D01*
X128339009Y-66718159D01*
X128339008Y-66718158D01*
X128280247Y-66649357D01*
X128251677Y-66585596D01*
X128262115Y-66516510D01*
X128286854Y-66481147D01*
X128402087Y-66365915D01*
X128560716Y-66154011D01*
X128687574Y-65921689D01*
X128780077Y-65673678D01*
X128836343Y-65415026D01*
X128855227Y-65151000D01*
X128836343Y-64886974D01*
X128780077Y-64628322D01*
X128687574Y-64380311D01*
X128671018Y-64349992D01*
X128560719Y-64147994D01*
X128560714Y-64147986D01*
X128416479Y-63955310D01*
X128392062Y-63889846D01*
X128406914Y-63821573D01*
X128416479Y-63806690D01*
X128529352Y-63655908D01*
X128560716Y-63614011D01*
X128687574Y-63381689D01*
X128780077Y-63133678D01*
X128836343Y-62875026D01*
X128855227Y-62611000D01*
X128836343Y-62346974D01*
X128786416Y-62117461D01*
X128780078Y-62088326D01*
X128773879Y-62071706D01*
X128687574Y-61840311D01*
X128560716Y-61607989D01*
X128560714Y-61607986D01*
X128416479Y-61415310D01*
X128392062Y-61349846D01*
X128406914Y-61281573D01*
X128416479Y-61266690D01*
X128501389Y-61153263D01*
X128560716Y-61074011D01*
X128687574Y-60841689D01*
X128780077Y-60593678D01*
X128836343Y-60335026D01*
X128855227Y-60071000D01*
X128836343Y-59806974D01*
X128816315Y-59714904D01*
X128780078Y-59548326D01*
X128687573Y-59300309D01*
X128687571Y-59300305D01*
X128560719Y-59067994D01*
X128560714Y-59067986D01*
X128402093Y-58856092D01*
X128402077Y-58856074D01*
X128370184Y-58824181D01*
X128336699Y-58762858D01*
X128341683Y-58693166D01*
X128383555Y-58637233D01*
X128449019Y-58612816D01*
X128457865Y-58612500D01*
X140782135Y-58612500D01*
X140849174Y-58632185D01*
G37*
G04 #@! TD.AperFunction*
M02*
