ISO-10303-21;
HEADER;
FILE_DESCRIPTION (( 'STEP AP214' ),
    '1' );
FILE_NAME ('Compressor Foot Mini BT.STEP',
    '2026-09-06T12:09:38',
    ( '' ),
    ( '' ),
    '',
    '',
    '' );
FILE_SCHEMA (( 'AUTOMOTIVE_DESIGN' ));
ENDSEC;

DATA;
#1 = ORIENTED_EDGE ( 'NONE', *, *, #28, .F. ) ;
#2 = CARTESIAN_POINT ( 'NONE',  ( 9.797174393178825657E-16, 0.000000000000000000, 8.000000000000000000 ) ) ;
#3 = CONICAL_SURFACE ( 'NONE', #723, 14.00000000000000178, 0.7853981633974461696 ) ;
#4 = DIRECTION ( 'NONE',  ( 0.000000000000000000, 1.000000000000000000, 0.000000000000000000 ) ) ;
#5 = CIRCLE ( 'NONE', #106, 3.550000000000004707 ) ;
#6 = CIRCLE ( 'NONE', #517, 22.09999999999998366 ) ;
#7 = ORIENTED_EDGE ( 'NONE', *, *, #529, .T. ) ;
#8 = AXIS2_PLACEMENT_3D ( 'NONE', #359, #286, #586 ) ;
#9 = EDGE_CURVE ( 'NONE', #413, #524, #6, .T. ) ;
#10 = DIRECTION ( 'NONE',  ( 0.000000000000000000, 0.000000000000000000, -1.000000000000000000 ) ) ;
#11 = DIRECTION ( 'NONE',  ( 0.000000000000000000, 0.000000000000000000, -1.000000000000000000 ) ) ;
#12 = LINE ( 'NONE', #2, #216 ) ;
#13 = FACE_OUTER_BOUND ( 'NONE', #472, .T. ) ;
#14 = ADVANCED_FACE ( 'NONE', ( #399 ), #321, .F. ) ;
#15 = ORIENTED_EDGE ( 'NONE', *, *, #290, .F. ) ;
#16 = DIRECTION ( 'NONE',  ( 0.000000000000000000, -1.000000000000000000, -0.000000000000000000 ) ) ;
#17 = DIRECTION ( 'NONE',  ( -0.000000000000000000, -1.000000000000000000, -0.000000000000000000 ) ) ;
#18 = CARTESIAN_POINT ( 'NONE',  ( 0.000000000000000000, 14.50000000000000000, 0.000000000000000000 ) ) ;
#19 = LINE ( 'NONE', #486, #167 ) ;
#20 = CIRCLE ( 'NONE', #236, 12.56568542494923513 ) ;
#21 = EDGE_LOOP ( 'NONE', ( #38, #164, #362, #622 ) ) ;
#22 = DIRECTION ( 'NONE',  ( 0.000000000000000000, 0.000000000000000000, -1.000000000000000000 ) ) ;
#23 = CLOSED_SHELL ( 'NONE', ( #725, #717, #680, #272, #46, #14, #138, #700, #96, #446, #518, #606, #575, #327, #676, #160, #346, #601, #615, #358, #652, #443, #210, #171, #631, #535, #434 ) ) ;
#24 = AXIS2_PLACEMENT_3D ( 'NONE', #33, #442, #269 ) ;
#25 = FACE_OUTER_BOUND ( 'NONE', #471, .T. ) ;
#26 = DIRECTION ( 'NONE',  ( 0.000000000000000000, 0.7071067811865493491, 0.7071067811865456854 ) ) ;
#27 = CYLINDRICAL_SURFACE ( 'NONE', #70, 8.000000000000000000 ) ;
#28 = EDGE_CURVE ( 'NONE', #299, #86, #238, .T. ) ;
#29 = DIRECTION ( 'NONE',  ( 0.000000000000000000, 0.000000000000000000, -1.000000000000000000 ) ) ;
#30 = ORIENTED_EDGE ( 'NONE', *, *, #290, .T. ) ;
#31 = SURFACE_STYLE_FILL_AREA ( #481 ) ;
#32 = DIRECTION ( 'NONE',  ( -0.000000000000000000, -1.000000000000000000, -0.000000000000000000 ) ) ;
#33 = CARTESIAN_POINT ( 'NONE',  ( 0.000000000000000000, -1.999999999999999556, 0.000000000000000000 ) ) ;
#34 = AXIS2_PLACEMENT_3D ( 'NONE', #158, #502, #666 ) ;
#35 = VECTOR ( 'NONE', #585, 1000.000000000000000 ) ;
#36 = DIRECTION ( 'NONE',  ( -0.000000000000000000, -1.000000000000000000, -0.000000000000000000 ) ) ;
#37 = EDGE_CURVE ( 'NONE', #331, #316, #204, .T. ) ;
#38 = ORIENTED_EDGE ( 'NONE', *, *, #72, .F. ) ;
#39 = FACE_OUTER_BOUND ( 'NONE', #339, .T. ) ;
#40 = ORIENTED_EDGE ( 'NONE', *, *, #182, .T. ) ;
#41 = DIRECTION ( 'NONE',  ( 0.000000000000000000, 0.000000000000000000, 1.000000000000000000 ) ) ;
#42 = ORIENTED_EDGE ( 'NONE', *, *, #658, .F. ) ;
#43 = CIRCLE ( 'NONE', #402, 14.00000000000000355 ) ;
#44 = VECTOR ( 'NONE', #110, 1000.000000000000114 ) ;
#45 = EDGE_LOOP ( 'NONE', ( #251, #493 ) ) ;
#46 = ADVANCED_FACE ( 'NONE', ( #237 ), #298, .F. ) ;
#47 = CARTESIAN_POINT ( 'NONE',  ( 0.000000000000000000, 0.4000000000000156208, 0.000000000000000000 ) ) ;
#48 = ORIENTED_EDGE ( 'NONE', *, *, #315, .T. ) ;
#49 = LINE ( 'NONE', #407, #44 ) ;
#50 = DIRECTION ( 'NONE',  ( -0.000000000000000000, -1.000000000000000000, -0.000000000000000000 ) ) ;
#51 = CARTESIAN_POINT ( 'NONE',  ( 0.000000000000000000, 0.3999999999999977462, 0.000000000000000000 ) ) ;
#52 = VERTEX_POINT ( 'NONE', #539 ) ;
#53 = DIRECTION ( 'NONE',  ( 0.000000000000000000, 1.000000000000000000, 0.000000000000000000 ) ) ;
#54 = CARTESIAN_POINT ( 'NONE',  ( 2.730962362098596880E-15, 6.822748897939533261E-16, -22.09999999999998366 ) ) ;
#55 = EDGE_CURVE ( 'NONE', #316, #331, #355, .T. ) ;
#56 = AXIS2_PLACEMENT_3D ( 'NONE', #425, #702, #312 ) ;
#57 = EDGE_LOOP ( 'NONE', ( #153, #508, #691, #532 ) ) ;
#58 = ORIENTED_EDGE ( 'NONE', *, *, #9, .T. ) ;
#59 = CARTESIAN_POINT ( 'NONE',  ( 0.000000000000000000, 3.000000000000000888, 0.000000000000000000 ) ) ;
#60 = DIRECTION ( 'NONE',  ( 0.000000000000000000, 1.000000000000000000, 0.000000000000000000 ) ) ;
#61 = VERTEX_POINT ( 'NONE', #463 ) ;
#62 = DIRECTION ( 'NONE',  ( 8.659560562354932858E-17, -0.7071067811865474617, 0.7071067811865474617 ) ) ;
#63 = ORIENTED_EDGE ( 'NONE', *, *, #489, .F. ) ;
#64 = ORIENTED_EDGE ( 'NONE', *, *, #470, .T. ) ;
#65 = CARTESIAN_POINT ( 'NONE',  ( 0.000000000000000000, -1.999999999999999556, 0.000000000000000000 ) ) ;
#66 = CIRCLE ( 'NONE', #8, 12.56568542494923513 ) ;
#67 = DIRECTION ( 'NONE',  ( -0.000000000000000000, -1.000000000000000000, -0.000000000000000000 ) ) ;
#68 = AXIS2_PLACEMENT_3D ( 'NONE', #592, #310, #199 ) ;
#69 = ORIENTED_EDGE ( 'NONE', *, *, #152, .F. ) ;
#70 = AXIS2_PLACEMENT_3D ( 'NONE', #552, #716, #366 ) ;
#71 = FACE_OUTER_BOUND ( 'NONE', #168, .T. ) ;
#72 = EDGE_CURVE ( 'NONE', #221, #647, #12, .T. ) ;
#73 = DIRECTION ( 'NONE',  ( -0.000000000000000000, -1.000000000000000000, -0.000000000000000000 ) ) ;
#74 = DIRECTION ( 'NONE',  ( 0.000000000000000000, -1.000000000000000000, 0.000000000000000000 ) ) ;
#75 = EDGE_LOOP ( 'NONE', ( #660, #430, #406, #42 ) ) ;
#76 = DIRECTION ( 'NONE',  ( -0.000000000000000000, -1.000000000000000000, -0.000000000000000000 ) ) ;
#77 = DIRECTION ( 'NONE',  ( 0.000000000000000000, 0.000000000000000000, -1.000000000000000000 ) ) ;
#78 = DIRECTION ( 'NONE',  ( 0.000000000000000000, 1.000000000000000000, 0.000000000000000000 ) ) ;
#79 = ORIENTED_EDGE ( 'NONE', *, *, #590, .T. ) ;
#80 = DIRECTION ( 'NONE',  ( -0.000000000000000000, 1.000000000000000000, -0.000000000000000000 ) ) ;
#81 = ORIENTED_EDGE ( 'NONE', *, *, #410, .F. ) ;
#82 = CARTESIAN_POINT ( 'NONE',  ( 0.000000000000000000, -1.999999999999999556, -14.56568542494922802 ) ) ;
#83 =( NAMED_UNIT ( * ) PLANE_ANGLE_UNIT ( ) SI_UNIT ( $, .RADIAN. ) );
#84 = DIRECTION ( 'NONE',  ( 0.000000000000000000, -0.000000000000000000, 1.000000000000000000 ) ) ;
#85 = EDGE_CURVE ( 'NONE', #587, #541, #404, .T. ) ;
#86 = VERTEX_POINT ( 'NONE', #188 ) ;
#87 = DIRECTION ( 'NONE',  ( -0.000000000000000000, -1.000000000000000000, -0.000000000000000000 ) ) ;
#88 = CONICAL_SURFACE ( 'NONE', #748, 22.50000000000000000, 0.7853981633974480570 ) ;
#89 = CIRCLE ( 'NONE', #568, 13.59999999999999254 ) ;
#90 = DIRECTION ( 'NONE',  ( 0.000000000000000000, 0.000000000000000000, 1.000000000000000000 ) ) ;
#91 = LINE ( 'NONE', #379, #665 ) ;
#92 = ORIENTED_EDGE ( 'NONE', *, *, #265, .T. ) ;
#93 = DIRECTION ( 'NONE',  ( 0.000000000000000000, -1.000000000000000000, 0.000000000000000000 ) ) ;
#94 = CARTESIAN_POINT ( 'NONE',  ( 1.661317323390397789E-15, 0.000000000000000000, 12.56568542494923513 ) ) ;
#95 = ORIENTED_EDGE ( 'NONE', *, *, #9, .F. ) ;
#96 = ADVANCED_FACE ( 'NONE', ( #304 ), #88, .T. ) ;
#97 = DIRECTION ( 'NONE',  ( 0.000000000000000000, 0.7071067811865506814, 0.7071067811865443531 ) ) ;
#98 = SHAPE_DEFINITION_REPRESENTATION ( #223, #567 ) ;
#99 = EDGE_LOOP ( 'NONE', ( #654, #95, #92, #458 ) ) ;
#100 = MECHANICAL_DESIGN_GEOMETRIC_PRESENTATION_REPRESENTATION (  '', ( #335 ), #118 ) ;
#101 =( NAMED_UNIT ( * ) SI_UNIT ( $, .STERADIAN. ) SOLID_ANGLE_UNIT ( ) );
#102 = DIRECTION ( 'NONE',  ( 0.000000000000000000, 0.000000000000000000, 1.000000000000000000 ) ) ;
#103 = DIRECTION ( 'NONE',  ( 0.000000000000000000, 0.000000000000000000, -1.000000000000000000 ) ) ;
#104 = EDGE_CURVE ( 'NONE', #524, #413, #709, .T. ) ;
#105 = CIRCLE ( 'NONE', #494, 3.149999999999999911 ) ;
#106 = AXIS2_PLACEMENT_3D ( 'NONE', #274, #201, #733 ) ;
#107 = VECTOR ( 'NONE', #571, 1000.000000000000000 ) ;
#108 = DIRECTION ( 'NONE',  ( 0.000000000000000000, 0.000000000000000000, -1.000000000000000000 ) ) ;
#109 = ORIENTED_EDGE ( 'NONE', *, *, #686, .F. ) ;
#110 = DIRECTION ( 'NONE',  ( 8.659560562354895880E-17, 0.7071067811865506814, -0.7071067811865443531 ) ) ;
#111 = EDGE_CURVE ( 'NONE', #556, #715, #122, .T. ) ;
#112 = DIRECTION ( 'NONE',  ( 0.000000000000000000, 0.000000000000000000, -1.000000000000000000 ) ) ;
#113 = ORIENTED_EDGE ( 'NONE', *, *, #424, .T. ) ;
#114 = CARTESIAN_POINT ( 'NONE',  ( 0.000000000000000000, 6.297617000994949745E-16, 17.43431457505075954 ) ) ;
#115 = SURFACE_STYLE_USAGE ( .BOTH. , #289 ) ;
#116 = AXIS2_PLACEMENT_3D ( 'NONE', #208, #386, #41 ) ;
#117 = CARTESIAN_POINT ( 'NONE',  ( 0.000000000000000000, 0.000000000000000000, 0.000000000000000000 ) ) ;
#118 =( GEOMETRIC_REPRESENTATION_CONTEXT ( 3 ) GLOBAL_UNCERTAINTY_ASSIGNED_CONTEXT ( ( #736 ) ) GLOBAL_UNIT_ASSIGNED_CONTEXT ( ( #641, #83, #674 ) ) REPRESENTATION_CONTEXT ( 'NONE', 'WORKASPACE' ) );
#119 = VECTOR ( 'NONE', #743, 1000.000000000000114 ) ;
#120 = DIRECTION ( 'NONE',  ( -0.000000000000000000, -1.000000000000000000, -0.000000000000000000 ) ) ;
#121 = ORIENTED_EDGE ( 'NONE', *, *, #566, .T. ) ;
#122 = LINE ( 'NONE', #308, #35 ) ;
#123 = ORIENTED_EDGE ( 'NONE', *, *, #543, .F. ) ;
#124 = CARTESIAN_POINT ( 'NONE',  ( 0.000000000000000000, 20.50000000000000000, -13.59999999999999254 ) ) ;
#125 = ORIENTED_EDGE ( 'NONE', *, *, #55, .T. ) ;
#126 = EDGE_CURVE ( 'NONE', #140, #556, #679, .T. ) ;
#127 = CARTESIAN_POINT ( 'NONE',  ( 0.000000000000000000, 20.09999999999999076, 0.000000000000000000 ) ) ;
#128 = DIRECTION ( 'NONE',  ( 0.000000000000000000, 0.000000000000000000, -1.000000000000000000 ) ) ;
#129 = CYLINDRICAL_SURFACE ( 'NONE', #334, 3.149999999999999911 ) ;
#130 = VERTEX_POINT ( 'NONE', #754 ) ;
#131 = CONICAL_SURFACE ( 'NONE', #240, 12.56568542494923513, 0.7853981633974467247 ) ;
#132 = FACE_OUTER_BOUND ( 'NONE', #21, .T. ) ;
#133 = DIRECTION ( 'NONE',  ( 8.659560562354910671E-17, 0.7071067811865493491, -0.7071067811865456854 ) ) ;
#134 = DIRECTION ( 'NONE',  ( 8.659560562354932858E-17, 0.7071067811865474617, -0.7071067811865474617 ) ) ;
#135 = ORIENTED_EDGE ( 'NONE', *, *, #143, .F. ) ;
#136 = ORIENTED_EDGE ( 'NONE', *, *, #667, .F. ) ;
#137 = CARTESIAN_POINT ( 'NONE',  ( 1.783782003305132740E-15, -1.999999999999999556, 14.56568542494922802 ) ) ;
#138 = ADVANCED_FACE ( 'NONE', ( #697 ), #455, .T. ) ;
#139 = DIRECTION ( 'NONE',  ( 0.000000000000000000, 0.000000000000000000, -1.000000000000000000 ) ) ;
#140 = VERTEX_POINT ( 'NONE', #416 ) ;
#141 = CARTESIAN_POINT ( 'NONE',  ( 0.000000000000000000, 0.000000000000000000, 0.000000000000000000 ) ) ;
#142 = DIRECTION ( 'NONE',  ( 0.000000000000000000, -1.000000000000000000, -0.000000000000000000 ) ) ;
#143 = EDGE_CURVE ( 'NONE', #400, #607, #242, .T. ) ;
#144 = DIRECTION ( 'NONE',  ( -0.000000000000000000, -1.000000000000000000, -0.000000000000000000 ) ) ;
#145 = VECTOR ( 'NONE', #133, 1000.000000000000000 ) ;
#146 = AXIS2_PLACEMENT_3D ( 'NONE', #374, #76, #600 ) ;
#147 = SURFACE_SIDE_STYLE ('',( #31 ) ) ;
#148 = CYLINDRICAL_SURFACE ( 'NONE', #34, 22.50000000000000000 ) ;
#149 = ORIENTED_EDGE ( 'NONE', *, *, #111, .F. ) ;
#150 = FACE_OUTER_BOUND ( 'NONE', #213, .T. ) ;
#151 = ORIENTED_EDGE ( 'NONE', *, *, #55, .F. ) ;
#152 = EDGE_CURVE ( 'NONE', #647, #86, #177, .T. ) ;
#153 = ORIENTED_EDGE ( 'NONE', *, *, #227, .F. ) ;
#154 = VECTOR ( 'NONE', #134, 1000.000000000000114 ) ;
#155 = VERTEX_POINT ( 'NONE', #184 ) ;
#156 = AXIS2_PLACEMENT_3D ( 'NONE', #649, #369, #128 ) ;
#157 = AXIS2_PLACEMENT_3D ( 'NONE', #47, #742, #292 ) ;
#158 = CARTESIAN_POINT ( 'NONE',  ( 0.000000000000000000, 0.000000000000000000, 0.000000000000000000 ) ) ;
#159 = EDGE_LOOP ( 'NONE', ( #215, #526 ) ) ;
#160 = ADVANCED_FACE ( 'NONE', ( #534 ), #421, .T. ) ;
#161 = ORIENTED_EDGE ( 'NONE', *, *, #315, .F. ) ;
#162 = FILL_AREA_STYLE_COLOUR ( '', #368 ) ;
#163 = DIRECTION ( 'NONE',  ( 0.000000000000000000, -0.7071067811865489050, -0.7071067811865460184 ) ) ;
#164 = ORIENTED_EDGE ( 'NONE', *, *, #590, .F. ) ;
#165 = CARTESIAN_POINT ( 'NONE',  ( 4.347496136973109297E-16, 20.50000000000000000, -3.550000000000004707 ) ) ;
#166 = AXIS2_PLACEMENT_3D ( 'NONE', #662, #469, #428 ) ;
#167 = VECTOR ( 'NONE', #26, 1000.000000000000000 ) ;
#168 = EDGE_LOOP ( 'NONE', ( #220, #562, #603, #599 ) ) ;
#169 = VERTEX_POINT ( 'NONE', #597 ) ;
#170 = LINE ( 'NONE', #634, #303 ) ;
#171 = ADVANCED_FACE ( 'NONE', ( #248 ), #427, .T. ) ;
#172 = MANIFOLD_SOLID_BREP ( 'Chanfrein1', #23 ) ;
#173 = CARTESIAN_POINT ( 'NONE',  ( 0.000000000000000000, 14.49999999999999822, 0.000000000000000000 ) ) ;
#174 = VERTEX_POINT ( 'NONE', #452 ) ;
#175 = DIRECTION ( 'NONE',  ( -0.000000000000000000, -1.000000000000000000, -0.000000000000000000 ) ) ;
#176 = STYLED_ITEM ( 'NONE', ( #687 ), #567 ) ;
#177 = LINE ( 'NONE', #589, #570 ) ;
#178 = AXIS2_PLACEMENT_3D ( 'NONE', #281, #737, #351 ) ;
#179 = CARTESIAN_POINT ( 'NONE',  ( 8.000000000000000000, 14.49999999999999822, 0.000000000000000000 ) ) ;
#180 = CARTESIAN_POINT ( 'NONE',  ( 0.000000000000000000, 20.09999999999999432, 0.000000000000000000 ) ) ;
#181 = FACE_OUTER_BOUND ( 'NONE', #159, .T. ) ;
#182 = EDGE_CURVE ( 'NONE', #140, #169, #375, .T. ) ;
#183 = DIRECTION ( 'NONE',  ( -0.000000000000000000, -1.000000000000000000, -0.000000000000000000 ) ) ;
#184 = CARTESIAN_POINT ( 'NONE',  ( 0.000000000000000000, 11.50000000000000178, -14.00000000000000355 ) ) ;
#185 = CARTESIAN_POINT ( 'NONE',  ( 0.000000000000000000, 1.767141685535540164E-16, 0.000000000000000000 ) ) ;
#186 = EDGE_LOOP ( 'NONE', ( #135, #444, #64, #521 ) ) ;
#187 = CARTESIAN_POINT ( 'NONE',  ( 17.43431457505075954, 6.822748897939533261E-16, 0.000000000000000000 ) ) ;
#188 = CARTESIAN_POINT ( 'NONE',  ( 1.028703311283776388E-15, 1.767141685535540164E-16, 8.399999999999998579 ) ) ;
#189 = AXIS2_PLACEMENT_3D ( 'NONE', #195, #380, #90 ) ;
#190 = DIRECTION ( 'NONE',  ( 8.659560562354920532E-17, -0.7071067811865486830, 0.7071067811865464625 ) ) ;
#191 = AXIS2_PLACEMENT_3D ( 'NONE', #475, #703, #426 ) ;
#192 = ORIENTED_EDGE ( 'NONE', *, *, #194, .F. ) ;
#193 = DIRECTION ( 'NONE',  ( -0.000000000000000000, -1.000000000000000000, -0.000000000000000000 ) ) ;
#194 = EDGE_CURVE ( 'NONE', #169, #715, #322, .T. ) ;
#195 = CARTESIAN_POINT ( 'NONE',  ( 0.000000000000000000, 20.50000000000000000, 0.000000000000000000 ) ) ;
#196 = ORIENTED_EDGE ( 'NONE', *, *, #410, .T. ) ;
#197 = CARTESIAN_POINT ( 'NONE',  ( 0.000000000000000000, 0.000000000000000000, 0.000000000000000000 ) ) ;
#198 = LINE ( 'NONE', #612, #372 ) ;
#199 = DIRECTION ( 'NONE',  ( 0.000000000000000000, 0.000000000000000000, -1.000000000000000000 ) ) ;
#200 = FACE_OUTER_BOUND ( 'NONE', #233, .T. ) ;
#201 = DIRECTION ( 'NONE',  ( -0.000000000000000000, -1.000000000000000000, -0.000000000000000000 ) ) ;
#202 = AXIS2_PLACEMENT_3D ( 'NONE', #343, #226, #285 ) ;
#203 = AXIS2_PLACEMENT_3D ( 'NONE', #646, #74, #694 ) ;
#204 = CIRCLE ( 'NONE', #278, 14.56568542494922802 ) ;
#205 = ORIENTED_EDGE ( 'NONE', *, *, #686, .T. ) ;
#206 = AXIS2_PLACEMENT_3D ( 'NONE', #420, #385, #533 ) ;
#207 = PRESENTATION_STYLE_ASSIGNMENT (( #613 ) ) ;
#208 = CARTESIAN_POINT ( 'NONE',  ( 0.000000000000000000, 20.50000000000000000, 0.000000000000000000 ) ) ;
#209 = DIRECTION ( 'NONE',  ( -0.000000000000000000, -1.000000000000000000, -0.000000000000000000 ) ) ;
#210 = ADVANCED_FACE ( 'NONE', ( #632, #347 ), #344, .T. ) ;
#211 = EDGE_LOOP ( 'NONE', ( #246, #337, #1, #81 ) ) ;
#212 = EDGE_CURVE ( 'NONE', #728, #503, #405, .T. ) ;
#213 = EDGE_LOOP ( 'NONE', ( #417, #544, #499, #284 ) ) ;
#214 = CONICAL_SURFACE ( 'NONE', #515, 15.43431457505077020, 0.7853981633974457255 ) ;
#215 = ORIENTED_EDGE ( 'NONE', *, *, #309, .T. ) ;
#216 = VECTOR ( 'NONE', #17, 1000.000000000000000 ) ;
#217 = EDGE_CURVE ( 'NONE', #61, #647, #720, .T. ) ;
#218 = CIRCLE ( 'NONE', #640, 8.000000000000000000 ) ;
#219 = DIRECTION ( 'NONE',  ( 0.000000000000000000, 0.000000000000000000, -1.000000000000000000 ) ) ;
#220 = ORIENTED_EDGE ( 'NONE', *, *, #579, .F. ) ;
#221 = VERTEX_POINT ( 'NONE', #295 ) ;
#222 = EDGE_CURVE ( 'NONE', #387, #478, #66, .T. ) ;
#223 = PRODUCT_DEFINITION_SHAPE ( 'NONE', 'NONE',  #332 ) ;
#224 = ORIENTED_EDGE ( 'NONE', *, *, #194, .T. ) ;
#225 = AXIS2_PLACEMENT_3D ( 'NONE', #314, #4, #10 ) ;
#226 = DIRECTION ( 'NONE',  ( -0.000000000000000000, -1.000000000000000000, -0.000000000000000000 ) ) ;
#227 = EDGE_CURVE ( 'NONE', #541, #587, #89, .T. ) ;
#228 = VERTEX_POINT ( 'NONE', #340 ) ;
#229 = DIRECTION ( 'NONE',  ( -0.000000000000000000, -1.000000000000000000, -0.000000000000000000 ) ) ;
#230 = ORIENTED_EDGE ( 'NONE', *, *, #235, .F. ) ;
#231 = CARTESIAN_POINT ( 'NONE',  ( 0.000000000000000000, -1.999999999999999556, 0.000000000000000000 ) ) ;
#232 = CARTESIAN_POINT ( 'NONE',  ( 0.000000000000000000, 20.50000000000000000, 0.000000000000000000 ) ) ;
#233 = EDGE_LOOP ( 'NONE', ( #501, #113, #109, #15 ) ) ;
#234 = AXIS2_PLACEMENT_3D ( 'NONE', #436, #183, #29 ) ;
#235 = EDGE_CURVE ( 'NONE', #503, #484, #465, .T. ) ;
#236 = AXIS2_PLACEMENT_3D ( 'NONE', #333, #36, #388 ) ;
#237 = FACE_OUTER_BOUND ( 'NONE', #260, .T. ) ;
#238 = CIRCLE ( 'NONE', #528, 8.399999999999998579 ) ;
#239 = DIRECTION ( 'NONE',  ( -0.000000000000000000, -1.000000000000000000, -0.000000000000000000 ) ) ;
#240 = AXIS2_PLACEMENT_3D ( 'NONE', #141, #307, #651 ) ;
#241 = VERTEX_POINT ( 'NONE', #165 ) ;
#242 = LINE ( 'NONE', #361, #145 ) ;
#243 = CARTESIAN_POINT ( 'NONE',  ( 3.149999999999999911, 20.50000000000000000, 0.000000000000000000 ) ) ;
#244 = ORIENTED_EDGE ( 'NONE', *, *, #227, .T. ) ;
#245 = ORIENTED_EDGE ( 'NONE', *, *, #740, .F. ) ;
#246 = ORIENTED_EDGE ( 'NONE', *, *, #514, .F. ) ;
#247 = CARTESIAN_POINT ( 'NONE',  ( 0.000000000000000000, 20.50000000000000000, 3.550000000000004707 ) ) ;
#248 = FACE_OUTER_BOUND ( 'NONE', #99, .T. ) ;
#249 = CARTESIAN_POINT ( 'NONE',  ( 0.000000000000000000, 11.50000000000000178, 0.000000000000000000 ) ) ;
#250 = EDGE_CURVE ( 'NONE', #140, #241, #49, .T. ) ;
#251 = ORIENTED_EDGE ( 'NONE', *, *, #509, .F. ) ;
#252 = DIRECTION ( 'NONE',  ( -0.000000000000000000, -1.000000000000000000, -0.000000000000000000 ) ) ;
#253 = FILL_AREA_STYLE_COLOUR ( '', #395 ) ;
#254 = AXIS2_PLACEMENT_3D ( 'NONE', #450, #32, #219 ) ;
#255 = CARTESIAN_POINT ( 'NONE',  ( 9.797174393178825657E-16, 0.3999999999999977462, 8.000000000000000000 ) ) ;
#256 = VECTOR ( 'NONE', #319, 999.9999999999998863 ) ;
#257 = ORIENTED_EDGE ( 'NONE', *, *, #336, .T. ) ;
#258 = FACE_BOUND ( 'NONE', #45, .T. ) ;
#259 = PLANE ( 'NONE',  #619 ) ;
#260 = EDGE_LOOP ( 'NONE', ( #123, #328, #537, #63 ) ) ;
#261 = DIRECTION ( 'NONE',  ( 0.000000000000000000, 0.000000000000000000, -1.000000000000000000 ) ) ;
#262 = DIRECTION ( 'NONE',  ( 0.000000000000000000, 0.000000000000000000, 1.000000000000000000 ) ) ;
#263 = CARTESIAN_POINT ( 'NONE',  ( 0.000000000000000000, 20.09999999999999076, 0.000000000000000000 ) ) ;
#264 = ORIENTED_EDGE ( 'NONE', *, *, #558, .F. ) ;
#265 = EDGE_CURVE ( 'NONE', #413, #503, #456, .T. ) ;
#266 = FACE_OUTER_BOUND ( 'NONE', #57, .T. ) ;
#267 = AXIS2_PLACEMENT_3D ( 'NONE', #685, #175, #648 ) ;
#268 = DIRECTION ( 'NONE',  ( 0.000000000000000000, -0.7071067811865486830, -0.7071067811865464625 ) ) ;
#269 = DIRECTION ( 'NONE',  ( 0.000000000000000000, 0.000000000000000000, -1.000000000000000000 ) ) ;
#270 = ORIENTED_EDGE ( 'NONE', *, *, #111, .T. ) ;
#271 = DIRECTION ( 'NONE',  ( 0.000000000000000000, 0.000000000000000000, -1.000000000000000000 ) ) ;
#272 = ADVANCED_FACE ( 'NONE', ( #512 ), #610, .T. ) ;
#273 = ORIENTED_EDGE ( 'NONE', *, *, #28, .T. ) ;
#274 = CARTESIAN_POINT ( 'NONE',  ( 0.000000000000000000, 20.50000000000000000, 0.000000000000000000 ) ) ;
#275 = MECHANICAL_DESIGN_GEOMETRIC_PRESENTATION_REPRESENTATION (  '', ( #176 ), #595 ) ;
#276 = EDGE_CURVE ( 'NONE', #155, #52, #170, .T. ) ;
#277 = VERTEX_POINT ( 'NONE', #350 ) ;
#278 = AXIS2_PLACEMENT_3D ( 'NONE', #411, #522, #363 ) ;
#279 = CIRCLE ( 'NONE', #56, 3.550000000000004707 ) ;
#280 = FILL_AREA_STYLE ('',( #162 ) ) ;
#281 = CARTESIAN_POINT ( 'NONE',  ( 0.000000000000000000, 0.000000000000000000, 0.000000000000000000 ) ) ;
#282 = CARTESIAN_POINT ( 'NONE',  ( 2.755455298081544778E-15, 0.4000000000000156208, 22.50000000000000000 ) ) ;
#283 = DIRECTION ( 'NONE',  ( 0.000000000000000000, 0.000000000000000000, -1.000000000000000000 ) ) ;
#284 = ORIENTED_EDGE ( 'NONE', *, *, #746, .F. ) ;
#285 = DIRECTION ( 'NONE',  ( 0.000000000000000000, 0.000000000000000000, -1.000000000000000000 ) ) ;
#286 = DIRECTION ( 'NONE',  ( -0.000000000000000000, -1.000000000000000000, -0.000000000000000000 ) ) ;
#287 = ORIENTED_EDGE ( 'NONE', *, *, #300, .T. ) ;
#288 = CARTESIAN_POINT ( 'NONE',  ( 0.000000000000000000, 6.822748897939533261E-16, 22.09999999999998366 ) ) ;
#289 = SURFACE_SIDE_STYLE ('',( #739 ) ) ;
#290 = EDGE_CURVE ( 'NONE', #130, #155, #750, .T. ) ;
#291 = ORIENTED_EDGE ( 'NONE', *, *, #265, .F. ) ;
#292 = DIRECTION ( 'NONE',  ( 0.000000000000000000, 0.000000000000000000, -1.000000000000000000 ) ) ;
#293 = CONICAL_SURFACE ( 'NONE', #203, 8.000000000000000000, 0.7853981633974482790 ) ;
#294 = DIRECTION ( 'NONE',  ( 0.000000000000000000, 0.000000000000000000, -1.000000000000000000 ) ) ;
#295 = CARTESIAN_POINT ( 'NONE',  ( 9.797174393178825657E-16, 14.50000000000000000, 8.000000000000000000 ) ) ;
#296 = VERTEX_POINT ( 'NONE', #114 ) ;
#297 = CARTESIAN_POINT ( 'NONE',  ( 0.000000000000000000, 1.767141685535540164E-16, -8.399999999999998579 ) ) ;
#298 = CYLINDRICAL_SURFACE ( 'NONE', #732, 8.000000000000000000 ) ;
#299 = VERTEX_POINT ( 'NONE', #297 ) ;
#300 = EDGE_CURVE ( 'NONE', #52, #728, #572, .T. ) ;
#301 = DIRECTION ( 'NONE',  ( 0.000000000000000000, 1.000000000000000000, 0.000000000000000000 ) ) ;
#302 = ORIENTED_EDGE ( 'NONE', *, *, #707, .T. ) ;
#303 = VECTOR ( 'NONE', #588, 999.9999999999998863 ) ;
#304 = FACE_OUTER_BOUND ( 'NONE', #423, .T. ) ;
#305 = CARTESIAN_POINT ( 'NONE',  ( 2.135087753966395945E-15, 6.297617000994949745E-16, -17.43431457505075954 ) ) ;
#306 = AXIS2_PLACEMENT_3D ( 'NONE', #127, #252, #473 ) ;
#307 = DIRECTION ( 'NONE',  ( -0.000000000000000000, -1.000000000000000000, -0.000000000000000000 ) ) ;
#308 = CARTESIAN_POINT ( 'NONE',  ( 3.857637417314162689E-16, 0.000000000000000000, 3.149999999999999911 ) ) ;
#309 = EDGE_CURVE ( 'NONE', #277, #400, #457, .T. ) ;
#310 = DIRECTION ( 'NONE',  ( -0.000000000000000000, -1.000000000000000000, -0.000000000000000000 ) ) ;
#311 = ORIENTED_EDGE ( 'NONE', *, *, #212, .F. ) ;
#312 = DIRECTION ( 'NONE',  ( 0.000000000000000000, 0.000000000000000000, 1.000000000000000000 ) ) ;
#313 = DIRECTION ( 'NONE',  ( 0.000000000000000000, 0.000000000000000000, 1.000000000000000000 ) ) ;
#314 = CARTESIAN_POINT ( 'NONE',  ( 0.000000000000000000, 0.4000000000000156208, 0.000000000000000000 ) ) ;
#315 = EDGE_CURVE ( 'NONE', #715, #169, #105, .T. ) ;
#316 = VERTEX_POINT ( 'NONE', #137 ) ;
#317 = CARTESIAN_POINT ( 'NONE',  ( 1.714505518806294835E-15, 20.09999999999999076, 14.00000000000000178 ) ) ;
#318 = CIRCLE ( 'NONE', #730, 14.00000000000000178 ) ;
#319 = DIRECTION ( 'NONE',  ( 8.659560562354931626E-17, -0.7071067811865477948, 0.7071067811865473507 ) ) ;
#320 = ORIENTED_EDGE ( 'NONE', *, *, #470, .F. ) ;
#321 = CONICAL_SURFACE ( 'NONE', #178, 12.56568542494923513, 0.7853981633974467247 ) ;
#322 = CIRCLE ( 'NONE', #692, 3.149999999999999911 ) ;
#323 = ORIENTED_EDGE ( 'NONE', *, *, #276, .F. ) ;
#324 = FACE_OUTER_BOUND ( 'NONE', #75, .T. ) ;
#325 = LINE ( 'NONE', #554, #464 ) ;
#326 = DIRECTION ( 'NONE',  ( -0.000000000000000000, -1.000000000000000000, -0.000000000000000000 ) ) ;
#327 = ADVANCED_FACE ( 'NONE', ( #604 ), #657, .T. ) ;
#328 = ORIENTED_EDGE ( 'NONE', *, *, #72, .T. ) ;
#329 = FACE_OUTER_BOUND ( 'NONE', #682, .T. ) ;
#330 = CARTESIAN_POINT ( 'NONE',  ( 0.000000000000000000, 0.4000000000000156208, -22.50000000000000000 ) ) ;
#331 = VERTEX_POINT ( 'NONE', #82 ) ;
#332 = PRODUCT_DEFINITION ( 'UNKNOWN', '', #731, #474 ) ;
#333 = CARTESIAN_POINT ( 'NONE',  ( 0.000000000000000000, 0.000000000000000000, 0.000000000000000000 ) ) ;
#334 = AXIS2_PLACEMENT_3D ( 'NONE', #435, #67, #659 ) ;
#335 = STYLED_ITEM ( 'NONE', ( #207 ), #172 ) ;
#336 = EDGE_CURVE ( 'NONE', #451, #241, #279, .T. ) ;
#337 = ORIENTED_EDGE ( 'NONE', *, *, #152, .T. ) ;
#338 = APPLICATION_PROTOCOL_DEFINITION ( 'draft international standard', 'automotive_design', 1998, #349 ) ;
#339 = EDGE_LOOP ( 'NONE', ( #287, #625, #618, #593 ) ) ;
#340 = CARTESIAN_POINT ( 'NONE',  ( 1.714505518806295032E-15, 11.50000000000000178, 14.00000000000000533 ) ) ;
#341 = PRESENTATION_LAYER_ASSIGNMENT (  '', '', ( #176 ) ) ;
#342 = VECTOR ( 'NONE', #713, 1000.000000000000114 ) ;
#343 = CARTESIAN_POINT ( 'NONE',  ( 0.000000000000000000, 6.297617000994949745E-16, 0.000000000000000000 ) ) ;
#344 = PLANE ( 'NONE',  #626 ) ;
#345 = ORIENTED_EDGE ( 'NONE', *, *, #558, .T. ) ;
#346 = ADVANCED_FACE ( 'NONE', ( #488, #258 ), #708, .T. ) ;
#347 = FACE_BOUND ( 'NONE', #729, .T. ) ;
#348 = ORIENTED_EDGE ( 'NONE', *, *, #126, .T. ) ;
#349 = APPLICATION_CONTEXT ( 'automotive_design' ) ;
#350 = CARTESIAN_POINT ( 'NONE',  ( 0.000000000000000000, -1.999999999999999556, 15.43431457505077020 ) ) ;
#351 = DIRECTION ( 'NONE',  ( 0.000000000000000000, 0.000000000000000000, -1.000000000000000000 ) ) ;
#352 = FACE_OUTER_BOUND ( 'NONE', #656, .T. ) ;
#353 = DIRECTION ( 'NONE',  ( -0.000000000000000000, -1.000000000000000000, -0.000000000000000000 ) ) ;
#354 = AXIS2_PLACEMENT_3D ( 'NONE', #718, #559, #438 ) ;
#355 = CIRCLE ( 'NONE', #582, 14.56568542494922802 ) ;
#356 = AXIS2_PLACEMENT_3D ( 'NONE', #187, #16, #261 ) ;
#357 = DIRECTION ( 'NONE',  ( -0.000000000000000000, -1.000000000000000000, -0.000000000000000000 ) ) ;
#358 = ADVANCED_FACE ( 'NONE', ( #71 ), #131, .F. ) ;
#359 = CARTESIAN_POINT ( 'NONE',  ( 0.000000000000000000, 0.000000000000000000, 0.000000000000000000 ) ) ;
#360 = ORIENTED_EDGE ( 'NONE', *, *, #143, .T. ) ;
#361 = CARTESIAN_POINT ( 'NONE',  ( 1.890158394136926438E-15, -1.999999999999999556, -15.43431457505077020 ) ) ;
#362 = ORIENTED_EDGE ( 'NONE', *, *, #489, .T. ) ;
#363 = DIRECTION ( 'NONE',  ( 0.000000000000000000, 0.000000000000000000, -1.000000000000000000 ) ) ;
#364 = FACE_OUTER_BOUND ( 'NONE', #468, .T. ) ;
#365 = ORIENTED_EDGE ( 'NONE', *, *, #459, .F. ) ;
#366 = DIRECTION ( 'NONE',  ( 0.000000000000000000, 0.000000000000000000, -1.000000000000000000 ) ) ;
#367 = EDGE_CURVE ( 'NONE', #52, #484, #91, .T. ) ;
#368 = COLOUR_RGB ( '',0.7921568627450980005, 0.8196078431372548767, 0.9333333333333333481 ) ;
#369 = DIRECTION ( 'NONE',  ( -0.000000000000000000, -1.000000000000000000, -0.000000000000000000 ) ) ;
#370 = AXIS2_PLACEMENT_3D ( 'NONE', #180, #466, #313 ) ;
#371 = CARTESIAN_POINT ( 'NONE',  ( 1.538852643475663035E-15, 0.000000000000000000, 12.56568542494923513 ) ) ;
#372 = VECTOR ( 'NONE', #433, 1000.000000000000114 ) ;
#373 = ORIENTED_EDGE ( 'NONE', *, *, #424, .F. ) ;
#374 = CARTESIAN_POINT ( 'NONE',  ( 0.000000000000000000, 0.000000000000000000, 0.000000000000000000 ) ) ;
#375 = LINE ( 'NONE', #628, #107 ) ;
#376 = LINE ( 'NONE', #531, #256 ) ;
#377 = CARTESIAN_POINT ( 'NONE',  ( 0.000000000000000000, 20.09999999999999432, 0.000000000000000000 ) ) ;
#378 = ORIENTED_EDGE ( 'NONE', *, *, #644, .F. ) ;
#379 = CARTESIAN_POINT ( 'NONE',  ( 0.000000000000000000, 0.000000000000000000, -22.50000000000000000 ) ) ;
#380 = DIRECTION ( 'NONE',  ( -0.000000000000000000, 1.000000000000000000, -0.000000000000000000 ) ) ;
#381 = CARTESIAN_POINT ( 'NONE',  ( 1.714505518806294835E-15, 0.000000000000000000, 14.00000000000000178 ) ) ;
#382 = DIRECTION ( 'NONE',  ( 0.000000000000000000, 0.000000000000000000, -1.000000000000000000 ) ) ;
#383 = EDGE_CURVE ( 'NONE', #541, #174, #431, .T. ) ;
#384 = AXIS2_PLACEMENT_3D ( 'NONE', #491, #326, #479 ) ;
#385 = DIRECTION ( 'NONE',  ( -0.000000000000000000, -1.000000000000000000, -0.000000000000000000 ) ) ;
#386 = DIRECTION ( 'NONE',  ( -0.000000000000000000, 1.000000000000000000, -0.000000000000000000 ) ) ;
#387 = VERTEX_POINT ( 'NONE', #538 ) ;
#388 = DIRECTION ( 'NONE',  ( 0.000000000000000000, 0.000000000000000000, -1.000000000000000000 ) ) ;
#389 = APPLICATION_CONTEXT ( 'automotive_design' ) ;
#390 = EDGE_CURVE ( 'NONE', #728, #52, #439, .T. ) ;
#391 =( NAMED_UNIT ( * ) PLANE_ANGLE_UNIT ( ) SI_UNIT ( $, .RADIAN. ) );
#392 = CIRCLE ( 'NONE', #225, 22.50000000000000000 ) ;
#393 = AXIS2_PLACEMENT_3D ( 'NONE', #197, #102, #719 ) ;
#394 = AXIS2_PLACEMENT_3D ( 'NONE', #520, #301, #693 ) ;
#395 = COLOUR_RGB ( '',0.7921568627450980005, 0.8196078431372548767, 0.9333333333333333481 ) ;
#396 = ORIENTED_EDGE ( 'NONE', *, *, #367, .T. ) ;
#397 = CARTESIAN_POINT ( 'NONE',  ( 0.000000000000000000, 3.000000000000000888, 0.000000000000000000 ) ) ;
#398 = CARTESIAN_POINT ( 'NONE',  ( 3.857637417314162689E-16, 14.49999999999999822, 3.149999999999999911 ) ) ;
#399 = FACE_OUTER_BOUND ( 'NONE', #677, .T. ) ;
#400 = VERTEX_POINT ( 'NONE', #663 ) ;
#401 = EDGE_CURVE ( 'NONE', #130, #174, #629, .T. ) ;
#402 = AXIS2_PLACEMENT_3D ( 'NONE', #249, #704, #653 ) ;
#403 = ORIENTED_EDGE ( 'NONE', *, *, #644, .T. ) ;
#404 = CIRCLE ( 'NONE', #394, 13.59999999999999254 ) ;
#405 = LINE ( 'NONE', #574, #415 ) ;
#406 = ORIENTED_EDGE ( 'NONE', *, *, #507, .T. ) ;
#407 = CARTESIAN_POINT ( 'NONE',  ( 4.347496136973109297E-16, 20.50000000000000000, -3.550000000000004707 ) ) ;
#408 = DIRECTION ( 'NONE',  ( 0.000000000000000000, 0.000000000000000000, -1.000000000000000000 ) ) ;
#409 = ORIENTED_EDGE ( 'NONE', *, *, #746, .T. ) ;
#410 = EDGE_CURVE ( 'NONE', #61, #299, #198, .T. ) ;
#411 = CARTESIAN_POINT ( 'NONE',  ( 0.000000000000000000, -1.999999999999999556, 0.000000000000000000 ) ) ;
#412 = DIRECTION ( 'NONE',  ( 0.000000000000000000, -1.000000000000000000, -0.000000000000000000 ) ) ;
#413 = VERTEX_POINT ( 'NONE', #594 ) ;
#414 = VECTOR ( 'NONE', #97, 1000.000000000000114 ) ;
#415 = VECTOR ( 'NONE', #120, 1000.000000000000000 ) ;
#416 = CARTESIAN_POINT ( 'NONE',  ( 0.000000000000000000, 20.09999999999999432, -3.149999999999999911 ) ) ;
#417 = ORIENTED_EDGE ( 'NONE', *, *, #126, .F. ) ;
#418 = DIRECTION ( 'NONE',  ( 0.000000000000000000, 1.000000000000000000, 0.000000000000000000 ) ) ;
#419 = DIRECTION ( 'NONE',  ( 0.000000000000000000, 0.000000000000000000, 1.000000000000000000 ) ) ;
#420 = CARTESIAN_POINT ( 'NONE',  ( 0.000000000000000000, 3.000000000000000888, 0.000000000000000000 ) ) ;
#421 = CYLINDRICAL_SURFACE ( 'NONE', #156, 22.50000000000000000 ) ;
#422 = DIRECTION ( 'NONE',  ( 0.000000000000000000, 0.000000000000000000, -1.000000000000000000 ) ) ;
#423 = EDGE_LOOP ( 'NONE', ( #205, #7, #668, #323 ) ) ;
#424 = EDGE_CURVE ( 'NONE', #174, #228, #661, .T. ) ;
#425 = CARTESIAN_POINT ( 'NONE',  ( 0.000000000000000000, 20.50000000000000000, 0.000000000000000000 ) ) ;
#426 = DIRECTION ( 'NONE',  ( 0.000000000000000000, 0.000000000000000000, 1.000000000000000000 ) ) ;
#427 = CONICAL_SURFACE ( 'NONE', #191, 22.09999999999998366, 0.7853981633974482790 ) ;
#428 = DIRECTION ( 'NONE',  ( 0.000000000000000000, 0.000000000000000000, -1.000000000000000000 ) ) ;
#429 = ORIENTED_EDGE ( 'NONE', *, *, #667, .T. ) ;
#430 = ORIENTED_EDGE ( 'NONE', *, *, #85, .F. ) ;
#431 = LINE ( 'NONE', #317, #342 ) ;
#432 = LINE ( 'NONE', #371, #705 ) ;
#433 = DIRECTION ( 'NONE',  ( 0.000000000000000000, -0.7071067811865474617, -0.7071067811865474617 ) ) ;
#434 = ADVANCED_FACE ( 'NONE', ( #324 ), #3, .T. ) ;
#435 = CARTESIAN_POINT ( 'NONE',  ( 0.000000000000000000, 0.000000000000000000, 0.000000000000000000 ) ) ;
#436 = CARTESIAN_POINT ( 'NONE',  ( 0.000000000000000000, 0.000000000000000000, 0.000000000000000000 ) ) ;
#437 = AXIS2_PLACEMENT_3D ( 'NONE', #617, #93, #271 ) ;
#438 = DIRECTION ( 'NONE',  ( 0.000000000000000000, 0.000000000000000000, -1.000000000000000000 ) ) ;
#439 = CIRCLE ( 'NONE', #206, 22.50000000000000000 ) ;
#440 = EDGE_LOOP ( 'NONE', ( #373, #699, #30, #378 ) ) ;
#441 = DIRECTION ( 'NONE',  ( -0.000000000000000000, -1.000000000000000000, -0.000000000000000000 ) ) ;
#442 = DIRECTION ( 'NONE',  ( -0.000000000000000000, -1.000000000000000000, -0.000000000000000000 ) ) ;
#443 = ADVANCED_FACE ( 'NONE', ( #132 ), #27, .F. ) ;
#444 = ORIENTED_EDGE ( 'NONE', *, *, #309, .F. ) ;
#445 = CARTESIAN_POINT ( 'NONE',  ( 0.000000000000000000, 11.50000000000000178, 0.000000000000000000 ) ) ;
#446 = ADVANCED_FACE ( 'NONE', ( #200 ), #696, .T. ) ;
#447 = EDGE_LOOP ( 'NONE', ( #79, #749 ) ) ;
#448 = CIRCLE ( 'NONE', #480, 8.399999999999998579 ) ;
#449 = AXIS2_PLACEMENT_3D ( 'NONE', #530, #73, #645 ) ;
#450 = CARTESIAN_POINT ( 'NONE',  ( 0.000000000000000000, 6.297617000994949745E-16, 0.000000000000000000 ) ) ;
#451 = VERTEX_POINT ( 'NONE', #247 ) ;
#452 = CARTESIAN_POINT ( 'NONE',  ( 1.714505518806294835E-15, 20.09999999999999076, 14.00000000000000178 ) ) ;
#453 = EDGE_LOOP ( 'NONE', ( #69, #564, #196, #264 ) ) ;
#454 = AXIS2_PLACEMENT_3D ( 'NONE', #243, #598, #84 ) ;
#455 = CONICAL_SURFACE ( 'NONE', #560, 15.43431457505077020, 0.7853981633974457255 ) ;
#456 = LINE ( 'NONE', #288, #119 ) ;
#457 = CIRCLE ( 'NONE', #384, 15.43431457505077020 ) ;
#458 = ORIENTED_EDGE ( 'NONE', *, *, #566, .F. ) ;
#459 = EDGE_CURVE ( 'NONE', #556, #140, #498, .T. ) ;
#460 = CARTESIAN_POINT ( 'NONE',  ( 0.000000000000000000, 6.822748897939533261E-16, 0.000000000000000000 ) ) ;
#461 = ORIENTED_EDGE ( 'NONE', *, *, #250, .F. ) ;
#462 = DIRECTION ( 'NONE',  ( 0.000000000000000000, 1.000000000000000000, 0.000000000000000000 ) ) ;
#463 = CARTESIAN_POINT ( 'NONE',  ( 0.000000000000000000, 0.3999999999999977462, -8.000000000000000000 ) ) ;
#464 = VECTOR ( 'NONE', #268, 1000.000000000000000 ) ;
#465 = CIRCLE ( 'NONE', #157, 22.50000000000000000 ) ;
#466 = DIRECTION ( 'NONE',  ( -0.000000000000000000, 1.000000000000000000, -0.000000000000000000 ) ) ;
#467 = CARTESIAN_POINT ( 'NONE',  ( 2.706469426115648589E-15, 6.822748897939533261E-16, -22.09999999999998366 ) ) ;
#468 = EDGE_LOOP ( 'NONE', ( #461, #365, #409, #136 ) ) ;
#469 = DIRECTION ( 'NONE',  ( 0.000000000000000000, -1.000000000000000000, -0.000000000000000000 ) ) ;
#470 = EDGE_CURVE ( 'NONE', #277, #296, #19, .T. ) ;
#471 = EDGE_LOOP ( 'NONE', ( #706, #738 ) ) ;
#472 = EDGE_LOOP ( 'NONE', ( #149, #616, #40, #224 ) ) ;
#473 = DIRECTION ( 'NONE',  ( 0.000000000000000000, 0.000000000000000000, 1.000000000000000000 ) ) ;
#474 = PRODUCT_DEFINITION_CONTEXT ( 'detailed design', #389, 'design' ) ;
#475 = CARTESIAN_POINT ( 'NONE',  ( 0.000000000000000000, 6.822748897939533261E-16, 0.000000000000000000 ) ) ;
#476 = FACE_OUTER_BOUND ( 'NONE', #453, .T. ) ;
#477 =( NAMED_UNIT ( * ) PLANE_ANGLE_UNIT ( ) SI_UNIT ( $, .RADIAN. ) );
#478 = VERTEX_POINT ( 'NONE', #94 ) ;
#479 = DIRECTION ( 'NONE',  ( 0.000000000000000000, 0.000000000000000000, -1.000000000000000000 ) ) ;
#480 = AXIS2_PLACEMENT_3D ( 'NONE', #185, #650, #422 ) ;
#481 = FILL_AREA_STYLE ('',( #253 ) ) ;
#482 = AXIS2_PLACEMENT_3D ( 'NONE', #377, #80, #542 ) ;
#483 = FACE_BOUND ( 'NONE', #548, .T. ) ;
#484 = VERTEX_POINT ( 'NONE', #330 ) ;
#485 =( LENGTH_UNIT ( ) NAMED_UNIT ( * ) SI_UNIT ( .MILLI., .METRE. ) );
#486 = CARTESIAN_POINT ( 'NONE',  ( 0.000000000000000000, -1.999999999999999556, 15.43431457505077020 ) ) ;
#487 = EDGE_LOOP ( 'NONE', ( #671, #516, #230, #291 ) ) ;
#488 = FACE_OUTER_BOUND ( 'NONE', #684, .T. ) ;
#489 = EDGE_CURVE ( 'NONE', #695, #61, #561, .T. ) ;
#490 = CARTESIAN_POINT ( 'NONE',  ( 12.00000000000000000, 1.767141685535540164E-16, 0.000000000000000000 ) ) ;
#491 = CARTESIAN_POINT ( 'NONE',  ( 0.000000000000000000, -1.999999999999999556, 0.000000000000000000 ) ) ;
#492 = DIRECTION ( 'NONE',  ( -0.000000000000000000, -1.000000000000000000, -0.000000000000000000 ) ) ;
#493 = ORIENTED_EDGE ( 'NONE', *, *, #707, .F. ) ;
#494 = AXIS2_PLACEMENT_3D ( 'NONE', #608, #193, #22 ) ;
#495 = CIRCLE ( 'NONE', #609, 8.000000000000000000 ) ;
#496 = LINE ( 'NONE', #669, #414 ) ;
#497 = EDGE_CURVE ( 'NONE', #400, #277, #584, .T. ) ;
#498 = CIRCLE ( 'NONE', #482, 3.149999999999999911 ) ;
#499 = ORIENTED_EDGE ( 'NONE', *, *, #336, .F. ) ;
#500 =( LENGTH_UNIT ( ) NAMED_UNIT ( * ) SI_UNIT ( .MILLI., .METRE. ) );
#501 = ORIENTED_EDGE ( 'NONE', *, *, #401, .T. ) ;
#502 = DIRECTION ( 'NONE',  ( -0.000000000000000000, -1.000000000000000000, -0.000000000000000000 ) ) ;
#503 = VERTEX_POINT ( 'NONE', #282 ) ;
#504 = CARTESIAN_POINT ( 'NONE',  ( 0.000000000000000000, 14.50000000000000000, -8.000000000000000000 ) ) ;
#505 =( GEOMETRIC_REPRESENTATION_CONTEXT ( 3 ) GLOBAL_UNCERTAINTY_ASSIGNED_CONTEXT ( ( #563 ) ) GLOBAL_UNIT_ASSIGNED_CONTEXT ( ( #500, #391, #101 ) ) REPRESENTATION_CONTEXT ( 'NONE', 'WORKASPACE' ) );
#506 = VECTOR ( 'NONE', #229, 1000.000000000000000 ) ;
#507 = EDGE_CURVE ( 'NONE', #587, #130, #576, .T. ) ;
#508 = ORIENTED_EDGE ( 'NONE', *, *, #383, .T. ) ;
#509 = EDGE_CURVE ( 'NONE', #296, #607, #525, .T. ) ;
#510 = UNCERTAINTY_MEASURE_WITH_UNIT (LENGTH_MEASURE( 1.000000000000000082E-05 ), #485, 'distance_accuracy_value', 'NONE');
#511 = CARTESIAN_POINT ( 'NONE',  ( 0.000000000000000000, 0.3999999999999977462, 0.000000000000000000 ) ) ;
#512 = FACE_OUTER_BOUND ( 'NONE', #487, .T. ) ;
#513 = CARTESIAN_POINT ( 'NONE',  ( 0.000000000000000000, 0.000000000000000000, 0.000000000000000000 ) ) ;
#514 = EDGE_CURVE ( 'NONE', #647, #61, #218, .T. ) ;
#515 = AXIS2_PLACEMENT_3D ( 'NONE', #714, #78, #419 ) ;
#516 = ORIENTED_EDGE ( 'NONE', *, *, #624, .T. ) ;
#517 = AXIS2_PLACEMENT_3D ( 'NONE', #752, #623, #408 ) ;
#518 = ADVANCED_FACE ( 'NONE', ( #352 ), #751, .F. ) ;
#519 = ORIENTED_EDGE ( 'NONE', *, *, #37, .F. ) ;
#520 = CARTESIAN_POINT ( 'NONE',  ( 0.000000000000000000, 20.50000000000000000, 0.000000000000000000 ) ) ;
#521 = ORIENTED_EDGE ( 'NONE', *, *, #509, .T. ) ;
#522 = DIRECTION ( 'NONE',  ( -0.000000000000000000, -1.000000000000000000, -0.000000000000000000 ) ) ;
#523 = CARTESIAN_POINT ( 'NONE',  ( 1.690012582823346938E-15, 20.50000000000000000, 13.59999999999999254 ) ) ;
#524 = VERTEX_POINT ( 'NONE', #54 ) ;
#525 = CIRCLE ( 'NONE', #202, 17.43431457505075954 ) ;
#526 = ORIENTED_EDGE ( 'NONE', *, *, #497, .T. ) ;
#527 = AXIS2_PLACEMENT_3D ( 'NONE', #445, #441, #724 ) ;
#528 = AXIS2_PLACEMENT_3D ( 'NONE', #578, #53, #294 ) ;
#529 = EDGE_CURVE ( 'NONE', #228, #728, #376, .T. ) ;
#530 = CARTESIAN_POINT ( 'NONE',  ( 0.000000000000000000, 6.822748897939533261E-16, 0.000000000000000000 ) ) ;
#531 = CARTESIAN_POINT ( 'NONE',  ( 2.755455298081544778E-15, 3.000000000000000888, 22.50000000000000000 ) ) ;
#532 = ORIENTED_EDGE ( 'NONE', *, *, #507, .F. ) ;
#533 = DIRECTION ( 'NONE',  ( 0.000000000000000000, 0.000000000000000000, -1.000000000000000000 ) ) ;
#534 = FACE_OUTER_BOUND ( 'NONE', #630, .T. ) ;
#535 = ADVANCED_FACE ( 'NONE', ( #364 ), #678, .F. ) ;
#536 = PLANE ( 'NONE',  #454 ) ;
#537 = ORIENTED_EDGE ( 'NONE', *, *, #514, .T. ) ;
#538 = CARTESIAN_POINT ( 'NONE',  ( 0.000000000000000000, 0.000000000000000000, -12.56568542494923513 ) ) ;
#539 = CARTESIAN_POINT ( 'NONE',  ( 0.000000000000000000, 3.000000000000000888, -22.50000000000000000 ) ) ;
#540 = FACE_BOUND ( 'NONE', #639, .T. ) ;
#541 = VERTEX_POINT ( 'NONE', #523 ) ;
#542 = DIRECTION ( 'NONE',  ( 0.000000000000000000, 0.000000000000000000, 1.000000000000000000 ) ) ;
#543 = EDGE_CURVE ( 'NONE', #221, #695, #745, .T. ) ;
#544 = ORIENTED_EDGE ( 'NONE', *, *, #250, .T. ) ;
#545 = CONICAL_SURFACE ( 'NONE', #354, 14.00000000000000178, 0.7853981633974461696 ) ;
#546 = AXIS2_PLACEMENT_3D ( 'NONE', #51, #580, #103 ) ;
#547 = CARTESIAN_POINT ( 'NONE',  ( 3.857637417314162689E-16, 20.09999999999999432, 3.149999999999999911 ) ) ;
#548 = EDGE_LOOP ( 'NONE', ( #273, #345 ) ) ;
#549 = ORIENTED_EDGE ( 'NONE', *, *, #579, .T. ) ;
#550 = DIRECTION ( 'NONE',  ( -0.000000000000000000, -1.000000000000000000, -0.000000000000000000 ) ) ;
#551 = DIRECTION ( 'NONE',  ( -0.000000000000000000, -1.000000000000000000, -0.000000000000000000 ) ) ;
#552 = CARTESIAN_POINT ( 'NONE',  ( 0.000000000000000000, 0.000000000000000000, 0.000000000000000000 ) ) ;
#553 = EDGE_LOOP ( 'NONE', ( #735, #360, #302, #320 ) ) ;
#554 = CARTESIAN_POINT ( 'NONE',  ( 0.000000000000000000, 0.000000000000000000, -12.56568542494923513 ) ) ;
#555 = CARTESIAN_POINT ( 'NONE',  ( 0.000000000000000000, 0.000000000000000000, -8.000000000000000000 ) ) ;
#556 = VERTEX_POINT ( 'NONE', #547 ) ;
#557 = CIRCLE ( 'NONE', #527, 14.00000000000000355 ) ;
#558 = EDGE_CURVE ( 'NONE', #86, #299, #448, .T. ) ;
#559 = DIRECTION ( 'NONE',  ( -0.000000000000000000, -1.000000000000000000, -0.000000000000000000 ) ) ;
#560 = AXIS2_PLACEMENT_3D ( 'NONE', #231, #418, #688 ) ;
#561 = LINE ( 'NONE', #555, #596 ) ;
#562 = ORIENTED_EDGE ( 'NONE', *, *, #222, .F. ) ;
#563 = UNCERTAINTY_MEASURE_WITH_UNIT (LENGTH_MEASURE( 1.000000000000000082E-05 ), #500, 'distance_accuracy_value', 'NONE');
#564 = ORIENTED_EDGE ( 'NONE', *, *, #217, .F. ) ;
#565 = DIRECTION ( 'NONE',  ( 0.000000000000000000, 0.000000000000000000, -1.000000000000000000 ) ) ;
#566 = EDGE_CURVE ( 'NONE', #484, #503, #392, .T. ) ;
#567 = ADVANCED_BREP_SHAPE_REPRESENTATION ( 'Compressor Foot Mini BT', ( #172, #393 ), #505 ) ;
#568 = AXIS2_PLACEMENT_3D ( 'NONE', #232, #60, #689 ) ;
#569 = CONICAL_SURFACE ( 'NONE', #437, 8.000000000000000000, 0.7853981633974482790 ) ;
#570 = VECTOR ( 'NONE', #62, 1000.000000000000114 ) ;
#571 = DIRECTION ( 'NONE',  ( -0.000000000000000000, -1.000000000000000000, -0.000000000000000000 ) ) ;
#572 = CIRCLE ( 'NONE', #267, 22.50000000000000000 ) ;
#573 = ORIENTED_EDGE ( 'NONE', *, *, #276, .T. ) ;
#574 = CARTESIAN_POINT ( 'NONE',  ( 2.755455298081544778E-15, 0.000000000000000000, 22.50000000000000000 ) ) ;
#575 = ADVANCED_FACE ( 'NONE', ( #540, #602 ), #536, .T. ) ;
#576 = LINE ( 'NONE', #741, #664 ) ;
#577 = ORIENTED_EDGE ( 'NONE', *, *, #182, .F. ) ;
#578 = CARTESIAN_POINT ( 'NONE',  ( 0.000000000000000000, 1.767141685535540164E-16, 0.000000000000000000 ) ) ;
#579 = EDGE_CURVE ( 'NONE', #478, #316, #432, .T. ) ;
#580 = DIRECTION ( 'NONE',  ( 0.000000000000000000, -1.000000000000000000, 0.000000000000000000 ) ) ;
#581 = AXIS2_PLACEMENT_3D ( 'NONE', #397, #551, #565 ) ;
#582 = AXIS2_PLACEMENT_3D ( 'NONE', #65, #357, #77 ) ;
#583 = ORIENTED_EDGE ( 'NONE', *, *, #85, .T. ) ;
#584 = CIRCLE ( 'NONE', #24, 15.43431457505077020 ) ;
#585 = DIRECTION ( 'NONE',  ( -0.000000000000000000, -1.000000000000000000, -0.000000000000000000 ) ) ;
#586 = DIRECTION ( 'NONE',  ( 0.000000000000000000, 0.000000000000000000, -1.000000000000000000 ) ) ;
#587 = VERTEX_POINT ( 'NONE', #124 ) ;
#588 = DIRECTION ( 'NONE',  ( 0.000000000000000000, -0.7071067811865477948, -0.7071067811865473507 ) ) ;
#589 = CARTESIAN_POINT ( 'NONE',  ( 9.797174393178825657E-16, 0.3999999999999977462, 8.000000000000000000 ) ) ;
#590 = EDGE_CURVE ( 'NONE', #695, #221, #495, .T. ) ;
#591 = DIRECTION ( 'NONE',  ( 0.000000000000000000, 0.000000000000000000, -1.000000000000000000 ) ) ;
#592 = CARTESIAN_POINT ( 'NONE',  ( 0.000000000000000000, 14.50000000000000000, 0.000000000000000000 ) ) ;
#593 = ORIENTED_EDGE ( 'NONE', *, *, #367, .F. ) ;
#594 = CARTESIAN_POINT ( 'NONE',  ( 0.000000000000000000, 6.822748897939533261E-16, 22.09999999999998366 ) ) ;
#595 =( GEOMETRIC_REPRESENTATION_CONTEXT ( 3 ) GLOBAL_UNCERTAINTY_ASSIGNED_CONTEXT ( ( #510 ) ) GLOBAL_UNIT_ASSIGNED_CONTEXT ( ( #485, #477, #655 ) ) REPRESENTATION_CONTEXT ( 'NONE', 'WORKASPACE' ) );
#596 = VECTOR ( 'NONE', #209, 1000.000000000000000 ) ;
#597 = CARTESIAN_POINT ( 'NONE',  ( 0.000000000000000000, 14.49999999999999822, -3.149999999999999911 ) ) ;
#598 = DIRECTION ( 'NONE',  ( 0.000000000000000000, 1.000000000000000000, 0.000000000000000000 ) ) ;
#599 = ORIENTED_EDGE ( 'NONE', *, *, #37, .T. ) ;
#600 = DIRECTION ( 'NONE',  ( 0.000000000000000000, 0.000000000000000000, -1.000000000000000000 ) ) ;
#601 = ADVANCED_FACE ( 'NONE', ( #611 ), #214, .T. ) ;
#602 = FACE_OUTER_BOUND ( 'NONE', #701, .T. ) ;
#603 = ORIENTED_EDGE ( 'NONE', *, *, #753, .T. ) ;
#604 = FACE_OUTER_BOUND ( 'NONE', #440, .T. ) ;
#605 = PLANE ( 'NONE',  #166 ) ;
#606 = ADVANCED_FACE ( 'NONE', ( #13 ), #129, .F. ) ;
#607 = VERTEX_POINT ( 'NONE', #305 ) ;
#608 = CARTESIAN_POINT ( 'NONE',  ( 0.000000000000000000, 14.49999999999999822, 0.000000000000000000 ) ) ;
#609 = AXIS2_PLACEMENT_3D ( 'NONE', #18, #239, #139 ) ;
#610 = CONICAL_SURFACE ( 'NONE', #734, 22.09999999999998366, 0.7853981633974482790 ) ;
#611 = FACE_OUTER_BOUND ( 'NONE', #186, .T. ) ;
#612 = CARTESIAN_POINT ( 'NONE',  ( 0.000000000000000000, 0.3999999999999977462, -8.000000000000000000 ) ) ;
#613 = SURFACE_STYLE_USAGE ( .BOTH. , #147 ) ;
#614 = CARTESIAN_POINT ( 'NONE',  ( 2.755455298081544778E-15, 3.000000000000000888, 22.50000000000000000 ) ) ;
#615 = ADVANCED_FACE ( 'NONE', ( #181, #711 ), #605, .T. ) ;
#616 = ORIENTED_EDGE ( 'NONE', *, *, #459, .T. ) ;
#617 = CARTESIAN_POINT ( 'NONE',  ( 0.000000000000000000, 0.3999999999999977462, 0.000000000000000000 ) ) ;
#618 = ORIENTED_EDGE ( 'NONE', *, *, #235, .T. ) ;
#619 = AXIS2_PLACEMENT_3D ( 'NONE', #490, #142, #382 ) ;
#620 = PRESENTATION_LAYER_ASSIGNMENT (  '', '', ( #335 ) ) ;
#621 = PRODUCT_CONTEXT ( 'NONE', #349, 'mechanical' ) ;
#622 = ORIENTED_EDGE ( 'NONE', *, *, #217, .T. ) ;
#623 = DIRECTION ( 'NONE',  ( -0.000000000000000000, -1.000000000000000000, -0.000000000000000000 ) ) ;
#624 = EDGE_CURVE ( 'NONE', #524, #484, #698, .T. ) ;
#625 = ORIENTED_EDGE ( 'NONE', *, *, #212, .T. ) ;
#626 = AXIS2_PLACEMENT_3D ( 'NONE', #179, #412, #283 ) ;
#627 = CIRCLE ( 'NONE', #254, 17.43431457505075954 ) ;
#628 = CARTESIAN_POINT ( 'NONE',  ( 0.000000000000000000, 0.000000000000000000, -3.149999999999999911 ) ) ;
#629 = CIRCLE ( 'NONE', #306, 14.00000000000000178 ) ;
#630 = EDGE_LOOP ( 'NONE', ( #311, #636, #396, #121 ) ) ;
#631 = ADVANCED_FACE ( 'NONE', ( #476 ), #293, .F. ) ;
#632 = FACE_OUTER_BOUND ( 'NONE', #447, .T. ) ;
#633 = ORIENTED_EDGE ( 'NONE', *, *, #753, .F. ) ;
#634 = CARTESIAN_POINT ( 'NONE',  ( 0.000000000000000000, 3.000000000000000888, -22.50000000000000000 ) ) ;
#635 = PRODUCT_RELATED_PRODUCT_CATEGORY ( 'part', '', ( #744 ) ) ;
#636 = ORIENTED_EDGE ( 'NONE', *, *, #390, .T. ) ;
#637 = CARTESIAN_POINT ( 'NONE',  ( 0.000000000000000000, 0.000000000000000000, -14.00000000000000178 ) ) ;
#638 = DIRECTION ( 'NONE',  ( -0.000000000000000000, -1.000000000000000000, -0.000000000000000000 ) ) ;
#639 = EDGE_LOOP ( 'NONE', ( #257, #429 ) ) ;
#640 = AXIS2_PLACEMENT_3D ( 'NONE', #511, #747, #112 ) ;
#641 =( LENGTH_UNIT ( ) NAMED_UNIT ( * ) SI_UNIT ( .MILLI., .METRE. ) );
#642 = DIRECTION ( 'NONE',  ( -0.000000000000000000, -1.000000000000000000, -0.000000000000000000 ) ) ;
#643 = DIRECTION ( 'NONE',  ( 0.000000000000000000, 0.000000000000000000, -1.000000000000000000 ) ) ;
#644 = EDGE_CURVE ( 'NONE', #228, #155, #43, .T. ) ;
#645 = DIRECTION ( 'NONE',  ( 0.000000000000000000, 0.000000000000000000, -1.000000000000000000 ) ) ;
#646 = CARTESIAN_POINT ( 'NONE',  ( 0.000000000000000000, 0.3999999999999977462, 0.000000000000000000 ) ) ;
#647 = VERTEX_POINT ( 'NONE', #255 ) ;
#648 = DIRECTION ( 'NONE',  ( 0.000000000000000000, 0.000000000000000000, -1.000000000000000000 ) ) ;
#649 = CARTESIAN_POINT ( 'NONE',  ( 0.000000000000000000, 0.000000000000000000, 0.000000000000000000 ) ) ;
#650 = DIRECTION ( 'NONE',  ( 0.000000000000000000, 1.000000000000000000, 0.000000000000000000 ) ) ;
#651 = DIRECTION ( 'NONE',  ( 0.000000000000000000, 0.000000000000000000, -1.000000000000000000 ) ) ;
#652 = ADVANCED_FACE ( 'NONE', ( #483, #25 ), #259, .T. ) ;
#653 = DIRECTION ( 'NONE',  ( 0.000000000000000000, 0.000000000000000000, -1.000000000000000000 ) ) ;
#654 = ORIENTED_EDGE ( 'NONE', *, *, #624, .F. ) ;
#655 =( NAMED_UNIT ( * ) SI_UNIT ( $, .STERADIAN. ) SOLID_ANGLE_UNIT ( ) );
#656 = EDGE_LOOP ( 'NONE', ( #348, #270, #48, #577 ) ) ;
#657 = CYLINDRICAL_SURFACE ( 'NONE', #146, 14.00000000000000178 ) ;
#658 = EDGE_CURVE ( 'NONE', #174, #130, #318, .T. ) ;
#659 = DIRECTION ( 'NONE',  ( 0.000000000000000000, 0.000000000000000000, -1.000000000000000000 ) ) ;
#660 = ORIENTED_EDGE ( 'NONE', *, *, #383, .F. ) ;
#661 = LINE ( 'NONE', #381, #681 ) ;
#662 = CARTESIAN_POINT ( 'NONE',  ( 14.56568542494922802, -1.999999999999999556, 0.000000000000000000 ) ) ;
#663 = CARTESIAN_POINT ( 'NONE',  ( 2.012623074051661191E-15, -1.999999999999999556, -15.43431457505077020 ) ) ;
#664 = VECTOR ( 'NONE', #163, 1000.000000000000114 ) ;
#665 = VECTOR ( 'NONE', #144, 1000.000000000000000 ) ;
#666 = DIRECTION ( 'NONE',  ( 0.000000000000000000, 0.000000000000000000, -1.000000000000000000 ) ) ;
#667 = EDGE_CURVE ( 'NONE', #241, #451, #5, .T. ) ;
#668 = ORIENTED_EDGE ( 'NONE', *, *, #300, .F. ) ;
#669 = CARTESIAN_POINT ( 'NONE',  ( 0.000000000000000000, 20.50000000000000000, 3.550000000000004707 ) ) ;
#670 = APPLICATION_PROTOCOL_DEFINITION ( 'draft international standard', 'automotive_design', 1998, #389 ) ;
#671 = ORIENTED_EDGE ( 'NONE', *, *, #104, .F. ) ;
#672 = FACE_OUTER_BOUND ( 'NONE', #211, .T. ) ;
#673 = AXIS2_PLACEMENT_3D ( 'NONE', #513, #50, #643 ) ;
#674 =( NAMED_UNIT ( * ) SI_UNIT ( $, .STERADIAN. ) SOLID_ANGLE_UNIT ( ) );
#675 = EDGE_LOOP ( 'NONE', ( #519, #151 ) ) ;
#676 = ADVANCED_FACE ( 'NONE', ( #329 ), #722, .T. ) ;
#677 = EDGE_LOOP ( 'NONE', ( #245, #549, #125, #633 ) ) ;
#678 = CONICAL_SURFACE ( 'NONE', #189, 3.550000000000004707, 0.7853981633974439491 ) ;
#679 = CIRCLE ( 'NONE', #370, 3.149999999999999911 ) ;
#680 = ADVANCED_FACE ( 'NONE', ( #672 ), #569, .F. ) ;
#681 = VECTOR ( 'NONE', #87, 1000.000000000000000 ) ;
#682 = EDGE_LOOP ( 'NONE', ( #726, #403, #573, #712 ) ) ;
#683 = DIRECTION ( 'NONE',  ( 0.000000000000000000, 0.000000000000000000, 1.000000000000000000 ) ) ;
#684 = EDGE_LOOP ( 'NONE', ( #58, #721 ) ) ;
#685 = CARTESIAN_POINT ( 'NONE',  ( 0.000000000000000000, 3.000000000000000888, 0.000000000000000000 ) ) ;
#686 = EDGE_CURVE ( 'NONE', #155, #228, #557, .T. ) ;
#687 = PRESENTATION_STYLE_ASSIGNMENT (( #115 ) ) ;
#688 = DIRECTION ( 'NONE',  ( 0.000000000000000000, 0.000000000000000000, 1.000000000000000000 ) ) ;
#689 = DIRECTION ( 'NONE',  ( 0.000000000000000000, 0.000000000000000000, 1.000000000000000000 ) ) ;
#690 = CONICAL_SURFACE ( 'NONE', #116, 3.550000000000004707, 0.7853981633974439491 ) ;
#691 = ORIENTED_EDGE ( 'NONE', *, *, #401, .F. ) ;
#692 = AXIS2_PLACEMENT_3D ( 'NONE', #173, #353, #108 ) ;
#693 = DIRECTION ( 'NONE',  ( 0.000000000000000000, 0.000000000000000000, 1.000000000000000000 ) ) ;
#694 = DIRECTION ( 'NONE',  ( 0.000000000000000000, 0.000000000000000000, -1.000000000000000000 ) ) ;
#695 = VERTEX_POINT ( 'NONE', #504 ) ;
#696 = CYLINDRICAL_SURFACE ( 'NONE', #234, 14.00000000000000178 ) ;
#697 = FACE_OUTER_BOUND ( 'NONE', #553, .T. ) ;
#698 = LINE ( 'NONE', #467, #154 ) ;
#699 = ORIENTED_EDGE ( 'NONE', *, *, #658, .T. ) ;
#700 = ADVANCED_FACE ( 'NONE', ( #39 ), #148, .T. ) ;
#701 = EDGE_LOOP ( 'NONE', ( #583, #244 ) ) ;
#702 = DIRECTION ( 'NONE',  ( -0.000000000000000000, -1.000000000000000000, -0.000000000000000000 ) ) ;
#703 = DIRECTION ( 'NONE',  ( 0.000000000000000000, 1.000000000000000000, 0.000000000000000000 ) ) ;
#704 = DIRECTION ( 'NONE',  ( -0.000000000000000000, -1.000000000000000000, -0.000000000000000000 ) ) ;
#705 = VECTOR ( 'NONE', #190, 1000.000000000000000 ) ;
#706 = ORIENTED_EDGE ( 'NONE', *, *, #222, .T. ) ;
#707 = EDGE_CURVE ( 'NONE', #607, #296, #627, .T. ) ;
#708 = PLANE ( 'NONE',  #356 ) ;
#709 = CIRCLE ( 'NONE', #449, 22.09999999999998366 ) ;
#710 = DIRECTION ( 'NONE',  ( 0.000000000000000000, 0.000000000000000000, -1.000000000000000000 ) ) ;
#711 = FACE_BOUND ( 'NONE', #675, .T. ) ;
#712 = ORIENTED_EDGE ( 'NONE', *, *, #390, .F. ) ;
#713 = DIRECTION ( 'NONE',  ( 8.659560562354913137E-17, -0.7071067811865489050, 0.7071067811865460184 ) ) ;
#714 = CARTESIAN_POINT ( 'NONE',  ( 0.000000000000000000, -1.999999999999999556, 0.000000000000000000 ) ) ;
#715 = VERTEX_POINT ( 'NONE', #398 ) ;
#716 = DIRECTION ( 'NONE',  ( -0.000000000000000000, -1.000000000000000000, -0.000000000000000000 ) ) ;
#717 = ADVANCED_FACE ( 'NONE', ( #150 ), #690, .F. ) ;
#718 = CARTESIAN_POINT ( 'NONE',  ( 0.000000000000000000, 20.09999999999999076, 0.000000000000000000 ) ) ;
#719 = DIRECTION ( 'NONE',  ( 1.000000000000000000, 0.000000000000000000, 0.000000000000000000 ) ) ;
#720 = CIRCLE ( 'NONE', #546, 8.000000000000000000 ) ;
#721 = ORIENTED_EDGE ( 'NONE', *, *, #104, .T. ) ;
#722 = CONICAL_SURFACE ( 'NONE', #581, 22.50000000000000000, 0.7853981633974480570 ) ;
#723 = AXIS2_PLACEMENT_3D ( 'NONE', #263, #550, #11 ) ;
#724 = DIRECTION ( 'NONE',  ( 0.000000000000000000, 0.000000000000000000, -1.000000000000000000 ) ) ;
#725 = ADVANCED_FACE ( 'NONE', ( #266 ), #545, .T. ) ;
#726 = ORIENTED_EDGE ( 'NONE', *, *, #529, .F. ) ;
#727 = CARTESIAN_POINT ( 'NONE',  ( 0.000000000000000000, 20.09999999999999076, 0.000000000000000000 ) ) ;
#728 = VERTEX_POINT ( 'NONE', #614 ) ;
#729 = EDGE_LOOP ( 'NONE', ( #192, #161 ) ) ;
#730 = AXIS2_PLACEMENT_3D ( 'NONE', #727, #492, #262 ) ;
#731 = PRODUCT_DEFINITION_FORMATION_WITH_SPECIFIED_SOURCE ( 'ANY', '', #744, .NOT_KNOWN. ) ;
#732 = AXIS2_PLACEMENT_3D ( 'NONE', #117, #638, #591 ) ;
#733 = DIRECTION ( 'NONE',  ( 0.000000000000000000, 0.000000000000000000, 1.000000000000000000 ) ) ;
#734 = AXIS2_PLACEMENT_3D ( 'NONE', #460, #462, #683 ) ;
#735 = ORIENTED_EDGE ( 'NONE', *, *, #497, .F. ) ;
#736 = UNCERTAINTY_MEASURE_WITH_UNIT (LENGTH_MEASURE( 1.000000000000000082E-05 ), #641, 'distance_accuracy_value', 'NONE');
#737 = DIRECTION ( 'NONE',  ( -0.000000000000000000, -1.000000000000000000, -0.000000000000000000 ) ) ;
#738 = ORIENTED_EDGE ( 'NONE', *, *, #740, .T. ) ;
#739 = SURFACE_STYLE_FILL_AREA ( #280 ) ;
#740 = EDGE_CURVE ( 'NONE', #478, #387, #20, .T. ) ;
#741 = CARTESIAN_POINT ( 'NONE',  ( 0.000000000000000000, 20.09999999999999076, -14.00000000000000178 ) ) ;
#742 = DIRECTION ( 'NONE',  ( 0.000000000000000000, 1.000000000000000000, 0.000000000000000000 ) ) ;
#743 = DIRECTION ( 'NONE',  ( 0.000000000000000000, 0.7071067811865474617, 0.7071067811865474617 ) ) ;
#744 = PRODUCT ( 'Compressor Foot Mini BT', 'Compressor Foot Mini BT', '', ( #621 ) ) ;
#745 = CIRCLE ( 'NONE', #68, 8.000000000000000000 ) ;
#746 = EDGE_CURVE ( 'NONE', #556, #451, #496, .T. ) ;
#747 = DIRECTION ( 'NONE',  ( 0.000000000000000000, -1.000000000000000000, 0.000000000000000000 ) ) ;
#748 = AXIS2_PLACEMENT_3D ( 'NONE', #59, #642, #710 ) ;
#749 = ORIENTED_EDGE ( 'NONE', *, *, #543, .T. ) ;
#750 = LINE ( 'NONE', #637, #506 ) ;
#751 = CYLINDRICAL_SURFACE ( 'NONE', #673, 3.149999999999999911 ) ;
#752 = CARTESIAN_POINT ( 'NONE',  ( 0.000000000000000000, 6.822748897939533261E-16, 0.000000000000000000 ) ) ;
#753 = EDGE_CURVE ( 'NONE', #387, #331, #325, .T. ) ;
#754 = CARTESIAN_POINT ( 'NONE',  ( 0.000000000000000000, 20.09999999999999076, -14.00000000000000178 ) ) ;
ENDSEC;
END-ISO-10303-21;
