ISO-10303-21;
HEADER;
FILE_DESCRIPTION (( 'STEP AP214' ),
    '1' );
FILE_NAME ('Spacer 8x11x25mm.STEP',
    '2026-09-05T20:53:18',
    ( '' ),
    ( '' ),
    '',
    '',
    '' );
FILE_SCHEMA (( 'AUTOMOTIVE_DESIGN' ));
ENDSEC;

DATA;
#1 = DIRECTION ( 'NONE',  ( -1.000000000000000000, 0.000000000000000000, 0.000000000000000000 ) ) ;
#2 = ADVANCED_FACE ( 'NONE', ( #252 ), #378, .F. ) ;
#3 = FILL_AREA_STYLE_COLOUR ( '', #259 ) ;
#4 = CIRCLE ( 'NONE', #273, 5.500000000000000000 ) ;
#5 = AXIS2_PLACEMENT_3D ( 'NONE', #394, #171, #235 ) ;
#6 = CARTESIAN_POINT ( 'NONE',  ( 0.000000000000000000, 0.000000000000000000, 0.1999999999999987899 ) ) ;
#7 = CARTESIAN_POINT ( 'NONE',  ( 0.000000000000000000, 0.000000000000000000, 0.000000000000000000 ) ) ;
#8 = ORIENTED_EDGE ( 'NONE', *, *, #130, .T. ) ;
#9 = ADVANCED_FACE ( 'NONE', ( #278 ), #315, .F. ) ;
#10 = FACE_OUTER_BOUND ( 'NONE', #373, .T. ) ;
#11 = ORIENTED_EDGE ( 'NONE', *, *, #39, .F. ) ;
#12 = STYLED_ITEM ( 'NONE', ( #28 ), #103 ) ;
#13 = CARTESIAN_POINT ( 'NONE',  ( 5.500000000000000000, 6.735557395310442023E-16, 24.80000000000000071 ) ) ;
#14 = PLANE ( 'NONE',  #214 ) ;
#15 = ORIENTED_EDGE ( 'NONE', *, *, #81, .T. ) ;
#16 = CARTESIAN_POINT ( 'NONE',  ( -4.299999999999994493, 5.265981236333611568E-16, 25.00000000000000000 ) ) ;
#17 = VERTEX_POINT ( 'NONE', #383 ) ;
#18 = VERTEX_POINT ( 'NONE', #414 ) ;
#19 = CARTESIAN_POINT ( 'NONE',  ( 0.000000000000000000, 0.000000000000000000, 25.00000000000000000 ) ) ;
#20 = ORIENTED_EDGE ( 'NONE', *, *, #344, .T. ) ;
#21 = DIRECTION ( 'NONE',  ( 1.000000000000000000, 0.000000000000000000, 0.000000000000000000 ) ) ;
#22 = ORIENTED_EDGE ( 'NONE', *, *, #389, .F. ) ;
#23 = ORIENTED_EDGE ( 'NONE', *, *, #231, .F. ) ;
#24 = AXIS2_PLACEMENT_3D ( 'NONE', #391, #144, #291 ) ;
#25 =( GEOMETRIC_REPRESENTATION_CONTEXT ( 3 ) GLOBAL_UNCERTAINTY_ASSIGNED_CONTEXT ( ( #191 ) ) GLOBAL_UNIT_ASSIGNED_CONTEXT ( ( #322, #52, #163 ) ) REPRESENTATION_CONTEXT ( 'NONE', 'WORKASPACE' ) );
#26 = DIRECTION ( 'NONE',  ( 1.000000000000000000, 0.000000000000000000, 0.000000000000000000 ) ) ;
#27 = LINE ( 'NONE', #222, #76 ) ;
#28 = PRESENTATION_STYLE_ASSIGNMENT (( #57 ) ) ;
#29 = DIRECTION ( 'NONE',  ( -0.7071067811865536790, 8.659560562355009279E-17, 0.7071067811865414665 ) ) ;
#30 = DIRECTION ( 'NONE',  ( -0.000000000000000000, -0.000000000000000000, -1.000000000000000000 ) ) ;
#31 = AXIS2_PLACEMENT_3D ( 'NONE', #397, #335, #388 ) ;
#32 = DIRECTION ( 'NONE',  ( 1.000000000000000000, 0.000000000000000000, -0.000000000000000000 ) ) ;
#33 = DIRECTION ( 'NONE',  ( -0.000000000000000000, -0.000000000000000000, 1.000000000000000000 ) ) ;
#34 = ORIENTED_EDGE ( 'NONE', *, *, #209, .T. ) ;
#35 = DIRECTION ( 'NONE',  ( -1.000000000000000000, 0.000000000000000000, 0.000000000000000000 ) ) ;
#36 = CONICAL_SURFACE ( 'NONE', #282, 5.500000000000000000, 0.7853981633974569387 ) ;
#37 = DIRECTION ( 'NONE',  ( -0.000000000000000000, -0.000000000000000000, -1.000000000000000000 ) ) ;
#38 = EDGE_LOOP ( 'NONE', ( #47, #34, #270, #306 ) ) ;
#39 = EDGE_CURVE ( 'NONE', #50, #280, #56, .T. ) ;
#40 = UNCERTAINTY_MEASURE_WITH_UNIT (LENGTH_MEASURE( 1.000000000000000082E-05 ), #312, 'distance_accuracy_value', 'NONE');
#41 = FACE_BOUND ( 'NONE', #313, .T. ) ;
#42 = ORIENTED_EDGE ( 'NONE', *, *, #301, .T. ) ;
#43 = CARTESIAN_POINT ( 'NONE',  ( 5.299999999999997158, 0.000000000000000000, 0.000000000000000000 ) ) ;
#44 = EDGE_LOOP ( 'NONE', ( #177, #80 ) ) ;
#45 = DIRECTION ( 'NONE',  ( -0.000000000000000000, -0.000000000000000000, -1.000000000000000000 ) ) ;
#46 = ADVANCED_FACE ( 'NONE', ( #53 ), #36, .T. ) ;
#47 = ORIENTED_EDGE ( 'NONE', *, *, #217, .F. ) ;
#48 = CIRCLE ( 'NONE', #281, 5.299999999999997158 ) ;
#49 = CARTESIAN_POINT ( 'NONE',  ( 0.000000000000000000, 0.000000000000000000, 25.00000000000000000 ) ) ;
#50 = VERTEX_POINT ( 'NONE', #220 ) ;
#51 = ORIENTED_EDGE ( 'NONE', *, *, #344, .F. ) ;
#52 =( NAMED_UNIT ( * ) PLANE_ANGLE_UNIT ( ) SI_UNIT ( $, .RADIAN. ) );
#53 = FACE_OUTER_BOUND ( 'NONE', #147, .T. ) ;
#54 = VECTOR ( 'NONE', #277, 1000.000000000000000 ) ;
#55 = PRODUCT_DEFINITION_CONTEXT ( 'detailed design', #300, 'design' ) ;
#56 = LINE ( 'NONE', #355, #65 ) ;
#57 = SURFACE_STYLE_USAGE ( .BOTH. , #219 ) ;
#58 = ADVANCED_FACE ( 'NONE', ( #162 ), #148, .F. ) ;
#59 = PRESENTATION_LAYER_ASSIGNMENT (  '', '', ( #12 ) ) ;
#60 = PRESENTATION_STYLE_ASSIGNMENT (( #345 ) ) ;
#61 = CARTESIAN_POINT ( 'NONE',  ( -5.500000000000000000, 6.735557395310442023E-16, 0.1999999999999987899 ) ) ;
#62 = CARTESIAN_POINT ( 'NONE',  ( -5.299999999999997158, 6.613092715395705494E-16, 0.000000000000000000 ) ) ;
#63 = EDGE_CURVE ( 'NONE', #242, #280, #4, .T. ) ;
#64 = CARTESIAN_POINT ( 'NONE',  ( -4.099999999999999645, 0.000000000000000000, 0.1999999999999987899 ) ) ;
#65 = VECTOR ( 'NONE', #382, 1000.000000000000114 ) ;
#66 = CLOSED_SHELL ( 'NONE', ( #46, #9, #269, #58, #261, #357, #246, #412, #404, #2, #168, #175, #165, #96 ) ) ;
#67 = VECTOR ( 'NONE', #356, 1000.000000000000000 ) ;
#68 = DIRECTION ( 'NONE',  ( -0.000000000000000000, -0.000000000000000000, -1.000000000000000000 ) ) ;
#69 = ORIENTED_EDGE ( 'NONE', *, *, #370, .T. ) ;
#70 = STYLED_ITEM ( 'NONE', ( #60 ), #113 ) ;
#71 = AXIS2_PLACEMENT_3D ( 'NONE', #49, #398, #405 ) ;
#72 = DIRECTION ( 'NONE',  ( -0.000000000000000000, -0.000000000000000000, -1.000000000000000000 ) ) ;
#73 = ORIENTED_EDGE ( 'NONE', *, *, #349, .F. ) ;
#74 = DIRECTION ( 'NONE',  ( 1.000000000000000000, 0.000000000000000000, 0.000000000000000000 ) ) ;
#75 = CYLINDRICAL_SURFACE ( 'NONE', #221, 5.500000000000000000 ) ;
#76 = VECTOR ( 'NONE', #167, 1000.000000000000114 ) ;
#77 = ORIENTED_EDGE ( 'NONE', *, *, #197, .T. ) ;
#78 = MECHANICAL_DESIGN_GEOMETRIC_PRESENTATION_REPRESENTATION (  '', ( #70 ), #25 ) ;
#79 = LINE ( 'NONE', #402, #323 ) ;
#80 = ORIENTED_EDGE ( 'NONE', *, *, #389, .T. ) ;
#81 = EDGE_CURVE ( 'NONE', #280, #242, #100, .T. ) ;
#82 = DIRECTION ( 'NONE',  ( -0.000000000000000000, -0.000000000000000000, -1.000000000000000000 ) ) ;
#83 = VERTEX_POINT ( 'NONE', #192 ) ;
#84 = CARTESIAN_POINT ( 'NONE',  ( 5.500000000000000000, 6.735557395310442023E-16, 25.00000000000000000 ) ) ;
#85 = AXIS2_PLACEMENT_3D ( 'NONE', #264, #229, #138 ) ;
#86 = EDGE_LOOP ( 'NONE', ( #230, #15, #399, #160 ) ) ;
#87 =( NAMED_UNIT ( * ) PLANE_ANGLE_UNIT ( ) SI_UNIT ( $, .RADIAN. ) );
#88 = ORIENTED_EDGE ( 'NONE', *, *, #231, .T. ) ;
#89 = SHAPE_DEFINITION_REPRESENTATION ( #386, #113 ) ;
#90 = LINE ( 'NONE', #286, #129 ) ;
#91 = EDGE_CURVE ( 'NONE', #267, #377, #218, .T. ) ;
#92 = CARTESIAN_POINT ( 'NONE',  ( 0.000000000000000000, 0.000000000000000000, 24.80000000000000071 ) ) ;
#93 = AXIS2_PLACEMENT_3D ( 'NONE', #257, #255, #26 ) ;
#94 = SURFACE_STYLE_FILL_AREA ( #324 ) ;
#95 = FILL_AREA_STYLE_COLOUR ( '', #188 ) ;
#96 = ADVANCED_FACE ( 'NONE', ( #411 ), #158, .T. ) ;
#97 = CARTESIAN_POINT ( 'NONE',  ( 0.000000000000000000, 0.000000000000000000, 0.1999999999999987899 ) ) ;
#98 = DIRECTION ( 'NONE',  ( 0.7071067811865414665, 8.659560562354857670E-17, -0.7071067811865536790 ) ) ;
#99 = AXIS2_PLACEMENT_3D ( 'NONE', #202, #232, #74 ) ;
#100 = CIRCLE ( 'NONE', #93, 5.500000000000000000 ) ;
#101 = VECTOR ( 'NONE', #351, 1000.000000000000000 ) ;
#102 = AXIS2_PLACEMENT_3D ( 'NONE', #332, #68, #35 ) ;
#103 = MANIFOLD_SOLID_BREP ( 'Chanfrein1', #66 ) ;
#104 = CARTESIAN_POINT ( 'NONE',  ( 4.299999999999994493, 0.000000000000000000, 25.00000000000000000 ) ) ;
#105 = EDGE_CURVE ( 'NONE', #17, #272, #110, .T. ) ;
#106 = CARTESIAN_POINT ( 'NONE',  ( 0.000000000000000000, 0.000000000000000000, 0.000000000000000000 ) ) ;
#107 = ORIENTED_EDGE ( 'NONE', *, *, #239, .F. ) ;
#108 = CARTESIAN_POINT ( 'NONE',  ( 0.000000000000000000, 0.000000000000000000, 25.00000000000000000 ) ) ;
#109 = ORIENTED_EDGE ( 'NONE', *, *, #288, .T. ) ;
#110 = CIRCLE ( 'NONE', #395, 4.299999999999994493 ) ;
#111 = FACE_OUTER_BOUND ( 'NONE', #184, .T. ) ;
#112 = ORIENTED_EDGE ( 'NONE', *, *, #81, .F. ) ;
#113 = ADVANCED_BREP_SHAPE_REPRESENTATION ( 'Spacer 8x11x25mm', ( #103, #241 ), #226 ) ;
#114 = DIRECTION ( 'NONE',  ( -0.000000000000000000, -0.000000000000000000, 1.000000000000000000 ) ) ;
#115 = LINE ( 'NONE', #84, #180 ) ;
#116 = DIRECTION ( 'NONE',  ( 1.000000000000000000, 0.000000000000000000, -0.000000000000000000 ) ) ;
#117 = ORIENTED_EDGE ( 'NONE', *, *, #63, .T. ) ;
#118 = CARTESIAN_POINT ( 'NONE',  ( -5.500000000000000000, 0.000000000000000000, 0.1999999999999987899 ) ) ;
#119 = EDGE_LOOP ( 'NONE', ( #22, #403, #178, #393 ) ) ;
#120 = DIRECTION ( 'NONE',  ( 1.000000000000000000, 0.000000000000000000, 0.000000000000000000 ) ) ;
#121 = EDGE_LOOP ( 'NONE', ( #77, #294, #371, #73 ) ) ;
#122 = DIRECTION ( 'NONE',  ( 1.000000000000000000, 0.000000000000000000, 0.000000000000000000 ) ) ;
#123 = ORIENTED_EDGE ( 'NONE', *, *, #316, .T. ) ;
#124 = PRODUCT_CONTEXT ( 'NONE', #254, 'mechanical' ) ;
#125 = EDGE_CURVE ( 'NONE', #311, #263, #256, .T. ) ;
#126 = EDGE_LOOP ( 'NONE', ( #216, #8, #245, #359 ) ) ;
#127 = CARTESIAN_POINT ( 'NONE',  ( 0.000000000000000000, 0.000000000000000000, 24.80000000000000782 ) ) ;
#128 = PRODUCT ( 'Spacer 8x11x25mm', 'Spacer 8x11x25mm', '', ( #124 ) ) ;
#129 = VECTOR ( 'NONE', #37, 1000.000000000000000 ) ;
#130 = EDGE_CURVE ( 'NONE', #143, #272, #196, .T. ) ;
#131 = FILL_AREA_STYLE ('',( #95 ) ) ;
#132 = CARTESIAN_POINT ( 'NONE',  ( 0.000000000000000000, 0.000000000000000000, 0.1999999999999987899 ) ) ;
#133 =( NAMED_UNIT ( * ) PLANE_ANGLE_UNIT ( ) SI_UNIT ( $, .RADIAN. ) );
#134 = CARTESIAN_POINT ( 'NONE',  ( -5.299999999999995381, 0.000000000000000000, 25.00000000000000000 ) ) ;
#135 = AXIS2_PLACEMENT_3D ( 'NONE', #274, #308, #21 ) ;
#136 = DIRECTION ( 'NONE',  ( 1.000000000000000000, 0.000000000000000000, 0.000000000000000000 ) ) ;
#137 = EDGE_CURVE ( 'NONE', #83, #363, #27, .T. ) ;
#138 = DIRECTION ( 'NONE',  ( 1.000000000000000000, 0.000000000000000000, 0.000000000000000000 ) ) ;
#139 = ORIENTED_EDGE ( 'NONE', *, *, #91, .T. ) ;
#140 = VERTEX_POINT ( 'NONE', #134 ) ;
#141 = VECTOR ( 'NONE', #29, 1000.000000000000000 ) ;
#142 = LINE ( 'NONE', #358, #204 ) ;
#143 = VERTEX_POINT ( 'NONE', #164 ) ;
#144 = DIRECTION ( 'NONE',  ( 0.000000000000000000, 0.000000000000000000, -1.000000000000000000 ) ) ;
#145 = FACE_OUTER_BOUND ( 'NONE', #86, .T. ) ;
#146 = EDGE_CURVE ( 'NONE', #242, #377, #90, .T. ) ;
#147 = EDGE_LOOP ( 'NONE', ( #410, #139, #343, #401 ) ) ;
#148 = CONICAL_SURFACE ( 'NONE', #321, 4.099999999999999645, 0.7853981633974482790 ) ;
#149 = LINE ( 'NONE', #247, #54 ) ;
#150 = ORIENTED_EDGE ( 'NONE', *, *, #253, .F. ) ;
#151 = DIRECTION ( 'NONE',  ( -0.7071067811865506814, 0.000000000000000000, -0.7071067811865443531 ) ) ;
#152 = DIRECTION ( 'NONE',  ( -1.000000000000000000, 0.000000000000000000, 0.000000000000000000 ) ) ;
#153 = LINE ( 'NONE', #304, #369 ) ;
#154 = ORIENTED_EDGE ( 'NONE', *, *, #130, .F. ) ;
#155 = EDGE_CURVE ( 'NONE', #263, #377, #317, .T. ) ;
#156 = CIRCLE ( 'NONE', #385, 4.099999999999999645 ) ;
#157 = SURFACE_SIDE_STYLE ('',( #161 ) ) ;
#158 = CONICAL_SURFACE ( 'NONE', #249, 5.500000000000000000, 0.7853981633974569387 ) ;
#159 = CIRCLE ( 'NONE', #5, 4.099999999999999645 ) ;
#160 = ORIENTED_EDGE ( 'NONE', *, *, #276, .T. ) ;
#161 = SURFACE_STYLE_FILL_AREA ( #131 ) ;
#162 = FACE_OUTER_BOUND ( 'NONE', #215, .T. ) ;
#163 =( NAMED_UNIT ( * ) SI_UNIT ( $, .STERADIAN. ) SOLID_ANGLE_UNIT ( ) );
#164 = CARTESIAN_POINT ( 'NONE',  ( 4.099999999999999645, 5.021051876504147385E-16, 0.1999999999999987899 ) ) ;
#165 = ADVANCED_FACE ( 'NONE', ( #111 ), #250, .F. ) ;
#166 = APPLICATION_PROTOCOL_DEFINITION ( 'draft international standard', 'automotive_design', 1998, #300 ) ;
#167 = DIRECTION ( 'NONE',  ( -0.7071067811865474617, 8.659560562354932858E-17, 0.7071067811865474617 ) ) ;
#168 = ADVANCED_FACE ( 'NONE', ( #10 ), #205, .F. ) ;
#169 = FACE_OUTER_BOUND ( 'NONE', #121, .T. ) ;
#170 = CARTESIAN_POINT ( 'NONE',  ( 0.000000000000000000, 0.000000000000000000, 25.00000000000000000 ) ) ;
#171 = DIRECTION ( 'NONE',  ( 0.000000000000000000, 0.000000000000000000, 1.000000000000000000 ) ) ;
#172 = CARTESIAN_POINT ( 'NONE',  ( -5.500000000000000000, 0.000000000000000000, 24.80000000000000071 ) ) ;
#173 = DIRECTION ( 'NONE',  ( -1.000000000000000000, 0.000000000000000000, 0.000000000000000000 ) ) ;
#174 = VERTEX_POINT ( 'NONE', #64 ) ;
#175 = ADVANCED_FACE ( 'NONE', ( #360 ), #368, .T. ) ;
#176 = DIRECTION ( 'NONE',  ( 0.000000000000000000, 0.000000000000000000, 1.000000000000000000 ) ) ;
#177 = ORIENTED_EDGE ( 'NONE', *, *, #253, .T. ) ;
#178 = ORIENTED_EDGE ( 'NONE', *, *, #63, .F. ) ;
#179 = DIRECTION ( 'NONE',  ( 1.000000000000000000, 0.000000000000000000, 0.000000000000000000 ) ) ;
#180 = VECTOR ( 'NONE', #244, 1000.000000000000000 ) ;
#181 = PLANE ( 'NONE',  #227 ) ;
#182 = EDGE_LOOP ( 'NONE', ( #20, #331 ) ) ;
#183 = CARTESIAN_POINT ( 'NONE',  ( 0.000000000000000000, 0.000000000000000000, 0.1999999999999987899 ) ) ;
#184 = EDGE_LOOP ( 'NONE', ( #154, #303, #328, #208 ) ) ;
#185 = AXIS2_PLACEMENT_3D ( 'NONE', #337, #212, #152 ) ;
#186 = DIRECTION ( 'NONE',  ( 1.000000000000000000, 0.000000000000000000, 0.000000000000000000 ) ) ;
#187 = CONICAL_SURFACE ( 'NONE', #407, 5.299999999999995381, 0.7853981633974528309 ) ;
#188 = COLOUR_RGB ( '',0.7921568627450980005, 0.8196078431372548767, 0.9333333333333333481 ) ;
#189 = AXIS2_PLACEMENT_3D ( 'NONE', #336, #374, #271 ) ;
#190 =( NAMED_UNIT ( * ) SI_UNIT ( $, .STERADIAN. ) SOLID_ANGLE_UNIT ( ) );
#191 = UNCERTAINTY_MEASURE_WITH_UNIT (LENGTH_MEASURE( 1.000000000000000082E-05 ), #322, 'distance_accuracy_value', 'NONE');
#192 = CARTESIAN_POINT ( 'NONE',  ( -4.099999999999999645, 0.000000000000000000, 24.80000000000000782 ) ) ;
#193 = DIRECTION ( 'NONE',  ( 1.000000000000000000, 0.000000000000000000, 0.000000000000000000 ) ) ;
#194 = DIRECTION ( 'NONE',  ( -0.000000000000000000, -0.000000000000000000, 1.000000000000000000 ) ) ;
#195 = CIRCLE ( 'NONE', #234, 5.299999999999997158 ) ;
#196 = LINE ( 'NONE', #379, #293 ) ;
#197 = EDGE_CURVE ( 'NONE', #83, #18, #159, .T. ) ;
#198 = FACE_OUTER_BOUND ( 'NONE', #119, .T. ) ;
#199 = EDGE_LOOP ( 'NONE', ( #11, #150, #123, #112 ) ) ;
#200 = DIRECTION ( 'NONE',  ( -1.000000000000000000, 0.000000000000000000, 0.000000000000000000 ) ) ;
#201 = PRODUCT_RELATED_PRODUCT_CATEGORY ( 'part', '', ( #128 ) ) ;
#202 = CARTESIAN_POINT ( 'NONE',  ( 0.000000000000000000, 0.000000000000000000, 25.00000000000000000 ) ) ;
#203 = ORIENTED_EDGE ( 'NONE', *, *, #105, .T. ) ;
#204 = VECTOR ( 'NONE', #326, 1000.000000000000114 ) ;
#205 = CONICAL_SURFACE ( 'NONE', #85, 4.099999999999999645, 0.7853981633974482790 ) ;
#206 = AXIS2_PLACEMENT_3D ( 'NONE', #19, #82, #366 ) ;
#207 = DIRECTION ( 'NONE',  ( -0.000000000000000000, -0.000000000000000000, -1.000000000000000000 ) ) ;
#208 = ORIENTED_EDGE ( 'NONE', *, *, #370, .F. ) ;
#209 = EDGE_CURVE ( 'NONE', #18, #83, #240, .T. ) ;
#210 =( NAMED_UNIT ( * ) SI_UNIT ( $, .STERADIAN. ) SOLID_ANGLE_UNIT ( ) );
#211 = DIRECTION ( 'NONE',  ( -0.000000000000000000, -0.000000000000000000, -1.000000000000000000 ) ) ;
#212 = DIRECTION ( 'NONE',  ( -0.000000000000000000, -0.000000000000000000, -1.000000000000000000 ) ) ;
#213 = CYLINDRICAL_SURFACE ( 'NONE', #71, 5.500000000000000000 ) ;
#214 = AXIS2_PLACEMENT_3D ( 'NONE', #108, #327, #32 ) ;
#215 = EDGE_LOOP ( 'NONE', ( #375, #333, #51, #107 ) ) ;
#216 = ORIENTED_EDGE ( 'NONE', *, *, #223, .F. ) ;
#217 = EDGE_CURVE ( 'NONE', #18, #143, #262, .T. ) ;
#218 = LINE ( 'NONE', #61, #141 ) ;
#219 = SURFACE_SIDE_STYLE ('',( #94 ) ) ;
#220 = CARTESIAN_POINT ( 'NONE',  ( 5.299999999999995381, 6.613092715395704508E-16, 25.00000000000000000 ) ) ;
#221 = AXIS2_PLACEMENT_3D ( 'NONE', #400, #207, #342 ) ;
#222 = CARTESIAN_POINT ( 'NONE',  ( -4.099999999999999645, 5.021051876504147385E-16, 24.80000000000000782 ) ) ;
#223 = EDGE_CURVE ( 'NONE', #143, #174, #307, .T. ) ;
#224 = MECHANICAL_DESIGN_GEOMETRIC_PRESENTATION_REPRESENTATION (  '', ( #12 ), #361 ) ;
#225 = AXIS2_PLACEMENT_3D ( 'NONE', #364, #30, #365 ) ;
#226 =( GEOMETRIC_REPRESENTATION_CONTEXT ( 3 ) GLOBAL_UNCERTAINTY_ASSIGNED_CONTEXT ( ( #40 ) ) GLOBAL_UNIT_ASSIGNED_CONTEXT ( ( #312, #87, #210 ) ) REPRESENTATION_CONTEXT ( 'NONE', 'WORKASPACE' ) );
#227 = AXIS2_PLACEMENT_3D ( 'NONE', #310, #176, #116 ) ;
#228 = CYLINDRICAL_SURFACE ( 'NONE', #102, 4.099999999999999645 ) ;
#229 = DIRECTION ( 'NONE',  ( 0.000000000000000000, 0.000000000000000000, 1.000000000000000000 ) ) ;
#230 = ORIENTED_EDGE ( 'NONE', *, *, #288, .F. ) ;
#231 = EDGE_CURVE ( 'NONE', #311, #267, #195, .T. ) ;
#232 = DIRECTION ( 'NONE',  ( 0.000000000000000000, 0.000000000000000000, 1.000000000000000000 ) ) ;
#233 = ORIENTED_EDGE ( 'NONE', *, *, #209, .F. ) ;
#234 = AXIS2_PLACEMENT_3D ( 'NONE', #106, #72, #260 ) ;
#235 = DIRECTION ( 'NONE',  ( 1.000000000000000000, 0.000000000000000000, 0.000000000000000000 ) ) ;
#236 = ORIENTED_EDGE ( 'NONE', *, *, #239, .T. ) ;
#237 = DIRECTION ( 'NONE',  ( -0.000000000000000000, -0.000000000000000000, -1.000000000000000000 ) ) ;
#238 = DIRECTION ( 'NONE',  ( -0.7071067811865414665, 0.000000000000000000, -0.7071067811865536790 ) ) ;
#239 = EDGE_CURVE ( 'NONE', #18, #251, #142, .T. ) ;
#240 = CIRCLE ( 'NONE', #31, 4.099999999999999645 ) ;
#241 = AXIS2_PLACEMENT_3D ( 'NONE', #381, #409, #193 ) ;
#242 = VERTEX_POINT ( 'NONE', #172 ) ;
#243 = CIRCLE ( 'NONE', #189, 5.299999999999995381 ) ;
#244 = DIRECTION ( 'NONE',  ( -0.000000000000000000, -0.000000000000000000, -1.000000000000000000 ) ) ;
#245 = ORIENTED_EDGE ( 'NONE', *, *, #105, .F. ) ;
#246 = ADVANCED_FACE ( 'NONE', ( #266, #302 ), #14, .T. ) ;
#247 = CARTESIAN_POINT ( 'NONE',  ( -4.099999999999999645, 0.000000000000000000, 25.00000000000000000 ) ) ;
#248 = CARTESIAN_POINT ( 'NONE',  ( 0.000000000000000000, 0.000000000000000000, 0.000000000000000000 ) ) ;
#249 = AXIS2_PLACEMENT_3D ( 'NONE', #132, #413, #320 ) ;
#250 = CONICAL_SURFACE ( 'NONE', #354, 4.299999999999994493, 0.7853981633974396193 ) ;
#251 = VERTEX_POINT ( 'NONE', #104 ) ;
#252 = FACE_OUTER_BOUND ( 'NONE', #38, .T. ) ;
#253 = EDGE_CURVE ( 'NONE', #140, #50, #283, .T. ) ;
#254 = APPLICATION_CONTEXT ( 'automotive_design' ) ;
#255 = DIRECTION ( 'NONE',  ( 0.000000000000000000, 0.000000000000000000, -1.000000000000000000 ) ) ;
#256 = LINE ( 'NONE', #384, #101 ) ;
#257 = CARTESIAN_POINT ( 'NONE',  ( 0.000000000000000000, 0.000000000000000000, 24.80000000000000071 ) ) ;
#258 = CARTESIAN_POINT ( 'NONE',  ( 0.000000000000000000, 0.000000000000000000, 0.000000000000000000 ) ) ;
#259 = COLOUR_RGB ( '',0.7921568627450980005, 0.8196078431372548767, 0.9333333333333333481 ) ;
#260 = DIRECTION ( 'NONE',  ( 1.000000000000000000, 0.000000000000000000, 0.000000000000000000 ) ) ;
#261 = ADVANCED_FACE ( 'NONE', ( #169 ), #228, .F. ) ;
#262 = LINE ( 'NONE', #392, #67 ) ;
#263 = VERTEX_POINT ( 'NONE', #299 ) ;
#264 = CARTESIAN_POINT ( 'NONE',  ( 0.000000000000000000, 0.000000000000000000, 24.80000000000000782 ) ) ;
#265 = AXIS2_PLACEMENT_3D ( 'NONE', #97, #33, #297 ) ;
#266 = FACE_BOUND ( 'NONE', #182, .T. ) ;
#267 = VERTEX_POINT ( 'NONE', #62 ) ;
#268 = FACE_OUTER_BOUND ( 'NONE', #298, .T. ) ;
#269 = ADVANCED_FACE ( 'NONE', ( #198 ), #187, .T. ) ;
#270 = ORIENTED_EDGE ( 'NONE', *, *, #349, .T. ) ;
#271 = DIRECTION ( 'NONE',  ( 1.000000000000000000, 0.000000000000000000, 0.000000000000000000 ) ) ;
#272 = VERTEX_POINT ( 'NONE', #330 ) ;
#273 = AXIS2_PLACEMENT_3D ( 'NONE', #92, #285, #325 ) ;
#274 = CARTESIAN_POINT ( 'NONE',  ( 0.000000000000000000, 0.000000000000000000, 25.00000000000000000 ) ) ;
#275 = ORIENTED_EDGE ( 'NONE', *, *, #276, .F. ) ;
#276 = EDGE_CURVE ( 'NONE', #377, #263, #287, .T. ) ;
#277 = DIRECTION ( 'NONE',  ( -0.000000000000000000, -0.000000000000000000, -1.000000000000000000 ) ) ;
#278 = FACE_OUTER_BOUND ( 'NONE', #126, .T. ) ;
#279 = CARTESIAN_POINT ( 'NONE',  ( 0.000000000000000000, 0.000000000000000000, 0.000000000000000000 ) ) ;
#280 = VERTEX_POINT ( 'NONE', #13 ) ;
#281 = AXIS2_PLACEMENT_3D ( 'NONE', #340, #45, #122 ) ;
#282 = AXIS2_PLACEMENT_3D ( 'NONE', #318, #194, #186 ) ;
#283 = CIRCLE ( 'NONE', #99, 5.299999999999995381 ) ;
#284 = ORIENTED_EDGE ( 'NONE', *, *, #137, .F. ) ;
#285 = DIRECTION ( 'NONE',  ( 0.000000000000000000, 0.000000000000000000, -1.000000000000000000 ) ) ;
#286 = CARTESIAN_POINT ( 'NONE',  ( -5.500000000000000000, 0.000000000000000000, 25.00000000000000000 ) ) ;
#287 = CIRCLE ( 'NONE', #265, 5.500000000000000000 ) ;
#288 = EDGE_CURVE ( 'NONE', #280, #263, #115, .T. ) ;
#289 = DIRECTION ( 'NONE',  ( 0.000000000000000000, 0.000000000000000000, 1.000000000000000000 ) ) ;
#290 = DIRECTION ( 'NONE',  ( 0.000000000000000000, 0.000000000000000000, 1.000000000000000000 ) ) ;
#291 = DIRECTION ( 'NONE',  ( -1.000000000000000000, 0.000000000000000000, 0.000000000000000000 ) ) ;
#292 = EDGE_CURVE ( 'NONE', #174, #17, #79, .T. ) ;
#293 = VECTOR ( 'NONE', #98, 1000.000000000000000 ) ;
#294 = ORIENTED_EDGE ( 'NONE', *, *, #217, .T. ) ;
#295 = DIRECTION ( 'NONE',  ( 0.000000000000000000, 0.000000000000000000, -1.000000000000000000 ) ) ;
#296 = ORIENTED_EDGE ( 'NONE', *, *, #125, .T. ) ;
#297 = DIRECTION ( 'NONE',  ( 1.000000000000000000, 0.000000000000000000, 0.000000000000000000 ) ) ;
#298 = EDGE_LOOP ( 'NONE', ( #88, #42 ) ) ;
#299 = CARTESIAN_POINT ( 'NONE',  ( 5.500000000000000000, 6.735557395310442023E-16, 0.1999999999999987899 ) ) ;
#300 = APPLICATION_CONTEXT ( 'automotive_design' ) ;
#301 = EDGE_CURVE ( 'NONE', #267, #311, #48, .T. ) ;
#302 = FACE_OUTER_BOUND ( 'NONE', #44, .T. ) ;
#303 = ORIENTED_EDGE ( 'NONE', *, *, #376, .F. ) ;
#304 = CARTESIAN_POINT ( 'NONE',  ( -5.299999999999995381, 0.000000000000000000, 25.00000000000000000 ) ) ;
#305 = EDGE_LOOP ( 'NONE', ( #117, #109, #367, #406 ) ) ;
#306 = ORIENTED_EDGE ( 'NONE', *, *, #376, .T. ) ;
#307 = CIRCLE ( 'NONE', #225, 4.099999999999999645 ) ;
#308 = DIRECTION ( 'NONE',  ( -0.000000000000000000, -0.000000000000000000, -1.000000000000000000 ) ) ;
#309 = EDGE_LOOP ( 'NONE', ( #338, #23, #296, #275 ) ) ;
#310 = CARTESIAN_POINT ( 'NONE',  ( 0.000000000000000000, 0.000000000000000000, 0.000000000000000000 ) ) ;
#311 = VERTEX_POINT ( 'NONE', #43 ) ;
#312 =( LENGTH_UNIT ( ) NAMED_UNIT ( * ) SI_UNIT ( .MILLI., .METRE. ) );
#313 = EDGE_LOOP ( 'NONE', ( #203, #69 ) ) ;
#314 = CIRCLE ( 'NONE', #135, 4.299999999999994493 ) ;
#315 = CONICAL_SURFACE ( 'NONE', #408, 4.299999999999994493, 0.7853981633974396193 ) ;
#316 = EDGE_CURVE ( 'NONE', #140, #242, #153, .T. ) ;
#317 = CIRCLE ( 'NONE', #347, 5.500000000000000000 ) ;
#318 = CARTESIAN_POINT ( 'NONE',  ( 0.000000000000000000, 0.000000000000000000, 0.1999999999999987899 ) ) ;
#319 = DIRECTION ( 'NONE',  ( 1.000000000000000000, 0.000000000000000000, 0.000000000000000000 ) ) ;
#320 = DIRECTION ( 'NONE',  ( 1.000000000000000000, 0.000000000000000000, 0.000000000000000000 ) ) ;
#321 = AXIS2_PLACEMENT_3D ( 'NONE', #127, #290, #346 ) ;
#322 =( LENGTH_UNIT ( ) NAMED_UNIT ( * ) SI_UNIT ( .MILLI., .METRE. ) );
#323 = VECTOR ( 'NONE', #238, 1000.000000000000000 ) ;
#324 = FILL_AREA_STYLE ('',( #3 ) ) ;
#325 = DIRECTION ( 'NONE',  ( 1.000000000000000000, 0.000000000000000000, 0.000000000000000000 ) ) ;
#326 = DIRECTION ( 'NONE',  ( 0.7071067811865474617, 0.000000000000000000, 0.7071067811865474617 ) ) ;
#327 = DIRECTION ( 'NONE',  ( 0.000000000000000000, 0.000000000000000000, 1.000000000000000000 ) ) ;
#328 = ORIENTED_EDGE ( 'NONE', *, *, #292, .T. ) ;
#329 = PRODUCT_DEFINITION_FORMATION_WITH_SPECIFIED_SOURCE ( 'ANY', '', #128, .NOT_KNOWN. ) ;
#330 = CARTESIAN_POINT ( 'NONE',  ( 4.299999999999994493, 5.265981236333612554E-16, 0.000000000000000000 ) ) ;
#331 = ORIENTED_EDGE ( 'NONE', *, *, #380, .T. ) ;
#332 = CARTESIAN_POINT ( 'NONE',  ( 0.000000000000000000, 0.000000000000000000, 25.00000000000000000 ) ) ;
#333 = ORIENTED_EDGE ( 'NONE', *, *, #137, .T. ) ;
#334 = PRODUCT_DEFINITION ( 'UNKNOWN', '', #329, #55 ) ;
#335 = DIRECTION ( 'NONE',  ( 0.000000000000000000, 0.000000000000000000, 1.000000000000000000 ) ) ;
#336 = CARTESIAN_POINT ( 'NONE',  ( 0.000000000000000000, 0.000000000000000000, 25.00000000000000000 ) ) ;
#337 = CARTESIAN_POINT ( 'NONE',  ( 0.000000000000000000, 0.000000000000000000, 25.00000000000000000 ) ) ;
#338 = ORIENTED_EDGE ( 'NONE', *, *, #91, .F. ) ;
#339 = FACE_OUTER_BOUND ( 'NONE', #305, .T. ) ;
#340 = CARTESIAN_POINT ( 'NONE',  ( 0.000000000000000000, 0.000000000000000000, 0.000000000000000000 ) ) ;
#341 = DIRECTION ( 'NONE',  ( -0.000000000000000000, -0.000000000000000000, -1.000000000000000000 ) ) ;
#342 = DIRECTION ( 'NONE',  ( -1.000000000000000000, 0.000000000000000000, 0.000000000000000000 ) ) ;
#343 = ORIENTED_EDGE ( 'NONE', *, *, #155, .F. ) ;
#344 = EDGE_CURVE ( 'NONE', #251, #363, #387, .T. ) ;
#345 = SURFACE_STYLE_USAGE ( .BOTH. , #157 ) ;
#346 = DIRECTION ( 'NONE',  ( 1.000000000000000000, 0.000000000000000000, 0.000000000000000000 ) ) ;
#347 = AXIS2_PLACEMENT_3D ( 'NONE', #6, #114, #136 ) ;
#348 = AXIS2_PLACEMENT_3D ( 'NONE', #279, #372, #120 ) ;
#349 = EDGE_CURVE ( 'NONE', #83, #174, #149, .T. ) ;
#350 =( LENGTH_UNIT ( ) NAMED_UNIT ( * ) SI_UNIT ( .MILLI., .METRE. ) );
#351 = DIRECTION ( 'NONE',  ( 0.7071067811865536790, 0.000000000000000000, 0.7071067811865414665 ) ) ;
#352 = UNCERTAINTY_MEASURE_WITH_UNIT (LENGTH_MEASURE( 1.000000000000000082E-05 ), #350, 'distance_accuracy_value', 'NONE');
#353 = APPLICATION_PROTOCOL_DEFINITION ( 'draft international standard', 'automotive_design', 1998, #254 ) ;
#354 = AXIS2_PLACEMENT_3D ( 'NONE', #7, #237, #173 ) ;
#355 = CARTESIAN_POINT ( 'NONE',  ( 5.299999999999995381, 6.490628035480966994E-16, 25.00000000000000000 ) ) ;
#356 = DIRECTION ( 'NONE',  ( -0.000000000000000000, -0.000000000000000000, -1.000000000000000000 ) ) ;
#357 = ADVANCED_FACE ( 'NONE', ( #339 ), #75, .T. ) ;
#358 = CARTESIAN_POINT ( 'NONE',  ( 4.099999999999999645, 0.000000000000000000, 24.80000000000000782 ) ) ;
#359 = ORIENTED_EDGE ( 'NONE', *, *, #292, .F. ) ;
#360 = FACE_OUTER_BOUND ( 'NONE', #199, .T. ) ;
#361 =( GEOMETRIC_REPRESENTATION_CONTEXT ( 3 ) GLOBAL_UNCERTAINTY_ASSIGNED_CONTEXT ( ( #352 ) ) GLOBAL_UNIT_ASSIGNED_CONTEXT ( ( #350, #133, #190 ) ) REPRESENTATION_CONTEXT ( 'NONE', 'WORKASPACE' ) );
#362 = CIRCLE ( 'NONE', #348, 4.299999999999994493 ) ;
#363 = VERTEX_POINT ( 'NONE', #16 ) ;
#364 = CARTESIAN_POINT ( 'NONE',  ( 0.000000000000000000, 0.000000000000000000, 0.1999999999999987899 ) ) ;
#365 = DIRECTION ( 'NONE',  ( 1.000000000000000000, 0.000000000000000000, 0.000000000000000000 ) ) ;
#366 = DIRECTION ( 'NONE',  ( 1.000000000000000000, 0.000000000000000000, 0.000000000000000000 ) ) ;
#367 = ORIENTED_EDGE ( 'NONE', *, *, #155, .T. ) ;
#368 = CONICAL_SURFACE ( 'NONE', #24, 5.299999999999995381, 0.7853981633974528309 ) ;
#369 = VECTOR ( 'NONE', #151, 1000.000000000000114 ) ;
#370 = EDGE_CURVE ( 'NONE', #272, #17, #362, .T. ) ;
#371 = ORIENTED_EDGE ( 'NONE', *, *, #223, .T. ) ;
#372 = DIRECTION ( 'NONE',  ( 0.000000000000000000, 0.000000000000000000, 1.000000000000000000 ) ) ;
#373 = EDGE_LOOP ( 'NONE', ( #284, #233, #236, #396 ) ) ;
#374 = DIRECTION ( 'NONE',  ( 0.000000000000000000, 0.000000000000000000, 1.000000000000000000 ) ) ;
#375 = ORIENTED_EDGE ( 'NONE', *, *, #197, .F. ) ;
#376 = EDGE_CURVE ( 'NONE', #174, #143, #156, .T. ) ;
#377 = VERTEX_POINT ( 'NONE', #118 ) ;
#378 = CYLINDRICAL_SURFACE ( 'NONE', #185, 4.099999999999999645 ) ;
#379 = CARTESIAN_POINT ( 'NONE',  ( 4.299999999999994493, 5.265981236333612554E-16, 0.000000000000000000 ) ) ;
#380 = EDGE_CURVE ( 'NONE', #363, #251, #314, .T. ) ;
#381 = CARTESIAN_POINT ( 'NONE',  ( 0.000000000000000000, 0.000000000000000000, 0.000000000000000000 ) ) ;
#382 = DIRECTION ( 'NONE',  ( 0.7071067811865506814, 8.659560562354969836E-17, -0.7071067811865443531 ) ) ;
#383 = CARTESIAN_POINT ( 'NONE',  ( -4.299999999999994493, 0.000000000000000000, 0.000000000000000000 ) ) ;
#384 = CARTESIAN_POINT ( 'NONE',  ( 5.500000000000000000, 0.000000000000000000, 0.1999999999999987899 ) ) ;
#385 = AXIS2_PLACEMENT_3D ( 'NONE', #183, #211, #179 ) ;
#386 = PRODUCT_DEFINITION_SHAPE ( 'NONE', 'NONE',  #334 ) ;
#387 = CIRCLE ( 'NONE', #206, 4.299999999999994493 ) ;
#388 = DIRECTION ( 'NONE',  ( 1.000000000000000000, 0.000000000000000000, 0.000000000000000000 ) ) ;
#389 = EDGE_CURVE ( 'NONE', #50, #140, #243, .T. ) ;
#390 = PRESENTATION_LAYER_ASSIGNMENT (  '', '', ( #70 ) ) ;
#391 = CARTESIAN_POINT ( 'NONE',  ( 0.000000000000000000, 0.000000000000000000, 25.00000000000000000 ) ) ;
#392 = CARTESIAN_POINT ( 'NONE',  ( 4.099999999999999645, 5.021051876504147385E-16, 25.00000000000000000 ) ) ;
#393 = ORIENTED_EDGE ( 'NONE', *, *, #316, .F. ) ;
#394 = CARTESIAN_POINT ( 'NONE',  ( 0.000000000000000000, 0.000000000000000000, 24.80000000000000782 ) ) ;
#395 = AXIS2_PLACEMENT_3D ( 'NONE', #258, #289, #319 ) ;
#396 = ORIENTED_EDGE ( 'NONE', *, *, #380, .F. ) ;
#397 = CARTESIAN_POINT ( 'NONE',  ( 0.000000000000000000, 0.000000000000000000, 24.80000000000000782 ) ) ;
#398 = DIRECTION ( 'NONE',  ( -0.000000000000000000, -0.000000000000000000, -1.000000000000000000 ) ) ;
#399 = ORIENTED_EDGE ( 'NONE', *, *, #146, .T. ) ;
#400 = CARTESIAN_POINT ( 'NONE',  ( 0.000000000000000000, 0.000000000000000000, 25.00000000000000000 ) ) ;
#401 = ORIENTED_EDGE ( 'NONE', *, *, #125, .F. ) ;
#402 = CARTESIAN_POINT ( 'NONE',  ( -4.299999999999994493, 0.000000000000000000, 0.000000000000000000 ) ) ;
#403 = ORIENTED_EDGE ( 'NONE', *, *, #39, .T. ) ;
#404 = ADVANCED_FACE ( 'NONE', ( #145 ), #213, .T. ) ;
#405 = DIRECTION ( 'NONE',  ( -1.000000000000000000, 0.000000000000000000, 0.000000000000000000 ) ) ;
#406 = ORIENTED_EDGE ( 'NONE', *, *, #146, .F. ) ;
#407 = AXIS2_PLACEMENT_3D ( 'NONE', #170, #295, #200 ) ;
#408 = AXIS2_PLACEMENT_3D ( 'NONE', #248, #341, #1 ) ;
#409 = DIRECTION ( 'NONE',  ( 0.000000000000000000, 0.000000000000000000, 1.000000000000000000 ) ) ;
#410 = ORIENTED_EDGE ( 'NONE', *, *, #301, .F. ) ;
#411 = FACE_OUTER_BOUND ( 'NONE', #309, .T. ) ;
#412 = ADVANCED_FACE ( 'NONE', ( #41, #268 ), #181, .F. ) ;
#413 = DIRECTION ( 'NONE',  ( -0.000000000000000000, -0.000000000000000000, 1.000000000000000000 ) ) ;
#414 = CARTESIAN_POINT ( 'NONE',  ( 4.099999999999999645, 5.021051876504147385E-16, 24.80000000000000782 ) ) ;
ENDSEC;
END-ISO-10303-21;
