ISO-10303-21;
HEADER;
FILE_DESCRIPTION (( 'STEP AP214' ),
    '1' );
FILE_NAME ('Tyre.STEP',
    '2026-09-05T21:41:57',
    ( '' ),
    ( '' ),
    '',
    '',
    '' );
FILE_SCHEMA (( 'AUTOMOTIVE_DESIGN' ));
ENDSEC;

DATA;
#1 = CARTESIAN_POINT ( 'NONE',  ( 0.000000000000000000, -1.600000000000002309, 0.000000000000000000 ) ) ;
#2 = VERTEX_POINT ( 'NONE', #602 ) ;
#3 = FACE_OUTER_BOUND ( 'NONE', #304, .T. ) ;
#4 = FILL_AREA_STYLE ('',( #312 ) ) ;
#5 = DIRECTION ( 'NONE',  ( -0.000000000000000000, 1.000000000000000000, -0.000000000000000000 ) ) ;
#6 = ORIENTED_EDGE ( 'NONE', *, *, #260, .T. ) ;
#7 = AXIS2_PLACEMENT_3D ( 'NONE', #612, #665, #28 ) ;
#8 = AXIS2_PLACEMENT_3D ( 'NONE', #288, #518, #368 ) ;
#9 = DIRECTION ( 'NONE',  ( 0.000000000000000000, 0.000000000000000000, 1.000000000000000000 ) ) ;
#10 = ORIENTED_EDGE ( 'NONE', *, *, #746, .T. ) ;
#11 = EDGE_CURVE ( 'NONE', #743, #129, #249, .T. ) ;
#12 = SURFACE_STYLE_FILL_AREA ( #4 ) ;
#13 = APPLICATION_CONTEXT ( 'automotive_design' ) ;
#14 = CARTESIAN_POINT ( 'NONE',  ( 0.000000000000000000, -1.600000000000002531, 0.000000000000000000 ) ) ;
#15 = FACE_OUTER_BOUND ( 'NONE', #716, .T. ) ;
#16 = ADVANCED_FACE ( 'NONE', ( #365 ), #246, .F. ) ;
#17 = CARTESIAN_POINT ( 'NONE',  ( 0.000000000000000000, -18.00000000000000355, 0.000000000000000000 ) ) ;
#18 = ORIENTED_EDGE ( 'NONE', *, *, #134, .T. ) ;
#19 = CIRCLE ( 'NONE', #701, 21.23811157215852319 ) ;
#20 = AXIS2_PLACEMENT_3D ( 'NONE', #692, #591, #706 ) ;
#21 = CIRCLE ( 'NONE', #451, 1.500000000000001332 ) ;
#22 = FILL_AREA_STYLE ('',( #386 ) ) ;
#23 = DIRECTION ( 'NONE',  ( 0.000000000000000000, 0.000000000000000000, 1.000000000000000000 ) ) ;
#24 = EDGE_CURVE ( 'NONE', #743, #56, #648, .T. ) ;
#25 = DIRECTION ( 'NONE',  ( 0.000000000000000000, 0.000000000000000000, 1.000000000000000000 ) ) ;
#26 = ORIENTED_EDGE ( 'NONE', *, *, #195, .T. ) ;
#27 = LINE ( 'NONE', #441, #335 ) ;
#28 = DIRECTION ( 'NONE',  ( 0.000000000000000000, 0.000000000000000000, 1.000000000000000000 ) ) ;
#29 = ADVANCED_FACE ( 'NONE', ( #3 ), #735, .T. ) ;
#30 = DIRECTION ( 'NONE',  ( 0.000000000000000000, 0.000000000000000000, 1.000000000000000000 ) ) ;
#31 = ORIENTED_EDGE ( 'NONE', *, *, #11, .F. ) ;
#32 = DIRECTION ( 'NONE',  ( 0.000000000000000000, 0.000000000000000000, 1.000000000000000000 ) ) ;
#33 = CARTESIAN_POINT ( 'NONE',  ( 0.000000000000000000, -15.70000000000000284, 0.000000000000000000 ) ) ;
#34 = ORIENTED_EDGE ( 'NONE', *, *, #349, .T. ) ;
#35 = CIRCLE ( 'NONE', #472, 19.59212171762659693 ) ;
#36 = STYLED_ITEM ( 'NONE', ( #211 ), #618 ) ;
#37 = VERTEX_POINT ( 'NONE', #422 ) ;
#38 = AXIS2_PLACEMENT_3D ( 'NONE', #342, #352, #590 ) ;
#39 = ORIENTED_EDGE ( 'NONE', *, *, #76, .T. ) ;
#40 = ADVANCED_FACE ( 'NONE', ( #15 ), #113, .F. ) ;
#41 = SURFACE_STYLE_USAGE ( .BOTH. , #324 ) ;
#42 = DIRECTION ( 'NONE',  ( 0.000000000000000000, 0.000000000000000000, 1.000000000000000000 ) ) ;
#43 = DIRECTION ( 'NONE',  ( -0.000000000000000000, 1.000000000000000000, -0.000000000000000000 ) ) ;
#44 = ORIENTED_EDGE ( 'NONE', *, *, #349, .F. ) ;
#45 = EDGE_CURVE ( 'NONE', #80, #56, #445, .T. ) ;
#46 = CARTESIAN_POINT ( 'NONE',  ( 0.000000000000000000, -10.04226373917286885, 0.000000000000000000 ) ) ;
#47 = CARTESIAN_POINT ( 'NONE',  ( 0.000000000000000000, -15.67065967606443699, 0.000000000000000000 ) ) ;
#48 = DIRECTION ( 'NONE',  ( 0.000000000000000000, 0.000000000000000000, 1.000000000000000000 ) ) ;
#49 = ORIENTED_EDGE ( 'NONE', *, *, #70, .T. ) ;
#50 = CARTESIAN_POINT ( 'NONE',  ( 0.000000000000000000, -15.22543452664509012, 0.000000000000000000 ) ) ;
#51 = ORIENTED_EDGE ( 'NONE', *, *, #511, .T. ) ;
#52 = AXIS2_PLACEMENT_3D ( 'NONE', #734, #555, #212 ) ;
#53 = ADVANCED_FACE ( 'NONE', ( #482 ), #768, .F. ) ;
#54 = DIRECTION ( 'NONE',  ( 0.000000000000000000, 0.000000000000000000, 1.000000000000000000 ) ) ;
#55 = AXIS2_PLACEMENT_3D ( 'NONE', #188, #415, #250 ) ;
#56 = VERTEX_POINT ( 'NONE', #547 ) ;
#57 = VECTOR ( 'NONE', #243, 1000.000000000000000 ) ;
#58 = CARTESIAN_POINT ( 'NONE',  ( 2.486033002269127373E-15, -1.600000000000002531, -20.30000000000000071 ) ) ;
#59 = DIRECTION ( 'NONE',  ( -0.000000000000000000, 1.000000000000000000, -0.000000000000000000 ) ) ;
#60 = ORIENTED_EDGE ( 'NONE', *, *, #530, .T. ) ;
#61 = PRODUCT_DEFINITION ( 'UNKNOWN', '', #302, #577 ) ;
#62 = CARTESIAN_POINT ( 'NONE',  ( 2.784615555549932969E-15, -15.67065967606443699, -22.73811157215852319 ) ) ;
#63 = DIRECTION ( 'NONE',  ( 0.000000000000000000, 0.000000000000000000, 1.000000000000000000 ) ) ;
#64 = VECTOR ( 'NONE', #651, 1000.000000000000000 ) ;
#65 = LINE ( 'NONE', #299, #423 ) ;
#66 = DIRECTION ( 'NONE',  ( -0.000000000000000000, 1.000000000000000000, -0.000000000000000000 ) ) ;
#67 = EDGE_LOOP ( 'NONE', ( #432, #723, #343, #468 ) ) ;
#68 = CIRCLE ( 'NONE', #628, 18.80000000000000071 ) ;
#69 = PRESENTATION_LAYER_ASSIGNMENT (  '', '', ( #36 ) ) ;
#70 = EDGE_CURVE ( 'NONE', #240, #513, #711, .T. ) ;
#71 = DIRECTION ( 'NONE',  ( 0.000000000000000000, 0.000000000000000000, 1.000000000000000000 ) ) ;
#72 = ORIENTED_EDGE ( 'NONE', *, *, #91, .T. ) ;
#73 = DIRECTION ( 'NONE',  ( 7.871877887342061485E-17, 0.7660444431189729064, -0.6427876096865454691 ) ) ;
#74 = ORIENTED_EDGE ( 'NONE', *, *, #691, .T. ) ;
#75 = CARTESIAN_POINT ( 'NONE',  ( 2.399342914999675701E-15, -1.000000000000000888, -19.59212171762659693 ) ) ;
#76 = EDGE_CURVE ( 'NONE', #455, #254, #200, .T. ) ;
#77 = AXIS2_PLACEMENT_3D ( 'NONE', #344, #564, #231 ) ;
#78 = CONICAL_SURFACE ( 'NONE', #38, 19.90187294848483290, 0.6981317007977337896 ) ;
#79 = PLANE ( 'NONE',  #725 ) ;
#80 = VERTEX_POINT ( 'NONE', #141 ) ;
#81 = EDGE_CURVE ( 'NONE', #635, #226, #163, .T. ) ;
#82 = LINE ( 'NONE', #307, #772 ) ;
#83 = DIRECTION ( 'NONE',  ( 0.000000000000000000, 0.000000000000000000, 1.000000000000000000 ) ) ;
#84 = CARTESIAN_POINT ( 'NONE',  ( 0.000000000000000000, -7.729102694233699999, 0.000000000000000000 ) ) ;
#85 = ORIENTED_EDGE ( 'NONE', *, *, #318, .T. ) ;
#86 = CARTESIAN_POINT ( 'NONE',  ( 0.000000000000000000, -17.60000000000000497, 21.88159899055885305 ) ) ;
#87 = EDGE_LOOP ( 'NONE', ( #584, #142, #500, #749 ) ) ;
#88 = AXIS2_PLACEMENT_3D ( 'NONE', #206, #197, #319 ) ;
#89 = AXIS2_PLACEMENT_3D ( 'NONE', #33, #107, #269 ) ;
#90 = AXIS2_PLACEMENT_3D ( 'NONE', #769, #404, #245 ) ;
#91 = EDGE_CURVE ( 'NONE', #202, #226, #358, .T. ) ;
#92 = DIRECTION ( 'NONE',  ( 0.000000000000000000, 0.000000000000000000, -1.000000000000000000 ) ) ;
#93 = DIRECTION ( 'NONE',  ( 0.000000000000000000, 0.000000000000000000, 1.000000000000000000 ) ) ;
#94 = ORIENTED_EDGE ( 'NONE', *, *, #325, .F. ) ;
#95 = DIRECTION ( 'NONE',  ( 0.000000000000000000, -1.000000000000000000, 0.000000000000000000 ) ) ;
#96 = SURFACE_STYLE_FILL_AREA ( #22 ) ;
#97 = CARTESIAN_POINT ( 'NONE',  ( 0.000000000000000000, -18.00000000000000355, 0.000000000000000000 ) ) ;
#98 = EDGE_LOOP ( 'NONE', ( #26, #317, #508, #233 ) ) ;
#99 = AXIS2_PLACEMENT_3D ( 'NONE', #659, #268, #378 ) ;
#100 = CIRCLE ( 'NONE', #390, 19.59212171762659693 ) ;
#101 = AXIS2_PLACEMENT_3D ( 'NONE', #715, #132, #309 ) ;
#102 = PRESENTATION_LAYER_ASSIGNMENT (  '', '', ( #424 ) ) ;
#103 = ORIENTED_EDGE ( 'NONE', *, *, #545, .T. ) ;
#104 = ORIENTED_EDGE ( 'NONE', *, *, #131, .F. ) ;
#105 = CARTESIAN_POINT ( 'NONE',  ( 0.000000000000000000, -1.600000000000002309, 0.000000000000000000 ) ) ;
#106 = DIRECTION ( 'NONE',  ( 1.224646799147351975E-16, 0.000000000000000000, -1.000000000000000000 ) ) ;
#107 = DIRECTION ( 'NONE',  ( -0.000000000000000000, 1.000000000000000000, -0.000000000000000000 ) ) ;
#108 = ORIENTED_EDGE ( 'NONE', *, *, #224, .T. ) ;
#109 = EDGE_CURVE ( 'NONE', #637, #635, #613, .T. ) ;
#110 = FACE_OUTER_BOUND ( 'NONE', #123, .T. ) ;
#111 = ORIENTED_EDGE ( 'NONE', *, *, #297, .F. ) ;
#112 = ORIENTED_EDGE ( 'NONE', *, *, #216, .F. ) ;
#113 = CONICAL_SURFACE ( 'NONE', #241, 18.80000000000000071, 0.6981317007977397848 ) ;
#114 = DIRECTION ( 'NONE',  ( 1.000000000000000000, 0.000000000000000000, 1.224646799147353207E-16 ) ) ;
#115 = VECTOR ( 'NONE', #174, 1000.000000000000114 ) ;
#116 = FACE_OUTER_BOUND ( 'NONE', #489, .T. ) ;
#117 = CONICAL_SURFACE ( 'NONE', #264, 21.89999999999999858, 0.04712388980382594544 ) ;
#118 = ORIENTED_EDGE ( 'NONE', *, *, #534, .T. ) ;
#119 = DIRECTION ( 'NONE',  ( -0.000000000000000000, 1.000000000000000000, -0.000000000000000000 ) ) ;
#120 = DIRECTION ( 'NONE',  ( 0.000000000000000000, 0.000000000000000000, 1.000000000000000000 ) ) ;
#121 = CARTESIAN_POINT ( 'NONE',  ( 0.000000000000000000, -18.00000000000000355, -20.98159899055885802 ) ) ;
#122 = DIRECTION ( 'NONE',  ( -0.000000000000000000, 1.000000000000000000, -0.000000000000000000 ) ) ;
#123 = EDGE_LOOP ( 'NONE', ( #10, #406, #44, #462 ) ) ;
#124 = ADVANCED_FACE ( 'NONE', ( #731 ), #334, .T. ) ;
#125 = AXIS2_PLACEMENT_3D ( 'NONE', #720, #316, #494 ) ;
#126 = EDGE_LOOP ( 'NONE', ( #405, #641, #394, #328 ) ) ;
#127 = AXIS2_PLACEMENT_3D ( 'NONE', #105, #507, #582 ) ;
#128 = CIRCLE ( 'NONE', #347, 19.65744081903822504 ) ;
#129 = VERTEX_POINT ( 'NONE', #427 ) ;
#130 = PRESENTATION_STYLE_ASSIGNMENT (( #597 ) ) ;
#131 = EDGE_CURVE ( 'NONE', #129, #37, #402, .T. ) ;
#132 = DIRECTION ( 'NONE',  ( -0.000000000000000000, 1.000000000000000000, -0.000000000000000000 ) ) ;
#133 = ORIENTED_EDGE ( 'NONE', *, *, #611, .F. ) ;
#134 = EDGE_CURVE ( 'NONE', #537, #398, #346, .T. ) ;
#135 = DIRECTION ( 'NONE',  ( -0.000000000000000000, 1.000000000000000000, -0.000000000000000000 ) ) ;
#136 = DIRECTION ( 'NONE',  ( -0.000000000000000000, 1.000000000000000000, -0.000000000000000000 ) ) ;
#137 = AXIS2_PLACEMENT_3D ( 'NONE', #239, #634, #120 ) ;
#138 =( NAMED_UNIT ( * ) PLANE_ANGLE_UNIT ( ) SI_UNIT ( $, .RADIAN. ) );
#139 = AXIS2_PLACEMENT_3D ( 'NONE', #452, #361, #305 ) ;
#140 = CARTESIAN_POINT ( 'NONE',  ( 0.000000000000000000, -1.600000000000002531, 0.000000000000000000 ) ) ;
#141 = CARTESIAN_POINT ( 'NONE',  ( 2.569504804478123906E-15, -18.00000000000000355, 20.98159899055885802 ) ) ;
#142 = ORIENTED_EDGE ( 'NONE', *, *, #297, .T. ) ;
#143 = CARTESIAN_POINT ( 'NONE',  ( 0.000000000000000000, 0.000000000000000000, 0.000000000000000000 ) ) ;
#144 = DIRECTION ( 'NONE',  ( -0.000000000000000000, 1.000000000000000000, -0.000000000000000000 ) ) ;
#145 = EDGE_CURVE ( 'NONE', #254, #455, #580, .T. ) ;
#146 =( NAMED_UNIT ( * ) PLANE_ANGLE_UNIT ( ) SI_UNIT ( $, .RADIAN. ) );
#147 = CARTESIAN_POINT ( 'NONE',  ( 0.000000000000000000, -7.729102694233699999, 0.000000000000000000 ) ) ;
#148 = CARTESIAN_POINT ( 'NONE',  ( 0.000000000000000000, -16.61052272706774247, 19.59212171762659693 ) ) ;
#149 = CARTESIAN_POINT ( 'NONE',  ( 0.000000000000000000, -16.19144032103758590, 0.000000000000000000 ) ) ;
#150 = CARTESIAN_POINT ( 'NONE',  ( 0.000000000000000000, -16.61052272706774247, 0.000000000000000000 ) ) ;
#151 = AXIS2_PLACEMENT_3D ( 'NONE', #495, #272, #30 ) ;
#152 = TOROIDAL_SURFACE ( 'NONE', #619, 20.38326417811589408, 1.499999999999999556 ) ;
#153 = DIRECTION ( 'NONE',  ( 0.000000000000000000, -1.000000000000000000, 0.000000000000000000 ) ) ;
#154 = CARTESIAN_POINT ( 'NONE',  ( -21.48159899055885802, -18.00000000000000355, 0.000000000000000000 ) ) ;
#155 = FACE_OUTER_BOUND ( 'NONE', #87, .T. ) ;
#156 = ADVANCED_FACE ( 'NONE', ( #430 ), #261, .F. ) ;
#157 = CARTESIAN_POINT ( 'NONE',  ( 0.000000000000000000, -10.04226373917286885, 0.000000000000000000 ) ) ;
#158 = ORIENTED_EDGE ( 'NONE', *, *, #145, .T. ) ;
#159 = DIRECTION ( 'NONE',  ( 5.768876408073081231E-18, 0.9988898749619709028, -0.04710645070962173053 ) ) ;
#160 = ORIENTED_EDGE ( 'NONE', *, *, #256, .T. ) ;
#161 = FACE_OUTER_BOUND ( 'NONE', #710, .T. ) ;
#162 = EDGE_LOOP ( 'NONE', ( #764, #292 ) ) ;
#163 = CIRCLE ( 'NONE', #724, 1.500000000000001332 ) ;
#164 = AXIS2_PLACEMENT_3D ( 'NONE', #569, #166, #517 ) ;
#165 = CARTESIAN_POINT ( 'NONE',  ( 0.000000000000000000, -18.00000000000000355, 0.000000000000000000 ) ) ;
#166 = DIRECTION ( 'NONE',  ( -1.000000000000000000, 0.000000000000000000, 0.000000000000000000 ) ) ;
#167 = FACE_OUTER_BOUND ( 'NONE', #67, .T. ) ;
#168 = ORIENTED_EDGE ( 'NONE', *, *, #134, .F. ) ;
#169 = ADVANCED_FACE ( 'NONE', ( #259, #676 ), #79, .T. ) ;
#170 = CARTESIAN_POINT ( 'NONE',  ( 2.600918535677829853E-15, -15.67065967606443699, -21.23811157215852319 ) ) ;
#171 = DIRECTION ( 'NONE',  ( 0.000000000000000000, 0.000000000000000000, 1.000000000000000000 ) ) ;
#172 = EDGE_LOOP ( 'NONE', ( #444, #679, #181, #6 ) ) ;
#173 = CARTESIAN_POINT ( 'NONE',  ( 2.496229923190453614E-15, -17.52934032393556407, -20.38326417811589408 ) ) ;
#174 = DIRECTION ( 'NONE',  ( 0.000000000000000000, 0.9988898749619709028, 0.04710645070962175829 ) ) ;
#175 = DIRECTION ( 'NONE',  ( -0.000000000000000000, 1.000000000000000000, -0.000000000000000000 ) ) ;
#176 = EDGE_LOOP ( 'NONE', ( #104, #745, #222, #112 ) ) ;
#177 = TOROIDAL_SURFACE ( 'NONE', #738, 20.38326417811589408, 1.499999999999999556 ) ;
#178 = DIRECTION ( 'NONE',  ( 0.000000000000000000, 0.000000000000000000, 1.000000000000000000 ) ) ;
#179 = VECTOR ( 'NONE', #375, 1000.000000000000000 ) ;
#180 = LINE ( 'NONE', #753, #191 ) ;
#181 = ORIENTED_EDGE ( 'NONE', *, *, #653, .T. ) ;
#182 = FACE_OUTER_BOUND ( 'NONE', #587, .T. ) ;
#183 = CARTESIAN_POINT ( 'NONE',  ( 2.472749840560162070E-15, -6.200000000000014388, -20.08306950676369240 ) ) ;
#184 = CARTESIAN_POINT ( 'NONE',  ( 0.000000000000000000, -17.60000000000000497, 0.000000000000000000 ) ) ;
#185 = PLANE ( 'NONE',  #137 ) ;
#186 = VERTEX_POINT ( 'NONE', #313 ) ;
#187 = ADVANCED_FACE ( 'NONE', ( #487 ), #614, .F. ) ;
#188 = CARTESIAN_POINT ( 'NONE',  ( 0.000000000000000000, -15.67065967606443699, 0.000000000000000000 ) ) ;
#189 = ORIENTED_EDGE ( 'NONE', *, *, #520, .F. ) ;
#190 = AXIS2_PLACEMENT_3D ( 'NONE', #578, #175, #525 ) ;
#191 = VECTOR ( 'NONE', #59, 1000.000000000000000 ) ;
#192 = CARTESIAN_POINT ( 'NONE',  ( 0.000000000000000000, -16.60000000000000497, 0.000000000000000000 ) ) ;
#193 = DIRECTION ( 'NONE',  ( -0.000000000000000000, 1.000000000000000000, -0.000000000000000000 ) ) ;
#194 = ORIENTED_EDGE ( 'NONE', *, *, #708, .T. ) ;
#195 = EDGE_CURVE ( 'NONE', #202, #729, #514, .T. ) ;
#196 = DIRECTION ( 'NONE',  ( -0.000000000000000000, 1.000000000000000000, -0.000000000000000000 ) ) ;
#197 = DIRECTION ( 'NONE',  ( -0.000000000000000000, 1.000000000000000000, -0.000000000000000000 ) ) ;
#198 = FACE_OUTER_BOUND ( 'NONE', #606, .T. ) ;
#199 = CARTESIAN_POINT ( 'NONE',  ( 0.000000000000000000, -15.22543452664509012, 0.000000000000000000 ) ) ;
#200 = CIRCLE ( 'NONE', #449, 20.08306950676369240 ) ;
#201 = AXIS2_PLACEMENT_3D ( 'NONE', #669, #144, #32 ) ;
#202 = VERTEX_POINT ( 'NONE', #86 ) ;
#203 = TOROIDAL_SURFACE ( 'NONE', #55, 22.73811157215852319, 1.500000000000000222 ) ;
#204 = APPLICATION_PROTOCOL_DEFINITION ( 'draft international standard', 'automotive_design', 1998, #13 ) ;
#205 = CARTESIAN_POINT ( 'NONE',  ( 0.000000000000000000, -18.00000000000000355, 0.000000000000000000 ) ) ;
#206 = CARTESIAN_POINT ( 'NONE',  ( 0.000000000000000000, -15.67065967606443699, 0.000000000000000000 ) ) ;
#207 = EDGE_CURVE ( 'NONE', #743, #267, #320, .T. ) ;
#208 =( NAMED_UNIT ( * ) SI_UNIT ( $, .STERADIAN. ) SOLID_ANGLE_UNIT ( ) );
#209 = DIRECTION ( 'NONE',  ( -0.000000000000000000, 1.000000000000000000, -0.000000000000000000 ) ) ;
#210 = ORIENTED_EDGE ( 'NONE', *, *, #520, .T. ) ;
#211 = PRESENTATION_STYLE_ASSIGNMENT (( #41 ) ) ;
#212 = DIRECTION ( 'NONE',  ( 0.000000000000000000, 0.000000000000000000, 1.000000000000000000 ) ) ;
#213 = CARTESIAN_POINT ( 'NONE',  ( 2.655230080418438589E-15, -18.00000000000000000, -21.48159899055885802 ) ) ;
#214 = ORIENTED_EDGE ( 'NONE', *, *, #389, .T. ) ;
#215 = AXIS2_PLACEMENT_3D ( 'NONE', #355, #350, #458 ) ;
#216 = EDGE_CURVE ( 'NONE', #37, #506, #662, .T. ) ;
#217 = CIRCLE ( 'NONE', #726, 20.30000000000000071 ) ;
#218 = CARTESIAN_POINT ( 'NONE',  ( 2.681976490132703452E-15, -1.600000000000002309, -21.89999999999999858 ) ) ;
#219 = DIRECTION ( 'NONE',  ( 1.224646799147357891E-16, 0.000000000000000000, -1.000000000000000000 ) ) ;
#220 = VERTEX_POINT ( 'NONE', #280 ) ;
#221 = EDGE_CURVE ( 'NONE', #513, #635, #713, .T. ) ;
#222 = ORIENTED_EDGE ( 'NONE', *, *, #666, .T. ) ;
#223 = DIRECTION ( 'NONE',  ( 1.224646799147351975E-16, 0.000000000000000000, -1.000000000000000000 ) ) ;
#224 = EDGE_CURVE ( 'NONE', #572, #251, #642, .T. ) ;
#225 = CARTESIAN_POINT ( 'NONE',  ( 2.679723016401385303E-15, -17.60000000000000497, -21.88159899055885305 ) ) ;
#226 = VERTEX_POINT ( 'NONE', #393 ) ;
#227 = AXIS2_PLACEMENT_3D ( 'NONE', #431, #440, #384 ) ;
#228 = AXIS2_PLACEMENT_3D ( 'NONE', #147, #493, #625 ) ;
#229 = FACE_OUTER_BOUND ( 'NONE', #369, .T. ) ;
#230 = ORIENTED_EDGE ( 'NONE', *, *, #632, .F. ) ;
#231 = DIRECTION ( 'NONE',  ( 0.000000000000000000, 0.000000000000000000, 1.000000000000000000 ) ) ;
#232 = CIRCLE ( 'NONE', #654, 19.90187294848483290 ) ;
#233 = ORIENTED_EDGE ( 'NONE', *, *, #91, .F. ) ;
#234 = ADVANCED_FACE ( 'NONE', ( #747 ), #370, .F. ) ;
#235 =( NAMED_UNIT ( * ) SI_UNIT ( $, .STERADIAN. ) SOLID_ANGLE_UNIT ( ) );
#236 = CARTESIAN_POINT ( 'NONE',  ( 2.641549476235852564E-15, -15.60000000000000320, -21.23977675971556778 ) ) ;
#237 = ORIENTED_EDGE ( 'NONE', *, *, #270, .T. ) ;
#238 = CARTESIAN_POINT ( 'NONE',  ( 0.000000000000000000, -10.04226373917286885, -19.90187294848483290 ) ) ;
#239 = CARTESIAN_POINT ( 'NONE',  ( -21.89999999999999858, -1.600000000000002531, 0.000000000000000000 ) ) ;
#240 = VERTEX_POINT ( 'NONE', #236 ) ;
#241 = AXIS2_PLACEMENT_3D ( 'NONE', #84, #617, #25 ) ;
#242 = AXIS2_PLACEMENT_3D ( 'NONE', #453, #576, #42 ) ;
#243 = DIRECTION ( 'NONE',  ( 5.768876408072971838E-18, 0.9988898749619710138, -0.04710645070962083542 ) ) ;
#244 = CIRCLE ( 'NONE', #101, 21.23977675971556778 ) ;
#245 = DIRECTION ( 'NONE',  ( 0.000000000000000000, 0.000000000000000000, 1.000000000000000000 ) ) ;
#246 = CYLINDRICAL_SURFACE ( 'NONE', #573, 18.80000000000000071 ) ;
#247 = UNCERTAINTY_MEASURE_WITH_UNIT (LENGTH_MEASURE( 1.000000000000000082E-05 ), #533, 'distance_accuracy_value', 'NONE');
#248 = DIRECTION ( 'NONE',  ( 0.000000000000000000, 0.000000000000000000, 1.000000000000000000 ) ) ;
#249 = LINE ( 'NONE', #75, #64 ) ;
#250 = DIRECTION ( 'NONE',  ( 0.000000000000000000, 0.000000000000000000, 1.000000000000000000 ) ) ;
#251 = VERTEX_POINT ( 'NONE', #443 ) ;
#252 = EDGE_CURVE ( 'NONE', #506, #220, #387, .T. ) ;
#253 = CARTESIAN_POINT ( 'NONE',  ( 0.000000000000000000, -17.60000000000000497, 0.000000000000000000 ) ) ;
#254 = VERTEX_POINT ( 'NONE', #757 ) ;
#255 = TOROIDAL_SURFACE ( 'NONE', #227, 22.73811157215852319, 1.500000000000000222 ) ;
#256 = EDGE_CURVE ( 'NONE', #37, #129, #100, .T. ) ;
#257 = LINE ( 'NONE', #548, #473 ) ;
#258 = DIRECTION ( 'NONE',  ( -0.000000000000000000, 1.000000000000000000, -0.000000000000000000 ) ) ;
#259 = FACE_BOUND ( 'NONE', #563, .T. ) ;
#260 = EDGE_CURVE ( 'NONE', #398, #537, #68, .T. ) ;
#261 = CYLINDRICAL_SURFACE ( 'NONE', #52, 19.59212171762659693 ) ;
#262 = CIRCLE ( 'NONE', #540, 20.98159899055885802 ) ;
#263 = VERTEX_POINT ( 'NONE', #429 ) ;
#264 = AXIS2_PLACEMENT_3D ( 'NONE', #1, #397, #54 ) ;
#265 = CARTESIAN_POINT ( 'NONE',  ( 0.000000000000000000, -7.729102694233699999, 0.000000000000000000 ) ) ;
#266 = DIRECTION ( 'NONE',  ( -1.000000000000000000, 0.000000000000000000, 0.000000000000000000 ) ) ;
#267 = VERTEX_POINT ( 'NONE', #148 ) ;
#268 = DIRECTION ( 'NONE',  ( -0.000000000000000000, 1.000000000000000000, -0.000000000000000000 ) ) ;
#269 = DIRECTION ( 'NONE',  ( 0.000000000000000000, 0.000000000000000000, 1.000000000000000000 ) ) ;
#270 = EDGE_CURVE ( 'NONE', #267, #80, #379, .T. ) ;
#271 = DIRECTION ( 'NONE',  ( 0.000000000000000000, 0.000000000000000000, 1.000000000000000000 ) ) ;
#272 = DIRECTION ( 'NONE',  ( -0.000000000000000000, 1.000000000000000000, -0.000000000000000000 ) ) ;
#273 = EDGE_LOOP ( 'NONE', ( #667, #519, #74, #51 ) ) ;
#274 = TOROIDAL_SURFACE ( 'NONE', #89, 19.49999999999999645, 0.4999999999999980571 ) ;
#275 = ADVANCED_FACE ( 'NONE', ( #748 ), #177, .T. ) ;
#276 = AXIS2_PLACEMENT_3D ( 'NONE', #205, #153, #92 ) ;
#277 = CIRCLE ( 'NONE', #374, 1.500000000000001332 ) ;
#278 = CARTESIAN_POINT ( 'NONE',  ( 0.000000000000000000, -17.52934032393556407, 0.000000000000000000 ) ) ;
#279 = EDGE_LOOP ( 'NONE', ( #306, #707, #599, #194 ) ) ;
#280 = CARTESIAN_POINT ( 'NONE',  ( 2.437276500339924773E-15, -10.04226373917286885, 19.90187294848483290 ) ) ;
#281 = ORIENTED_EDGE ( 'NONE', *, *, #330, .F. ) ;
#282 = CARTESIAN_POINT ( 'NONE',  ( 0.000000000000000000, -6.200000000000014388, 0.000000000000000000 ) ) ;
#283 = ORIENTED_EDGE ( 'NONE', *, *, #611, .T. ) ;
#284 = CARTESIAN_POINT ( 'NONE',  ( 2.784615555549932969E-15, -15.67065967606443699, -22.73811157215852319 ) ) ;
#285 = ORIENTED_EDGE ( 'NONE', *, *, #476, .F. ) ;
#286 = AXIS2_PLACEMENT_3D ( 'NONE', #14, #193, #71 ) ;
#287 = DIRECTION ( 'NONE',  ( -0.000000000000000000, 1.000000000000000000, -0.000000000000000000 ) ) ;
#288 = CARTESIAN_POINT ( 'NONE',  ( 0.000000000000000000, -15.70000000000000284, 0.000000000000000000 ) ) ;
#289 = ORIENTED_EDGE ( 'NONE', *, *, #545, .F. ) ;
#290 = CARTESIAN_POINT ( 'NONE',  ( 0.000000000000000000, -8.729102694233700888, 0.000000000000000000 ) ) ;
#291 = CARTESIAN_POINT ( 'NONE',  ( 0.000000000000000000, -15.67065967606443699, 0.000000000000000000 ) ) ;
#292 = ORIENTED_EDGE ( 'NONE', *, *, #501, .F. ) ;
#293 = CARTESIAN_POINT ( 'NONE',  ( 0.000000000000000000, -15.67065967606443699, 21.23811157215852319 ) ) ;
#294 = CLOSED_SHELL ( 'NONE', ( #538, #357, #480, #275, #124, #646, #156, #492, #53, #680, #456, #594, #673, #752, #466, #486, #626, #40, #16, #234, #187, #314, #737, #575, #169, #29, #504, #421 ) ) ;
#295 = CARTESIAN_POINT ( 'NONE',  ( 2.437276500339924773E-15, -10.04226373917286885, 19.90187294848483290 ) ) ;
#296 = VERTEX_POINT ( 'NONE', #213 ) ;
#297 = EDGE_CURVE ( 'NONE', #267, #743, #35, .T. ) ;
#298 = CIRCLE ( 'NONE', #151, 21.56068787513721219 ) ;
#299 = CARTESIAN_POINT ( 'NONE',  ( 0.000000000000000000, -6.200000000000014388, 20.08306950676369240 ) ) ;
#300 = CONICAL_SURFACE ( 'NONE', #228, 18.80000000000000071, 0.6981317007977397848 ) ;
#301 = DIRECTION ( 'NONE',  ( -0.000000000000000000, 1.000000000000000000, -0.000000000000000000 ) ) ;
#302 = PRODUCT_DEFINITION_FORMATION_WITH_SPECIFIED_SOURCE ( 'ANY', '', #359, .NOT_KNOWN. ) ;
#303 = EDGE_LOOP ( 'NONE', ( #103, #283, #333, #459 ) ) ;
#304 = EDGE_LOOP ( 'NONE', ( #94, #685, #496, #657 ) ) ;
#305 = DIRECTION ( 'NONE',  ( 0.000000000000000000, 0.000000000000000000, 1.000000000000000000 ) ) ;
#306 = ORIENTED_EDGE ( 'NONE', *, *, #766, .F. ) ;
#307 = CARTESIAN_POINT ( 'NONE',  ( 2.407342197846368890E-15, -15.22543452664509012, -19.65744081903822504 ) ) ;
#308 = CIRCLE ( 'NONE', #20, 21.48159899055885802 ) ;
#309 = DIRECTION ( 'NONE',  ( 0.000000000000000000, 0.000000000000000000, 1.000000000000000000 ) ) ;
#310 = CARTESIAN_POINT ( 'NONE',  ( 0.000000000000000000, -1.000000000000000888, 0.000000000000000000 ) ) ;
#311 = CONICAL_SURFACE ( 'NONE', #771, 20.08306950676369240, 0.04712388980382505033 ) ;
#312 = FILL_AREA_STYLE_COLOUR ( '', #664 ) ;
#313 = CARTESIAN_POINT ( 'NONE',  ( 0.000000000000000000, -18.00000000000000000, 21.48159899055885802 ) ) ;
#314 = ADVANCED_FACE ( 'NONE', ( #161 ), #274, .F. ) ;
#315 = DIRECTION ( 'NONE',  ( -0.000000000000000000, 1.000000000000000000, -0.000000000000000000 ) ) ;
#316 = DIRECTION ( 'NONE',  ( -1.000000000000000000, 0.000000000000000000, 0.000000000000000000 ) ) ;
#317 = ORIENTED_EDGE ( 'NONE', *, *, #712, .T. ) ;
#318 = EDGE_CURVE ( 'NONE', #226, #621, #298, .T. ) ;
#319 = DIRECTION ( 'NONE',  ( 0.000000000000000000, 0.000000000000000000, 1.000000000000000000 ) ) ;
#320 = CIRCLE ( 'NONE', #77, 19.59212171762659693 ) ;
#321 = ORIENTED_EDGE ( 'NONE', *, *, #131, .T. ) ;
#322 = AXIS2_PLACEMENT_3D ( 'NONE', #165, #516, #392 ) ;
#323 = AXIS2_PLACEMENT_3D ( 'NONE', #192, #718, #367 ) ;
#324 = SURFACE_SIDE_STYLE ('',( #96 ) ) ;
#325 = EDGE_CURVE ( 'NONE', #296, #729, #435, .T. ) ;
#326 = CARTESIAN_POINT ( 'NONE',  ( 0.000000000000000000, -7.729102694233699999, 0.000000000000000000 ) ) ;
#327 = CARTESIAN_POINT ( 'NONE',  ( 0.000000000000000000, -1.600000000000002531, 20.30000000000000071 ) ) ;
#328 = ORIENTED_EDGE ( 'NONE', *, *, #708, .F. ) ;
#329 = CARTESIAN_POINT ( 'NONE',  ( 0.000000000000000000, -6.200000000000014388, 0.000000000000000000 ) ) ;
#330 = EDGE_CURVE ( 'NONE', #129, #535, #484, .T. ) ;
#331 = DIRECTION ( 'NONE',  ( 8.659560562354932858E-17, -0.7071067811865474617, 0.7071067811865474617 ) ) ;
#332 = DIRECTION ( 'NONE',  ( 0.000000000000000000, 0.000000000000000000, 1.000000000000000000 ) ) ;
#333 = ORIENTED_EDGE ( 'NONE', *, *, #224, .F. ) ;
#334 = CONICAL_SURFACE ( 'NONE', #7, 21.88159899055885305, 0.7853981633974482790 ) ;
#335 = VECTOR ( 'NONE', #681, 1000.000000000000000 ) ;
#336 = CARTESIAN_POINT ( 'NONE',  ( 2.569504804478123906E-15, -18.00000000000000355, 20.98159899055885802 ) ) ;
#337 = ORIENTED_EDGE ( 'NONE', *, *, #721, .F. ) ;
#338 = ADVANCED_BREP_SHAPE_REPRESENTATION ( 'Tyre', ( #618, #439 ), #561 ) ;
#339 = DIRECTION ( 'NONE',  ( -0.000000000000000000, 1.000000000000000000, -0.000000000000000000 ) ) ;
#340 = DIRECTION ( 'NONE',  ( 1.000000000000000000, 0.000000000000000000, 1.224646799147353207E-16 ) ) ;
#341 = ORIENTED_EDGE ( 'NONE', *, *, #207, .F. ) ;
#342 = CARTESIAN_POINT ( 'NONE',  ( 0.000000000000000000, -10.04226373917286885, 0.000000000000000000 ) ) ;
#343 = ORIENTED_EDGE ( 'NONE', *, *, #221, .F. ) ;
#344 = CARTESIAN_POINT ( 'NONE',  ( 0.000000000000000000, -16.61052272706774247, 0.000000000000000000 ) ) ;
#345 = ORIENTED_EDGE ( 'NONE', *, *, #766, .T. ) ;
#346 = CIRCLE ( 'NONE', #550, 18.80000000000000071 ) ;
#347 = AXIS2_PLACEMENT_3D ( 'NONE', #50, #122, #178 ) ;
#348 = DIRECTION ( 'NONE',  ( -0.000000000000000000, 1.000000000000000000, -0.000000000000000000 ) ) ;
#349 = EDGE_CURVE ( 'NONE', #736, #220, #593, .T. ) ;
#350 = DIRECTION ( 'NONE',  ( -0.000000000000000000, 1.000000000000000000, -0.000000000000000000 ) ) ;
#351 = ORIENTED_EDGE ( 'NONE', *, *, #389, .F. ) ;
#352 = DIRECTION ( 'NONE',  ( 0.000000000000000000, -1.000000000000000000, 0.000000000000000000 ) ) ;
#353 = DIRECTION ( 'NONE',  ( 0.000000000000000000, -0.7071067811865474617, -0.7071067811865474617 ) ) ;
#354 = FACE_OUTER_BOUND ( 'NONE', #553, .T. ) ;
#355 = CARTESIAN_POINT ( 'NONE',  ( 0.000000000000000000, -8.729102694233700888, 0.000000000000000000 ) ) ;
#356 = ORIENTED_EDGE ( 'NONE', *, *, #325, .T. ) ;
#357 = ADVANCED_FACE ( 'NONE', ( #167 ), #255, .F. ) ;
#358 = CIRCLE ( 'NONE', #125, 1.500000000000001332 ) ;
#359 = PRODUCT ( 'Tyre', 'Tyre', '', ( #668 ) ) ;
#360 = CIRCLE ( 'NONE', #463, 1.500000000000001332 ) ;
#361 = DIRECTION ( 'NONE',  ( -0.000000000000000000, 1.000000000000000000, -0.000000000000000000 ) ) ;
#362 = CIRCLE ( 'NONE', #739, 21.88159899055885305 ) ;
#363 = CARTESIAN_POINT ( 'NONE',  ( 0.000000000000000000, -15.22543452664509012, 19.65744081903822504 ) ) ;
#364 = CIRCLE ( 'NONE', #323, 21.56068787513721219 ) ;
#365 = FACE_OUTER_BOUND ( 'NONE', #172, .T. ) ;
#366 = ORIENTED_EDGE ( 'NONE', *, *, #11, .T. ) ;
#367 = DIRECTION ( 'NONE',  ( 0.000000000000000000, 0.000000000000000000, 1.000000000000000000 ) ) ;
#368 = DIRECTION ( 'NONE',  ( 0.000000000000000000, 0.000000000000000000, 1.000000000000000000 ) ) ;
#369 = EDGE_LOOP ( 'NONE', ( #31, #111, #624, #160 ) ) ;
#370 = CONICAL_SURFACE ( 'NONE', #436, 19.90187294848483290, 0.6981317007977337896 ) ;
#371 = CARTESIAN_POINT ( 'NONE',  ( 0.000000000000000000, -1.600000000000002309, 21.89999999999999858 ) ) ;
#372 = DIRECTION ( 'NONE',  ( -0.000000000000000000, 1.000000000000000000, -0.000000000000000000 ) ) ;
#373 = COLOUR_RGB ( '',0.000000000000000000, 1.000000000000000000, 0.000000000000000000 ) ;
#374 = AXIS2_PLACEMENT_3D ( 'NONE', #173, #114, #750 ) ;
#375 = DIRECTION ( 'NONE',  ( -0.000000000000000000, 1.000000000000000000, -0.000000000000000000 ) ) ;
#376 = CARTESIAN_POINT ( 'NONE',  ( 0.000000000000000000, -15.67065967606443699, 22.73811157215852319 ) ) ;
#377 = SHAPE_DEFINITION_REPRESENTATION ( #760, #338 ) ;
#378 = DIRECTION ( 'NONE',  ( 0.000000000000000000, 0.000000000000000000, 1.000000000000000000 ) ) ;
#379 = LINE ( 'NONE', #336, #420 ) ;
#380 = DIRECTION ( 'NONE',  ( 0.000000000000000000, 0.000000000000000000, 1.000000000000000000 ) ) ;
#381 =( NAMED_UNIT ( * ) PLANE_ANGLE_UNIT ( ) SI_UNIT ( $, .RADIAN. ) );
#382 = VERTEX_POINT ( 'NONE', #327 ) ;
#383 = DIRECTION ( 'NONE',  ( 0.000000000000000000, -0.000000000000000000, -1.000000000000000000 ) ) ;
#384 = DIRECTION ( 'NONE',  ( 0.000000000000000000, 0.000000000000000000, 1.000000000000000000 ) ) ;
#385 = ORIENTED_EDGE ( 'NONE', *, *, #260, .F. ) ;
#386 = FILL_AREA_STYLE_COLOUR ( '', #373 ) ;
#387 = LINE ( 'NONE', #687, #115 ) ;
#388 = ORIENTED_EDGE ( 'NONE', *, *, #588, .T. ) ;
#389 = EDGE_CURVE ( 'NONE', #56, #80, #262, .T. ) ;
#390 = AXIS2_PLACEMENT_3D ( 'NONE', #741, #616, #23 ) ;
#391 = VECTOR ( 'NONE', #159, 1000.000000000000114 ) ;
#392 = DIRECTION ( 'NONE',  ( 0.000000000000000000, 0.000000000000000000, -1.000000000000000000 ) ) ;
#393 = CARTESIAN_POINT ( 'NONE',  ( 0.000000000000000000, -16.60000000000000497, 21.56068787513721219 ) ) ;
#394 = ORIENTED_EDGE ( 'NONE', *, *, #697, .T. ) ;
#395 = DIRECTION ( 'NONE',  ( 0.000000000000000000, 0.000000000000000000, 1.000000000000000000 ) ) ;
#396 = EDGE_LOOP ( 'NONE', ( #592, #60, #18, #560 ) ) ;
#397 = DIRECTION ( 'NONE',  ( -0.000000000000000000, 1.000000000000000000, -0.000000000000000000 ) ) ;
#398 = VERTEX_POINT ( 'NONE', #623 ) ;
#399 = EDGE_CURVE ( 'NONE', #637, #621, #360, .T. ) ;
#400 = DIRECTION ( 'NONE',  ( 1.000000000000000000, 0.000000000000000000, 1.224646799147353207E-16 ) ) ;
#401 = ORIENTED_EDGE ( 'NONE', *, *, #221, .T. ) ;
#402 = CIRCLE ( 'NONE', #751, 19.59212171762659693 ) ;
#403 = FACE_OUTER_BOUND ( 'NONE', #273, .T. ) ;
#404 = DIRECTION ( 'NONE',  ( -0.000000000000000000, 1.000000000000000000, -0.000000000000000000 ) ) ;
#405 = ORIENTED_EDGE ( 'NONE', *, *, #417, .F. ) ;
#406 = ORIENTED_EDGE ( 'NONE', *, *, #417, .T. ) ;
#407 = CARTESIAN_POINT ( 'NONE',  ( 0.000000000000000000, -1.000000000000000888, 18.80000000000000071 ) ) ;
#408 = CARTESIAN_POINT ( 'NONE',  ( 0.000000000000000000, -15.67065967606443699, 0.000000000000000000 ) ) ;
#409 = DIRECTION ( 'NONE',  ( -0.000000000000000000, 1.000000000000000000, -0.000000000000000000 ) ) ;
#410 = EDGE_LOOP ( 'NONE', ( #523, #118, #72, #770 ) ) ;
#411 = EDGE_CURVE ( 'NONE', #635, #637, #19, .T. ) ;
#412 = AXIS2_PLACEMENT_3D ( 'NONE', #47, #704, #171 ) ;
#413 = AXIS2_PLACEMENT_3D ( 'NONE', #512, #196, #469 ) ;
#414 = ORIENTED_EDGE ( 'NONE', *, *, #511, .F. ) ;
#415 = DIRECTION ( 'NONE',  ( -0.000000000000000000, 1.000000000000000000, -0.000000000000000000 ) ) ;
#416 = ORIENTED_EDGE ( 'NONE', *, *, #666, .F. ) ;
#417 = EDGE_CURVE ( 'NONE', #263, #220, #454, .T. ) ;
#418 = DIRECTION ( 'NONE',  ( -0.000000000000000000, 1.000000000000000000, -0.000000000000000000 ) ) ;
#419 = DIRECTION ( 'NONE',  ( 0.000000000000000000, 0.000000000000000000, 1.000000000000000000 ) ) ;
#420 = VECTOR ( 'NONE', #331, 1000.000000000000114 ) ;
#421 = ADVANCED_FACE ( 'NONE', ( #116 ), #688, .F. ) ;
#422 = CARTESIAN_POINT ( 'NONE',  ( 0.000000000000000000, -16.19144032103758590, 19.59212171762659693 ) ) ;
#423 = VECTOR ( 'NONE', #568, 1000.000000000000000 ) ;
#424 = STYLED_ITEM ( 'NONE', ( #130 ), #338 ) ;
#425 = ORIENTED_EDGE ( 'NONE', *, *, #24, .F. ) ;
#426 = SURFACE_SIDE_STYLE ('',( #12 ) ) ;
#427 = CARTESIAN_POINT ( 'NONE',  ( 2.403342556423022296E-15, -16.19144032103758590, -19.59212171762659693 ) ) ;
#428 = EDGE_LOOP ( 'NONE', ( #759, #356, #596, #230 ) ) ;
#429 = CARTESIAN_POINT ( 'NONE',  ( 0.000000000000000000, -8.729102694233700888, 18.80000000000000071 ) ) ;
#430 = FACE_OUTER_BOUND ( 'NONE', #672, .T. ) ;
#431 = CARTESIAN_POINT ( 'NONE',  ( 0.000000000000000000, -15.67065967606443699, 0.000000000000000000 ) ) ;
#432 = ORIENTED_EDGE ( 'NONE', *, *, #721, .T. ) ;
#433 = PRODUCT_RELATED_PRODUCT_CATEGORY ( 'part', '', ( #359 ) ) ;
#434 = DIRECTION ( 'NONE',  ( -0.000000000000000000, 1.000000000000000000, -0.000000000000000000 ) ) ;
#435 = LINE ( 'NONE', #225, #674 ) ;
#436 = AXIS2_PLACEMENT_3D ( 'NONE', #157, #694, #447 ) ;
#437 = ORIENTED_EDGE ( 'NONE', *, *, #733, .T. ) ;
#438 = VECTOR ( 'NONE', #73, 1000.000000000000000 ) ;
#439 = AXIS2_PLACEMENT_3D ( 'NONE', #143, #730, #661 ) ;
#440 = DIRECTION ( 'NONE',  ( -0.000000000000000000, 1.000000000000000000, -0.000000000000000000 ) ) ;
#441 = CARTESIAN_POINT ( 'NONE',  ( 0.000000000000000000, -7.729102694233699999, 18.80000000000000071 ) ) ;
#442 = EDGE_CURVE ( 'NONE', #263, #2, #558, .T. ) ;
#443 = CARTESIAN_POINT ( 'NONE',  ( 2.681976490132703452E-15, -1.600000000000002309, -21.89999999999999858 ) ) ;
#444 = ORIENTED_EDGE ( 'NONE', *, *, #530, .F. ) ;
#445 = CIRCLE ( 'NONE', #660, 20.98159899055885802 ) ;
#446 = CARTESIAN_POINT ( 'NONE',  ( 0.000000000000000000, -10.04226373917286885, -19.90187294848483290 ) ) ;
#447 = DIRECTION ( 'NONE',  ( 0.000000000000000000, 0.000000000000000000, -1.000000000000000000 ) ) ;
#448 = EDGE_LOOP ( 'NONE', ( #416, #345, #34, #693 ) ) ;
#449 = AXIS2_PLACEMENT_3D ( 'NONE', #329, #372, #671 ) ;
#450 = CONICAL_SURFACE ( 'NONE', #714, 20.08306950676369240, 0.04712388980382505033 ) ;
#451 = AXIS2_PLACEMENT_3D ( 'NONE', #62, #400, #223 ) ;
#452 = CARTESIAN_POINT ( 'NONE',  ( 0.000000000000000000, -1.600000000000002309, 0.000000000000000000 ) ) ;
#453 = CARTESIAN_POINT ( 'NONE',  ( 0.000000000000000000, -15.70000000000000284, 19.49999999999999645 ) ) ;
#454 = LINE ( 'NONE', #295, #652 ) ;
#455 = VERTEX_POINT ( 'NONE', #183 ) ;
#456 = ADVANCED_FACE ( 'NONE', ( #699 ), #695, .F. ) ;
#457 = DIRECTION ( 'NONE',  ( 0.000000000000000000, 0.000000000000000000, 1.000000000000000000 ) ) ;
#458 = DIRECTION ( 'NONE',  ( 0.000000000000000000, 0.000000000000000000, 1.000000000000000000 ) ) ;
#459 = ORIENTED_EDGE ( 'NONE', *, *, #567, .F. ) ;
#460 = EDGE_CURVE ( 'NONE', #186, #296, #308, .T. ) ;
#461 = LINE ( 'NONE', #703, #559 ) ;
#462 = ORIENTED_EDGE ( 'NONE', *, *, #697, .F. ) ;
#463 = AXIS2_PLACEMENT_3D ( 'NONE', #284, #586, #106 ) ;
#464 = CONICAL_SURFACE ( 'NONE', #139, 21.89999999999999858, 0.04712388980382594544 ) ;
#465 = ORIENTED_EDGE ( 'NONE', *, *, #691, .F. ) ;
#466 = ADVANCED_FACE ( 'NONE', ( #583 ), #117, .T. ) ;
#467 = FACE_OUTER_BOUND ( 'NONE', #700, .T. ) ;
#468 = ORIENTED_EDGE ( 'NONE', *, *, #70, .F. ) ;
#469 = DIRECTION ( 'NONE',  ( 0.000000000000000000, 0.000000000000000000, 1.000000000000000000 ) ) ;
#470 = ORIENTED_EDGE ( 'NONE', *, *, #76, .F. ) ;
#471 = EDGE_CURVE ( 'NONE', #506, #535, #499, .T. ) ;
#472 = AXIS2_PLACEMENT_3D ( 'NONE', #150, #502, #556 ) ;
#473 = VECTOR ( 'NONE', #485, 1000.000000000000114 ) ;
#474 = CARTESIAN_POINT ( 'NONE',  ( 2.380901330624110709E-15, -7.729102694233699999, -18.80000000000000071 ) ) ;
#475 = ORIENTED_EDGE ( 'NONE', *, *, #567, .T. ) ;
#476 = EDGE_CURVE ( 'NONE', #267, #37, #180, .T. ) ;
#477 = DIRECTION ( 'NONE',  ( 5.768876408073084313E-18, 0.9988898749619709028, -0.04710645070962175829 ) ) ;
#478 = DIRECTION ( 'NONE',  ( 0.000000000000000000, 0.000000000000000000, 1.000000000000000000 ) ) ;
#479 = ORIENTED_EDGE ( 'NONE', *, *, #588, .F. ) ;
#480 = ADVANCED_FACE ( 'NONE', ( #647 ), #663, .F. ) ;
#481 = LINE ( 'NONE', #598, #438 ) ;
#482 = FACE_OUTER_BOUND ( 'NONE', #448, .T. ) ;
#483 = EDGE_LOOP ( 'NONE', ( #682, #566, #639, #742 ) ) ;
#484 = CIRCLE ( 'NONE', #603, 0.4999999999999970024 ) ;
#485 = DIRECTION ( 'NONE',  ( 0.000000000000000000, 0.9988898749619709028, 0.04710645070962173053 ) ) ;
#486 = ADVANCED_FACE ( 'NONE', ( #467, #638 ), #185, .T. ) ;
#487 = FACE_OUTER_BOUND ( 'NONE', #279, .T. ) ;
#488 = MECHANICAL_DESIGN_GEOMETRIC_PRESENTATION_REPRESENTATION (  '', ( #36 ), #595 ) ;
#489 = EDGE_LOOP ( 'NONE', ( #579, #627, #85, #630 ) ) ;
#490 = DIRECTION ( 'NONE',  ( -0.000000000000000000, 1.000000000000000000, -0.000000000000000000 ) ) ;
#491 = CARTESIAN_POINT ( 'NONE',  ( 0.000000000000000000, -15.60000000000000320, 0.000000000000000000 ) ) ;
#492 = ADVANCED_FACE ( 'NONE', ( #570 ), #689, .F. ) ;
#493 = DIRECTION ( 'NONE',  ( -0.000000000000000000, 1.000000000000000000, -0.000000000000000000 ) ) ;
#494 = DIRECTION ( 'NONE',  ( 0.000000000000000000, 0.000000000000000000, 1.000000000000000000 ) ) ;
#495 = CARTESIAN_POINT ( 'NONE',  ( 0.000000000000000000, -16.60000000000000497, 0.000000000000000000 ) ) ;
#496 = ORIENTED_EDGE ( 'NONE', *, *, #632, .T. ) ;
#497 = AXIS2_PLACEMENT_3D ( 'NONE', #683, #754, #678 ) ;
#498 = CARTESIAN_POINT ( 'NONE',  ( 2.388061258337338544E-15, -15.70000000000000284, -19.49999999999999645 ) ) ;
#499 = CIRCLE ( 'NONE', #90, 19.65744081903822504 ) ;
#500 = ORIENTED_EDGE ( 'NONE', *, *, #24, .T. ) ;
#501 = EDGE_CURVE ( 'NONE', #296, #186, #515, .T. ) ;
#502 = DIRECTION ( 'NONE',  ( -0.000000000000000000, 1.000000000000000000, -0.000000000000000000 ) ) ;
#503 = EDGE_LOOP ( 'NONE', ( #168, #210, #39, #479 ) ) ;
#504 = ADVANCED_FACE ( 'NONE', ( #719 ), #152, .T. ) ;
#505 = CARTESIAN_POINT ( 'NONE',  ( 0.000000000000000000, -6.200000000000014388, 0.000000000000000000 ) ) ;
#506 = VERTEX_POINT ( 'NONE', #363 ) ;
#507 = DIRECTION ( 'NONE',  ( -0.000000000000000000, 1.000000000000000000, -0.000000000000000000 ) ) ;
#508 = ORIENTED_EDGE ( 'NONE', *, *, #318, .F. ) ;
#509 = CARTESIAN_POINT ( 'NONE',  ( 2.679723016401385303E-15, -17.60000000000000497, -21.88159899055885305 ) ) ;
#510 = ORIENTED_EDGE ( 'NONE', *, *, #471, .T. ) ;
#511 = EDGE_CURVE ( 'NONE', #382, #696, #529, .T. ) ;
#512 = CARTESIAN_POINT ( 'NONE',  ( 0.000000000000000000, -18.00000000000000000, 0.000000000000000000 ) ) ;
#513 = VERTEX_POINT ( 'NONE', #608 ) ;
#514 = CIRCLE ( 'NONE', #201, 21.88159899055885305 ) ;
#515 = CIRCLE ( 'NONE', #413, 21.48159899055885802 ) ;
#516 = DIRECTION ( 'NONE',  ( 0.000000000000000000, -1.000000000000000000, 0.000000000000000000 ) ) ;
#517 = DIRECTION ( 'NONE',  ( 0.000000000000000000, 0.000000000000000000, 1.000000000000000000 ) ) ;
#518 = DIRECTION ( 'NONE',  ( -0.000000000000000000, 1.000000000000000000, -0.000000000000000000 ) ) ;
#519 = ORIENTED_EDGE ( 'NONE', *, *, #145, .F. ) ;
#520 = EDGE_CURVE ( 'NONE', #537, #455, #481, .T. ) ;
#521 = DIRECTION ( 'NONE',  ( 0.000000000000000000, 0.000000000000000000, 1.000000000000000000 ) ) ;
#522 = UNCERTAINTY_MEASURE_WITH_UNIT (LENGTH_MEASURE( 1.000000000000000082E-05 ), #675, 'distance_accuracy_value', 'NONE');
#523 = ORIENTED_EDGE ( 'NONE', *, *, #712, .F. ) ;
#524 = CARTESIAN_POINT ( 'NONE',  ( 0.000000000000000000, -1.000000000000000888, 0.000000000000000000 ) ) ;
#525 = DIRECTION ( 'NONE',  ( 0.000000000000000000, 0.000000000000000000, 1.000000000000000000 ) ) ;
#526 = ORIENTED_EDGE ( 'NONE', *, *, #562, .F. ) ;
#527 = AXIS2_PLACEMENT_3D ( 'NONE', #491, #722, #419 ) ;
#528 = AXIS2_PLACEMENT_3D ( 'NONE', #554, #605, #549 ) ;
#529 = CIRCLE ( 'NONE', #286, 20.30000000000000071 ) ;
#530 = EDGE_CURVE ( 'NONE', #2, #537, #709, .T. ) ;
#531 =( GEOMETRIC_REPRESENTATION_CONTEXT ( 3 ) GLOBAL_UNCERTAINTY_ASSIGNED_CONTEXT ( ( #684 ) ) GLOBAL_UNIT_ASSIGNED_CONTEXT ( ( #607, #138, #600 ) ) REPRESENTATION_CONTEXT ( 'NONE', 'WORKASPACE' ) );
#532 = ORIENTED_EDGE ( 'NONE', *, *, #562, .T. ) ;
#533 =( LENGTH_UNIT ( ) NAMED_UNIT ( * ) SI_UNIT ( .MILLI., .METRE. ) );
#534 = EDGE_CURVE ( 'NONE', #729, #202, #362, .T. ) ;
#535 = VERTEX_POINT ( 'NONE', #658 ) ;
#536 = CARTESIAN_POINT ( 'NONE',  ( 2.302335982397023862E-15, -1.000000000000000888, -18.80000000000000071 ) ) ;
#537 = VERTEX_POINT ( 'NONE', #474 ) ;
#538 = ADVANCED_FACE ( 'NONE', ( #198 ), #203, .F. ) ;
#539 = AXIS2_PLACEMENT_3D ( 'NONE', #199, #728, #622 ) ;
#540 = AXIS2_PLACEMENT_3D ( 'NONE', #97, #571, #48 ) ;
#541 = AXIS2_PLACEMENT_3D ( 'NONE', #291, #66, #248 ) ;
#542 = DIRECTION ( 'NONE',  ( 0.000000000000000000, 0.000000000000000000, 1.000000000000000000 ) ) ;
#543 = AXIS2_PLACEMENT_3D ( 'NONE', #290, #762, #767 ) ;
#544 = EDGE_LOOP ( 'NONE', ( #133, #49, #475, #526 ) ) ;
#545 = EDGE_CURVE ( 'NONE', #513, #240, #244, .T. ) ;
#546 = DIRECTION ( 'NONE',  ( 0.000000000000000000, 0.000000000000000000, 1.000000000000000000 ) ) ;
#547 = CARTESIAN_POINT ( 'NONE',  ( 0.000000000000000000, -18.00000000000000355, -20.98159899055885802 ) ) ;
#548 = CARTESIAN_POINT ( 'NONE',  ( 0.000000000000000000, -1.600000000000002309, 21.89999999999999858 ) ) ;
#549 = DIRECTION ( 'NONE',  ( 0.000000000000000000, 0.000000000000000000, 1.000000000000000000 ) ) ;
#550 = AXIS2_PLACEMENT_3D ( 'NONE', #326, #136, #609 ) ;
#551 = DIRECTION ( 'NONE',  ( 0.000000000000000000, 0.000000000000000000, 1.000000000000000000 ) ) ;
#552 = CONICAL_SURFACE ( 'NONE', #276, 20.98159899055885802, 0.7853981633974482790 ) ;
#553 = EDGE_LOOP ( 'NONE', ( #470, #437, #610, #465 ) ) ;
#554 = CARTESIAN_POINT ( 'NONE',  ( 0.000000000000000000, -6.200000000000014388, 0.000000000000000000 ) ) ;
#555 = DIRECTION ( 'NONE',  ( -0.000000000000000000, 1.000000000000000000, -0.000000000000000000 ) ) ;
#556 = DIRECTION ( 'NONE',  ( 0.000000000000000000, 0.000000000000000000, 1.000000000000000000 ) ) ;
#557 = EDGE_CURVE ( 'NONE', #696, #382, #217, .T. ) ;
#558 = CIRCLE ( 'NONE', #215, 18.80000000000000071 ) ;
#559 = VECTOR ( 'NONE', #645, 1000.000000000000114 ) ;
#560 = ORIENTED_EDGE ( 'NONE', *, *, #653, .F. ) ;
#561 =( GEOMETRIC_REPRESENTATION_CONTEXT ( 3 ) GLOBAL_UNCERTAINTY_ASSIGNED_CONTEXT ( ( #247 ) ) GLOBAL_UNIT_ASSIGNED_CONTEXT ( ( #533, #146, #208 ) ) REPRESENTATION_CONTEXT ( 'NONE', 'WORKASPACE' ) );
#562 = EDGE_CURVE ( 'NONE', #251, #572, #629, .T. ) ;
#563 = EDGE_LOOP ( 'NONE', ( #214, #755 ) ) ;
#564 = DIRECTION ( 'NONE',  ( -0.000000000000000000, 1.000000000000000000, -0.000000000000000000 ) ) ;
#565 = DIRECTION ( 'NONE',  ( 8.659560562354932858E-17, 0.7071067811865474617, -0.7071067811865474617 ) ) ;
#566 = ORIENTED_EDGE ( 'NONE', *, *, #399, .T. ) ;
#567 = EDGE_CURVE ( 'NONE', #513, #572, #257, .T. ) ;
#568 = DIRECTION ( 'NONE',  ( 0.000000000000000000, 0.9988898749619710138, 0.04710645070962083542 ) ) ;
#569 = CARTESIAN_POINT ( 'NONE',  ( 0.000000000000000000, -15.67065967606443699, 22.73811157215852319 ) ) ;
#570 = FACE_OUTER_BOUND ( 'NONE', #176, .T. ) ;
#571 = DIRECTION ( 'NONE',  ( -0.000000000000000000, 1.000000000000000000, -0.000000000000000000 ) ) ;
#572 = VERTEX_POINT ( 'NONE', #371 ) ;
#573 = AXIS2_PLACEMENT_3D ( 'NONE', #310, #258, #63 ) ;
#574 = DIRECTION ( 'NONE',  ( 0.000000000000000000, -0.7660444431189767922, -0.6427876096865408062 ) ) ;
#575 = ADVANCED_FACE ( 'NONE', ( #155 ), #552, .F. ) ;
#576 = DIRECTION ( 'NONE',  ( -1.000000000000000000, 0.000000000000000000, 0.000000000000000000 ) ) ;
#577 = PRODUCT_DEFINITION_CONTEXT ( 'detailed design', #727, 'design' ) ;
#578 = CARTESIAN_POINT ( 'NONE',  ( 0.000000000000000000, -1.000000000000000888, 0.000000000000000000 ) ) ;
#579 = ORIENTED_EDGE ( 'NONE', *, *, #411, .F. ) ;
#580 = CIRCLE ( 'NONE', #528, 20.08306950676369240 ) ;
#581 = CARTESIAN_POINT ( 'NONE',  ( 2.399342914999675701E-15, -16.61052272706774247, -19.59212171762659693 ) ) ;
#582 = DIRECTION ( 'NONE',  ( 0.000000000000000000, 0.000000000000000000, 1.000000000000000000 ) ) ;
#583 = FACE_OUTER_BOUND ( 'NONE', #544, .T. ) ;
#584 = ORIENTED_EDGE ( 'NONE', *, *, #270, .F. ) ;
#585 = CYLINDRICAL_SURFACE ( 'NONE', #604, 19.59212171762659693 ) ;
#586 = DIRECTION ( 'NONE',  ( 1.000000000000000000, 0.000000000000000000, 1.224646799147353207E-16 ) ) ;
#587 = EDGE_LOOP ( 'NONE', ( #705, #237, #351, #425 ) ) ;
#588 = EDGE_CURVE ( 'NONE', #398, #254, #27, .T. ) ;
#589 = AXIS2_PLACEMENT_3D ( 'NONE', #184, #409, #551 ) ;
#590 = DIRECTION ( 'NONE',  ( 0.000000000000000000, 0.000000000000000000, -1.000000000000000000 ) ) ;
#591 = DIRECTION ( 'NONE',  ( -0.000000000000000000, 1.000000000000000000, -0.000000000000000000 ) ) ;
#592 = ORIENTED_EDGE ( 'NONE', *, *, #746, .F. ) ;
#593 = CIRCLE ( 'NONE', #497, 19.90187294848483290 ) ;
#594 = ADVANCED_FACE ( 'NONE', ( #740 ), #300, .F. ) ;
#595 =( GEOMETRIC_REPRESENTATION_CONTEXT ( 3 ) GLOBAL_UNCERTAINTY_ASSIGNED_CONTEXT ( ( #522 ) ) GLOBAL_UNIT_ASSIGNED_CONTEXT ( ( #675, #381, #235 ) ) REPRESENTATION_CONTEXT ( 'NONE', 'WORKASPACE' ) );
#596 = ORIENTED_EDGE ( 'NONE', *, *, #195, .F. ) ;
#597 = SURFACE_STYLE_USAGE ( .BOTH. , #426 ) ;
#598 = CARTESIAN_POINT ( 'NONE',  ( 2.302335982397023862E-15, -7.729102694233699999, -18.80000000000000071 ) ) ;
#599 = ORIENTED_EDGE ( 'NONE', *, *, #252, .T. ) ;
#600 =( NAMED_UNIT ( * ) SI_UNIT ( $, .STERADIAN. ) SOLID_ANGLE_UNIT ( ) );
#601 = CARTESIAN_POINT ( 'NONE',  ( 0.000000000000000000, -1.600000000000002309, 0.000000000000000000 ) ) ;
#602 = CARTESIAN_POINT ( 'NONE',  ( 2.302335982397023862E-15, -8.729102694233700888, -18.80000000000000071 ) ) ;
#603 = AXIS2_PLACEMENT_3D ( 'NONE', #498, #340, #219 ) ;
#604 = AXIS2_PLACEMENT_3D ( 'NONE', #524, #348, #521 ) ;
#605 = DIRECTION ( 'NONE',  ( -0.000000000000000000, 1.000000000000000000, -0.000000000000000000 ) ) ;
#606 = EDGE_LOOP ( 'NONE', ( #401, #732, #337, #289 ) ) ;
#607 =( LENGTH_UNIT ( ) NAMED_UNIT ( * ) SI_UNIT ( .MILLI., .METRE. ) );
#608 = CARTESIAN_POINT ( 'NONE',  ( 0.000000000000000000, -15.60000000000000320, 21.23977675971556778 ) ) ;
#609 = DIRECTION ( 'NONE',  ( 0.000000000000000000, 0.000000000000000000, 1.000000000000000000 ) ) ;
#610 = ORIENTED_EDGE ( 'NONE', *, *, #557, .T. ) ;
#611 = EDGE_CURVE ( 'NONE', #240, #251, #615, .T. ) ;
#612 = CARTESIAN_POINT ( 'NONE',  ( 0.000000000000000000, -17.60000000000000497, 0.000000000000000000 ) ) ;
#613 = CIRCLE ( 'NONE', #88, 21.23811157215852319 ) ;
#614 = CONICAL_SURFACE ( 'NONE', #539, 19.65744081903822504, 0.04712388980382597320 ) ;
#615 = LINE ( 'NONE', #218, #391 ) ;
#616 = DIRECTION ( 'NONE',  ( -0.000000000000000000, 1.000000000000000000, -0.000000000000000000 ) ) ;
#617 = DIRECTION ( 'NONE',  ( -0.000000000000000000, 1.000000000000000000, -0.000000000000000000 ) ) ;
#618 = MANIFOLD_SOLID_BREP ( 'Révolution3', #294 ) ;
#619 = AXIS2_PLACEMENT_3D ( 'NONE', #656, #5, #478 ) ;
#620 = VECTOR ( 'NONE', #574, 1000.000000000000000 ) ;
#621 = VERTEX_POINT ( 'NONE', #698 ) ;
#622 = DIRECTION ( 'NONE',  ( 0.000000000000000000, 0.000000000000000000, 1.000000000000000000 ) ) ;
#623 = CARTESIAN_POINT ( 'NONE',  ( 0.000000000000000000, -7.729102694233699999, 18.80000000000000071 ) ) ;
#624 = ORIENTED_EDGE ( 'NONE', *, *, #476, .T. ) ;
#625 = DIRECTION ( 'NONE',  ( 0.000000000000000000, 0.000000000000000000, 1.000000000000000000 ) ) ;
#626 = ADVANCED_FACE ( 'NONE', ( #403 ), #450, .F. ) ;
#627 = ORIENTED_EDGE ( 'NONE', *, *, #81, .T. ) ;
#628 = AXIS2_PLACEMENT_3D ( 'NONE', #265, #490, #9 ) ;
#629 = CIRCLE ( 'NONE', #702, 21.89999999999999858 ) ;
#630 = ORIENTED_EDGE ( 'NONE', *, *, #399, .F. ) ;
#631 = CIRCLE ( 'NONE', #543, 18.80000000000000071 ) ;
#632 = EDGE_CURVE ( 'NONE', #186, #202, #461, .T. ) ;
#633 = LINE ( 'NONE', #407, #643 ) ;
#634 = DIRECTION ( 'NONE',  ( -0.000000000000000000, 1.000000000000000000, 0.000000000000000000 ) ) ;
#635 = VERTEX_POINT ( 'NONE', #293 ) ;
#636 = DIRECTION ( 'NONE',  ( -0.000000000000000000, 1.000000000000000000, -0.000000000000000000 ) ) ;
#637 = VERTEX_POINT ( 'NONE', #170 ) ;
#638 = FACE_BOUND ( 'NONE', #650, .T. ) ;
#639 = ORIENTED_EDGE ( 'NONE', *, *, #761, .T. ) ;
#640 = CARTESIAN_POINT ( 'NONE',  ( 2.459466678851197161E-15, -6.200000000000014388, -20.08306950676369240 ) ) ;
#641 = ORIENTED_EDGE ( 'NONE', *, *, #442, .T. ) ;
#642 = CIRCLE ( 'NONE', #127, 21.89999999999999858 ) ;
#643 = VECTOR ( 'NONE', #287, 1000.000000000000000 ) ;
#644 = MECHANICAL_DESIGN_GEOMETRIC_PRESENTATION_REPRESENTATION (  '', ( #424 ), #531 ) ;
#645 = DIRECTION ( 'NONE',  ( 0.000000000000000000, 0.7071067811865474617, 0.7071067811865474617 ) ) ;
#646 = ADVANCED_FACE ( 'NONE', ( #182 ), #677, .F. ) ;
#647 = FACE_OUTER_BOUND ( 'NONE', #483, .T. ) ;
#648 = LINE ( 'NONE', #121, #765 ) ;
#649 = DIRECTION ( 'NONE',  ( 0.000000000000000000, 0.000000000000000000, 1.000000000000000000 ) ) ;
#650 = EDGE_LOOP ( 'NONE', ( #414, #690 ) ) ;
#651 = DIRECTION ( 'NONE',  ( -0.000000000000000000, 1.000000000000000000, -0.000000000000000000 ) ) ;
#652 = VECTOR ( 'NONE', #758, 1000.000000000000000 ) ;
#653 = EDGE_CURVE ( 'NONE', #263, #398, #633, .T. ) ;
#654 = AXIS2_PLACEMENT_3D ( 'NONE', #46, #119, #395 ) ;
#655 = ORIENTED_EDGE ( 'NONE', *, *, #216, .T. ) ;
#656 = CARTESIAN_POINT ( 'NONE',  ( 0.000000000000000000, -17.52934032393556407, 0.000000000000000000 ) ) ;
#657 = ORIENTED_EDGE ( 'NONE', *, *, #534, .F. ) ;
#658 = CARTESIAN_POINT ( 'NONE',  ( 2.422309349093146634E-15, -15.22543452664509012, -19.65744081903822504 ) ) ;
#659 = CARTESIAN_POINT ( 'NONE',  ( 0.000000000000000000, -15.22543452664509012, 0.000000000000000000 ) ) ;
#660 = AXIS2_PLACEMENT_3D ( 'NONE', #17, #434, #271 ) ;
#661 = DIRECTION ( 'NONE',  ( 1.000000000000000000, 0.000000000000000000, 0.000000000000000000 ) ) ;
#662 = CIRCLE ( 'NONE', #242, 0.4999999999999970024 ) ;
#663 = TOROIDAL_SURFACE ( 'NONE', #541, 22.73811157215852319, 1.500000000000000222 ) ;
#664 = COLOUR_RGB ( '',0.7921568627450980005, 0.8196078431372548767, 0.9333333333333333481 ) ;
#665 = DIRECTION ( 'NONE',  ( -0.000000000000000000, 1.000000000000000000, -0.000000000000000000 ) ) ;
#666 = EDGE_CURVE ( 'NONE', #535, #506, #128, .T. ) ;
#667 = ORIENTED_EDGE ( 'NONE', *, *, #733, .F. ) ;
#668 = PRODUCT_CONTEXT ( 'NONE', #13, 'mechanical' ) ;
#669 = CARTESIAN_POINT ( 'NONE',  ( 0.000000000000000000, -17.60000000000000497, 0.000000000000000000 ) ) ;
#670 = ORIENTED_EDGE ( 'NONE', *, *, #256, .F. ) ;
#671 = DIRECTION ( 'NONE',  ( 0.000000000000000000, 0.000000000000000000, 1.000000000000000000 ) ) ;
#672 = EDGE_LOOP ( 'NONE', ( #341, #366, #321, #285 ) ) ;
#673 = ADVANCED_FACE ( 'NONE', ( #354 ), #311, .F. ) ;
#674 = VECTOR ( 'NONE', #565, 1000.000000000000114 ) ;
#675 =( LENGTH_UNIT ( ) NAMED_UNIT ( * ) SI_UNIT ( .MILLI., .METRE. ) );
#676 = FACE_OUTER_BOUND ( 'NONE', #162, .T. ) ;
#677 = CONICAL_SURFACE ( 'NONE', #322, 20.98159899055885802, 0.7853981633974482790 ) ;
#678 = DIRECTION ( 'NONE',  ( 0.000000000000000000, 0.000000000000000000, 1.000000000000000000 ) ) ;
#679 = ORIENTED_EDGE ( 'NONE', *, *, #442, .F. ) ;
#680 = ADVANCED_FACE ( 'NONE', ( #110 ), #78, .F. ) ;
#681 = DIRECTION ( 'NONE',  ( 0.000000000000000000, 0.7660444431189729064, 0.6427876096865454691 ) ) ;
#682 = ORIENTED_EDGE ( 'NONE', *, *, #109, .F. ) ;
#683 = CARTESIAN_POINT ( 'NONE',  ( 0.000000000000000000, -10.04226373917286885, 0.000000000000000000 ) ) ;
#684 = UNCERTAINTY_MEASURE_WITH_UNIT (LENGTH_MEASURE( 1.000000000000000082E-05 ), #607, 'distance_accuracy_value', 'NONE');
#685 = ORIENTED_EDGE ( 'NONE', *, *, #501, .T. ) ;
#686 = FACE_OUTER_BOUND ( 'NONE', #303, .T. ) ;
#687 = CARTESIAN_POINT ( 'NONE',  ( 0.000000000000000000, -15.22543452664509012, 19.65744081903822504 ) ) ;
#688 = TOROIDAL_SURFACE ( 'NONE', #412, 22.73811157215852319, 1.500000000000000222 ) ;
#689 = TOROIDAL_SURFACE ( 'NONE', #8, 19.49999999999999645, 0.4999999999999980571 ) ;
#690 = ORIENTED_EDGE ( 'NONE', *, *, #557, .F. ) ;
#691 = EDGE_CURVE ( 'NONE', #254, #382, #65, .T. ) ;
#692 = CARTESIAN_POINT ( 'NONE',  ( 0.000000000000000000, -18.00000000000000000, 0.000000000000000000 ) ) ;
#693 = ORIENTED_EDGE ( 'NONE', *, *, #252, .F. ) ;
#694 = DIRECTION ( 'NONE',  ( 0.000000000000000000, -1.000000000000000000, 0.000000000000000000 ) ) ;
#695 = CYLINDRICAL_SURFACE ( 'NONE', #190, 18.80000000000000071 ) ;
#696 = VERTEX_POINT ( 'NONE', #58 ) ;
#697 = EDGE_CURVE ( 'NONE', #2, #736, #744, .T. ) ;
#698 = CARTESIAN_POINT ( 'NONE',  ( 2.660072877885789790E-15, -16.60000000000000497, -21.56068787513721219 ) ) ;
#699 = FACE_OUTER_BOUND ( 'NONE', #396, .T. ) ;
#700 = EDGE_LOOP ( 'NONE', ( #108, #532 ) ) ;
#701 = AXIS2_PLACEMENT_3D ( 'NONE', #408, #301, #763 ) ;
#702 = AXIS2_PLACEMENT_3D ( 'NONE', #601, #315, #542 ) ;
#703 = CARTESIAN_POINT ( 'NONE',  ( 0.000000000000000000, -17.60000000000000497, 21.88159899055885305 ) ) ;
#704 = DIRECTION ( 'NONE',  ( -0.000000000000000000, 1.000000000000000000, -0.000000000000000000 ) ) ;
#705 = ORIENTED_EDGE ( 'NONE', *, *, #207, .T. ) ;
#706 = DIRECTION ( 'NONE',  ( 0.000000000000000000, 0.000000000000000000, 1.000000000000000000 ) ) ;
#707 = ORIENTED_EDGE ( 'NONE', *, *, #471, .F. ) ;
#708 = EDGE_CURVE ( 'NONE', #220, #736, #232, .T. ) ;
#709 = LINE ( 'NONE', #536, #179 ) ;
#710 = EDGE_LOOP ( 'NONE', ( #281, #670, #655, #510 ) ) ;
#711 = CIRCLE ( 'NONE', #527, 21.23977675971556778 ) ;
#712 = EDGE_CURVE ( 'NONE', #729, #621, #277, .T. ) ;
#713 = CIRCLE ( 'NONE', #164, 1.500000000000001332 ) ;
#714 = AXIS2_PLACEMENT_3D ( 'NONE', #505, #636, #649 ) ;
#715 = CARTESIAN_POINT ( 'NONE',  ( 0.000000000000000000, -15.60000000000000320, 0.000000000000000000 ) ) ;
#716 = EDGE_LOOP ( 'NONE', ( #189, #385, #388, #158 ) ) ;
#717 = APPLICATION_PROTOCOL_DEFINITION ( 'draft international standard', 'automotive_design', 1998, #727 ) ;
#718 = DIRECTION ( 'NONE',  ( -0.000000000000000000, 1.000000000000000000, -0.000000000000000000 ) ) ;
#719 = FACE_OUTER_BOUND ( 'NONE', #410, .T. ) ;
#720 = CARTESIAN_POINT ( 'NONE',  ( 0.000000000000000000, -17.52934032393556407, 20.38326417811589408 ) ) ;
#721 = EDGE_CURVE ( 'NONE', #240, #637, #21, .T. ) ;
#722 = DIRECTION ( 'NONE',  ( -0.000000000000000000, 1.000000000000000000, -0.000000000000000000 ) ) ;
#723 = ORIENTED_EDGE ( 'NONE', *, *, #109, .T. ) ;
#724 = AXIS2_PLACEMENT_3D ( 'NONE', #376, #266, #93 ) ;
#725 = AXIS2_PLACEMENT_3D ( 'NONE', #154, #95, #383 ) ;
#726 = AXIS2_PLACEMENT_3D ( 'NONE', #140, #135, #83 ) ;
#727 = APPLICATION_CONTEXT ( 'automotive_design' ) ;
#728 = DIRECTION ( 'NONE',  ( -0.000000000000000000, 1.000000000000000000, -0.000000000000000000 ) ) ;
#729 = VERTEX_POINT ( 'NONE', #509 ) ;
#730 = DIRECTION ( 'NONE',  ( 0.000000000000000000, 0.000000000000000000, 1.000000000000000000 ) ) ;
#731 = FACE_OUTER_BOUND ( 'NONE', #428, .T. ) ;
#732 = ORIENTED_EDGE ( 'NONE', *, *, #411, .T. ) ;
#733 = EDGE_CURVE ( 'NONE', #455, #696, #756, .T. ) ;
#734 = CARTESIAN_POINT ( 'NONE',  ( 0.000000000000000000, -1.000000000000000888, 0.000000000000000000 ) ) ;
#735 = CONICAL_SURFACE ( 'NONE', #589, 21.88159899055885305, 0.7853981633974482790 ) ;
#736 = VERTEX_POINT ( 'NONE', #446 ) ;
#737 = ADVANCED_FACE ( 'NONE', ( #229 ), #585, .F. ) ;
#738 = AXIS2_PLACEMENT_3D ( 'NONE', #278, #43, #332 ) ;
#739 = AXIS2_PLACEMENT_3D ( 'NONE', #253, #418, #546 ) ;
#740 = FACE_OUTER_BOUND ( 'NONE', #503, .T. ) ;
#741 = CARTESIAN_POINT ( 'NONE',  ( 0.000000000000000000, -16.19144032103758590, 0.000000000000000000 ) ) ;
#742 = ORIENTED_EDGE ( 'NONE', *, *, #81, .F. ) ;
#743 = VERTEX_POINT ( 'NONE', #581 ) ;
#744 = LINE ( 'NONE', #238, #620 ) ;
#745 = ORIENTED_EDGE ( 'NONE', *, *, #330, .T. ) ;
#746 = EDGE_CURVE ( 'NONE', #2, #263, #631, .T. ) ;
#747 = FACE_OUTER_BOUND ( 'NONE', #126, .T. ) ;
#748 = FACE_OUTER_BOUND ( 'NONE', #98, .T. ) ;
#749 = ORIENTED_EDGE ( 'NONE', *, *, #45, .F. ) ;
#750 = DIRECTION ( 'NONE',  ( 1.224646799147351975E-16, 0.000000000000000000, -1.000000000000000000 ) ) ;
#751 = AXIS2_PLACEMENT_3D ( 'NONE', #149, #209, #380 ) ;
#752 = ADVANCED_FACE ( 'NONE', ( #686 ), #464, .T. ) ;
#753 = CARTESIAN_POINT ( 'NONE',  ( 0.000000000000000000, -1.000000000000000888, 19.59212171762659693 ) ) ;
#754 = DIRECTION ( 'NONE',  ( -0.000000000000000000, 1.000000000000000000, -0.000000000000000000 ) ) ;
#755 = ORIENTED_EDGE ( 'NONE', *, *, #45, .T. ) ;
#756 = LINE ( 'NONE', #640, #57 ) ;
#757 = CARTESIAN_POINT ( 'NONE',  ( 0.000000000000000000, -6.200000000000014388, 20.08306950676369240 ) ) ;
#758 = DIRECTION ( 'NONE',  ( 7.871877887342003553E-17, -0.7660444431189767922, 0.6427876096865408062 ) ) ;
#759 = ORIENTED_EDGE ( 'NONE', *, *, #460, .T. ) ;
#760 = PRODUCT_DEFINITION_SHAPE ( 'NONE', 'NONE',  #61 ) ;
#761 = EDGE_CURVE ( 'NONE', #621, #226, #364, .T. ) ;
#762 = DIRECTION ( 'NONE',  ( -0.000000000000000000, 1.000000000000000000, -0.000000000000000000 ) ) ;
#763 = DIRECTION ( 'NONE',  ( 0.000000000000000000, 0.000000000000000000, 1.000000000000000000 ) ) ;
#764 = ORIENTED_EDGE ( 'NONE', *, *, #460, .F. ) ;
#765 = VECTOR ( 'NONE', #353, 1000.000000000000114 ) ;
#766 = EDGE_CURVE ( 'NONE', #535, #736, #82, .T. ) ;
#767 = DIRECTION ( 'NONE',  ( 0.000000000000000000, 0.000000000000000000, 1.000000000000000000 ) ) ;
#768 = CONICAL_SURFACE ( 'NONE', #99, 19.65744081903822504, 0.04712388980382597320 ) ;
#769 = CARTESIAN_POINT ( 'NONE',  ( 0.000000000000000000, -15.22543452664509012, 0.000000000000000000 ) ) ;
#770 = ORIENTED_EDGE ( 'NONE', *, *, #761, .F. ) ;
#771 = AXIS2_PLACEMENT_3D ( 'NONE', #282, #339, #457 ) ;
#772 = VECTOR ( 'NONE', #477, 1000.000000000000114 ) ;
ENDSEC;
END-ISO-10303-21;
