ISO-10303-21;
HEADER;
FILE_DESCRIPTION (( 'STEP AP214' ),
    '1' );
FILE_NAME ('Adapter Front 1515 3mm Slots.STEP',
    '2026-09-02T08:45:07',
    ( '' ),
    ( '' ),
    '',
    '',
    '' );
FILE_SCHEMA (( 'AUTOMOTIVE_DESIGN' ));
ENDSEC;

DATA;
#1 = FACE_OUTER_BOUND ( 'NONE', #397, .T. ) ;
#2 = ORIENTED_EDGE ( 'NONE', *, *, #756, .T. ) ;
#3 = ADVANCED_FACE ( 'NONE', ( #619 ), #948, .F. ) ;
#4 = CARTESIAN_POINT ( 'NONE',  ( -35.91506684846628161, -2.200000000000001954, 26.00879313365605583 ) ) ;
#5 = DIRECTION ( 'NONE',  ( -2.603614714405328307E-15, -1.655706319345982605E-32, 1.000000000000000000 ) ) ;
#6 = CARTESIAN_POINT ( 'NONE',  ( 2.081668171160030224E-17, -3.000000000000003109, 25.00879313365606293 ) ) ;
#7 = CARTESIAN_POINT ( 'NONE',  ( -20.15000000000000568, 0.02998304077491049241, 29.54806785028959126 ) ) ;
#8 = VERTEX_POINT ( 'NONE', #471 ) ;
#9 = PLANE ( 'NONE',  #200 ) ;
#10 = CARTESIAN_POINT ( 'NONE',  ( -21.14999999999999147, 3.764101615181838056, 25.08038475793011912 ) ) ;
#11 = VECTOR ( 'NONE', #292, 1000.000000000000000 ) ;
#12 = VECTOR ( 'NONE', #685, 1000.000000000000000 ) ;
#13 = DIRECTION ( 'NONE',  ( -6.938893903866751493E-18, 1.000000000000000000, -1.509143076343729851E-33 ) ) ;
#14 = VECTOR ( 'NONE', #928, 1000.000000000000000 ) ;
#15 = CARTESIAN_POINT ( 'NONE',  ( -35.91506684846628161, 0.6000000000386642718, 29.36076951566884219 ) ) ;
#16 = VERTEX_POINT ( 'NONE', #700 ) ;
#17 = CIRCLE ( 'NONE', #645, 4.000000000000000000 ) ;
#18 = SURFACE_SIDE_STYLE ('',( #764 ) ) ;
#19 = FACE_OUTER_BOUND ( 'NONE', #41, .T. ) ;
#20 = EDGE_CURVE ( 'NONE', #634, #989, #461, .T. ) ;
#21 = ADVANCED_FACE ( 'NONE', ( #299 ), #393, .F. ) ;
#22 = EDGE_CURVE ( 'NONE', #831, #707, #1044, .T. ) ;
#23 = DIRECTION ( 'NONE',  ( 2.603614714405328307E-15, 1.224646799147443926E-16, -1.000000000000000000 ) ) ;
#24 = DIRECTION ( 'NONE',  ( -1.000000000000000000, -6.938893903866751493E-18, -7.089404221401387746E-17 ) ) ;
#25 = ORIENTED_EDGE ( 'NONE', *, *, #979, .F. ) ;
#26 = ORIENTED_EDGE ( 'NONE', *, *, #625, .T. ) ;
#27 = SURFACE_STYLE_USAGE ( .BOTH. , #18 ) ;
#28 = CARTESIAN_POINT ( 'NONE',  ( -34.91506684846627451, 4.300000000044083670, 23.08038475793011912 ) ) ;
#29 = FACE_OUTER_BOUND ( 'NONE', #32, .T. ) ;
#30 = LINE ( 'NONE', #779, #358 ) ;
#31 = DIRECTION ( 'NONE',  ( -1.000000000000000000, -6.938893903907210659E-18, -1.529500441772202869E-18 ) ) ;
#32 = EDGE_LOOP ( 'NONE', ( #60, #26, #741, #977 ) ) ;
#33 = ORIENTED_EDGE ( 'NONE', *, *, #638, .T. ) ;
#34 = ORIENTED_EDGE ( 'NONE', *, *, #528, .T. ) ;
#35 = LINE ( 'NONE', #94, #628 ) ;
#36 = PRODUCT_DEFINITION ( 'UNKNOWN', '', #1076, #647 ) ;
#37 = AXIS2_PLACEMENT_3D ( 'NONE', #1074, #664, #991 ) ;
#38 = AXIS2_PLACEMENT_3D ( 'NONE', #445, #263, #765 ) ;
#39 = CARTESIAN_POINT ( 'NONE',  ( -35.91506684846628161, -3.000000000000003553, 26.80879313365606009 ) ) ;
#40 = CARTESIAN_POINT ( 'NONE',  ( 3.841805311886811847, 3.300000000044072568, 8.200000000238420128 ) ) ;
#41 = EDGE_LOOP ( 'NONE', ( #932, #947, #365, #380 ) ) ;
#42 = ORIENTED_EDGE ( 'NONE', *, *, #982, .F. ) ;
#43 = DIRECTION ( 'NONE',  ( 1.000000000000000000, 0.000000000000000000, 7.089404221401387746E-17 ) ) ;
#44 = EDGE_CURVE ( 'NONE', #953, #467, #862, .T. ) ;
#45 = AXIS2_PLACEMENT_3D ( 'NONE', #1053, #963, #51 ) ;
#46 = LINE ( 'NONE', #706, #411 ) ;
#47 = ORIENTED_EDGE ( 'NONE', *, *, #739, .F. ) ;
#48 = ORIENTED_EDGE ( 'NONE', *, *, #559, .F. ) ;
#49 = EDGE_LOOP ( 'NONE', ( #120, #482, #214, #197 ) ) ;
#50 = EDGE_CURVE ( 'NONE', #747, #913, #1049, .T. ) ;
#51 = DIRECTION ( 'NONE',  ( -0.7071067811865503483, 0.000000000000000000, -0.7071067811865446862 ) ) ;
#52 = LINE ( 'NONE', #481, #1002 ) ;
#53 = ORIENTED_EDGE ( 'NONE', *, *, #879, .T. ) ;
#54 = ORIENTED_EDGE ( 'NONE', *, *, #620, .T. ) ;
#55 = AXIS2_PLACEMENT_3D ( 'NONE', #630, #550, #138 ) ;
#56 = EDGE_LOOP ( 'NONE', ( #423, #525, #259, #493, #568 ) ) ;
#57 = LINE ( 'NONE', #401, #721 ) ;
#58 = ADVANCED_FACE ( 'NONE', ( #575 ), #899, .T. ) ;
#59 = EDGE_CURVE ( 'NONE', #295, #450, #648, .T. ) ;
#60 = ORIENTED_EDGE ( 'NONE', *, *, #232, .F. ) ;
#61 = LINE ( 'NONE', #135, #711 ) ;
#62 = PLANE ( 'NONE',  #261 ) ;
#63 = CARTESIAN_POINT ( 'NONE',  ( -20.14999999999999503, 3.866501456039055177E-11, 25.00879313365606649 ) ) ;
#64 = ORIENTED_EDGE ( 'NONE', *, *, #50, .T. ) ;
#65 = CARTESIAN_POINT ( 'NONE',  ( -20.14999999999995239, 3.300000000044073012, 9.200000000238421904 ) ) ;
#66 = VECTOR ( 'NONE', #254, 1000.000000000000114 ) ;
#67 = DIRECTION ( 'NONE',  ( -1.000000000000000000, -6.938893903866778456E-18, 0.000000000000000000 ) ) ;
#68 = ORIENTED_EDGE ( 'NONE', *, *, #712, .F. ) ;
#69 = VECTOR ( 'NONE', #688, 1000.000000000000114 ) ;
#70 = ADVANCED_FACE ( 'NONE', ( #820 ), #659, .F. ) ;
#71 = EDGE_CURVE ( 'NONE', #624, #324, #726, .T. ) ;
#72 = CARTESIAN_POINT ( 'NONE',  ( -34.91506684846628872, 1.009807621173995029, 29.85096189453352267 ) ) ;
#73 = SHAPE_DEFINITION_REPRESENTATION ( #539, #437 ) ;
#74 = VECTOR ( 'NONE', #187, 1000.000000000000000 ) ;
#75 = CARTESIAN_POINT ( 'NONE',  ( 3.841805311886810514, 0.6000000000386644938, 29.36076951566884574 ) ) ;
#76 = ORIENTED_EDGE ( 'NONE', *, *, #389, .T. ) ;
#77 = CARTESIAN_POINT ( 'NONE',  ( -35.21506684846628588, 0.6000000000386643828, 29.96076951566884361 ) ) ;
#78 = EDGE_CURVE ( 'NONE', #296, #563, #241, .T. ) ;
#79 = DIRECTION ( 'NONE',  ( -1.000000000000000000, -6.938893903866756886E-18, -7.089404221401387746E-17 ) ) ;
#80 = EDGE_CURVE ( 'NONE', #967, #819, #569, .T. ) ;
#81 = EDGE_LOOP ( 'NONE', ( #281, #781, #233, #339 ) ) ;
#82 = CARTESIAN_POINT ( 'NONE',  ( -20.35020498391151378, 0.1138312521144533851, 29.80324845594873651 ) ) ;
#83 = DIRECTION ( 'NONE',  ( -0.7071067811865435759, -0.7071067811865513475, 2.958506589143329252E-15 ) ) ;
#84 = DIRECTION ( 'NONE',  ( -1.000000000000000000, -6.938893903172476089E-18, 0.000000000000000000 ) ) ;
#85 = VERTEX_POINT ( 'NONE', #325 ) ;
#86 = MECHANICAL_DESIGN_GEOMETRIC_PRESENTATION_REPRESENTATION (  '', ( #477 ), #160 ) ;
#87 = CARTESIAN_POINT ( 'NONE',  ( -35.91506684846628161, -2.200000000000001954, 26.00879313365605583 ) ) ;
#88 = PLANE ( 'NONE',  #37 ) ;
#89 = DIRECTION ( 'NONE',  ( -0.7071067811865435759, -0.7071067811865514585, -2.774797925486502771E-15 ) ) ;
#90 = CARTESIAN_POINT ( 'NONE',  ( -35.91506684846628161, -3.434369364495233888E-15, 26.00879313365605583 ) ) ;
#91 = EDGE_CURVE ( 'NONE', #965, #117, #581, .T. ) ;
#92 = ORIENTED_EDGE ( 'NONE', *, *, #338, .F. ) ;
#93 = CARTESIAN_POINT ( 'NONE',  ( -34.91506684846627451, 4.300000000044083670, 9.200000000238416575 ) ) ;
#94 = CARTESIAN_POINT ( 'NONE',  ( -35.91506684846628161, 3.866696365173513811E-11, 8.200000000238416575 ) ) ;
#95 = DIRECTION ( 'NONE',  ( 0.7071067811865504593, -8.168906669011101872E-17, 0.7071067811865445751 ) ) ;
#96 = LINE ( 'NONE', #1030, #74 ) ;
#97 = DIRECTION ( 'NONE',  ( -0.7071067811865445751, -9.150214455694288291E-17, 0.7071067811865504593 ) ) ;
#98 = EDGE_LOOP ( 'NONE', ( #604, #544, #998, #329, #418, #959 ) ) ;
#99 = PLANE ( 'NONE',  #394 ) ;
#100 = DIRECTION ( 'NONE',  ( -1.000000000000000000, 0.000000000000000000, 0.000000000000000000 ) ) ;
#101 = CARTESIAN_POINT ( 'NONE',  ( -25.68253342423314578, 3.866179841549577131E-11, 16.10288568320374836 ) ) ;
#102 = EDGE_CURVE ( 'NONE', #919, #658, #613, .T. ) ;
#103 = CARTESIAN_POINT ( 'NONE',  ( -35.21506684846628588, 0.6000000000386643828, 29.96076951566884361 ) ) ;
#104 = DIRECTION ( 'NONE',  ( -0.7071067811865530128, 0.6123724356957899184, 0.3535533905932708998 ) ) ;
#105 = DIRECTION ( 'NONE',  ( -0.7071067811865506814, 0.7071067811865443531, -0.000000000000000000 ) ) ;
#106 = ORIENTED_EDGE ( 'NONE', *, *, #303, .T. ) ;
#107 = EDGE_CURVE ( 'NONE', #563, #203, #173, .T. ) ;
#108 = DIRECTION ( 'NONE',  ( 2.144860714279351250E-18, -0.4999999999999998335, 0.8660254037844388186 ) ) ;
#109 = LINE ( 'NONE', #1023, #641 ) ;
#110 = EDGE_CURVE ( 'NONE', #268, #563, #504, .T. ) ;
#111 = EDGE_CURVE ( 'NONE', #85, #324, #501, .T. ) ;
#112 = CARTESIAN_POINT ( 'NONE',  ( -34.91506684846627451, 3.300000000044072568, 8.200000000238416575 ) ) ;
#113 = AXIS2_PLACEMENT_3D ( 'NONE', #565, #491, #814 ) ;
#114 = LINE ( 'NONE', #40, #971 ) ;
#115 = ORIENTED_EDGE ( 'NONE', *, *, #755, .T. ) ;
#116 = CONICAL_SURFACE ( 'NONE', #249, 2.999999999999988898, 0.7853981633974536081 ) ;
#117 = VERTEX_POINT ( 'NONE', #414 ) ;
#118 = DIRECTION ( 'NONE',  ( -1.000000000000000000, 0.000000000000000000, -3.469446951953611033E-15 ) ) ;
#119 = DIRECTION ( 'NONE',  ( 1.529500441772202098E-18, 1.224646799146225383E-16, -1.000000000000000000 ) ) ;
#120 = ORIENTED_EDGE ( 'NONE', *, *, #474, .F. ) ;
#121 = EDGE_CURVE ( 'NONE', #627, #624, #483, .T. ) ;
#122 = ORIENTED_EDGE ( 'NONE', *, *, #649, .T. ) ;
#123 = DIRECTION ( 'NONE',  ( -0.7071067811865441310, 0.7071067811865510144, -2.131817602687600230E-15 ) ) ;
#124 = DIRECTION ( 'NONE',  ( 2.251327037390785740E-15, 0.4999999999999998335, -0.8660254037844388186 ) ) ;
#125 = FACE_OUTER_BOUND ( 'NONE', #858, .T. ) ;
#126 = ORIENTED_EDGE ( 'NONE', *, *, #981, .F. ) ;
#127 = VERTEX_POINT ( 'NONE', #1068 ) ;
#128 = VERTEX_POINT ( 'NONE', #321 ) ;
#129 = VECTOR ( 'NONE', #199, 1000.000000000000000 ) ;
#130 = CARTESIAN_POINT ( 'NONE',  ( -20.14999999999998792, 0.3000000000440833925, 23.08038475793012267 ) ) ;
#131 = ORIENTED_EDGE ( 'NONE', *, *, #1069, .T. ) ;
#132 = EDGE_CURVE ( 'NONE', #819, #295, #334, .T. ) ;
#133 = VERTEX_POINT ( 'NONE', #424 ) ;
#134 = AXIS2_PLACEMENT_3D ( 'NONE', #866, #560, #554 ) ;
#135 = CARTESIAN_POINT ( 'NONE',  ( -20.55000000000000071, -2.199999999999991740, 26.40879313365605796 ) ) ;
#136 = VERTEX_POINT ( 'NONE', #806 ) ;
#137 = ORIENTED_EDGE ( 'NONE', *, *, #637, .T. ) ;
#138 = DIRECTION ( 'NONE',  ( -1.000000000000000000, -6.938893903172476089E-18, 0.000000000000000000 ) ) ;
#139 = DIRECTION ( 'NONE',  ( 1.000000000000000000, 6.938893903866759967E-18, 7.089404221401386514E-17 ) ) ;
#140 = CARTESIAN_POINT ( 'NONE',  ( 3.841805311886811847, 3.866723952045301005E-11, 8.200000000238420128 ) ) ;
#141 = ORIENTED_EDGE ( 'NONE', *, *, #1020, .F. ) ;
#142 = ADVANCED_FACE ( 'NONE', ( #404 ), #720, .T. ) ;
#143 = EDGE_CURVE ( 'NONE', #8, #919, #262, .T. ) ;
#144 = ADVANCED_FACE ( 'NONE', ( #687 ), #99, .T. ) ;
#145 = DIRECTION ( 'NONE',  ( 1.000000000000000000, 6.938893902390959910E-18, 2.600993999440928909E-15 ) ) ;
#146 = AXIS2_PLACEMENT_3D ( 'NONE', #705, #545, #43 ) ;
#147 = DIRECTION ( 'NONE',  ( 0.000000000000000000, 0.7071067811865505703, -0.7071067811865445751 ) ) ;
#148 = EDGE_LOOP ( 'NONE', ( #343, #825, #718 ) ) ;
#149 = AXIS2_PLACEMENT_3D ( 'NONE', #692, #606, #863 ) ;
#150 = LINE ( 'NONE', #621, #312 ) ;
#151 = PLANE ( 'NONE',  #782 ) ;
#152 = ORIENTED_EDGE ( 'NONE', *, *, #586, .T. ) ;
#153 = CARTESIAN_POINT ( 'NONE',  ( -21.14999999999996305, 3.866706610496747496E-11, 8.200000000238418352 ) ) ;
#154 = DIRECTION ( 'NONE',  ( 0.5773502691896282846, -0.5773502691896197359, -0.5773502691896292838 ) ) ;
#155 = EDGE_CURVE ( 'NONE', #624, #965, #605, .T. ) ;
#156 = ORIENTED_EDGE ( 'NONE', *, *, #739, .T. ) ;
#157 = DIRECTION ( 'NONE',  ( 6.938893903907210659E-18, -1.000000000000000000, -1.224646799147444173E-16 ) ) ;
#158 = LINE ( 'NONE', #552, #405 ) ;
#159 = DIRECTION ( 'NONE',  ( 1.000000000000000000, -0.000000000000000000, -0.000000000000000000 ) ) ;
#160 =( GEOMETRIC_REPRESENTATION_CONTEXT ( 3 ) GLOBAL_UNCERTAINTY_ASSIGNED_CONTEXT ( ( #320 ) ) GLOBAL_UNIT_ASSIGNED_CONTEXT ( ( #180, #425, #242 ) ) REPRESENTATION_CONTEXT ( 'NONE', 'WORKASPACE' ) );
#161 = ORIENTED_EDGE ( 'NONE', *, *, #701, .T. ) ;
#162 = ADVANCED_FACE ( 'NONE', ( #435 ), #1015, .T. ) ;
#163 = DIRECTION ( 'NONE',  ( 9.738717141852599143E-15, -0.7071067811865505703, -0.7071067811865444641 ) ) ;
#164 = VECTOR ( 'NONE', #431, 1000.000000000000114 ) ;
#165 = CARTESIAN_POINT ( 'NONE',  ( 0.000000000000000000, 0.000000000000000000, 0.000000000000000000 ) ) ;
#166 = VECTOR ( 'NONE', #363, 1000.000000000000000 ) ;
#167 = LINE ( 'NONE', #342, #912 ) ;
#168 = ORIENTED_EDGE ( 'NONE', *, *, #727, .F. ) ;
#169 = DIRECTION ( 'NONE',  ( 6.938893902389430722E-18, -1.000000000000000000, 4.919262372345598321E-34 ) ) ;
#170 = LINE ( 'NONE', #821, #505 ) ;
#171 = CARTESIAN_POINT ( 'NONE',  ( -21.14999999999995239, 4.300000000044083670, 9.200000000238418352 ) ) ;
#172 = ORIENTED_EDGE ( 'NONE', *, *, #453, .F. ) ;
#173 = LINE ( 'NONE', #562, #488 ) ;
#174 = CARTESIAN_POINT ( 'NONE',  ( -20.14999999999999503, 3.866501456039054531E-11, 25.00879313365606649 ) ) ;
#175 = CARTESIAN_POINT ( 'NONE',  ( 3.841805311886808738, 3.764101615181838056, 25.08038475793012267 ) ) ;
#176 = DIRECTION ( 'NONE',  ( -0.7071067811865513475, 0.7071067811865436870, -1.754438014529538472E-15 ) ) ;
#177 = EDGE_LOOP ( 'NONE', ( #382, #897, #479, #1006 ) ) ;
#178 = VECTOR ( 'NONE', #654, 1000.000000000000114 ) ;
#179 = VECTOR ( 'NONE', #24, 1000.000000000000000 ) ;
#180 =( LENGTH_UNIT ( ) NAMED_UNIT ( * ) SI_UNIT ( .MILLI., .METRE. ) );
#181 = DIRECTION ( 'NONE',  ( -6.938893903907210659E-18, 1.000000000000000000, 1.224646799147444173E-16 ) ) ;
#182 = AXIS2_PLACEMENT_3D ( 'NONE', #225, #883, #212 ) ;
#183 = ORIENTED_EDGE ( 'NONE', *, *, #198, .T. ) ;
#184 = LINE ( 'NONE', #270, #674 ) ;
#185 = CARTESIAN_POINT ( 'NONE',  ( -35.91506684846628161, -2.199999999999998401, -3.243544064234447078E-16 ) ) ;
#186 = LINE ( 'NONE', #438, #164 ) ;
#187 = DIRECTION ( 'NONE',  ( -1.000000000000000000, -6.938893903866778456E-18, 0.000000000000000000 ) ) ;
#188 = CARTESIAN_POINT ( 'NONE',  ( -20.85000000000001208, 0.6000000000386643828, 29.96076951566884716 ) ) ;
#189 = ORIENTED_EDGE ( 'NONE', *, *, #528, .F. ) ;
#190 = ADVANCED_FACE ( 'NONE', ( #753 ), #514, .T. ) ;
#191 = EDGE_CURVE ( 'NONE', #965, #816, #584, .T. ) ;
#192 = LINE ( 'NONE', #933, #935 ) ;
#193 = CARTESIAN_POINT ( 'NONE',  ( -35.11506684846627024, -3.208381825524148717E-15, 24.20879313365606222 ) ) ;
#194 = DIRECTION ( 'NONE',  ( -1.000000000000000000, -6.938893903866778456E-18, 0.000000000000000000 ) ) ;
#195 = CARTESIAN_POINT ( 'NONE',  ( -16.55849391076535326, 3.866459964882662780E-11, 28.60029922289068693 ) ) ;
#196 = ORIENTED_EDGE ( 'NONE', *, *, #102, .F. ) ;
#197 = ORIENTED_EDGE ( 'NONE', *, *, #303, .F. ) ;
#198 = EDGE_CURVE ( 'NONE', #392, #946, #984, .T. ) ;
#199 = DIRECTION ( 'NONE',  ( -6.938893902389749656E-18, 1.000000000000000000, 1.224646799147444173E-16 ) ) ;
#200 = AXIS2_PLACEMENT_3D ( 'NONE', #359, #927, #520 ) ;
#201 = EDGE_CURVE ( 'NONE', #268, #348, #184, .T. ) ;
#202 = DIRECTION ( 'NONE',  ( 2.603614714405328307E-15, 1.224646799146225629E-16, -1.000000000000000000 ) ) ;
#203 = VERTEX_POINT ( 'NONE', #93 ) ;
#204 = CIRCLE ( 'NONE', #1029, 0.5999999999999999778 ) ;
#205 = EDGE_LOOP ( 'NONE', ( #413, #115, #457 ) ) ;
#206 = DIRECTION ( 'NONE',  ( 4.906538933358173455E-18, -0.7071067811865444641, 0.7071067811865505703 ) ) ;
#207 = DIRECTION ( 'NONE',  ( 2.775557561562891043E-17, 0.7071067811865505703, -0.7071067811865444641 ) ) ;
#208 = DIRECTION ( 'NONE',  ( 0.000000000000000000, -1.000000000000000000, 0.000000000000000000 ) ) ;
#209 = ORIENTED_EDGE ( 'NONE', *, *, #121, .F. ) ;
#210 = EDGE_LOOP ( 'NONE', ( #690, #161, #25, #561 ) ) ;
#211 = CARTESIAN_POINT ( 'NONE',  ( -35.91506684846628161, 3.866684118705522395E-11, 9.200000000238427234 ) ) ;
#212 = DIRECTION ( 'NONE',  ( 2.312964634635751339E-15, 0.000000000000000000, -1.000000000000000000 ) ) ;
#213 = ORIENTED_EDGE ( 'NONE', *, *, #822, .F. ) ;
#214 = ORIENTED_EDGE ( 'NONE', *, *, #1069, .F. ) ;
#215 = AXIS2_PLACEMENT_3D ( 'NONE', #660, #910, #986 ) ;
#216 = VECTOR ( 'NONE', #89, 1000.000000000000000 ) ;
#217 = CARTESIAN_POINT ( 'NONE',  ( -35.11506684846627024, -3.000000000000003553, 25.00879313365606293 ) ) ;
#218 = EDGE_LOOP ( 'NONE', ( #653, #92 ) ) ;
#219 = DIRECTION ( 'NONE',  ( -6.938893903866751493E-18, 1.000000000000000000, -1.509143076343730022E-33 ) ) ;
#220 = LINE ( 'NONE', #803, #901 ) ;
#221 = CARTESIAN_POINT ( 'NONE',  ( -25.68253342423314578, 3.866179841549577131E-11, 16.10288568320374836 ) ) ;
#222 = ADVANCED_FACE ( 'NONE', ( #430 ), #1022, .T. ) ;
#223 = ORIENTED_EDGE ( 'NONE', *, *, #384, .F. ) ;
#224 = ADVANCED_FACE ( 'NONE', ( #611 ), #9, .F. ) ;
#225 = CARTESIAN_POINT ( 'NONE',  ( -20.14999999999998792, 0.3000000000440833925, 23.08038475793012267 ) ) ;
#226 = ORIENTED_EDGE ( 'NONE', *, *, #266, .T. ) ;
#227 = PLANE ( 'NONE',  #134 ) ;
#228 = VECTOR ( 'NONE', #1058, 1000.000000000000000 ) ;
#229 = LINE ( 'NONE', #651, #916 ) ;
#230 = ORIENTED_EDGE ( 'NONE', *, *, #650, .F. ) ;
#231 =( NAMED_UNIT ( * ) SI_UNIT ( $, .STERADIAN. ) SOLID_ANGLE_UNIT ( ) );
#232 = EDGE_CURVE ( 'NONE', #537, #695, #1024, .T. ) ;
#233 = ORIENTED_EDGE ( 'NONE', *, *, #201, .F. ) ;
#234 = CARTESIAN_POINT ( 'NONE',  ( -35.91506684846628161, 3.300000000044072124, 8.200000000238418352 ) ) ;
#235 = PLANE ( 'NONE',  #215 ) ;
#236 =( BOUNDED_CURVE ( )  B_SPLINE_CURVE ( 3, ( #103, #1017, #849, #439 ),
 .UNSPECIFIED., .F., .T. ) 
 B_SPLINE_CURVE_WITH_KNOTS ( ( 4, 4 ),
 ( 4.188790204786391413, 5.442116636611651792 ),
 .UNSPECIFIED. ) 
 CURVE ( )  GEOMETRIC_REPRESENTATION_ITEM ( )  RATIONAL_B_SPLINE_CURVE ( ( 1.000000000000000000, 0.8733259034539423427, 0.8733259034539423427, 1.000000000000000000 ) ) 
 REPRESENTATION_ITEM ( '' )  );
#237 = CYLINDRICAL_SURFACE ( 'NONE', #113, 0.5999999999999998668 ) ;
#238 = EDGE_CURVE ( 'NONE', #967, #789, #771, .T. ) ;
#239 = DIRECTION ( 'NONE',  ( 0.000000000000000000, 0.000000000000000000, 1.000000000000000000 ) ) ;
#240 = ORIENTED_EDGE ( 'NONE', *, *, #822, .T. ) ;
#241 = LINE ( 'NONE', #889, #228 ) ;
#242 =( NAMED_UNIT ( * ) SI_UNIT ( $, .STERADIAN. ) SOLID_ANGLE_UNIT ( ) );
#243 = CARTESIAN_POINT ( 'NONE',  ( -20.94999999999999574, -3.000000000000003109, 25.00879313365606293 ) ) ;
#244 = VECTOR ( 'NONE', #157, 1000.000000000000000 ) ;
#245 = ORIENTED_EDGE ( 'NONE', *, *, #549, .T. ) ;
#246 = CARTESIAN_POINT ( 'NONE',  ( -20.85000000000001208, 0.6000000000386643828, 29.96076951566884716 ) ) ;
#247 = CIRCLE ( 'NONE', #182, 2.999999999999988898 ) ;
#248 = APPLICATION_PROTOCOL_DEFINITION ( 'draft international standard', 'automotive_design', 1998, #960 ) ;
#249 = AXIS2_PLACEMENT_3D ( 'NONE', #130, #886, #788 ) ;
#250 = CARTESIAN_POINT ( 'NONE',  ( -20.94999999999993179, -3.000000000000000000, -5.491312230653568654E-14 ) ) ;
#251 = ORIENTED_EDGE ( 'NONE', *, *, #832, .T. ) ;
#252 = EDGE_CURVE ( 'NONE', #961, #953, #1008, .T. ) ;
#253 = EDGE_CURVE ( 'NONE', #707, #117, #192, .T. ) ;
#254 = DIRECTION ( 'NONE',  ( 0.7071067811865493491, 2.403703357979479299E-15, 0.7071067811865455743 ) ) ;
#255 = EDGE_LOOP ( 'NONE', ( #1027, #513, #1014, #1067 ) ) ;
#256 = MANIFOLD_SOLID_BREP ( 'Chanfrein6', #915 ) ;
#257 = CARTESIAN_POINT ( 'NONE',  ( -21.15000000000000568, 1.119615242309327963, 29.66076951566884290 ) ) ;
#258 = FACE_OUTER_BOUND ( 'NONE', #205, .T. ) ;
#259 = ORIENTED_EDGE ( 'NONE', *, *, #701, .F. ) ;
#260 = VECTOR ( 'NONE', #163, 1000.000000000000000 ) ;
#261 = AXIS2_PLACEMENT_3D ( 'NONE', #305, #801, #147 ) ;
#262 = LINE ( 'NONE', #748, #587 ) ;
#263 = DIRECTION ( 'NONE',  ( -6.938893903866759967E-18, 1.000000000000000000, 1.224646799146225383E-16 ) ) ;
#264 = LINE ( 'NONE', #680, #308 ) ;
#265 = ADVANCED_FACE ( 'NONE', ( #732 ), #235, .F. ) ;
#266 = EDGE_CURVE ( 'NONE', #133, #117, #170, .T. ) ;
#267 = DIRECTION ( 'NONE',  ( -6.938893903866751493E-18, 1.000000000000000000, -1.509143076343729851E-33 ) ) ;
#268 = VERTEX_POINT ( 'NONE', #419 ) ;
#269 = AXIS2_PLACEMENT_3D ( 'NONE', #75, #79, #239 ) ;
#270 = CARTESIAN_POINT ( 'NONE',  ( -35.91506684846628161, 3.300000000044082338, 23.08038475793011912 ) ) ;
#271 = LINE ( 'NONE', #612, #69 ) ;
#272 = PLANE ( 'NONE',  #763 ) ;
#273 = DIRECTION ( 'NONE',  ( 4.348118525895384195E-33, 0.7071067811865513475, 0.7071067811865437980 ) ) ;
#274 = LINE ( 'NONE', #600, #507 ) ;
#275 = ADVANCED_FACE ( 'NONE', ( #827 ), #88, .T. ) ;
#276 = EDGE_LOOP ( 'NONE', ( #1018, #553, #752, #209 ) ) ;
#277 = CARTESIAN_POINT ( 'NONE',  ( -28.03253342423314720, 3.866178210909509971E-11, 16.10288568320374836 ) ) ;
#278 = DIRECTION ( 'NONE',  ( -6.938893903907210659E-18, 1.000000000000000000, -4.919262373421613195E-34 ) ) ;
#279 = CARTESIAN_POINT ( 'NONE',  ( -35.91506684846628161, -2.200000000000001510, 25.00879313365606293 ) ) ;
#280 = ORIENTED_EDGE ( 'NONE', *, *, #837, .F. ) ;
#281 = ORIENTED_EDGE ( 'NONE', *, *, #823, .T. ) ;
#282 = DIRECTION ( 'NONE',  ( -1.084202172485504434E-16, 0.000000000000000000, 1.000000000000000000 ) ) ;
#283 = LINE ( 'NONE', #376, #760 ) ;
#284 = AXIS2_PLACEMENT_3D ( 'NONE', #452, #838, #282 ) ;
#285 = CIRCLE ( 'NONE', #489, 2.999999999999999112 ) ;
#286 = AXIS2_PLACEMENT_3D ( 'NONE', #734, #1066, #728 ) ;
#287 = CARTESIAN_POINT ( 'NONE',  ( -34.91506684846628872, 1.119615242309327963, 29.66076951566884290 ) ) ;
#288 = ORIENTED_EDGE ( 'NONE', *, *, #755, .F. ) ;
#289 = CIRCLE ( 'NONE', #593, 0.5999999999999998668 ) ;
#290 = VERTEX_POINT ( 'NONE', #174 ) ;
#291 = ORIENTED_EDGE ( 'NONE', *, *, #327, .T. ) ;
#292 = DIRECTION ( 'NONE',  ( -1.000000000000000000, -6.938893903866778456E-18, -0.000000000000000000 ) ) ;
#293 = LINE ( 'NONE', #778, #341 ) ;
#294 = CARTESIAN_POINT ( 'NONE',  ( -35.91506684846628161, 3.866611891778504173E-11, 9.200000000238427234 ) ) ;
#295 = VERTEX_POINT ( 'NONE', #743 ) ;
#296 = VERTEX_POINT ( 'NONE', #345 ) ;
#297 = CARTESIAN_POINT ( 'NONE',  ( -20.14999999999995239, 3.300000000044073012, 9.200000000238421904 ) ) ;
#298 = VERTEX_POINT ( 'NONE', #193 ) ;
#299 = FACE_OUTER_BOUND ( 'NONE', #938, .T. ) ;
#300 = PLANE ( 'NONE',  #870 ) ;
#301 = AXIS2_PLACEMENT_3D ( 'NONE', #736, #909, #1073 ) ;
#302 = VECTOR ( 'NONE', #668, 1000.000000000000000 ) ;
#303 = EDGE_CURVE ( 'NONE', #354, #133, #861, .T. ) ;
#304 = LINE ( 'NONE', #317, #1007 ) ;
#305 = CARTESIAN_POINT ( 'NONE',  ( -35.11506684846627024, -2.199999999999994404, 24.20879313365606222 ) ) ;
#306 = EDGE_CURVE ( 'NONE', #1028, #836, #109, .T. ) ;
#307 = EDGE_CURVE ( 'NONE', #816, #627, #749, .T. ) ;
#308 = VECTOR ( 'NONE', #923, 1000.000000000000000 ) ;
#309 = LINE ( 'NONE', #63, #323 ) ;
#310 = ORIENTED_EDGE ( 'NONE', *, *, #559, .T. ) ;
#311 = VERTEX_POINT ( 'NONE', #211 ) ;
#312 = VECTOR ( 'NONE', #540, 1000.000000000000000 ) ;
#313 = PLANE ( 'NONE',  #548 ) ;
#314 = ORIENTED_EDGE ( 'NONE', *, *, #238, .T. ) ;
#315 = CARTESIAN_POINT ( 'NONE',  ( -20.15000000000000568, 0.02998304077491049241, 29.54806785028959126 ) ) ;
#316 = EDGE_CURVE ( 'NONE', #666, #392, #846, .T. ) ;
#317 = CARTESIAN_POINT ( 'NONE',  ( 3.841805311886808294, 4.300000000044083670, 23.08038475793012267 ) ) ;
#318 = DIRECTION ( 'NONE',  ( -6.938893903866759967E-18, 1.000000000000000000, 1.224646799146225383E-16 ) ) ;
#319 = ORIENTED_EDGE ( 'NONE', *, *, #327, .F. ) ;
#320 = UNCERTAINTY_MEASURE_WITH_UNIT (LENGTH_MEASURE( 1.000000000000000082E-05 ), #180, 'distance_accuracy_value', 'NONE');
#321 = CARTESIAN_POINT ( 'NONE',  ( -35.91506684846628161, 0.02998304077491006220, 29.54806785028958771 ) ) ;
#322 = CIRCLE ( 'NONE', #1054, 2.350000000000001421 ) ;
#323 = VECTOR ( 'NONE', #633, 1000.000000000000000 ) ;
#324 = VERTEX_POINT ( 'NONE', #458 ) ;
#325 = CARTESIAN_POINT ( 'NONE',  ( -35.11506684846627024, -3.000000000000003553, 26.00879313365605583 ) ) ;
#326 = VECTOR ( 'NONE', #924, 1000.000000000000114 ) ;
#327 = EDGE_CURVE ( 'NONE', #747, #311, #35, .T. ) ;
#328 = DIRECTION ( 'NONE',  ( 2.251327037390785740E-15, 0.4999999999999997780, -0.8660254037844387076 ) ) ;
#329 = ORIENTED_EDGE ( 'NONE', *, *, #844, .F. ) ;
#330 = DIRECTION ( 'NONE',  ( -0.7071067811865505703, 0.7071067811865444641, 5.511259909704789474E-16 ) ) ;
#331 = FILL_AREA_STYLE_COLOUR ( '', #576 ) ;
#332 = DIRECTION ( 'NONE',  ( 0.000000000000000000, 0.000000000000000000, -1.000000000000000000 ) ) ;
#333 = ORIENTED_EDGE ( 'NONE', *, *, #307, .T. ) ;
#334 = LINE ( 'NONE', #153, #828 ) ;
#335 = EDGE_CURVE ( 'NONE', #913, #324, #538, .T. ) ;
#336 = FACE_OUTER_BOUND ( 'NONE', #662, .T. ) ;
#337 = VECTOR ( 'NONE', #742, 1000.000000000000000 ) ;
#338 = EDGE_CURVE ( 'NONE', #989, #634, #322, .T. ) ;
#339 = ORIENTED_EDGE ( 'NONE', *, *, #638, .F. ) ;
#340 = CARTESIAN_POINT ( 'NONE',  ( -35.91506684846628161, -2.200000000000001954, 26.00879313365605583 ) ) ;
#341 = VECTOR ( 'NONE', #202, 1000.000000000000000 ) ;
#342 = CARTESIAN_POINT ( 'NONE',  ( -20.14999999999995239, 4.300000000044083670, 9.200000000238421904 ) ) ;
#343 = ORIENTED_EDGE ( 'NONE', *, *, #78, .T. ) ;
#344 = CARTESIAN_POINT ( 'NONE',  ( -20.14999999999995239, 3.300000000044073012, 9.200000000238421904 ) ) ;
#345 = CARTESIAN_POINT ( 'NONE',  ( -34.91506684846627451, 3.300000000044072568, 8.200000000238416575 ) ) ;
#346 = CARTESIAN_POINT ( 'NONE',  ( -35.91506684846628161, -3.434369364493781990E-15, 26.00879313365605583 ) ) ;
#347 = DIRECTION ( 'NONE',  ( 0.7071067811865451302, 4.906538932313535186E-18, -0.7071067811865499042 ) ) ;
#348 = VERTEX_POINT ( 'NONE', #28 ) ;
#349 = CARTESIAN_POINT ( 'NONE',  ( -20.15000000000001279, -2.199999999999993960, 26.80879313365606009 ) ) ;
#350 = LINE ( 'NONE', #672, #14 ) ;
#351 = EDGE_CURVE ( 'NONE', #967, #843, #283, .T. ) ;
#352 = FACE_OUTER_BOUND ( 'NONE', #441, .T. ) ;
#353 = LINE ( 'NONE', #918, #872 ) ;
#354 = VERTEX_POINT ( 'NONE', #934 ) ;
#355 = VECTOR ( 'NONE', #1062, 1000.000000000000000 ) ;
#356 = CARTESIAN_POINT ( 'NONE',  ( -35.91506684846628161, 3.866437220486967934E-11, 29.36076951566884219 ) ) ;
#357 =( BOUNDED_CURVE ( )  B_SPLINE_CURVE ( 3, ( #1075, #911, #1070, #417 ),
 .UNSPECIFIED., .F., .F. ) 
 B_SPLINE_CURVE_WITH_KNOTS ( ( 4, 4 ),
 ( 5.235987755982991487, 6.283185307179586232 ),
 .UNSPECIFIED. ) 
 CURVE ( )  GEOMETRIC_REPRESENTATION_ITEM ( )  RATIONAL_B_SPLINE_CURVE ( ( 1.000000000000000000, 0.9106836025229594345, 0.9106836025229594345, 1.000000000000000000 ) ) 
 REPRESENTATION_ITEM ( '' )  );
#358 = VECTOR ( 'NONE', #530, 1000.000000000000000 ) ;
#359 = CARTESIAN_POINT ( 'NONE',  ( -35.11506684846627024, -3.000000000000000444, -4.211025500018228738E-16 ) ) ;
#360 = DIRECTION ( 'NONE',  ( -1.529500441772202869E-18, 1.498530035053704006E-33, 1.000000000000000000 ) ) ;
#361 = CARTESIAN_POINT ( 'NONE',  ( -35.11506684846627024, -3.526789993302483611E-15, 26.80879313365606009 ) ) ;
#362 = EDGE_CURVE ( 'NONE', #127, #296, #1016, .T. ) ;
#363 = DIRECTION ( 'NONE',  ( -0.7071067811865493491, 8.168906669011116663E-17, -0.7071067811865456854 ) ) ;
#364 = VECTOR ( 'NONE', #273, 1000.000000000000000 ) ;
#365 = ORIENTED_EDGE ( 'NONE', *, *, #107, .F. ) ;
#366 = DIRECTION ( 'NONE',  ( 0.7071067811865510144, 0.7071067811865441310, 1.841033620153093052E-15 ) ) ;
#367 = CARTESIAN_POINT ( 'NONE',  ( -28.03253342423314720, 4.300000000044083670, 16.10288568320374836 ) ) ;
#368 = DIRECTION ( 'NONE',  ( -1.000000000000000000, -6.938893903907210659E-18, -1.529500441772202869E-18 ) ) ;
#369 = ORIENTED_EDGE ( 'NONE', *, *, #625, .F. ) ;
#370 = ORIENTED_EDGE ( 'NONE', *, *, #362, .T. ) ;
#371 = PRESENTATION_STYLE_ASSIGNMENT (( #27 ) ) ;
#372 = FACE_OUTER_BOUND ( 'NONE', #646, .T. ) ;
#373 = DIRECTION ( 'NONE',  ( 0.000000000000000000, 2.669847849745554669E-15, 1.000000000000000000 ) ) ;
#374 = ORIENTED_EDGE ( 'NONE', *, *, #917, .T. ) ;
#375 = ORIENTED_EDGE ( 'NONE', *, *, #71, .T. ) ;
#376 = CARTESIAN_POINT ( 'NONE',  ( -20.14999999999998792, 3.300000000044073012, 23.08038475793012623 ) ) ;
#377 = AXIS2_PLACEMENT_3D ( 'NONE', #905, #642, #893 ) ;
#378 = DIRECTION ( 'NONE',  ( 0.000000000000000000, 1.000000000000000000, 1.224646799147444173E-16 ) ) ;
#379 = CARTESIAN_POINT ( 'NONE',  ( -20.94999999999999574, -3.000000000000003553, 26.00879313365605583 ) ) ;
#380 = ORIENTED_EDGE ( 'NONE', *, *, #110, .F. ) ;
#381 = AXIS2_PLACEMENT_3D ( 'NONE', #566, #1060, #987 ) ;
#382 = ORIENTED_EDGE ( 'NONE', *, *, #390, .F. ) ;
#383 = ORIENTED_EDGE ( 'NONE', *, *, #524, .T. ) ;
#384 = EDGE_CURVE ( 'NONE', #428, #451, #754, .T. ) ;
#385 =( NAMED_UNIT ( * ) SI_UNIT ( $, .STERADIAN. ) SOLID_ANGLE_UNIT ( ) );
#386 = ORIENTED_EDGE ( 'NONE', *, *, #238, .F. ) ;
#387 = ORIENTED_EDGE ( 'NONE', *, *, #719, .F. ) ;
#388 = ORIENTED_EDGE ( 'NONE', *, *, #756, .F. ) ;
#389 = EDGE_CURVE ( 'NONE', #298, #747, #271, .T. ) ;
#390 = EDGE_CURVE ( 'NONE', #311, #127, #350, .T. ) ;
#391 = DIRECTION ( 'NONE',  ( 1.000000000000000000, 6.938893902389430722E-18, 2.603614714405328307E-15 ) ) ;
#392 = VERTEX_POINT ( 'NONE', #10 ) ;
#393 = CYLINDRICAL_SURFACE ( 'NONE', #55, 2.350000000000001421 ) ;
#394 = AXIS2_PLACEMENT_3D ( 'NONE', #4, #678, #1078 ) ;
#395 = EDGE_CURVE ( 'NONE', #203, #348, #597, .T. ) ;
#396 = CIRCLE ( 'NONE', #498, 2.350000000000001421 ) ;
#397 = EDGE_LOOP ( 'NONE', ( #864, #1071, #793, #47 ) ) ;
#398 =( LENGTH_UNIT ( ) NAMED_UNIT ( * ) SI_UNIT ( .MILLI., .METRE. ) );
#399 = DIRECTION ( 'NONE',  ( 4.807406715958953668E-16, 0.7071067811865506814, 0.7071067811865443531 ) ) ;
#400 = ORIENTED_EDGE ( 'NONE', *, *, #1034, .T. ) ;
#401 = CARTESIAN_POINT ( 'NONE',  ( -35.91506684846628161, -2.199999999999994404, 24.20879313365606222 ) ) ;
#402 = CARTESIAN_POINT ( 'NONE',  ( -21.14999999999994884, 4.300000000044083670, 8.200000000238414799 ) ) ;
#403 = ORIENTED_EDGE ( 'NONE', *, *, #837, .T. ) ;
#404 = FACE_OUTER_BOUND ( 'NONE', #636, .T. ) ;
#405 = VECTOR ( 'NONE', #804, 1000.000000000000000 ) ;
#406 = FACE_OUTER_BOUND ( 'NONE', #583, .T. ) ;
#407 = FACE_OUTER_BOUND ( 'NONE', #210, .T. ) ;
#408 = CARTESIAN_POINT ( 'NONE',  ( 2.081668171160028067E-17, -3.000000000000000000, -3.673940397442332518E-16 ) ) ;
#409 = VERTEX_POINT ( 'NONE', #679 ) ;
#410 = DIRECTION ( 'NONE',  ( 0.7071067811865499042, -8.168906669011106803E-17, 0.7071067811865451302 ) ) ;
#411 = VECTOR ( 'NONE', #139, 1000.000000000000000 ) ;
#412 = FACE_OUTER_BOUND ( 'NONE', #610, .T. ) ;
#413 = ORIENTED_EDGE ( 'NONE', *, *, #719, .T. ) ;
#414 = CARTESIAN_POINT ( 'NONE',  ( -20.94999999999999574, -3.000000000000003553, 26.00879313365605583 ) ) ;
#415 = ADVANCED_FACE ( 'NONE', ( #1000, #372 ), #942, .F. ) ;
#416 = ADVANCED_FACE ( 'NONE', ( #19 ), #592, .T. ) ;
#417 = CARTESIAN_POINT ( 'NONE',  ( -21.15000000000000568, 1.119615242309327963, 29.66076951566884290 ) ) ;
#418 = ORIENTED_EDGE ( 'NONE', *, *, #495, .F. ) ;
#419 = CARTESIAN_POINT ( 'NONE',  ( -35.91506684846628161, 3.300000000044072124, 23.08038475793011912 ) ) ;
#420 =( LENGTH_UNIT ( ) NAMED_UNIT ( * ) SI_UNIT ( .MILLI., .METRE. ) );
#421 = CARTESIAN_POINT ( 'NONE',  ( -20.14999999999999147, 3.306381049690068519, 23.87318003303102287 ) ) ;
#422 = VECTOR ( 'NONE', #330, 1000.000000000000000 ) ;
#423 = ORIENTED_EDGE ( 'NONE', *, *, #810, .T. ) ;
#424 = CARTESIAN_POINT ( 'NONE',  ( -20.14999999999999858, -2.199999999999992628, 26.00879313365605583 ) ) ;
#425 =( NAMED_UNIT ( * ) PLANE_ANGLE_UNIT ( ) SI_UNIT ( $, .RADIAN. ) );
#426 = VECTOR ( 'NONE', #551, 1000.000000000000000 ) ;
#427 = LINE ( 'NONE', #243, #216 ) ;
#428 = VERTEX_POINT ( 'NONE', #356 ) ;
#429 = EDGE_CURVE ( 'NONE', #16, #831, #509, .T. ) ;
#430 = FACE_OUTER_BOUND ( 'NONE', #508, .T. ) ;
#431 = DIRECTION ( 'NONE',  ( -0.7071067811865441310, 0.7071067811865507924, -2.453269466693384421E-15 ) ) ;
#432 = CARTESIAN_POINT ( 'NONE',  ( -21.14999999999998792, 4.300000000044083670, 23.08038475793011912 ) ) ;
#433 = ORIENTED_EDGE ( 'NONE', *, *, #981, .T. ) ;
#434 = ADVANCED_FACE ( 'NONE', ( #773 ), #300, .T. ) ;
#435 = FACE_OUTER_BOUND ( 'NONE', #573, .T. ) ;
#436 = CARTESIAN_POINT ( 'NONE',  ( -35.91506684846628161, -3.532341108425577129E-15, 26.80879313365606009 ) ) ;
#437 = ADVANCED_BREP_SHAPE_REPRESENTATION ( 'Adapter Front 1515 3mm Slots Extrusions', ( #256, #943 ), #681 ) ;
#438 = CARTESIAN_POINT ( 'NONE',  ( -20.14999999999998792, 3.300000000044073012, 23.08038475793012267 ) ) ;
#439 = CARTESIAN_POINT ( 'NONE',  ( -35.91506684846628161, 0.02998304077491006220, 29.54806785028958771 ) ) ;
#440 = DIRECTION ( 'NONE',  ( 0.7071067811865500152, 0.000000000000000000, -0.7071067811865450192 ) ) ;
#441 = EDGE_LOOP ( 'NONE', ( #1037, #775, #68, #1048 ) ) ;
#442 = VECTOR ( 'NONE', #671, 1000.000000000000000 ) ;
#443 = DIRECTION ( 'NONE',  ( 1.529500441772202869E-18, -1.498530035053704006E-33, -1.000000000000000000 ) ) ;
#444 = FILL_AREA_STYLE ('',( #845 ) ) ;
#445 = CARTESIAN_POINT ( 'NONE',  ( 3.841805311886811847, 3.866723952045301005E-11, 8.200000000238420128 ) ) ;
#446 = VECTOR ( 'NONE', #13, 1000.000000000000000 ) ;
#447 = LINE ( 'NONE', #1025, #448 ) ;
#448 = VECTOR ( 'NONE', #23, 1000.000000000000000 ) ;
#449 = LINE ( 'NONE', #768, #179 ) ;
#450 = VERTEX_POINT ( 'NONE', #579 ) ;
#451 = VERTEX_POINT ( 'NONE', #729 ) ;
#452 = CARTESIAN_POINT ( 'NONE',  ( 3.841805311886808738, 0.3000000000440835590, 23.08038475793012267 ) ) ;
#453 = EDGE_CURVE ( 'NONE', #1028, #707, #30, .T. ) ;
#454 = ADVANCED_FACE ( 'NONE', ( #857 ), #684, .T. ) ;
#455 = DIRECTION ( 'NONE',  ( -0.7071067811865481278, 0.000000000000000000, -0.7071067811865469066 ) ) ;
#456 = CARTESIAN_POINT ( 'NONE',  ( -35.91506684846628161, 0.3000000000440832815, 23.08038475793011912 ) ) ;
#457 = ORIENTED_EDGE ( 'NONE', *, *, #22, .F. ) ;
#458 = CARTESIAN_POINT ( 'NONE',  ( -35.91506684846628161, -2.200000000000001954, 26.00879313365605583 ) ) ;
#459 = PLANE ( 'NONE',  #1059 ) ;
#460 = ORIENTED_EDGE ( 'NONE', *, *, #917, .F. ) ;
#461 = CIRCLE ( 'NONE', #885, 2.350000000000001421 ) ;
#462 = EDGE_LOOP ( 'NONE', ( #460, #623, #590, #152, #470, #1026 ) ) ;
#463 = VECTOR ( 'NONE', #360, 1000.000000000000000 ) ;
#464 = CARTESIAN_POINT ( 'NONE',  ( -25.68253342423314578, 4.300000000044083670, 16.10288568320374836 ) ) ;
#465 = ORIENTED_EDGE ( 'NONE', *, *, #143, .F. ) ;
#466 = AXIS2_PLACEMENT_3D ( 'NONE', #112, #841, #534 ) ;
#467 = VERTEX_POINT ( 'NONE', #188 ) ;
#468 = EDGE_CURVE ( 'NONE', #296, #819, #114, .T. ) ;
#469 = DIRECTION ( 'NONE',  ( 0.000000000000000000, 0.000000000000000000, -1.000000000000000000 ) ) ;
#470 = ORIENTED_EDGE ( 'NONE', *, *, #307, .F. ) ;
#471 = CARTESIAN_POINT ( 'NONE',  ( -34.91506684846628872, 3.764101615181837612, 25.08038475793011912 ) ) ;
#472 = ADVANCED_FACE ( 'NONE', ( #541 ), #867, .T. ) ;
#473 = FACE_OUTER_BOUND ( 'NONE', #708, .T. ) ;
#474 = EDGE_CURVE ( 'NONE', #816, #354, #274, .T. ) ;
#475 = DIRECTION ( 'NONE',  ( 0.000000000000000000, -1.224646799146225383E-16, 1.000000000000000000 ) ) ;
#476 = ORIENTED_EDGE ( 'NONE', *, *, #110, .T. ) ;
#477 = STYLED_ITEM ( 'NONE', ( #371 ), #256 ) ;
#478 =( NAMED_UNIT ( * ) PLANE_ANGLE_UNIT ( ) SI_UNIT ( $, .RADIAN. ) );
#479 = ORIENTED_EDGE ( 'NONE', *, *, #78, .F. ) ;
#480 = FACE_OUTER_BOUND ( 'NONE', #694, .T. ) ;
#481 = CARTESIAN_POINT ( 'NONE',  ( -20.14999999999994884, 3.866707304386138533E-11, 8.200000000238356179 ) ) ;
#482 = ORIENTED_EDGE ( 'NONE', *, *, #191, .F. ) ;
#483 = LINE ( 'NONE', #731, #737 ) ;
#484 = PLANE ( 'NONE',  #510 ) ;
#485 = ORIENTED_EDGE ( 'NONE', *, *, #558, .T. ) ;
#486 = UNCERTAINTY_MEASURE_WITH_UNIT (LENGTH_MEASURE( 1.000000000000000082E-05 ), #398, 'distance_accuracy_value', 'NONE');
#487 = CARTESIAN_POINT ( 'NONE',  ( -34.91506684846628872, 1.119615242309327963, 29.66076951566884290 ) ) ;
#488 = VECTOR ( 'NONE', #973, 1000.000000000000114 ) ;
#489 = AXIS2_PLACEMENT_3D ( 'NONE', #456, #31, #761 ) ;
#490 = CONICAL_SURFACE ( 'NONE', #937, 4.000000000000000000, 0.7853981633974552734 ) ;
#491 = DIRECTION ( 'NONE',  ( -1.000000000000000000, -6.938893903866756886E-18, -7.089404221401387746E-17 ) ) ;
#492 = CARTESIAN_POINT ( 'NONE',  ( -30.38253342423314862, 3.866176580269442812E-11, 16.10288568320374836 ) ) ;
#493 = ORIENTED_EDGE ( 'NONE', *, *, #44, .F. ) ;
#494 = VECTOR ( 'NONE', #95, 1000.000000000000114 ) ;
#495 = EDGE_CURVE ( 'NONE', #409, #428, #449, .T. ) ;
#496 = ADVANCED_FACE ( 'NONE', ( #969 ), #151, .T. ) ;
#497 = CARTESIAN_POINT ( 'NONE',  ( -35.02487446960162032, 0.8196152423093269190, 29.96076951566884361 ) ) ;
#498 = AXIS2_PLACEMENT_3D ( 'NONE', #745, #669, #84 ) ;
#499 = CARTESIAN_POINT ( 'NONE',  ( -35.91506684846628161, 3.866490516826429809E-11, 25.00879313365606293 ) ) ;
#500 = EDGE_LOOP ( 'NONE', ( #926, #608, #1051, #869 ) ) ;
#501 = LINE ( 'NONE', #87, #422 ) ;
#502 = PLANE ( 'NONE',  #920 ) ;
#503 = ORIENTED_EDGE ( 'NONE', *, *, #253, .F. ) ;
#504 = LINE ( 'NONE', #234, #355 ) ;
#505 = VECTOR ( 'NONE', #83, 1000.000000000000114 ) ;
#506 = CARTESIAN_POINT ( 'NONE',  ( -35.91506684846628161, 2.898076211397397906, 24.58038475793011912 ) ) ;
#507 = VECTOR ( 'NONE', #930, 999.9999999999998863 ) ;
#508 = EDGE_LOOP ( 'NONE', ( #865, #251, #230, #183 ) ) ;
#509 = LINE ( 'NONE', #555, #1057 ) ;
#510 = AXIS2_PLACEMENT_3D ( 'NONE', #421, #738, #328 ) ;
#511 = PLANE ( 'NONE',  #466 ) ;
#512 = EDGE_CURVE ( 'NONE', #290, #450, #52, .T. ) ;
#513 = ORIENTED_EDGE ( 'NONE', *, *, #155, .F. ) ;
#514 = PLANE ( 'NONE',  #829 ) ;
#515 = CARTESIAN_POINT ( 'NONE',  ( -20.14999999999999503, -3.000000000000003553, 26.00879313365605583 ) ) ;
#516 = LINE ( 'NONE', #101, #446 ) ;
#517 = LINE ( 'NONE', #689, #364 ) ;
#518 = DIRECTION ( 'NONE',  ( 1.000000000000000000, 6.938893903866751493E-18, 7.089404221401387746E-17 ) ) ;
#519 = ORIENTED_EDGE ( 'NONE', *, *, #823, .F. ) ;
#520 = DIRECTION ( 'NONE',  ( 1.529500441772202098E-18, 1.224646799147443680E-16, -1.000000000000000000 ) ) ;
#521 = CARTESIAN_POINT ( 'NONE',  ( -34.91506684846627451, 4.300000000044083670, 23.08038475793012267 ) ) ;
#522 = LINE ( 'NONE', #683, #714 ) ;
#523 = ORIENTED_EDGE ( 'NONE', *, *, #111, .F. ) ;
#524 = EDGE_CURVE ( 'NONE', #136, #290, #309, .T. ) ;
#525 = ORIENTED_EDGE ( 'NONE', *, *, #316, .F. ) ;
#526 = CARTESIAN_POINT ( 'NONE',  ( 2.081668171160030224E-17, -3.000000000000003109, 26.00879313365605583 ) ) ;
#527 = DIRECTION ( 'NONE',  ( 1.529500441772202098E-18, 1.224646799146225383E-16, -1.000000000000000000 ) ) ;
#528 = EDGE_CURVE ( 'NONE', #946, #789, #1055, .T. ) ;
#529 = CYLINDRICAL_SURFACE ( 'NONE', #149, 2.350000000000001421 ) ;
#530 = DIRECTION ( 'NONE',  ( 1.000000000000000000, 6.938893903866778456E-18, 0.000000000000000000 ) ) ;
#531 = VERTEX_POINT ( 'NONE', #1047 ) ;
#532 = ORIENTED_EDGE ( 'NONE', *, *, #316, .T. ) ;
#533 = DIRECTION ( 'NONE',  ( -1.000000000000000000, -6.938893903172476089E-18, 0.000000000000000000 ) ) ;
#534 = DIRECTION ( 'NONE',  ( -0.7071067811865436870, 0.000000000000000000, 0.7071067811865513475 ) ) ;
#535 = LINE ( 'NONE', #175, #629 ) ;
#536 = ORIENTED_EDGE ( 'NONE', *, *, #891, .F. ) ;
#537 = VERTEX_POINT ( 'NONE', #221 ) ;
#538 = LINE ( 'NONE', #185, #758 ) ;
#539 = PRODUCT_DEFINITION_SHAPE ( 'NONE', 'NONE',  #36 ) ;
#540 = DIRECTION ( 'NONE',  ( 1.529500441772202098E-18, 1.224646799147443680E-16, -1.000000000000000000 ) ) ;
#541 = FACE_OUTER_BOUND ( 'NONE', #785, .T. ) ;
#542 = ADVANCED_FACE ( 'NONE', ( #406 ), #62, .T. ) ;
#543 = ORIENTED_EDGE ( 'NONE', *, *, #637, .F. ) ;
#544 = ORIENTED_EDGE ( 'NONE', *, *, #1003, .T. ) ;
#545 = DIRECTION ( 'NONE',  ( -7.089404221401387746E-17, 0.000000000000000000, 1.000000000000000000 ) ) ;
#546 = CARTESIAN_POINT ( 'NONE',  ( -20.15000000000000568, 0.6000000000386643828, 29.36076951566884574 ) ) ;
#547 = ORIENTED_EDGE ( 'NONE', *, *, #252, .T. ) ;
#548 = AXIS2_PLACEMENT_3D ( 'NONE', #968, #145, #966 ) ;
#549 = EDGE_CURVE ( 'NONE', #85, #624, #229, .T. ) ;
#550 = DIRECTION ( 'NONE',  ( -6.938893903866751493E-18, 1.000000000000000000, -1.509143076343729851E-33 ) ) ;
#551 = DIRECTION ( 'NONE',  ( -1.000000000000000000, -6.938893903866756886E-18, -7.089404221401387746E-17 ) ) ;
#552 = CARTESIAN_POINT ( 'NONE',  ( 3.841805311886809182, 4.300000000044083670, 9.200000000238420128 ) ) ;
#553 = ORIENTED_EDGE ( 'NONE', *, *, #656, .F. ) ;
#554 = DIRECTION ( 'NONE',  ( -1.000000000000000000, -6.938893903866751493E-18, -7.089404221401387746E-17 ) ) ;
#555 = CARTESIAN_POINT ( 'NONE',  ( -20.95000000000000284, -3.000000000000003109, 24.20879313365606222 ) ) ;
#556 = EDGE_LOOP ( 'NONE', ( #245, #375, #523 ) ) ;
#557 = COLOUR_RGB ( '',0.7921568627450980005, 0.8196078431372548767, 0.9333333333333333481 ) ;
#558 = EDGE_CURVE ( 'NONE', #831, #836, #57, .T. ) ;
#559 = EDGE_CURVE ( 'NONE', #789, #203, #158, .T. ) ;
#560 = DIRECTION ( 'NONE',  ( -4.522311906189669144E-17, -0.7071067811865439090, 0.7071067811865512365 ) ) ;
#561 = ORIENTED_EDGE ( 'NONE', *, *, #102, .T. ) ;
#562 = CARTESIAN_POINT ( 'NONE',  ( -35.41506684846628161, 3.800000000044077453, 9.200000000238421904 ) ) ;
#563 = VERTEX_POINT ( 'NONE', #887 ) ;
#564 = CARTESIAN_POINT ( 'NONE',  ( -35.91506684846628161, -2.492108384132426333E-16, -5.493211061100735962E-17 ) ) ;
#565 = CARTESIAN_POINT ( 'NONE',  ( 3.841805311886810514, 0.6000000000386644938, 29.36076951566884574 ) ) ;
#566 = CARTESIAN_POINT ( 'NONE',  ( -20.95000000000000639, -3.000000000000003553, 26.80879313365606009 ) ) ;
#567 = ADVANCED_FACE ( 'NONE', ( #975 ), #237, .T. ) ;
#568 = ORIENTED_EDGE ( 'NONE', *, *, #252, .F. ) ;
#569 = LINE ( 'NONE', #65, #178 ) ;
#570 = AXIS2_PLACEMENT_3D ( 'NONE', #277, #941, #533 ) ;
#571 = AXIS2_PLACEMENT_3D ( 'NONE', #922, #839, #443 ) ;
#572 = FACE_BOUND ( 'NONE', #218, .T. ) ;
#573 = EDGE_LOOP ( 'NONE', ( #314, #189, #940, #888 ) ) ;
#574 = ADVANCED_FACE ( 'NONE', ( #881 ), #716, .F. ) ;
#575 = FACE_OUTER_BOUND ( 'NONE', #797, .T. ) ;
#576 = COLOUR_RGB ( '',0.7921568627450980005, 0.8196078431372548767, 0.9333333333333333481 ) ;
#577 = PRESENTATION_STYLE_ASSIGNMENT (( #813 ) ) ;
#578 = DIRECTION ( 'NONE',  ( -2.603614714405328307E-15, -1.224646799147443926E-16, 1.000000000000000000 ) ) ;
#579 = CARTESIAN_POINT ( 'NONE',  ( -20.14999999999995239, 3.866695057918147117E-11, 9.200000000238421904 ) ) ;
#580 = ORIENTED_EDGE ( 'NONE', *, *, #395, .T. ) ;
#581 = LINE ( 'NONE', #985, #260 ) ;
#582 = DIRECTION ( 'NONE',  ( -6.938893902389430722E-18, 1.000000000000000000, -4.919262372345602597E-34 ) ) ;
#583 = EDGE_LOOP ( 'NONE', ( #137, #884, #805 ) ) ;
#584 = LINE ( 'NONE', #591, #129 ) ;
#585 = FACE_OUTER_BOUND ( 'NONE', #81, .T. ) ;
#586 = EDGE_CURVE ( 'NONE', #451, #627, #1050, .T. ) ;
#587 = VECTOR ( 'NONE', #108, 999.9999999999998863 ) ;
#588 = CARTESIAN_POINT ( 'NONE',  ( -20.94999999999999574, -3.000000000000003109, 25.00879313365606293 ) ) ;
#589 = VECTOR ( 'NONE', #644, 1000.000000000000000 ) ;
#590 = ORIENTED_EDGE ( 'NONE', *, *, #384, .T. ) ;
#591 = CARTESIAN_POINT ( 'NONE',  ( -20.95000000000000639, 3.866478857285158058E-11, 26.80879313365606009 ) ) ;
#592 = PLANE ( 'NONE',  #571 ) ;
#593 = AXIS2_PLACEMENT_3D ( 'NONE', #546, #391, #469 ) ;
#594 = FACE_OUTER_BOUND ( 'NONE', #699, .T. ) ;
#595 = ORIENTED_EDGE ( 'NONE', *, *, #650, .T. ) ;
#596 = CARTESIAN_POINT ( 'NONE',  ( -20.14999999999994884, 3.300000000044073012, 8.000000000201707095 ) ) ;
#597 = LINE ( 'NONE', #521, #463 ) ;
#598 = CARTESIAN_POINT ( 'NONE',  ( -20.95000000000000284, -2.199999999999994404, 24.20879313365606222 ) ) ;
#599 = EDGE_CURVE ( 'NONE', #843, #946, #186, .T. ) ;
#600 = CARTESIAN_POINT ( 'NONE',  ( 0.7502992226523677033, 3.866759666912391920E-11, 5.108493911003939125 ) ) ;
#601 = ORIENTED_EDGE ( 'NONE', *, *, #335, .T. ) ;
#602 = ADVANCED_FACE ( 'NONE', ( #757 ), #272, .T. ) ;
#603 = ADVANCED_FACE ( 'NONE', ( #352 ), #847, .T. ) ;
#604 = ORIENTED_EDGE ( 'NONE', *, *, #44, .T. ) ;
#605 = LINE ( 'NONE', #349, #442 ) ;
#606 = DIRECTION ( 'NONE',  ( -6.938893903866751493E-18, 1.000000000000000000, -1.509143076343729851E-33 ) ) ;
#607 = CARTESIAN_POINT ( 'NONE',  ( -30.38253342423314862, 4.300000000044083670, 16.10288568320374836 ) ) ;
#608 = ORIENTED_EDGE ( 'NONE', *, *, #198, .F. ) ;
#609 = AXIS2_PLACEMENT_3D ( 'NONE', #564, #812, #978 ) ;
#610 = EDGE_LOOP ( 'NONE', ( #1031, #34, #310, #580 ) ) ;
#611 = FACE_OUTER_BOUND ( 'NONE', #882, .T. ) ;
#612 = CARTESIAN_POINT ( 'NONE',  ( -7.632234201580731181, 3.866856506788651843E-11, -3.274039513229227705 ) ) ;
#613 =( BOUNDED_CURVE ( )  B_SPLINE_CURVE ( 3, ( #487, #72, #497, #77 ),
 .UNSPECIFIED., .F., .T. ) 
 B_SPLINE_CURVE_WITH_KNOTS ( ( 4, 4 ),
 ( 3.141592653589795781, 4.188790204786391413 ),
 .UNSPECIFIED. ) 
 CURVE ( )  GEOMETRIC_REPRESENTATION_ITEM ( )  RATIONAL_B_SPLINE_CURVE ( ( 1.000000000000000000, 0.9106836025229594345, 0.9106836025229594345, 1.000000000000000000 ) ) 
 REPRESENTATION_ITEM ( '' )  );
#614 = AXIS2_PLACEMENT_3D ( 'NONE', #588, #154, #455 ) ;
#615 = PRODUCT_RELATED_PRODUCT_CATEGORY ( 'part', '', ( #787 ) ) ;
#616 = CARTESIAN_POINT ( 'NONE',  ( -21.14999999999996305, 3.300000000044072568, 8.200000000238418352 ) ) ;
#617 = EDGE_LOOP ( 'NONE', ( #433, #677, #730, #53 ) ) ;
#618 = ORIENTED_EDGE ( 'NONE', *, *, #878, .T. ) ;
#619 = FACE_OUTER_BOUND ( 'NONE', #892, .T. ) ;
#620 = EDGE_CURVE ( 'NONE', #819, #789, #264, .T. ) ;
#621 = CARTESIAN_POINT ( 'NONE',  ( -35.11506684846627024, -3.000000000000000444, -4.211025500018228738E-16 ) ) ;
#622 = ORIENTED_EDGE ( 'NONE', *, *, #656, .T. ) ;
#623 = ORIENTED_EDGE ( 'NONE', *, *, #495, .T. ) ;
#624 = VERTEX_POINT ( 'NONE', #840 ) ;
#625 = EDGE_CURVE ( 'NONE', #537, #989, #516, .T. ) ;
#626 = LINE ( 'NONE', #1040, #426 ) ;
#627 = VERTEX_POINT ( 'NONE', #361 ) ;
#628 = VECTOR ( 'NONE', #527, 1000.000000000000000 ) ;
#629 = VECTOR ( 'NONE', #992, 1000.000000000000000 ) ;
#630 = CARTESIAN_POINT ( 'NONE',  ( -28.03253342423314720, 3.866178210909509971E-11, 16.10288568320374836 ) ) ;
#631 = DIRECTION ( 'NONE',  ( 1.000000000000000000, 6.938893903866751493E-18, 7.089404221401388979E-17 ) ) ;
#632 = STYLED_ITEM ( 'NONE', ( #577 ), #437 ) ;
#633 = DIRECTION ( 'NONE',  ( -6.938893902389749656E-18, 1.000000000000000000, 1.224646799147444173E-16 ) ) ;
#634 = VERTEX_POINT ( 'NONE', #607 ) ;
#635 = DIRECTION ( 'NONE',  ( 5.892791769085470919E-15, -0.7071067811865505703, 0.7071067811865444641 ) ) ;
#636 = EDGE_LOOP ( 'NONE', ( #686, #859, #33, #476, #122, #319, #64, #601, #622, #223 ) ) ;
#637 = EDGE_CURVE ( 'NONE', #1028, #913, #1005, .T. ) ;
#638 = EDGE_CURVE ( 'NONE', #531, #268, #285, .T. ) ;
#639 = DIRECTION ( 'NONE',  ( 1.000000000000000000, 6.938893903866778456E-18, 0.000000000000000000 ) ) ;
#640 = ORIENTED_EDGE ( 'NONE', *, *, #22, .T. ) ;
#641 = VECTOR ( 'NONE', #207, 1000.000000000000114 ) ;
#642 = DIRECTION ( 'NONE',  ( 8.497694208994163917E-34, -1.224646799147444173E-16, 1.000000000000000000 ) ) ;
#643 = AXIS2_PLACEMENT_3D ( 'NONE', #379, #842, #440 ) ;
#644 = DIRECTION ( 'NONE',  ( 2.603614714405328307E-15, 1.655706319345982605E-32, -1.000000000000000000 ) ) ;
#645 = AXIS2_PLACEMENT_3D ( 'NONE', #751, #697, #373 ) ;
#646 = EDGE_LOOP ( 'NONE', ( #42, #735, #1077, #403, #141, #76, #291, #970 ) ) ;
#647 = PRODUCT_DEFINITION_CONTEXT ( 'detailed design', #746, 'design' ) ;
#648 = LINE ( 'NONE', #663, #848 ) ;
#649 = EDGE_CURVE ( 'NONE', #563, #311, #693, .T. ) ;
#650 = EDGE_CURVE ( 'NONE', #392, #8, #535, .T. ) ;
#651 = CARTESIAN_POINT ( 'NONE',  ( -35.11506684846627024, -2.599999999999999645, 26.40879313365605796 ) ) ;
#652 = PLANE ( 'NONE',  #614 ) ;
#653 = ORIENTED_EDGE ( 'NONE', *, *, #20, .F. ) ;
#654 = DIRECTION ( 'NONE',  ( -0.7071067811865499042, -8.246962257846919324E-16, -0.7071067811865451302 ) ) ;
#655 = DIRECTION ( 'NONE',  ( 1.000000000000000000, 0.000000000000000000, 0.000000000000000000 ) ) ;
#656 = EDGE_CURVE ( 'NONE', #324, #451, #744, .T. ) ;
#657 = PLANE ( 'NONE',  #381 ) ;
#658 = VERTEX_POINT ( 'NONE', #996 ) ;
#659 = PLANE ( 'NONE',  #377 ) ;
#660 = CARTESIAN_POINT ( 'NONE',  ( 3.841805311886808294, 3.866437384694300720E-11, 31.60000000021017641 ) ) ;
#661 = FACE_OUTER_BOUND ( 'NONE', #49, .T. ) ;
#662 = EDGE_LOOP ( 'NONE', ( #226, #503, #288, #213 ) ) ;
#663 = CARTESIAN_POINT ( 'NONE',  ( -20.14999999999995239, 3.866698627952303013E-11, 9.200000000238423681 ) ) ;
#664 = DIRECTION ( 'NONE',  ( -0.7071067811865512365, -4.906538933386810492E-18, -0.7071067811865439090 ) ) ;
#665 = CARTESIAN_POINT ( 'NONE',  ( -20.14999999999995239, -24.18677324485814140, 9.200000000238421904 ) ) ;
#666 = VERTEX_POINT ( 'NONE', #257 ) ;
#667 = DIRECTION ( 'NONE',  ( -2.603614714405328307E-15, -1.224646799147443926E-16, 1.000000000000000000 ) ) ;
#668 = DIRECTION ( 'NONE',  ( -6.938893903907210659E-18, 1.000000000000000000, 1.224646799147444173E-16 ) ) ;
#669 = DIRECTION ( 'NONE',  ( -6.938893903866751493E-18, 1.000000000000000000, -1.509143076343730022E-33 ) ) ;
#670 = ORIENTED_EDGE ( 'NONE', *, *, #468, .T. ) ;
#671 = DIRECTION ( 'NONE',  ( 1.000000000000000000, 6.938893903866778456E-18, 0.000000000000000000 ) ) ;
#672 = CARTESIAN_POINT ( 'NONE',  ( -34.91506684846627451, 3.866698627952303013E-11, 8.200000000238416575 ) ) ;
#673 = DIRECTION ( 'NONE',  ( -0.7071067811865442421, 8.168906669016939443E-17, -0.7071067811865507924 ) ) ;
#674 = VECTOR ( 'NONE', #833, 999.9999999999998863 ) ;
#675 = LINE ( 'NONE', #1004, #786 ) ;
#676 = VECTOR ( 'NONE', #278, 1000.000000000000000 ) ;
#677 = ORIENTED_EDGE ( 'NONE', *, *, #453, .T. ) ;
#678 = DIRECTION ( 'NONE',  ( -0.5773502691896205130, -0.5773502691896257311, 0.5773502691896311712 ) ) ;
#679 = CARTESIAN_POINT ( 'NONE',  ( -20.15000000000000568, 3.866448159699592656E-11, 29.36076951566884219 ) ) ;
#680 = CARTESIAN_POINT ( 'NONE',  ( -21.14999999999995950, 3.800000000044080117, 8.700000000238420128 ) ) ;
#681 =( GEOMETRIC_REPRESENTATION_CONTEXT ( 3 ) GLOBAL_UNCERTAINTY_ASSIGNED_CONTEXT ( ( #486 ) ) GLOBAL_UNIT_ASSIGNED_CONTEXT ( ( #398, #478, #385 ) ) REPRESENTATION_CONTEXT ( 'NONE', 'WORKASPACE' ) );
#682 = ADVANCED_FACE ( 'NONE', ( #585 ), #490, .T. ) ;
#683 = CARTESIAN_POINT ( 'NONE',  ( -35.91506684846628161, 2.898076211397398350, 24.58038475793011912 ) ) ;
#684 = PLANE ( 'NONE',  #709 ) ;
#685 = DIRECTION ( 'NONE',  ( 6.938893903907210659E-18, -1.000000000000000000, 4.919262373421613195E-34 ) ) ;
#686 = ORIENTED_EDGE ( 'NONE', *, *, #844, .T. ) ;
#687 = FACE_OUTER_BOUND ( 'NONE', #556, .T. ) ;
#688 = DIRECTION ( 'NONE',  ( -0.7071067811865507924, -9.150214455682738874E-17, 0.7071067811865442421 ) ) ;
#689 = CARTESIAN_POINT ( 'NONE',  ( -34.91506684846627451, 3.300000000044072568, 8.200000000238416575 ) ) ;
#690 = ORIENTED_EDGE ( 'NONE', *, *, #1003, .F. ) ;
#691 = DIRECTION ( 'NONE',  ( 1.000000000000000000, 6.938893903866778456E-18, 0.000000000000000000 ) ) ;
#692 = CARTESIAN_POINT ( 'NONE',  ( -28.03253342423314720, 3.866178210909509971E-11, 16.10288568320374836 ) ) ;
#693 = LINE ( 'NONE', #294, #12 ) ;
#694 = EDGE_LOOP ( 'NONE', ( #400, #547, #1056, #374, #106, #240, #383, #809, #156, #908 ) ) ;
#695 = VERTEX_POINT ( 'NONE', #492 ) ;
#696 = CARTESIAN_POINT ( 'NONE',  ( -35.91506684846628161, 3.866696365173513811E-11, 8.200000000238416575 ) ) ;
#697 = DIRECTION ( 'NONE',  ( 1.000000000000000000, -0.000000000000000000, -0.000000000000000000 ) ) ;
#698 = ORIENTED_EDGE ( 'NONE', *, *, #979, .T. ) ;
#699 = EDGE_LOOP ( 'NONE', ( #703, #54, #386 ) ) ;
#700 = CARTESIAN_POINT ( 'NONE',  ( -20.95000000000000284, -3.110091929521460472E-15, 24.20879313365606222 ) ) ;
#701 = EDGE_CURVE ( 'NONE', #467, #666, #357, .T. ) ;
#702 = CARTESIAN_POINT ( 'NONE',  ( -20.14999999999999147, 2.898076211397392132, 24.58038475793011912 ) ) ;
#703 = ORIENTED_EDGE ( 'NONE', *, *, #80, .T. ) ;
#704 = ORIENTED_EDGE ( 'NONE', *, *, #111, .T. ) ;
#705 = CARTESIAN_POINT ( 'NONE',  ( 3.841805311886811847, 4.300000000044083670, 8.200000000238420128 ) ) ;
#706 = CARTESIAN_POINT ( 'NONE',  ( 3.841805311886808294, 1.119615242309328185, 29.66076951566884645 ) ) ;
#707 = VERTEX_POINT ( 'NONE', #818 ) ;
#708 = EDGE_LOOP ( 'NONE', ( #618, #48, #852, #972 ) ) ;
#709 = AXIS2_PLACEMENT_3D ( 'NONE', #951, #104, #1013 ) ;
#710 = ADVANCED_FACE ( 'NONE', ( #407 ), #722, .T. ) ;
#711 = VECTOR ( 'NONE', #880, 1000.000000000000000 ) ;
#712 = EDGE_CURVE ( 'NONE', #913, #836, #824, .T. ) ;
#713 = ADVANCED_FACE ( 'NONE', ( #661 ), #657, .T. ) ;
#714 = VECTOR ( 'NONE', #767, 1000.000000000000000 ) ;
#715 = ORIENTED_EDGE ( 'NONE', *, *, #1020, .T. ) ;
#716 = PLANE ( 'NONE',  #851 ) ;
#717 = EDGE_LOOP ( 'NONE', ( #485, #792, #715, #784 ) ) ;
#718 = ORIENTED_EDGE ( 'NONE', *, *, #878, .F. ) ;
#719 = EDGE_CURVE ( 'NONE', #831, #136, #976, .T. ) ;
#720 = PLANE ( 'NONE',  #609 ) ;
#721 = VECTOR ( 'NONE', #67, 1000.000000000000000 ) ;
#722 = CYLINDRICAL_SURFACE ( 'NONE', #269, 0.5999999999999998668 ) ;
#723 = DIRECTION ( 'NONE',  ( 0.000000000000000000, 1.224646799147443680E-16, -1.000000000000000000 ) ) ;
#724 = ORIENTED_EDGE ( 'NONE', *, *, #121, .T. ) ;
#725 = UNCERTAINTY_MEASURE_WITH_UNIT (LENGTH_MEASURE( 1.000000000000000082E-05 ), #420, 'distance_accuracy_value', 'NONE');
#726 = LINE ( 'NONE', #340, #898 ) ;
#727 = EDGE_CURVE ( 'NONE', #128, #531, #980, .T. ) ;
#728 = DIRECTION ( 'NONE',  ( 1.000000000000000000, 6.938893903866751493E-18, 0.000000000000000000 ) ) ;
#729 = CARTESIAN_POINT ( 'NONE',  ( -35.91506684846628161, 3.866478270358438393E-11, 26.00879313365605583 ) ) ;
#730 = ORIENTED_EDGE ( 'NONE', *, *, #253, .T. ) ;
#731 = CARTESIAN_POINT ( 'NONE',  ( -35.11506684846627024, -3.000000000000003553, 26.80879313365606009 ) ) ;
#732 = FACE_OUTER_BOUND ( 'NONE', #770, .T. ) ;
#733 = PRODUCT_CONTEXT ( 'NONE', #960, 'mechanical' ) ;
#734 = CARTESIAN_POINT ( 'NONE',  ( 3.841805311886808294, 4.300000000044083670, 24.15218152765461568 ) ) ;
#735 = ORIENTED_EDGE ( 'NONE', *, *, #59, .T. ) ;
#736 = CARTESIAN_POINT ( 'NONE',  ( -20.14999999999999503, -24.18677324485814495, 25.00879313365606293 ) ) ;
#737 = VECTOR ( 'NONE', #1052, 1000.000000000000000 ) ;
#738 = DIRECTION ( 'NONE',  ( 0.7071067811865463515, 0.6123724356957948034, 0.3535533905932755627 ) ) ;
#739 = EDGE_CURVE ( 'NONE', #450, #967, #167, .T. ) ;
#740 = ADVANCED_FACE ( 'NONE', ( #572, #412 ), #808, .F. ) ;
#741 = ORIENTED_EDGE ( 'NONE', *, *, #338, .T. ) ;
#742 = DIRECTION ( 'NONE',  ( -2.251327037390785740E-15, -0.4999999999999998335, 0.8660254037844387076 ) ) ;
#743 = CARTESIAN_POINT ( 'NONE',  ( -21.14999999999996305, 3.866706610496748142E-11, 8.200000000238418352 ) ) ;
#744 = LINE ( 'NONE', #346, #302 ) ;
#745 = CARTESIAN_POINT ( 'NONE',  ( -28.03253342423314720, 3.866178210909509971E-11, 16.10288568320374836 ) ) ;
#746 = APPLICATION_CONTEXT ( 'automotive_design' ) ;
#747 = VERTEX_POINT ( 'NONE', #499 ) ;
#748 = CARTESIAN_POINT ( 'NONE',  ( -34.91506684846628872, 1.119615242309327741, 29.66076951566884290 ) ) ;
#749 = LINE ( 'NONE', #436, #11 ) ;
#750 = DIRECTION ( 'NONE',  ( 4.906538933358173455E-18, -0.7071067811865444641, -0.7071067811865505703 ) ) ;
#751 = CARTESIAN_POINT ( 'NONE',  ( -34.91506684846628872, 0.3000000000440832815, 23.08038475793011912 ) ) ;
#752 = ORIENTED_EDGE ( 'NONE', *, *, #71, .F. ) ;
#753 = FACE_OUTER_BOUND ( 'NONE', #255, .T. ) ;
#754 = LINE ( 'NONE', #696, #1042 ) ;
#755 = EDGE_CURVE ( 'NONE', #136, #707, #427, .T. ) ;
#756 = EDGE_CURVE ( 'NONE', #695, #537, #396, .T. ) ;
#757 = FACE_OUTER_BOUND ( 'NONE', #1021, .T. ) ;
#758 = VECTOR ( 'NONE', #776, 1000.000000000000000 ) ;
#759 = CARTESIAN_POINT ( 'NONE',  ( -35.11506684846627024, -2.199999999999994404, 24.20879313365606222 ) ) ;
#760 = VECTOR ( 'NONE', #5, 1000.000000000000000 ) ;
#761 = DIRECTION ( 'NONE',  ( 0.000000000000000000, -1.000000000000000000, 0.000000000000000000 ) ) ;
#762 = ORIENTED_EDGE ( 'NONE', *, *, #335, .F. ) ;
#763 = AXIS2_PLACEMENT_3D ( 'NONE', #6, #750, #194 ) ;
#764 = SURFACE_STYLE_FILL_AREA ( #444 ) ;
#765 = DIRECTION ( 'NONE',  ( 0.000000000000000000, -1.224646799146225383E-16, 1.000000000000000000 ) ) ;
#766 = ADVANCED_FACE ( 'NONE', ( #336 ), #900, .F. ) ;
#767 = DIRECTION ( 'NONE',  ( 0.7071067811865423547, 0.6123724356957991333, 0.3535533905932760623 ) ) ;
#768 = CARTESIAN_POINT ( 'NONE',  ( 3.841805311886810514, 3.866464807358755128E-11, 29.36076951566884574 ) ) ;
#769 = ORIENTED_EDGE ( 'NONE', *, *, #155, .T. ) ;
#770 = EDGE_LOOP ( 'NONE', ( #698, #532, #595, #1032 ) ) ;
#771 = LINE ( 'NONE', #344, #798 ) ;
#772 = DIRECTION ( 'NONE',  ( 6.938893902389749656E-18, -1.000000000000000000, -1.224646799147444173E-16 ) ) ;
#773 = FACE_OUTER_BOUND ( 'NONE', #276, .T. ) ;
#774 = CARTESIAN_POINT ( 'NONE',  ( -20.14999999999998792, 3.300000000044073456, 23.08038475793012267 ) ) ;
#775 = ORIENTED_EDGE ( 'NONE', *, *, #944, .F. ) ;
#776 = DIRECTION ( 'NONE',  ( -1.529500441772202098E-18, -1.224646799147443680E-16, 1.000000000000000000 ) ) ;
#777 = VECTOR ( 'NONE', #994, 1000.000000000000000 ) ;
#778 = CARTESIAN_POINT ( 'NONE',  ( -20.14999999999994884, 3.866707304386138533E-11, 8.200000000238356179 ) ) ;
#779 = CARTESIAN_POINT ( 'NONE',  ( -20.15000000000001279, -3.000000000000003109, 25.00879313365606293 ) ) ;
#780 = VECTOR ( 'NONE', #124, 999.9999999999998863 ) ;
#781 = ORIENTED_EDGE ( 'NONE', *, *, #832, .F. ) ;
#782 = AXIS2_PLACEMENT_3D ( 'NONE', #408, #875, #723 ) ;
#783 = ADVANCED_FACE ( 'NONE', ( #830 ), #484, .T. ) ;
#784 = ORIENTED_EDGE ( 'NONE', *, *, #429, .T. ) ;
#785 = EDGE_LOOP ( 'NONE', ( #131, #1036, #902 ) ) ;
#786 = VECTOR ( 'NONE', #267, 1000.000000000000000 ) ;
#787 = PRODUCT ( 'Adapter Front 1515 3mm Slots Extrusions', 'Adapter Front 1515 3mm Slots Extrusions', '', ( #733 ) ) ;
#788 = DIRECTION ( 'NONE',  ( -3.469446951953627205E-15, 0.000000000000000000, 1.000000000000000000 ) ) ;
#789 = VERTEX_POINT ( 'NONE', #171 ) ;
#790 = ORIENTED_EDGE ( 'NONE', *, *, #191, .T. ) ;
#791 = PLANE ( 'NONE',  #45 ) ;
#792 = ORIENTED_EDGE ( 'NONE', *, *, #944, .T. ) ;
#793 = ORIENTED_EDGE ( 'NONE', *, *, #80, .F. ) ;
#794 = ADVANCED_FACE ( 'NONE', ( #1 ), #502, .T. ) ;
#795 = ADVANCED_FACE ( 'NONE', ( #258 ), #652, .T. ) ;
#796 = FACE_OUTER_BOUND ( 'NONE', #500, .T. ) ;
#797 = EDGE_LOOP ( 'NONE', ( #280, #876, #387, #931 ) ) ;
#798 = VECTOR ( 'NONE', #123, 1000.000000000000000 ) ;
#799 = CARTESIAN_POINT ( 'NONE',  ( -20.94999999999999574, -3.000000000000003109, 25.00879313365606293 ) ) ;
#800 =( GEOMETRIC_REPRESENTATION_CONTEXT ( 3 ) GLOBAL_UNCERTAINTY_ASSIGNED_CONTEXT ( ( #725 ) ) GLOBAL_UNIT_ASSIGNED_CONTEXT ( ( #420, #894, #231 ) ) REPRESENTATION_CONTEXT ( 'NONE', 'WORKASPACE' ) );
#801 = DIRECTION ( 'NONE',  ( -0.5773502691896207351, -0.5773502691896258421, -0.5773502691896307271 ) ) ;
#802 = EDGE_LOOP ( 'NONE', ( #2, #850 ) ) ;
#803 = CARTESIAN_POINT ( 'NONE',  ( -35.91506684846628161, -3.213932940647242236E-15, 24.20879313365606222 ) ) ;
#804 = DIRECTION ( 'NONE',  ( -1.000000000000000000, -6.938893903866751493E-18, -7.089404221401387746E-17 ) ) ;
#805 = ORIENTED_EDGE ( 'NONE', *, *, #306, .F. ) ;
#806 = CARTESIAN_POINT ( 'NONE',  ( -20.14999999999999503, -2.199999999999992184, 25.00879313365606649 ) ) ;
#807 = SURFACE_STYLE_FILL_AREA ( #1063 ) ;
#808 = PLANE ( 'NONE',  #286 ) ;
#809 = ORIENTED_EDGE ( 'NONE', *, *, #512, .T. ) ;
#810 = EDGE_CURVE ( 'NONE', #961, #392, #1012, .T. ) ;
#811 = VECTOR ( 'NONE', #772, 1000.000000000000000 ) ;
#812 = DIRECTION ( 'NONE',  ( -1.000000000000000000, -6.938893903908739847E-18, 1.091214522626106045E-18 ) ) ;
#813 = SURFACE_STYLE_USAGE ( .BOTH. , #993 ) ;
#814 = DIRECTION ( 'NONE',  ( 0.000000000000000000, 0.000000000000000000, 1.000000000000000000 ) ) ;
#815 = CARTESIAN_POINT ( 'NONE',  ( -35.11506684846627024, -2.199999999999994404, 24.20879313365606222 ) ) ;
#816 = VERTEX_POINT ( 'NONE', #856 ) ;
#817 = CARTESIAN_POINT ( 'NONE',  ( -35.91506684846628161, -3.000000000000003109, 25.00879313365606293 ) ) ;
#818 = CARTESIAN_POINT ( 'NONE',  ( -20.94999999999999574, -3.000000000000003109, 25.00879313365606293 ) ) ;
#819 = VERTEX_POINT ( 'NONE', #616 ) ;
#820 = FACE_OUTER_BOUND ( 'NONE', #717, .T. ) ;
#821 = CARTESIAN_POINT ( 'NONE',  ( -20.94999999999999574, -3.000000000000003553, 26.00879313365605583 ) ) ;
#822 = EDGE_CURVE ( 'NONE', #133, #136, #447, .T. ) ;
#823 = EDGE_CURVE ( 'NONE', #531, #8, #522, .T. ) ;
#824 = LINE ( 'NONE', #815, #1010 ) ;
#825 = ORIENTED_EDGE ( 'NONE', *, *, #107, .T. ) ;
#826 = CARTESIAN_POINT ( 'NONE',  ( -20.61738282944491374, 0.3313968279624380786, 29.96076951566885427 ) ) ;
#827 = FACE_OUTER_BOUND ( 'NONE', #177, .T. ) ;
#828 = VECTOR ( 'NONE', #169, 1000.000000000000000 ) ;
#829 = AXIS2_PLACEMENT_3D ( 'NONE', #526, #206, #691 ) ;
#830 = FACE_OUTER_BOUND ( 'NONE', #56, .T. ) ;
#831 = VERTEX_POINT ( 'NONE', #598 ) ;
#832 = EDGE_CURVE ( 'NONE', #348, #8, #17, .T. ) ;
#833 = DIRECTION ( 'NONE',  ( 0.7071067811865424657, 0.7071067811865526798, 0.000000000000000000 ) ) ;
#834 = CARTESIAN_POINT ( 'NONE',  ( -35.11506684846627024, -3.000000000000003109, 24.20879313365606222 ) ) ;
#835 = DIRECTION ( 'NONE',  ( -8.497694208994163917E-34, 1.224646799147444173E-16, -1.000000000000000000 ) ) ;
#836 = VERTEX_POINT ( 'NONE', #759 ) ;
#837 = EDGE_CURVE ( 'NONE', #290, #16, #929, .T. ) ;
#838 = DIRECTION ( 'NONE',  ( -1.000000000000000000, -6.938893903866751493E-18, -7.089404221401388979E-17 ) ) ;
#839 = DIRECTION ( 'NONE',  ( -0.7071067811865513475, 0.7071067811865436870, -1.081520134204951914E-18 ) ) ;
#840 = CARTESIAN_POINT ( 'NONE',  ( -35.11506684846627024, -2.199999999999993960, 26.80879313365606009 ) ) ;
#841 = DIRECTION ( 'NONE',  ( -0.5773502691896319483, 0.5773502691896197359, -0.5773502691896257311 ) ) ;
#842 = DIRECTION ( 'NONE',  ( 0.5773502691896273964, -0.5773502691896186256, 0.5773502691896315042 ) ) ;
#843 = VERTEX_POINT ( 'NONE', #774 ) ;
#844 = EDGE_CURVE ( 'NONE', #428, #128, #204, .T. ) ;
#845 = FILL_AREA_STYLE_COLOUR ( '', #557 ) ;
#846 = LINE ( 'NONE', #949, #780 ) ;
#847 = PLANE ( 'NONE',  #939 ) ;
#848 = VECTOR ( 'NONE', #410, 1000.000000000000114 ) ;
#849 = CARTESIAN_POINT ( 'NONE',  ( -35.71486186455476997, 0.1138312521144545231, 29.80324845594872940 ) ) ;
#850 = ORIENTED_EDGE ( 'NONE', *, *, #232, .T. ) ;
#851 = AXIS2_PLACEMENT_3D ( 'NONE', #140, #318, #475 ) ;
#852 = ORIENTED_EDGE ( 'NONE', *, *, #620, .F. ) ;
#853 = DIRECTION ( 'NONE',  ( 3.469446951953614189E-15, 3.550762114890027021E-15, -1.000000000000000000 ) ) ;
#854 = CARTESIAN_POINT ( 'NONE',  ( -34.91506684846627451, 4.300000000044083670, 8.200000000238416575 ) ) ;
#855 = PRESENTATION_LAYER_ASSIGNMENT (  '', '', ( #632 ) ) ;
#856 = CARTESIAN_POINT ( 'NONE',  ( -20.95000000000000639, -3.428500097299795760E-15, 26.80879313365606009 ) ) ;
#857 = FACE_OUTER_BOUND ( 'NONE', #1061, .T. ) ;
#858 = EDGE_LOOP ( 'NONE', ( #769, #790, #333, #724 ) ) ;
#859 = ORIENTED_EDGE ( 'NONE', *, *, #727, .T. ) ;
#860 = CARTESIAN_POINT ( 'NONE',  ( -20.15000000000000568, 0.2535898385248893105, 29.16076951566884645 ) ) ;
#861 = LINE ( 'NONE', #515, #811 ) ;
#862 =( BOUNDED_CURVE ( )  B_SPLINE_CURVE ( 3, ( #315, #82, #826, #246 ),
 .UNSPECIFIED., .F., .F. ) 
 B_SPLINE_CURVE_WITH_KNOTS ( ( 4, 4 ),
 ( 3.982661324157726224, 5.235987755982991487 ),
 .UNSPECIFIED. ) 
 CURVE ( )  GEOMETRIC_REPRESENTATION_ITEM ( )  RATIONAL_B_SPLINE_CURVE ( ( 1.000000000000000000, 0.8733259034539413435, 0.8733259034539413435, 1.000000000000000000 ) ) 
 REPRESENTATION_ITEM ( '' )  );
#863 = DIRECTION ( 'NONE',  ( -1.000000000000000000, -6.938893903172476089E-18, 0.000000000000000000 ) ) ;
#864 = ORIENTED_EDGE ( 'NONE', *, *, #59, .F. ) ;
#865 = ORIENTED_EDGE ( 'NONE', *, *, #1019, .F. ) ;
#866 = CARTESIAN_POINT ( 'NONE',  ( 3.841805311886809182, 4.300000000044083670, 9.200000000238420128 ) ) ;
#867 = PLANE ( 'NONE',  #643 ) ;
#868 = AXIS2_PLACEMENT_3D ( 'NONE', #921, #118, #853 ) ;
#869 = ORIENTED_EDGE ( 'NONE', *, *, #1034, .F. ) ;
#870 = AXIS2_PLACEMENT_3D ( 'NONE', #90, #97, #896 ) ;
#871 = ORIENTED_EDGE ( 'NONE', *, *, #558, .F. ) ;
#872 = VECTOR ( 'NONE', #181, 1000.000000000000000 ) ;
#873 = CARTESIAN_POINT ( 'NONE',  ( 3.841805311886811847, 3.866723952045301005E-11, 8.200000000238420128 ) ) ;
#874 = ORIENTED_EDGE ( 'NONE', *, *, #20, .T. ) ;
#875 = DIRECTION ( 'NONE',  ( 6.938893903866778456E-18, -1.000000000000000000, -1.224646799147443680E-16 ) ) ;
#876 = ORIENTED_EDGE ( 'NONE', *, *, #524, .F. ) ;
#877 = ORIENTED_EDGE ( 'NONE', *, *, #982, .T. ) ;
#878 = EDGE_CURVE ( 'NONE', #296, #203, #517, .T. ) ;
#879 = EDGE_CURVE ( 'NONE', #117, #85, #96, .T. ) ;
#880 = DIRECTION ( 'NONE',  ( -0.7071067811865517916, -3.269036566852100445E-15, 0.7071067811865433539 ) ) ;
#881 = FACE_OUTER_BOUND ( 'NONE', #462, .T. ) ;
#882 = EDGE_LOOP ( 'NONE', ( #704, #762, #543, #126 ) ) ;
#883 = DIRECTION ( 'NONE',  ( 1.000000000000000000, 6.938893902389430722E-18, 2.603614714405328307E-15 ) ) ;
#884 = ORIENTED_EDGE ( 'NONE', *, *, #712, .T. ) ;
#885 = AXIS2_PLACEMENT_3D ( 'NONE', #1033, #219, #1038 ) ;
#886 = DIRECTION ( 'NONE',  ( -1.000000000000000000, 0.000000000000000000, -3.469446951953611033E-15 ) ) ;
#887 = CARTESIAN_POINT ( 'NONE',  ( -35.91506684846628161, 3.300000000044072124, 9.200000000238427234 ) ) ;
#888 = ORIENTED_EDGE ( 'NONE', *, *, #351, .F. ) ;
#889 = CARTESIAN_POINT ( 'NONE',  ( -34.91506684846627451, 3.300000000044072568, 8.200000000238416575 ) ) ;
#890 = DIRECTION ( 'NONE',  ( 0.000000000000000000, 0.000000000000000000, 1.000000000000000000 ) ) ;
#891 = EDGE_CURVE ( 'NONE', #658, #128, #236, .T. ) ;
#892 = EDGE_LOOP ( 'NONE', ( #670, #995, #877, #370 ) ) ;
#893 = DIRECTION ( 'NONE',  ( 0.000000000000000000, -1.000000000000000000, -1.224646799147444173E-16 ) ) ;
#894 =( NAMED_UNIT ( * ) PLANE_ANGLE_UNIT ( ) SI_UNIT ( $, .RADIAN. ) );
#895 = CARTESIAN_POINT ( 'NONE',  ( -20.54999999999999716, -2.199999999999993516, 24.60879313365606080 ) ) ;
#896 = DIRECTION ( 'NONE',  ( 6.938893903907210659E-18, -1.000000000000000000, -1.224646799147444173E-16 ) ) ;
#897 = ORIENTED_EDGE ( 'NONE', *, *, #649, .F. ) ;
#898 = VECTOR ( 'NONE', #990, 1000.000000000000114 ) ;
#899 = PLANE ( 'NONE',  #301 ) ;
#900 = PLANE ( 'NONE',  #1046 ) ;
#901 = VECTOR ( 'NONE', #639, 1000.000000000000000 ) ;
#902 = ORIENTED_EDGE ( 'NONE', *, *, #266, .F. ) ;
#903 = ADVANCED_FACE ( 'NONE', ( #945 ), #511, .T. ) ;
#904 = ADVANCED_FACE ( 'NONE', ( #29 ), #529, .F. ) ;
#905 = CARTESIAN_POINT ( 'NONE',  ( -35.91506684846628161, -3.000000000000003109, 24.20879313365606222 ) ) ;
#906 = DIRECTION ( 'NONE',  ( 6.938893902389749656E-18, -1.000000000000000000, -1.224646799147444173E-16 ) ) ;
#907 = DIRECTION ( 'NONE',  ( 0.7071067811865507924, 5.672739924831511114E-15, -0.7071067811865442421 ) ) ;
#908 = ORIENTED_EDGE ( 'NONE', *, *, #351, .T. ) ;
#909 = DIRECTION ( 'NONE',  ( 0.7071067811865456854, 9.150214455586974858E-17, -0.7071067811865493491 ) ) ;
#910 = DIRECTION ( 'NONE',  ( 4.145627950192051911E-17, -0.8660254037844388186, -0.4999999999999998335 ) ) ;
#911 = CARTESIAN_POINT ( 'NONE',  ( -21.04019237886467408, 0.8196152423093273631, 29.96076951566884361 ) ) ;
#912 = VECTOR ( 'NONE', #582, 1000.000000000000000 ) ;
#913 = VERTEX_POINT ( 'NONE', #279 ) ;
#914 = CARTESIAN_POINT ( 'NONE',  ( -34.91506684846628872, 0.3000000000440832815, 23.08038475793011912 ) ) ;
#915 = CLOSED_SHELL ( 'NONE', ( #567, #904, #415, #574, #3, #740, #265, #1039, #142, #21, #925, #70, #496, #434, #190, #713, #144, #472, #603, #224, #766, #58, #542, #795, #602, #222, #710, #454, #682, #416, #275, #903, #1064, #794, #958, #162, #1065, #783 ) ) ;
#916 = VECTOR ( 'NONE', #399, 1000.000000000000114 ) ;
#917 = EDGE_CURVE ( 'NONE', #409, #354, #293, .T. ) ;
#918 = CARTESIAN_POINT ( 'NONE',  ( -35.11506684846627024, 3.866500869112336158E-11, 24.20879313365606222 ) ) ;
#919 = VERTEX_POINT ( 'NONE', #287 ) ;
#920 = AXIS2_PLACEMENT_3D ( 'NONE', #665, #347, #997 ) ;
#921 = CARTESIAN_POINT ( 'NONE',  ( -21.14999999999998792, 0.3000000000440833925, 23.08038475793011912 ) ) ;
#922 = CARTESIAN_POINT ( 'NONE',  ( -34.91506684846627451, 4.300000000044083670, 24.15218152765461568 ) ) ;
#923 = DIRECTION ( 'NONE',  ( 7.375650766961080316E-15, 0.7071067811865512365, 0.7071067811865439090 ) ) ;
#924 = DIRECTION ( 'NONE',  ( -0.7071067811865461294, 0.6123724356957972459, 0.3535533905932718435 ) ) ;
#925 = ADVANCED_FACE ( 'NONE', ( #125 ), #459, .F. ) ;
#926 = ORIENTED_EDGE ( 'NONE', *, *, #599, .T. ) ;
#927 = DIRECTION ( 'NONE',  ( 0.7071067811865444641, 0.7071067811865505703, 8.767712575776103955E-17 ) ) ;
#928 = DIRECTION ( 'NONE',  ( 0.7071067811865439090, 9.150214455682818993E-17, -0.7071067811865512365 ) ) ;
#929 = LINE ( 'NONE', #195, #166 ) ;
#930 = DIRECTION ( 'NONE',  ( 0.7071067811865516806, 9.150214455682730246E-17, -0.7071067811865434649 ) ) ;
#931 = ORIENTED_EDGE ( 'NONE', *, *, #429, .F. ) ;
#932 = ORIENTED_EDGE ( 'NONE', *, *, #201, .T. ) ;
#933 = CARTESIAN_POINT ( 'NONE',  ( -20.94999999999993179, -3.000000000000000000, -5.491312230653568654E-14 ) ) ;
#934 = CARTESIAN_POINT ( 'NONE',  ( -20.14999999999999858, 3.866489209571063116E-11, 26.00879313365605583 ) ) ;
#935 = VECTOR ( 'NONE', #667, 1000.000000000000000 ) ;
#936 = CARTESIAN_POINT ( 'NONE',  ( -20.14999999999999147, 2.898076211397392132, 24.58038475793011912 ) ) ;
#937 = AXIS2_PLACEMENT_3D ( 'NONE', #914, #159, #332 ) ;
#938 = EDGE_LOOP ( 'NONE', ( #369, #388, #983, #874 ) ) ;
#939 = AXIS2_PLACEMENT_3D ( 'NONE', #834, #673, #1001 ) ;
#940 = ORIENTED_EDGE ( 'NONE', *, *, #599, .F. ) ;
#941 = DIRECTION ( 'NONE',  ( -6.938893903866751493E-18, 1.000000000000000000, -1.509143076343730022E-33 ) ) ;
#942 = PLANE ( 'NONE',  #38 ) ;
#943 = AXIS2_PLACEMENT_3D ( 'NONE', #165, #890, #655 ) ;
#944 = EDGE_CURVE ( 'NONE', #836, #298, #353, .T. ) ;
#945 = FACE_OUTER_BOUND ( 'NONE', #148, .T. ) ;
#946 = VERTEX_POINT ( 'NONE', #432 ) ;
#947 = ORIENTED_EDGE ( 'NONE', *, *, #395, .F. ) ;
#948 = PLANE ( 'NONE',  #146 ) ;
#949 = CARTESIAN_POINT ( 'NONE',  ( -21.14999999999999503, 3.764101615181841609, 25.08038475793011557 ) ) ;
#950 = DIRECTION ( 'NONE',  ( -1.000000000000000000, -6.938893903866751493E-18, -7.089404221401387746E-17 ) ) ;
#951 = CARTESIAN_POINT ( 'NONE',  ( -34.91506684846628872, 3.866294082626232862E-11, 31.60000000021017641 ) ) ;
#952 = CARTESIAN_POINT ( 'NONE',  ( -35.51506684846627593, -2.600000000000002309, 25.00879313365606293 ) ) ;
#953 = VERTEX_POINT ( 'NONE', #7 ) ;
#954 = ORIENTED_EDGE ( 'NONE', *, *, #306, .T. ) ;
#955 = LINE ( 'NONE', #873, #962 ) ;
#956 = VECTOR ( 'NONE', #635, 1000.000000000000114 ) ;
#957 = EDGE_CURVE ( 'NONE', #695, #634, #675, .T. ) ;
#958 = ADVANCED_FACE ( 'NONE', ( #594 ), #791, .T. ) ;
#959 = ORIENTED_EDGE ( 'NONE', *, *, #964, .F. ) ;
#960 = APPLICATION_CONTEXT ( 'automotive_design' ) ;
#961 = VERTEX_POINT ( 'NONE', #702 ) ;
#962 = VECTOR ( 'NONE', #950, 1000.000000000000000 ) ;
#963 = DIRECTION ( 'NONE',  ( 0.5773502691896267303, 0.5773502691896192918, -0.5773502691896313932 ) ) ;
#964 = EDGE_CURVE ( 'NONE', #953, #409, #289, .T. ) ;
#965 = VERTEX_POINT ( 'NONE', #1035 ) ;
#966 = DIRECTION ( 'NONE',  ( -2.600993999440924965E-15, -5.832936880726608536E-13, 1.000000000000000000 ) ) ;
#967 = VERTEX_POINT ( 'NONE', #297 ) ;
#968 = CARTESIAN_POINT ( 'NONE',  ( -20.14999999999994884, -24.18677324485814140, 8.000000000201707095 ) ) ;
#969 = FACE_OUTER_BOUND ( 'NONE', #617, .T. ) ;
#970 = ORIENTED_EDGE ( 'NONE', *, *, #390, .T. ) ;
#971 = VECTOR ( 'NONE', #518, 1000.000000000000000 ) ;
#972 = ORIENTED_EDGE ( 'NONE', *, *, #468, .F. ) ;
#973 = DIRECTION ( 'NONE',  ( 0.7071067811865435759, 0.7071067811865513475, -7.313996126347039982E-15 ) ) ;
#974 = APPLICATION_PROTOCOL_DEFINITION ( 'draft international standard', 'automotive_design', 1998, #746 ) ;
#975 = FACE_OUTER_BOUND ( 'NONE', #98, .T. ) ;
#976 = LINE ( 'NONE', #895, #66 ) ;
#977 = ORIENTED_EDGE ( 'NONE', *, *, #957, .F. ) ;
#978 = DIRECTION ( 'NONE',  ( -1.091214522630153386E-18, 5.832936880726608536E-13, -1.000000000000000000 ) ) ;
#979 = EDGE_CURVE ( 'NONE', #919, #666, #46, .T. ) ;
#980 = LINE ( 'NONE', #506, #777 ) ;
#981 = EDGE_CURVE ( 'NONE', #85, #1028, #150, .T. ) ;
#982 = EDGE_CURVE ( 'NONE', #295, #127, #955, .T. ) ;
#983 = ORIENTED_EDGE ( 'NONE', *, *, #957, .T. ) ;
#984 = CIRCLE ( 'NONE', #868, 4.000000000000000000 ) ;
#985 = CARTESIAN_POINT ( 'NONE',  ( -20.94999999999999574, -3.000000000000003553, 26.00879313365605583 ) ) ;
#986 = DIRECTION ( 'NONE',  ( 0.000000000000000000, 0.4999999999999997780, -0.8660254037844387076 ) ) ;
#987 = DIRECTION ( 'NONE',  ( 6.938893902389749656E-18, -1.000000000000000000, -1.224646799147444173E-16 ) ) ;
#988 = MECHANICAL_DESIGN_GEOMETRIC_PRESENTATION_REPRESENTATION (  '', ( #632 ), #800 ) ;
#989 = VERTEX_POINT ( 'NONE', #464 ) ;
#990 = DIRECTION ( 'NONE',  ( -0.7071067811865504593, -7.403406342576720274E-15, -0.7071067811865445751 ) ) ;
#991 = DIRECTION ( 'NONE',  ( 6.938893903907210659E-18, -1.000000000000000000, 4.919262373421613195E-34 ) ) ;
#992 = DIRECTION ( 'NONE',  ( -1.000000000000000000, -6.938893903866748412E-18, -7.089404221401388979E-17 ) ) ;
#993 = SURFACE_SIDE_STYLE ('',( #807 ) ) ;
#994 = DIRECTION ( 'NONE',  ( -2.144860714279354717E-18, 0.4999999999999998335, -0.8660254037844387076 ) ) ;
#995 = ORIENTED_EDGE ( 'NONE', *, *, #132, .T. ) ;
#996 = CARTESIAN_POINT ( 'NONE',  ( -35.21506684846628588, 0.6000000000386643828, 29.96076951566884361 ) ) ;
#997 = DIRECTION ( 'NONE',  ( 6.938893902389430722E-18, -1.000000000000000000, 4.919262372345598321E-34 ) ) ;
#998 = ORIENTED_EDGE ( 'NONE', *, *, #891, .T. ) ;
#999 = DIRECTION ( 'NONE',  ( 2.603614714405328307E-15, 1.655706319345982605E-32, -1.000000000000000000 ) ) ;
#1000 = FACE_BOUND ( 'NONE', #802, .T. ) ;
#1001 = DIRECTION ( 'NONE',  ( 6.938893903907210659E-18, -1.000000000000000000, -1.224646799147444173E-16 ) ) ;
#1002 = VECTOR ( 'NONE', #1043, 1000.000000000000000 ) ;
#1003 = EDGE_CURVE ( 'NONE', #467, #658, #626, .T. ) ;
#1004 = CARTESIAN_POINT ( 'NONE',  ( -30.38253342423314862, 3.866176580269442812E-11, 16.10288568320374836 ) ) ;
#1005 = LINE ( 'NONE', #952, #1045 ) ;
#1006 = ORIENTED_EDGE ( 'NONE', *, *, #362, .F. ) ;
#1007 = VECTOR ( 'NONE', #631, 1000.000000000000000 ) ;
#1008 = LINE ( 'NONE', #860, #337 ) ;
#1009 = DIRECTION ( 'NONE',  ( -6.938893903866751493E-18, 1.000000000000000000, -1.509143076343730022E-33 ) ) ;
#1010 = VECTOR ( 'NONE', #907, 1000.000000000000114 ) ;
#1011 = CARTESIAN_POINT ( 'NONE',  ( -24.94102733499839530, 3.866351491904388390E-11, 36.98283264712386398 ) ) ;
#1012 = LINE ( 'NONE', #936, #326 ) ;
#1013 = DIRECTION ( 'NONE',  ( -2.144860714279354332E-18, 0.4999999999999997780, -0.8660254037844387076 ) ) ;
#1014 = ORIENTED_EDGE ( 'NONE', *, *, #549, .F. ) ;
#1015 = PLANE ( 'NONE',  #1041 ) ;
#1016 = LINE ( 'NONE', #854, #676 ) ;
#1017 = CARTESIAN_POINT ( 'NONE',  ( -35.44768401902137356, 0.3313968279624385227, 29.96076951566884716 ) ) ;
#1018 = ORIENTED_EDGE ( 'NONE', *, *, #586, .F. ) ;
#1019 = EDGE_CURVE ( 'NONE', #348, #946, #304, .T. ) ;
#1020 = EDGE_CURVE ( 'NONE', #298, #16, #220, .T. ) ;
#1021 = EDGE_LOOP ( 'NONE', ( #954, #871, #640, #172 ) ) ;
#1022 = CYLINDRICAL_SURFACE ( 'NONE', #284, 4.000000000000000000 ) ;
#1023 = CARTESIAN_POINT ( 'NONE',  ( -35.11506684846627024, -2.199999999999994404, 24.20879313365606222 ) ) ;
#1024 = CIRCLE ( 'NONE', #570, 2.350000000000001421 ) ;
#1025 = CARTESIAN_POINT ( 'NONE',  ( -20.14999999999994884, -2.199999999999989964, 8.000000000201710648 ) ) ;
#1026 = ORIENTED_EDGE ( 'NONE', *, *, #474, .T. ) ;
#1027 = ORIENTED_EDGE ( 'NONE', *, *, #91, .F. ) ;
#1028 = VERTEX_POINT ( 'NONE', #217 ) ;
#1029 = AXIS2_PLACEMENT_3D ( 'NONE', #15, #368, #208 ) ;
#1030 = CARTESIAN_POINT ( 'NONE',  ( -35.91506684846628161, -3.000000000000003553, 26.00879313365605583 ) ) ;
#1031 = ORIENTED_EDGE ( 'NONE', *, *, #1019, .T. ) ;
#1032 = ORIENTED_EDGE ( 'NONE', *, *, #143, .T. ) ;
#1033 = CARTESIAN_POINT ( 'NONE',  ( -28.03253342423314720, 4.300000000044083670, 16.10288568320374836 ) ) ;
#1034 = EDGE_CURVE ( 'NONE', #843, #961, #247, .T. ) ;
#1035 = CARTESIAN_POINT ( 'NONE',  ( -20.95000000000000639, -2.199999999999993960, 26.80879313365606009 ) ) ;
#1036 = ORIENTED_EDGE ( 'NONE', *, *, #91, .T. ) ;
#1037 = ORIENTED_EDGE ( 'NONE', *, *, #389, .F. ) ;
#1038 = DIRECTION ( 'NONE',  ( -1.000000000000000000, 0.000000000000000000, 0.000000000000000000 ) ) ;
#1039 = ADVANCED_FACE ( 'NONE', ( #480 ), #313, .T. ) ;
#1040 = CARTESIAN_POINT ( 'NONE',  ( 3.841805311886810514, 0.6000000000386644938, 29.96076951566884716 ) ) ;
#1041 = AXIS2_PLACEMENT_3D ( 'NONE', #596, #366, #999 ) ;
#1042 = VECTOR ( 'NONE', #119, 1000.000000000000000 ) ;
#1043 = DIRECTION ( 'NONE',  ( 2.603614714405328307E-15, 1.224646799146225629E-16, -1.000000000000000000 ) ) ;
#1044 = LINE ( 'NONE', #799, #956 ) ;
#1045 = VECTOR ( 'NONE', #105, 1000.000000000000114 ) ;
#1046 = AXIS2_PLACEMENT_3D ( 'NONE', #250, #176, #578 ) ;
#1047 = CARTESIAN_POINT ( 'NONE',  ( -35.91506684846628161, 2.898076211397399238, 24.58038475793011912 ) ) ;
#1048 = ORIENTED_EDGE ( 'NONE', *, *, #50, .F. ) ;
#1049 = LINE ( 'NONE', #817, #244 ) ;
#1050 = LINE ( 'NONE', #1011, #494 ) ;
#1051 = ORIENTED_EDGE ( 'NONE', *, *, #810, .F. ) ;
#1052 = DIRECTION ( 'NONE',  ( 6.938893903907210659E-18, -1.000000000000000000, -1.224646799147444173E-16 ) ) ;
#1053 = CARTESIAN_POINT ( 'NONE',  ( -20.14999999999995239, 3.300000000044073012, 9.200000000238421904 ) ) ;
#1054 = AXIS2_PLACEMENT_3D ( 'NONE', #367, #1009, #100 ) ;
#1055 = LINE ( 'NONE', #402, #589 ) ;
#1056 = ORIENTED_EDGE ( 'NONE', *, *, #964, .T. ) ;
#1057 = VECTOR ( 'NONE', #906, 1000.000000000000000 ) ;
#1058 = DIRECTION ( 'NONE',  ( -0.7071067811865439090, -2.884444029575376046E-16, 0.7071067811865512365 ) ) ;
#1059 = AXIS2_PLACEMENT_3D ( 'NONE', #39, #835, #378 ) ;
#1060 = DIRECTION ( 'NONE',  ( 0.7071067811865433539, -8.168906669124251643E-17, 0.7071067811865516806 ) ) ;
#1061 = EDGE_LOOP ( 'NONE', ( #196, #465, #519, #168, #536 ) ) ;
#1062 = DIRECTION ( 'NONE',  ( 1.529500441772202869E-18, -1.498530035053704006E-33, -1.000000000000000000 ) ) ;
#1063 = FILL_AREA_STYLE ('',( #331 ) ) ;
#1064 = ADVANCED_FACE ( 'NONE', ( #473 ), #227, .F. ) ;
#1065 = ADVANCED_FACE ( 'NONE', ( #796 ), #116, .T. ) ;
#1066 = DIRECTION ( 'NONE',  ( 6.938893903866751493E-18, -1.000000000000000000, 1.509143076345078635E-33 ) ) ;
#1067 = ORIENTED_EDGE ( 'NONE', *, *, #879, .F. ) ;
#1068 = CARTESIAN_POINT ( 'NONE',  ( -34.91506684846627451, 3.866697059062904201E-11, 8.200000000238416575 ) ) ;
#1069 = EDGE_CURVE ( 'NONE', #133, #965, #61, .T. ) ;
#1070 = CARTESIAN_POINT ( 'NONE',  ( -21.15000000000000924, 1.009807621173995251, 29.85096189453352267 ) ) ;
#1071 = ORIENTED_EDGE ( 'NONE', *, *, #132, .F. ) ;
#1072 = PRESENTATION_LAYER_ASSIGNMENT (  '', '', ( #477 ) ) ;
#1073 = DIRECTION ( 'NONE',  ( 6.938893902389749656E-18, -1.000000000000000000, -1.224646799147444173E-16 ) ) ;
#1074 = CARTESIAN_POINT ( 'NONE',  ( -34.91506684846627451, 4.300000000044083670, 8.200000000238416575 ) ) ;
#1075 = CARTESIAN_POINT ( 'NONE',  ( -20.85000000000001208, 0.6000000000386643828, 29.96076951566884716 ) ) ;
#1076 = PRODUCT_DEFINITION_FORMATION_WITH_SPECIFIED_SOURCE ( 'ANY', '', #787, .NOT_KNOWN. ) ;
#1077 = ORIENTED_EDGE ( 'NONE', *, *, #512, .F. ) ;
#1078 = DIRECTION ( 'NONE',  ( 0.000000000000000000, -0.7071067811865507924, -0.7071067811865441310 ) ) ;
ENDSEC;
END-ISO-10303-21;
