ISO-10303-21;
HEADER;
FILE_DESCRIPTION (( 'STEP AP214' ),
    '1' );
FILE_NAME ('Adapter Front 2020.STEP',
    '2026-09-02T08:34:42',
    ( '' ),
    ( '' ),
    '',
    '',
    '' );
FILE_SCHEMA (( 'AUTOMOTIVE_DESIGN' ));
ENDSEC;

DATA;
#1 = CARTESIAN_POINT ( 'NONE',  ( 3.841805311886811847, 3.866723952045301005E-11, 8.200000000238420128 ) ) ;
#2 = CARTESIAN_POINT ( 'NONE',  ( -21.14999999999998437, -2.000000000000001776, 20.20879313365605867 ) ) ;
#3 = CARTESIAN_POINT ( 'NONE',  ( -35.91506684846628161, 3.866437220486967934E-11, 29.36076951566884219 ) ) ;
#4 = DIRECTION ( 'NONE',  ( -6.938893902389430722E-18, 1.000000000000000000, -4.919262372345602597E-34 ) ) ;
#5 = EDGE_CURVE ( 'NONE', #215, #283, #93, .T. ) ;
#6 = VECTOR ( 'NONE', #636, 1000.000000000000000 ) ;
#7 = DIRECTION ( 'NONE',  ( 4.906538933358168062E-18, -0.7071067811865462405, 0.7071067811865489050 ) ) ;
#8 = LINE ( 'NONE', #585, #290 ) ;
#9 = FACE_OUTER_BOUND ( 'NONE', #105, .T. ) ;
#10 = AXIS2_PLACEMENT_3D ( 'NONE', #1001, #7, #251 ) ;
#11 = AXIS2_PLACEMENT_3D ( 'NONE', #503, #981, #717 ) ;
#12 = FACE_OUTER_BOUND ( 'NONE', #516, .T. ) ;
#13 = FACE_OUTER_BOUND ( 'NONE', #710, .T. ) ;
#14 = AXIS2_PLACEMENT_3D ( 'NONE', #80, #755, #252 ) ;
#15 = DIRECTION ( 'NONE',  ( 1.000000000000000000, 0.000000000000000000, 0.000000000000000000 ) ) ;
#16 = ORIENTED_EDGE ( 'NONE', *, *, #227, .F. ) ;
#17 = ORIENTED_EDGE ( 'NONE', *, *, #352, .F. ) ;
#18 = ORIENTED_EDGE ( 'NONE', *, *, #470, .T. ) ;
#19 = EDGE_CURVE ( 'NONE', #849, #441, #365, .T. ) ;
#20 = DIRECTION ( 'NONE',  ( -6.938893903866751493E-18, 1.000000000000000000, -1.509143076343730022E-33 ) ) ;
#21 = DIRECTION ( 'NONE',  ( 8.497694208994133127E-34, -1.224646799147444173E-16, 1.000000000000000000 ) ) ;
#22 = VERTEX_POINT ( 'NONE', #696 ) ;
#23 = ORIENTED_EDGE ( 'NONE', *, *, #846, .F. ) ;
#24 = VERTEX_POINT ( 'NONE', #944 ) ;
#25 = SURFACE_STYLE_USAGE ( .BOTH. , #766 ) ;
#26 = APPLICATION_PROTOCOL_DEFINITION ( 'draft international standard', 'automotive_design', 1998, #340 ) ;
#27 = ORIENTED_EDGE ( 'NONE', *, *, #846, .T. ) ;
#28 = ORIENTED_EDGE ( 'NONE', *, *, #310, .F. ) ;
#29 = ORIENTED_EDGE ( 'NONE', *, *, #788, .F. ) ;
#30 = EDGE_LOOP ( 'NONE', ( #511, #1019, #377, #298, #777, #686, #757, #517, #685, #1022 ) ) ;
#31 = FILL_AREA_STYLE_COLOUR ( '', #643 ) ;
#32 = ORIENTED_EDGE ( 'NONE', *, *, #382, .F. ) ;
#33 = CARTESIAN_POINT ( 'NONE',  ( -21.14999999999999503, 3.866490964975271266E-11, 25.80879313365606009 ) ) ;
#34 = CARTESIAN_POINT ( 'NONE',  ( -35.91506684846628161, -2.000000000000006661, 24.80879313365606009 ) ) ;
#35 = EDGE_CURVE ( 'NONE', #861, #1037, #201, .T. ) ;
#36 = ORIENTED_EDGE ( 'NONE', *, *, #537, .F. ) ;
#37 = CARTESIAN_POINT ( 'NONE',  ( 3.841805311886809182, 4.300000000044083670, 9.200000000238427234 ) ) ;
#38 = ORIENTED_EDGE ( 'NONE', *, *, #109, .F. ) ;
#39 = CARTESIAN_POINT ( 'NONE',  ( -34.91506684846627451, -3.000000000000003553, 25.80879313365606009 ) ) ;
#40 = ADVANCED_FACE ( 'NONE', ( #764 ), #95, .F. ) ;
#41 = ORIENTED_EDGE ( 'NONE', *, *, #401, .T. ) ;
#42 = DIRECTION ( 'NONE',  ( -0.7071067811865495711, -2.747658912168265412E-15, 0.7071067811865454633 ) ) ;
#43 = VERTEX_POINT ( 'NONE', #417 ) ;
#44 = DIRECTION ( 'NONE',  ( 2.603614714405328307E-15, 1.655706319345982605E-32, -1.000000000000000000 ) ) ;
#45 = ORIENTED_EDGE ( 'NONE', *, *, #470, .F. ) ;
#46 = VERTEX_POINT ( 'NONE', #930 ) ;
#47 = LINE ( 'NONE', #128, #6 ) ;
#48 = EDGE_LOOP ( 'NONE', ( #688, #931, #1014, #1042 ) ) ;
#49 = ORIENTED_EDGE ( 'NONE', *, *, #156, .F. ) ;
#50 = LINE ( 'NONE', #383, #387 ) ;
#51 = DIRECTION ( 'NONE',  ( 0.000000000000000000, 0.7071067811865489050, -0.7071067811865461294 ) ) ;
#52 = ORIENTED_EDGE ( 'NONE', *, *, #594, .T. ) ;
#53 = LINE ( 'NONE', #821, #810 ) ;
#54 = VECTOR ( 'NONE', #975, 1000.000000000000000 ) ;
#55 = DIRECTION ( 'NONE',  ( -1.529500441772202869E-18, 1.498530035053704006E-33, 1.000000000000000000 ) ) ;
#56 = VECTOR ( 'NONE', #182, 1000.000000000000000 ) ;
#57 = EDGE_CURVE ( 'NONE', #104, #216, #820, .T. ) ;
#58 = CARTESIAN_POINT ( 'NONE',  ( -35.91506684846628161, 2.898076211397397906, 24.58038475793011912 ) ) ;
#59 = LINE ( 'NONE', #398, #323 ) ;
#60 = CARTESIAN_POINT ( 'NONE',  ( -34.91506684846627451, 3.866697059062904201E-11, 8.200000000238416575 ) ) ;
#61 = VECTOR ( 'NONE', #657, 1000.000000000000114 ) ;
#62 = VECTOR ( 'NONE', #69, 1000.000000000000114 ) ;
#63 = LINE ( 'NONE', #232, #308 ) ;
#64 = LINE ( 'NONE', #805, #1057 ) ;
#65 = CARTESIAN_POINT ( 'NONE',  ( -34.91506684846628872, 0.3000000000440832815, 23.08038475793011912 ) ) ;
#66 = EDGE_CURVE ( 'NONE', #950, #628, #584, .T. ) ;
#67 = VECTOR ( 'NONE', #165, 1000.000000000000000 ) ;
#68 = CARTESIAN_POINT ( 'NONE',  ( -20.15000000000001279, -2.000000000000001776, 25.80879313365606009 ) ) ;
#69 = DIRECTION ( 'NONE',  ( -0.7071067811865490160, 0.7071067811865460184, -2.453269466693384421E-15 ) ) ;
#70 = DIRECTION ( 'NONE',  ( 0.7071067811865462405, 0.7071067811865489050, 1.841033620153080430E-15 ) ) ;
#71 = CARTESIAN_POINT ( 'NONE',  ( -34.91506684846627451, -2.000000000000001776, 20.20879313365605867 ) ) ;
#72 = DIRECTION ( 'NONE',  ( -6.938893903907210659E-18, 1.000000000000000000, 1.224646799147444173E-16 ) ) ;
#73 = PLANE ( 'NONE',  #247 ) ;
#74 = EDGE_CURVE ( 'NONE', #955, #689, #595, .T. ) ;
#75 = CARTESIAN_POINT ( 'NONE',  ( -34.91506684846628872, 1.009807621173995029, 29.85096189453352267 ) ) ;
#76 = FACE_OUTER_BOUND ( 'NONE', #190, .T. ) ;
#77 = PLANE ( 'NONE',  #1062 ) ;
#78 = CARTESIAN_POINT ( 'NONE',  ( -20.14999999999999503, -2.000000000000000000, 24.80879313365606009 ) ) ;
#79 = DIRECTION ( 'NONE',  ( -1.000000000000000000, 0.000000000000000000, -3.469446951953586973E-15 ) ) ;
#80 = CARTESIAN_POINT ( 'NONE',  ( -20.14999999999998437, -24.18677324485814140, 21.20879313365605512 ) ) ;
#81 = DIRECTION ( 'NONE',  ( 2.603614714405328307E-15, 1.655706319345982605E-32, -1.000000000000000000 ) ) ;
#82 =( LENGTH_UNIT ( ) NAMED_UNIT ( * ) SI_UNIT ( .MILLI., .METRE. ) );
#83 = EDGE_CURVE ( 'NONE', #22, #193, #625, .T. ) ;
#84 = VECTOR ( 'NONE', #404, 1000.000000000000000 ) ;
#85 = DIRECTION ( 'NONE',  ( 1.000000000000000000, 6.938893903866751493E-18, 7.089404221401388979E-17 ) ) ;
#86 = CARTESIAN_POINT ( 'NONE',  ( -34.91506684846627451, 3.300000000044078785, 8.200000000238416575 ) ) ;
#87 = SURFACE_STYLE_FILL_AREA ( #435 ) ;
#88 = LINE ( 'NONE', #661, #127 ) ;
#89 = CARTESIAN_POINT ( 'NONE',  ( 3.841805311886809182, 4.300000000044083670, 9.200000000238427234 ) ) ;
#90 = CARTESIAN_POINT ( 'NONE',  ( -21.14999999999998082, -3.000000000000002665, 21.20879313365605512 ) ) ;
#91 = ADVANCED_FACE ( 'NONE', ( #172 ), #73, .T. ) ;
#92 = ORIENTED_EDGE ( 'NONE', *, *, #463, .T. ) ;
#93 = LINE ( 'NONE', #33, #567 ) ;
#94 = CLOSED_SHELL ( 'NONE', ( #752, #998, #882, #134, #829, #699, #451, #483, #993, #40, #356, #921, #416, #225, #97, #303, #477, #370, #342, #120, #714, #890, #573, #543, #623, #192, #506, #501, #390, #1053, #91, #616, #144, #868, #872, #965, #113, #1076 ) ) ;
#95 = CYLINDRICAL_SURFACE ( 'NONE', #708, 2.350000000000001421 ) ;
#96 = PLANE ( 'NONE',  #629 ) ;
#97 = ADVANCED_FACE ( 'NONE', ( #263 ), #504, .T. ) ;
#98 = PRESENTATION_STYLE_ASSIGNMENT (( #253 ) ) ;
#99 = ORIENTED_EDGE ( 'NONE', *, *, #293, .F. ) ;
#100 = CARTESIAN_POINT ( 'NONE',  ( -35.41506684846628161, -2.500000000000003997, 21.20879313365605512 ) ) ;
#101 = ORIENTED_EDGE ( 'NONE', *, *, #601, .F. ) ;
#102 = FILL_AREA_STYLE ('',( #31 ) ) ;
#103 = EDGE_LOOP ( 'NONE', ( #300, #606, #702, #877 ) ) ;
#104 = VERTEX_POINT ( 'NONE', #744 ) ;
#105 = EDGE_LOOP ( 'NONE', ( #770, #607, #547, #29 ) ) ;
#106 = AXIS2_PLACEMENT_3D ( 'NONE', #570, #487, #136 ) ;
#107 = ORIENTED_EDGE ( 'NONE', *, *, #497, .F. ) ;
#108 = DIRECTION ( 'NONE',  ( -0.7071067811865463515, -9.150214455694267337E-17, 0.7071067811865486830 ) ) ;
#109 = EDGE_CURVE ( 'NONE', #24, #600, #183, .T. ) ;
#110 = ORIENTED_EDGE ( 'NONE', *, *, #520, .F. ) ;
#111 = ORIENTED_EDGE ( 'NONE', *, *, #200, .F. ) ;
#112 = LINE ( 'NONE', #945, #756 ) ;
#113 = ADVANCED_FACE ( 'NONE', ( #491 ), #145, .T. ) ;
#114 = AXIS2_PLACEMENT_3D ( 'NONE', #244, #79, #987 ) ;
#115 = ORIENTED_EDGE ( 'NONE', *, *, #1061, .T. ) ;
#116 = CARTESIAN_POINT ( 'NONE',  ( -28.03253342423314720, 3.866178210909509971E-11, 16.10288568320374836 ) ) ;
#117 = AXIS2_PLACEMENT_3D ( 'NONE', #240, #571, #393 ) ;
#118 = ORIENTED_EDGE ( 'NONE', *, *, #642, .T. ) ;
#119 = AXIS2_PLACEMENT_3D ( 'NONE', #811, #568, #800 ) ;
#120 = ADVANCED_FACE ( 'NONE', ( #162 ), #760, .F. ) ;
#121 = ORIENTED_EDGE ( 'NONE', *, *, #66, .F. ) ;
#122 = DIRECTION ( 'NONE',  ( 1.000000000000000000, 6.938893902390959910E-18, 2.600993999440928909E-15 ) ) ;
#123 = EDGE_CURVE ( 'NONE', #1037, #46, #575, .T. ) ;
#124 = ORIENTED_EDGE ( 'NONE', *, *, #807, .T. ) ;
#125 = CARTESIAN_POINT ( 'NONE',  ( -21.14999999999999503, -2.000000000000001776, 25.80879313365606009 ) ) ;
#126 = VERTEX_POINT ( 'NONE', #833 ) ;
#127 = VECTOR ( 'NONE', #572, 1000.000000000000000 ) ;
#128 = CARTESIAN_POINT ( 'NONE',  ( 3.841805311886811847, 3.866723952045301005E-11, 8.200000000238420128 ) ) ;
#129 = ORIENTED_EDGE ( 'NONE', *, *, #802, .F. ) ;
#130 = ORIENTED_EDGE ( 'NONE', *, *, #438, .T. ) ;
#131 = DIRECTION ( 'NONE',  ( -1.000000000000000000, -6.938893903866751493E-18, -7.089404221401388979E-17 ) ) ;
#132 = ORIENTED_EDGE ( 'NONE', *, *, #956, .F. ) ;
#133 = PRODUCT_DEFINITION_CONTEXT ( 'detailed design', #489, 'design' ) ;
#134 = ADVANCED_FACE ( 'NONE', ( #12 ), #413, .F. ) ;
#135 = AXIS2_PLACEMENT_3D ( 'NONE', #515, #597, #15 ) ;
#136 = DIRECTION ( 'NONE',  ( 0.000000000000000000, 1.224646799147444173E-16, -1.000000000000000000 ) ) ;
#137 = FACE_OUTER_BOUND ( 'NONE', #48, .T. ) ;
#138 = EDGE_LOOP ( 'NONE', ( #431, #28, #858, #556 ) ) ;
#139 = FACE_OUTER_BOUND ( 'NONE', #103, .T. ) ;
#140 = LINE ( 'NONE', #801, #665 ) ;
#141 = CARTESIAN_POINT ( 'NONE',  ( -21.14999999999998792, -3.000000000000003109, 24.80879313365606009 ) ) ;
#142 = VECTOR ( 'NONE', #55, 1000.000000000000000 ) ;
#143 = DIRECTION ( 'NONE',  ( 2.603614714405328307E-15, 1.224646799146225629E-16, -1.000000000000000000 ) ) ;
#144 = ADVANCED_FACE ( 'NONE', ( #670 ), #830, .F. ) ;
#145 = CONICAL_SURFACE ( 'NONE', #114, 2.999999999999995559, 0.7853981633974466137 ) ;
#146 = CARTESIAN_POINT ( 'NONE',  ( -20.14999999999998792, 0.3000000000440833925, 23.08038475793012267 ) ) ;
#147 =( LENGTH_UNIT ( ) NAMED_UNIT ( * ) SI_UNIT ( .MILLI., .METRE. ) );
#148 = LINE ( 'NONE', #962, #814 ) ;
#149 = EDGE_CURVE ( 'NONE', #184, #772, #992, .T. ) ;
#150 = AXIS2_PLACEMENT_3D ( 'NONE', #783, #548, #51 ) ;
#151 = VECTOR ( 'NONE', #258, 1000.000000000000000 ) ;
#152 = CARTESIAN_POINT ( 'NONE',  ( -35.21506684846628588, 0.6000000000386643828, 29.96076951566884361 ) ) ;
#153 = CARTESIAN_POINT ( 'NONE',  ( -28.03253342423314720, 3.866178210909509971E-11, 16.10288568320374836 ) ) ;
#154 = DIRECTION ( 'NONE',  ( -6.938893903907210659E-18, 1.000000000000000000, -4.919262373421613195E-34 ) ) ;
#155 = LINE ( 'NONE', #399, #142 ) ;
#156 = EDGE_CURVE ( 'NONE', #964, #1028, #391, .T. ) ;
#157 = PLANE ( 'NONE',  #392 ) ;
#158 = PLANE ( 'NONE',  #117 ) ;
#159 = LINE ( 'NONE', #649, #250 ) ;
#160 = PRESENTATION_STYLE_ASSIGNMENT (( #25 ) ) ;
#161 = LINE ( 'NONE', #559, #895 ) ;
#162 = FACE_OUTER_BOUND ( 'NONE', #261, .T. ) ;
#163 = DIRECTION ( 'NONE',  ( -1.000000000000000000, -6.938893903866748412E-18, -7.089404221401388979E-17 ) ) ;
#164 = DIRECTION ( 'NONE',  ( 1.000000000000000000, 6.938893903866753804E-18, 0.000000000000000000 ) ) ;
#165 = DIRECTION ( 'NONE',  ( 0.7071067811865495711, 9.150214455682752433E-17, -0.7071067811865454633 ) ) ;
#166 = CARTESIAN_POINT ( 'NONE',  ( -20.14999999999995239, 3.866698627952303013E-11, 9.200000000238430786 ) ) ;
#167 = DIRECTION ( 'NONE',  ( -1.000000000000000000, -6.938893903866751493E-18, -7.089404221401387746E-17 ) ) ;
#168 = DIRECTION ( 'NONE',  ( 0.7071067811865424657, 0.7071067811865526798, 0.000000000000000000 ) ) ;
#169 = PRODUCT ( 'Adapter Front 2020 Extrusions x2', 'Adapter Front 2020 Extrusions x2', '', ( #937 ) ) ;
#170 = VECTOR ( 'NONE', #4, 1000.000000000000000 ) ;
#171 = EDGE_CURVE ( 'NONE', #193, #22, #997, .T. ) ;
#172 = FACE_OUTER_BOUND ( 'NONE', #454, .T. ) ;
#173 = DIRECTION ( 'NONE',  ( 0.000000000000000000, -1.224646799146225383E-16, 1.000000000000000000 ) ) ;
#174 = CARTESIAN_POINT ( 'NONE',  ( -35.91506684846628161, 3.866696365173513811E-11, 8.200000000238416575 ) ) ;
#175 = ORIENTED_EDGE ( 'NONE', *, *, #57, .T. ) ;
#176 = VERTEX_POINT ( 'NONE', #775 ) ;
#177 = DIRECTION ( 'NONE',  ( -6.938893903866759967E-18, 1.000000000000000000, 1.224646799146225383E-16 ) ) ;
#178 = DIRECTION ( 'NONE',  ( 0.7071067811865501263, 4.906538932313569853E-18, -0.7071067811865450192 ) ) ;
#179 = VERTEX_POINT ( 'NONE', #622 ) ;
#180 = VERTEX_POINT ( 'NONE', #527 ) ;
#181 = ORIENTED_EDGE ( 'NONE', *, *, #662, .T. ) ;
#182 = DIRECTION ( 'NONE',  ( -1.000000000000000000, -6.938893903866751493E-18, -7.089404221401387746E-17 ) ) ;
#183 =( BOUNDED_CURVE ( )  B_SPLINE_CURVE ( 3, ( #919, #913, #496, #658 ),
 .UNSPECIFIED., .F., .T. ) 
 B_SPLINE_CURVE_WITH_KNOTS ( ( 4, 4 ),
 ( 3.982661324157690252, 5.235987755982990599 ),
 .UNSPECIFIED. ) 
 CURVE ( )  GEOMETRIC_REPRESENTATION_ITEM ( )  RATIONAL_B_SPLINE_CURVE ( ( 1.000000000000000000, 0.8733259034539344601, 0.8733259034539344601, 1.000000000000000000 ) ) 
 REPRESENTATION_ITEM ( '' )  );
#184 = VERTEX_POINT ( 'NONE', #373 ) ;
#185 = ORIENTED_EDGE ( 'NONE', *, *, #853, .F. ) ;
#186 = MECHANICAL_DESIGN_GEOMETRIC_PRESENTATION_REPRESENTATION (  '', ( #845 ), #605 ) ;
#187 = EDGE_LOOP ( 'NONE', ( #464, #614, #101 ) ) ;
#188 = PRODUCT_RELATED_PRODUCT_CATEGORY ( 'part', '', ( #169 ) ) ;
#189 = EDGE_CURVE ( 'NONE', #592, #557, #1036, .T. ) ;
#190 = EDGE_LOOP ( 'NONE', ( #638, #266, #787, #848 ) ) ;
#191 = CARTESIAN_POINT ( 'NONE',  ( -20.14999999999995239, 3.866695057918147117E-11, 9.200000000238429010 ) ) ;
#192 = ADVANCED_FACE ( 'NONE', ( #456 ), #705, .T. ) ;
#193 = VERTEX_POINT ( 'NONE', #533 ) ;
#194 = EDGE_LOOP ( 'NONE', ( #836, #526, #1011, #874 ) ) ;
#195 = CARTESIAN_POINT ( 'NONE',  ( -34.91506684846628872, 3.866294082626232862E-11, 31.60000000021017641 ) ) ;
#196 = AXIS2_PLACEMENT_3D ( 'NONE', #34, #378, #797 ) ;
#197 = ORIENTED_EDGE ( 'NONE', *, *, #285, .T. ) ;
#198 = CARTESIAN_POINT ( 'NONE',  ( 3.841805311886808294, 1.119615242309328185, 29.66076951566884645 ) ) ;
#199 =( BOUNDED_CURVE ( )  B_SPLINE_CURVE ( 3, ( #644, #75, #469, #719 ),
 .UNSPECIFIED., .F., .T. ) 
 B_SPLINE_CURVE_WITH_KNOTS ( ( 4, 4 ),
 ( 3.141592653589795781, 4.188790204786391413 ),
 .UNSPECIFIED. ) 
 CURVE ( )  GEOMETRIC_REPRESENTATION_ITEM ( )  RATIONAL_B_SPLINE_CURVE ( ( 1.000000000000000000, 0.9106836025229594345, 0.9106836025229594345, 1.000000000000000000 ) ) 
 REPRESENTATION_ITEM ( '' )  );
#200 = EDGE_CURVE ( 'NONE', #437, #210, #608, .T. ) ;
#201 = LINE ( 'NONE', #100, #839 ) ;
#202 = CARTESIAN_POINT ( 'NONE',  ( -21.15000000000000568, 1.009807621173995251, 29.85096189453352267 ) ) ;
#203 = AXIS2_PLACEMENT_3D ( 'NONE', #948, #859, #1023 ) ;
#204 = VERTEX_POINT ( 'NONE', #701 ) ;
#205 = LINE ( 'NONE', #442, #455 ) ;
#206 = VECTOR ( 'NONE', #884, 1000.000000000000000 ) ;
#207 = ORIENTED_EDGE ( 'NONE', *, *, #293, .T. ) ;
#208 = VECTOR ( 'NONE', #988, 1000.000000000000000 ) ;
#209 = LINE ( 'NONE', #291, #440 ) ;
#210 = VERTEX_POINT ( 'NONE', #1029 ) ;
#211 = EDGE_CURVE ( 'NONE', #179, #628, #1017, .T. ) ;
#212 = ORIENTED_EDGE ( 'NONE', *, *, #304, .F. ) ;
#213 = AXIS2_PLACEMENT_3D ( 'NONE', #711, #235, #806 ) ;
#214 = DIRECTION ( 'NONE',  ( 6.938893903907210659E-18, -1.000000000000000000, -1.224646799147444173E-16 ) ) ;
#215 = VERTEX_POINT ( 'NONE', #125 ) ;
#216 = VERTEX_POINT ( 'NONE', #450 ) ;
#217 = ORIENTED_EDGE ( 'NONE', *, *, #647, .F. ) ;
#218 = CARTESIAN_POINT ( 'NONE',  ( -35.91506684846628161, 0.3000000000440832815, 23.08038475793011912 ) ) ;
#219 = FACE_OUTER_BOUND ( 'NONE', #774, .T. ) ;
#220 = ORIENTED_EDGE ( 'NONE', *, *, #5, .T. ) ;
#221 = ORIENTED_EDGE ( 'NONE', *, *, #809, .F. ) ;
#222 = DIRECTION ( 'NONE',  ( 6.938893903907210659E-18, -1.000000000000000000, 4.919262373421613195E-34 ) ) ;
#223 = CARTESIAN_POINT ( 'NONE',  ( -35.91506684846628161, 0.02998304077491006220, 29.54806785028958771 ) ) ;
#224 = LINE ( 'NONE', #58, #915 ) ;
#225 = ADVANCED_FACE ( 'NONE', ( #852 ), #615, .T. ) ;
#226 = PLANE ( 'NONE',  #106 ) ;
#227 = EDGE_CURVE ( 'NONE', #441, #369, #781, .T. ) ;
#228 = DIRECTION ( 'NONE',  ( -1.000000000000000000, -6.938893903172476089E-18, 0.000000000000000000 ) ) ;
#229 = EDGE_CURVE ( 'NONE', #933, #46, #363, .T. ) ;
#230 = DIRECTION ( 'NONE',  ( 2.251327037390785740E-15, 0.4999999999999997780, -0.8660254037844387076 ) ) ;
#231 = CARTESIAN_POINT ( 'NONE',  ( -34.91506684846628872, 1.119615242309327963, 29.66076951566884290 ) ) ;
#232 = CARTESIAN_POINT ( 'NONE',  ( -35.91506684846628161, -3.287411748596088294E-15, 24.80879313365606009 ) ) ;
#233 = VECTOR ( 'NONE', #350, 999.9999999999998863 ) ;
#234 = FACE_OUTER_BOUND ( 'NONE', #30, .T. ) ;
#235 = DIRECTION ( 'NONE',  ( 0.5773502691896271743, -0.5773502691896219563, 0.5773502691896282846 ) ) ;
#236 = VECTOR ( 'NONE', #983, 1000.000000000000000 ) ;
#237 = CARTESIAN_POINT ( 'NONE',  ( -20.14999999999995239, 3.300000000044080117, 9.200000000238429010 ) ) ;
#238 = DIRECTION ( 'NONE',  ( 2.312964634635746211E-15, 0.000000000000000000, -1.000000000000000000 ) ) ;
#239 = FACE_OUTER_BOUND ( 'NONE', #928, .T. ) ;
#240 = CARTESIAN_POINT ( 'NONE',  ( -21.14999999999992752, -3.000000000000000000, -5.543384524941673256E-14 ) ) ;
#241 = DIRECTION ( 'NONE',  ( -1.000000000000000000, -6.938893903908739847E-18, 1.091214522626106045E-18 ) ) ;
#242 = AXIS2_PLACEMENT_3D ( 'NONE', #218, #1055, #558 ) ;
#243 = FACE_OUTER_BOUND ( 'NONE', #1005, .T. ) ;
#244 = CARTESIAN_POINT ( 'NONE',  ( -20.14999999999998792, 0.3000000000440833925, 23.08038475793012267 ) ) ;
#245 = FACE_OUTER_BOUND ( 'NONE', #958, .T. ) ;
#246 = FACE_OUTER_BOUND ( 'NONE', #367, .T. ) ;
#247 = AXIS2_PLACEMENT_3D ( 'NONE', #683, #602, #1012 ) ;
#248 = EDGE_CURVE ( 'NONE', #610, #215, #205, .T. ) ;
#249 = VECTOR ( 'NONE', #564, 999.9999999999998863 ) ;
#250 = VECTOR ( 'NONE', #916, 1000.000000000000000 ) ;
#251 = DIRECTION ( 'NONE',  ( 1.000000000000000000, 6.938893903866753804E-18, 0.000000000000000000 ) ) ;
#252 = DIRECTION ( 'NONE',  ( 6.938893902389749656E-18, -1.000000000000000000, -1.224646799147444173E-16 ) ) ;
#253 = SURFACE_STYLE_USAGE ( .BOTH. , #841 ) ;
#254 = LINE ( 'NONE', #751, #67 ) ;
#255 = ORIENTED_EDGE ( 'NONE', *, *, #802, .T. ) ;
#256 = VECTOR ( 'NONE', #910, 1000.000000000000000 ) ;
#257 = CARTESIAN_POINT ( 'NONE',  ( -34.91506684846627451, -2.000000000000001776, 20.20879313365605867 ) ) ;
#258 = DIRECTION ( 'NONE',  ( 2.603614714405328307E-15, 1.224646799147444419E-16, -1.000000000000000000 ) ) ;
#259 = EDGE_CURVE ( 'NONE', #785, #437, #541, .T. ) ;
#260 = VERTEX_POINT ( 'NONE', #191 ) ;
#261 = EDGE_LOOP ( 'NONE', ( #27, #277, #512, #850 ) ) ;
#262 = ORIENTED_EDGE ( 'NONE', *, *, #690, .T. ) ;
#263 = FACE_OUTER_BOUND ( 'NONE', #1041, .T. ) ;
#264 = MANIFOLD_SOLID_BREP ( 'Chanfrein4', #94 ) ;
#265 = ORIENTED_EDGE ( 'NONE', *, *, #576, .F. ) ;
#266 = ORIENTED_EDGE ( 'NONE', *, *, #853, .T. ) ;
#267 = ORIENTED_EDGE ( 'NONE', *, *, #382, .T. ) ;
#268 = EDGE_CURVE ( 'NONE', #260, #849, #1069, .T. ) ;
#269 = DIRECTION ( 'NONE',  ( -6.938893903866751493E-18, 1.000000000000000000, -1.509143076343730022E-33 ) ) ;
#270 = ORIENTED_EDGE ( 'NONE', *, *, #259, .T. ) ;
#271 = ORIENTED_EDGE ( 'NONE', *, *, #582, .F. ) ;
#272 = LINE ( 'NONE', #384, #943 ) ;
#273 =( GEOMETRIC_REPRESENTATION_CONTEXT ( 3 ) GLOBAL_UNCERTAINTY_ASSIGNED_CONTEXT ( ( #1048 ) ) GLOBAL_UNIT_ASSIGNED_CONTEXT ( ( #147, #1013, #767 ) ) REPRESENTATION_CONTEXT ( 'NONE', 'WORKASPACE' ) );
#274 = EDGE_CURVE ( 'NONE', #628, #369, #1074, .T. ) ;
#275 = VERTEX_POINT ( 'NONE', #494 ) ;
#276 = CARTESIAN_POINT ( 'NONE',  ( -35.91506684846628161, -3.287411748597541376E-15, 24.80879313365606009 ) ) ;
#277 = ORIENTED_EDGE ( 'NONE', *, *, #918, .F. ) ;
#278 = VERTEX_POINT ( 'NONE', #333 ) ;
#279 = CARTESIAN_POINT ( 'NONE',  ( -20.85000000000001208, 0.6000000000386643828, 29.96076951566884716 ) ) ;
#280 = AXIS2_PLACEMENT_3D ( 'NONE', #555, #131, #697 ) ;
#281 = ORIENTED_EDGE ( 'NONE', *, *, #550, .F. ) ;
#282 = DIRECTION ( 'NONE',  ( -1.000000000000000000, -6.938893903172476089E-18, 0.000000000000000000 ) ) ;
#283 = VERTEX_POINT ( 'NONE', #741 ) ;
#284 = CARTESIAN_POINT ( 'NONE',  ( -21.14999999999998792, -3.000000000000003109, 24.80879313365606009 ) ) ;
#285 = EDGE_CURVE ( 'NONE', #1025, #43, #500, .T. ) ;
#286 = VECTOR ( 'NONE', #429, 1000.000000000000000 ) ;
#287 = VERTEX_POINT ( 'NONE', #654 ) ;
#288 = AXIS2_PLACEMENT_3D ( 'NONE', #1078, #329, #663 ) ;
#289 = ORIENTED_EDGE ( 'NONE', *, *, #310, .T. ) ;
#290 = VECTOR ( 'NONE', #163, 1000.000000000000000 ) ;
#291 = CARTESIAN_POINT ( 'NONE',  ( -34.91506684846627451, -2.500000000000003553, 25.30879313365605654 ) ) ;
#292 = ORIENTED_EDGE ( 'NONE', *, *, #1077, .T. ) ;
#293 = EDGE_CURVE ( 'NONE', #950, #369, #328, .T. ) ;
#294 = ORIENTED_EDGE ( 'NONE', *, *, #1000, .T. ) ;
#295 = EDGE_LOOP ( 'NONE', ( #452, #932, #709, #866, #362, #961, #289, #364, #549, #255 ) ) ;
#296 = DIRECTION ( 'NONE',  ( 6.938893903907210659E-18, -1.000000000000000000, -1.224646799147444173E-16 ) ) ;
#297 = DIRECTION ( 'NONE',  ( -0.7071067811865466846, 0.000000000000000000, -0.7071067811865483499 ) ) ;
#298 = ORIENTED_EDGE ( 'NONE', *, *, #211, .T. ) ;
#299 = AXIS2_PLACEMENT_3D ( 'NONE', #940, #366, #297 ) ;
#300 = ORIENTED_EDGE ( 'NONE', *, *, #582, .T. ) ;
#301 = CARTESIAN_POINT ( 'NONE',  ( -20.14999999999994884, 3.866707304386138533E-11, 8.200000000238356179 ) ) ;
#302 = LINE ( 'NONE', #166, #478 ) ;
#303 = ADVANCED_FACE ( 'NONE', ( #996 ), #77, .T. ) ;
#304 = EDGE_CURVE ( 'NONE', #104, #260, #88, .T. ) ;
#305 = VECTOR ( 'NONE', #412, 1000.000000000000000 ) ;
#306 = DIRECTION ( 'NONE',  ( -2.603614714405328307E-15, -1.655706319345982605E-32, 1.000000000000000000 ) ) ;
#307 = CARTESIAN_POINT ( 'NONE',  ( -34.91506684846626740, 4.300000000044083670, 9.200000000238423681 ) ) ;
#308 = VECTOR ( 'NONE', #735, 1000.000000000000000 ) ;
#309 = EDGE_CURVE ( 'NONE', #844, #954, #904, .T. ) ;
#310 = EDGE_CURVE ( 'NONE', #126, #104, #580, .T. ) ;
#311 = DIRECTION ( 'NONE',  ( 1.000000000000000000, 6.938893903866751493E-18, 0.000000000000000000 ) ) ;
#312 = DIRECTION ( 'NONE',  ( 3.469446951953614189E-15, 3.550762114890027021E-15, -1.000000000000000000 ) ) ;
#313 = DIRECTION ( 'NONE',  ( 4.145627950192051911E-17, -0.8660254037844388186, -0.4999999999999998335 ) ) ;
#314 = VECTOR ( 'NONE', #411, 1000.000000000000000 ) ;
#315 = CARTESIAN_POINT ( 'NONE',  ( -35.91506684846628161, -3.000000000000002665, 21.20879313365605512 ) ) ;
#316 = CARTESIAN_POINT ( 'NONE',  ( -21.14999999999999858, 3.764101615181841609, 25.08038475793011557 ) ) ;
#317 = FACE_OUTER_BOUND ( 'NONE', #624, .T. ) ;
#318 = LINE ( 'NONE', #906, #999 ) ;
#319 = LINE ( 'NONE', #315, #396 ) ;
#320 = DIRECTION ( 'NONE',  ( 2.251327037390785740E-15, 0.4999999999999998335, -0.8660254037844388186 ) ) ;
#321 = DIRECTION ( 'NONE',  ( 6.938893902389430722E-18, -1.000000000000000000, 4.919262372345598321E-34 ) ) ;
#322 = PRODUCT_DEFINITION ( 'UNKNOWN', '', #881, #133 ) ;
#323 = VECTOR ( 'NONE', #164, 1000.000000000000000 ) ;
#324 = CARTESIAN_POINT ( 'NONE',  ( -21.14999999999999503, 4.300000000044083670, 23.08038475793011912 ) ) ;
#325 = DIRECTION ( 'NONE',  ( -6.938893903866751493E-18, 1.000000000000000000, -1.509143076343729851E-33 ) ) ;
#326 = DIRECTION ( 'NONE',  ( -0.7071067811865486830, 0.7071067811865463515, 6.409875621278493053E-17 ) ) ;
#327 = CARTESIAN_POINT ( 'NONE',  ( -35.91506684846628161, -2.000000000000006661, 24.80879313365606009 ) ) ;
#328 = LINE ( 'NONE', #984, #314 ) ;
#329 = DIRECTION ( 'NONE',  ( -0.5773502691896224004, 0.5773502691896303940, -0.5773502691896245098 ) ) ;
#330 = DIRECTION ( 'NONE',  ( 0.000000000000000000, -1.224646799146225383E-16, 1.000000000000000000 ) ) ;
#331 = DIRECTION ( 'NONE',  ( 0.5773502691896267303, 0.5773502691896272854, -0.5773502691896233996 ) ) ;
#332 = LINE ( 'NONE', #1059, #521 ) ;
#333 = CARTESIAN_POINT ( 'NONE',  ( -21.14999999999999858, 3.764101615181838056, 25.08038475793011912 ) ) ;
#334 = CARTESIAN_POINT ( 'NONE',  ( -21.14999999999992752, -3.000000000000000000, -5.543384524941673256E-14 ) ) ;
#335 = EDGE_CURVE ( 'NONE', #283, #630, #254, .T. ) ;
#336 = LINE ( 'NONE', #666, #449 ) ;
#337 = VECTOR ( 'NONE', #693, 1000.000000000000000 ) ;
#338 = PLANE ( 'NONE',  #871 ) ;
#339 = CIRCLE ( 'NONE', #863, 2.350000000000001421 ) ;
#340 = APPLICATION_CONTEXT ( 'automotive_design' ) ;
#341 = AXIS2_PLACEMENT_3D ( 'NONE', #424, #178, #344 ) ;
#342 = ADVANCED_FACE ( 'NONE', ( #9 ), #338, .T. ) ;
#343 = CARTESIAN_POINT ( 'NONE',  ( -35.91506684846628161, 0.6000000000386642718, 29.36076951566884219 ) ) ;
#344 = DIRECTION ( 'NONE',  ( 6.938893902389430722E-18, -1.000000000000000000, 4.919262372345598321E-34 ) ) ;
#345 =( LENGTH_UNIT ( ) NAMED_UNIT ( * ) SI_UNIT ( .MILLI., .METRE. ) );
#346 = ORIENTED_EDGE ( 'NONE', *, *, #1043, .T. ) ;
#347 = ORIENTED_EDGE ( 'NONE', *, *, #550, .T. ) ;
#348 = ORIENTED_EDGE ( 'NONE', *, *, #211, .F. ) ;
#349 = VECTOR ( 'NONE', #222, 1000.000000000000000 ) ;
#350 = DIRECTION ( 'NONE',  ( -0.7071067811865489050, 1.645406930227259397E-16, 0.7071067811865462405 ) ) ;
#351 = DIRECTION ( 'NONE',  ( 0.000000000000000000, -1.000000000000000000, -1.224646799147444173E-16 ) ) ;
#352 = EDGE_CURVE ( 'NONE', #287, #630, #481, .T. ) ;
#353 = ORIENTED_EDGE ( 'NONE', *, *, #563, .F. ) ;
#354 = ORIENTED_EDGE ( 'NONE', *, *, #386, .F. ) ;
#355 = EDGE_LOOP ( 'NONE', ( #185, #966, #118, #763 ) ) ;
#356 = ADVANCED_FACE ( 'NONE', ( #471 ), #475, .F. ) ;
#357 = DIRECTION ( 'NONE',  ( 2.144860714279351250E-18, -0.4999999999999998335, 0.8660254037844388186 ) ) ;
#358 =( BOUNDED_CURVE ( )  B_SPLINE_CURVE ( 3, ( #279, #619, #202, #536 ),
 .UNSPECIFIED., .F., .T. ) 
 B_SPLINE_CURVE_WITH_KNOTS ( ( 4, 4 ),
 ( 5.235987755982990599, 6.283185307179586232 ),
 .UNSPECIFIED. ) 
 CURVE ( )  GEOMETRIC_REPRESENTATION_ITEM ( )  RATIONAL_B_SPLINE_CURVE ( ( 1.000000000000000000, 0.9106836025229594345, 0.9106836025229594345, 1.000000000000000000 ) ) 
 REPRESENTATION_ITEM ( '' )  );
#359 = ORIENTED_EDGE ( 'NONE', *, *, #691, .F. ) ;
#360 = ORIENTED_EDGE ( 'NONE', *, *, #637, .T. ) ;
#361 = ADVANCED_BREP_SHAPE_REPRESENTATION ( 'Adapter Front 2020 Extrusions x2', ( #264, #135 ), #273 ) ;
#362 = ORIENTED_EDGE ( 'NONE', *, *, #508, .T. ) ;
#363 = LINE ( 'NONE', #936, #476 ) ;
#364 = ORIENTED_EDGE ( 'NONE', *, *, #304, .T. ) ;
#365 = LINE ( 'NONE', #843, #426 ) ;
#366 = DIRECTION ( 'NONE',  ( 0.5773502691896280625, -0.5773502691896226224, -0.5773502691896266192 ) ) ;
#367 = EDGE_LOOP ( 'NONE', ( #292, #376, #765, #38, #110 ) ) ;
#368 = DIRECTION ( 'NONE',  ( -1.000000000000000000, -6.938893903866753804E-18, 0.000000000000000000 ) ) ;
#369 = VERTEX_POINT ( 'NONE', #307 ) ;
#370 = ADVANCED_FACE ( 'NONE', ( #317 ), #554, .T. ) ;
#371 = FACE_OUTER_BOUND ( 'NONE', #187, .T. ) ;
#372 = ORIENTED_EDGE ( 'NONE', *, *, #601, .T. ) ;
#373 = CARTESIAN_POINT ( 'NONE',  ( -21.14999999999998082, -3.000000000000002665, 21.20879313365605512 ) ) ;
#374 = ORIENTED_EDGE ( 'NONE', *, *, #969, .T. ) ;
#375 = DIRECTION ( 'NONE',  ( -2.251327037390785740E-15, -0.4999999999999998335, 0.8660254037844387076 ) ) ;
#376 = ORIENTED_EDGE ( 'NONE', *, *, #1061, .F. ) ;
#377 = ORIENTED_EDGE ( 'NONE', *, *, #421, .T. ) ;
#378 = DIRECTION ( 'NONE',  ( -0.5773502691896236216, -0.5773502691896256200, 0.5773502691896280625 ) ) ;
#379 = ORIENTED_EDGE ( 'NONE', *, *, #773, .F. ) ;
#380 = PRESENTATION_LAYER_ASSIGNMENT (  '', '', ( #845 ) ) ;
#381 = EDGE_LOOP ( 'NONE', ( #1030, #851, #862, #700 ) ) ;
#382 = EDGE_CURVE ( 'NONE', #287, #964, #148, .T. ) ;
#383 = CARTESIAN_POINT ( 'NONE',  ( -21.14999999999998437, -3.000000000000002665, 20.20879313365605867 ) ) ;
#384 = CARTESIAN_POINT ( 'NONE',  ( -21.14999999999995595, 4.300000000044083670, 8.200000000238414799 ) ) ;
#385 = ORIENTED_EDGE ( 'NONE', *, *, #268, .F. ) ;
#386 = EDGE_CURVE ( 'NONE', #628, #954, #650, .T. ) ;
#387 = VECTOR ( 'NONE', #732, 1000.000000000000000 ) ;
#388 = DIRECTION ( 'NONE',  ( -6.938893903866751493E-18, 1.000000000000000000, -1.509143076343730022E-33 ) ) ;
#389 = LINE ( 'NONE', #899, #54 ) ;
#390 = ADVANCED_FACE ( 'NONE', ( #967 ), #854, .T. ) ;
#391 = CIRCLE ( 'NONE', #581, 0.5999999999999999778 ) ;
#392 = AXIS2_PLACEMENT_3D ( 'NONE', #574, #640, #912 ) ;
#393 = DIRECTION ( 'NONE',  ( -2.603614714405328307E-15, -1.224646799147444419E-16, 1.000000000000000000 ) ) ;
#394 = CARTESIAN_POINT ( 'NONE',  ( -34.91506684846627451, 3.866698627952303013E-11, 8.200000000238416575 ) ) ;
#395 = PLANE ( 'NONE',  #990 ) ;
#396 = VECTOR ( 'NONE', #648, 1000.000000000000000 ) ;
#397 = FACE_OUTER_BOUND ( 'NONE', #617, .T. ) ;
#398 = CARTESIAN_POINT ( 'NONE',  ( -35.91506684846628161, -2.724074220988263383E-15, 20.20879313365605867 ) ) ;
#399 = CARTESIAN_POINT ( 'NONE',  ( -34.91506684846626740, 4.300000000044083670, 23.08038475793012267 ) ) ;
#400 = VECTOR ( 'NONE', #143, 1000.000000000000000 ) ;
#401 = EDGE_CURVE ( 'NONE', #369, #955, #155, .T. ) ;
#402 = DIRECTION ( 'NONE',  ( 0.7071067811865423547, 0.6123724356957991333, 0.3535533905932760623 ) ) ;
#403 = LINE ( 'NONE', #561, #249 ) ;
#404 = DIRECTION ( 'NONE',  ( -0.7071067811865489050, -9.150214455682759828E-17, 0.7071067811865462405 ) ) ;
#405 = DIRECTION ( 'NONE',  ( 0.7071067811865510144, 0.7071067811865441310, 2.710699169273755521E-15 ) ) ;
#406 = EDGE_CURVE ( 'NONE', #204, #861, #818, .T. ) ;
#407 = CARTESIAN_POINT ( 'NONE',  ( -35.91506684846628161, 2.898076211397399238, 24.58038475793011912 ) ) ;
#408 = CARTESIAN_POINT ( 'NONE',  ( -14.65849391076540265, 3.866484551561688018E-11, 26.70029922289064217 ) ) ;
#409 = PLANE ( 'NONE',  #759 ) ;
#410 = DIRECTION ( 'NONE',  ( -1.091214522630153386E-18, 5.832936880726608536E-13, -1.000000000000000000 ) ) ;
#411 = DIRECTION ( 'NONE',  ( 4.642866022936209289E-15, 0.7071067811865463515, 0.7071067811865487940 ) ) ;
#412 = DIRECTION ( 'NONE',  ( -6.938893903866751493E-18, 1.000000000000000000, -1.509143076343729851E-33 ) ) ;
#413 = PLANE ( 'NONE',  #445 ) ;
#414 = LINE ( 'NONE', #1002, #724 ) ;
#415 = DIRECTION ( 'NONE',  ( -6.938893903866751493E-18, 1.000000000000000000, -1.509143076343729851E-33 ) ) ;
#416 = ADVANCED_FACE ( 'NONE', ( #562 ), #226, .T. ) ;
#417 = CARTESIAN_POINT ( 'NONE',  ( -21.14999999999995595, 3.866706610496748142E-11, 8.200000000238418352 ) ) ;
#418 = CARTESIAN_POINT ( 'NONE',  ( -35.91506684846628161, -3.000000000000002665, 20.20879313365605867 ) ) ;
#419 =( NAMED_UNIT ( * ) PLANE_ANGLE_UNIT ( ) SI_UNIT ( $, .RADIAN. ) );
#420 = CARTESIAN_POINT ( 'NONE',  ( -20.14999999999998437, 3.866547992617422944E-11, 21.20879313365605867 ) ) ;
#421 = EDGE_CURVE ( 'NONE', #684, #179, #577, .T. ) ;
#422 = EDGE_CURVE ( 'NONE', #600, #604, #389, .T. ) ;
#423 = CARTESIAN_POINT ( 'NONE',  ( -28.03253342423314720, 4.300000000044083670, 16.10288568320374836 ) ) ;
#424 = CARTESIAN_POINT ( 'NONE',  ( -20.14999999999995239, -24.18677324485814140, 9.200000000238429010 ) ) ;
#425 = AXIS2_PLACEMENT_3D ( 'NONE', #838, #269, #687 ) ;
#426 = VECTOR ( 'NONE', #758, 1000.000000000000000 ) ;
#427 = ORIENTED_EDGE ( 'NONE', *, *, #691, .T. ) ;
#428 = DIRECTION ( 'NONE',  ( -6.938893902389749656E-18, 1.000000000000000000, 1.224646799147444173E-16 ) ) ;
#429 = DIRECTION ( 'NONE',  ( -0.7071067811865477948, 8.168906669011137618E-17, -0.7071067811865473507 ) ) ;
#430 = CARTESIAN_POINT ( 'NONE',  ( -20.14999999999995239, 3.300000000044080117, 9.200000000238429010 ) ) ;
#431 = ORIENTED_EDGE ( 'NONE', *, *, #57, .F. ) ;
#432 = ORIENTED_EDGE ( 'NONE', *, *, #946, .T. ) ;
#433 = ORIENTED_EDGE ( 'NONE', *, *, #227, .T. ) ;
#434 = DIRECTION ( 'NONE',  ( 6.938893903907210659E-18, -1.000000000000000000, -1.224646799147444173E-16 ) ) ;
#435 = FILL_AREA_STYLE ('',( #522 ) ) ;
#436 = ORIENTED_EDGE ( 'NONE', *, *, #690, .F. ) ;
#437 = VERTEX_POINT ( 'NONE', #231 ) ;
#438 = EDGE_CURVE ( 'NONE', #861, #46, #878, .T. ) ;
#439 = VERTEX_POINT ( 'NONE', #60 ) ;
#440 = VECTOR ( 'NONE', #857, 1000.000000000000000 ) ;
#441 = VERTEX_POINT ( 'NONE', #1060 ) ;
#442 = CARTESIAN_POINT ( 'NONE',  ( -20.64999999999999503, -2.000000000000000000, 25.30879313365606009 ) ) ;
#443 = ORIENTED_EDGE ( 'NONE', *, *, #728, .T. ) ;
#444 = EDGE_LOOP ( 'NONE', ( #674, #947, #294, #938 ) ) ;
#445 = AXIS2_PLACEMENT_3D ( 'NONE', #1, #177, #330 ) ;
#446 = LINE ( 'NONE', #284, #673 ) ;
#447 = VECTOR ( 'NONE', #402, 1000.000000000000000 ) ;
#448 = ORIENTED_EDGE ( 'NONE', *, *, #576, .T. ) ;
#449 = VECTOR ( 'NONE', #168, 999.9999999999998863 ) ;
#450 = CARTESIAN_POINT ( 'NONE',  ( -21.14999999999998437, -2.621620988643255492E-15, 20.20879313365605867 ) ) ;
#451 = ADVANCED_FACE ( 'NONE', ( #465 ), #395, .F. ) ;
#452 = ORIENTED_EDGE ( 'NONE', *, *, #769, .T. ) ;
#453 = FACE_OUTER_BOUND ( 'NONE', #1015, .T. ) ;
#454 = EDGE_LOOP ( 'NONE', ( #791, #354, #121, #132 ) ) ;
#455 = VECTOR ( 'NONE', #42, 1000.000000000000000 ) ;
#456 = FACE_OUTER_BOUND ( 'NONE', #1018, .T. ) ;
#457 = ORIENTED_EDGE ( 'NONE', *, *, #274, .F. ) ;
#458 = CARTESIAN_POINT ( 'NONE',  ( -20.14999999999999503, -3.000000000000003553, 24.80879313365606009 ) ) ;
#459 = EDGE_CURVE ( 'NONE', #216, #933, #50, .T. ) ;
#460 = ORIENTED_EDGE ( 'NONE', *, *, #1034, .F. ) ;
#461 = ORIENTED_EDGE ( 'NONE', *, *, #285, .F. ) ;
#462 = EDGE_LOOP ( 'NONE', ( #1040, #780 ) ) ;
#463 = EDGE_CURVE ( 'NONE', #283, #799, #716, .T. ) ;
#464 = ORIENTED_EDGE ( 'NONE', *, *, #723, .T. ) ;
#465 = FACE_OUTER_BOUND ( 'NONE', #1046, .T. ) ;
#466 = LINE ( 'NONE', #39, #627 ) ;
#467 = EDGE_LOOP ( 'NONE', ( #432, #798, #457, #348 ) ) ;
#468 = ORIENTED_EDGE ( 'NONE', *, *, #189, .T. ) ;
#469 = CARTESIAN_POINT ( 'NONE',  ( -35.02487446960162032, 0.8196152423093269190, 29.96076951566884361 ) ) ;
#470 = EDGE_CURVE ( 'NONE', #861, #184, #140, .T. ) ;
#471 = FACE_OUTER_BOUND ( 'NONE', #704, .T. ) ;
#472 = AXIS2_PLACEMENT_3D ( 'NONE', #963, #122, #703 ) ;
#473 = CARTESIAN_POINT ( 'NONE',  ( -34.91506684846628872, 3.764101615181837612, 25.08038475793011912 ) ) ;
#474 = CARTESIAN_POINT ( 'NONE',  ( -21.14999999999995595, 3.300000000044078785, 8.200000000238418352 ) ) ;
#475 = PLANE ( 'NONE',  #681 ) ;
#476 = VECTOR ( 'NONE', #368, 1000.000000000000000 ) ;
#477 = ADVANCED_FACE ( 'NONE', ( #971 ), #942, .T. ) ;
#478 = VECTOR ( 'NONE', #819, 1000.000000000000114 ) ;
#479 = DIRECTION ( 'NONE',  ( 6.938893903866751493E-18, -1.000000000000000000, 1.509143076345078635E-33 ) ) ;
#480 = DIRECTION ( 'NONE',  ( 1.000000000000000000, 6.938893902389430722E-18, 2.603614714405328307E-15 ) ) ;
#481 = LINE ( 'NONE', #301, #400 ) ;
#482 = VECTOR ( 'NONE', #745, 1000.000000000000000 ) ;
#483 = ADVANCED_FACE ( 'NONE', ( #792 ), #879, .T. ) ;
#484 = CARTESIAN_POINT ( 'NONE',  ( -35.91506684846628161, 2.898076211397398350, 24.58038475793011912 ) ) ;
#485 = CARTESIAN_POINT ( 'NONE',  ( -35.91506684846628161, -2.000000000000006661, 24.80879313365606009 ) ) ;
#486 = CARTESIAN_POINT ( 'NONE',  ( -35.91506684846628161, -2.492108384132426333E-16, -5.493211061100735962E-17 ) ) ;
#487 = DIRECTION ( 'NONE',  ( 6.938893903866753804E-18, -1.000000000000000000, -1.224646799147444173E-16 ) ) ;
#488 = STYLED_ITEM ( 'NONE', ( #160 ), #264 ) ;
#489 = APPLICATION_CONTEXT ( 'automotive_design' ) ;
#490 = CARTESIAN_POINT ( 'NONE',  ( -20.14999999999999147, 2.898076211397397461, 24.58038475793012267 ) ) ;
#491 = FACE_OUTER_BOUND ( 'NONE', #194, .T. ) ;
#492 = CARTESIAN_POINT ( 'NONE',  ( -34.91506684846627451, -2.000000000000001776, 25.80879313365606009 ) ) ;
#493 = DIRECTION ( 'NONE',  ( 0.7071067811865506814, 0.6123724356957910286, 0.3535533905932733978 ) ) ;
#494 = CARTESIAN_POINT ( 'NONE',  ( -20.14999999999998792, 3.300000000044080117, 23.08038475793012267 ) ) ;
#495 = CARTESIAN_POINT ( 'NONE',  ( -20.14999999999999503, 3.866503905332653719E-11, 24.80879313365606009 ) ) ;
#496 = CARTESIAN_POINT ( 'NONE',  ( -20.61738282944491374, 0.3313968279624287527, 29.96076951566884006 ) ) ;
#497 = EDGE_CURVE ( 'NONE', #43, #439, #47, .T. ) ;
#498 = PLANE ( 'NONE',  #589 ) ;
#499 = CARTESIAN_POINT ( 'NONE',  ( -20.15000000000000568, 0.6000000000386643828, 29.36076951566884574 ) ) ;
#500 = LINE ( 'NONE', #587, #593 ) ;
#501 = ADVANCED_FACE ( 'NONE', ( #219 ), #1045, .T. ) ;
#502 = PRODUCT_DEFINITION_SHAPE ( 'NONE', 'NONE',  #322 ) ;
#503 = CARTESIAN_POINT ( 'NONE',  ( -34.91506684846628872, 0.3000000000440832815, 23.08038475793011912 ) ) ;
#504 = PLANE ( 'NONE',  #10 ) ;
#505 = DIRECTION ( 'NONE',  ( -6.938893903866751493E-18, 1.000000000000000000, -1.509143076343729851E-33 ) ) ;
#506 = ADVANCED_FACE ( 'NONE', ( #137 ), #957, .T. ) ;
#507 =( NAMED_UNIT ( * ) SI_UNIT ( $, .STERADIAN. ) SOLID_ANGLE_UNIT ( ) );
#508 = EDGE_CURVE ( 'NONE', #630, #610, #712, .T. ) ;
#509 = DIRECTION ( 'NONE',  ( 1.529500441772202098E-18, 1.224646799147444173E-16, -1.000000000000000000 ) ) ;
#510 = LINE ( 'NONE', #578, #151 ) ;
#511 = ORIENTED_EDGE ( 'NONE', *, *, #156, .T. ) ;
#512 = ORIENTED_EDGE ( 'NONE', *, *, #35, .F. ) ;
#513 = CARTESIAN_POINT ( 'NONE',  ( -34.91506684846627451, 3.300000000044078785, 8.200000000238416575 ) ) ;
#514 = CARTESIAN_POINT ( 'NONE',  ( -34.91506684846627451, -3.000000000000003109, 21.20879313365605512 ) ) ;
#515 = CARTESIAN_POINT ( 'NONE',  ( 0.000000000000000000, 0.000000000000000000, 0.000000000000000000 ) ) ;
#516 = EDGE_LOOP ( 'NONE', ( #17, #267, #545, #374, #1052, #855 ) ) ;
#517 = ORIENTED_EDGE ( 'NONE', *, *, #918, .T. ) ;
#518 = ORIENTED_EDGE ( 'NONE', *, *, #248, .T. ) ;
#519 = DIRECTION ( 'NONE',  ( -6.938893903866751493E-18, 1.000000000000000000, -1.509143076343730022E-33 ) ) ;
#520 = EDGE_CURVE ( 'NONE', #632, #24, #613, .T. ) ;
#521 = VECTOR ( 'NONE', #736, 999.9999999999998863 ) ;
#522 = FILL_AREA_STYLE_COLOUR ( '', #885 ) ;
#523 = ORIENTED_EDGE ( 'NONE', *, *, #837, .F. ) ;
#524 = ORIENTED_EDGE ( 'NONE', *, *, #422, .T. ) ;
#525 = EDGE_LOOP ( 'NONE', ( #771, #682, #448, #197 ) ) ;
#526 = ORIENTED_EDGE ( 'NONE', *, *, #1031, .F. ) ;
#527 = CARTESIAN_POINT ( 'NONE',  ( -35.91506684846628161, 3.866492966120028996E-11, 24.80879313365606009 ) ) ;
#528 = ORIENTED_EDGE ( 'NONE', *, *, #980, .T. ) ;
#529 = ORIENTED_EDGE ( 'NONE', *, *, #637, .F. ) ;
#530 = PLANE ( 'NONE',  #150 ) ;
#531 = VECTOR ( 'NONE', #1065, 1000.000000000000000 ) ;
#532 = ORIENTED_EDGE ( 'NONE', *, *, #274, .T. ) ;
#533 = CARTESIAN_POINT ( 'NONE',  ( -30.38253342423314862, 4.300000000044083670, 16.10288568320374836 ) ) ;
#534 = ORIENTED_EDGE ( 'NONE', *, *, #946, .F. ) ;
#535 = AXIS2_PLACEMENT_3D ( 'NONE', #276, #108, #434 ) ;
#536 = CARTESIAN_POINT ( 'NONE',  ( -21.15000000000000924, 1.119615242309327963, 29.66076951566884290 ) ) ;
#537 = EDGE_CURVE ( 'NONE', #689, #441, #272, .T. ) ;
#538 = VECTOR ( 'NONE', #1066, 1000.000000000000000 ) ;
#539 = ORIENTED_EDGE ( 'NONE', *, *, #259, .F. ) ;
#540 = AXIS2_PLACEMENT_3D ( 'NONE', #146, #725, #238 ) ;
#541 = LINE ( 'NONE', #786, #959 ) ;
#542 = ORIENTED_EDGE ( 'NONE', *, *, #1000, .F. ) ;
#543 = ADVANCED_FACE ( 'NONE', ( #371 ), #1039, .T. ) ;
#544 = CARTESIAN_POINT ( 'NONE',  ( -35.21506684846628588, 0.6000000000386643828, 29.96076951566884361 ) ) ;
#545 = ORIENTED_EDGE ( 'NONE', *, *, #621, .T. ) ;
#546 = MECHANICAL_DESIGN_GEOMETRIC_PRESENTATION_REPRESENTATION (  '', ( #488 ), #1008 ) ;
#547 = ORIENTED_EDGE ( 'NONE', *, *, #123, .F. ) ;
#548 = DIRECTION ( 'NONE',  ( -0.5773502691896235106, -0.5773502691896257311, -0.5773502691896279515 ) ) ;
#549 = ORIENTED_EDGE ( 'NONE', *, *, #268, .T. ) ;
#550 = EDGE_CURVE ( 'NONE', #204, #776, #209, .T. ) ;
#551 = ORIENTED_EDGE ( 'NONE', *, *, #773, .T. ) ;
#552 = ORIENTED_EDGE ( 'NONE', *, *, #734, .T. ) ;
#553 = UNCERTAINTY_MEASURE_WITH_UNIT (LENGTH_MEASURE( 1.000000000000000082E-05 ), #345, 'distance_accuracy_value', 'NONE');
#554 = PLANE ( 'NONE',  #213 ) ;
#555 = CARTESIAN_POINT ( 'NONE',  ( 3.841805311886808738, 0.3000000000440835590, 23.08038475793012267 ) ) ;
#556 = ORIENTED_EDGE ( 'NONE', *, *, #459, .F. ) ;
#557 = VERTEX_POINT ( 'NONE', #631 ) ;
#558 = DIRECTION ( 'NONE',  ( 0.000000000000000000, -1.000000000000000000, 0.000000000000000000 ) ) ;
#559 = CARTESIAN_POINT ( 'NONE',  ( -34.91506684846627451, 3.866549993762179381E-11, 20.20879313365605867 ) ) ;
#560 = VECTOR ( 'NONE', #320, 999.9999999999998863 ) ;
#561 = CARTESIAN_POINT ( 'NONE',  ( -20.64999999999998437, -2.000000000000000444, 20.70879313365605512 ) ) ;
#562 = FACE_OUTER_BOUND ( 'NONE', #793, .T. ) ;
#563 = EDGE_CURVE ( 'NONE', #799, #776, #466, .T. ) ;
#564 = DIRECTION ( 'NONE',  ( 0.7071067811865479058, 1.991355245087123916E-15, 0.7071067811865472397 ) ) ;
#565 = CARTESIAN_POINT ( 'NONE',  ( -20.14999999999999147, 2.898076211397397461, 24.58038475793012267 ) ) ;
#566 = DIRECTION ( 'NONE',  ( 0.000000000000000000, 1.000000000000000000, 1.224646799147444173E-16 ) ) ;
#567 = VECTOR ( 'NONE', #428, 1000.000000000000000 ) ;
#568 = DIRECTION ( 'NONE',  ( -1.000000000000000000, -6.938893903866756886E-18, -7.089404221401387746E-17 ) ) ;
#569 = LINE ( 'NONE', #903, #84 ) ;
#570 = CARTESIAN_POINT ( 'NONE',  ( 2.081668171160028067E-17, -3.000000000000000000, -3.673940397442332518E-16 ) ) ;
#571 = DIRECTION ( 'NONE',  ( -0.7071067811865494601, 0.7071067811865456854, -1.754438014529533345E-15 ) ) ;
#572 = DIRECTION ( 'NONE',  ( 2.603614714405328307E-15, 1.224646799146225629E-16, -1.000000000000000000 ) ) ;
#573 = ADVANCED_FACE ( 'NONE', ( #453 ), #530, .T. ) ;
#574 = CARTESIAN_POINT ( 'NONE',  ( 2.081668171160029916E-17, -3.000000000000002665, 21.20879313365605512 ) ) ;
#575 = LINE ( 'NONE', #257, #894 ) ;
#576 = EDGE_CURVE ( 'NONE', #950, #1025, #112, .T. ) ;
#577 = CIRCLE ( 'NONE', #242, 2.999999999999999112 ) ;
#578 = CARTESIAN_POINT ( 'NONE',  ( -20.14999999999994884, -1.999999999999998224, 8.000000000201710648 ) ) ;
#579 = CYLINDRICAL_SURFACE ( 'NONE', #1075, 2.350000000000001421 ) ;
#580 = LINE ( 'NONE', #420, #256 ) ;
#581 = AXIS2_PLACEMENT_3D ( 'NONE', #343, #677, #1006 ) ;
#582 = EDGE_CURVE ( 'NONE', #610, #772, #446, .T. ) ;
#583 = LINE ( 'NONE', #901, #538 ) ;
#584 = LINE ( 'NONE', #513, #233 ) ;
#585 = CARTESIAN_POINT ( 'NONE',  ( 3.841805311886808738, 3.764101615181838056, 25.08038475793012267 ) ) ;
#586 = FACE_OUTER_BOUND ( 'NONE', #1026, .T. ) ;
#587 = CARTESIAN_POINT ( 'NONE',  ( -21.14999999999995595, 3.866706610496747496E-11, 8.200000000238418352 ) ) ;
#588 = CIRCLE ( 'NONE', #11, 4.000000000000000000 ) ;
#589 = AXIS2_PLACEMENT_3D ( 'NONE', #430, #331, #761 ) ;
#590 = CARTESIAN_POINT ( 'NONE',  ( 3.841805311886808294, 4.300000000044083670, 23.08038475793012267 ) ) ;
#591 = LINE ( 'NONE', #924, #482 ) ;
#592 = VERTEX_POINT ( 'NONE', #778 ) ;
#593 = VECTOR ( 'NONE', #321, 1000.000000000000000 ) ;
#594 = EDGE_CURVE ( 'NONE', #600, #210, #358, .T. ) ;
#595 = LINE ( 'NONE', #590, #1038 ) ;
#596 = LINE ( 'NONE', #90, #953 ) ;
#597 = DIRECTION ( 'NONE',  ( 0.000000000000000000, 0.000000000000000000, 1.000000000000000000 ) ) ;
#598 = ORIENTED_EDGE ( 'NONE', *, *, #807, .F. ) ;
#599 = ORIENTED_EDGE ( 'NONE', *, *, #655, .T. ) ;
#600 = VERTEX_POINT ( 'NONE', #1027 ) ;
#601 = EDGE_CURVE ( 'NONE', #933, #184, #870, .T. ) ;
#602 = DIRECTION ( 'NONE',  ( -0.7071067811865462405, -4.906538933386775826E-18, -0.7071067811865487940 ) ) ;
#603 = ORIENTED_EDGE ( 'NONE', *, *, #19, .F. ) ;
#604 = VERTEX_POINT ( 'NONE', #544 ) ;
#605 =( GEOMETRIC_REPRESENTATION_CONTEXT ( 3 ) GLOBAL_UNCERTAINTY_ASSIGNED_CONTEXT ( ( #553 ) ) GLOBAL_UNIT_ASSIGNED_CONTEXT ( ( #345, #419, #762 ) ) REPRESENTATION_CONTEXT ( 'NONE', 'WORKASPACE' ) );
#606 = ORIENTED_EDGE ( 'NONE', *, *, #149, .F. ) ;
#607 = ORIENTED_EDGE ( 'NONE', *, *, #676, .F. ) ;
#608 = LINE ( 'NONE', #198, #860 ) ;
#609 = AXIS2_PLACEMENT_3D ( 'NONE', #746, #726, #312 ) ;
#610 = VERTEX_POINT ( 'NONE', #78 ) ;
#611 = ORIENTED_EDGE ( 'NONE', *, *, #655, .F. ) ;
#612 =( BOUNDED_CURVE ( )  B_SPLINE_CURVE ( 3, ( #152, #1070, #1051, #223 ),
 .UNSPECIFIED., .F., .T. ) 
 B_SPLINE_CURVE_WITH_KNOTS ( ( 4, 4 ),
 ( 4.188790204786391413, 5.442116636611651792 ),
 .UNSPECIFIED. ) 
 CURVE ( )  GEOMETRIC_REPRESENTATION_ITEM ( )  RATIONAL_B_SPLINE_CURVE ( ( 1.000000000000000000, 0.8733259034539423427, 0.8733259034539423427, 1.000000000000000000 ) ) 
 REPRESENTATION_ITEM ( '' )  );
#613 = LINE ( 'NONE', #789, #768 ) ;
#614 = ORIENTED_EDGE ( 'NONE', *, *, #900, .T. ) ;
#615 = PLANE ( 'NONE',  #535 ) ;
#616 = ADVANCED_FACE ( 'NONE', ( #239 ), #743, .T. ) ;
#617 = EDGE_LOOP ( 'NONE', ( #842, #633, #433, #41 ) ) ;
#618 = ORIENTED_EDGE ( 'NONE', *, *, #563, .T. ) ;
#619 = CARTESIAN_POINT ( 'NONE',  ( -21.04019237886467764, 0.8196152423093269190, 29.96076951566884361 ) ) ;
#620 = ORIENTED_EDGE ( 'NONE', *, *, #19, .T. ) ;
#621 = EDGE_CURVE ( 'NONE', #964, #180, #583, .T. ) ;
#622 = CARTESIAN_POINT ( 'NONE',  ( -35.91506684846628161, 3.300000000044078785, 23.08038475793011912 ) ) ;
#623 = ADVANCED_FACE ( 'NONE', ( #243 ), #157, .T. ) ;
#624 = EDGE_LOOP ( 'NONE', ( #518, #551, #271 ) ) ;
#625 = CIRCLE ( 'NONE', #808, 2.350000000000001421 ) ;
#626 = DIRECTION ( 'NONE',  ( 2.183651513725461118E-15, -0.7071067811865487940, 0.7071067811865463515 ) ) ;
#627 = VECTOR ( 'NONE', #214, 1000.000000000000000 ) ;
#628 = VERTEX_POINT ( 'NONE', #991 ) ;
#629 = AXIS2_PLACEMENT_3D ( 'NONE', #418, #21, #351 ) ;
#630 = VERTEX_POINT ( 'NONE', #495 ) ;
#631 = CARTESIAN_POINT ( 'NONE',  ( -25.68253342423314578, 3.866179841549577131E-11, 16.10288568320374836 ) ) ;
#632 = VERTEX_POINT ( 'NONE', #490 ) ;
#633 = ORIENTED_EDGE ( 'NONE', *, *, #537, .T. ) ;
#634 = ORIENTED_EDGE ( 'NONE', *, *, #66, .T. ) ;
#635 = CARTESIAN_POINT ( 'NONE',  ( -35.91506684846628161, -3.000000000000003553, 25.80879313365606009 ) ) ;
#636 = DIRECTION ( 'NONE',  ( -1.000000000000000000, -6.938893903866751493E-18, -7.089404221401387746E-17 ) ) ;
#637 = EDGE_CURVE ( 'NONE', #43, #260, #302, .T. ) ;
#638 = ORIENTED_EDGE ( 'NONE', *, *, #728, .F. ) ;
#639 = DIRECTION ( 'NONE',  ( -8.497694208994133127E-34, 1.224646799147444173E-16, -1.000000000000000000 ) ) ;
#640 = DIRECTION ( 'NONE',  ( 4.906538933358168062E-18, -0.7071067811865462405, -0.7071067811865489050 ) ) ;
#641 = DIRECTION ( 'NONE',  ( -0.7071067811865462405, 8.168906669016916024E-17, -0.7071067811865489050 ) ) ;
#642 = EDGE_CURVE ( 'NONE', #592, #193, #815, .T. ) ;
#643 = COLOUR_RGB ( '',0.7921568627450980005, 0.8196078431372548767, 0.9333333333333333481 ) ;
#644 = CARTESIAN_POINT ( 'NONE',  ( -34.91506684846628872, 1.119615242309327963, 29.66076951566884290 ) ) ;
#645 = CARTESIAN_POINT ( 'NONE',  ( -20.14999999999994884, 3.300000000044080117, 8.000000000201707095 ) ) ;
#646 = DIRECTION ( 'NONE',  ( 1.000000000000000000, -0.000000000000000000, -0.000000000000000000 ) ) ;
#647 = EDGE_CURVE ( 'NONE', #955, #785, #588, .T. ) ;
#648 = DIRECTION ( 'NONE',  ( 6.938893903907210659E-18, -1.000000000000000000, -1.224646799147444173E-16 ) ) ;
#649 = CARTESIAN_POINT ( 'NONE',  ( -24.34102733499849336, 3.866359256118816699E-11, 36.38283264712381992 ) ) ;
#650 = LINE ( 'NONE', #813, #349 ) ;
#651 = LINE ( 'NONE', #237, #61 ) ;
#652 = FACE_OUTER_BOUND ( 'NONE', #525, .T. ) ;
#653 = PLANE ( 'NONE',  #1021 ) ;
#654 = CARTESIAN_POINT ( 'NONE',  ( -20.15000000000000568, 3.866448159699592656E-11, 29.36076951566884219 ) ) ;
#655 = EDGE_CURVE ( 'NONE', #772, #204, #318, .T. ) ;
#656 = AXIS2_PLACEMENT_3D ( 'NONE', #667, #974, #978 ) ;
#657 = DIRECTION ( 'NONE',  ( -0.7071067811865450192, -1.126022036214506319E-15, -0.7071067811865501263 ) ) ;
#658 = CARTESIAN_POINT ( 'NONE',  ( -20.85000000000001208, 0.6000000000386643828, 29.96076951566884716 ) ) ;
#659 = CARTESIAN_POINT ( 'NONE',  ( -20.14999999999995239, 3.300000000044080117, 9.200000000238429010 ) ) ;
#660 = DIRECTION ( 'NONE',  ( 0.7071067811865487940, 9.150214455682762294E-17, -0.7071067811865463515 ) ) ;
#661 = CARTESIAN_POINT ( 'NONE',  ( -20.14999999999994884, 3.866707304386138533E-11, 8.200000000238356179 ) ) ;
#662 = EDGE_CURVE ( 'NONE', #604, #1028, #612, .T. ) ;
#663 = DIRECTION ( 'NONE',  ( 0.000000000000000000, 0.7071067811865440200, 0.7071067811865511255 ) ) ;
#664 = DIRECTION ( 'NONE',  ( -4.522311906189629701E-17, -0.7071067811865487940, 0.7071067811865462405 ) ) ;
#665 = VECTOR ( 'NONE', #720, 1000.000000000000000 ) ;
#666 = CARTESIAN_POINT ( 'NONE',  ( -35.91506684846628161, 3.300000000044082338, 23.08038475793011912 ) ) ;
#667 = CARTESIAN_POINT ( 'NONE',  ( -34.91506684846626740, 4.300000000044083670, 24.15218152765461568 ) ) ;
#668 = CARTESIAN_POINT ( 'NONE',  ( -35.41506684846627451, 3.800000000044080561, 9.200000000238421904 ) ) ;
#669 = AXIS2_PLACEMENT_3D ( 'NONE', #89, #664, #167 ) ;
#670 = FACE_OUTER_BOUND ( 'NONE', #1047, .T. ) ;
#671 = CARTESIAN_POINT ( 'NONE',  ( -35.91506684846628161, 3.866684118705522395E-11, 9.200000000238420128 ) ) ;
#672 = DIRECTION ( 'NONE',  ( 6.938893902389749656E-18, -1.000000000000000000, -1.224646799147444173E-16 ) ) ;
#673 = VECTOR ( 'NONE', #875, 1000.000000000000114 ) ;
#674 = ORIENTED_EDGE ( 'NONE', *, *, #229, .T. ) ;
#675 = AXIS2_PLACEMENT_3D ( 'NONE', #678, #914, #173 ) ;
#676 = EDGE_CURVE ( 'NONE', #46, #176, #161, .T. ) ;
#677 = DIRECTION ( 'NONE',  ( -1.000000000000000000, -6.938893903907210659E-18, -1.529500441772202869E-18 ) ) ;
#678 = CARTESIAN_POINT ( 'NONE',  ( 3.841805311886811847, 3.866723952045301005E-11, 8.200000000238420128 ) ) ;
#679 = EDGE_LOOP ( 'NONE', ( #468, #443 ) ) ;
#680 = EDGE_LOOP ( 'NONE', ( #529, #461, #873, #385 ) ) ;
#681 = AXIS2_PLACEMENT_3D ( 'NONE', #635, #639, #566 ) ;
#682 = ORIENTED_EDGE ( 'NONE', *, *, #956, .T. ) ;
#683 = CARTESIAN_POINT ( 'NONE',  ( -34.91506684846627451, 4.300000000044083670, 8.200000000238416575 ) ) ;
#684 = VERTEX_POINT ( 'NONE', #407 ) ;
#685 = ORIENTED_EDGE ( 'NONE', *, *, #779, .T. ) ;
#686 = ORIENTED_EDGE ( 'NONE', *, *, #309, .F. ) ;
#687 = DIRECTION ( 'NONE',  ( -1.000000000000000000, 0.000000000000000000, 0.000000000000000000 ) ) ;
#688 = ORIENTED_EDGE ( 'NONE', *, *, #74, .F. ) ;
#689 = VERTEX_POINT ( 'NONE', #324 ) ;
#690 = EDGE_CURVE ( 'NONE', #776, #215, #888, .T. ) ;
#691 = EDGE_CURVE ( 'NONE', #684, #785, #733, .T. ) ;
#692 = ORIENTED_EDGE ( 'NONE', *, *, #422, .F. ) ;
#693 = DIRECTION ( 'NONE',  ( 1.529500441772202869E-18, -1.498530035053704006E-33, -1.000000000000000000 ) ) ;
#694 = AXIS2_PLACEMENT_3D ( 'NONE', #486, #241, #410 ) ;
#695 = EDGE_LOOP ( 'NONE', ( #883, #835, #935, #353 ) ) ;
#696 = CARTESIAN_POINT ( 'NONE',  ( -25.68253342423314578, 4.300000000044083670, 16.10288568320374836 ) ) ;
#697 = DIRECTION ( 'NONE',  ( -1.084202172485504434E-16, 0.000000000000000000, 1.000000000000000000 ) ) ;
#698 = EDGE_CURVE ( 'NONE', #849, #1025, #651, .T. ) ;
#699 = ADVANCED_FACE ( 'NONE', ( #824, #397 ), #889, .F. ) ;
#700 = ORIENTED_EDGE ( 'NONE', *, *, #508, .F. ) ;
#701 = CARTESIAN_POINT ( 'NONE',  ( -34.91506684846627451, -3.000000000000003553, 24.80879313365606009 ) ) ;
#702 = ORIENTED_EDGE ( 'NONE', *, *, #900, .F. ) ;
#703 = DIRECTION ( 'NONE',  ( -2.600993999440924965E-15, -5.832936880726608536E-13, 1.000000000000000000 ) ) ;
#704 = EDGE_LOOP ( 'NONE', ( #262, #220, #92, #618 ) ) ;
#705 = CYLINDRICAL_SURFACE ( 'NONE', #203, 0.5999999999999998668 ) ;
#706 = ORIENTED_EDGE ( 'NONE', *, *, #309, .T. ) ;
#707 = DIRECTION ( 'NONE',  ( -0.7071067811865530128, 0.6123724356957899184, 0.3535533905932708998 ) ) ;
#708 = AXIS2_PLACEMENT_3D ( 'NONE', #738, #325, #1071 ) ;
#709 = ORIENTED_EDGE ( 'NONE', *, *, #1034, .T. ) ;
#710 = EDGE_LOOP ( 'NONE', ( #706, #876, #107, #360, #212, #175, #542, #528 ) ) ;
#711 = CARTESIAN_POINT ( 'NONE',  ( -21.14999999999998792, -3.000000000000003109, 24.80879313365606009 ) ) ;
#712 = LINE ( 'NONE', #458, #905 ) ;
#713 = ORIENTED_EDGE ( 'NONE', *, *, #200, .T. ) ;
#714 = ADVANCED_FACE ( 'NONE', ( #139 ), #158, .F. ) ;
#715 = ORIENTED_EDGE ( 'NONE', *, *, #929, .T. ) ;
#716 = LINE ( 'NONE', #1050, #531 ) ;
#717 = DIRECTION ( 'NONE',  ( 0.000000000000000000, 2.669847849745554669E-15, 1.000000000000000000 ) ) ;
#718 = VECTOR ( 'NONE', #1044, 1000.000000000000000 ) ;
#719 = CARTESIAN_POINT ( 'NONE',  ( -35.21506684846628588, 0.6000000000386643828, 29.96076951566884361 ) ) ;
#720 = DIRECTION ( 'NONE',  ( 1.000000000000000000, 6.938893903866753804E-18, 0.000000000000000000 ) ) ;
#721 = VECTOR ( 'NONE', #754, 1000.000000000000000 ) ;
#722 = VECTOR ( 'NONE', #986, 1000.000000000000000 ) ;
#723 = EDGE_CURVE ( 'NONE', #933, #126, #403, .T. ) ;
#724 = VECTOR ( 'NONE', #505, 1000.000000000000000 ) ;
#725 = DIRECTION ( 'NONE',  ( 1.000000000000000000, 6.938893902389430722E-18, 2.603614714405328307E-15 ) ) ;
#726 = DIRECTION ( 'NONE',  ( -1.000000000000000000, 0.000000000000000000, -3.469446951953586973E-15 ) ) ;
#727 = CARTESIAN_POINT ( 'NONE',  ( 3.841805311886808294, 3.866437384694300720E-11, 31.60000000021017641 ) ) ;
#728 = EDGE_CURVE ( 'NONE', #557, #592, #339, .T. ) ;
#729 = VECTOR ( 'NONE', #823, 1000.000000000000000 ) ;
#730 = CARTESIAN_POINT ( 'NONE',  ( -34.91506684846627451, -3.402937534606965518E-15, 25.80879313365606009 ) ) ;
#731 = CARTESIAN_POINT ( 'NONE',  ( -35.91506684846628161, -2.000000000000006217, 21.20879313365605512 ) ) ;
#732 = DIRECTION ( 'NONE',  ( 6.938893902389749656E-18, -1.000000000000000000, -1.224646799147444173E-16 ) ) ;
#733 = LINE ( 'NONE', #484, #447 ) ;
#734 = EDGE_CURVE ( 'NONE', #776, #1009, #1058, .T. ) ;
#735 = DIRECTION ( 'NONE',  ( -6.938893903907210659E-18, 1.000000000000000000, 1.224646799147444173E-16 ) ) ;
#736 = DIRECTION ( 'NONE',  ( -2.307555223660272833E-15, 0.7071067811865463515, 0.7071067811865487940 ) ) ;
#737 = CARTESIAN_POINT ( 'NONE',  ( -30.38253342423314862, 3.866176580269442812E-11, 16.10288568320374836 ) ) ;
#738 = CARTESIAN_POINT ( 'NONE',  ( -28.03253342423314720, 3.866178210909509971E-11, 16.10288568320374836 ) ) ;
#739 = LINE ( 'NONE', #1072, #865 ) ;
#740 = CARTESIAN_POINT ( 'NONE',  ( -28.03253342423314720, 3.866178210909509971E-11, 16.10288568320374836 ) ) ;
#741 = CARTESIAN_POINT ( 'NONE',  ( -21.14999999999999503, -3.307423196165824623E-15, 25.80879313365606009 ) ) ;
#742 = AXIS2_PLACEMENT_3D ( 'NONE', #499, #480, #827 ) ;
#743 = PLANE ( 'NONE',  #288 ) ;
#744 = CARTESIAN_POINT ( 'NONE',  ( -20.14999999999998437, 3.866547992617422297E-11, 21.20879313365605867 ) ) ;
#745 = DIRECTION ( 'NONE',  ( -1.529500441772202098E-18, -1.224646799147444173E-16, 1.000000000000000000 ) ) ;
#746 = CARTESIAN_POINT ( 'NONE',  ( -21.14999999999999503, 0.3000000000440833925, 23.08038475793011912 ) ) ;
#747 = CARTESIAN_POINT ( 'NONE',  ( -20.14999999999995239, 4.300000000044083670, 9.200000000238429010 ) ) ;
#748 = DIRECTION ( 'NONE',  ( -1.000000000000000000, 0.000000000000000000, 0.000000000000000000 ) ) ;
#749 = AXIS2_PLACEMENT_3D ( 'NONE', #65, #646, #979 ) ;
#750 = CARTESIAN_POINT ( 'NONE',  ( -34.91506684846626740, 4.300000000044083670, 23.08038475793011912 ) ) ;
#751 = CARTESIAN_POINT ( 'NONE',  ( 0.1502992226523011121, 3.866766598459553569E-11, 4.508493911003887078 ) ) ;
#752 = ADVANCED_FACE ( 'NONE', ( #816 ), #892, .T. ) ;
#753 = AXIS2_PLACEMENT_3D ( 'NONE', #907, #923, #509 ) ;
#754 = DIRECTION ( 'NONE',  ( -2.603614714405328307E-15, -1.224646799147444419E-16, 1.000000000000000000 ) ) ;
#755 = DIRECTION ( 'NONE',  ( 0.7071067811865473507, 9.150214455586957602E-17, -0.7071067811865477948 ) ) ;
#756 = VECTOR ( 'NONE', #1032, 1000.000000000000000 ) ;
#757 = ORIENTED_EDGE ( 'NONE', *, *, #788, .T. ) ;
#758 = DIRECTION ( 'NONE',  ( -0.7071067811865489050, 0.7071067811865462405, -1.948108939030808854E-15 ) ) ;
#759 = AXIS2_PLACEMENT_3D ( 'NONE', #970, #804, #982 ) ;
#760 = PLANE ( 'NONE',  #753 ) ;
#761 = DIRECTION ( 'NONE',  ( -0.7071067811865479058, 0.7071067811865471286, 0.000000000000000000 ) ) ;
#762 =( NAMED_UNIT ( * ) SI_UNIT ( $, .STERADIAN. ) SOLID_ANGLE_UNIT ( ) );
#763 = ORIENTED_EDGE ( 'NONE', *, *, #171, .T. ) ;
#764 = FACE_OUTER_BOUND ( 'NONE', #355, .T. ) ;
#765 = ORIENTED_EDGE ( 'NONE', *, *, #594, .F. ) ;
#766 = SURFACE_SIDE_STYLE ('',( #867 ) ) ;
#767 =( NAMED_UNIT ( * ) SI_UNIT ( $, .STERADIAN. ) SOLID_ANGLE_UNIT ( ) );
#769 = EDGE_CURVE ( 'NONE', #275, #632, #1003, .T. ) ;
#768 = VECTOR ( 'NONE', #375, 1000.000000000000000 ) ;
#770 = ORIENTED_EDGE ( 'NONE', *, *, #980, .F. ) ;
#771 = ORIENTED_EDGE ( 'NONE', *, *, #497, .T. ) ;
#772 = VERTEX_POINT ( 'NONE', #1067 ) ;
#773 = EDGE_CURVE ( 'NONE', #215, #772, #902, .T. ) ;
#774 = EDGE_LOOP ( 'NONE', ( #598, #539, #359, #523, #869 ) ) ;
#775 = CARTESIAN_POINT ( 'NONE',  ( -34.91506684846627451, -2.717135327084396781E-15, 20.20879313365605867 ) ) ;
#776 = VERTEX_POINT ( 'NONE', #492 ) ;
#777 = ORIENTED_EDGE ( 'NONE', *, *, #386, .T. ) ;
#778 = CARTESIAN_POINT ( 'NONE',  ( -30.38253342423314862, 3.866176580269442812E-11, 16.10288568320374836 ) ) ;
#779 = EDGE_CURVE ( 'NONE', #1009, #180, #63, .T. ) ;
#780 = ORIENTED_EDGE ( 'NONE', *, *, #83, .F. ) ;
#781 = LINE ( 'NONE', #37, #56 ) ;
#782 = ORIENTED_EDGE ( 'NONE', *, *, #406, .T. ) ;
#783 = CARTESIAN_POINT ( 'NONE',  ( -34.91506684846627451, -2.000000000000001776, 20.20879313365605867 ) ) ;
#784 = VECTOR ( 'NONE', #405, 1000.000000000000000 ) ;
#785 = VERTEX_POINT ( 'NONE', #473 ) ;
#786 = CARTESIAN_POINT ( 'NONE',  ( -34.91506684846628872, 1.119615242309327741, 29.66076951566884290 ) ) ;
#787 = ORIENTED_EDGE ( 'NONE', *, *, #83, .T. ) ;
#788 = EDGE_CURVE ( 'NONE', #844, #1037, #319, .T. ) ;
#789 = CARTESIAN_POINT ( 'NONE',  ( -20.15000000000000568, 0.2535898385248760434, 29.16076951566883579 ) ) ;
#790 = EDGE_LOOP ( 'NONE', ( #939, #524, #181, #49, #32, #460 ) ) ;
#791 = ORIENTED_EDGE ( 'NONE', *, *, #976, .F. ) ;
#792 = FACE_OUTER_BOUND ( 'NONE', #295, .T. ) ;
#793 = EDGE_LOOP ( 'NONE', ( #782, #18, #794, #599 ) ) ;
#794 = ORIENTED_EDGE ( 'NONE', *, *, #149, .T. ) ;
#795 = UNCERTAINTY_MEASURE_WITH_UNIT (LENGTH_MEASURE( 1.000000000000000082E-05 ), #82, 'distance_accuracy_value', 'NONE');
#796 = DIRECTION ( 'NONE',  ( 0.000000000000000000, 0.4999999999999997780, -0.8660254037844387076 ) ) ;
#797 = DIRECTION ( 'NONE',  ( 0.000000000000000000, -0.7071067811865490160, -0.7071067811865460184 ) ) ;
#798 = ORIENTED_EDGE ( 'NONE', *, *, #401, .F. ) ;
#799 = VERTEX_POINT ( 'NONE', #730 ) ;
#800 = DIRECTION ( 'NONE',  ( 0.000000000000000000, 0.000000000000000000, 1.000000000000000000 ) ) ;
#801 = CARTESIAN_POINT ( 'NONE',  ( -20.15000000000001279, -3.000000000000002665, 21.20879313365605512 ) ) ;
#802 = EDGE_CURVE ( 'NONE', #849, #275, #53, .T. ) ;
#803 = AXIS2_PLACEMENT_3D ( 'NONE', #195, #707, #952 ) ;
#804 = DIRECTION ( 'NONE',  ( -7.089404221401387746E-17, 0.000000000000000000, 1.000000000000000000 ) ) ;
#805 = CARTESIAN_POINT ( 'NONE',  ( -34.91506684846627451, 4.300000000044083670, 8.200000000238416575 ) ) ;
#806 = DIRECTION ( 'NONE',  ( 0.7071067811865482389, 0.000000000000000000, -0.7071067811865469066 ) ) ;
#807 = EDGE_CURVE ( 'NONE', #437, #604, #199, .T. ) ;
#808 = AXIS2_PLACEMENT_3D ( 'NONE', #423, #20, #748 ) ;
#809 = EDGE_CURVE ( 'NONE', #275, #689, #897, .T. ) ;
#810 = VECTOR ( 'NONE', #306, 1000.000000000000000 ) ;
#811 = CARTESIAN_POINT ( 'NONE',  ( 3.841805311886810514, 0.6000000000386644938, 29.36076951566884574 ) ) ;
#812 = CARTESIAN_POINT ( 'NONE',  ( -20.14999999999999147, 3.306381049690054752, 23.87318003303101577 ) ) ;
#813 = CARTESIAN_POINT ( 'NONE',  ( -35.91506684846628161, 3.866611891778504173E-11, 9.200000000238420128 ) ) ;
#814 = VECTOR ( 'NONE', #893, 1000.000000000000000 ) ;
#815 = LINE ( 'NONE', #737, #305 ) ;
#816 = FACE_OUTER_BOUND ( 'NONE', #790, .T. ) ;
#817 = CARTESIAN_POINT ( 'NONE',  ( -35.91506684846628161, 0.02998304077491006220, 29.54806785028958771 ) ) ;
#818 = LINE ( 'NONE', #891, #1049 ) ;
#819 = DIRECTION ( 'NONE',  ( 0.7071067811865450192, -8.168906669011172130E-17, 0.7071067811865501263 ) ) ;
#820 = LINE ( 'NONE', #408, #286 ) ;
#821 = CARTESIAN_POINT ( 'NONE',  ( -20.14999999999998792, 3.300000000044080117, 23.08038475793012623 ) ) ;
#822 = LINE ( 'NONE', #565, #236 ) ;
#823 = DIRECTION ( 'NONE',  ( 1.529500441772202098E-18, 1.224646799146225383E-16, -1.000000000000000000 ) ) ;
#824 = FACE_BOUND ( 'NONE', #462, .T. ) ;
#825 = DIRECTION ( 'NONE',  ( 0.7071067811865489050, 2.816051470871796817E-15, -0.7071067811865462405 ) ) ;
#826 = FACE_OUTER_BOUND ( 'NONE', #680, .T. ) ;
#827 = DIRECTION ( 'NONE',  ( 0.000000000000000000, 0.000000000000000000, -1.000000000000000000 ) ) ;
#828 = CARTESIAN_POINT ( 'NONE',  ( -21.14999999999999503, -3.000000000000003553, 25.80879313365606009 ) ) ;
#829 = ADVANCED_FACE ( 'NONE', ( #652 ), #409, .F. ) ;
#830 = PLANE ( 'NONE',  #669 ) ;
#831 = FACE_BOUND ( 'NONE', #679, .T. ) ;
#832 = DIRECTION ( 'NONE',  ( 0.7071067811865454633, -8.168906669124224526E-17, 0.7071067811865495711 ) ) ;
#833 = CARTESIAN_POINT ( 'NONE',  ( -20.14999999999998437, -1.999999999999999556, 21.20879313365605867 ) ) ;
#834 = FACE_OUTER_BOUND ( 'NONE', #138, .T. ) ;
#835 = ORIENTED_EDGE ( 'NONE', *, *, #779, .F. ) ;
#836 = ORIENTED_EDGE ( 'NONE', *, *, #809, .T. ) ;
#837 = EDGE_CURVE ( 'NONE', #1028, #684, #224, .T. ) ;
#838 = CARTESIAN_POINT ( 'NONE',  ( -28.03253342423314720, 4.300000000044083670, 16.10288568320374836 ) ) ;
#839 = VECTOR ( 'NONE', #1010, 1000.000000000000000 ) ;
#840 = FACE_OUTER_BOUND ( 'NONE', #444, .T. ) ;
#841 = SURFACE_SIDE_STYLE ('',( #87 ) ) ;
#842 = ORIENTED_EDGE ( 'NONE', *, *, #74, .T. ) ;
#843 = CARTESIAN_POINT ( 'NONE',  ( -20.14999999999995239, 3.300000000044080117, 9.200000000238429010 ) ) ;
#844 = VERTEX_POINT ( 'NONE', #977 ) ;
#845 = STYLED_ITEM ( 'NONE', ( #98 ), #361 ) ;
#846 = EDGE_CURVE ( 'NONE', #204, #1009, #739, .T. ) ;
#847 = DIRECTION ( 'NONE',  ( 1.000000000000000000, 6.938893903866759967E-18, 7.089404221401386514E-17 ) ) ;
#848 = ORIENTED_EDGE ( 'NONE', *, *, #642, .F. ) ;
#849 = VERTEX_POINT ( 'NONE', #659 ) ;
#850 = ORIENTED_EDGE ( 'NONE', *, *, #406, .F. ) ;
#851 = ORIENTED_EDGE ( 'NONE', *, *, #5, .F. ) ;
#852 = FACE_OUTER_BOUND ( 'NONE', #695, .T. ) ;
#853 = EDGE_CURVE ( 'NONE', #557, #22, #414, .T. ) ;
#854 = CONICAL_SURFACE ( 'NONE', #749, 4.000000000000000000, 0.7853981633974552734 ) ;
#855 = ORIENTED_EDGE ( 'NONE', *, *, #335, .T. ) ;
#856 = ORIENTED_EDGE ( 'NONE', *, *, #229, .F. ) ;
#857 = DIRECTION ( 'NONE',  ( 3.845925372767142917E-16, 0.7071067811865489050, 0.7071067811865462405 ) ) ;
#858 = ORIENTED_EDGE ( 'NONE', *, *, #723, .F. ) ;
#859 = DIRECTION ( 'NONE',  ( -1.000000000000000000, -6.938893903866756886E-18, -7.089404221401387746E-17 ) ) ;
#860 = VECTOR ( 'NONE', #847, 1000.000000000000000 ) ;
#861 = VERTEX_POINT ( 'NONE', #514 ) ;
#862 = ORIENTED_EDGE ( 'NONE', *, *, #248, .F. ) ;
#863 = AXIS2_PLACEMENT_3D ( 'NONE', #153, #388, #228 ) ;
#864 = CARTESIAN_POINT ( 'NONE',  ( -21.14999999999998082, -3.000000000000002665, 21.20879313365605512 ) ) ;
#865 = VECTOR ( 'NONE', #326, 1000.000000000000114 ) ;
#866 = ORIENTED_EDGE ( 'NONE', *, *, #352, .T. ) ;
#867 = SURFACE_STYLE_FILL_AREA ( #102 ) ;
#868 = ADVANCED_FACE ( 'NONE', ( #826 ), #1007, .T. ) ;
#869 = ORIENTED_EDGE ( 'NONE', *, *, #662, .F. ) ;
#870 = LINE ( 'NONE', #864, #911 ) ;
#871 = AXIS2_PLACEMENT_3D ( 'NONE', #1004, #641, #296 ) ;
#872 = ADVANCED_FACE ( 'NONE', ( #245 ), #498, .T. ) ;
#873 = ORIENTED_EDGE ( 'NONE', *, *, #698, .F. ) ;
#874 = ORIENTED_EDGE ( 'NONE', *, *, #769, .F. ) ;
#875 = DIRECTION ( 'NONE',  ( -0.7071067811865456854, -0.7071067811865493491, 2.526990505616909714E-15 ) ) ;
#876 = ORIENTED_EDGE ( 'NONE', *, *, #976, .T. ) ;
#877 = ORIENTED_EDGE ( 'NONE', *, *, #886, .F. ) ;
#878 = LINE ( 'NONE', #71, #718 ) ;
#879 = PLANE ( 'NONE',  #472 ) ;
#880 = ORIENTED_EDGE ( 'NONE', *, *, #438, .F. ) ;
#881 = PRODUCT_DEFINITION_FORMATION_WITH_SPECIFIED_SOURCE ( 'ANY', '', #169, .NOT_KNOWN. ) ;
#882 = ADVANCED_FACE ( 'NONE', ( #831, #13 ), #994, .F. ) ;
#883 = ORIENTED_EDGE ( 'NONE', *, *, #969, .F. ) ;
#884 = DIRECTION ( 'NONE',  ( -0.7071067811865486830, -3.461332835490417532E-15, -0.7071067811865464625 ) ) ;
#885 = COLOUR_RGB ( '',0.7921568627450980005, 0.8196078431372548767, 0.9333333333333333481 ) ;
#886 = EDGE_CURVE ( 'NONE', #610, #126, #510, .T. ) ;
#887 = DIRECTION ( 'NONE',  ( 1.529500441772202098E-18, 1.224646799147444173E-16, -1.000000000000000000 ) ) ;
#888 = LINE ( 'NONE', #68, #722 ) ;
#889 = PLANE ( 'NONE',  #1056 ) ;
#890 = ADVANCED_FACE ( 'NONE', ( #834 ), #908, .T. ) ;
#891 = CARTESIAN_POINT ( 'NONE',  ( -34.91506684846627451, -3.000000000000000444, -4.207966499134684332E-16 ) ) ;
#892 = CYLINDRICAL_SURFACE ( 'NONE', #119, 0.5999999999999998668 ) ;
#893 = DIRECTION ( 'NONE',  ( -1.000000000000000000, -6.938893903866751493E-18, -7.089404221401387746E-17 ) ) ;
#894 = VECTOR ( 'NONE', #825, 1000.000000000000000 ) ;
#895 = VECTOR ( 'NONE', #72, 1000.000000000000000 ) ;
#896 = AXIS2_PLACEMENT_3D ( 'NONE', #645, #70, #81 ) ;
#897 = LINE ( 'NONE', #1063, #62 ) ;
#898 = PLANE ( 'NONE',  #694 ) ;
#899 = CARTESIAN_POINT ( 'NONE',  ( 3.841805311886810514, 0.6000000000386644938, 29.96076951566884716 ) ) ;
#900 = EDGE_CURVE ( 'NONE', #126, #184, #596, .T. ) ;
#901 = CARTESIAN_POINT ( 'NONE',  ( -35.91506684846628161, 3.866696365173513811E-11, 8.200000000238416575 ) ) ;
#902 = LINE ( 'NONE', #141, #208 ) ;
#903 = CARTESIAN_POINT ( 'NONE',  ( -9.532234201580836341, 3.866878456687993725E-11, -5.174039513229281795 ) ) ;
#904 = LINE ( 'NONE', #174, #729 ) ;
#905 = VECTOR ( 'NONE', #1020, 1000.000000000000000 ) ;
#906 = CARTESIAN_POINT ( 'NONE',  ( -35.91506684846628161, -3.000000000000003553, 24.80879313365606009 ) ) ;
#907 = CARTESIAN_POINT ( 'NONE',  ( -34.91506684846627451, -3.000000000000000444, -4.207966499134684332E-16 ) ) ;
#908 = PLANE ( 'NONE',  #14 ) ;
#909 = DIRECTION ( 'NONE',  ( -1.000000000000000000, -6.938893903172476089E-18, 0.000000000000000000 ) ) ;
#910 = DIRECTION ( 'NONE',  ( -6.938893902389749656E-18, 1.000000000000000000, 1.224646799147444173E-16 ) ) ;
#911 = VECTOR ( 'NONE', #626, 1000.000000000000000 ) ;
#912 = DIRECTION ( 'NONE',  ( -1.000000000000000000, -6.938893903866753804E-18, 0.000000000000000000 ) ) ;
#913 = CARTESIAN_POINT ( 'NONE',  ( -20.35020498391150312, 0.1138312521144401457, 29.80324845594872940 ) ) ;
#914 = DIRECTION ( 'NONE',  ( -6.938893903866759967E-18, 1.000000000000000000, 1.224646799146225383E-16 ) ) ;
#915 = VECTOR ( 'NONE', #973, 1000.000000000000000 ) ;
#916 = DIRECTION ( 'NONE',  ( 0.7071067811865486830, -8.168906669011125292E-17, 0.7071067811865464625 ) ) ;
#917 =( NAMED_UNIT ( * ) PLANE_ANGLE_UNIT ( ) SI_UNIT ( $, .RADIAN. ) );
#918 = EDGE_CURVE ( 'NONE', #1037, #1009, #591, .T. ) ;
#919 = CARTESIAN_POINT ( 'NONE',  ( -20.15000000000000568, 0.02998304077490257860, 29.54806785028956639 ) ) ;
#920 = DIRECTION ( 'NONE',  ( -0.7071067811865455743, -0.7071067811865495711, -2.526990505616906953E-15 ) ) ;
#921 = ADVANCED_FACE ( 'NONE', ( #840 ), #96, .F. ) ;
#922 = ORIENTED_EDGE ( 'NONE', *, *, #698, .T. ) ;
#923 = DIRECTION ( 'NONE',  ( 0.7071067811865462405, 0.7071067811865489050, 8.767712575776087931E-17 ) ) ;
#924 = CARTESIAN_POINT ( 'NONE',  ( -35.91506684846628161, -2.000000000000003553, -2.998614704404965639E-16 ) ) ;
#925 = APPLICATION_PROTOCOL_DEFINITION ( 'draft international standard', 'automotive_design', 1998, #489 ) ;
#926 = ORIENTED_EDGE ( 'NONE', *, *, #35, .T. ) ;
#927 = EDGE_LOOP ( 'NONE', ( #427, #217, #534, #941 ) ) ;
#928 = EDGE_LOOP ( 'NONE', ( #634, #532, #99 ) ) ;
#929 = EDGE_CURVE ( 'NONE', #278, #785, #8, .T. ) ;
#930 = CARTESIAN_POINT ( 'NONE',  ( -34.91506684846627451, -2.000000000000001776, 20.20879313365605867 ) ) ;
#931 = ORIENTED_EDGE ( 'NONE', *, *, #647, .T. ) ;
#932 = ORIENTED_EDGE ( 'NONE', *, *, #520, .T. ) ;
#933 = VERTEX_POINT ( 'NONE', #2 ) ;
#934 = CIRCLE ( 'NONE', #609, 4.000000000000000000 ) ;
#935 = ORIENTED_EDGE ( 'NONE', *, *, #734, .F. ) ;
#936 = CARTESIAN_POINT ( 'NONE',  ( -35.91506684846628161, -2.000000000000001776, 20.20879313365605867 ) ) ;
#937 = PRODUCT_CONTEXT ( 'NONE', #340, 'mechanical' ) ;
#938 = ORIENTED_EDGE ( 'NONE', *, *, #459, .T. ) ;
#939 = ORIENTED_EDGE ( 'NONE', *, *, #109, .T. ) ;
#940 = CARTESIAN_POINT ( 'NONE',  ( -21.14999999999998082, -3.000000000000002665, 21.20879313365605512 ) ) ;
#941 = ORIENTED_EDGE ( 'NONE', *, *, #421, .F. ) ;
#942 = PLANE ( 'NONE',  #196 ) ;
#943 = VECTOR ( 'NONE', #44, 1000.000000000000000 ) ;
#944 = CARTESIAN_POINT ( 'NONE',  ( -20.15000000000000568, 0.02998304077490257860, 29.54806785028956639 ) ) ;
#945 = CARTESIAN_POINT ( 'NONE',  ( 3.841805311886811847, 3.300000000044079229, 8.200000000238420128 ) ) ;
#946 = EDGE_CURVE ( 'NONE', #179, #955, #336, .T. ) ;
#947 = ORIENTED_EDGE ( 'NONE', *, *, #676, .T. ) ;
#948 = CARTESIAN_POINT ( 'NONE',  ( 3.841805311886810514, 0.6000000000386644938, 29.36076951566884574 ) ) ;
#949 = AXIS2_PLACEMENT_3D ( 'NONE', #116, #519, #282 ) ;
#950 = VERTEX_POINT ( 'NONE', #86 ) ;
#951 = VECTOR ( 'NONE', #660, 1000.000000000000000 ) ;
#952 = DIRECTION ( 'NONE',  ( -2.144860714279354332E-18, 0.4999999999999997780, -0.8660254037844387076 ) ) ;
#953 = VECTOR ( 'NONE', #920, 1000.000000000000114 ) ;
#954 = VERTEX_POINT ( 'NONE', #671 ) ;
#955 = VERTEX_POINT ( 'NONE', #750 ) ;
#956 = EDGE_CURVE ( 'NONE', #439, #950, #64, .T. ) ;
#957 = CYLINDRICAL_SURFACE ( 'NONE', #280, 4.000000000000000000 ) ;
#958 = EDGE_LOOP ( 'NONE', ( #922, #346, #603 ) ) ;
#959 = VECTOR ( 'NONE', #357, 999.9999999999998863 ) ;
#960 = ORIENTED_EDGE ( 'NONE', *, *, #123, .T. ) ;
#961 = ORIENTED_EDGE ( 'NONE', *, *, #886, .T. ) ;
#962 = CARTESIAN_POINT ( 'NONE',  ( 3.841805311886810514, 3.866464807358755128E-11, 29.36076951566884574 ) ) ;
#963 = CARTESIAN_POINT ( 'NONE',  ( -20.14999999999994884, -24.18677324485814140, 8.000000000201707095 ) ) ;
#964 = VERTEX_POINT ( 'NONE', #3 ) ;
#965 = ADVANCED_FACE ( 'NONE', ( #586 ), #1073, .T. ) ;
#966 = ORIENTED_EDGE ( 'NONE', *, *, #189, .F. ) ;
#967 = FACE_OUTER_BOUND ( 'NONE', #927, .T. ) ;
#968 = DIRECTION ( 'NONE',  ( -1.000000000000000000, -6.938893903866753804E-18, 0.000000000000000000 ) ) ;
#969 = EDGE_CURVE ( 'NONE', #180, #799, #159, .T. ) ;
#970 = CARTESIAN_POINT ( 'NONE',  ( 3.841805311886811847, 4.300000000044083670, 8.200000000238420128 ) ) ;
#971 = FACE_OUTER_BOUND ( 'NONE', #1033, .T. ) ;
#972 = PRESENTATION_LAYER_ASSIGNMENT (  '', '', ( #488 ) ) ;
#973 = DIRECTION ( 'NONE',  ( -2.144860714279354717E-18, 0.4999999999999998335, -0.8660254037844387076 ) ) ;
#974 = DIRECTION ( 'NONE',  ( -0.7071067811865441310, 0.7071067811865510144, -1.081520134204940744E-18 ) ) ;
#975 = DIRECTION ( 'NONE',  ( -1.000000000000000000, -6.938893903866756886E-18, -7.089404221401387746E-17 ) ) ;
#976 = EDGE_CURVE ( 'NONE', #954, #439, #989, .T. ) ;
#977 = CARTESIAN_POINT ( 'NONE',  ( -35.91506684846628161, 3.866537053404798221E-11, 21.20879313365605512 ) ) ;
#978 = DIRECTION ( 'NONE',  ( 1.529500441772202869E-18, -1.498530035053704006E-33, -1.000000000000000000 ) ) ;
#979 = DIRECTION ( 'NONE',  ( 0.000000000000000000, 0.000000000000000000, -1.000000000000000000 ) ) ;
#980 = EDGE_CURVE ( 'NONE', #176, #844, #569, .T. ) ;
#981 = DIRECTION ( 'NONE',  ( 1.000000000000000000, -0.000000000000000000, -0.000000000000000000 ) ) ;
#982 = DIRECTION ( 'NONE',  ( 1.000000000000000000, 0.000000000000000000, 7.089404221401387746E-17 ) ) ;
#983 = DIRECTION ( 'NONE',  ( -0.7071067811865507924, 0.6123724356957933601, 0.3535533905932692345 ) ) ;
#984 = CARTESIAN_POINT ( 'NONE',  ( -34.91506684846627451, 3.300000000044078785, 8.200000000238416575 ) ) ;
#985 = CIRCLE ( 'NONE', #742, 0.5999999999999998668 ) ;
#986 = DIRECTION ( 'NONE',  ( 1.000000000000000000, 6.938893903866753804E-18, 0.000000000000000000 ) ) ;
#987 = DIRECTION ( 'NONE',  ( -3.469446951953619316E-15, 0.000000000000000000, 1.000000000000000000 ) ) ;
#988 = DIRECTION ( 'NONE',  ( 5.123606694532060578E-15, -0.7071067811865489050, -0.7071067811865462405 ) ) ;
#989 = LINE ( 'NONE', #394, #951 ) ;
#990 = AXIS2_PLACEMENT_3D ( 'NONE', #727, #313, #796 ) ;
#991 = CARTESIAN_POINT ( 'NONE',  ( -35.91506684846628161, 3.300000000044078785, 9.200000000238420128 ) ) ;
#992 = LINE ( 'NONE', #334, #721 ) ;
#993 = ADVANCED_FACE ( 'NONE', ( #234 ), #898, .T. ) ;
#994 = PLANE ( 'NONE',  #675 ) ;
#995 = LINE ( 'NONE', #316, #560 ) ;
#996 = FACE_OUTER_BOUND ( 'NONE', #381, .T. ) ;
#997 = CIRCLE ( 'NONE', #425, 2.350000000000001421 ) ;
#998 = ADVANCED_FACE ( 'NONE', ( #76 ), #579, .F. ) ;
#999 = VECTOR ( 'NONE', #968, 1000.000000000000000 ) ;
#1000 = EDGE_CURVE ( 'NONE', #176, #216, #59, .T. ) ;
#1001 = CARTESIAN_POINT ( 'NONE',  ( 2.081668171160030224E-17, -3.000000000000003109, 24.80879313365606009 ) ) ;
#1002 = CARTESIAN_POINT ( 'NONE',  ( -25.68253342423314578, 3.866179841549577131E-11, 16.10288568320374836 ) ) ;
#1003 = CIRCLE ( 'NONE', #540, 2.999999999999995559 ) ;
#1004 = CARTESIAN_POINT ( 'NONE',  ( -34.91506684846627451, -3.000000000000002665, 20.20879313365605867 ) ) ;
#1005 = EDGE_LOOP ( 'NONE', ( #130, #856, #372, #45 ) ) ;
#1006 = DIRECTION ( 'NONE',  ( 0.000000000000000000, -1.000000000000000000, 0.000000000000000000 ) ) ;
#1007 = PLANE ( 'NONE',  #341 ) ;
#1008 =( GEOMETRIC_REPRESENTATION_CONTEXT ( 3 ) GLOBAL_UNCERTAINTY_ASSIGNED_CONTEXT ( ( #795 ) ) GLOBAL_UNIT_ASSIGNED_CONTEXT ( ( #82, #917, #507 ) ) REPRESENTATION_CONTEXT ( 'NONE', 'WORKASPACE' ) );
#1009 = VERTEX_POINT ( 'NONE', #327 ) ;
#1010 = DIRECTION ( 'NONE',  ( -0.7071067811865487940, 0.7071067811865463515, -2.114642392724567002E-16 ) ) ;
#1011 = ORIENTED_EDGE ( 'NONE', *, *, #1077, .F. ) ;
#1012 = DIRECTION ( 'NONE',  ( 6.938893903907210659E-18, -1.000000000000000000, 4.919262373421613195E-34 ) ) ;
#1013 =( NAMED_UNIT ( * ) PLANE_ANGLE_UNIT ( ) SI_UNIT ( $, .RADIAN. ) );
#1014 = ORIENTED_EDGE ( 'NONE', *, *, #929, .F. ) ;
#1015 = EDGE_LOOP ( 'NONE', ( #926, #960, #880 ) ) ;
#1016 = ORIENTED_EDGE ( 'NONE', *, *, #1043, .F. ) ;
#1017 = LINE ( 'NONE', #1035, #337 ) ;
#1018 = EDGE_LOOP ( 'NONE', ( #692, #52, #111, #124 ) ) ;
#1019 = ORIENTED_EDGE ( 'NONE', *, *, #837, .T. ) ;
#1020 = DIRECTION ( 'NONE',  ( 6.938893902389749656E-18, -1.000000000000000000, -1.224646799147444173E-16 ) ) ;
#1021 = AXIS2_PLACEMENT_3D ( 'NONE', #812, #493, #230 ) ;
#1022 = ORIENTED_EDGE ( 'NONE', *, *, #621, .F. ) ;
#1023 = DIRECTION ( 'NONE',  ( 0.000000000000000000, 0.000000000000000000, 1.000000000000000000 ) ) ;
#1024 = SHAPE_DEFINITION_REPRESENTATION ( #502, #361 ) ;
#1025 = VERTEX_POINT ( 'NONE', #474 ) ;
#1026 = EDGE_LOOP ( 'NONE', ( #620, #36, #221, #129 ) ) ;
#1027 = CARTESIAN_POINT ( 'NONE',  ( -20.85000000000001208, 0.6000000000386643828, 29.96076951566884716 ) ) ;
#1028 = VERTEX_POINT ( 'NONE', #817 ) ;
#1029 = CARTESIAN_POINT ( 'NONE',  ( -21.15000000000000924, 1.119615242309327963, 29.66076951566884290 ) ) ;
#1030 = ORIENTED_EDGE ( 'NONE', *, *, #335, .F. ) ;
#1031 = EDGE_CURVE ( 'NONE', #278, #689, #934, .T. ) ;
#1032 = DIRECTION ( 'NONE',  ( 1.000000000000000000, 6.938893903866751493E-18, 7.089404221401387746E-17 ) ) ;
#1033 = EDGE_LOOP ( 'NONE', ( #347, #552, #23 ) ) ;
#1034 = EDGE_CURVE ( 'NONE', #24, #287, #985, .T. ) ;
#1035 = CARTESIAN_POINT ( 'NONE',  ( -35.91506684846628161, 3.300000000044078785, 8.200000000238418352 ) ) ;
#1036 = CIRCLE ( 'NONE', #949, 2.350000000000001421 ) ;
#1037 = VERTEX_POINT ( 'NONE', #731 ) ;
#1038 = VECTOR ( 'NONE', #85, 1000.000000000000000 ) ;
#1039 = PLANE ( 'NONE',  #299 ) ;
#1040 = ORIENTED_EDGE ( 'NONE', *, *, #171, .F. ) ;
#1041 = EDGE_LOOP ( 'NONE', ( #379, #436, #281, #611 ) ) ;
#1042 = ORIENTED_EDGE ( 'NONE', *, *, #1031, .T. ) ;
#1043 = EDGE_CURVE ( 'NONE', #1025, #441, #332, .T. ) ;
#1044 = DIRECTION ( 'NONE',  ( 1.922962686383571458E-16, 0.7071067811865489050, -0.7071067811865462405 ) ) ;
#1045 = PLANE ( 'NONE',  #803 ) ;
#1046 = EDGE_LOOP ( 'NONE', ( #713, #115, #715, #270 ) ) ;
#1047 = EDGE_LOOP ( 'NONE', ( #207, #16, #1016, #265 ) ) ;
#1048 = UNCERTAINTY_MEASURE_WITH_UNIT (LENGTH_MEASURE( 1.000000000000000082E-05 ), #147, 'distance_accuracy_value', 'NONE');
#1049 = VECTOR ( 'NONE', #887, 1000.000000000000000 ) ;
#1050 = CARTESIAN_POINT ( 'NONE',  ( -35.91506684846628161, -3.409876428510832120E-15, 25.80879313365606009 ) ) ;
#1051 = CARTESIAN_POINT ( 'NONE',  ( -35.71486186455476997, 0.1138312521144545231, 29.80324845594872940 ) ) ;
#1052 = ORIENTED_EDGE ( 'NONE', *, *, #463, .F. ) ;
#1053 = ADVANCED_FACE ( 'NONE', ( #1064 ), #1068, .T. ) ;
#1054 = CARTESIAN_POINT ( 'NONE',  ( 3.841805311886808294, 4.300000000044083670, 24.15218152765461568 ) ) ;
#1055 = DIRECTION ( 'NONE',  ( -1.000000000000000000, -6.938893903907210659E-18, -1.529500441772202869E-18 ) ) ;
#1056 = AXIS2_PLACEMENT_3D ( 'NONE', #1054, #479, #311 ) ;
#1057 = VECTOR ( 'NONE', #154, 1000.000000000000000 ) ;
#1058 = LINE ( 'NONE', #485, #206 ) ;
#1059 = CARTESIAN_POINT ( 'NONE',  ( -21.14999999999995950, 3.800000000044083670, 8.700000000238423681 ) ) ;
#1060 = CARTESIAN_POINT ( 'NONE',  ( -21.14999999999995950, 4.300000000044083670, 9.200000000238425457 ) ) ;
#1061 = EDGE_CURVE ( 'NONE', #210, #278, #995, .T. ) ;
#1062 = AXIS2_PLACEMENT_3D ( 'NONE', #828, #832, #672 ) ;
#1063 = CARTESIAN_POINT ( 'NONE',  ( -20.14999999999998792, 3.300000000044080117, 23.08038475793012267 ) ) ;
#1064 = FACE_OUTER_BOUND ( 'NONE', #467, .T. ) ;
#1065 = DIRECTION ( 'NONE',  ( -1.000000000000000000, -6.938893903866753804E-18, -0.000000000000000000 ) ) ;
#1066 = DIRECTION ( 'NONE',  ( 1.529500441772202098E-18, 1.224646799146225383E-16, -1.000000000000000000 ) ) ;
#1067 = CARTESIAN_POINT ( 'NONE',  ( -21.14999999999998792, -3.000000000000003109, 24.80879313365606009 ) ) ;
#1068 = PLANE ( 'NONE',  #656 ) ;
#1069 = LINE ( 'NONE', #747, #170 ) ;
#1070 = CARTESIAN_POINT ( 'NONE',  ( -35.44768401902137356, 0.3313968279624385227, 29.96076951566884716 ) ) ;
#1071 = DIRECTION ( 'NONE',  ( -1.000000000000000000, -6.938893903172476089E-18, 0.000000000000000000 ) ) ;
#1072 = CARTESIAN_POINT ( 'NONE',  ( -35.91506684846628161, -2.000000000000006661, 24.80879313365606009 ) ) ;
#1073 = PLANE ( 'NONE',  #896 ) ;
#1074 = LINE ( 'NONE', #668, #784 ) ;
#1075 = AXIS2_PLACEMENT_3D ( 'NONE', #740, #415, #909 ) ;
#1076 = ADVANCED_FACE ( 'NONE', ( #246 ), #653, .T. ) ;
#1077 = EDGE_CURVE ( 'NONE', #632, #278, #822, .T. ) ;
#1078 = CARTESIAN_POINT ( 'NONE',  ( -34.91506684846627451, 3.300000000044078785, 8.200000000238416575 ) ) ;
ENDSEC;
END-ISO-10303-21;
