ISO-10303-21;
HEADER;
FILE_DESCRIPTION (( 'STEP AP214' ),
    '1' );
FILE_NAME ('Adapter Front 1515 6mm Slots.STEP',
    '2026-09-02T08:42:01',
    ( '' ),
    ( '' ),
    '',
    '',
    '' );
FILE_SCHEMA (( 'AUTOMOTIVE_DESIGN' ));
ENDSEC;

DATA;
#1 = DIRECTION ( 'NONE',  ( -1.000000000000000000, -6.938893903866753034E-18, -7.089404221401388979E-17 ) ) ;
#2 = LINE ( 'NONE', #343, #168 ) ;
#3 =( NAMED_UNIT ( * ) PLANE_ANGLE_UNIT ( ) SI_UNIT ( $, .RADIAN. ) );
#4 = ORIENTED_EDGE ( 'NONE', *, *, #796, .F. ) ;
#5 = EDGE_CURVE ( 'NONE', #784, #535, #666, .T. ) ;
#6 = CARTESIAN_POINT ( 'NONE',  ( -28.03253342423314720, 4.300000000045251625, 16.10288568320374836 ) ) ;
#7 =( LENGTH_UNIT ( ) NAMED_UNIT ( * ) SI_UNIT ( .MILLI., .METRE. ) );
#8 = DIRECTION ( 'NONE',  ( 0.000000000000000000, 1.224646799147443680E-16, -1.000000000000000000 ) ) ;
#9 = LINE ( 'NONE', #689, #762 ) ;
#10 = ORIENTED_EDGE ( 'NONE', *, *, #261, .F. ) ;
#11 = PRESENTATION_LAYER_ASSIGNMENT (  '', '', ( #458 ) ) ;
#12 = VECTOR ( 'NONE', #177, 1000.000000000000000 ) ;
#13 = FACE_OUTER_BOUND ( 'NONE', #958, .T. ) ;
#14 = FACE_OUTER_BOUND ( 'NONE', #520, .T. ) ;
#15 = CARTESIAN_POINT ( 'NONE',  ( -34.91506684846621056, 3.983522633102377922E-11, 8.200000000238352627 ) ) ;
#16 = CARTESIAN_POINT ( 'NONE',  ( -35.91506684846630293, 3.983445517885542131E-11, 9.200000000238397035 ) ) ;
#17 = ORIENTED_EDGE ( 'NONE', *, *, #911, .F. ) ;
#18 = DIRECTION ( 'NONE',  ( 0.7071067811865437980, 0.6123724356957890302, 0.3535533905932908283 ) ) ;
#19 = LINE ( 'NONE', #760, #854 ) ;
#20 = EDGE_LOOP ( 'NONE', ( #816, #464, #920, #129 ) ) ;
#21 = FACE_BOUND ( 'NONE', #945, .T. ) ;
#22 = DIRECTION ( 'NONE',  ( 2.250102939871682191E-15, 1.410408249620843219E-32, -1.000000000000000000 ) ) ;
#23 = ORIENTED_EDGE ( 'NONE', *, *, #1061, .F. ) ;
#24 = EDGE_CURVE ( 'NONE', #742, #531, #508, .T. ) ;
#25 = ADVANCED_FACE ( 'NONE', ( #329, #1007 ), #991, .F. ) ;
#26 = AXIS2_PLACEMENT_3D ( 'NONE', #238, #932, #78 ) ;
#27 = CIRCLE ( 'NONE', #356, 0.5999999999999999778 ) ;
#28 = VECTOR ( 'NONE', #49, 1000.000000000000000 ) ;
#29 = CARTESIAN_POINT ( 'NONE',  ( -20.35020498391055099, 0.1138312521156510659, 29.80324845594869743 ) ) ;
#30 = ORIENTED_EDGE ( 'NONE', *, *, #342, .T. ) ;
#31 = LINE ( 'NONE', #114, #360 ) ;
#32 = VERTEX_POINT ( 'NONE', #513 ) ;
#33 = CYLINDRICAL_SURFACE ( 'NONE', #1024, 0.5999999999999998668 ) ;
#34 = ADVANCED_FACE ( 'NONE', ( #747 ), #246, .T. ) ;
#35 = CARTESIAN_POINT ( 'NONE',  ( -34.91506684846637398, -2.999999999999919176, 22.60879313366796595 ) ) ;
#36 = ORIENTED_EDGE ( 'NONE', *, *, #849, .F. ) ;
#37 = CARTESIAN_POINT ( 'NONE',  ( -21.14999999999921698, -4.000000000000003553, 23.60879313366804055 ) ) ;
#38 = PLANE ( 'NONE',  #865 ) ;
#39 = AXIS2_PLACEMENT_3D ( 'NONE', #390, #130, #543 ) ;
#40 = ORIENTED_EDGE ( 'NONE', *, *, #489, .T. ) ;
#41 = LINE ( 'NONE', #37, #77 ) ;
#42 = PLANE ( 'NONE',  #1037 ) ;
#43 = PLANE ( 'NONE',  #1010 ) ;
#44 = ORIENTED_EDGE ( 'NONE', *, *, #103, .T. ) ;
#45 = DIRECTION ( 'NONE',  ( 2.250102939871686924E-15, 1.224646799146225629E-16, -1.000000000000000000 ) ) ;
#46 = CARTESIAN_POINT ( 'NONE',  ( -35.91506684846640240, -2.999999999999885425, -8.117999154116568329E-14 ) ) ;
#47 = DIRECTION ( 'NONE',  ( 0.7071067811865513475, 9.150214455682731479E-17, -0.7071067811865436870 ) ) ;
#48 = ORIENTED_EDGE ( 'NONE', *, *, #532, .F. ) ;
#49 = DIRECTION ( 'NONE',  ( -4.166805789339466576E-14, -1.000000000000000000, -1.224646799147444173E-16 ) ) ;
#50 = VECTOR ( 'NONE', #741, 1000.000000000000000 ) ;
#51 = VECTOR ( 'NONE', #685, 1000.000000000000000 ) ;
#52 = ADVANCED_FACE ( 'NONE', ( #670 ), #725, .T. ) ;
#53 = DIRECTION ( 'NONE',  ( -0.7071067811865365815, 0.7071067811865584529, -3.344419541546978820E-15 ) ) ;
#54 = CARTESIAN_POINT ( 'NONE',  ( 3.841805311887887875, 3.764101615183006899, 25.08038475793005873 ) ) ;
#55 = ORIENTED_EDGE ( 'NONE', *, *, #409, .T. ) ;
#56 = AXIS2_PLACEMENT_3D ( 'NONE', #6, #1075, #89 ) ;
#57 = VECTOR ( 'NONE', #125, 1000.000000000000114 ) ;
#58 = ORIENTED_EDGE ( 'NONE', *, *, #1061, .T. ) ;
#59 = CYLINDRICAL_SURFACE ( 'NONE', #369, 2.350000000000001421 ) ;
#60 = PLANE ( 'NONE',  #952 ) ;
#61 = ORIENTED_EDGE ( 'NONE', *, *, #648, .F. ) ;
#62 = DIRECTION ( 'NONE',  ( -0.7071067811865286989, 3.259421753419909969E-14, -0.7071067811865665576 ) ) ;
#63 = DIRECTION ( 'NONE',  ( -1.000000000000000000, -6.938893903866751493E-18, -7.089404221401388979E-17 ) ) ;
#64 = EDGE_CURVE ( 'NONE', #32, #662, #617, .T. ) ;
#65 = CARTESIAN_POINT ( 'NONE',  ( -34.91506684846631714, 4.027273074684366763E-11, 31.60000000020934863 ) ) ;
#66 = ORIENTED_EDGE ( 'NONE', *, *, #859, .F. ) ;
#67 = EDGE_CURVE ( 'NONE', #437, #754, #2, .T. ) ;
#68 = CARTESIAN_POINT ( 'NONE',  ( -25.68253342423314578, 3.983100203830413929E-11, 16.10288568320374836 ) ) ;
#69 = EDGE_CURVE ( 'NONE', #788, #229, #758, .T. ) ;
#70 = VERTEX_POINT ( 'NONE', #15 ) ;
#71 = DIRECTION ( 'NONE',  ( -0.7071067811865584529, -0.7071067811865365815, -5.147828103733180123E-16 ) ) ;
#72 = FACE_OUTER_BOUND ( 'NONE', #1018, .T. ) ;
#73 = DIRECTION ( 'NONE',  ( 6.938893903866751493E-18, -1.000000000000000000, 1.509143076345078806E-33 ) ) ;
#74 = CARTESIAN_POINT ( 'NONE',  ( -35.91506684846629582, 3.983521939212987531E-11, 8.200000000238407694 ) ) ;
#75 = ORIENTED_EDGE ( 'NONE', *, *, #529, .F. ) ;
#76 = CIRCLE ( 'NONE', #533, 2.350000000000001421 ) ;
#77 = VECTOR ( 'NONE', #785, 1000.000000000000000 ) ;
#78 = DIRECTION ( 'NONE',  ( 0.000000000000000000, -1.000000000000000000, -1.224646799147444173E-16 ) ) ;
#79 = DIRECTION ( 'NONE',  ( 2.503614715186211021E-14, 0.4999999999999997780, -0.8660254037844387076 ) ) ;
#80 = DIRECTION ( 'NONE',  ( 0.7071067811865516806, -0.6123724356957992443, -0.3535533905932575216 ) ) ;
#81 = EDGE_LOOP ( 'NONE', ( #255, #222, #373, #903, #88, #1032, #216, #598, #231, #892 ) ) ;
#82 = CARTESIAN_POINT ( 'NONE',  ( -8.332234201574095778, 3.983690167633146087E-11, -3.974039513223805997 ) ) ;
#83 = VERTEX_POINT ( 'NONE', #817 ) ;
#84 = DIRECTION ( 'NONE',  ( 1.000000000000000000, 6.938893903866751493E-18, 7.089404221401388979E-17 ) ) ;
#85 =( NAMED_UNIT ( * ) SI_UNIT ( $, .STERADIAN. ) SOLID_ANGLE_UNIT ( ) );
#86 = ORIENTED_EDGE ( 'NONE', *, *, #859, .T. ) ;
#87 = DIRECTION ( 'NONE',  ( 1.000000000000000000, 6.938893903866767671E-18, 2.907968004580308863E-48 ) ) ;
#88 = ORIENTED_EDGE ( 'NONE', *, *, #877, .T. ) ;
#89 = DIRECTION ( 'NONE',  ( -1.000000000000000000, 0.000000000000000000, 0.000000000000000000 ) ) ;
#90 = EDGE_CURVE ( 'NONE', #628, #470, #668, .T. ) ;
#91 = DIRECTION ( 'NONE',  ( -6.938893903866760738E-18, 1.000000000000000000, 1.224646799146225383E-16 ) ) ;
#92 = DIRECTION ( 'NONE',  ( -0.7071067811865365815, 0.7071067811865584529, -2.131817602687639673E-15 ) ) ;
#93 = ORIENTED_EDGE ( 'NONE', *, *, #5, .F. ) ;
#94 = CLOSED_SHELL ( 'NONE', ( #101, #277, #1074, #769, #982, #25, #875, #288, #52, #919, #181, #134, #34, #924, #708, #150, #496, #209, #961, #226, #271, #1028, #846, #375, #663, #511, #418, #148, #135, #1019, #327, #832, #260, #707, #188, #248, #960, #452 ) ) ;
#95 = DIRECTION ( 'NONE',  ( 4.163336342344631745E-14, 1.000000000000000000, 0.000000000000000000 ) ) ;
#96 = CARTESIAN_POINT ( 'NONE',  ( -34.91506684846627451, 1.119615242310496361, 29.66076951566878250 ) ) ;
#97 = VECTOR ( 'NONE', #1017, 1000.000000000000000 ) ;
#98 = VERTEX_POINT ( 'NONE', #341 ) ;
#99 = EDGE_CURVE ( 'NONE', #155, #32, #675, .T. ) ;
#100 = LINE ( 'NONE', #351, #51 ) ;
#101 = ADVANCED_FACE ( 'NONE', ( #172 ), #156, .T. ) ;
#102 = ORIENTED_EDGE ( 'NONE', *, *, #355, .T. ) ;
#103 = EDGE_CURVE ( 'NONE', #811, #860, #507, .T. ) ;
#104 = APPLICATION_CONTEXT ( 'automotive_design' ) ;
#105 = VECTOR ( 'NONE', #154, 1000.000000000000000 ) ;
#106 = CARTESIAN_POINT ( 'NONE',  ( -35.91506684846621766, 2.898076211398679103, 24.58038475793009070 ) ) ;
#107 = ORIENTED_EDGE ( 'NONE', *, *, #69, .T. ) ;
#108 = AXIS2_PLACEMENT_3D ( 'NONE', #517, #848, #420 ) ;
#109 = VECTOR ( 'NONE', #577, 1000.000000000000000 ) ;
#110 = AXIS2_PLACEMENT_3D ( 'NONE', #263, #91, #764 ) ;
#111 = DIRECTION ( 'NONE',  ( -4.163336342344179254E-14, -1.000000000000000000, 0.000000000000000000 ) ) ;
#112 = ORIENTED_EDGE ( 'NONE', *, *, #949, .T. ) ;
#113 = EDGE_CURVE ( 'NONE', #730, #306, #995, .T. ) ;
#114 = CARTESIAN_POINT ( 'NONE',  ( -20.14999999999894342, 3.983532878425612254E-11, 8.200000000238240716 ) ) ;
#115 = ORIENTED_EDGE ( 'NONE', *, *, #443, .F. ) ;
#116 = DIRECTION ( 'NONE',  ( -1.000000000000000000, -6.938893903866767671E-18, -2.907968004580308863E-48 ) ) ;
#117 = CARTESIAN_POINT ( 'NONE',  ( -21.14999999999899316, 3.983532184536222509E-11, 8.200000000238354403 ) ) ;
#118 = VERTEX_POINT ( 'NONE', #735 ) ;
#119 = CARTESIAN_POINT ( 'NONE',  ( -35.91506684846629582, 3.983521939212987531E-11, 8.200000000238407694 ) ) ;
#120 = EDGE_LOOP ( 'NONE', ( #485, #751, #999, #869, #993, #748 ) ) ;
#121 = EDGE_CURVE ( 'NONE', #970, #1030, #548, .T. ) ;
#122 = LINE ( 'NONE', #791, #199 ) ;
#123 = AXIS2_PLACEMENT_3D ( 'NONE', #488, #937, #186 ) ;
#124 = VECTOR ( 'NONE', #152, 1000.000000000000000 ) ;
#125 = DIRECTION ( 'NONE',  ( -4.903554850278037664E-15, 0.7071067811865511255, -0.7071067811865439090 ) ) ;
#126 = VECTOR ( 'NONE', #974, 1000.000000000000000 ) ;
#127 = EDGE_LOOP ( 'NONE', ( #253, #793, #781, #728 ) ) ;
#128 = CARTESIAN_POINT ( 'NONE',  ( -20.14999999999876934, 4.300000000045251625, 9.200000000238453879 ) ) ;
#129 = ORIENTED_EDGE ( 'NONE', *, *, #723, .F. ) ;
#130 = DIRECTION ( 'NONE',  ( 0.7071067811865463515, 0.7071067811865487940, 3.431015147170579942E-15 ) ) ;
#131 = LINE ( 'NONE', #466, #777 ) ;
#132 = VERTEX_POINT ( 'NONE', #657 ) ;
#133 = CARTESIAN_POINT ( 'NONE',  ( 3.841805311887887875, 0.3000000000452519022, 23.08038475793006228 ) ) ;
#134 = ADVANCED_FACE ( 'NONE', ( #430 ), #318, .F. ) ;
#135 = ADVANCED_FACE ( 'NONE', ( #599 ), #278, .T. ) ;
#136 = PLANE ( 'NONE',  #479 ) ;
#137 = CARTESIAN_POINT ( 'NONE',  ( -28.03253342423314720, 3.983098573190346769E-11, 16.10288568320374836 ) ) ;
#138 = ORIENTED_EDGE ( 'NONE', *, *, #537, .T. ) ;
#139 = DIRECTION ( 'NONE',  ( 2.250102939871686924E-15, 1.224646799146225629E-16, -1.000000000000000000 ) ) ;
#140 = EDGE_CURVE ( 'NONE', #574, #1030, #162, .T. ) ;
#141 = ORIENTED_EDGE ( 'NONE', *, *, #567, .F. ) ;
#142 = VECTOR ( 'NONE', #159, 1000.000000000000000 ) ;
#143 = CARTESIAN_POINT ( 'NONE',  ( -20.14999999999894342, 3.983532878425612254E-11, 8.200000000238240716 ) ) ;
#144 = DIRECTION ( 'NONE',  ( 3.469446951953614189E-15, 3.550762114890027021E-15, -1.000000000000000000 ) ) ;
#145 = VERTEX_POINT ( 'NONE', #252 ) ;
#146 = AXIS2_PLACEMENT_3D ( 'NONE', #425, #989, #756 ) ;
#147 = CARTESIAN_POINT ( 'NONE',  ( -21.04019237886367932, 0.8196152423104894336, 29.96076951566878677 ) ) ;
#148 = ADVANCED_FACE ( 'NONE', ( #13 ), #411, .T. ) ;
#149 = AXIS2_PLACEMENT_3D ( 'NONE', #522, #672, #856 ) ;
#150 = ADVANCED_FACE ( 'NONE', ( #749 ), #332, .T. ) ;
#151 = DIRECTION ( 'NONE',  ( -4.852188153836167475E-15, -1.224646799147443926E-16, 1.000000000000000000 ) ) ;
#152 = DIRECTION ( 'NONE',  ( -6.938893903866751493E-18, 1.000000000000000000, -1.509143076343729851E-33 ) ) ;
#153 = ORIENTED_EDGE ( 'NONE', *, *, #796, .T. ) ;
#154 = DIRECTION ( 'NONE',  ( 4.166805789339466576E-14, 1.000000000000000000, 1.224646799147444173E-16 ) ) ;
#155 = VERTEX_POINT ( 'NONE', #346 ) ;
#156 = CYLINDRICAL_SURFACE ( 'NONE', #354, 0.5999999999999998668 ) ;
#157 = CARTESIAN_POINT ( 'NONE',  ( -21.14999999999899316, 3.987699684214951842E-11, 8.200000000238354403 ) ) ;
#158 = CARTESIAN_POINT ( 'NONE',  ( -21.14999999999913527, 4.300000000045251625, 23.08038475793005873 ) ) ;
#159 = DIRECTION ( 'NONE',  ( -1.000000000000000000, -6.938893903866753034E-18, -7.089404221401388979E-17 ) ) ;
#160 = VERTEX_POINT ( 'NONE', #594 ) ;
#161 =( GEOMETRIC_REPRESENTATION_CONTEXT ( 3 ) GLOBAL_UNCERTAINTY_ASSIGNED_CONTEXT ( ( #371 ) ) GLOBAL_UNIT_ASSIGNED_CONTEXT ( ( #322, #3, #655 ) ) REPRESENTATION_CONTEXT ( 'NONE', 'WORKASPACE' ) );
#162 = LINE ( 'NONE', #664, #776 ) ;
#163 = DIRECTION ( 'NONE',  ( -0.7071067811865775488, -0.7071067811865173747, -3.300483690038955989E-14 ) ) ;
#164 = DIRECTION ( 'NONE',  ( 0.000000000000000000, 0.7071067811865536790, -0.7071067811865414665 ) ) ;
#165 = DIRECTION ( 'NONE',  ( -4.625929269271485795E-14, -1.000000000000000000, 0.000000000000000000 ) ) ;
#166 = SURFACE_STYLE_USAGE ( .BOTH. , #821 ) ;
#167 =( GEOMETRIC_REPRESENTATION_CONTEXT ( 3 ) GLOBAL_UNCERTAINTY_ASSIGNED_CONTEXT ( ( #1044 ) ) GLOBAL_UNIT_ASSIGNED_CONTEXT ( ( #842, #770, #85 ) ) REPRESENTATION_CONTEXT ( 'NONE', 'WORKASPACE' ) );
#168 = VECTOR ( 'NONE', #92, 1000.000000000000000 ) ;
#169 = ORIENTED_EDGE ( 'NONE', *, *, #121, .T. ) ;
#170 = VECTOR ( 'NONE', #704, 1000.000000000000000 ) ;
#171 = AXIS2_PLACEMENT_3D ( 'NONE', #651, #304, #460 ) ;
#172 = FACE_OUTER_BOUND ( 'NONE', #721, .T. ) ;
#173 = ORIENTED_EDGE ( 'NONE', *, *, #682, .T. ) ;
#174 = CARTESIAN_POINT ( 'NONE',  ( -34.91506684846627451, 1.119615242310496361, 29.66076951566878250 ) ) ;
#175 = ORIENTED_EDGE ( 'NONE', *, *, #237, .F. ) ;
#176 = EDGE_CURVE ( 'NONE', #437, #429, #498, .T. ) ;
#177 = DIRECTION ( 'NONE',  ( 2.250102939871686924E-15, 1.224646799147443926E-16, -1.000000000000000000 ) ) ;
#178 = DIRECTION ( 'NONE',  ( 0.7071067811865634489, -0.7071067811865315855, 2.453269466692821569E-15 ) ) ;
#179 = LINE ( 'NONE', #347, #97 ) ;
#180 = VERTEX_POINT ( 'NONE', #512 ) ;
#181 = ADVANCED_FACE ( 'NONE', ( #1011 ), #841, .F. ) ;
#182 = CARTESIAN_POINT ( 'NONE',  ( -21.14999999999928804, -4.000000000000618172, 28.40879313366796666 ) ) ;
#183 = DIRECTION ( 'NONE',  ( 1.922962686383704086E-16, -0.7071067811865314745, -0.7071067811865635599 ) ) ;
#184 = ORIENTED_EDGE ( 'NONE', *, *, #99, .F. ) ;
#185 = VECTOR ( 'NONE', #116, 1000.000000000000000 ) ;
#186 = DIRECTION ( 'NONE',  ( 0.000000000000000000, 0.7071067811865315855, 0.7071067811865634489 ) ) ;
#187 = EDGE_CURVE ( 'NONE', #531, #964, #698, .T. ) ;
#188 = ADVANCED_FACE ( 'NONE', ( #763 ), #232, .T. ) ;
#189 = CARTESIAN_POINT ( 'NONE',  ( -35.91506684846634556, -3.017989452785109772E-15, 22.60879313366796595 ) ) ;
#190 = ORIENTED_EDGE ( 'NONE', *, *, #1006, .T. ) ;
#191 = SURFACE_STYLE_FILL_AREA ( #836 ) ;
#192 = CARTESIAN_POINT ( 'NONE',  ( -20.84999999999901021, 0.6000000000398326705, 29.96076951566878321 ) ) ;
#193 = ORIENTED_EDGE ( 'NONE', *, *, #90, .F. ) ;
#194 = DIRECTION ( 'NONE',  ( 0.7071067811865645591, 9.150214455682579870E-17, -0.7071067811865304753 ) ) ;
#195 =( BOUNDED_CURVE ( )  B_SPLINE_CURVE ( 3, ( #504, #147, #810, #235 ),
 .UNSPECIFIED., .F., .T. ) 
 B_SPLINE_CURVE_WITH_KNOTS ( ( 4, 4 ),
 ( 5.235987755983011027, 6.283185307179586232 ),
 .UNSPECIFIED. ) 
 CURVE ( )  GEOMETRIC_REPRESENTATION_ITEM ( )  RATIONAL_B_SPLINE_CURVE ( ( 1.000000000000000000, 0.9106836025229627651, 0.9106836025229627651, 1.000000000000000000 ) ) 
 REPRESENTATION_ITEM ( '' )  );
#196 = ORIENTED_EDGE ( 'NONE', *, *, #682, .F. ) ;
#197 = AXIS2_PLACEMENT_3D ( 'NONE', #843, #392, #8 ) ;
#198 = VECTOR ( 'NONE', #79, 1000.000000000000114 ) ;
#199 = VECTOR ( 'NONE', #492, 1000.000000000000000 ) ;
#200 = CARTESIAN_POINT ( 'NONE',  ( 3.841805311887887431, 3.983262958733774441E-11, 31.60000000021011246 ) ) ;
#201 = ORIENTED_EDGE ( 'NONE', *, *, #1051, .F. ) ;
#202 = CARTESIAN_POINT ( 'NONE',  ( -34.91506684846638109, -2.999999999999919176, 28.40879313366796666 ) ) ;
#203 = VERTEX_POINT ( 'NONE', #679 ) ;
#204 = CARTESIAN_POINT ( 'NONE',  ( -35.21506684846630009, 0.6000000000398326705, 29.96076951566877966 ) ) ;
#205 = DIRECTION ( 'NONE',  ( -1.000000000000000000, -6.938893903172476089E-18, 0.000000000000000000 ) ) ;
#206 = DIRECTION ( 'NONE',  ( 0.000000000000000000, 0.4999999999999997780, -0.8660254037844387076 ) ) ;
#207 = ORIENTED_EDGE ( 'NONE', *, *, #608, .T. ) ;
#208 = DIRECTION ( 'NONE',  ( 0.000000000000000000, 2.669847849745554669E-15, 1.000000000000000000 ) ) ;
#209 = ADVANCED_FACE ( 'NONE', ( #262 ), #1015, .T. ) ;
#210 = CARTESIAN_POINT ( 'NONE',  ( -20.64999999999916724, -2.999999999999939160, 23.10879313366802634 ) ) ;
#211 = VECTOR ( 'NONE', #683, 1000.000000000000114 ) ;
#212 = EDGE_CURVE ( 'NONE', #788, #784, #904, .T. ) ;
#213 = DIRECTION ( 'NONE',  ( -0.5773502691896316152, -0.5773502691896218453, -0.5773502691896238437 ) ) ;
#214 = EDGE_CURVE ( 'NONE', #574, #561, #653, .T. ) ;
#215 = VECTOR ( 'NONE', #1069, 1000.000000000000000 ) ;
#216 = ORIENTED_EDGE ( 'NONE', *, *, #212, .T. ) ;
#217 = DIRECTION ( 'NONE',  ( 0.7071067811865392461, 0.000000000000000000, 0.7071067811865557884 ) ) ;
#218 = CARTESIAN_POINT ( 'NONE',  ( -28.03253342423314720, 3.983098573190346769E-11, 16.10288568320374836 ) ) ;
#219 = CARTESIAN_POINT ( 'NONE',  ( -34.91506684846637398, -2.999999999999919176, 22.60879313366796595 ) ) ;
#220 = ORIENTED_EDGE ( 'NONE', *, *, #290, .T. ) ;
#221 = DIRECTION ( 'NONE',  ( 4.166805789339618037E-14, 1.000000000000000000, 2.954017055270402547E-30 ) ) ;
#222 = ORIENTED_EDGE ( 'NONE', *, *, #765, .T. ) ;
#223 = CARTESIAN_POINT ( 'NONE',  ( -20.14999999999903579, 3.983297638555348984E-11, 27.40879313366789205 ) ) ;
#224 = PLANE ( 'NONE',  #442 ) ;
#225 = VERTEX_POINT ( 'NONE', #807 ) ;
#226 = ADVANCED_FACE ( 'NONE', ( #632 ), #710, .F. ) ;
#227 = FACE_OUTER_BOUND ( 'NONE', #281, .T. ) ;
#228 = DIRECTION ( 'NONE',  ( -0.7071067811865245911, 0.6123724356958225590, 0.3535533905932711218 ) ) ;
#229 = VERTEX_POINT ( 'NONE', #483 ) ;
#230 = CARTESIAN_POINT ( 'NONE',  ( 3.841805311887887431, 1.119615242310496583, 29.66076951566878606 ) ) ;
#231 = ORIENTED_EDGE ( 'NONE', *, *, #494, .T. ) ;
#232 = PLANE ( 'NONE',  #123 ) ;
#233 = PLANE ( 'NONE',  #605 ) ;
#234 = ORIENTED_EDGE ( 'NONE', *, *, #342, .F. ) ;
#235 = CARTESIAN_POINT ( 'NONE',  ( -21.14999999999901092, 1.119615242310496361, 29.66076951566878250 ) ) ;
#236 = ORIENTED_EDGE ( 'NONE', *, *, #567, .T. ) ;
#237 = EDGE_CURVE ( 'NONE', #404, #1067, #801, .T. ) ;
#238 = CARTESIAN_POINT ( 'NONE',  ( -35.91506684846634556, -4.000000000000002665, 22.60879313366796595 ) ) ;
#239 = LINE ( 'NONE', #652, #198 ) ;
#240 = FACE_OUTER_BOUND ( 'NONE', #303, .T. ) ;
#241 = CARTESIAN_POINT ( 'NONE',  ( -35.91506684846631714, 0.6000000000398325595, 29.36076951566878179 ) ) ;
#242 = CARTESIAN_POINT ( 'NONE',  ( -21.14999999999909974, -2.915536220440095176E-15, 22.60879313366796595 ) ) ;
#243 = ORIENTED_EDGE ( 'NONE', *, *, #443, .T. ) ;
#244 = CARTESIAN_POINT ( 'NONE',  ( -20.14999999999905711, -2.999999999999919176, 28.40879313366796666 ) ) ;
#245 = SURFACE_SIDE_STYLE ('',( #191 ) ) ;
#246 = PLANE ( 'NONE',  #197 ) ;
#247 = DIRECTION ( 'NONE',  ( -0.7071067811865366926, 0.7071067811865583419, -9.905085388176811726E-15 ) ) ;
#248 = ADVANCED_FACE ( 'NONE', ( #703 ), #42, .T. ) ;
#249 =( GEOMETRIC_REPRESENTATION_CONTEXT ( 3 ) GLOBAL_UNCERTAINTY_ASSIGNED_CONTEXT ( ( #293 ) ) GLOBAL_UNIT_ASSIGNED_CONTEXT ( ( #7, #928, #350 ) ) REPRESENTATION_CONTEXT ( 'NONE', 'WORKASPACE' ) );
#250 = EDGE_LOOP ( 'NONE', ( #4, #636, #712, #17 ) ) ;
#251 = VECTOR ( 'NONE', #194, 1000.000000000000000 ) ;
#252 = CARTESIAN_POINT ( 'NONE',  ( -20.14999999999894698, 3.983520631957620838E-11, 9.200000000238453879 ) ) ;
#253 = ORIENTED_EDGE ( 'NONE', *, *, #376, .T. ) ;
#254 = CARTESIAN_POINT ( 'NONE',  ( -35.91506684846633846, 0.02998304077607872112, 29.54806785028952376 ) ) ;
#255 = ORIENTED_EDGE ( 'NONE', *, *, #187, .T. ) ;
#256 = VECTOR ( 'NONE', #968, 1000.000000000000114 ) ;
#257 = DIRECTION ( 'NONE',  ( -1.000000000000000000, 0.000000000000000000, -3.469446951953153888E-15 ) ) ;
#258 = CARTESIAN_POINT ( 'NONE',  ( -34.91506684846606845, 3.300000000045205883, 8.200000000238352627 ) ) ;
#259 = ORIENTED_EDGE ( 'NONE', *, *, #525, .T. ) ;
#260 = ADVANCED_FACE ( 'NONE', ( #1047 ), #394, .T. ) ;
#261 = EDGE_CURVE ( 'NONE', #784, #145, #381, .T. ) ;
#262 = FACE_OUTER_BOUND ( 'NONE', #383, .T. ) ;
#263 = CARTESIAN_POINT ( 'NONE',  ( 3.841805311887890539, 3.983549526084774726E-11, 8.200000000238356179 ) ) ;
#264 = CARTESIAN_POINT ( 'NONE',  ( -20.14999999999904290, 0.02998304077609357382, 29.54806785028957350 ) ) ;
#265 = EDGE_LOOP ( 'NONE', ( #480, #506, #23, #678 ) ) ;
#266 = AXIS2_PLACEMENT_3D ( 'NONE', #395, #299, #889 ) ;
#267 = VECTOR ( 'NONE', #45, 1000.000000000000000 ) ;
#268 = PRODUCT_CONTEXT ( 'NONE', #324, 'mechanical' ) ;
#269 = FACE_OUTER_BOUND ( 'NONE', #822, .T. ) ;
#270 = EDGE_LOOP ( 'NONE', ( #387, #768, #196, #803 ) ) ;
#271 = ADVANCED_FACE ( 'NONE', ( #893 ), #136, .F. ) ;
#272 = DIRECTION ( 'NONE',  ( -1.000000000000000000, -6.938893903866751493E-18, -7.089404221401388979E-17 ) ) ;
#273 = ORIENTED_EDGE ( 'NONE', *, *, #372, .F. ) ;
#274 = CARTESIAN_POINT ( 'NONE',  ( -21.14999999999924540, -2.999999999999919176, 28.40879313366796666 ) ) ;
#275 = ORIENTED_EDGE ( 'NONE', *, *, #5, .T. ) ;
#276 = LINE ( 'NONE', #891, #505 ) ;
#277 = ADVANCED_FACE ( 'NONE', ( #227 ), #59, .F. ) ;
#278 = CONICAL_SURFACE ( 'NONE', #428, 2.999999999999912514, 0.7853981633974257415 ) ;
#279 = AXIS2_PLACEMENT_3D ( 'NONE', #377, #313, #978 ) ;
#280 = DIRECTION ( 'NONE',  ( -0.7071067811865455743, 0.7071067811865495711, 0.000000000000000000 ) ) ;
#281 = EDGE_LOOP ( 'NONE', ( #323, #772, #169, #294 ) ) ;
#282 = LINE ( 'NONE', #367, #827 ) ;
#283 = VECTOR ( 'NONE', #22, 1000.000000000000000 ) ;
#284 = LINE ( 'NONE', #365, #738 ) ;
#285 = ORIENTED_EDGE ( 'NONE', *, *, #916, .F. ) ;
#286 = LINE ( 'NONE', #637, #953 ) ;
#287 = EDGE_LOOP ( 'NONE', ( #415, #820, #656, #201 ) ) ;
#288 = ADVANCED_FACE ( 'NONE', ( #291 ), #717, .T. ) ;
#289 = EDGE_CURVE ( 'NONE', #874, #788, #1059, .T. ) ;
#290 = EDGE_CURVE ( 'NONE', #1030, #970, #759, .T. ) ;
#291 = FACE_OUTER_BOUND ( 'NONE', #81, .T. ) ;
#292 = FACE_OUTER_BOUND ( 'NONE', #1009, .T. ) ;
#293 = UNCERTAINTY_MEASURE_WITH_UNIT (LENGTH_MEASURE( 1.000000000000000082E-05 ), #7, 'distance_accuracy_value', 'NONE');
#294 = ORIENTED_EDGE ( 'NONE', *, *, #140, .F. ) ;
#295 = CARTESIAN_POINT ( 'NONE',  ( -35.71486186455482681, 0.1138312521156232271, 29.80324845594867256 ) ) ;
#296 = CARTESIAN_POINT ( 'NONE',  ( -20.14999999999994884, -24.18677324487004299, 8.000000000204682493 ) ) ;
#297 = VECTOR ( 'NONE', #572, 1000.000000000000114 ) ;
#298 = AXIS2_PLACEMENT_3D ( 'NONE', #718, #634, #975 ) ;
#299 = DIRECTION ( 'NONE',  ( -7.089404221401388979E-17, 0.000000000000000000, 1.000000000000000000 ) ) ;
#300 = VECTOR ( 'NONE', #364, 999.9999999999998863 ) ;
#301 = EDGE_LOOP ( 'NONE', ( #138, #681, #1062, #853 ) ) ;
#302 = CARTESIAN_POINT ( 'NONE',  ( -34.91506684846628872, 0.3000000000452516247, 23.08038475793005873 ) ) ;
#303 = EDGE_LOOP ( 'NONE', ( #1026, #107, #660 ) ) ;
#304 = DIRECTION ( 'NONE',  ( -6.938893903866751493E-18, 1.000000000000000000, -1.509143076343730022E-33 ) ) ;
#305 = PLANE ( 'NONE',  #266 ) ;
#306 = VERTEX_POINT ( 'NONE', #983 ) ;
#307 = SURFACE_STYLE_FILL_AREA ( #330 ) ;
#308 = VERTEX_POINT ( 'NONE', #638 ) ;
#309 = DIRECTION ( 'NONE',  ( 2.250102939871686924E-15, 1.224646799147443926E-16, -1.000000000000000000 ) ) ;
#310 = CARTESIAN_POINT ( 'NONE',  ( -20.84999999999901021, 0.6000000000398326705, 29.96076951566878321 ) ) ;
#311 = ORIENTED_EDGE ( 'NONE', *, *, #743, .T. ) ;
#312 = EDGE_LOOP ( 'NONE', ( #1064, #540, #647, #667 ) ) ;
#313 = DIRECTION ( 'NONE',  ( -0.7071067811865304753, 2.946376629529230709E-14, -0.7071067811865645591 ) ) ;
#314 = CARTESIAN_POINT ( 'NONE',  ( -20.14999999999995595, -24.18677324487004299, 9.200000000238452103 ) ) ;
#315 = ORIENTED_EDGE ( 'NONE', *, *, #444, .T. ) ;
#316 = VECTOR ( 'NONE', #402, 1000.000000000000000 ) ;
#317 = ORIENTED_EDGE ( 'NONE', *, *, #113, .T. ) ;
#318 = PLANE ( 'NONE',  #26 ) ;
#319 = LINE ( 'NONE', #54, #824 ) ;
#320 = CARTESIAN_POINT ( 'NONE',  ( -35.91506684846621766, 2.898076211398580515, 24.58038475793003386 ) ) ;
#321 = VERTEX_POINT ( 'NONE', #223 ) ;
#322 =( LENGTH_UNIT ( ) NAMED_UNIT ( * ) SI_UNIT ( .MILLI., .METRE. ) );
#323 = ORIENTED_EDGE ( 'NONE', *, *, #834, .F. ) ;
#324 = APPLICATION_CONTEXT ( 'automotive_design' ) ;
#325 = EDGE_CURVE ( 'NONE', #83, #640, #888, .T. ) ;
#326 = CARTESIAN_POINT ( 'NONE',  ( -20.14999999999900382, 0.3000000000452517357, 23.08038475793006228 ) ) ;
#327 = ADVANCED_FACE ( 'NONE', ( #551 ), #876, .T. ) ;
#328 = PLANE ( 'NONE',  #340 ) ;
#329 = FACE_BOUND ( 'NONE', #559, .T. ) ;
#330 = FILL_AREA_STYLE ('',( #573 ) ) ;
#331 = ORIENTED_EDGE ( 'NONE', *, *, #552, .F. ) ;
#332 = PLANE ( 'NONE',  #477 ) ;
#333 = EDGE_CURVE ( 'NONE', #761, #754, #722, .T. ) ;
#334 = SHAPE_DEFINITION_REPRESENTATION ( #412, #956 ) ;
#335 = ORIENTED_EDGE ( 'NONE', *, *, #716, .F. ) ;
#336 = LINE ( 'NONE', #1008, #918 ) ;
#337 = VECTOR ( 'NONE', #84, 1000.000000000000000 ) ;
#338 = ORIENTED_EDGE ( 'NONE', *, *, #578, .T. ) ;
#339 = AXIS2_PLACEMENT_3D ( 'NONE', #137, #736, #1060 ) ;
#340 = AXIS2_PLACEMENT_3D ( 'NONE', #914, #665, #164 ) ;
#341 = CARTESIAN_POINT ( 'NONE',  ( -35.91506684846633135, 3.983333235921091382E-11, 23.60879313366803345 ) ) ;
#342 = EDGE_CURVE ( 'NONE', #404, #306, #1065, .T. ) ;
#343 = CARTESIAN_POINT ( 'NONE',  ( -35.91506684846646635, -2.999999999999888978, 27.40879313366788850 ) ) ;
#344 = DIRECTION ( 'NONE',  ( 0.7071067811865499042, -8.168906669011106803E-17, 0.7071067811865451302 ) ) ;
#345 = ORIENTED_EDGE ( 'NONE', *, *, #409, .F. ) ;
#346 = CARTESIAN_POINT ( 'NONE',  ( -20.14999999999904645, 3.983273733739066377E-11, 29.36076951566878179 ) ) ;
#347 = CARTESIAN_POINT ( 'NONE',  ( -20.14999999999944791, 3.983618990233139812E-11, 9.200000000237947617 ) ) ;
#348 =( BOUNDED_CURVE ( )  B_SPLINE_CURVE ( 3, ( #174, #1013, #439, #940 ),
 .UNSPECIFIED., .F., .T. ) 
 B_SPLINE_CURVE_WITH_KNOTS ( ( 4, 4 ),
 ( 3.141592653589818873, 4.188790204786412730 ),
 .UNSPECIFIED. ) 
 CURVE ( )  GEOMETRIC_REPRESENTATION_ITEM ( )  RATIONAL_B_SPLINE_CURVE ( ( 1.000000000000000000, 0.9106836025229597675, 0.9106836025229597675, 1.000000000000000000 ) ) 
 REPRESENTATION_ITEM ( '' )  );
#349 = ORIENTED_EDGE ( 'NONE', *, *, #176, .T. ) ;
#350 =( NAMED_UNIT ( * ) SI_UNIT ( $, .STERADIAN. ) SOLID_ANGLE_UNIT ( ) );
#351 = CARTESIAN_POINT ( 'NONE',  ( -20.14999999999905711, -4.000000000000002665, 23.60879313366804055 ) ) ;
#352 = ORIENTED_EDGE ( 'NONE', *, *, #140, .T. ) ;
#353 = STYLED_ITEM ( 'NONE', ( #902 ), #556 ) ;
#354 = AXIS2_PLACEMENT_3D ( 'NONE', #905, #1, #399 ) ;
#355 = EDGE_CURVE ( 'NONE', #229, #470, #122, .T. ) ;
#356 = AXIS2_PLACEMENT_3D ( 'NONE', #453, #553, #538 ) ;
#357 = AXIS2_PLACEMENT_3D ( 'NONE', #713, #384, #208 ) ;
#358 = LINE ( 'NONE', #752, #283 ) ;
#359 = ORIENTED_EDGE ( 'NONE', *, *, #361, .T. ) ;
#360 = VECTOR ( 'NONE', #946, 1000.000000000000000 ) ;
#361 = EDGE_CURVE ( 'NONE', #98, #761, #414, .T. ) ;
#362 = DIRECTION ( 'NONE',  ( -0.7071067811865426878, 0.000000000000000000, 0.7071067811865522357 ) ) ;
#363 = ORIENTED_EDGE ( 'NONE', *, *, #214, .F. ) ;
#364 = DIRECTION ( 'NONE',  ( -1.239037099348053047E-16, 0.7071067811865512365, 0.7071067811865439090 ) ) ;
#365 = CARTESIAN_POINT ( 'NONE',  ( -35.91506684846634556, -3.728284596290626800E-15, 28.40879313366796666 ) ) ;
#366 = EDGE_LOOP ( 'NONE', ( #317, #565, #1038, #398 ) ) ;
#367 = CARTESIAN_POINT ( 'NONE',  ( -35.91506684846646635, -2.999999999999888978, 27.40879313366788850 ) ) ;
#368 = VECTOR ( 'NONE', #481, 1000.000000000000000 ) ;
#369 = AXIS2_PLACEMENT_3D ( 'NONE', #218, #1052, #569 ) ;
#370 = CARTESIAN_POINT ( 'NONE',  ( -34.91506684846637398, -2.999999999999919176, 22.60879313366796595 ) ) ;
#371 = UNCERTAINTY_MEASURE_WITH_UNIT (LENGTH_MEASURE( 1.000000000000000082E-05 ), #322, 'distance_accuracy_value', 'NONE');
#372 = EDGE_CURVE ( 'NONE', #654, #83, #739, .T. ) ;
#373 = ORIENTED_EDGE ( 'NONE', *, *, #850, .T. ) ;
#374 = DIRECTION ( 'NONE',  ( -0.7071067811865513475, 2.682532947505170834E-14, 0.7071067811865436870 ) ) ;
#375 = ADVANCED_FACE ( 'NONE', ( #240 ), #328, .T. ) ;
#376 = EDGE_CURVE ( 'NONE', #308, #964, #501, .T. ) ;
#377 = CARTESIAN_POINT ( 'NONE',  ( -34.91506684846602582, 4.300000000046867221, 8.200000000238352627 ) ) ;
#378 = LINE ( 'NONE', #370, #57 ) ;
#379 = ORIENTED_EDGE ( 'NONE', *, *, #1006, .F. ) ;
#380 = LINE ( 'NONE', #789, #407 ) ;
#381 = LINE ( 'NONE', #143, #126 ) ;
#382 = LINE ( 'NONE', #1053, #669 ) ;
#383 = EDGE_LOOP ( 'NONE', ( #243, #236, #193 ) ) ;
#384 = DIRECTION ( 'NONE',  ( 1.000000000000000000, -0.000000000000000000, -0.000000000000000000 ) ) ;
#385 = CARTESIAN_POINT ( 'NONE',  ( -34.91506684846631714, -4.000000000000000000, -7.905235328120952629E-14 ) ) ;
#386 = LINE ( 'NONE', #1012, #715 ) ;
#387 = ORIENTED_EDGE ( 'NONE', *, *, #24, .T. ) ;
#388 = LINE ( 'NONE', #720, #142 ) ;
#389 = VERTEX_POINT ( 'NONE', #524 ) ;
#390 = CARTESIAN_POINT ( 'NONE',  ( -20.14999999999880487, 3.300000000045162807, 8.000000000204682493 ) ) ;
#391 = FACE_OUTER_BOUND ( 'NONE', #554, .T. ) ;
#392 = DIRECTION ( 'NONE',  ( 6.938893903866767671E-18, -1.000000000000000000, -1.224646799147443680E-16 ) ) ;
#393 = DIRECTION ( 'NONE',  ( -0.7071067811865526798, -9.150214455682716688E-17, 0.7071067811865423547 ) ) ;
#394 = PLANE ( 'NONE',  #279 ) ;
#395 = CARTESIAN_POINT ( 'NONE',  ( 3.841805311887890539, 4.300000000045251625, 8.200000000238356179 ) ) ;
#396 = ORIENTED_EDGE ( 'NONE', *, *, #424, .T. ) ;
#397 = LINE ( 'NONE', #230, #368 ) ;
#398 = ORIENTED_EDGE ( 'NONE', *, *, #911, .T. ) ;
#399 = DIRECTION ( 'NONE',  ( 0.000000000000000000, 0.000000000000000000, 1.000000000000000000 ) ) ;
#400 = VECTOR ( 'NONE', #62, 999.9999999999998863 ) ;
#401 = DIRECTION ( 'NONE',  ( -4.166805789339618037E-14, -1.000000000000000000, -1.224646799147444173E-16 ) ) ;
#402 = DIRECTION ( 'NONE',  ( -4.166805789339466576E-14, -1.000000000000000000, -1.224646799147444173E-16 ) ) ;
#403 = VECTOR ( 'NONE', #413, 1000.000000000000000 ) ;
#404 = VERTEX_POINT ( 'NONE', #621 ) ;
#405 = LINE ( 'NONE', #830, #1020 ) ;
#406 = EDGE_CURVE ( 'NONE', #874, #229, #41, .T. ) ;
#407 = VECTOR ( 'NONE', #955, 1000.000000000000000 ) ;
#408 = ORIENTED_EDGE ( 'NONE', *, *, #121, .F. ) ;
#409 = EDGE_CURVE ( 'NONE', #811, #754, #282, .T. ) ;
#410 = EDGE_CURVE ( 'NONE', #32, #446, #696, .T. ) ;
#411 = PLANE ( 'NONE',  #951 ) ;
#412 = PRODUCT_DEFINITION_SHAPE ( 'NONE', 'NONE',  #943 ) ;
#413 = DIRECTION ( 'NONE',  ( -4.166805789339618037E-14, -1.000000000000000000, -2.954017055270403598E-30 ) ) ;
#414 = LINE ( 'NONE', #819, #316 ) ;
#415 = ORIENTED_EDGE ( 'NONE', *, *, #90, .T. ) ;
#416 = LINE ( 'NONE', #986, #400 ) ;
#417 = EDGE_LOOP ( 'NONE', ( #644, #702, #593, #1054 ) ) ;
#418 = ADVANCED_FACE ( 'NONE', ( #965 ), #33, .T. ) ;
#419 = DIRECTION ( 'NONE',  ( 2.503614715186211652E-14, 0.4999999999999997780, -0.8660254037844387076 ) ) ;
#420 = DIRECTION ( 'NONE',  ( 1.000000000000000000, 0.000000000000000000, 0.000000000000000000 ) ) ;
#421 = ORIENTED_EDGE ( 'NONE', *, *, #716, .T. ) ;
#422 = DIRECTION ( 'NONE',  ( -4.166805789339466576E-14, -1.000000000000000000, -2.954017055270301653E-30 ) ) ;
#423 = EDGE_LOOP ( 'NONE', ( #1014, #623, #687, #615 ) ) ;
#424 = EDGE_CURVE ( 'NONE', #535, #874, #380, .T. ) ;
#425 = CARTESIAN_POINT ( 'NONE',  ( -35.91506684846634556, -4.000000000000003553, 28.40879313366796666 ) ) ;
#426 = CARTESIAN_POINT ( 'NONE',  ( -21.14999999999921698, -4.000000000000003553, 23.60879313366804055 ) ) ;
#427 = DIRECTION ( 'NONE',  ( -4.852188153836162742E-15, -3.215967572470424366E-32, 1.000000000000000000 ) ) ;
#428 = AXIS2_PLACEMENT_3D ( 'NONE', #326, #257, #516 ) ;
#429 = VERTEX_POINT ( 'NONE', #782 ) ;
#430 = FACE_OUTER_BOUND ( 'NONE', #923, .T. ) ;
#431 = AXIS2_PLACEMENT_3D ( 'NONE', #609, #844, #272 ) ;
#432 = CARTESIAN_POINT ( 'NONE',  ( -34.91506684846606845, 4.300000000045251625, 9.200000000238444997 ) ) ;
#433 = FACE_OUTER_BOUND ( 'NONE', #580, .T. ) ;
#434 = ORIENTED_EDGE ( 'NONE', *, *, #648, .T. ) ;
#435 = EDGE_CURVE ( 'NONE', #180, #83, #973, .T. ) ;
#436 = CARTESIAN_POINT ( 'NONE',  ( -34.91506684846610398, 4.300000000045251625, 23.08038475793006228 ) ) ;
#437 = VERTEX_POINT ( 'NONE', #468 ) ;
#438 = APPLICATION_PROTOCOL_DEFINITION ( 'draft international standard', 'automotive_design', 1998, #324 ) ;
#439 = CARTESIAN_POINT ( 'NONE',  ( -35.02487446960162032, 0.8196152423104954288, 29.96076951566877966 ) ) ;
#440 = ORIENTED_EDGE ( 'NONE', *, *, #103, .F. ) ;
#441 = AXIS2_PLACEMENT_3D ( 'NONE', #740, #586, #997 ) ;
#442 = AXIS2_PLACEMENT_3D ( 'NONE', #478, #818, #401 ) ;
#443 = EDGE_CURVE ( 'NONE', #628, #860, #276, .T. ) ;
#444 = EDGE_CURVE ( 'NONE', #437, #811, #873, .T. ) ;
#445 = DIRECTION ( 'NONE',  ( -1.000000000000000000, -6.938893903866743019E-18, -0.000000000000000000 ) ) ;
#446 = VERTEX_POINT ( 'NONE', #701 ) ;
#447 = CARTESIAN_POINT ( 'NONE',  ( -34.91506684846638109, -3.499999999999942712, 27.90879313366794889 ) ) ;
#448 = DIRECTION ( 'NONE',  ( 0.000000000000000000, -1.224646799146225383E-16, 1.000000000000000000 ) ) ;
#449 = VERTEX_POINT ( 'NONE', #546 ) ;
#450 = LINE ( 'NONE', #128, #649 ) ;
#451 = EDGE_CURVE ( 'NONE', #389, #811, #555, .T. ) ;
#452 = ADVANCED_FACE ( 'NONE', ( #706 ), #671, .T. ) ;
#453 = CARTESIAN_POINT ( 'NONE',  ( -20.14999999999901803, 0.6000000000398326705, 29.36076951566878535 ) ) ;
#454 = EDGE_CURVE ( 'NONE', #730, #829, #616, .T. ) ;
#455 = ORIENTED_EDGE ( 'NONE', *, *, #376, .F. ) ;
#456 = CARTESIAN_POINT ( 'NONE',  ( -21.14999999999923830, -4.000000000000003553, 27.40879313366789205 ) ) ;
#457 = ORIENTED_EDGE ( 'NONE', *, *, #64, .F. ) ;
#458 = STYLED_ITEM ( 'NONE', ( #855 ), #956 ) ;
#459 = VECTOR ( 'NONE', #80, 999.9999999999998863 ) ;
#460 = DIRECTION ( 'NONE',  ( -1.000000000000000000, 0.000000000000000000, 0.000000000000000000 ) ) ;
#461 = LINE ( 'NONE', #792, #170 ) ;
#462 = ORIENTED_EDGE ( 'NONE', *, *, #562, .T. ) ;
#463 = PLANE ( 'NONE',  #936 ) ;
#464 = ORIENTED_EDGE ( 'NONE', *, *, #469, .F. ) ;
#465 = DIRECTION ( 'NONE',  ( -2.250102939871686924E-15, -1.224646799147443926E-16, 1.000000000000000000 ) ) ;
#466 = CARTESIAN_POINT ( 'NONE',  ( 1.450299222659325871, 3.983577154146845118E-11, 5.808493911009765753 ) ) ;
#467 = EDGE_LOOP ( 'NONE', ( #335, #497, #48, #845 ) ) ;
#468 = CARTESIAN_POINT ( 'NONE',  ( -34.91506684846638109, -4.000000000000003553, 27.40879313366789205 ) ) ;
#469 = EDGE_CURVE ( 'NONE', #874, #132, #286, .T. ) ;
#470 = VERTEX_POINT ( 'NONE', #456 ) ;
#471 = DIRECTION ( 'NONE',  ( -2.278267525375625402E-14, -0.4999999999999997780, 0.8660254037844387076 ) ) ;
#472 = FACE_OUTER_BOUND ( 'NONE', #467, .T. ) ;
#473 = ORIENTED_EDGE ( 'NONE', *, *, #867, .F. ) ;
#474 = LINE ( 'NONE', #998, #105 ) ;
#475 = EDGE_CURVE ( 'NONE', #1071, #662, #490, .T. ) ;
#476 = CARTESIAN_POINT ( 'NONE',  ( -34.91506684846627451, 1.119615242310483927, 29.66076951566880382 ) ) ;
#477 = AXIS2_PLACEMENT_3D ( 'NONE', #182, #584, #1004 ) ;
#478 = CARTESIAN_POINT ( 'NONE',  ( -20.15000000000002700, -24.18677324487004654, 23.60879313366804411 ) ) ;
#479 = AXIS2_PLACEMENT_3D ( 'NONE', #726, #53, #151 ) ;
#480 = ORIENTED_EDGE ( 'NONE', *, *, #1041, .T. ) ;
#481 = DIRECTION ( 'NONE',  ( 1.000000000000000000, 6.938893903866748412E-18, 7.089404221401388979E-17 ) ) ;
#482 = ORIENTED_EDGE ( 'NONE', *, *, #290, .F. ) ;
#483 = CARTESIAN_POINT ( 'NONE',  ( -21.14999999999921698, -4.000000000000003553, 23.60879313366804055 ) ) ;
#484 = CARTESIAN_POINT ( 'NONE',  ( -34.91506684846641662, -4.000000000000044409, 22.60879313366796595 ) ) ;
#485 = ORIENTED_EDGE ( 'NONE', *, *, #767, .F. ) ;
#486 = LINE ( 'NONE', #645, #613 ) ;
#487 = ORIENTED_EDGE ( 'NONE', *, *, #424, .F. ) ;
#488 = CARTESIAN_POINT ( 'NONE',  ( -34.91506684846606845, 3.300000000045205883, 8.200000000238352627 ) ) ;
#489 = EDGE_CURVE ( 'NONE', #470, #437, #1033, .T. ) ;
#490 =( BOUNDED_CURVE ( )  B_SPLINE_CURVE ( 3, ( #204, #624, #295, #536 ),
 .UNSPECIFIED., .F., .F. ) 
 B_SPLINE_CURVE_WITH_KNOTS ( ( 4, 4 ),
 ( 4.188790204786412730, 5.442116636611673997 ),
 .UNSPECIFIED. ) 
 CURVE ( )  GEOMETRIC_REPRESENTATION_ITEM ( )  RATIONAL_B_SPLINE_CURVE ( ( 1.000000000000000000, 0.8733259034539422316, 0.8733259034539422316, 1.000000000000000000 ) ) 
 REPRESENTATION_ITEM ( '' )  );
#491 = DIRECTION ( 'NONE',  ( 0.7071067811865664465, -2.946376629529487562E-14, -0.7071067811865286989 ) ) ;
#492 = DIRECTION ( 'NONE',  ( -4.852188153836167475E-15, -1.224646799147443926E-16, 1.000000000000000000 ) ) ;
#493 = CARTESIAN_POINT ( 'NONE',  ( 3.841805311887887431, 4.300000000045251625, 24.15218152765455528 ) ) ;
#494 = EDGE_CURVE ( 'NONE', #145, #692, #450, .T. ) ;
#495 = LINE ( 'NONE', #641, #753 ) ;
#496 = ADVANCED_FACE ( 'NONE', ( #629 ), #463, .T. ) ;
#497 = ORIENTED_EDGE ( 'NONE', *, *, #1027, .F. ) ;
#498 = LINE ( 'NONE', #927, #12 ) ;
#499 = CARTESIAN_POINT ( 'NONE',  ( -30.38253342423314862, 4.300000000045251625, 16.10288568320374836 ) ) ;
#500 = VECTOR ( 'NONE', #178, 1000.000000000000114 ) ;
#501 = LINE ( 'NONE', #828, #459 ) ;
#502 = CIRCLE ( 'NONE', #590, 4.000000000000000000 ) ;
#503 = ORIENTED_EDGE ( 'NONE', *, *, #576, .F. ) ;
#504 = CARTESIAN_POINT ( 'NONE',  ( -20.84999999999901021, 0.6000000000398326705, 29.96076951566878321 ) ) ;
#505 = VECTOR ( 'NONE', #374, 1000.000000000000000 ) ;
#506 = ORIENTED_EDGE ( 'NONE', *, *, #673, .F. ) ;
#507 = LINE ( 'NONE', #244, #864 ) ;
#508 = LINE ( 'NONE', #158, #500 ) ;
#509 = PLANE ( 'NONE',  #1042 ) ;
#510 = ORIENTED_EDGE ( 'NONE', *, *, #750, .F. ) ;
#511 = ADVANCED_FACE ( 'NONE', ( #800 ), #887, .T. ) ;
#512 = CARTESIAN_POINT ( 'NONE',  ( -34.91506684846610398, 4.300000000045251625, 23.08038475793005873 ) ) ;
#513 = CARTESIAN_POINT ( 'NONE',  ( -35.91506684846633846, 3.983262794526441655E-11, 29.36076951566878179 ) ) ;
#514 = DIRECTION ( 'NONE',  ( -2.250102939871682191E-15, -1.410408249620319375E-32, 1.000000000000000000 ) ) ;
#515 = EDGE_LOOP ( 'NONE', ( #941, #1058, #273, #503, #929 ) ) ;
#516 = DIRECTION ( 'NONE',  ( -3.469446951953715557E-15, 0.000000000000000000, 1.000000000000000000 ) ) ;
#517 = CARTESIAN_POINT ( 'NONE',  ( 0.000000000000000000, 0.000000000000000000, 0.000000000000000000 ) ) ;
#518 = MECHANICAL_DESIGN_GEOMETRIC_PRESENTATION_REPRESENTATION (  '', ( #353 ), #161 ) ;
#519 = CARTESIAN_POINT ( 'NONE',  ( -20.14999999999881197, 3.300000000045162363, 9.200000000238453879 ) ) ;
#520 = EDGE_LOOP ( 'NONE', ( #805, #421, #10, #275, #606, #880, #966, #153 ) ) ;
#521 = SURFACE_STYLE_USAGE ( .BOTH. , #245 ) ;
#522 = CARTESIAN_POINT ( 'NONE',  ( 2.775557561546705836E-17, -4.000000000000002665, 23.60879313366804055 ) ) ;
#523 = EDGE_LOOP ( 'NONE', ( #1045, #814, #86, #809, #311, #839, #359, #883, #620, #542 ) ) ;
#524 = CARTESIAN_POINT ( 'NONE',  ( -34.91506684846626030, -3.721345702386759015E-15, 28.40879313366796666 ) ) ;
#525 = EDGE_CURVE ( 'NONE', #954, #1078, #195, .T. ) ;
#526 = LINE ( 'NONE', #436, #861 ) ;
#527 = EDGE_CURVE ( 'NONE', #98, #449, #992, .T. ) ;
#528 = ORIENTED_EDGE ( 'NONE', *, *, #475, .T. ) ;
#529 = EDGE_CURVE ( 'NONE', #640, #1078, #397, .T. ) ;
#530 = DIRECTION ( 'NONE',  ( 4.166805789339466576E-14, 1.000000000000000000, 1.224646799147444173E-16 ) ) ;
#531 = VERTEX_POINT ( 'NONE', #917 ) ;
#532 = EDGE_CURVE ( 'NONE', #692, #306, #416, .T. ) ;
#533 = AXIS2_PLACEMENT_3D ( 'NONE', #1048, #863, #619 ) ;
#534 = DIRECTION ( 'NONE',  ( 4.166805789339466576E-14, 1.000000000000000000, 2.954017055270296048E-30 ) ) ;
#535 = VERTEX_POINT ( 'NONE', #242 ) ;
#536 = CARTESIAN_POINT ( 'NONE',  ( -35.91506684846633846, 0.02998304077607872112, 29.54806785028952376 ) ) ;
#537 = EDGE_CURVE ( 'NONE', #180, #742, #405, .T. ) ;
#538 = DIRECTION ( 'NONE',  ( 4.047688110612550308E-14, 1.000000000000000000, 0.000000000000000000 ) ) ;
#539 = PRODUCT_DEFINITION_CONTEXT ( 'detailed design', #104, 'design' ) ;
#540 = ORIENTED_EDGE ( 'NONE', *, *, #333, .F. ) ;
#541 = CARTESIAN_POINT ( 'NONE',  ( 3.841805311887889651, 0.6000000000398328925, 29.36076951566878535 ) ) ;
#542 = ORIENTED_EDGE ( 'NONE', *, *, #410, .F. ) ;
#543 = DIRECTION ( 'NONE',  ( 4.852188153836162742E-15, 3.215967572472313930E-32, -1.000000000000000000 ) ) ;
#544 = DIRECTION ( 'NONE',  ( 0.5773502691896460481, 0.5773502691896428285, -0.5773502691895886496 ) ) ;
#545 = EDGE_LOOP ( 'NONE', ( #315, #55, #857 ) ) ;
#546 = CARTESIAN_POINT ( 'NONE',  ( -35.91506684846629582, 3.983509692744996116E-11, 9.200000000238397035 ) ) ;
#547 = ORIENTED_EDGE ( 'NONE', *, *, #435, .F. ) ;
#548 = CIRCLE ( 'NONE', #56, 2.350000000000001421 ) ;
#549 = AXIS2_PLACEMENT_3D ( 'NONE', #871, #544, #280 ) ;
#550 = AXIS2_PLACEMENT_3D ( 'NONE', #296, #899, #557 ) ;
#551 = FACE_OUTER_BOUND ( 'NONE', #270, .T. ) ;
#552 = EDGE_CURVE ( 'NONE', #160, #98, #661, .T. ) ;
#553 = DIRECTION ( 'NONE',  ( 1.000000000000000000, -4.166805789339618037E-14, 4.852188153836162742E-15 ) ) ;
#554 = EDGE_LOOP ( 'NONE', ( #926, #363, #352, #220 ) ) ;
#555 = LINE ( 'NONE', #1050, #28 ) ;
#556 = MANIFOLD_SOLID_BREP ( 'Chanfrein2', #94 ) ;
#557 = DIRECTION ( 'NONE',  ( -3.524205599865527449E-16, -5.861487828712744901E-13, 1.000000000000000000 ) ) ;
#558 = LINE ( 'NONE', #219, #921 ) ;
#559 = EDGE_LOOP ( 'NONE', ( #482, #408 ) ) ;
#560 = DIRECTION ( 'NONE',  ( 0.000000000000000000, 0.000000000000000000, 1.000000000000000000 ) ) ;
#561 = VERTEX_POINT ( 'NONE', #68 ) ;
#562 = EDGE_CURVE ( 'NONE', #429, #761, #486, .T. ) ;
#563 = DIRECTION ( 'NONE',  ( 0.7071067811865584529, 0.7071067811865366926, 1.677658652774635195E-15 ) ) ;
#564 = FACE_OUTER_BOUND ( 'NONE', #831, .T. ) ;
#565 = ORIENTED_EDGE ( 'NONE', *, *, #1027, .T. ) ;
#566 = CARTESIAN_POINT ( 'NONE',  ( -20.14999999999916014, -2.999999999999957812, 27.40879313366789205 ) ) ;
#567 = EDGE_CURVE ( 'NONE', #860, #470, #581, .T. ) ;
#568 = EDGE_LOOP ( 'NONE', ( #719, #259, #75, #674 ) ) ;
#569 = DIRECTION ( 'NONE',  ( -1.000000000000000000, -6.938893903172476089E-18, 0.000000000000000000 ) ) ;
#570 = VECTOR ( 'NONE', #71, 1000.000000000000000 ) ;
#571 = DIRECTION ( 'NONE',  ( -0.7071067811865423547, 2.955036190091635865E-14, -0.7071067811865526798 ) ) ;
#572 = DIRECTION ( 'NONE',  ( -0.7071067811865483499, 8.168906669011127757E-17, -0.7071067811865465735 ) ) ;
#573 = FILL_AREA_STYLE_COLOUR ( '', #823 ) ;
#574 = VERTEX_POINT ( 'NONE', #592 ) ;
#575 = EDGE_CURVE ( 'NONE', #132, #160, #474, .T. ) ;
#576 = EDGE_CURVE ( 'NONE', #662, #654, #815, .T. ) ;
#577 = DIRECTION ( 'NONE',  ( -1.000000000000000000, -6.938893903866752264E-18, -7.089404221401388979E-17 ) ) ;
#578 = EDGE_CURVE ( 'NONE', #954, #1071, #388, .T. ) ;
#579 = DIRECTION ( 'NONE',  ( -4.166805789339466576E-14, -1.000000000000000000, -1.224646799147444173E-16 ) ) ;
#580 = EDGE_LOOP ( 'NONE', ( #141, #440, #582, #947 ) ) ;
#581 = LINE ( 'NONE', #1068, #50 ) ;
#582 = ORIENTED_EDGE ( 'NONE', *, *, #444, .F. ) ;
#583 = DIRECTION ( 'NONE',  ( -6.938893903866751493E-18, 1.000000000000000000, -1.509143076343730022E-33 ) ) ;
#584 = DIRECTION ( 'NONE',  ( 0.7071067811865436870, -2.955036190091748830E-14, 0.7071067811865513475 ) ) ;
#585 = PLANE ( 'NONE',  #734 ) ;
#586 = DIRECTION ( 'NONE',  ( -1.000000000000000000, 4.166805789339202150E-14, 2.249664654000419660E-15 ) ) ;
#587 = ORIENTED_EDGE ( 'NONE', *, *, #723, .T. ) ;
#588 = CARTESIAN_POINT ( 'NONE',  ( -20.14999999999887947, 3.306381049686685891, 23.87318003303891345 ) ) ;
#589 = VECTOR ( 'NONE', #676, 1000.000000000000000 ) ;
#590 = AXIS2_PLACEMENT_3D ( 'NONE', #894, #1076, #144 ) ;
#591 = ORIENTED_EDGE ( 'NONE', *, *, #451, .T. ) ;
#592 = CARTESIAN_POINT ( 'NONE',  ( -30.38253342423314862, 3.983096942550279610E-11, 16.10288568320374836 ) ) ;
#593 = ORIENTED_EDGE ( 'NONE', *, *, #529, .T. ) ;
#594 = CARTESIAN_POINT ( 'NONE',  ( -34.91506684846625319, -3.011050558881241987E-15, 22.60879313366796595 ) ) ;
#595 = APPLICATION_PROTOCOL_DEFINITION ( 'draft international standard', 'automotive_design', 1998, #104 ) ;
#596 = ORIENTED_EDGE ( 'NONE', *, *, #372, .T. ) ;
#597 = CARTESIAN_POINT ( 'NONE',  ( -34.91506684846606845, 3.300000000045205883, 8.200000000238352627 ) ) ;
#598 = ORIENTED_EDGE ( 'NONE', *, *, #261, .T. ) ;
#599 = FACE_OUTER_BOUND ( 'NONE', #127, .T. ) ;
#600 = LINE ( 'NONE', #852, #773 ) ;
#601 = ORIENTED_EDGE ( 'NONE', *, *, #212, .F. ) ;
#602 = CARTESIAN_POINT ( 'NONE',  ( -21.14999999999923830, -4.000000000000003553, 27.40879313366789205 ) ) ;
#603 = LINE ( 'NONE', #1005, #211 ) ;
#604 = LINE ( 'NONE', #189, #912 ) ;
#605 = AXIS2_PLACEMENT_3D ( 'NONE', #484, #571, #579 ) ;
#606 = ORIENTED_EDGE ( 'NONE', *, *, #646, .F. ) ;
#607 = EDGE_CURVE ( 'NONE', #742, #404, #495, .T. ) ;
#608 = EDGE_CURVE ( 'NONE', #118, #954, #1057, .T. ) ;
#609 = CARTESIAN_POINT ( 'NONE',  ( 3.841805311887888319, 4.300000000045251625, 9.200000000238448550 ) ) ;
#610 = ORIENTED_EDGE ( 'NONE', *, *, #1041, .F. ) ;
#611 = LINE ( 'NONE', #699, #256 ) ;
#612 = EDGE_LOOP ( 'NONE', ( #44, #190, #866, #591 ) ) ;
#613 = VECTOR ( 'NONE', #247, 1000.000000000000114 ) ;
#614 = CARTESIAN_POINT ( 'NONE',  ( -35.91506684846645925, -2.999999999999888534, 23.60879313366803345 ) ) ;
#615 = ORIENTED_EDGE ( 'NONE', *, *, #1036, .T. ) ;
#616 = LINE ( 'NONE', #693, #779 ) ;
#617 = CIRCLE ( 'NONE', #757, 0.5999999999999999778 ) ;
#618 = VECTOR ( 'NONE', #471, 1000.000000000000114 ) ;
#619 = DIRECTION ( 'NONE',  ( -1.000000000000000000, -6.938893903172476089E-18, 0.000000000000000000 ) ) ;
#620 = ORIENTED_EDGE ( 'NONE', *, *, #849, .T. ) ;
#621 = CARTESIAN_POINT ( 'NONE',  ( -21.14999999999890079, 4.300000000045251625, 9.200000000238446773 ) ) ;
#622 = DIRECTION ( 'NONE',  ( 4.145627950192051911E-17, -0.8660254037844388186, -0.4999999999999998335 ) ) ;
#623 = ORIENTED_EDGE ( 'NONE', *, *, #435, .T. ) ;
#624 = CARTESIAN_POINT ( 'NONE',  ( -35.44768401902140909, 0.3313968279636074210, 29.96076951566877966 ) ) ;
#625 = ORIENTED_EDGE ( 'NONE', *, *, #454, .T. ) ;
#626 = CARTESIAN_POINT ( 'NONE',  ( -34.91506684846610398, 4.300000000045251625, 24.15218152765446646 ) ) ;
#627 = FACE_OUTER_BOUND ( 'NONE', #120, .T. ) ;
#628 = VERTEX_POINT ( 'NONE', #566 ) ;
#629 = FACE_OUTER_BOUND ( 'NONE', #545, .T. ) ;
#630 = COLOUR_RGB ( '',0.7921568627450980005, 0.8196078431372548767, 0.9333333333333333481 ) ;
#631 = AXIS2_PLACEMENT_3D ( 'NONE', #200, #622, #206 ) ;
#632 = FACE_OUTER_BOUND ( 'NONE', #312, .T. ) ;
#633 = EDGE_CURVE ( 'NONE', #1067, #180, #526, .T. ) ;
#634 = DIRECTION ( 'NONE',  ( -0.7071067811865451302, 2.937717068966936624E-14, 0.7071067811865499042 ) ) ;
#635 = EDGE_CURVE ( 'NONE', #799, #70, #600, .T. ) ;
#636 = ORIENTED_EDGE ( 'NONE', *, *, #743, .F. ) ;
#637 = CARTESIAN_POINT ( 'NONE',  ( -35.91506684846634556, -2.999999999999919176, 22.60879313366796595 ) ) ;
#638 = CARTESIAN_POINT ( 'NONE',  ( -21.14999999999913882, 3.764101615183006899, 25.08038475793005517 ) ) ;
#639 = DIRECTION ( 'NONE',  ( -4.166805789339618037E-14, -1.000000000000000000, -2.954017055270403598E-30 ) ) ;
#640 = VERTEX_POINT ( 'NONE', #96 ) ;
#641 = CARTESIAN_POINT ( 'NONE',  ( -21.14999999999889724, 4.300000000045251625, 8.200000000238350850 ) ) ;
#642 = DIRECTION ( 'NONE',  ( 3.425649139324186449E-14, -0.7071067811865315855, -0.7071067811865634489 ) ) ;
#643 = PLANE ( 'NONE',  #298 ) ;
#644 = ORIENTED_EDGE ( 'NONE', *, *, #1040, .T. ) ;
#645 = CARTESIAN_POINT ( 'NONE',  ( -35.41506684846642372, -3.499999999999937828, 23.60879313366803700 ) ) ;
#646 = EDGE_CURVE ( 'NONE', #160, #535, #604, .T. ) ;
#647 = ORIENTED_EDGE ( 'NONE', *, *, #562, .F. ) ;
#648 = EDGE_CURVE ( 'NONE', #1067, #730, #680, .T. ) ;
#649 = VECTOR ( 'NONE', #221, 1000.000000000000000 ) ;
#650 = EDGE_CURVE ( 'NONE', #640, #1071, #348, .T. ) ;
#651 = CARTESIAN_POINT ( 'NONE',  ( -28.03253342423314720, 4.300000000045251625, 16.10288568320374836 ) ) ;
#652 = CARTESIAN_POINT ( 'NONE',  ( -21.14999999999887947, 3.764101615183019334, 25.08038475793003386 ) ) ;
#653 = CIRCLE ( 'NONE', #988, 2.350000000000001421 ) ;
#654 = VERTEX_POINT ( 'NONE', #106 ) ;
#655 =( NAMED_UNIT ( * ) SI_UNIT ( $, .STERADIAN. ) SOLID_ANGLE_UNIT ( ) );
#656 = ORIENTED_EDGE ( 'NONE', *, *, #69, .F. ) ;
#657 = CARTESIAN_POINT ( 'NONE',  ( -34.91506684846637398, -2.999999999999919176, 22.60879313366796595 ) ) ;
#658 = LINE ( 'NONE', #996, #686 ) ;
#659 = DIRECTION ( 'NONE',  ( 0.7071067811865699992, 0.6123724356957662707, 0.3535533905932776721 ) ) ;
#660 = ORIENTED_EDGE ( 'NONE', *, *, #406, .F. ) ;
#661 = LINE ( 'NONE', #82, #684 ) ;
#662 = VERTEX_POINT ( 'NONE', #254 ) ;
#663 = ADVANCED_FACE ( 'NONE', ( #930 ), #775, .T. ) ;
#664 = CARTESIAN_POINT ( 'NONE',  ( -30.38253342423314862, 3.983096942550279610E-11, 16.10288568320374836 ) ) ;
#665 = DIRECTION ( 'NONE',  ( 0.5773502691896130745, -0.5773502691896271743, -0.5773502691896371664 ) ) ;
#666 = LINE ( 'NONE', #985, #297 ) ;
#667 = ORIENTED_EDGE ( 'NONE', *, *, #176, .F. ) ;
#668 = LINE ( 'NONE', #745, #570 ) ;
#669 = VECTOR ( 'NONE', #534, 1000.000000000000000 ) ;
#670 = FACE_OUTER_BOUND ( 'NONE', #523, .T. ) ;
#671 = CONICAL_SURFACE ( 'NONE', #806, 4.000000000000000000, 0.7853981633974309595 ) ;
#672 = DIRECTION ( 'NONE',  ( 4.906538933358161899E-18, -0.7071067811865439090, -0.7071067811865511255 ) ) ;
#673 = EDGE_CURVE ( 'NONE', #203, #829, #358, .T. ) ;
#674 = ORIENTED_EDGE ( 'NONE', *, *, #650, .T. ) ;
#675 = LINE ( 'NONE', #922, #109 ) ;
#676 = DIRECTION ( 'NONE',  ( -0.7071067811865584529, -0.7071067811865365815, -4.631052532688779268E-15 ) ) ;
#677 = CARTESIAN_POINT ( 'NONE',  ( -35.91506684846646635, -2.999999999999888978, 27.40879313366788850 ) ) ;
#678 = ORIENTED_EDGE ( 'NONE', *, *, #633, .F. ) ;
#679 = CARTESIAN_POINT ( 'NONE',  ( -35.91506684846619635, 3.300000000045245852, 23.08038475793005517 ) ) ;
#680 = LINE ( 'NONE', #597, #942 ) ;
#681 = ORIENTED_EDGE ( 'NONE', *, *, #607, .T. ) ;
#682 = EDGE_CURVE ( 'NONE', #404, #692, #9, .T. ) ;
#683 = DIRECTION ( 'NONE',  ( -0.7071067811865775488, -0.7071067811865174857, -2.453269466693279503E-15 ) ) ;
#684 = VECTOR ( 'NONE', #393, 1000.000000000000000 ) ;
#685 = DIRECTION ( 'NONE',  ( 1.000000000000000000, 6.938893903866767671E-18, 0.000000000000000000 ) ) ;
#686 = VECTOR ( 'NONE', #163, 1000.000000000000114 ) ;
#687 = ORIENTED_EDGE ( 'NONE', *, *, #1040, .F. ) ;
#688 = VECTOR ( 'NONE', #63, 1000.000000000000000 ) ;
#689 = CARTESIAN_POINT ( 'NONE',  ( -20.14999999999881197, 3.300000000045162363, 9.200000000238453879 ) ) ;
#690 = EDGE_LOOP ( 'NONE', ( #58, #66, #596, #547 ) ) ;
#691 = CARTESIAN_POINT ( 'NONE',  ( -21.14999999999922409, -2.999999999999919176, 22.60879313366796595 ) ) ;
#692 = VERTEX_POINT ( 'NONE', #519 ) ;
#693 = CARTESIAN_POINT ( 'NONE',  ( -34.91506684846606845, 3.300000000045205883, 8.200000000238352627 ) ) ;
#694 = CARTESIAN_POINT ( 'NONE',  ( 3.841805311887890539, 3.983549526084774726E-11, 8.200000000238356179 ) ) ;
#695 = ORIENTED_EDGE ( 'NONE', *, *, #646, .T. ) ;
#696 = LINE ( 'NONE', #119, #267 ) ;
#697 = PRODUCT_DEFINITION_FORMATION_WITH_SPECIFIED_SOURCE ( 'ANY', '', #744, .NOT_KNOWN. ) ;
#698 = CIRCLE ( 'NONE', #898, 2.999999999999787725 ) ;
#699 = CARTESIAN_POINT ( 'NONE',  ( -20.14999999999903224, 0.2535898385260900723, 29.16076951566880027 ) ) ;
#700 = EDGE_LOOP ( 'NONE', ( #349, #587, #102, #40 ) ) ;
#701 = CARTESIAN_POINT ( 'NONE',  ( -35.91506684846633135, 3.983286699342724262E-11, 27.40879313366788850 ) ) ;
#702 = ORIENTED_EDGE ( 'NONE', *, *, #325, .T. ) ;
#703 = FACE_OUTER_BOUND ( 'NONE', #265, .T. ) ;
#704 = DIRECTION ( 'NONE',  ( -4.166805789339618037E-14, -1.000000000000000000, -1.224646799147444173E-16 ) ) ;
#705 = ORIENTED_EDGE ( 'NONE', *, *, #469, .T. ) ;
#706 = FACE_OUTER_BOUND ( 'NONE', #690, .T. ) ;
#707 = ADVANCED_FACE ( 'NONE', ( #269 ), #858, .F. ) ;
#708 = ADVANCED_FACE ( 'NONE', ( #433 ), #509, .T. ) ;
#709 = EDGE_CURVE ( 'NONE', #692, #531, #19, .T. ) ;
#710 = PLANE ( 'NONE',  #939 ) ;
#711 = DIRECTION ( 'NONE',  ( -1.000000000000000000, 4.166805789339466576E-14, -2.250102939871682191E-15 ) ) ;
#712 = ORIENTED_EDGE ( 'NONE', *, *, #454, .F. ) ;
#713 = CARTESIAN_POINT ( 'NONE',  ( -34.91506684846628872, 0.3000000000452516247, 23.08038475793005873 ) ) ;
#714 = ORIENTED_EDGE ( 'NONE', *, *, #877, .F. ) ;
#715 = VECTOR ( 'NONE', #1016, 1000.000000000000000 ) ;
#716 = EDGE_CURVE ( 'NONE', #799, #145, #179, .T. ) ;
#717 = PLANE ( 'NONE',  #550 ) ;
#718 = CARTESIAN_POINT ( 'NONE',  ( -35.91506684846633846, 1.493154475609111602E-12, 27.40879313366788850 ) ) ;
#719 = ORIENTED_EDGE ( 'NONE', *, *, #578, .F. ) ;
#720 = CARTESIAN_POINT ( 'NONE',  ( 3.841805311887889651, 0.6000000000398328925, 29.96076951566878321 ) ) ;
#721 = EDGE_LOOP ( 'NONE', ( #207, #338, #528, #457, #184, #1002 ) ) ;
#722 = LINE ( 'NONE', #46, #851 ) ;
#723 = EDGE_CURVE ( 'NONE', #429, #229, #100, .T. ) ;
#724 = CYLINDRICAL_SURFACE ( 'NONE', #339, 2.350000000000001421 ) ;
#725 = PLANE ( 'NONE',  #441 ) ;
#726 = CARTESIAN_POINT ( 'NONE',  ( -21.14999999999910330, -4.000000000000000000, -1.031136381732895705E-13 ) ) ;
#727 = LINE ( 'NONE', #1070, #124 ) ;
#728 = ORIENTED_EDGE ( 'NONE', *, *, #1036, .F. ) ;
#729 = DIRECTION ( 'NONE',  ( 1.000000000000000000, 6.938893903866751493E-18, 7.089404221401388979E-17 ) ) ;
#730 = VERTEX_POINT ( 'NONE', #258 ) ;
#731 = CARTESIAN_POINT ( 'NONE',  ( -20.14999999999901448, 3.983344175133716750E-11, 23.60879313366804766 ) ) ;
#732 = AXIS2_PLACEMENT_3D ( 'NONE', #133, #896, #1063 ) ;
#733 = AXIS2_PLACEMENT_3D ( 'NONE', #602, #833, #994 ) ;
#734 = AXIS2_PLACEMENT_3D ( 'NONE', #314, #491, #639 ) ;
#735 = CARTESIAN_POINT ( 'NONE',  ( -20.14999999999904290, 0.02998304077609357382, 29.54806785028957350 ) ) ;
#736 = DIRECTION ( 'NONE',  ( -6.938893903866751493E-18, 1.000000000000000000, -1.509143076343729851E-33 ) ) ;
#737 = VECTOR ( 'NONE', #659, 1000.000000000000114 ) ;
#738 = VECTOR ( 'NONE', #445, 1000.000000000000000 ) ;
#739 = LINE ( 'NONE', #320, #737 ) ;
#740 = CARTESIAN_POINT ( 'NONE',  ( -35.91506684846628161, 1.496511084687073245E-12, -8.081259750142099821E-14 ) ) ;
#741 = DIRECTION ( 'NONE',  ( 4.711258581639858234E-15, -0.7071067811865513475, -0.7071067811865437980 ) ) ;
#742 = VERTEX_POINT ( 'NONE', #934 ) ;
#743 = EDGE_CURVE ( 'NONE', #829, #449, #1025, .T. ) ;
#744 = PRODUCT ( 'Adapter Front 1515 6mm Slots Extrusions', 'Adapter Front 1515 6mm Slots Extrusions', '', ( #268 ) ) ;
#745 = CARTESIAN_POINT ( 'NONE',  ( -21.14999999999923830, -4.000000000000003553, 27.40879313366789205 ) ) ;
#746 = FACE_OUTER_BOUND ( 'NONE', #515, .T. ) ;
#747 = FACE_OUTER_BOUND ( 'NONE', #700, .T. ) ;
#748 = ORIENTED_EDGE ( 'NONE', *, *, #879, .T. ) ;
#749 = FACE_OUTER_BOUND ( 'NONE', #890, .T. ) ;
#750 = EDGE_CURVE ( 'NONE', #446, #389, #336, .T. ) ;
#751 = ORIENTED_EDGE ( 'NONE', *, *, #99, .T. ) ;
#752 = CARTESIAN_POINT ( 'NONE',  ( -35.91506684846616082, 3.300000000045245852, 8.200000000238356179 ) ) ;
#753 = VECTOR ( 'NONE', #981, 1000.000000000000000 ) ;
#754 = VERTEX_POINT ( 'NONE', #677 ) ;
#755 = CARTESIAN_POINT ( 'NONE',  ( -28.03253342423314720, 3.983098573190346769E-11, 16.10288568320374836 ) ) ;
#756 = DIRECTION ( 'NONE',  ( 0.000000000000000000, 1.000000000000000000, 1.224646799147444173E-16 ) ) ;
#757 = AXIS2_PLACEMENT_3D ( 'NONE', #241, #915, #165 ) ;
#758 = LINE ( 'NONE', #426, #589 ) ;
#759 = CIRCLE ( 'NONE', #171, 2.350000000000001421 ) ;
#760 = CARTESIAN_POINT ( 'NONE',  ( -20.14999999999887592, 3.300000000045162363, 23.08038475793005873 ) ) ;
#761 = VERTEX_POINT ( 'NONE', #614 ) ;
#762 = VECTOR ( 'NONE', #1029, 999.9999999999998863 ) ;
#763 = FACE_OUTER_BOUND ( 'NONE', #1049, .T. ) ;
#764 = DIRECTION ( 'NONE',  ( 0.000000000000000000, -1.224646799146225383E-16, 1.000000000000000000 ) ) ;
#765 = EDGE_CURVE ( 'NONE', #964, #118, #611, .T. ) ;
#766 = CARTESIAN_POINT ( 'NONE',  ( -20.61738282944393319, 0.3313968279636251846, 29.96076951566877966 ) ) ;
#767 = EDGE_CURVE ( 'NONE', #155, #321, #31, .T. ) ;
#768 = ORIENTED_EDGE ( 'NONE', *, *, #709, .F. ) ;
#769 = ADVANCED_FACE ( 'NONE', ( #627 ), #43, .F. ) ;
#770 =( NAMED_UNIT ( * ) PLANE_ANGLE_UNIT ( ) SI_UNIT ( $, .RADIAN. ) );
#771 = DIRECTION ( 'NONE',  ( 4.906538933358161899E-18, -0.7071067811865439090, 0.7071067811865512365 ) ) ;
#772 = ORIENTED_EDGE ( 'NONE', *, *, #962, .T. ) ;
#773 = VECTOR ( 'NONE', #925, 1000.000000000000000 ) ;
#774 = VECTOR ( 'NONE', #422, 1000.000000000000000 ) ;
#775 = PLANE ( 'NONE',  #149 ) ;
#776 = VECTOR ( 'NONE', #1000, 1000.000000000000000 ) ;
#777 = VECTOR ( 'NONE', #47, 1000.000000000000000 ) ;
#778 = ORIENTED_EDGE ( 'NONE', *, *, #113, .F. ) ;
#779 = VECTOR ( 'NONE', #881, 1000.000000000000000 ) ;
#780 = LINE ( 'NONE', #798, #251 ) ;
#781 = ORIENTED_EDGE ( 'NONE', *, *, #24, .F. ) ;
#782 = CARTESIAN_POINT ( 'NONE',  ( -34.91506684846636688, -4.000000000000003553, 23.60879313366804055 ) ) ;
#783 = CARTESIAN_POINT ( 'NONE',  ( -20.14999999999914237, -2.999999999999957367, 23.60879313366804766 ) ) ;
#784 = VERTEX_POINT ( 'NONE', #878 ) ;
#785 = DIRECTION ( 'NONE',  ( 5.027458560213004389E-15, -0.7071067811865511255, 0.7071067811865440200 ) ) ;
#786 = EDGE_CURVE ( 'NONE', #225, #389, #284, .T. ) ;
#787 = PLANE ( 'NONE',  #549 ) ;
#788 = VERTEX_POINT ( 'NONE', #783 ) ;
#789 = CARTESIAN_POINT ( 'NONE',  ( -21.14999999999926672, -3.999999999999960920, 22.60879313366796595 ) ) ;
#790 = VECTOR ( 'NONE', #642, 1000.000000000000114 ) ;
#791 = CARTESIAN_POINT ( 'NONE',  ( -21.14999999999910330, -4.000000000000000000, -1.031136381732895705E-13 ) ) ;
#792 = CARTESIAN_POINT ( 'NONE',  ( -20.14999999999920277, -4.000000000000003553, 27.40879313366789205 ) ) ;
#793 = ORIENTED_EDGE ( 'NONE', *, *, #187, .F. ) ;
#794 = CARTESIAN_POINT ( 'NONE',  ( -35.91506684846646635, -2.999999999999888978, 27.40879313366788850 ) ) ;
#795 = ORIENTED_EDGE ( 'NONE', *, *, #834, .T. ) ;
#796 = EDGE_CURVE ( 'NONE', #449, #70, #780, .T. ) ;
#797 = CARTESIAN_POINT ( 'NONE',  ( -21.14999999999887947, 3.800000000045208992, 8.700000000238379272 ) ) ;
#798 = CARTESIAN_POINT ( 'NONE',  ( -34.91506684846611819, 3.983532254059340971E-11, 8.200000000238263809 ) ) ;
#799 = VERTEX_POINT ( 'NONE', #117 ) ;
#800 = FACE_OUTER_BOUND ( 'NONE', #423, .T. ) ;
#801 = LINE ( 'NONE', #812, #688 ) ;
#802 = CARTESIAN_POINT ( 'NONE',  ( -21.14999999999912106, 3.987452197876697803E-11, 28.40879313366796666 ) ) ;
#803 = ORIENTED_EDGE ( 'NONE', *, *, #607, .F. ) ;
#804 = DIRECTION ( 'NONE',  ( 2.278267525375625402E-14, 0.4999999999999997780, -0.8660254037844388186 ) ) ;
#805 = ORIENTED_EDGE ( 'NONE', *, *, #635, .F. ) ;
#806 = AXIS2_PLACEMENT_3D ( 'NONE', #302, #1046, #1055 ) ;
#807 = CARTESIAN_POINT ( 'NONE',  ( -21.14999999999912106, -3.625831363945612204E-15, 28.40879313366796666 ) ) ;
#808 = DIRECTION ( 'NONE',  ( 0.7071067811865526798, -1.977876009413438484E-14, -0.7071067811865423547 ) ) ;
#809 = ORIENTED_EDGE ( 'NONE', *, *, #673, .T. ) ;
#810 = CARTESIAN_POINT ( 'NONE',  ( -21.14999999999900737, 1.009807621175154768, 29.85096189453345872 ) ) ;
#811 = VERTEX_POINT ( 'NONE', #202 ) ;
#812 = CARTESIAN_POINT ( 'NONE',  ( 3.841805311887888319, 4.300000000045251625, 9.200000000238448550 ) ) ;
#813 = FACE_OUTER_BOUND ( 'NONE', #366, .T. ) ;
#814 = ORIENTED_EDGE ( 'NONE', *, *, #576, .T. ) ;
#815 = LINE ( 'NONE', #908, #948 ) ;
#816 = ORIENTED_EDGE ( 'NONE', *, *, #867, .T. ) ;
#817 = CARTESIAN_POINT ( 'NONE',  ( -34.91506684846615371, 3.764101615183006455, 25.08038475793005517 ) ) ;
#818 = DIRECTION ( 'NONE',  ( 0.7071067811865465735, -2.937717068967049589E-14, -0.7071067811865484609 ) ) ;
#819 = CARTESIAN_POINT ( 'NONE',  ( -35.91506684846650188, -4.000000000000002665, 23.60879313366803345 ) ) ;
#820 = ORIENTED_EDGE ( 'NONE', *, *, #355, .F. ) ;
#821 = SURFACE_SIDE_STYLE ('',( #307 ) ) ;
#822 = EDGE_LOOP ( 'NONE', ( #30, #778, #61, #175 ) ) ;
#823 = COLOUR_RGB ( '',0.7921568627450980005, 0.8196078431372548767, 0.9333333333333333481 ) ;
#824 = VECTOR ( 'NONE', #1066, 1000.000000000000000 ) ;
#825 = DIRECTION ( 'NONE',  ( 1.000000000000000000, 6.938893903866767671E-18, 2.907968004580308863E-48 ) ) ;
#826 = CARTESIAN_POINT ( 'NONE',  ( -20.14999999999890079, 2.898076211398374902, 24.58038475792997346 ) ) ;
#827 = VECTOR ( 'NONE', #959, 1000.000000000000114 ) ;
#828 = CARTESIAN_POINT ( 'NONE',  ( -21.14999999999887947, 3.764101615183007343, 25.08038475793005517 ) ) ;
#829 = VERTEX_POINT ( 'NONE', #963 ) ;
#830 = CARTESIAN_POINT ( 'NONE',  ( 3.841805311887887431, 4.300000000045251625, 23.08038475793006228 ) ) ;
#831 = EDGE_LOOP ( 'NONE', ( #331, #909, #895, #886 ) ) ;
#832 = ADVANCED_FACE ( 'NONE', ( #1034 ), #787, .T. ) ;
#833 = DIRECTION ( 'NONE',  ( 0.5773502691896104100, -0.5773502691896285066, 0.5773502691896384986 ) ) ;
#834 = EDGE_CURVE ( 'NONE', #561, #574, #76, .T. ) ;
#835 = CARTESIAN_POINT ( 'NONE',  ( 3.841805311887890539, 3.300000000045205883, 8.200000000238356179 ) ) ;
#836 = FILL_AREA_STYLE ('',( #1001 ) ) ;
#837 = DIRECTION ( 'NONE',  ( 1.000000000000000000, 6.938893903866751493E-18, 0.000000000000000000 ) ) ;
#838 = CARTESIAN_POINT ( 'NONE',  ( 2.775557561546706452E-17, -4.000000000000003553, 27.40879313366789205 ) ) ;
#839 = ORIENTED_EDGE ( 'NONE', *, *, #527, .F. ) ;
#840 = DIRECTION ( 'NONE',  ( 4.166805789339618037E-14, 1.000000000000000000, 1.224646799147444173E-16 ) ) ;
#841 = PLANE ( 'NONE',  #146 ) ;
#842 =( LENGTH_UNIT ( ) NAMED_UNIT ( * ) SI_UNIT ( .MILLI., .METRE. ) );
#843 = CARTESIAN_POINT ( 'NONE',  ( 2.775557561546703987E-17, -4.000000000000000000, -4.898587196589776691E-16 ) ) ;
#844 = DIRECTION ( 'NONE',  ( -4.522311906189516918E-17, -0.7071067811865634489, 0.7071067811865315855 ) ) ;
#845 = ORIENTED_EDGE ( 'NONE', *, *, #494, .F. ) ;
#846 = ADVANCED_FACE ( 'NONE', ( #292 ), #38, .T. ) ;
#847 = DIRECTION ( 'NONE',  ( 1.000000000000000000, -4.166805789339618037E-14, 4.852188153836162742E-15 ) ) ;
#848 = DIRECTION ( 'NONE',  ( 0.000000000000000000, 0.000000000000000000, 1.000000000000000000 ) ) ;
#849 = EDGE_CURVE ( 'NONE', #754, #446, #1031, .T. ) ;
#850 = EDGE_CURVE ( 'NONE', #118, #155, #27, .T. ) ;
#851 = VECTOR ( 'NONE', #465, 1000.000000000000000 ) ;
#852 = CARTESIAN_POINT ( 'NONE',  ( 3.841805311887890539, 3.983549526084774726E-11, 8.200000000238356179 ) ) ;
#853 = ORIENTED_EDGE ( 'NONE', *, *, #633, .T. ) ;
#854 = VECTOR ( 'NONE', #427, 1000.000000000000000 ) ;
#855 = PRESENTATION_STYLE_ASSIGNMENT (( #521 ) ) ;
#856 = DIRECTION ( 'NONE',  ( -1.000000000000000000, -6.938893903866767671E-18, 0.000000000000000000 ) ) ;
#857 = ORIENTED_EDGE ( 'NONE', *, *, #67, .F. ) ;
#858 = PLANE ( 'NONE',  #431 ) ;
#859 = EDGE_CURVE ( 'NONE', #654, #203, #1023, .T. ) ;
#860 = VERTEX_POINT ( 'NONE', #274 ) ;
#861 = VECTOR ( 'NONE', #514, 1000.000000000000000 ) ;
#862 = MECHANICAL_DESIGN_GEOMETRIC_PRESENTATION_REPRESENTATION (  '', ( #458 ), #167 ) ;
#863 = DIRECTION ( 'NONE',  ( -6.938893903866751493E-18, 1.000000000000000000, -1.509143076343730022E-33 ) ) ;
#864 = VECTOR ( 'NONE', #825, 1000.000000000000000 ) ;
#865 = AXIS2_PLACEMENT_3D ( 'NONE', #35, #213, #362 ) ;
#866 = ORIENTED_EDGE ( 'NONE', *, *, #786, .T. ) ;
#867 = EDGE_CURVE ( 'NONE', #429, #132, #378, .T. ) ;
#868 = DIRECTION ( 'NONE',  ( -6.938893903866760738E-18, 1.000000000000000000, 1.224646799146225383E-16 ) ) ;
#869 = ORIENTED_EDGE ( 'NONE', *, *, #750, .T. ) ;
#870 = CARTESIAN_POINT ( 'NONE',  ( -35.91506684846634556, -4.000000000000003553, 27.40879313366789205 ) ) ;
#871 = CARTESIAN_POINT ( 'NONE',  ( -20.14999999999881197, 3.300000000045162363, 9.200000000238453879 ) ) ;
#872 = ORIENTED_EDGE ( 'NONE', *, *, #608, .F. ) ;
#873 = LINE ( 'NONE', #447, #300 ) ;
#874 = VERTEX_POINT ( 'NONE', #691 ) ;
#875 = ADVANCED_FACE ( 'NONE', ( #950 ), #1043, .F. ) ;
#876 = PLANE ( 'NONE',  #39 ) ;
#877 = EDGE_CURVE ( 'NONE', #321, #628, #461, .T. ) ;
#878 = CARTESIAN_POINT ( 'NONE',  ( -20.14999999999901448, 3.983344175133716104E-11, 23.60879313366804766 ) ) ;
#879 = EDGE_CURVE ( 'NONE', #225, #321, #131, .T. ) ;
#880 = ORIENTED_EDGE ( 'NONE', *, *, #552, .T. ) ;
#881 = DIRECTION ( 'NONE',  ( -0.7071067811865644481, 2.730607014664613100E-14, 0.7071067811865305863 ) ) ;
#882 = AXIS2_PLACEMENT_3D ( 'NONE', #885, #711, #111 ) ;
#883 = ORIENTED_EDGE ( 'NONE', *, *, #333, .T. ) ;
#884 = DIRECTION ( 'NONE',  ( 2.250102939871682191E-15, 1.410408249620319375E-32, -1.000000000000000000 ) ) ;
#885 = CARTESIAN_POINT ( 'NONE',  ( -35.91506684846631714, 0.3000000000452516247, 23.08038475793005873 ) ) ;
#886 = ORIENTED_EDGE ( 'NONE', *, *, #361, .F. ) ;
#887 = CYLINDRICAL_SURFACE ( 'NONE', #732, 4.000000000000000000 ) ;
#888 = LINE ( 'NONE', #476, #618 ) ;
#889 = DIRECTION ( 'NONE',  ( 1.000000000000000000, 0.000000000000000000, 7.089404221401388979E-17 ) ) ;
#890 = EDGE_LOOP ( 'NONE', ( #976, #379, #115, #714 ) ) ;
#891 = CARTESIAN_POINT ( 'NONE',  ( -20.64999999999918501, -2.999999999999938272, 27.90879313366791337 ) ) ;
#892 = ORIENTED_EDGE ( 'NONE', *, *, #709, .T. ) ;
#893 = FACE_OUTER_BOUND ( 'NONE', #287, .T. ) ;
#894 = CARTESIAN_POINT ( 'NONE',  ( -21.14999999999913527, 0.3000000000452517357, 23.08038475793005873 ) ) ;
#895 = ORIENTED_EDGE ( 'NONE', *, *, #949, .F. ) ;
#896 = DIRECTION ( 'NONE',  ( -1.000000000000000000, -6.938893903866752264E-18, -7.089404221401388979E-17 ) ) ;
#897 = ORIENTED_EDGE ( 'NONE', *, *, #765, .F. ) ;
#898 = AXIS2_PLACEMENT_3D ( 'NONE', #910, #847, #95 ) ;
#899 = DIRECTION ( 'NONE',  ( 1.000000000000000000, -4.166805789339353611E-14, 3.524205599621290689E-16 ) ) ;
#900 = CARTESIAN_POINT ( 'NONE',  ( -25.68253342423314578, 4.300000000045251625, 16.10288568320374836 ) ) ;
#901 = ORIENTED_EDGE ( 'NONE', *, *, #532, .T. ) ;
#902 = PRESENTATION_STYLE_ASSIGNMENT (( #166 ) ) ;
#903 = ORIENTED_EDGE ( 'NONE', *, *, #767, .T. ) ;
#904 = LINE ( 'NONE', #731, #1021 ) ;
#905 = CARTESIAN_POINT ( 'NONE',  ( 3.841805311887889651, 0.6000000000398328925, 29.36076951566878535 ) ) ;
#906 = DIRECTION ( 'NONE',  ( 4.166805789339618037E-14, 1.000000000000000000, 1.224646799147444173E-16 ) ) ;
#907 = ORIENTED_EDGE ( 'NONE', *, *, #451, .F. ) ;
#908 = CARTESIAN_POINT ( 'NONE',  ( -35.91506684846621766, 2.898076211398568969, 24.58038475793005517 ) ) ;
#909 = ORIENTED_EDGE ( 'NONE', *, *, #575, .F. ) ;
#910 = CARTESIAN_POINT ( 'NONE',  ( -20.14999999999900382, 0.3000000000452517357, 23.08038475793006228 ) ) ;
#911 = EDGE_CURVE ( 'NONE', #70, #730, #382, .T. ) ;
#912 = VECTOR ( 'NONE', #944, 1000.000000000000000 ) ;
#913 = LINE ( 'NONE', #157, #403 ) ;
#914 = CARTESIAN_POINT ( 'NONE',  ( -21.14999999999921698, -4.000000000000003553, 23.60879313366804055 ) ) ;
#915 = DIRECTION ( 'NONE',  ( -1.000000000000000000, 4.166805789339466576E-14, -2.250102939871682191E-15 ) ) ;
#916 = EDGE_CURVE ( 'NONE', #1078, #308, #239, .T. ) ;
#917 = CARTESIAN_POINT ( 'NONE',  ( -20.14999999999887592, 3.300000000045039350, 23.08038475793006228 ) ) ;
#918 = VECTOR ( 'NONE', #344, 1000.000000000000114 ) ;
#919 = ADVANCED_FACE ( 'NONE', ( #391 ), #724, .F. ) ;
#920 = ORIENTED_EDGE ( 'NONE', *, *, #406, .T. ) ;
#921 = VECTOR ( 'NONE', #808, 1000.000000000000000 ) ;
#922 = CARTESIAN_POINT ( 'NONE',  ( 3.841805311887889651, 3.983290381398228849E-11, 29.36076951566878535 ) ) ;
#923 = EDGE_LOOP ( 'NONE', ( #705, #980, #695, #396 ) ) ;
#924 = ADVANCED_FACE ( 'NONE', ( #979 ), #643, .T. ) ;
#925 = DIRECTION ( 'NONE',  ( -1.000000000000000000, -6.938893903866751493E-18, -7.089404221401388979E-17 ) ) ;
#926 = ORIENTED_EDGE ( 'NONE', *, *, #962, .F. ) ;
#927 = CARTESIAN_POINT ( 'NONE',  ( -34.91506684846631714, -4.000000000000000000, -7.905235328120952629E-14 ) ) ;
#928 =( NAMED_UNIT ( * ) PLANE_ANGLE_UNIT ( ) SI_UNIT ( $, .RADIAN. ) );
#929 = ORIENTED_EDGE ( 'NONE', *, *, #475, .F. ) ;
#930 = FACE_OUTER_BOUND ( 'NONE', #20, .T. ) ;
#931 = EDGE_LOOP ( 'NONE', ( #510, #36, #345, #907 ) ) ;
#932 = DIRECTION ( 'NONE',  ( 8.497694208994150233E-34, -1.224646799147444173E-16, 1.000000000000000000 ) ) ;
#933 = CARTESIAN_POINT ( 'NONE',  ( -35.21506684846630009, 0.6000000000398326705, 29.96076951566877966 ) ) ;
#934 = CARTESIAN_POINT ( 'NONE',  ( -21.14999999999897184, 4.300000000045251625, 23.08038475793005873 ) ) ;
#935 = ORIENTED_EDGE ( 'NONE', *, *, #214, .T. ) ;
#936 = AXIS2_PLACEMENT_3D ( 'NONE', #794, #971, #217 ) ;
#937 = DIRECTION ( 'NONE',  ( -0.5773502691895837646, 0.5773502691896599259, -0.5773502691896338357 ) ) ;
#938 = CARTESIAN_POINT ( 'NONE',  ( -21.14999999999901092, 1.119615242310496361, 29.66076951566878250 ) ) ;
#939 = AXIS2_PLACEMENT_3D ( 'NONE', #385, #563, #309 ) ;
#940 = CARTESIAN_POINT ( 'NONE',  ( -35.21506684846630009, 0.6000000000398326705, 29.96076951566877966 ) ) ;
#941 = ORIENTED_EDGE ( 'NONE', *, *, #650, .F. ) ;
#942 = VECTOR ( 'NONE', #183, 1000.000000000000000 ) ;
#943 = PRODUCT_DEFINITION ( 'UNKNOWN', '', #697, #539 ) ;
#944 = DIRECTION ( 'NONE',  ( 1.000000000000000000, 6.938893903866767671E-18, 0.000000000000000000 ) ) ;
#945 = EDGE_LOOP ( 'NONE', ( #935, #795 ) ) ;
#946 = DIRECTION ( 'NONE',  ( 4.852188153836167475E-15, 1.224646799146225629E-16, -1.000000000000000000 ) ) ;
#947 = ORIENTED_EDGE ( 'NONE', *, *, #489, .F. ) ;
#948 = VECTOR ( 'NONE', #804, 1000.000000000000114 ) ;
#949 = EDGE_CURVE ( 'NONE', #761, #132, #558, .T. ) ;
#950 = FACE_OUTER_BOUND ( 'NONE', #417, .T. ) ;
#951 = AXIS2_PLACEMENT_3D ( 'NONE', #588, #18, #419 ) ;
#952 = AXIS2_PLACEMENT_3D ( 'NONE', #65, #228, #984 ) ;
#953 = VECTOR ( 'NONE', #977, 1000.000000000000000 ) ;
#954 = VERTEX_POINT ( 'NONE', #310 ) ;
#955 = DIRECTION ( 'NONE',  ( -4.166805789339618037E-14, -1.000000000000000000, -1.224646799147444173E-16 ) ) ;
#956 = ADVANCED_BREP_SHAPE_REPRESENTATION ( 'Adapter Front 1515 6mm Slots Extrusions', ( #556, #108 ), #249 ) ;
#957 = CARTESIAN_POINT ( 'NONE',  ( -35.91506684846633846, -3.605819916376244273E-15, 27.40879313366788850 ) ) ;
#958 = EDGE_LOOP ( 'NONE', ( #872, #897, #455, #285, #1077 ) ) ;
#959 = DIRECTION ( 'NONE',  ( -0.7071067811865500152, 2.137264139447260850E-14, -0.7071067811865451302 ) ) ;
#960 = ADVANCED_FACE ( 'NONE', ( #746 ), #60, .T. ) ;
#961 = ADVANCED_FACE ( 'NONE', ( #564 ), #233, .T. ) ;
#962 = EDGE_CURVE ( 'NONE', #561, #970, #727, .T. ) ;
#963 = CARTESIAN_POINT ( 'NONE',  ( -35.91506684846616082, 3.300000000045245852, 9.200000000238397035 ) ) ;
#964 = VERTEX_POINT ( 'NONE', #826 ) ;
#965 = FACE_OUTER_BOUND ( 'NONE', #568, .T. ) ;
#966 = ORIENTED_EDGE ( 'NONE', *, *, #527, .T. ) ;
#967 = DIRECTION ( 'NONE',  ( -0.7071067811865174857, 0.7071067811865776598, -1.591063047150985163E-15 ) ) ;
#968 = DIRECTION ( 'NONE',  ( -2.503614715186211652E-14, -0.4999999999999997780, 0.8660254037844388186 ) ) ;
#969 = PRESENTATION_LAYER_ASSIGNMENT (  '', '', ( #353 ) ) ;
#970 = VERTEX_POINT ( 'NONE', #900 ) ;
#971 = DIRECTION ( 'NONE',  ( -0.5773502691896368333, -0.5773502691896172934, 0.5773502691896232886 ) ) ;
#972 = VECTOR ( 'NONE', #530, 1000.000000000000000 ) ;
#973 = CIRCLE ( 'NONE', #357, 4.000000000000000000 ) ;
#974 = DIRECTION ( 'NONE',  ( 4.852188153836167475E-15, 1.224646799146225629E-16, -1.000000000000000000 ) ) ;
#975 = DIRECTION ( 'NONE',  ( -4.166805789339466576E-14, -1.000000000000000000, -1.224646799147444173E-16 ) ) ;
#976 = ORIENTED_EDGE ( 'NONE', *, *, #879, .F. ) ;
#977 = DIRECTION ( 'NONE',  ( -1.000000000000000000, -6.938893903866767671E-18, 0.000000000000000000 ) ) ;
#978 = DIRECTION ( 'NONE',  ( -4.166805789339466576E-14, -1.000000000000000000, -2.954017055270296048E-30 ) ) ;
#979 = FACE_OUTER_BOUND ( 'NONE', #931, .T. ) ;
#980 = ORIENTED_EDGE ( 'NONE', *, *, #575, .T. ) ;
#981 = DIRECTION ( 'NONE',  ( 4.852188153836162742E-15, 3.215967572472313930E-32, -1.000000000000000000 ) ) ;
#982 = ADVANCED_FACE ( 'NONE', ( #813 ), #305, .F. ) ;
#983 = CARTESIAN_POINT ( 'NONE',  ( -21.14999999999885461, 3.300000000045205883, 8.200000000238354403 ) ) ;
#984 = DIRECTION ( 'NONE',  ( 2.278267525375625402E-14, 0.4999999999999997780, -0.8660254037844387076 ) ) ;
#985 = CARTESIAN_POINT ( 'NONE',  ( -15.85849391077037751, 3.983294597172303830E-11, 27.90029922289667397 ) ) ;
#986 = CARTESIAN_POINT ( 'NONE',  ( -20.14999999999881197, 3.300000000045162363, 9.200000000238453879 ) ) ;
#987 = PRODUCT_RELATED_PRODUCT_CATEGORY ( 'part', '', ( #744 ) ) ;
#988 = AXIS2_PLACEMENT_3D ( 'NONE', #755, #583, #205 ) ;
#989 = DIRECTION ( 'NONE',  ( -8.497694208994119442E-34, 1.224646799147444173E-16, -1.000000000000000000 ) ) ;
#990 = LINE ( 'NONE', #802, #1056 ) ;
#991 = PLANE ( 'NONE',  #1035 ) ;
#992 = LINE ( 'NONE', #74, #1072 ) ;
#993 = ORIENTED_EDGE ( 'NONE', *, *, #786, .F. ) ;
#994 = DIRECTION ( 'NONE',  ( 0.000000000000000000, -0.7071067811865536790, -0.7071067811865414665 ) ) ;
#995 = LINE ( 'NONE', #835, #337 ) ;
#996 = CARTESIAN_POINT ( 'NONE',  ( -35.41506684846611819, 3.800000000045248960, 9.200000000238421904 ) ) ;
#997 = DIRECTION ( 'NONE',  ( -2.249664653975996132E-15, 5.861487828712744901E-13, -1.000000000000000000 ) ) ;
#998 = CARTESIAN_POINT ( 'NONE',  ( -34.91506684846625319, 3.979178676599743209E-11, 22.60879313366796595 ) ) ;
#999 = ORIENTED_EDGE ( 'NONE', *, *, #410, .T. ) ;
#1000 = DIRECTION ( 'NONE',  ( -6.938893903866751493E-18, 1.000000000000000000, -1.509143076343729851E-33 ) ) ;
#1001 = FILL_AREA_STYLE_COLOUR ( '', #630 ) ;
#1002 = ORIENTED_EDGE ( 'NONE', *, *, #850, .F. ) ;
#1003 = EDGE_LOOP ( 'NONE', ( #173, #901, #234 ) ) ;
#1004 = DIRECTION ( 'NONE',  ( -4.166805789339618037E-14, -1.000000000000000000, -1.224646799147444173E-16 ) ) ;
#1005 = CARTESIAN_POINT ( 'NONE',  ( -34.91506684846610398, 4.300000000045251625, 23.08038475793005873 ) ) ;
#1006 = EDGE_CURVE ( 'NONE', #860, #225, #990, .T. ) ;
#1007 = FACE_OUTER_BOUND ( 'NONE', #301, .T. ) ;
#1008 = CARTESIAN_POINT ( 'NONE',  ( -25.64102733500385867, 3.983168007693694782E-11, 37.68283264713030434 ) ) ;
#1009 = EDGE_LOOP ( 'NONE', ( #462, #112, #473 ) ) ;
#1010 = AXIS2_PLACEMENT_3D ( 'NONE', #694, #868, #448 ) ;
#1011 = FACE_OUTER_BOUND ( 'NONE', #612, .T. ) ;
#1012 = CARTESIAN_POINT ( 'NONE',  ( -20.14999999999906777, -2.999999999999954259, 8.000000000204684270 ) ) ;
#1013 = CARTESIAN_POINT ( 'NONE',  ( -34.91506684846627451, 1.009807621175163206, 29.85096189453344806 ) ) ;
#1014 = ORIENTED_EDGE ( 'NONE', *, *, #537, .F. ) ;
#1015 = PLANE ( 'NONE',  #733 ) ;
#1016 = DIRECTION ( 'NONE',  ( 4.852188153836167475E-15, 1.224646799147443926E-16, -1.000000000000000000 ) ) ;
#1017 = DIRECTION ( 'NONE',  ( 0.7071067811865286989, -8.168906669011384137E-17, 0.7071067811865664465 ) ) ;
#1018 = EDGE_LOOP ( 'NONE', ( #93, #601, #1073, #487 ) ) ;
#1019 = ADVANCED_FACE ( 'NONE', ( #472 ), #585, .T. ) ;
#1020 = VECTOR ( 'NONE', #729, 1000.000000000000000 ) ;
#1021 = VECTOR ( 'NONE', #840, 1000.000000000000000 ) ;
#1022 = PLANE ( 'NONE',  #110 ) ;
#1023 = CIRCLE ( 'NONE', #882, 3.000000000000113687 ) ;
#1024 = AXIS2_PLACEMENT_3D ( 'NONE', #541, #1039, #560 ) ;
#1025 = LINE ( 'NONE', #16, #774 ) ;
#1026 = ORIENTED_EDGE ( 'NONE', *, *, #289, .T. ) ;
#1027 = EDGE_CURVE ( 'NONE', #306, #799, #913, .T. ) ;
#1028 = ADVANCED_FACE ( 'NONE', ( #72 ), #224, .T. ) ;
#1029 = DIRECTION ( 'NONE',  ( 0.7071067811865487940, -0.7071067811865463515, 6.367697232447780383E-15 ) ) ;
#1030 = VERTEX_POINT ( 'NONE', #499 ) ;
#1031 = LINE ( 'NONE', #957, #972 ) ;
#1032 = ORIENTED_EDGE ( 'NONE', *, *, #1051, .T. ) ;
#1033 = LINE ( 'NONE', #870, #185 ) ;
#1034 = FACE_OUTER_BOUND ( 'NONE', #1003, .T. ) ;
#1035 = AXIS2_PLACEMENT_3D ( 'NONE', #493, #73, #837 ) ;
#1036 = EDGE_CURVE ( 'NONE', #308, #742, #502, .T. ) ;
#1037 = AXIS2_PLACEMENT_3D ( 'NONE', #626, #967, #884 ) ;
#1038 = ORIENTED_EDGE ( 'NONE', *, *, #635, .T. ) ;
#1039 = DIRECTION ( 'NONE',  ( -1.000000000000000000, -6.938893903866753034E-18, -7.089404221401388979E-17 ) ) ;
#1040 = EDGE_CURVE ( 'NONE', #308, #83, #319, .T. ) ;
#1041 = EDGE_CURVE ( 'NONE', #1067, #829, #658, .T. ) ;
#1042 = AXIS2_PLACEMENT_3D ( 'NONE', #838, #771, #87 ) ;
#1043 = PLANE ( 'NONE',  #631 ) ;
#1044 = UNCERTAINTY_MEASURE_WITH_UNIT (LENGTH_MEASURE( 1.000000000000000082E-05 ), #842, 'distance_accuracy_value', 'NONE');
#1045 = ORIENTED_EDGE ( 'NONE', *, *, #64, .T. ) ;
#1046 = DIRECTION ( 'NONE',  ( 1.000000000000000000, -0.000000000000000000, -0.000000000000000000 ) ) ;
#1047 = FACE_OUTER_BOUND ( 'NONE', #250, .T. ) ;
#1048 = CARTESIAN_POINT ( 'NONE',  ( -28.03253342423314720, 3.983098573190346769E-11, 16.10288568320374836 ) ) ;
#1049 = EDGE_LOOP ( 'NONE', ( #434, #625, #610 ) ) ;
#1050 = CARTESIAN_POINT ( 'NONE',  ( -34.91506684846642372, -4.000000000000045297, 28.40879313366796666 ) ) ;
#1051 = EDGE_CURVE ( 'NONE', #628, #788, #386, .T. ) ;
#1052 = DIRECTION ( 'NONE',  ( -6.938893903866751493E-18, 1.000000000000000000, -1.509143076343729851E-33 ) ) ;
#1053 = CARTESIAN_POINT ( 'NONE',  ( -34.91506684846602582, 4.300000000045210768, 8.200000000238352627 ) ) ;
#1054 = ORIENTED_EDGE ( 'NONE', *, *, #916, .T. ) ;
#1055 = DIRECTION ( 'NONE',  ( 0.000000000000000000, 0.000000000000000000, -1.000000000000000000 ) ) ;
#1056 = VECTOR ( 'NONE', #906, 1000.000000000000000 ) ;
#1057 =( BOUNDED_CURVE ( )  B_SPLINE_CURVE ( 3, ( #264, #29, #766, #192 ),
 .UNSPECIFIED., .F., .T. ) 
 B_SPLINE_CURVE_WITH_KNOTS ( ( 4, 4 ),
 ( 3.982661324157830141, 5.235987755983011027 ),
 .UNSPECIFIED. ) 
 CURVE ( )  GEOMETRIC_REPRESENTATION_ITEM ( )  RATIONAL_B_SPLINE_CURVE ( ( 1.000000000000000000, 0.8733259034539578858, 0.8733259034539578858, 1.000000000000000000 ) ) 
 REPRESENTATION_ITEM ( '' )  );
#1058 = ORIENTED_EDGE ( 'NONE', *, *, #325, .F. ) ;
#1059 = LINE ( 'NONE', #210, #215 ) ;
#1060 = DIRECTION ( 'NONE',  ( -1.000000000000000000, -6.938893903172476089E-18, 0.000000000000000000 ) ) ;
#1061 = EDGE_CURVE ( 'NONE', #180, #203, #603, .T. ) ;
#1062 = ORIENTED_EDGE ( 'NONE', *, *, #237, .T. ) ;
#1063 = DIRECTION ( 'NONE',  ( -1.084202172485504434E-16, 0.000000000000000000, 1.000000000000000000 ) ) ;
#1064 = ORIENTED_EDGE ( 'NONE', *, *, #67, .T. ) ;
#1065 = LINE ( 'NONE', #797, #790 ) ;
#1066 = DIRECTION ( 'NONE',  ( -1.000000000000000000, -6.938893903866748412E-18, -7.089404221401388979E-17 ) ) ;
#1067 = VERTEX_POINT ( 'NONE', #432 ) ;
#1068 = CARTESIAN_POINT ( 'NONE',  ( -21.14999999999923830, -4.000000000000003553, 27.40879313366789205 ) ) ;
#1069 = DIRECTION ( 'NONE',  ( 0.7071067811865483499, -2.762227012522086277E-14, 0.7071067811865466846 ) ) ;
#1070 = CARTESIAN_POINT ( 'NONE',  ( -25.68253342423314578, 3.983100203830413929E-11, 16.10288568320374836 ) ) ;
#1071 = VERTEX_POINT ( 'NONE', #933 ) ;
#1072 = VECTOR ( 'NONE', #139, 1000.000000000000000 ) ;
#1073 = ORIENTED_EDGE ( 'NONE', *, *, #289, .F. ) ;
#1074 = ADVANCED_FACE ( 'NONE', ( #21, #14 ), #1022, .F. ) ;
#1075 = DIRECTION ( 'NONE',  ( -6.938893903866751493E-18, 1.000000000000000000, -1.509143076343730022E-33 ) ) ;
#1076 = DIRECTION ( 'NONE',  ( -1.000000000000000000, 0.000000000000000000, -3.469446951953153888E-15 ) ) ;
#1077 = ORIENTED_EDGE ( 'NONE', *, *, #525, .F. ) ;
#1078 = VERTEX_POINT ( 'NONE', #938 ) ;
ENDSEC;
END-ISO-10303-21;
