ISO-10303-21;
HEADER;
FILE_DESCRIPTION (( 'STEP AP214' ),
    '1' );
FILE_NAME ('Idler Roller.STEP',
    '2026-09-02T10:00:18',
    ( '' ),
    ( '' ),
    '',
    '',
    '' );
FILE_SCHEMA (( 'AUTOMOTIVE_DESIGN' ));
ENDSEC;

DATA;
#1 = CARTESIAN_POINT ( 'NONE',  ( 5.100000000000000533, 3.437173806538317029E-16, 11.40099999999998737 ) ) ;
#2 = VERTEX_POINT ( 'NONE', #274 ) ;
#3 = EDGE_CURVE ( 'NONE', #560, #496, #69, .T. ) ;
#4 = DIRECTION ( 'NONE',  ( 0.000000000000000000, -1.000000000000000000, 0.000000000000000000 ) ) ;
#5 = CARTESIAN_POINT ( 'NONE',  ( 7.000000000000000000, -3.000000000000001332, 6.300000000000000711 ) ) ;
#6 = AXIS2_PLACEMENT_3D ( 'NONE', #286, #509, #533 ) ;
#7 = CARTESIAN_POINT ( 'NONE',  ( 19.00000000000000000, 1.334865011070613864E-15, 10.39999999999999325 ) ) ;
#8 = ORIENTED_EDGE ( 'NONE', *, *, #458, .F. ) ;
#9 = PLANE ( 'NONE',  #487 ) ;
#10 = CARTESIAN_POINT ( 'NONE',  ( 0.000000000000000000, 1.396097351027981044E-15, -11.39999999999998614 ) ) ;
#11 = DIRECTION ( 'NONE',  ( -1.000000000000000000, -0.000000000000000000, -0.000000000000000000 ) ) ;
#12 = ORIENTED_EDGE ( 'NONE', *, *, #736, .T. ) ;
#13 = CARTESIAN_POINT ( 'NONE',  ( 5.204170427930421283E-15, -2.606242505984429414, 3.100000000000000089 ) ) ;
#14 = ORIENTED_EDGE ( 'NONE', *, *, #961, .F. ) ;
#15 = FACE_OUTER_BOUND ( 'NONE', #461, .T. ) ;
#16 = ORIENTED_EDGE ( 'NONE', *, *, #438, .F. ) ;
#17 = CARTESIAN_POINT ( 'NONE',  ( 20.59999999999999432, 0.000000000000000000, 0.000000000000000000 ) ) ;
#18 = ORIENTED_EDGE ( 'NONE', *, *, #259, .T. ) ;
#19 = AXIS2_PLACEMENT_3D ( 'NONE', #135, #345, #835 ) ;
#20 = CARTESIAN_POINT ( 'NONE',  ( -1.983707139815061427E-14, 0.000000000000000000, 0.000000000000000000 ) ) ;
#21 =( GEOMETRIC_REPRESENTATION_CONTEXT ( 3 ) GLOBAL_UNCERTAINTY_ASSIGNED_CONTEXT ( ( #265 ) ) GLOBAL_UNIT_ASSIGNED_CONTEXT ( ( #497, #899, #589 ) ) REPRESENTATION_CONTEXT ( 'NONE', 'WORKASPACE' ) );
#22 = EDGE_CURVE ( 'NONE', #261, #686, #202, .T. ) ;
#23 = CIRCLE ( 'NONE', #755, 2.500000000000000000 ) ;
#24 = SURFACE_STYLE_FILL_AREA ( #767 ) ;
#25 = DIRECTION ( 'NONE',  ( -0.000000000000000000, -0.000000000000000000, -1.000000000000000000 ) ) ;
#26 = ORIENTED_EDGE ( 'NONE', *, *, #991, .F. ) ;
#27 = FACE_OUTER_BOUND ( 'NONE', #160, .T. ) ;
#28 = B_SPLINE_CURVE_WITH_KNOTS ( 'NONE', 3,
 ( #554, #76, #869, #400 ),
 .UNSPECIFIED., .F., .F.,
 ( 4, 4 ),
 ( 2.710505431213761085E-20, 0.0002464067766229605062 ),
 .UNSPECIFIED. ) ;
#29 = EDGE_CURVE ( 'NONE', #261, #928, #937, .T. ) ;
#30 = CARTESIAN_POINT ( 'NONE',  ( 20.00000000000000000, 0.000000000000000000, 0.000000000000000000 ) ) ;
#31 = VERTEX_POINT ( 'NONE', #210 ) ;
#32 = PRESENTATION_LAYER_ASSIGNMENT (  '', '', ( #679 ) ) ;
#33 = DIRECTION ( 'NONE',  ( -1.000000000000000000, 0.000000000000000000, 0.000000000000000000 ) ) ;
#34 = CARTESIAN_POINT ( 'NONE',  ( 20.00000000000000000, 2.606242505984429414, 3.100000000000000089 ) ) ;
#35 = ORIENTED_EDGE ( 'NONE', *, *, #627, .F. ) ;
#36 = CARTESIAN_POINT ( 'NONE',  ( -0.3999999999999994671, 5.000000000000000000, 3.500000000000004441 ) ) ;
#37 = PLANE ( 'NONE',  #457 ) ;
#38 = ORIENTED_EDGE ( 'NONE', *, *, #607, .T. ) ;
#39 = DIRECTION ( 'NONE',  ( -0.000000000000000000, -0.000000000000000000, -1.000000000000000000 ) ) ;
#40 = ADVANCED_FACE ( 'NONE', ( #536 ), #304, .T. ) ;
#41 = CARTESIAN_POINT ( 'NONE',  ( 7.000000000000000000, -3.000000000000001332, 6.300000000000000711 ) ) ;
#42 = CIRCLE ( 'NONE', #828, 11.39999999999998614 ) ;
#43 = DIRECTION ( 'NONE',  ( 1.000000000000000000, 0.000000000000000000, 0.000000000000000000 ) ) ;
#44 = DIRECTION ( 'NONE',  ( 0.000000000000000000, -2.168404344971008868E-16, -1.000000000000000000 ) ) ;
#45 = EDGE_CURVE ( 'NONE', #31, #234, #719, .T. ) ;
#46 = DIRECTION ( 'NONE',  ( -1.000000000000000000, 0.000000000000000000, 0.000000000000000000 ) ) ;
#47 = ORIENTED_EDGE ( 'NONE', *, *, #379, .T. ) ;
#48 = CARTESIAN_POINT ( 'NONE',  ( 19.00000000000000000, 0.000000000000000000, -10.39999999999999325 ) ) ;
#49 = DIRECTION ( 'NONE',  ( -0.000000000000000000, 1.445602896647339656E-16, 1.000000000000000000 ) ) ;
#50 = CARTESIAN_POINT ( 'NONE',  ( -0.2664649041146986974, 2.702020381224713219, 3.366464904114549128 ) ) ;
#51 = FACE_BOUND ( 'NONE', #727, .T. ) ;
#52 = ORIENTED_EDGE ( 'NONE', *, *, #698, .F. ) ;
#53 = DIRECTION ( 'NONE',  ( 0.000000000000000000, 1.000000000000000000, 0.000000000000000000 ) ) ;
#54 = AXIS2_PLACEMENT_3D ( 'NONE', #901, #995, #504 ) ;
#55 = EDGE_CURVE ( 'NONE', #164, #737, #174, .T. ) ;
#56 = PLANE ( 'NONE',  #422 ) ;
#57 = CIRCLE ( 'NONE', #489, 1.600000000000000755 ) ;
#58 = CARTESIAN_POINT ( 'NONE',  ( -0.2413870514423327451, -2.852358510660530033, 4.300000000000000711 ) ) ;
#59 = CARTESIAN_POINT ( 'NONE',  ( 3.292332160565888621, 1.589919544661321016, 8.900914002864293906 ) ) ;
#60 = EDGE_CURVE ( 'NONE', #928, #429, #680, .T. ) ;
#61 = CARTESIAN_POINT ( 'NONE',  ( -1.983707139815061427E-14, 0.000000000000000000, 0.000000000000000000 ) ) ;
#62 = ORIENTED_EDGE ( 'NONE', *, *, #538, .F. ) ;
#63 = CARTESIAN_POINT ( 'NONE',  ( 5.100000000000000533, 1.690134489436017793E-25, 9.100363957718803576 ) ) ;
#64 = CARTESIAN_POINT ( 'NONE',  ( 3.086835909975660819, 1.549279033855958998, 8.902943885435739446 ) ) ;
#65 = EDGE_CURVE ( 'NONE', #384, #796, #999, .T. ) ;
#66 = EDGE_LOOP ( 'NONE', ( #809, #897, #976, #849 ) ) ;
#67 = APPLICATION_CONTEXT ( 'automotive_design' ) ;
#68 = CARTESIAN_POINT ( 'NONE',  ( 3.923468693454605472, -1.556912048799709458, 8.924837679021466741 ) ) ;
#69 = CIRCLE ( 'NONE', #785, 10.99999999999999289 ) ;
#70 = ORIENTED_EDGE ( 'NONE', *, *, #188, .F. ) ;
#71 = VECTOR ( 'NONE', #982, 1000.000000000000000 ) ;
#72 = DIRECTION ( 'NONE',  ( -1.000000000000000000, -0.000000000000000000, -0.000000000000000000 ) ) ;
#73 = ORIENTED_EDGE ( 'NONE', *, *, #1040, .F. ) ;
#74 = CIRCLE ( 'NONE', #477, 5.000000000000000000 ) ;
#75 = ADVANCED_FACE ( 'NONE', ( #189, #27 ), #752, .F. ) ;
#76 = CARTESIAN_POINT ( 'NONE',  ( -0.1048239850495900766, -3.000000000000000888, 4.363508854464424935 ) ) ;
#77 = FACE_OUTER_BOUND ( 'NONE', #88, .T. ) ;
#78 = ORIENTED_EDGE ( 'NONE', *, *, #607, .F. ) ;
#79 = DIRECTION ( 'NONE',  ( 0.000000000000000000, 0.000000000000000000, -1.000000000000000000 ) ) ;
#80 = EDGE_LOOP ( 'NONE', ( #390, #413 ) ) ;
#81 = CARTESIAN_POINT ( 'NONE',  ( 7.000000000000000000, 2.999999999999998668, 6.299999999999999822 ) ) ;
#82 = CARTESIAN_POINT ( 'NONE',  ( 2.101954721648044089, -0.8056162128230304198, 8.983034009651762020 ) ) ;
#83 = FACE_OUTER_BOUND ( 'NONE', #511, .T. ) ;
#84 = ORIENTED_EDGE ( 'NONE', *, *, #29, .T. ) ;
#85 = DIRECTION ( 'NONE',  ( 1.000000000000000000, -0.000000000000000000, -0.000000000000000000 ) ) ;
#86 = EDGE_CURVE ( 'NONE', #350, #240, #674, .T. ) ;
#87 = CARTESIAN_POINT ( 'NONE',  ( 1.942091585353840966, -0.4200826755059188233, 9.006801785501913571 ) ) ;
#88 = EDGE_LOOP ( 'NONE', ( #814, #717, #590, #801, #347 ) ) ;
#89 = VECTOR ( 'NONE', #984, 1000.000000000000000 ) ;
#90 = DIRECTION ( 'NONE',  ( -1.000000000000000000, -0.000000000000000000, -0.000000000000000000 ) ) ;
#91 = ORIENTED_EDGE ( 'NONE', *, *, #438, .T. ) ;
#92 = AXIS2_PLACEMENT_3D ( 'NONE', #183, #883, #103 ) ;
#93 = CARTESIAN_POINT ( 'NONE',  ( -1.983707139815061427E-14, 2.999999999999997335, 1.301042606982607885E-15 ) ) ;
#94 = EDGE_CURVE ( 'NONE', #323, #2, #575, .T. ) ;
#95 = ORIENTED_EDGE ( 'NONE', *, *, #472, .F. ) ;
#96 = FILL_AREA_STYLE ('',( #816 ) ) ;
#97 = EDGE_LOOP ( 'NONE', ( #182, #1039, #571, #945 ) ) ;
#98 = CARTESIAN_POINT ( 'NONE',  ( 5.100000000000000533, 3.437173806538317522E-16, 4.299999999999999822 ) ) ;
#99 = ORIENTED_EDGE ( 'NONE', *, *, #495, .T. ) ;
#100 = ADVANCED_FACE ( 'NONE', ( #582 ), #558, .T. ) ;
#101 = DIRECTION ( 'NONE',  ( 0.000000000000000000, -1.445602896647339163E-16, -1.000000000000000000 ) ) ;
#102 = APPLICATION_PROTOCOL_DEFINITION ( 'draft international standard', 'automotive_design', 1998, #212 ) ;
#103 = DIRECTION ( 'NONE',  ( 0.000000000000000000, 0.000000000000000000, 1.000000000000000000 ) ) ;
#104 = EDGE_LOOP ( 'NONE', ( #673, #939, #573, #271 ) ) ;
#105 = VECTOR ( 'NONE', #602, 1000.000000000000000 ) ;
#106 = ADVANCED_FACE ( 'NONE', ( #687 ), #908, .F. ) ;
#107 = LINE ( 'NONE', #758, #105 ) ;
#108 = AXIS2_PLACEMENT_3D ( 'NONE', #61, #802, #79 ) ;
#109 = CONICAL_SURFACE ( 'NONE', #153, 8.600000000000108002, 0.7853981633974502774 ) ;
#110 = CARTESIAN_POINT ( 'NONE',  ( 0.4006190611126919654, 0.000000000000000000, 0.000000000000000000 ) ) ;
#111 = ORIENTED_EDGE ( 'NONE', *, *, #178, .F. ) ;
#112 = CYLINDRICAL_SURFACE ( 'NONE', #547, 1.600000000000000977 ) ;
#113 = CARTESIAN_POINT ( 'NONE',  ( -0.3999999999999995226, 2.999999999999998224, 4.299999999999999822 ) ) ;
#114 = ORIENTED_EDGE ( 'NONE', *, *, #60, .F. ) ;
#115 = FACE_OUTER_BOUND ( 'NONE', #415, .T. ) ;
#116 = ADVANCED_FACE ( 'NONE', ( #276 ), #335, .F. ) ;
#117 = DIRECTION ( 'NONE',  ( 0.000000000000000000, -1.000000000000000000, 0.000000000000000000 ) ) ;
#118 = EDGE_LOOP ( 'NONE', ( #732, #399, #894, #707 ) ) ;
#119 = CARTESIAN_POINT ( 'NONE',  ( -0.3999999999999995226, -3.000000000000001332, 6.300000000000000711 ) ) ;
#120 = B_SPLINE_CURVE_WITH_KNOTS ( 'NONE', 3,
 ( #833, #768, #201, #290 ),
 .UNSPECIFIED., .F., .F.,
 ( 4, 4 ),
 ( 0.000000000000000000, 0.0002464067766229639214 ),
 .UNSPECIFIED. ) ;
#121 = FACE_BOUND ( 'NONE', #380, .T. ) ;
#122 = ORIENTED_EDGE ( 'NONE', *, *, #495, .F. ) ;
#123 = UNCERTAINTY_MEASURE_WITH_UNIT (LENGTH_MEASURE( 1.000000000000000082E-05 ), #437, 'distance_accuracy_value', 'NONE');
#124 = DIRECTION ( 'NONE',  ( -0.000000000000000000, 1.445602896647339656E-16, 1.000000000000000000 ) ) ;
#125 = ORIENTED_EDGE ( 'NONE', *, *, #746, .T. ) ;
#126 = CLOSED_SHELL ( 'NONE', ( #100, #40, #146, #319, #157, #376, #712, #759, #283, #556, #715, #75, #871, #922, #116, #694, #223, #852, #766, #446, #845, #778, #514, #601, #864, #820, #977, #348, #815, #341, #972, #106, #879 ) ) ;
#127 = CARTESIAN_POINT ( 'NONE',  ( 1.899999999999998579, 1.477738927902551059E-16, 6.299999999999999822 ) ) ;
#128 = AXIS2_PLACEMENT_3D ( 'NONE', #279, #603, #46 ) ;
#129 = EDGE_CURVE ( 'NONE', #407, #644, #107, .T. ) ;
#130 = FACE_BOUND ( 'NONE', #433, .T. ) ;
#131 = CARTESIAN_POINT ( 'NONE',  ( 5.204170427930421283E-15, 2.606242505984429414, 3.100000000000000089 ) ) ;
#132 = DIRECTION ( 'NONE',  ( 0.000000000000000000, -1.445602896647339163E-16, -1.000000000000000000 ) ) ;
#133 = ORIENTED_EDGE ( 'NONE', *, *, #334, .T. ) ;
#134 = CARTESIAN_POINT ( 'NONE',  ( 19.00000000000000000, 0.000000000000000000, 0.000000000000000000 ) ) ;
#135 = CARTESIAN_POINT ( 'NONE',  ( 20.60000000000000142, 0.000000000000000000, 0.000000000000000000 ) ) ;
#136 = CARTESIAN_POINT ( 'NONE',  ( -0.3226798798220780751, -2.702990886204540644, 4.299999999999998046 ) ) ;
#137 = CARTESIAN_POINT ( 'NONE',  ( 1.951596719456512918, 0.4164953652791125172, 9.005652576227028305 ) ) ;
#138 = EDGE_CURVE ( 'NONE', #652, #969, #777, .T. ) ;
#139 = CARTESIAN_POINT ( 'NONE',  ( 3.923065982525688167, 1.557008875101179912, 8.924807600468783519 ) ) ;
#140 = CIRCLE ( 'NONE', #339, 11.39999999999998614 ) ;
#141 = ORIENTED_EDGE ( 'NONE', *, *, #633, .F. ) ;
#142 = VECTOR ( 'NONE', #587, 1000.000000000000000 ) ;
#143 = ORIENTED_EDGE ( 'NONE', *, *, #868, .F. ) ;
#144 = EDGE_CURVE ( 'NONE', #826, #463, #401, .T. ) ;
#145 = CARTESIAN_POINT ( 'NONE',  ( 5.099999999999999645, 0.1059098699315078052, 9.100363957718803576 ) ) ;
#146 = ADVANCED_FACE ( 'NONE', ( #115 ), #708, .T. ) ;
#147 = EDGE_LOOP ( 'NONE', ( #35, #95, #1044, #657 ) ) ;
#148 = CARTESIAN_POINT ( 'NONE',  ( -1.983707139815061427E-14, -3.000000000000000000, 4.489988864128689805 ) ) ;
#149 = EDGE_CURVE ( 'NONE', #1042, #745, #386, .T. ) ;
#150 = CARTESIAN_POINT ( 'NONE',  ( -0.3999999999999995226, 0.000000000000000000, -5.000000000000000000 ) ) ;
#151 = AXIS2_PLACEMENT_3D ( 'NONE', #647, #394, #317 ) ;
#152 = VERTEX_POINT ( 'NONE', #98 ) ;
#153 = AXIS2_PLACEMENT_3D ( 'NONE', #795, #656, #742 ) ;
#154 = DIRECTION ( 'NONE',  ( -0.000000000000000000, -0.000000000000000000, -1.000000000000000000 ) ) ;
#155 = DIRECTION ( 'NONE',  ( -0.000000000000000000, -0.000000000000000000, -1.000000000000000000 ) ) ;
#156 = VERTEX_POINT ( 'NONE', #414 ) ;
#157 = ADVANCED_FACE ( 'NONE', ( #15 ), #968, .F. ) ;
#158 = DIRECTION ( 'NONE',  ( 0.000000000000000000, -2.168404344971009115E-16, -1.000000000000000000 ) ) ;
#159 = CARTESIAN_POINT ( 'NONE',  ( 1.899999999999998801, -0.2090070275178464998, 9.013925147326478537 ) ) ;
#160 = EDGE_LOOP ( 'NONE', ( #16, #191, #338 ) ) ;
#161 = DIRECTION ( 'NONE',  ( 0.000000000000000000, 0.000000000000000000, -1.000000000000000000 ) ) ;
#162 = VERTEX_POINT ( 'NONE', #881 ) ;
#163 = DIRECTION ( 'NONE',  ( -0.7071067811865536790, 0.000000000000000000, 0.7071067811865414665 ) ) ;
#164 = VERTEX_POINT ( 'NONE', #7 ) ;
#165 = VECTOR ( 'NONE', #385, 1000.000000000000000 ) ;
#166 = CARTESIAN_POINT ( 'NONE',  ( 0.000000000000000000, 0.000000000000000000, 11.39999999999998614 ) ) ;
#167 = EDGE_LOOP ( 'NONE', ( #740, #62, #231, #307 ) ) ;
#168 = AXIS2_PLACEMENT_3D ( 'NONE', #343, #4, #161 ) ;
#169 = VECTOR ( 'NONE', #355, 1000.000000000000000 ) ;
#170 = CARTESIAN_POINT ( 'NONE',  ( 0.000000000000000000, 0.000000000000000000, 0.000000000000000000 ) ) ;
#171 = ORIENTED_EDGE ( 'NONE', *, *, #716, .F. ) ;
#172 = EDGE_CURVE ( 'NONE', #663, #162, #219, .T. ) ;
#173 = ORIENTED_EDGE ( 'NONE', *, *, #188, .T. ) ;
#174 = LINE ( 'NONE', #896, #753 ) ;
#175 = EDGE_LOOP ( 'NONE', ( #500, #256, #26, #824 ) ) ;
#176 = ORIENTED_EDGE ( 'NONE', *, *, #684, .T. ) ;
#177 = PRODUCT_DEFINITION_CONTEXT ( 'detailed design', #67, 'design' ) ;
#178 = EDGE_CURVE ( 'NONE', #228, #234, #637, .T. ) ;
#179 = ORIENTED_EDGE ( 'NONE', *, *, #667, .T. ) ;
#180 = DIRECTION ( 'NONE',  ( 1.000000000000000000, 0.000000000000000000, 0.000000000000000000 ) ) ;
#181 = DIRECTION ( 'NONE',  ( -1.000000000000000000, -0.000000000000000000, -0.000000000000000000 ) ) ;
#182 = ORIENTED_EDGE ( 'NONE', *, *, #583, .T. ) ;
#183 = CARTESIAN_POINT ( 'NONE',  ( 21.00000000000000000, 0.000000000000000000, 0.000000000000000000 ) ) ;
#184 = ORIENTED_EDGE ( 'NONE', *, *, #729, .T. ) ;
#185 = VECTOR ( 'NONE', #158, 1000.000000000000000 ) ;
#186 = ADVANCED_BREP_SHAPE_REPRESENTATION ( 'Idler Roller', ( #579, #262 ), #431 ) ;
#187 = VECTOR ( 'NONE', #365, 1000.000000000000000 ) ;
#188 = EDGE_CURVE ( 'NONE', #240, #817, #948, .T. ) ;
#189 = FACE_BOUND ( 'NONE', #80, .T. ) ;
#190 = CIRCLE ( 'NONE', #722, 10.39999999999999325 ) ;
#191 = ORIENTED_EDGE ( 'NONE', *, *, #466, .T. ) ;
#192 =( NAMED_UNIT ( * ) SI_UNIT ( $, .STERADIAN. ) SOLID_ANGLE_UNIT ( ) );
#193 = DIRECTION ( 'NONE',  ( 0.000000000000000000, -1.000000000000000000, 0.000000000000000000 ) ) ;
#194 = DIRECTION ( 'NONE',  ( 0.000000000000000000, 0.000000000000000000, -1.000000000000000000 ) ) ;
#195 = ORIENTED_EDGE ( 'NONE', *, *, #452, .T. ) ;
#196 = DIRECTION ( 'NONE',  ( 0.000000000000000000, 0.000000000000000000, 1.000000000000000000 ) ) ;
#197 = FACE_OUTER_BOUND ( 'NONE', #581, .T. ) ;
#198 = CARTESIAN_POINT ( 'NONE',  ( -0.3999999999999995226, 2.999999999999998668, 6.299999999999999822 ) ) ;
#199 = VERTEX_POINT ( 'NONE', #954 ) ;
#200 = LINE ( 'NONE', #419, #408 ) ;
#201 = CARTESIAN_POINT ( 'NONE',  ( -0.1048239850495917419, 2.999999999999998224, 4.363508854464424935 ) ) ;
#202 = LINE ( 'NONE', #933, #203 ) ;
#203 = VECTOR ( 'NONE', #526, 1000.000000000000000 ) ;
#204 = CARTESIAN_POINT ( 'NONE',  ( 0.000000000000000000, 0.000000000000000000, 0.000000000000000000 ) ) ;
#205 = CARTESIAN_POINT ( 'NONE',  ( -1.983707139815061427E-14, 9.000000000000007105, 0.000000000000000000 ) ) ;
#206 = ORIENTED_EDGE ( 'NONE', *, *, #366, .F. ) ;
#207 = DIRECTION ( 'NONE',  ( -0.000000000000000000, 1.000000000000000000, 0.000000000000000000 ) ) ;
#208 = EDGE_CURVE ( 'NONE', #822, #520, #485, .T. ) ;
#209 = LINE ( 'NONE', #113, #241 ) ;
#210 = CARTESIAN_POINT ( 'NONE',  ( 5.100000000000000533, 3.437173806538317522E-16, 3.100000000000000533 ) ) ;
#211 = DIRECTION ( 'NONE',  ( 0.000000000000000000, 0.000000000000000000, -1.000000000000000000 ) ) ;
#212 = APPLICATION_CONTEXT ( 'automotive_design' ) ;
#213 = CARTESIAN_POINT ( 'NONE',  ( -0.2664649041145769615, -2.702020381224957468, 3.366464904114581991 ) ) ;
#214 = CARTESIAN_POINT ( 'NONE',  ( 2.228641418406508645, 0.9770017347204196234, 8.966495470078163166 ) ) ;
#215 = ORIENTED_EDGE ( 'NONE', *, *, #208, .F. ) ;
#216 = CARTESIAN_POINT ( 'NONE',  ( 21.00000000000000000, 0.000000000000000000, -2.900000000000006573 ) ) ;
#217 = DIRECTION ( 'NONE',  ( 1.000000000000000000, 0.000000000000000000, 0.000000000000000000 ) ) ;
#218 = EDGE_CURVE ( 'NONE', #878, #156, #229, .T. ) ;
#219 = B_SPLINE_CURVE_WITH_KNOTS ( 'NONE', 3,
 ( #402, #159, #87, #82, #726, #1041, #315, #396, #960, #220, #1029, #301, #946, #287, #68, #539, #611, #464, #367, #794, #447, #943, #382, #544, #701, #63 ),
 .UNSPECIFIED., .F., .F.,
 ( 4, 2, 2, 2, 2, 2, 2, 2, 2, 2, 2, 2, 4 ),
 ( 0.008773417517824821585, 0.009400147663198731365, 0.01002687780857264115, 0.01034024288125959604, 0.01065360795394654919, 0.01096697302663350582, 0.01128033809932045897, 0.01190706824469436875, 0.01253379839006827853, 0.01284716346275523342, 0.01316052853544218831, 0.01347389360812914320, 0.01378725868081609809 ),
 .UNSPECIFIED. ) ;
#220 = CARTESIAN_POINT ( 'NONE',  ( 2.987391154450704800, -1.519295365999167702, 8.905817688396663101 ) ) ;
#221 = FACE_OUTER_BOUND ( 'NONE', #326, .T. ) ;
#222 = EDGE_LOOP ( 'NONE', ( #586, #517 ) ) ;
#223 = ADVANCED_FACE ( 'NONE', ( #1010 ), #926, .T. ) ;
#224 = AXIS2_PLACEMENT_3D ( 'NONE', #451, #781, #623 ) ;
#225 = DIRECTION ( 'NONE',  ( 0.000000000000000000, 0.000000000000000000, -1.000000000000000000 ) ) ;
#226 = AXIS2_PLACEMENT_3D ( 'NONE', #917, #368, #927 ) ;
#227 = CARTESIAN_POINT ( 'NONE',  ( -0.3999999999999994671, -2.748181216732456189, 3.500000000000004441 ) ) ;
#228 = VERTEX_POINT ( 'NONE', #1023 ) ;
#229 = LINE ( 'NONE', #469, #890 ) ;
#230 = CARTESIAN_POINT ( 'NONE',  ( 2.112531759927536612, 0.8036273486065194094, 8.981741757463574061 ) ) ;
#231 = ORIENTED_EDGE ( 'NONE', *, *, #675, .T. ) ;
#232 = CARTESIAN_POINT ( 'NONE',  ( 5.204170427930421283E-15, 2.606242505984429414, 3.100000000000000089 ) ) ;
#233 = CARTESIAN_POINT ( 'NONE',  ( -0.3999999999999995226, 0.000000000000000000, 0.000000000000000000 ) ) ;
#234 = VERTEX_POINT ( 'NONE', #1014 ) ;
#235 = CYLINDRICAL_SURFACE ( 'NONE', #357, 1.600000000000000977 ) ;
#236 = AXIS2_PLACEMENT_3D ( 'NONE', #351, #989, #423 ) ;
#237 = AXIS2_PLACEMENT_3D ( 'NONE', #739, #975, #572 ) ;
#238 = CARTESIAN_POINT ( 'NONE',  ( -0.3999999999999995226, 2.551470164434614052, 4.300000000000000711 ) ) ;
#239 = EDGE_CURVE ( 'NONE', #803, #737, #42, .T. ) ;
#240 = VERTEX_POINT ( 'NONE', #710 ) ;
#241 = VECTOR ( 'NONE', #706, 1000.000000000000000 ) ;
#242 = CARTESIAN_POINT ( 'NONE',  ( 5.204170427930421283E-15, -2.606242505984429414, 3.100000000000000089 ) ) ;
#243 = ORIENTED_EDGE ( 'NONE', *, *, #466, .F. ) ;
#244 = CARTESIAN_POINT ( 'NONE',  ( 20.60000000000000142, 0.000000000000000000, 11.39999999999998614 ) ) ;
#245 = VERTEX_POINT ( 'NONE', #713 ) ;
#246 = FACE_OUTER_BOUND ( 'NONE', #167, .T. ) ;
#247 = COLOUR_RGB ( '',0.7921568627450980005, 0.8196078431372548767, 0.9333333333333333481 ) ;
#248 = ORIENTED_EDGE ( 'NONE', *, *, #729, .F. ) ;
#249 = LINE ( 'NONE', #166, #306 ) ;
#250 = DIRECTION ( 'NONE',  ( 1.000000000000000000, 0.000000000000000000, 0.000000000000000000 ) ) ;
#251 = EDGE_CURVE ( 'NONE', #429, #577, #738, .T. ) ;
#252 = DIRECTION ( 'NONE',  ( -1.000000000000000000, -0.000000000000000000, -0.000000000000000000 ) ) ;
#253 = ORIENTED_EDGE ( 'NONE', *, *, #411, .T. ) ;
#254 = AXIS2_PLACEMENT_3D ( 'NONE', #170, #649, #973 ) ;
#255 = LINE ( 'NONE', #807, #770 ) ;
#256 = ORIENTED_EDGE ( 'NONE', *, *, #563, .T. ) ;
#257 = AXIS2_PLACEMENT_3D ( 'NONE', #842, #349, #915 ) ;
#258 = DIRECTION ( 'NONE',  ( 1.000000000000000000, 0.000000000000000000, 0.000000000000000000 ) ) ;
#259 = EDGE_CURVE ( 'NONE', #1038, #990, #873, .T. ) ;
#260 = CARTESIAN_POINT ( 'NONE',  ( 21.00000000000000000, 0.000000000000000000, -2.900000000000006573 ) ) ;
#261 = VERTEX_POINT ( 'NONE', #232 ) ;
#262 = AXIS2_PLACEMENT_3D ( 'NONE', #855, #629, #312 ) ;
#263 = DIRECTION ( 'NONE',  ( 0.000000000000000000, 0.000000000000000000, 1.000000000000000000 ) ) ;
#264 = ORIENTED_EDGE ( 'NONE', *, *, #239, .F. ) ;
#265 = UNCERTAINTY_MEASURE_WITH_UNIT (LENGTH_MEASURE( 1.000000000000000082E-05 ), #497, 'distance_accuracy_value', 'NONE');
#266 = LINE ( 'NONE', #992, #142 ) ;
#267 = EDGE_CURVE ( 'NONE', #520, #878, #28, .T. ) ;
#268 = EDGE_LOOP ( 'NONE', ( #884, #498, #99, #838 ) ) ;
#269 = CARTESIAN_POINT ( 'NONE',  ( 0.000000000000000000, 0.000000000000000000, 0.000000000000000000 ) ) ;
#270 = CARTESIAN_POINT ( 'NONE',  ( -0.3999999999999995226, -3.000000000000000888, 4.300000000000000711 ) ) ;
#271 = ORIENTED_EDGE ( 'NONE', *, *, #736, .F. ) ;
#272 = CARTESIAN_POINT ( 'NONE',  ( 0.000000000000000000, 3.061616997868383141E-16, -2.500000000000000000 ) ) ;
#273 = CARTESIAN_POINT ( 'NONE',  ( 3.499999999999999556, 1.477738927902551059E-16, 6.299999999999999822 ) ) ;
#274 = CARTESIAN_POINT ( 'NONE',  ( -1.983707139815061427E-14, 1.077727089810192368E-15, 8.600000000000108002 ) ) ;
#275 = EDGE_CURVE ( 'NONE', #644, #609, #409, .T. ) ;
#276 = FACE_OUTER_BOUND ( 'NONE', #506, .T. ) ;
#277 = CIRCLE ( 'NONE', #787, 129.6285714285714619 ) ;
#278 = AXIS2_PLACEMENT_3D ( 'NONE', #919, #605, #207 ) ;
#279 = CARTESIAN_POINT ( 'NONE',  ( 3.499999999999999556, 1.477738927902551059E-16, 11.40099999999998737 ) ) ;
#280 = EDGE_LOOP ( 'NONE', ( #491, #18, #483, #532, #665, #724 ) ) ;
#281 = CARTESIAN_POINT ( 'NONE',  ( 1.899999999999998801, -6.777072482317503580E-22, 9.013925147326483867 ) ) ;
#282 = DIRECTION ( 'NONE',  ( 0.000000000000000000, 0.000000000000000000, -1.000000000000000000 ) ) ;
#283 = ADVANCED_FACE ( 'NONE', ( #564 ), #569, .T. ) ;
#284 = FACE_OUTER_BOUND ( 'NONE', #659, .T. ) ;
#285 = ORIENTED_EDGE ( 'NONE', *, *, #149, .F. ) ;
#286 = CARTESIAN_POINT ( 'NONE',  ( 20.60000000000000142, 0.000000000000000000, 0.000000000000000000 ) ) ;
#287 = CARTESIAN_POINT ( 'NONE',  ( 3.712973398997075236, -1.599492795511765042, 8.910597874832422605 ) ) ;
#288 = EDGE_CURVE ( 'NONE', #152, #31, #655, .T. ) ;
#289 = EDGE_LOOP ( 'NONE', ( #502, #630, #779, #906 ) ) ;
#290 = CARTESIAN_POINT ( 'NONE',  ( -0.1569093084326576848, 2.999999999999998224, 4.299999999999999822 ) ) ;
#291 = AXIS2_PLACEMENT_3D ( 'NONE', #570, #155, #886 ) ;
#292 = CARTESIAN_POINT ( 'NONE',  ( 5.100000000000000533, 1.690134489436017793E-25, 9.100363957718803576 ) ) ;
#293 = CIRCLE ( 'NONE', #545, 1.600000000000000977 ) ;
#294 = ORIENTED_EDGE ( 'NONE', *, *, #149, .T. ) ;
#295 = EDGE_CURVE ( 'NONE', #152, #228, #844, .T. ) ;
#296 = LINE ( 'NONE', #1013, #651 ) ;
#297 = DIRECTION ( 'NONE',  ( -1.000000000000000000, -0.000000000000000000, -0.000000000000000000 ) ) ;
#298 = CARTESIAN_POINT ( 'NONE',  ( 0.4006190611126919654, 0.000000000000000000, 0.000000000000000000 ) ) ;
#299 = CARTESIAN_POINT ( 'NONE',  ( 4.307088035490243882, 1.397093542209240535, 8.963578323893383271 ) ) ;
#300 = SHAPE_DEFINITION_REPRESENTATION ( #550, #186 ) ;
#301 = CARTESIAN_POINT ( 'NONE',  ( 3.292970781754917198, -1.590006703215750772, 8.900914803752234761 ) ) ;
#302 = CARTESIAN_POINT ( 'NONE',  ( 20.00000000000000000, 0.000000000000000000, 0.000000000000000000 ) ) ;
#303 = DIRECTION ( 'NONE',  ( 0.000000000000000000, 0.000000000000000000, -1.000000000000000000 ) ) ;
#304 = CONICAL_SURFACE ( 'NONE', #508, 5.000000000000000000, 0.7853981633974439491 ) ;
#305 = CARTESIAN_POINT ( 'NONE',  ( 1.981978658102311108, 0.5163095160443932352, 9.000871195312052819 ) ) ;
#306 = VECTOR ( 'NONE', #490, 1000.000000000000000 ) ;
#307 = ORIENTED_EDGE ( 'NONE', *, *, #930, .F. ) ;
#308 = VERTEX_POINT ( 'NONE', #966 ) ;
#309 = PRODUCT_RELATED_PRODUCT_CATEGORY ( 'part', '', ( #1006 ) ) ;
#310 = LINE ( 'NONE', #484, #528 ) ;
#311 = CARTESIAN_POINT ( 'NONE',  ( 2.518272936189256850, 1.280841836661744004, 8.934272997946031580 ) ) ;
#312 = DIRECTION ( 'NONE',  ( 1.000000000000000000, 0.000000000000000000, 0.000000000000000000 ) ) ;
#313 = ORIENTED_EDGE ( 'NONE', *, *, #129, .F. ) ;
#314 = DIRECTION ( 'NONE',  ( -0.000000000000000000, 1.000000000000000000, -1.445602896647339163E-16 ) ) ;
#315 = CARTESIAN_POINT ( 'NONE',  ( 2.525937628606426788, -1.273606826808599157, 8.934451267055877111 ) ) ;
#316 = ORIENTED_EDGE ( 'NONE', *, *, #991, .T. ) ;
#317 = DIRECTION ( 'NONE',  ( 0.000000000000000000, 0.000000000000000000, -1.000000000000000000 ) ) ;
#318 = VECTOR ( 'NONE', #314, 1000.000000000000000 ) ;
#319 = ADVANCED_FACE ( 'NONE', ( #880 ), #507, .F. ) ;
#320 = EDGE_LOOP ( 'NONE', ( #565, #393, #887, #8 ) ) ;
#321 = VECTOR ( 'NONE', #850, 1000.000000000000000 ) ;
#322 = DIRECTION ( 'NONE',  ( 0.7071067811865486830, 8.659560562354920532E-17, 0.7071067811865464625 ) ) ;
#323 = VERTEX_POINT ( 'NONE', #818 ) ;
#324 = AXIS2_PLACEMENT_3D ( 'NONE', #980, #252, #893 ) ;
#325 = DIRECTION ( 'NONE',  ( 0.000000000000000000, 0.000000000000000000, 1.000000000000000000 ) ) ;
#326 = EDGE_LOOP ( 'NONE', ( #723, #421, #689, #974 ) ) ;
#327 = EDGE_CURVE ( 'NONE', #609, #308, #805, .T. ) ;
#328 = CARTESIAN_POINT ( 'NONE',  ( 5.100000000000000533, 3.437173806538317029E-16, 11.40099999999998737 ) ) ;
#329 = CARTESIAN_POINT ( 'NONE',  ( 3.499999999999999556, 1.477738927902551059E-16, 4.299999999999999822 ) ) ;
#330 = DIRECTION ( 'NONE',  ( 0.000000000000000000, 0.000000000000000000, 1.000000000000000000 ) ) ;
#331 = EDGE_LOOP ( 'NONE', ( #918, #435, #488, #541 ) ) ;
#332 = CARTESIAN_POINT ( 'NONE',  ( 0.000000000000000000, 0.000000000000000000, 0.000000000000000000 ) ) ;
#333 = EDGE_LOOP ( 'NONE', ( #70, #765 ) ) ;
#334 = EDGE_CURVE ( 'NONE', #646, #745, #978, .T. ) ;
#335 = CYLINDRICAL_SURFACE ( 'NONE', #962, 2.500000000000000000 ) ;
#336 = VERTEX_POINT ( 'NONE', #150 ) ;
#337 = SURFACE_STYLE_FILL_AREA ( #96 ) ;
#338 = ORIENTED_EDGE ( 'NONE', *, *, #868, .T. ) ;
#339 = AXIS2_PLACEMENT_3D ( 'NONE', #681, #760, #1007 ) ;
#340 = DIRECTION ( 'NONE',  ( 1.000000000000000000, 0.000000000000000000, 0.000000000000000000 ) ) ;
#341 = ADVANCED_FACE ( 'NONE', ( #480 ), #594, .T. ) ;
#342 = DIRECTION ( 'NONE',  ( 0.7071067811865462405, 8.659560562354950115E-17, 0.7071067811865489050 ) ) ;
#343 = CARTESIAN_POINT ( 'NONE',  ( -1.635161925425355514E-14, 0.000000000000000000, 138.6285714285714619 ) ) ;
#344 = ORIENTED_EDGE ( 'NONE', *, *, #362, .F. ) ;
#345 = DIRECTION ( 'NONE',  ( -1.000000000000000000, -0.000000000000000000, -0.000000000000000000 ) ) ;
#346 = PLANE ( 'NONE',  #788 ) ;
#347 = ORIENTED_EDGE ( 'NONE', *, *, #275, .F. ) ;
#348 = ADVANCED_FACE ( 'NONE', ( #246 ), #615, .F. ) ;
#349 = DIRECTION ( 'NONE',  ( 1.000000000000000000, 0.000000000000000000, 0.000000000000000000 ) ) ;
#350 = VERTEX_POINT ( 'NONE', #728 ) ;
#351 = CARTESIAN_POINT ( 'NONE',  ( -1.983707139815061427E-14, 0.000000000000000000, 0.000000000000000000 ) ) ;
#352 = DIRECTION ( 'NONE',  ( 0.000000000000000000, 0.000000000000000000, 1.000000000000000000 ) ) ;
#353 = ORIENTED_EDGE ( 'NONE', *, *, #642, .F. ) ;
#354 = DIRECTION ( 'NONE',  ( -1.000000000000000000, -0.000000000000000000, -0.000000000000000000 ) ) ;
#355 = DIRECTION ( 'NONE',  ( 1.000000000000000000, 0.000000000000000000, 0.000000000000000000 ) ) ;
#356 = AXIS2_PLACEMENT_3D ( 'NONE', #430, #101, #666 ) ;
#357 = AXIS2_PLACEMENT_3D ( 'NONE', #557, #154, #574 ) ;
#358 = AXIS2_PLACEMENT_3D ( 'NONE', #764, #181, #352 ) ;
#359 = DIRECTION ( 'NONE',  ( 0.7071067811865505703, 0.000000000000000000, -0.7071067811865444641 ) ) ;
#360 = DIRECTION ( 'NONE',  ( -1.000000000000000000, -0.000000000000000000, -0.000000000000000000 ) ) ;
#361 = DIRECTION ( 'NONE',  ( 1.000000000000000000, 0.000000000000000000, 0.000000000000000000 ) ) ;
#362 = EDGE_CURVE ( 'NONE', #261, #577, #474, .T. ) ;
#363 = LINE ( 'NONE', #592, #813 ) ;
#364 = FACE_OUTER_BOUND ( 'NONE', #331, .T. ) ;
#365 = DIRECTION ( 'NONE',  ( -0.000000000000000000, -1.000000000000000000, -0.000000000000000000 ) ) ;
#366 = EDGE_CURVE ( 'NONE', #496, #463, #885, .T. ) ;
#367 = CARTESIAN_POINT ( 'NONE',  ( 4.772832605419347729, -0.9750633157762228498, 9.035844425607823638 ) ) ;
#368 = DIRECTION ( 'NONE',  ( -1.000000000000000000, -0.000000000000000000, -0.000000000000000000 ) ) ;
#369 = EDGE_LOOP ( 'NONE', ( #12, #797, #567, #171, #471, #478 ) ) ;
#370 = DIRECTION ( 'NONE',  ( 0.000000000000000000, -1.000000000000000000, 1.445602896647339656E-16 ) ) ;
#371 = DIRECTION ( 'NONE',  ( 1.000000000000000000, 0.000000000000000000, 0.000000000000000000 ) ) ;
#372 = VECTOR ( 'NONE', #734, 1000.000000000000000 ) ;
#373 = CARTESIAN_POINT ( 'NONE',  ( 20.00000000000000000, 0.000000000000000000, 0.000000000000000000 ) ) ;
#374 = CARTESIAN_POINT ( 'NONE',  ( 7.000000000000000000, 0.000000000000000000, 0.000000000000000000 ) ) ;
#375 = CIRCLE ( 'NONE', #257, 4.450000000000004619 ) ;
#376 = ADVANCED_FACE ( 'NONE', ( #641 ), #235, .F. ) ;
#377 = DIRECTION ( 'NONE',  ( 0.000000000000000000, 0.000000000000000000, 1.000000000000000000 ) ) ;
#378 = FACE_OUTER_BOUND ( 'NONE', #66, .T. ) ;
#379 = EDGE_CURVE ( 'NONE', #156, #646, #310, .T. ) ;
#380 = EDGE_LOOP ( 'NONE', ( #593, #468, #294, #994, #682 ) ) ;
#381 = ORIENTED_EDGE ( 'NONE', *, *, #404, .F. ) ;
#382 = CARTESIAN_POINT ( 'NONE',  ( 5.048796882121597385, -0.4148676892403422301, 9.089469959842707780 ) ) ;
#383 = CARTESIAN_POINT ( 'NONE',  ( 2.986795233271938965, 1.519111969237650239, 8.905835565104714746 ) ) ;
#384 = VERTEX_POINT ( 'NONE', #741 ) ;
#385 = DIRECTION ( 'NONE',  ( -0.000000000000000000, -2.168404344971008868E-16, 1.000000000000000000 ) ) ;
#386 = CIRCLE ( 'NONE', #1031, 5.399999999999967493 ) ;
#387 = DIRECTION ( 'NONE',  ( -1.000000000000000000, -0.000000000000000000, -0.000000000000000000 ) ) ;
#388 = CIRCLE ( 'NONE', #1034, 4.049999999999999822 ) ;
#389 =( NAMED_UNIT ( * ) SI_UNIT ( $, .STERADIAN. ) SOLID_ANGLE_UNIT ( ) );
#390 = ORIENTED_EDGE ( 'NONE', *, *, #60, .T. ) ;
#391 = ORIENTED_EDGE ( 'NONE', *, *, #22, .T. ) ;
#392 = DIRECTION ( 'NONE',  ( 0.000000000000000000, 0.000000000000000000, -1.000000000000000000 ) ) ;
#393 = ORIENTED_EDGE ( 'NONE', *, *, #1005, .T. ) ;
#394 = DIRECTION ( 'NONE',  ( 1.000000000000000000, -0.000000000000000000, -0.000000000000000000 ) ) ;
#395 = EDGE_CURVE ( 'NONE', #826, #803, #957, .T. ) ;
#396 = CARTESIAN_POINT ( 'NONE',  ( 2.699469826157788965, -1.389252782407326858, 8.920741238060690748 ) ) ;
#397 = ORIENTED_EDGE ( 'NONE', *, *, #29, .F. ) ;
#398 = CARTESIAN_POINT ( 'NONE',  ( -0.1569093084326559362, -3.000000000000000888, 4.300000000000000711 ) ) ;
#399 = ORIENTED_EDGE ( 'NONE', *, *, #295, .T. ) ;
#400 = CARTESIAN_POINT ( 'NONE',  ( -1.983707139815061427E-14, -3.000000000000000000, 4.489988864128689805 ) ) ;
#401 = CIRCLE ( 'NONE', #19, 11.39999999999998614 ) ;
#402 = CARTESIAN_POINT ( 'NONE',  ( 1.899999999999998801, -6.777072482317503580E-22, 9.013925147326483867 ) ) ;
#403 = EDGE_LOOP ( 'NONE', ( #78, #793, #91, #903, #830, #313 ) ) ;
#404 = EDGE_CURVE ( 'NONE', #878, #1042, #512, .T. ) ;
#405 = CONICAL_SURFACE ( 'NONE', #358, 11.39999999999998614, 0.7853981633974396193 ) ;
#406 = DIRECTION ( 'NONE',  ( 0.000000000000000000, 0.000000000000000000, 1.000000000000000000 ) ) ;
#407 = VERTEX_POINT ( 'NONE', #467 ) ;
#408 = VECTOR ( 'NONE', #342, 1000.000000000000000 ) ;
#409 = LINE ( 'NONE', #5, #165 ) ;
#410 = ORIENTED_EDGE ( 'NONE', *, *, #667, .F. ) ;
#411 = EDGE_CURVE ( 'NONE', #2, #323, #455, .T. ) ;
#412 = SURFACE_SIDE_STYLE ('',( #337 ) ) ;
#413 = ORIENTED_EDGE ( 'NONE', *, *, #698, .T. ) ;
#414 = CARTESIAN_POINT ( 'NONE',  ( -1.994931997373328159E-14, -3.000000000000001332, 6.300000000000000711 ) ) ;
#415 = EDGE_LOOP ( 'NONE', ( #678, #426, #900, #206 ) ) ;
#416 = CARTESIAN_POINT ( 'NONE',  ( -5.698348799390243968, -2.606242505984429414, 3.100000000000000089 ) ) ;
#417 = DIRECTION ( 'NONE',  ( 0.000000000000000000, -0.000000000000000000, 1.000000000000000000 ) ) ;
#418 = AXIS2_PLACEMENT_3D ( 'NONE', #298, #798, #325 ) ;
#419 = CARTESIAN_POINT ( 'NONE',  ( -1.983707139815061427E-14, 1.053196247266736907E-15, 8.600000000000108002 ) ) ;
#420 = FACE_OUTER_BOUND ( 'NONE', #704, .T. ) ;
#421 = ORIENTED_EDGE ( 'NONE', *, *, #362, .T. ) ;
#422 = AXIS2_PLACEMENT_3D ( 'NONE', #374, #643, #555 ) ;
#423 = DIRECTION ( 'NONE',  ( 0.000000000000000000, 0.000000000000000000, -1.000000000000000000 ) ) ;
#424 = EDGE_CURVE ( 'NONE', #1038, #1012, #754, .T. ) ;
#425 = LINE ( 'NONE', #1011, #617 ) ;
#426 = ORIENTED_EDGE ( 'NONE', *, *, #627, .T. ) ;
#427 =( LENGTH_UNIT ( ) NAMED_UNIT ( * ) SI_UNIT ( .MILLI., .METRE. ) );
#428 = DIRECTION ( 'NONE',  ( 0.7071067811865486830, 0.000000000000000000, -0.7071067811865464625 ) ) ;
#429 = VERTEX_POINT ( 'NONE', #227 ) ;
#430 = CARTESIAN_POINT ( 'NONE',  ( 3.499999999999999556, 1.477738927902551059E-16, 6.299999999999999822 ) ) ;
#431 =( GEOMETRIC_REPRESENTATION_CONTEXT ( 3 ) GLOBAL_UNCERTAINTY_ASSIGNED_CONTEXT ( ( #806 ) ) GLOBAL_UNIT_ASSIGNED_CONTEXT ( ( #427, #683, #192 ) ) REPRESENTATION_CONTEXT ( 'NONE', 'WORKASPACE' ) );
#432 = DIRECTION ( 'NONE',  ( 0.000000000000000000, 1.000000000000000000, -1.445602896647339163E-16 ) ) ;
#433 = EDGE_LOOP ( 'NONE', ( #316, #981 ) ) ;
#434 = DIRECTION ( 'NONE',  ( 0.000000000000000000, 0.000000000000000000, 1.000000000000000000 ) ) ;
#435 = ORIENTED_EDGE ( 'NONE', *, *, #857, .T. ) ;
#436 = DIRECTION ( 'NONE',  ( 1.000000000000000000, 0.000000000000000000, 0.000000000000000000 ) ) ;
#437 =( LENGTH_UNIT ( ) NAMED_UNIT ( * ) SI_UNIT ( .MILLI., .METRE. ) );
#438 = EDGE_CURVE ( 'NONE', #969, #822, #1043, .T. ) ;
#439 = CARTESIAN_POINT ( 'NONE',  ( 20.00000000000000000, -2.606242505984429414, 3.100000000000000089 ) ) ;
#440 = DIRECTION ( 'NONE',  ( 0.000000000000000000, 0.000000000000000000, 1.000000000000000000 ) ) ;
#441 = AXIS2_PLACEMENT_3D ( 'NONE', #1022, #258, #534 ) ;
#442 = DIRECTION ( 'NONE',  ( 1.000000000000000000, 0.000000000000000000, 0.000000000000000000 ) ) ;
#443 = EDGE_LOOP ( 'NONE', ( #988, #834 ) ) ;
#444 = PLANE ( 'NONE',  #278 ) ;
#445 = DIRECTION ( 'NONE',  ( -0.000000000000000000, 0.000000000000000000, 1.000000000000000000 ) ) ;
#446 = ADVANCED_FACE ( 'NONE', ( #956, #420 ), #9, .F. ) ;
#447 = CARTESIAN_POINT ( 'NONE',  ( 4.937608769413877496, -0.7101230522889827590, 9.066818532721065083 ) ) ;
#448 = FACE_OUTER_BOUND ( 'NONE', #147, .T. ) ;
#449 = VERTEX_POINT ( 'NONE', #260 ) ;
#450 = DIRECTION ( 'NONE',  ( -1.000000000000000000, -0.000000000000000000, -0.000000000000000000 ) ) ;
#451 = CARTESIAN_POINT ( 'NONE',  ( 20.60000000000000142, 0.000000000000000000, 0.000000000000000000 ) ) ;
#452 = EDGE_CURVE ( 'NONE', #162, #384, #970, .T. ) ;
#453 = DIRECTION ( 'NONE',  ( -1.000000000000000000, -0.000000000000000000, -0.000000000000000000 ) ) ;
#454 = CARTESIAN_POINT ( 'NONE',  ( 20.60000000000000142, 1.396097351027981044E-15, -11.39999999999998614 ) ) ;
#455 = CIRCLE ( 'NONE', #874, 8.600000000000108002 ) ;
#456 = DIRECTION ( 'NONE',  ( -1.000000000000000000, -0.000000000000000000, -0.000000000000000000 ) ) ;
#457 = AXIS2_PLACEMENT_3D ( 'NONE', #198, #132, #432 ) ;
#458 = EDGE_CURVE ( 'NONE', #323, #1038, #664, .T. ) ;
#459 = DIRECTION ( 'NONE',  ( -1.000000000000000000, -0.000000000000000000, -0.000000000000000000 ) ) ;
#460 = AXIS2_PLACEMENT_3D ( 'NONE', #914, #354, #196 ) ;
#461 = EDGE_LOOP ( 'NONE', ( #1027, #195, #808, #73 ) ) ;
#462 = CARTESIAN_POINT ( 'NONE',  ( -1.983707139815061427E-14, 0.000000000000000000, 0.000000000000000000 ) ) ;
#463 = VERTEX_POINT ( 'NONE', #244 ) ;
#464 = CARTESIAN_POINT ( 'NONE',  ( 4.705531432467196851, -1.057124874292686423, 9.024010477161109378 ) ) ;
#465 = CARTESIAN_POINT ( 'NONE',  ( 4.772338572136716195, 0.9757413358609099419, 9.035755192546393033 ) ) ;
#466 = EDGE_CURVE ( 'NONE', #969, #336, #735, .T. ) ;
#467 = CARTESIAN_POINT ( 'NONE',  ( 7.000000000000000000, 2.999999999999998224, 4.299999999999999822 ) ) ;
#468 = ORIENTED_EDGE ( 'NONE', *, *, #404, .T. ) ;
#469 = CARTESIAN_POINT ( 'NONE',  ( -1.983707139815061427E-14, -2.999999999999999112, -2.602085213965212614E-15 ) ) ;
#470 = FACE_OUTER_BOUND ( 'NONE', #104, .T. ) ;
#471 = ORIENTED_EDGE ( 'NONE', *, *, #172, .F. ) ;
#472 = EDGE_CURVE ( 'NONE', #496, #560, #543, .T. ) ;
#473 = CARTESIAN_POINT ( 'NONE',  ( -0.3999999999999905298, 0.000000000000000000, 0.000000000000000000 ) ) ;
#474 = CIRCLE ( 'NONE', #690, 4.049999999999999822 ) ;
#475 = DIRECTION ( 'NONE',  ( 1.000000000000000000, 0.000000000000000000, 0.000000000000000000 ) ) ;
#476 = AXIS2_PLACEMENT_3D ( 'NONE', #510, #90, #406 ) ;
#477 = AXIS2_PLACEMENT_3D ( 'NONE', #233, #714, #944 ) ;
#478 = ORIENTED_EDGE ( 'NONE', *, *, #503, .F. ) ;
#479 = CARTESIAN_POINT ( 'NONE',  ( 21.00000000000000000, 0.000000000000000000, 0.000000000000000000 ) ) ;
#480 = FACE_OUTER_BOUND ( 'NONE', #983, .T. ) ;
#481 = EDGE_LOOP ( 'NONE', ( #176, #790, #604, #111 ) ) ;
#482 = DIRECTION ( 'NONE',  ( 0.000000000000000000, -0.000000000000000000, 1.000000000000000000 ) ) ;
#483 = ORIENTED_EDGE ( 'NONE', *, *, #503, .T. ) ;
#484 = CARTESIAN_POINT ( 'NONE',  ( -1.983707139815061427E-14, 9.000000000000008882, 6.299999999999998934 ) ) ;
#485 = B_SPLINE_CURVE_WITH_KNOTS ( 'NONE', 3,
 ( #551, #136, #58, #624 ),
 .UNSPECIFIED., .F., .F.,
 ( 4, 4 ),
 ( 7.934886020978421440E-18, 0.0005101686953537969745 ),
 .UNSPECIFIED. ) ;
#486 = AXIS2_PLACEMENT_3D ( 'NONE', #373, #848, #853 ) ;
#487 = AXIS2_PLACEMENT_3D ( 'NONE', #416, #482, #654 ) ;
#488 = ORIENTED_EDGE ( 'NONE', *, *, #1040, .T. ) ;
#489 = AXIS2_PLACEMENT_3D ( 'NONE', #612, #910, #902 ) ;
#490 = DIRECTION ( 'NONE',  ( -1.000000000000000000, -0.000000000000000000, -0.000000000000000000 ) ) ;
#491 = ORIENTED_EDGE ( 'NONE', *, *, #424, .F. ) ;
#492 = CARTESIAN_POINT ( 'NONE',  ( 5.041540102057595618E-15, 0.000000000000000000, 0.000000000000000000 ) ) ;
#493 = CARTESIAN_POINT ( 'NONE',  ( 20.00000000000000000, 0.000000000000000000, 0.000000000000000000 ) ) ;
#494 = LINE ( 'NONE', #898, #1002 ) ;
#495 = EDGE_CURVE ( 'NONE', #1012, #803, #825, .T. ) ;
#496 = VERTEX_POINT ( 'NONE', #658 ) ;
#497 =( LENGTH_UNIT ( ) NAMED_UNIT ( * ) SI_UNIT ( .MILLI., .METRE. ) );
#498 = ORIENTED_EDGE ( 'NONE', *, *, #653, .F. ) ;
#499 = DIRECTION ( 'NONE',  ( 0.7071067811865500152, 8.659560562354902043E-17, 0.7071067811865450192 ) ) ;
#500 = ORIENTED_EDGE ( 'NONE', *, *, #583, .F. ) ;
#501 = PLANE ( 'NONE',  #237 ) ;
#502 = ORIENTED_EDGE ( 'NONE', *, *, #1035, .T. ) ;
#503 = EDGE_CURVE ( 'NONE', #990, #663, #669, .T. ) ;
#504 = DIRECTION ( 'NONE',  ( 0.000000000000000000, 0.000000000000000000, 1.000000000000000000 ) ) ;
#505 = LINE ( 'NONE', #270, #638 ) ;
#506 = EDGE_LOOP ( 'NONE', ( #749, #1032, #584, #173 ) ) ;
#507 = CONICAL_SURFACE ( 'NONE', #527, 2.900000000000006573, 0.7853981633974467247 ) ;
#508 = AXIS2_PLACEMENT_3D ( 'NONE', #856, #371, #763 ) ;
#509 = DIRECTION ( 'NONE',  ( -1.000000000000000000, -0.000000000000000000, -0.000000000000000000 ) ) ;
#510 = CARTESIAN_POINT ( 'NONE',  ( -0.3999999999999995226, 0.000000000000000000, 0.000000000000000000 ) ) ;
#511 = EDGE_LOOP ( 'NONE', ( #133, #179, #38, #889, #248 ) ) ;
#512 = CIRCLE ( 'NONE', #108, 5.399999999999967493 ) ;
#513 = AXIS2_PLACEMENT_3D ( 'NONE', #523, #843, #263 ) ;
#514 = ADVANCED_FACE ( 'NONE', ( #83 ), #501, .T. ) ;
#515 = CARTESIAN_POINT ( 'NONE',  ( -0.3999999999999995226, 2.551470164434614052, 4.300000000000000711 ) ) ;
#516 = DIRECTION ( 'NONE',  ( 0.000000000000000000, 0.000000000000000000, -1.000000000000000000 ) ) ;
#517 = ORIENTED_EDGE ( 'NONE', *, *, #45, .T. ) ;
#518 = FACE_OUTER_BOUND ( 'NONE', #369, .T. ) ;
#519 = CARTESIAN_POINT ( 'NONE',  ( 20.00000000000000000, 0.000000000000000000, 11.39999999999998614 ) ) ;
#520 = VERTEX_POINT ( 'NONE', #398 ) ;
#521 = CARTESIAN_POINT ( 'NONE',  ( 20.00000000000000000, -2.606242505984429414, 3.100000000000000089 ) ) ;
#522 = DIRECTION ( 'NONE',  ( -1.000000000000000000, 0.000000000000000000, -0.000000000000000000 ) ) ;
#523 = CARTESIAN_POINT ( 'NONE',  ( -1.635161925425355514E-14, 0.000000000000000000, 0.000000000000000000 ) ) ;
#524 = CARTESIAN_POINT ( 'NONE',  ( 0.4006190611126919654, 1.187945301733449031E-15, -9.000619061112825392 ) ) ;
#525 = PLANE ( 'NONE',  #599 ) ;
#526 = DIRECTION ( 'NONE',  ( 1.000000000000000000, -0.000000000000000000, -0.000000000000000000 ) ) ;
#527 = AXIS2_PLACEMENT_3D ( 'NONE', #479, #85, #721 ) ;
#528 = VECTOR ( 'NONE', #811, 1000.000000000000000 ) ;
#529 = TOROIDAL_SURFACE ( 'NONE', #226, 138.6285714285714619, 129.6285714285714619 ) ;
#530 = DIRECTION ( 'NONE',  ( -0.000000000000000000, -0.000000000000000000, -1.000000000000000000 ) ) ;
#531 = DIRECTION ( 'NONE',  ( 0.000000000000000000, 0.000000000000000000, 1.000000000000000000 ) ) ;
#532 = ORIENTED_EDGE ( 'NONE', *, *, #857, .F. ) ;
#533 = DIRECTION ( 'NONE',  ( 0.000000000000000000, 0.000000000000000000, 1.000000000000000000 ) ) ;
#534 = DIRECTION ( 'NONE',  ( 0.000000000000000000, 0.000000000000000000, -1.000000000000000000 ) ) ;
#535 = ORIENTED_EDGE ( 'NONE', *, *, #588, .T. ) ;
#536 = FACE_OUTER_BOUND ( 'NONE', #774, .T. ) ;
#537 = DIRECTION ( 'NONE',  ( 0.000000000000000000, 0.000000000000000000, -1.000000000000000000 ) ) ;
#538 = EDGE_CURVE ( 'NONE', #245, #350, #812, .T. ) ;
#539 = CARTESIAN_POINT ( 'NONE',  ( 4.307615193820026001, -1.396802978499437353, 8.963642150233477324 ) ) ;
#540 = CARTESIAN_POINT ( 'NONE',  ( 2.062217024936321419, 0.7097495526112668207, 8.988942391893321116 ) ) ;
#541 = ORIENTED_EDGE ( 'NONE', *, *, #633, .T. ) ;
#542 = ORIENTED_EDGE ( 'NONE', *, *, #588, .F. ) ;
#543 = CIRCLE ( 'NONE', #92, 10.99999999999999289 ) ;
#544 = CARTESIAN_POINT ( 'NONE',  ( 5.089559788629052228, -0.2102062321120872213, 9.098100016615298102 ) ) ;
#545 = AXIS2_PLACEMENT_3D ( 'NONE', #762, #124, #193 ) ;
#546 = FACE_OUTER_BOUND ( 'NONE', #268, .T. ) ;
#547 = AXIS2_PLACEMENT_3D ( 'NONE', #596, #39, #33 ) ;
#548 = EDGE_LOOP ( 'NONE', ( #882, #253 ) ) ;
#549 = CARTESIAN_POINT ( 'NONE',  ( -0.3999999999999994671, 5.000000000000000888, 4.299999999999999822 ) ) ;
#550 = PRODUCT_DEFINITION_SHAPE ( 'NONE', 'NONE',  #953 ) ;
#551 = CARTESIAN_POINT ( 'NONE',  ( -0.3999999999999995226, -2.551470164434612720, 4.300000000000000711 ) ) ;
#552 = CARTESIAN_POINT ( 'NONE',  ( 1.899999999999999023, 0.1045259425940332360, 9.013925147326478537 ) ) ;
#553 = ORIENTED_EDGE ( 'NONE', *, *, #3, .T. ) ;
#554 = CARTESIAN_POINT ( 'NONE',  ( -0.1569093084326559362, -3.000000000000000888, 4.300000000000000711 ) ) ;
#555 = DIRECTION ( 'NONE',  ( 0.000000000000000000, 0.000000000000000000, -1.000000000000000000 ) ) ;
#556 = ADVANCED_FACE ( 'NONE', ( #731 ), #905, .F. ) ;
#557 = CARTESIAN_POINT ( 'NONE',  ( 3.499999999999999556, 1.477738927902551059E-16, 11.40099999999998737 ) ) ;
#558 = CONICAL_SURFACE ( 'NONE', #733, 8.600000000000108002, 0.7853981633974502774 ) ;
#559 = AXIS2_PLACEMENT_3D ( 'NONE', #17, #998, #780 ) ;
#560 = VERTEX_POINT ( 'NONE', #677 ) ;
#561 = FACE_OUTER_BOUND ( 'NONE', #562, .T. ) ;
#562 = EDGE_LOOP ( 'NONE', ( #872, #114, #397, #613 ) ) ;
#563 = EDGE_CURVE ( 'NONE', #350, #199, #255, .T. ) ;
#564 = FACE_OUTER_BOUND ( 'NONE', #289, .T. ) ;
#565 = ORIENTED_EDGE ( 'NONE', *, *, #411, .F. ) ;
#566 = CARTESIAN_POINT ( 'NONE',  ( 20.00000000000000000, 0.000000000000000000, -11.39999999999998614 ) ) ;
#567 = ORIENTED_EDGE ( 'NONE', *, *, #653, .T. ) ;
#568 = EDGE_CURVE ( 'NONE', #463, #737, #249, .T. ) ;
#569 = CYLINDRICAL_SURFACE ( 'NONE', #254, 11.39999999999998614 ) ;
#570 = CARTESIAN_POINT ( 'NONE',  ( 3.499999999999999556, 1.477738927902551059E-16, 11.40099999999998737 ) ) ;
#571 = ORIENTED_EDGE ( 'NONE', *, *, #916, .T. ) ;
#572 = DIRECTION ( 'NONE',  ( 0.000000000000000000, -2.168404344971009115E-16, -1.000000000000000000 ) ) ;
#573 = ORIENTED_EDGE ( 'NONE', *, *, #458, .T. ) ;
#574 = DIRECTION ( 'NONE',  ( -1.000000000000000000, 0.000000000000000000, 0.000000000000000000 ) ) ;
#575 = CIRCLE ( 'NONE', #236, 8.600000000000108002 ) ;
#576 = STYLED_ITEM ( 'NONE', ( #580 ), #579 ) ;
#577 = VERTEX_POINT ( 'NONE', #13 ) ;
#578 = AXIS2_PLACEMENT_3D ( 'NONE', #110, #43, #531 ) ;
#579 = MANIFOLD_SOLID_BREP ( 'Chanfrein1', #126 ) ;
#580 = PRESENTATION_STYLE_ASSIGNMENT (( #744 ) ) ;
#581 = EDGE_LOOP ( 'NONE', ( #648, #553 ) ) ;
#582 = FACE_OUTER_BOUND ( 'NONE', #320, .T. ) ;
#583 = EDGE_CURVE ( 'NONE', #350, #245, #616, .T. ) ;
#584 = ORIENTED_EDGE ( 'NONE', *, *, #86, .T. ) ;
#585 = FACE_OUTER_BOUND ( 'NONE', #280, .T. ) ;
#586 = ORIENTED_EDGE ( 'NONE', *, *, #782, .T. ) ;
#587 = DIRECTION ( 'NONE',  ( -0.000000000000000000, -0.000000000000000000, -1.000000000000000000 ) ) ;
#588 = EDGE_CURVE ( 'NONE', #686, #1016, #622, .T. ) ;
#589 =( NAMED_UNIT ( * ) SI_UNIT ( $, .STERADIAN. ) SOLID_ANGLE_UNIT ( ) );
#590 = ORIENTED_EDGE ( 'NONE', *, *, #218, .T. ) ;
#591 = CARTESIAN_POINT ( 'NONE',  ( -0.1569093084326576848, 2.999999999999998224, 4.299999999999999822 ) ) ;
#592 = CARTESIAN_POINT ( 'NONE',  ( -0.3999999999999905298, 0.000000000000000000, -5.000000000000000000 ) ) ;
#593 = ORIENTED_EDGE ( 'NONE', *, *, #218, .F. ) ;
#594 = CONICAL_SURFACE ( 'NONE', #929, 5.000000000000000000, 0.7853981633974439491 ) ;
#595 = VECTOR ( 'NONE', #888, 1000.000000000000000 ) ;
#596 = CARTESIAN_POINT ( 'NONE',  ( 3.499999999999999556, 1.477738927902551059E-16, 11.40099999999998737 ) ) ;
#597 = DIRECTION ( 'NONE',  ( 0.000000000000000000, -1.445602896647339163E-16, -1.000000000000000000 ) ) ;
#598 = CARTESIAN_POINT ( 'NONE',  ( -0.1331158929966762827, 2.654764505782046147, 3.233115892996681229 ) ) ;
#599 = AXIS2_PLACEMENT_3D ( 'NONE', #606, #522, #445 ) ;
#600 = CIRCLE ( 'NONE', #460, 2.900000000000006573 ) ;
#601 = ADVANCED_FACE ( 'NONE', ( #771, #846 ), #924, .T. ) ;
#602 = DIRECTION ( 'NONE',  ( 0.000000000000000000, -1.000000000000000000, 1.445602896647339410E-16 ) ) ;
#603 = DIRECTION ( 'NONE',  ( -0.000000000000000000, -0.000000000000000000, -1.000000000000000000 ) ) ;
#604 = ORIENTED_EDGE ( 'NONE', *, *, #782, .F. ) ;
#605 = DIRECTION ( 'NONE',  ( 0.7071067811865473507, 0.000000000000000000, 0.7071067811865476838 ) ) ;
#606 = CARTESIAN_POINT ( 'NONE',  ( 21.00000000000000000, 2.500000000000000000, 0.000000000000000000 ) ) ;
#607 = EDGE_CURVE ( 'NONE', #652, #407, #209, .T. ) ;
#608 = DIRECTION ( 'NONE',  ( 1.000000000000000000, 0.000000000000000000, 0.000000000000000000 ) ) ;
#609 = VERTEX_POINT ( 'NONE', #41 ) ;
#610 =( NAMED_UNIT ( * ) PLANE_ANGLE_UNIT ( ) SI_UNIT ( $, .RADIAN. ) );
#611 = CARTESIAN_POINT ( 'NONE',  ( 4.485010730491251429, -1.277900621674394221, 8.988363868038142357 ) ) ;
#612 = CARTESIAN_POINT ( 'NONE',  ( 3.499999999999999556, 1.477738927902551059E-16, 3.100000000000000533 ) ) ;
#613 = ORIENTED_EDGE ( 'NONE', *, *, #702, .F. ) ;
#614 = DIRECTION ( 'NONE',  ( 0.000000000000000000, 1.000000000000000000, 0.000000000000000000 ) ) ;
#615 = CONICAL_SURFACE ( 'NONE', #151, 2.900000000000006573, 0.7853981633974467247 ) ;
#616 = CIRCLE ( 'NONE', #559, 2.500000000000000000 ) ;
#617 = VECTOR ( 'NONE', #695, 1000.000000000000000 ) ;
#618 = DIRECTION ( 'NONE',  ( 0.000000000000000000, 0.000000000000000000, 1.000000000000000000 ) ) ;
#619 = CARTESIAN_POINT ( 'NONE',  ( 2.694898067858302326, 1.398617928369161545, 8.919238156056470856 ) ) ;
#620 = ORIENTED_EDGE ( 'NONE', *, *, #568, .T. ) ;
#621 = EDGE_CURVE ( 'NONE', #156, #609, #700, .T. ) ;
#622 = LINE ( 'NONE', #439, #187 ) ;
#623 = DIRECTION ( 'NONE',  ( 0.000000000000000000, 0.000000000000000000, 1.000000000000000000 ) ) ;
#624 = CARTESIAN_POINT ( 'NONE',  ( -0.1569093084326559362, -3.000000000000000888, 4.300000000000000711 ) ) ;
#625 = CARTESIAN_POINT ( 'NONE',  ( 3.398708904291920962, 1.600215753200730617, 8.901834661488521760 ) ) ;
#626 =( GEOMETRIC_REPRESENTATION_CONTEXT ( 3 ) GLOBAL_UNCERTAINTY_ASSIGNED_CONTEXT ( ( #123 ) ) GLOBAL_UNIT_ASSIGNED_CONTEXT ( ( #437, #610, #389 ) ) REPRESENTATION_CONTEXT ( 'NONE', 'WORKASPACE' ) );
#627 = EDGE_CURVE ( 'NONE', #560, #826, #932, .T. ) ;
#628 = CARTESIAN_POINT ( 'NONE',  ( 5.048781363357857543, 0.4149565428336876027, 9.089466659582623009 ) ) ;
#629 = DIRECTION ( 'NONE',  ( 0.000000000000000000, 0.000000000000000000, 1.000000000000000000 ) ) ;
#630 = ORIENTED_EDGE ( 'NONE', *, *, #395, .T. ) ;
#631 = CARTESIAN_POINT ( 'NONE',  ( -1.635161925425355514E-14, 1.697710362703702566E-14, -138.6285714285714619 ) ) ;
#632 = ORIENTED_EDGE ( 'NONE', *, *, #138, .F. ) ;
#633 = EDGE_CURVE ( 'NONE', #796, #384, #772, .T. ) ;
#634 = AXIS2_PLACEMENT_3D ( 'NONE', #204, #453, #377 ) ;
#635 = VECTOR ( 'NONE', #25, 1000.000000000000000 ) ;
#636 = EDGE_CURVE ( 'NONE', #308, #407, #296, .T. ) ;
#637 = LINE ( 'NONE', #866, #810 ) ;
#638 = VECTOR ( 'NONE', #442, 1000.000000000000000 ) ;
#639 = ORIENTED_EDGE ( 'NONE', *, *, #702, .T. ) ;
#640 = DIRECTION ( 'NONE',  ( 0.000000000000000000, -1.000000000000000000, 1.445602896647339656E-16 ) ) ;
#641 = FACE_OUTER_BOUND ( 'NONE', #481, .T. ) ;
#642 = EDGE_CURVE ( 'NONE', #164, #1012, #190, .T. ) ;
#643 = DIRECTION ( 'NONE',  ( 1.000000000000000000, 0.000000000000000000, 0.000000000000000000 ) ) ;
#644 = VERTEX_POINT ( 'NONE', #1004 ) ;
#645 = MECHANICAL_DESIGN_GEOMETRIC_PRESENTATION_REPRESENTATION (  '', ( #679 ), #626 ) ;
#646 = VERTEX_POINT ( 'NONE', #1020 ) ;
#647 = CARTESIAN_POINT ( 'NONE',  ( 21.00000000000000000, 0.000000000000000000, 0.000000000000000000 ) ) ;
#648 = ORIENTED_EDGE ( 'NONE', *, *, #472, .T. ) ;
#649 = DIRECTION ( 'NONE',  ( -1.000000000000000000, -0.000000000000000000, -0.000000000000000000 ) ) ;
#650 = PRESENTATION_LAYER_ASSIGNMENT (  '', '', ( #576 ) ) ;
#651 = VECTOR ( 'NONE', #44, 1000.000000000000000 ) ;
#652 = VERTEX_POINT ( 'NONE', #692 ) ;
#653 = EDGE_CURVE ( 'NONE', #1012, #164, #831, .T. ) ;
#654 = DIRECTION ( 'NONE',  ( 1.000000000000000000, 0.000000000000000000, -0.000000000000000000 ) ) ;
#655 = LINE ( 'NONE', #1, #372 ) ;
#656 = DIRECTION ( 'NONE',  ( 1.000000000000000000, 0.000000000000000000, 0.000000000000000000 ) ) ;
#657 = ORIENTED_EDGE ( 'NONE', *, *, #144, .F. ) ;
#658 = CARTESIAN_POINT ( 'NONE',  ( 21.00000000000000000, 0.000000000000000000, 10.99999999999999289 ) ) ;
#659 = EDGE_LOOP ( 'NONE', ( #353, #761, #757, #122 ) ) ;
#660 = DIRECTION ( 'NONE',  ( 0.000000000000000000, -1.000000000000000000, 0.000000000000000000 ) ) ;
#661 = FACE_BOUND ( 'NONE', #333, .T. ) ;
#662 = CARTESIAN_POINT ( 'NONE',  ( -0.3999999999999994671, 2.748181216732456189, 3.500000000000004441 ) ) ;
#663 = VERTEX_POINT ( 'NONE', #281 ) ;
#664 = LINE ( 'NONE', #993, #595 ) ;
#665 = ORIENTED_EDGE ( 'NONE', *, *, #716, .T. ) ;
#666 = DIRECTION ( 'NONE',  ( 0.000000000000000000, 1.000000000000000000, 0.000000000000000000 ) ) ;
#667 = EDGE_CURVE ( 'NONE', #745, #652, #120, .T. ) ;
#668 = DIRECTION ( 'NONE',  ( 1.000000000000000000, 0.000000000000000000, 0.000000000000000000 ) ) ;
#669 = CIRCLE ( 'NONE', #168, 129.6285714285714619 ) ;
#670 = ORIENTED_EDGE ( 'NONE', *, *, #836, .T. ) ;
#671 = CONICAL_SURFACE ( 'NONE', #934, 11.39999999999998614, 0.7853981633974447263 ) ;
#672 = DIRECTION ( 'NONE',  ( -1.000000000000000000, -0.000000000000000000, -0.000000000000000000 ) ) ;
#673 = ORIENTED_EDGE ( 'NONE', *, *, #1005, .F. ) ;
#674 = LINE ( 'NONE', #747, #89 ) ;
#675 = EDGE_CURVE ( 'NONE', #245, #449, #839, .T. ) ;
#676 = ORIENTED_EDGE ( 'NONE', *, *, #621, .F. ) ;
#677 = CARTESIAN_POINT ( 'NONE',  ( 21.00000000000000000, 1.371604415045034330E-15, -10.99999999999999289 ) ) ;
#678 = ORIENTED_EDGE ( 'NONE', *, *, #3, .F. ) ;
#679 = STYLED_ITEM ( 'NONE', ( #1003 ), #186 ) ;
#680 = LINE ( 'NONE', #36, #1017 ) ;
#681 = CARTESIAN_POINT ( 'NONE',  ( 20.00000000000000000, 0.000000000000000000, 0.000000000000000000 ) ) ;
#682 = ORIENTED_EDGE ( 'NONE', *, *, #379, .F. ) ;
#683 =( NAMED_UNIT ( * ) PLANE_ANGLE_UNIT ( ) SI_UNIT ( $, .RADIAN. ) );
#684 = EDGE_CURVE ( 'NONE', #228, #152, #293, .T. ) ;
#685 = CARTESIAN_POINT ( 'NONE',  ( 5.204170427930421283E-15, -2.606242505984429414, 3.100000000000000089 ) ) ;
#686 = VERTEX_POINT ( 'NONE', #34 ) ;
#687 = FACE_OUTER_BOUND ( 'NONE', #743, .T. ) ;
#688 = CARTESIAN_POINT ( 'NONE',  ( 20.00000000000000000, 3.061616997868383141E-16, -2.500000000000000000 ) ) ;
#689 = ORIENTED_EDGE ( 'NONE', *, *, #961, .T. ) ;
#690 = AXIS2_PLACEMENT_3D ( 'NONE', #492, #1036, #875 ) ;
#691 = SURFACE_STYLE_USAGE ( .BOTH. , #696 ) ;
#692 = CARTESIAN_POINT ( 'NONE',  ( -0.1569093084326576848, 2.999999999999998224, 4.299999999999999822 ) ) ;
#693 = VECTOR ( 'NONE', #614, 1000.000000000000000 ) ;
#694 = ADVANCED_FACE ( 'NONE', ( #130, #197 ), #525, .F. ) ;
#695 = DIRECTION ( 'NONE',  ( 1.000000000000000000, 0.000000000000000000, 0.000000000000000000 ) ) ;
#696 = SURFACE_SIDE_STYLE ('',( #24 ) ) ;
#697 = CARTESIAN_POINT ( 'NONE',  ( 20.60000000000000142, 1.396097351027981044E-15, -11.39999999999998614 ) ) ;
#698 = EDGE_CURVE ( 'NONE', #429, #928, #375, .T. ) ;
#699 = CARTESIAN_POINT ( 'NONE',  ( -1.635161925425355514E-14, 0.000000000000000000, 138.6285714285714619 ) ) ;
#700 = LINE ( 'NONE', #119, #169 ) ;
#701 = CARTESIAN_POINT ( 'NONE',  ( 5.100000000000000533, -0.1058871441377955275, 9.100363957718801800 ) ) ;
#702 = EDGE_CURVE ( 'NONE', #577, #261, #776, .T. ) ;
#703 = DIRECTION ( 'NONE',  ( -0.000000000000000000, 1.000000000000000000, 2.168404344971009115E-16 ) ) ;
#704 = EDGE_LOOP ( 'NONE', ( #14, #639, #391, #535 ) ) ;
#705 = PRODUCT_CONTEXT ( 'NONE', #212, 'mechanical' ) ;
#706 = DIRECTION ( 'NONE',  ( 1.000000000000000000, 0.000000000000000000, 0.000000000000000000 ) ) ;
#707 = ORIENTED_EDGE ( 'NONE', *, *, #45, .F. ) ;
#708 = CONICAL_SURFACE ( 'NONE', #224, 11.39999999999998614, 0.7853981633974396193 ) ;
#709 = CIRCLE ( 'NONE', #324, 2.900000000000006573 ) ;
#710 = CARTESIAN_POINT ( 'NONE',  ( 20.00000000000000000, 0.000000000000000000, 2.500000000000000000 ) ) ;
#711 = CARTESIAN_POINT ( 'NONE',  ( 5.089588092529738539, 0.2100531837720721051, 9.098106023665835096 ) ) ;
#712 = ADVANCED_FACE ( 'NONE', ( #518 ), #529, .F. ) ;
#713 = CARTESIAN_POINT ( 'NONE',  ( 20.59999999999999432, 3.061616997868383141E-16, -2.500000000000000000 ) ) ;
#714 = DIRECTION ( 'NONE',  ( -1.000000000000000000, -0.000000000000000000, -0.000000000000000000 ) ) ;
#715 = ADVANCED_FACE ( 'NONE', ( #829, #121 ), #346, .F. ) ;
#716 = EDGE_CURVE ( 'NONE', #162, #164, #277, .T. ) ;
#717 = ORIENTED_EDGE ( 'NONE', *, *, #267, .T. ) ;
#718 = ORIENTED_EDGE ( 'NONE', *, *, #327, .F. ) ;
#719 = CIRCLE ( 'NONE', #860, 1.600000000000000755 ) ;
#720 = MECHANICAL_DESIGN_GEOMETRIC_PRESENTATION_REPRESENTATION (  '', ( #576 ), #21 ) ;
#721 = DIRECTION ( 'NONE',  ( 0.000000000000000000, 0.000000000000000000, -1.000000000000000000 ) ) ;
#722 = AXIS2_PLACEMENT_3D ( 'NONE', #134, #360, #1008 ) ;
#723 = ORIENTED_EDGE ( 'NONE', *, *, #22, .F. ) ;
#724 = ORIENTED_EDGE ( 'NONE', *, *, #642, .T. ) ;
#725 = CARTESIAN_POINT ( 'NONE',  ( 20.60000000000000142, 0.000000000000000000, 11.39999999999998614 ) ) ;
#726 = CARTESIAN_POINT ( 'NONE',  ( 2.220642336325699073, -0.9838037841736384514, 8.966372429642534669 ) ) ;
#727 = EDGE_LOOP ( 'NONE', ( #141, #730 ) ) ;
#728 = CARTESIAN_POINT ( 'NONE',  ( 20.59999999999999432, 0.000000000000000000, 2.500000000000000000 ) ) ;
#729 = EDGE_CURVE ( 'NONE', #646, #308, #425, .T. ) ;
#730 = ORIENTED_EDGE ( 'NONE', *, *, #65, .F. ) ;
#731 = FACE_OUTER_BOUND ( 'NONE', #97, .T. ) ;
#732 = ORIENTED_EDGE ( 'NONE', *, *, #288, .F. ) ;
#733 = AXIS2_PLACEMENT_3D ( 'NONE', #20, #340, #211 ) ;
#734 = DIRECTION ( 'NONE',  ( -0.000000000000000000, -0.000000000000000000, -1.000000000000000000 ) ) ;
#735 = CIRCLE ( 'NONE', #476, 5.000000000000000000 ) ;
#736 = EDGE_CURVE ( 'NONE', #990, #1038, #911, .T. ) ;
#737 = VERTEX_POINT ( 'NONE', #519 ) ;
#738 = B_SPLINE_CURVE_WITH_KNOTS ( 'NONE', 3,
 ( #936, #213, #1025, #242 ),
 .UNSPECIFIED., .F., .F.,
 ( 4, 4 ),
 ( 0.000000000000000000, 0.0005832208823496410136 ),
 .UNSPECIFIED. ) ;
#739 = CARTESIAN_POINT ( 'NONE',  ( -0.3999999999999995226, 2.999999999999998668, 6.299999999999999822 ) ) ;
#740 = ORIENTED_EDGE ( 'NONE', *, *, #563, .F. ) ;
#741 = CARTESIAN_POINT ( 'NONE',  ( 5.100000000000000533, 3.437173806538317522E-16, 6.299999999999999822 ) ) ;
#742 = DIRECTION ( 'NONE',  ( 0.000000000000000000, 0.000000000000000000, -1.000000000000000000 ) ) ;
#743 = EDGE_LOOP ( 'NONE', ( #84, #52, #971, #344 ) ) ;
#744 = SURFACE_STYLE_USAGE ( .BOTH. , #412 ) ;
#745 = VERTEX_POINT ( 'NONE', #840 ) ;
#746 = EDGE_CURVE ( 'NONE', #336, #1042, #363, .T. ) ;
#747 = CARTESIAN_POINT ( 'NONE',  ( 0.000000000000000000, 0.000000000000000000, 2.500000000000000000 ) ) ;
#748 = CARTESIAN_POINT ( 'NONE',  ( 20.00000000000000000, 4.049999999999999822, 0.000000000000000000 ) ) ;
#749 = ORIENTED_EDGE ( 'NONE', *, *, #1009, .F. ) ;
#750 = DIRECTION ( 'NONE',  ( 1.000000000000000000, -0.000000000000000000, -0.000000000000000000 ) ) ;
#751 = EDGE_CURVE ( 'NONE', #737, #803, #140, .T. ) ;
#752 = PLANE ( 'NONE',  #441 ) ;
#753 = VECTOR ( 'NONE', #499, 1000.000000000000000 ) ;
#754 = CIRCLE ( 'NONE', #931, 129.6285714285714619 ) ;
#755 = AXIS2_PLACEMENT_3D ( 'NONE', #493, #11, #330 ) ;
#756 = DIRECTION ( 'NONE',  ( 0.000000000000000000, 0.000000000000000000, 1.000000000000000000 ) ) ;
#757 = ORIENTED_EDGE ( 'NONE', *, *, #751, .T. ) ;
#758 = CARTESIAN_POINT ( 'NONE',  ( 7.000000000000000000, 2.999999999999998224, 4.299999999999999822 ) ) ;
#759 = ADVANCED_FACE ( 'NONE', ( #284 ), #862, .T. ) ;
#760 = DIRECTION ( 'NONE',  ( -1.000000000000000000, -0.000000000000000000, -0.000000000000000000 ) ) ;
#761 = ORIENTED_EDGE ( 'NONE', *, *, #55, .T. ) ;
#762 = CARTESIAN_POINT ( 'NONE',  ( 3.499999999999999556, 1.477738927902551059E-16, 4.299999999999999822 ) ) ;
#763 = DIRECTION ( 'NONE',  ( 0.000000000000000000, 0.000000000000000000, -1.000000000000000000 ) ) ;
#764 = CARTESIAN_POINT ( 'NONE',  ( 20.60000000000000142, 0.000000000000000000, 0.000000000000000000 ) ) ;
#765 = ORIENTED_EDGE ( 'NONE', *, *, #916, .F. ) ;
#766 = ADVANCED_FACE ( 'NONE', ( #585 ), #892, .F. ) ;
#767 = FILL_AREA_STYLE ('',( #841 ) ) ;
#768 = CARTESIAN_POINT ( 'NONE',  ( -0.05251279360344502517, 2.999999999999998668, 4.426833009172352007 ) ) ;
#769 = DIRECTION ( 'NONE',  ( 0.000000000000000000, 0.000000000000000000, -1.000000000000000000 ) ) ;
#770 = VECTOR ( 'NONE', #322, 1000.000000000000000 ) ;
#771 = FACE_BOUND ( 'NONE', #443, .T. ) ;
#772 = CIRCLE ( 'NONE', #1001, 1.600000000000000977 ) ;
#773 = CYLINDRICAL_SURFACE ( 'NONE', #128, 1.600000000000000977 ) ;
#774 = EDGE_LOOP ( 'NONE', ( #143, #125, #381, #923, #215 ) ) ;
#775 = LINE ( 'NONE', #272, #863 ) ;
#776 = LINE ( 'NONE', #685, #693 ) ;
#777 = B_SPLINE_CURVE_WITH_KNOTS ( 'NONE', 3,
 ( #591, #851, #907, #515 ),
 .UNSPECIFIED., .F., .F.,
 ( 4, 4 ),
 ( 0.000000000000000000, 0.0005101686953538007692 ),
 .UNSPECIFIED. ) ;
#778 = ADVANCED_FACE ( 'NONE', ( #51, #996 ), #37, .T. ) ;
#779 = ORIENTED_EDGE ( 'NONE', *, *, #751, .F. ) ;
#780 = DIRECTION ( 'NONE',  ( 0.000000000000000000, 0.000000000000000000, 1.000000000000000000 ) ) ;
#781 = DIRECTION ( 'NONE',  ( -1.000000000000000000, -0.000000000000000000, -0.000000000000000000 ) ) ;
#782 = EDGE_CURVE ( 'NONE', #234, #31, #57, .T. ) ;
#783 = DIRECTION ( 'NONE',  ( 0.000000000000000000, -2.168404344971009115E-16, 1.000000000000000000 ) ) ;
#784 = CARTESIAN_POINT ( 'NONE',  ( 1.910450615559462273, 0.2106035681595273545, 9.012205120381393542 ) ) ;
#785 = AXIS2_PLACEMENT_3D ( 'NONE', #925, #361, #440 ) ;
#786 = AXIS2_PLACEMENT_3D ( 'NONE', #920, #49, #370 ) ;
#787 = AXIS2_PLACEMENT_3D ( 'NONE', #699, #117, #194 ) ;
#788 = AXIS2_PLACEMENT_3D ( 'NONE', #205, #436, #769 ) ;
#789 = CARTESIAN_POINT ( 'NONE',  ( 2.294790086492305203, 1.057617617087173612, 8.958388100576998525 ) ) ;
#790 = ORIENTED_EDGE ( 'NONE', *, *, #288, .T. ) ;
#791 = CARTESIAN_POINT ( 'NONE',  ( 3.712639872909324179, 1.599557956403953263, 8.910576196517425274 ) ) ;
#792 = DIRECTION ( 'NONE',  ( -0.000000000000000000, 1.000000000000000000, 1.224646799147353207E-16 ) ) ;
#793 = ORIENTED_EDGE ( 'NONE', *, *, #138, .T. ) ;
#794 = CARTESIAN_POINT ( 'NONE',  ( 4.888516672965275589, -0.8017934647330148268, 9.057195452308928196 ) ) ;
#795 = CARTESIAN_POINT ( 'NONE',  ( -1.983707139815061427E-14, 0.000000000000000000, 0.000000000000000000 ) ) ;
#796 = VERTEX_POINT ( 'NONE', #127 ) ;
#797 = ORIENTED_EDGE ( 'NONE', *, *, #424, .T. ) ;
#798 = DIRECTION ( 'NONE',  ( 1.000000000000000000, 0.000000000000000000, 0.000000000000000000 ) ) ;
#799 = AXIS2_PLACEMENT_3D ( 'NONE', #870, #459, #867 ) ;
#800 = CARTESIAN_POINT ( 'NONE',  ( 20.00000000000000000, 0.000000000000000000, 0.000000000000000000 ) ) ;
#801 = ORIENTED_EDGE ( 'NONE', *, *, #621, .T. ) ;
#802 = DIRECTION ( 'NONE',  ( 1.000000000000000000, 0.000000000000000000, 0.000000000000000000 ) ) ;
#803 = VERTEX_POINT ( 'NONE', #837 ) ;
#804 = EDGE_CURVE ( 'NONE', #520, #644, #505, .T. ) ;
#805 = LINE ( 'NONE', #81, #318 ) ;
#806 = UNCERTAINTY_MEASURE_WITH_UNIT (LENGTH_MEASURE( 1.000000000000000082E-05 ), #427, 'distance_accuracy_value', 'NONE');
#807 = CARTESIAN_POINT ( 'NONE',  ( 21.00000000000000000, 3.551475717527332707E-16, 2.900000000000006573 ) ) ;
#808 = ORIENTED_EDGE ( 'NONE', *, *, #65, .T. ) ;
#809 = ORIENTED_EDGE ( 'NONE', *, *, #129, .T. ) ;
#810 = VECTOR ( 'NONE', #530, 1000.000000000000000 ) ;
#811 = DIRECTION ( 'NONE',  ( 0.000000000000000000, 1.000000000000000000, -1.445602896647339163E-16 ) ) ;
#812 = CIRCLE ( 'NONE', #949, 2.500000000000000000 ) ;
#813 = VECTOR ( 'NONE', #359, 1000.000000000000000 ) ;
#814 = ORIENTED_EDGE ( 'NONE', *, *, #804, .F. ) ;
#815 = ADVANCED_FACE ( 'NONE', ( #448 ), #405, .T. ) ;
#816 = FILL_AREA_STYLE_COLOUR ( '', #1033 ) ;
#817 = VERTEX_POINT ( 'NONE', #688 ) ;
#818 = CARTESIAN_POINT ( 'NONE',  ( -1.983707139815061427E-14, 0.000000000000000000, -8.600000000000108002 ) ) ;
#819 = ORIENTED_EDGE ( 'NONE', *, *, #144, .T. ) ;
#820 = ADVANCED_FACE ( 'NONE', ( #1000 ), #773, .F. ) ;
#821 = CARTESIAN_POINT ( 'NONE',  ( 20.59999999999999432, 0.000000000000000000, 0.000000000000000000 ) ) ;
#822 = VERTEX_POINT ( 'NONE', #865 ) ;
#823 = DIRECTION ( 'NONE',  ( 0.000000000000000000, -1.000000000000000000, 0.000000000000000000 ) ) ;
#824 = ORIENTED_EDGE ( 'NONE', *, *, #675, .F. ) ;
#825 = LINE ( 'NONE', #566, #71 ) ;
#826 = VERTEX_POINT ( 'NONE', #454 ) ;
#827 = DIRECTION ( 'NONE',  ( 0.000000000000000000, 0.000000000000000000, 1.000000000000000000 ) ) ;
#828 = AXIS2_PLACEMENT_3D ( 'NONE', #858, #456, #618 ) ;
#829 = FACE_OUTER_BOUND ( 'NONE', #548, .T. ) ;
#830 = ORIENTED_EDGE ( 'NONE', *, *, #804, .T. ) ;
#831 = CIRCLE ( 'NONE', #967, 10.39999999999999325 ) ;
#832 = CARTESIAN_POINT ( 'NONE',  ( -1.983707139815061427E-14, 0.000000000000000000, -5.399999999999967493 ) ) ;
#833 = CARTESIAN_POINT ( 'NONE',  ( -1.983707139815061427E-14, 2.999999999999998224, 4.489988864128691581 ) ) ;
#834 = ORIENTED_EDGE ( 'NONE', *, *, #295, .F. ) ;
#835 = DIRECTION ( 'NONE',  ( 0.000000000000000000, 0.000000000000000000, 1.000000000000000000 ) ) ;
#836 = EDGE_CURVE ( 'NONE', #686, #1016, #388, .T. ) ;
#837 = CARTESIAN_POINT ( 'NONE',  ( 20.00000000000000000, 1.396097351027981044E-15, -11.39999999999998614 ) ) ;
#838 = ORIENTED_EDGE ( 'NONE', *, *, #239, .T. ) ;
#839 = LINE ( 'NONE', #216, #952 ) ;
#840 = CARTESIAN_POINT ( 'NONE',  ( -1.983707139815061427E-14, 2.999999999999998224, 4.489988864128691581 ) ) ;
#841 = FILL_AREA_STYLE_COLOUR ( '', #247 ) ;
#842 = CARTESIAN_POINT ( 'NONE',  ( -0.3999999999999994671, 0.000000000000000000, 0.000000000000000000 ) ) ;
#843 = DIRECTION ( 'NONE',  ( -1.000000000000000000, -0.000000000000000000, -0.000000000000000000 ) ) ;
#844 = CIRCLE ( 'NONE', #965, 1.600000000000000977 ) ;
#845 = ADVANCED_FACE ( 'NONE', ( #77 ), #1026, .T. ) ;
#846 = FACE_OUTER_BOUND ( 'NONE', #403, .T. ) ;
#847 = AXIS2_PLACEMENT_3D ( 'NONE', #1037, #703, #955 ) ;
#848 = DIRECTION ( 'NONE',  ( -1.000000000000000000, -0.000000000000000000, -0.000000000000000000 ) ) ;
#849 = ORIENTED_EDGE ( 'NONE', *, *, #636, .T. ) ;
#850 = DIRECTION ( 'NONE',  ( -0.7071067811865536790, 8.659560562354858902E-17, -0.7071067811865414665 ) ) ;
#851 = CARTESIAN_POINT ( 'NONE',  ( -0.2413870514423007430, 2.852358510660506941, 4.299999999999999822 ) ) ;
#852 = ADVANCED_FACE ( 'NONE', ( #546 ), #671, .T. ) ;
#853 = DIRECTION ( 'NONE',  ( 0.000000000000000000, 0.000000000000000000, 1.000000000000000000 ) ) ;
#854 = CARTESIAN_POINT ( 'NONE',  ( 5.017856061814892854, 0.5167971025615103464, 9.082976754765281768 ) ) ;
#855 = CARTESIAN_POINT ( 'NONE',  ( 0.000000000000000000, 0.000000000000000000, 0.000000000000000000 ) ) ;
#856 = CARTESIAN_POINT ( 'NONE',  ( -0.3999999999999905298, 0.000000000000000000, 0.000000000000000000 ) ) ;
#857 = EDGE_CURVE ( 'NONE', #162, #663, #985, .T. ) ;
#858 = CARTESIAN_POINT ( 'NONE',  ( 20.00000000000000000, 0.000000000000000000, 0.000000000000000000 ) ) ;
#859 = CYLINDRICAL_SURFACE ( 'NONE', #799, 4.049999999999999822 ) ;
#860 = AXIS2_PLACEMENT_3D ( 'NONE', #935, #417, #180 ) ;
#861 = EDGE_LOOP ( 'NONE', ( #47, #184, #718, #676 ) ) ;
#862 = CONICAL_SURFACE ( 'NONE', #1021, 11.39999999999998614, 0.7853981633974447263 ) ;
#863 = VECTOR ( 'NONE', #904, 1000.000000000000000 ) ;
#864 = ADVANCED_FACE ( 'NONE', ( #378 ), #56, .F. ) ;
#865 = CARTESIAN_POINT ( 'NONE',  ( -0.3999999999999995226, -2.551470164434612720, 4.300000000000000711 ) ) ;
#866 = CARTESIAN_POINT ( 'NONE',  ( 1.899999999999998801, 1.477738927902551059E-16, 11.40099999999998737 ) ) ;
#867 = DIRECTION ( 'NONE',  ( 0.000000000000000000, 0.000000000000000000, 1.000000000000000000 ) ) ;
#868 = EDGE_CURVE ( 'NONE', #336, #822, #74, .T. ) ;
#869 = CARTESIAN_POINT ( 'NONE',  ( -0.05251279360344420638, -3.000000000000000888, 4.426833009172351119 ) ) ;
#870 = CARTESIAN_POINT ( 'NONE',  ( 0.000000000000000000, 0.000000000000000000, 0.000000000000000000 ) ) ;
#871 = ADVANCED_FACE ( 'NONE', ( #221 ), #859, .F. ) ;
#872 = ORIENTED_EDGE ( 'NONE', *, *, #251, .F. ) ;
#873 = CIRCLE ( 'NONE', #418, 9.000619061112825392 ) ;
#874 = AXIS2_PLACEMENT_3D ( 'NONE', #462, #1028, #303 ) ;
#875 = DIRECTION ( 'NONE',  ( 0.000000000000000000, 0.000000000000000000, -1.000000000000000000 ) ) ;
#876 = AXIS2_PLACEMENT_3D ( 'NONE', #748, #668, #282 ) ;
#877 = FACE_OUTER_BOUND ( 'NONE', #895, .T. ) ;
#878 = VERTEX_POINT ( 'NONE', #148 ) ;
#879 = ADVANCED_FACE ( 'NONE', ( #470 ), #109, .T. ) ;
#880 = FACE_OUTER_BOUND ( 'NONE', #175, .T. ) ;
#881 = CARTESIAN_POINT ( 'NONE',  ( 5.100000000000000533, 1.690134489436017793E-25, 9.100363957718803576 ) ) ;
#882 = ORIENTED_EDGE ( 'NONE', *, *, #94, .T. ) ;
#883 = DIRECTION ( 'NONE',  ( 1.000000000000000000, 0.000000000000000000, 0.000000000000000000 ) ) ;
#884 = ORIENTED_EDGE ( 'NONE', *, *, #55, .F. ) ;
#885 = LINE ( 'NONE', #725, #986 ) ;
#886 = DIRECTION ( 'NONE',  ( -1.000000000000000000, 0.000000000000000000, 0.000000000000000000 ) ) ;
#887 = ORIENTED_EDGE ( 'NONE', *, *, #259, .F. ) ;
#888 = DIRECTION ( 'NONE',  ( 0.7071067811865462405, 0.000000000000000000, -0.7071067811865489050 ) ) ;
#889 = ORIENTED_EDGE ( 'NONE', *, *, #636, .F. ) ;
#890 = VECTOR ( 'NONE', #783, 1000.000000000000000 ) ;
#891 = AXIS2_PLACEMENT_3D ( 'NONE', #332, #672, #987 ) ;
#892 = TOROIDAL_SURFACE ( 'NONE', #513, 138.6285714285714619, 129.6285714285714619 ) ;
#893 = DIRECTION ( 'NONE',  ( 0.000000000000000000, 0.000000000000000000, 1.000000000000000000 ) ) ;
#894 = ORIENTED_EDGE ( 'NONE', *, *, #178, .T. ) ;
#895 = EDGE_LOOP ( 'NONE', ( #542, #670 ) ) ;
#896 = CARTESIAN_POINT ( 'NONE',  ( 20.00000000000000000, 1.396097351027981044E-15, 11.39999999999998614 ) ) ;
#897 = ORIENTED_EDGE ( 'NONE', *, *, #275, .T. ) ;
#898 = CARTESIAN_POINT ( 'NONE',  ( -5.698348799390243968, -2.606242505984429414, 3.100000000000000089 ) ) ;
#899 =( NAMED_UNIT ( * ) PLANE_ANGLE_UNIT ( ) SI_UNIT ( $, .RADIAN. ) );
#900 = ORIENTED_EDGE ( 'NONE', *, *, #1035, .F. ) ;
#901 = CARTESIAN_POINT ( 'NONE',  ( 5.041540102057595618E-15, 0.000000000000000000, 0.000000000000000000 ) ) ;
#902 = DIRECTION ( 'NONE',  ( 1.000000000000000000, 0.000000000000000000, 0.000000000000000000 ) ) ;
#903 = ORIENTED_EDGE ( 'NONE', *, *, #208, .T. ) ;
#904 = DIRECTION ( 'NONE',  ( -1.000000000000000000, -0.000000000000000000, -0.000000000000000000 ) ) ;
#905 = CYLINDRICAL_SURFACE ( 'NONE', #891, 2.500000000000000000 ) ;
#906 = ORIENTED_EDGE ( 'NONE', *, *, #568, .F. ) ;
#907 = CARTESIAN_POINT ( 'NONE',  ( -0.3226798798221451881, 2.702990886204585497, 4.299999999999999822 ) ) ;
#908 = CONICAL_SURFACE ( 'NONE', #54, 4.049999999999999822, 0.7853981633974482790 ) ;
#909 = VECTOR ( 'NONE', #72, 1000.000000000000000 ) ;
#910 = DIRECTION ( 'NONE',  ( 0.000000000000000000, -0.000000000000000000, 1.000000000000000000 ) ) ;
#911 = CIRCLE ( 'NONE', #578, 9.000619061112825392 ) ;
#912 = ORIENTED_EDGE ( 'NONE', *, *, #395, .F. ) ;
#913 = CIRCLE ( 'NONE', #6, 11.39999999999998614 ) ;
#914 = CARTESIAN_POINT ( 'NONE',  ( 21.00000000000000000, 0.000000000000000000, 0.000000000000000000 ) ) ;
#915 = DIRECTION ( 'NONE',  ( 0.000000000000000000, 0.000000000000000000, -1.000000000000000000 ) ) ;
#916 = EDGE_CURVE ( 'NONE', #817, #240, #23, .T. ) ;
#917 = CARTESIAN_POINT ( 'NONE',  ( -1.635161925425355514E-14, 0.000000000000000000, 0.000000000000000000 ) ) ;
#918 = ORIENTED_EDGE ( 'NONE', *, *, #452, .F. ) ;
#919 = CARTESIAN_POINT ( 'NONE',  ( 5.204170427930421283E-15, -2.606242505984429414, 3.100000000000000089 ) ) ;
#920 = CARTESIAN_POINT ( 'NONE',  ( -0.3999999999999995226, 2.999999999999998224, 4.299999999999999822 ) ) ;
#921 = PRODUCT_DEFINITION_FORMATION_WITH_SPECIFIED_SOURCE ( 'ANY', '', #1006, .NOT_KNOWN. ) ;
#922 = ADVANCED_FACE ( 'NONE', ( #661, #877 ), #979, .F. ) ;
#923 = ORIENTED_EDGE ( 'NONE', *, *, #267, .F. ) ;
#924 = PLANE ( 'NONE',  #786 ) ;
#925 = CARTESIAN_POINT ( 'NONE',  ( 21.00000000000000000, 0.000000000000000000, 0.000000000000000000 ) ) ;
#926 = CYLINDRICAL_SURFACE ( 'NONE', #634, 11.39999999999998614 ) ;
#927 = DIRECTION ( 'NONE',  ( 0.000000000000000000, 0.000000000000000000, 1.000000000000000000 ) ) ;
#928 = VERTEX_POINT ( 'NONE', #662 ) ;
#929 = AXIS2_PLACEMENT_3D ( 'NONE', #473, #250, #392 ) ;
#930 = EDGE_CURVE ( 'NONE', #199, #449, #709, .T. ) ;
#931 = AXIS2_PLACEMENT_3D ( 'NONE', #631, #792, #950 ) ;
#932 = LINE ( 'NONE', #697, #321 ) ;
#933 = CARTESIAN_POINT ( 'NONE',  ( -5.698348799390243968, 2.606242505984429414, 3.100000000000000089 ) ) ;
#934 = AXIS2_PLACEMENT_3D ( 'NONE', #302, #475, #225 ) ;
#935 = CARTESIAN_POINT ( 'NONE',  ( 3.499999999999999556, 1.477738927902551059E-16, 3.100000000000000533 ) ) ;
#936 = CARTESIAN_POINT ( 'NONE',  ( -0.3999999999999994671, -2.748181216732456189, 3.500000000000004441 ) ) ;
#937 = B_SPLINE_CURVE_WITH_KNOTS ( 'NONE', 3,
 ( #131, #598, #50, #941 ),
 .UNSPECIFIED., .F., .F.,
 ( 4, 4 ),
 ( 0.000000000000000000, 0.0005832208823496402546 ),
 .UNSPECIFIED. ) ;
#938 = DIRECTION ( 'NONE',  ( 0.000000000000000000, 0.000000000000000000, 1.000000000000000000 ) ) ;
#939 = ORIENTED_EDGE ( 'NONE', *, *, #94, .F. ) ;
#940 = CARTESIAN_POINT ( 'NONE',  ( 19.00000000000000000, 0.000000000000000000, 0.000000000000000000 ) ) ;
#941 = CARTESIAN_POINT ( 'NONE',  ( -0.3999999999999994671, 2.748181216732456189, 3.500000000000004441 ) ) ;
#942 = CARTESIAN_POINT ( 'NONE',  ( -1.983707139815061427E-14, 0.000000000000000000, 0.000000000000000000 ) ) ;
#943 = CARTESIAN_POINT ( 'NONE',  ( 5.017987540636180910, -0.5164373628633268654, 9.083003669163273841 ) ) ;
#944 = DIRECTION ( 'NONE',  ( 0.000000000000000000, 0.000000000000000000, 1.000000000000000000 ) ) ;
#945 = ORIENTED_EDGE ( 'NONE', *, *, #86, .F. ) ;
#946 = CARTESIAN_POINT ( 'NONE',  ( 3.399281045387361200, -1.600246671633889228, 8.901844419281070842 ) ) ;
#947 = CARTESIAN_POINT ( 'NONE',  ( 4.705100044808684601, 1.057605076988238135, 9.023937578032823481 ) ) ;
#948 = CIRCLE ( 'NONE', #486, 2.500000000000000000 ) ;
#949 = AXIS2_PLACEMENT_3D ( 'NONE', #821, #750, #756 ) ;
#950 = DIRECTION ( 'NONE',  ( 0.000000000000000000, -1.224646799147352961E-16, 1.000000000000000000 ) ) ;
#951 = ORIENTED_EDGE ( 'NONE', *, *, #746, .F. ) ;
#952 = VECTOR ( 'NONE', #428, 1000.000000000000000 ) ;
#953 = PRODUCT_DEFINITION ( 'UNKNOWN', '', #921, #177 ) ;
#954 = CARTESIAN_POINT ( 'NONE',  ( 21.00000000000000000, 3.551475717527332707E-16, 2.900000000000006573 ) ) ;
#955 = DIRECTION ( 'NONE',  ( 0.000000000000000000, -2.168404344971009115E-16, 1.000000000000000000 ) ) ;
#956 = FACE_BOUND ( 'NONE', #222, .T. ) ;
#957 = LINE ( 'NONE', #10, #909 ) ;
#958 = CARTESIAN_POINT ( 'NONE',  ( 1.899999999999998801, -6.777072482317503580E-22, 9.013925147326483867 ) ) ;
#959 = DIRECTION ( 'NONE',  ( -0.000000000000000000, 1.445602896647339656E-16, 1.000000000000000000 ) ) ;
#960 = CARTESIAN_POINT ( 'NONE',  ( 2.793224484854719414, -1.439268775758388408, 8.914714047638520711 ) ) ;
#961 = EDGE_CURVE ( 'NONE', #577, #1016, #494, .T. ) ;
#962 = AXIS2_PLACEMENT_3D ( 'NONE', #269, #297, #827 ) ;
#963 = DIRECTION ( 'NONE',  ( 1.000000000000000000, -0.000000000000000000, -0.000000000000000000 ) ) ;
#964 = EDGE_LOOP ( 'NONE', ( #912, #819, #620, #264 ) ) ;
#965 = AXIS2_PLACEMENT_3D ( 'NONE', #329, #959, #660 ) ;
#966 = CARTESIAN_POINT ( 'NONE',  ( 7.000000000000000000, 2.999999999999998668, 6.299999999999999822 ) ) ;
#967 = AXIS2_PLACEMENT_3D ( 'NONE', #940, #450, #434 ) ;
#968 = CYLINDRICAL_SURFACE ( 'NONE', #291, 1.600000000000000977 ) ;
#969 = VERTEX_POINT ( 'NONE', #238 ) ;
#970 = LINE ( 'NONE', #328, #635 ) ;
#971 = ORIENTED_EDGE ( 'NONE', *, *, #251, .T. ) ;
#972 = ADVANCED_FACE ( 'NONE', ( #561 ), #444, .F. ) ;
#973 = DIRECTION ( 'NONE',  ( 0.000000000000000000, 0.000000000000000000, 1.000000000000000000 ) ) ;
#974 = ORIENTED_EDGE ( 'NONE', *, *, #836, .F. ) ;
#975 = DIRECTION ( 'NONE',  ( 0.000000000000000000, -1.000000000000000000, 2.168404344971009115E-16 ) ) ;
#976 = ORIENTED_EDGE ( 'NONE', *, *, #327, .T. ) ;
#977 = ADVANCED_FACE ( 'NONE', ( #364 ), #112, .F. ) ;
#978 = LINE ( 'NONE', #93, #185 ) ;
#979 = PLANE ( 'NONE',  #876 ) ;
#980 = CARTESIAN_POINT ( 'NONE',  ( 21.00000000000000000, 0.000000000000000000, 0.000000000000000000 ) ) ;
#981 = ORIENTED_EDGE ( 'NONE', *, *, #930, .T. ) ;
#982 = DIRECTION ( 'NONE',  ( 0.7071067811865500152, 0.000000000000000000, -0.7071067811865450192 ) ) ;
#983 = EDGE_LOOP ( 'NONE', ( #951, #243, #632, #410, #285 ) ) ;
#984 = DIRECTION ( 'NONE',  ( -1.000000000000000000, -0.000000000000000000, -0.000000000000000000 ) ) ;
#985 = B_SPLINE_CURVE_WITH_KNOTS ( 'NONE', 3,
 ( #292, #145, #711, #628, #854, #1030, #1015, #465, #947, #1024, #299, #139, #791, #625, #59, #64, #383, #619, #311, #789, #214, #230, #540, #305, #137, #784, #552, #958 ),
 .UNSPECIFIED., .F., .F.,
 ( 4, 2, 2, 2, 2, 2, 2, 2, 2, 2, 2, 2, 2, 4 ),
 ( 0.003758500270282319217, 0.004071932598253725534, 0.004385364926225132284, 0.004698797254196538167, 0.005012229582167944918, 0.005639094238110759286, 0.006265958894053572786, 0.006579391222024980404, 0.006892823549996387154, 0.007519688205939199788, 0.007833120533910605671, 0.008146552861882011554, 0.008459985189853417437, 0.008773417517824821585 ),
 .UNSPECIFIED. ) ;
#986 = VECTOR ( 'NONE', #163, 1000.000000000000000 ) ;
#987 = DIRECTION ( 'NONE',  ( 0.000000000000000000, 0.000000000000000000, 1.000000000000000000 ) ) ;
#988 = ORIENTED_EDGE ( 'NONE', *, *, #684, .F. ) ;
#989 = DIRECTION ( 'NONE',  ( -1.000000000000000000, -0.000000000000000000, -0.000000000000000000 ) ) ;
#990 = VERTEX_POINT ( 'NONE', #997 ) ;
#991 = EDGE_CURVE ( 'NONE', #449, #199, #600, .T. ) ;
#992 = CARTESIAN_POINT ( 'NONE',  ( 1.899999999999998801, 1.477738927902551059E-16, 11.40099999999998737 ) ) ;
#993 = CARTESIAN_POINT ( 'NONE',  ( -1.983707139815061427E-14, 0.000000000000000000, -8.600000000000108002 ) ) ;
#994 = ORIENTED_EDGE ( 'NONE', *, *, #334, .F. ) ;
#995 = DIRECTION ( 'NONE',  ( -1.000000000000000000, 0.000000000000000000, 0.000000000000000000 ) ) ;
#996 = FACE_OUTER_BOUND ( 'NONE', #861, .T. ) ;
#997 = CARTESIAN_POINT ( 'NONE',  ( 0.4006190611126919654, 0.000000000000000000, 9.000619061112825392 ) ) ;
#998 = DIRECTION ( 'NONE',  ( 1.000000000000000000, -0.000000000000000000, -0.000000000000000000 ) ) ;
#999 = CIRCLE ( 'NONE', #356, 1.600000000000000977 ) ;
#1000 = FACE_OUTER_BOUND ( 'NONE', #118, .T. ) ;
#1001 = AXIS2_PLACEMENT_3D ( 'NONE', #273, #597, #53 ) ;
#1002 = VECTOR ( 'NONE', #963, 1000.000000000000000 ) ;
#1003 = PRESENTATION_STYLE_ASSIGNMENT (( #691 ) ) ;
#1004 = CARTESIAN_POINT ( 'NONE',  ( 7.000000000000000000, -3.000000000000000888, 4.300000000000000711 ) ) ;
#1005 = EDGE_CURVE ( 'NONE', #2, #990, #200, .T. ) ;
#1006 = PRODUCT ( 'Idler Roller', 'Idler Roller', '', ( #705 ) ) ;
#1007 = DIRECTION ( 'NONE',  ( 0.000000000000000000, 0.000000000000000000, 1.000000000000000000 ) ) ;
#1008 = DIRECTION ( 'NONE',  ( 0.000000000000000000, 0.000000000000000000, 1.000000000000000000 ) ) ;
#1009 = EDGE_CURVE ( 'NONE', #245, #817, #775, .T. ) ;
#1010 = FACE_OUTER_BOUND ( 'NONE', #964, .T. ) ;
#1011 = CARTESIAN_POINT ( 'NONE',  ( -0.3999999999999995226, 2.999999999999998668, 6.299999999999999822 ) ) ;
#1012 = VERTEX_POINT ( 'NONE', #48 ) ;
#1013 = CARTESIAN_POINT ( 'NONE',  ( 7.000000000000000000, 2.999999999999998668, 6.299999999999999822 ) ) ;
#1014 = CARTESIAN_POINT ( 'NONE',  ( 1.899999999999998801, 1.477738927902551059E-16, 3.100000000000000533 ) ) ;
#1015 = CARTESIAN_POINT ( 'NONE',  ( 4.888427170688108170, 0.8019891447828600972, 9.057176995918940321 ) ) ;
#1016 = VERTEX_POINT ( 'NONE', #521 ) ;
#1017 = VECTOR ( 'NONE', #823, 1000.000000000000000 ) ;
#1018 = VECTOR ( 'NONE', #640, 1000.000000000000000 ) ;
#1019 = APPLICATION_PROTOCOL_DEFINITION ( 'draft international standard', 'automotive_design', 1998, #67 ) ;
#1020 = CARTESIAN_POINT ( 'NONE',  ( -1.994931997373328159E-14, 2.999999999999998668, 6.299999999999999822 ) ) ;
#1021 = AXIS2_PLACEMENT_3D ( 'NONE', #30, #608, #516 ) ;
#1022 = CARTESIAN_POINT ( 'NONE',  ( -0.3999999999999994671, 5.000000000000000000, 0.000000000000000000 ) ) ;
#1023 = CARTESIAN_POINT ( 'NONE',  ( 1.899999999999998579, 1.477738927902551059E-16, 4.299999999999999822 ) ) ;
#1024 = CARTESIAN_POINT ( 'NONE',  ( 4.484755685187832519, 1.278058961068309962, 8.988328997596081393 ) ) ;
#1025 = CARTESIAN_POINT ( 'NONE',  ( -0.1331158929967432292, -2.654764505781660677, 3.233115892996748286 ) ) ;
#1026 = PLANE ( 'NONE',  #847 ) ;
#1027 = ORIENTED_EDGE ( 'NONE', *, *, #172, .T. ) ;
#1028 = DIRECTION ( 'NONE',  ( -1.000000000000000000, -0.000000000000000000, -0.000000000000000000 ) ) ;
#1029 = CARTESIAN_POINT ( 'NONE',  ( 3.087344296219615813, -1.549418498539276490, 8.902931794007219679 ) ) ;
#1030 = CARTESIAN_POINT ( 'NONE',  ( 4.937547289648750670, 0.7102281743409781800, 9.066806593874936482 ) ) ;
#1031 = AXIS2_PLACEMENT_3D ( 'NONE', #942, #217, #537 ) ;
#1032 = ORIENTED_EDGE ( 'NONE', *, *, #538, .T. ) ;
#1033 = COLOUR_RGB ( '',0.7921568627450980005, 0.8196078431372548767, 0.9333333333333333481 ) ;
#1034 = AXIS2_PLACEMENT_3D ( 'NONE', #800, #387, #938 ) ;
#1035 = EDGE_CURVE ( 'NONE', #463, #826, #913, .T. ) ;
#1036 = DIRECTION ( 'NONE',  ( -1.000000000000000000, 0.000000000000000000, 0.000000000000000000 ) ) ;
#1037 = CARTESIAN_POINT ( 'NONE',  ( -0.3999999999999995226, -3.000000000000001332, 6.300000000000000711 ) ) ;
#1038 = VERTEX_POINT ( 'NONE', #524 ) ;
#1039 = ORIENTED_EDGE ( 'NONE', *, *, #1009, .T. ) ;
#1040 = EDGE_CURVE ( 'NONE', #663, #796, #266, .T. ) ;
#1041 = CARTESIAN_POINT ( 'NONE',  ( 2.445021458623355848, -1.207549898171477842, 8.942185661318568179 ) ) ;
#1042 = VERTEX_POINT ( 'NONE', #832 ) ;
#1043 = LINE ( 'NONE', #549, #1018 ) ;
#1044 = ORIENTED_EDGE ( 'NONE', *, *, #366, .T. ) ;
ENDSEC;
END-ISO-10303-21;
