ISO-10303-21;
HEADER;
FILE_DESCRIPTION (( 'STEP AP214' ),
    '1' );
FILE_NAME ('Idler Roller Hex Nut.STEP',
    '2026-09-05T22:42:17',
    ( '' ),
    ( '' ),
    '',
    '',
    '' );
FILE_SCHEMA (( 'AUTOMOTIVE_DESIGN' ));
ENDSEC;

DATA;
#1 = ORIENTED_EDGE ( 'NONE', *, *, #811, .F. ) ;
#2 = CARTESIAN_POINT ( 'NONE',  ( 21.00000000000000000, 0.000000000000000000, 0.000000000000000000 ) ) ;
#3 = CARTESIAN_POINT ( 'NONE',  ( 20.60000000000000142, 0.000000000000000000, 0.000000000000000000 ) ) ;
#4 = EDGE_CURVE ( 'NONE', #1005, #359, #1134, .T. ) ;
#5 = AXIS2_PLACEMENT_3D ( 'NONE', #172, #528, #886 ) ;
#6 = VERTEX_POINT ( 'NONE', #675 ) ;
#7 = DIRECTION ( 'NONE',  ( 1.000000000000000000, 0.000000000000000000, 0.000000000000000000 ) ) ;
#8 = MECHANICAL_DESIGN_GEOMETRIC_PRESENTATION_REPRESENTATION (  '', ( #1079 ), #231 ) ;
#9 = DIRECTION ( 'NONE',  ( 0.000000000000000000, 0.000000000000000000, 1.000000000000000000 ) ) ;
#10 = ORIENTED_EDGE ( 'NONE', *, *, #167, .F. ) ;
#11 = LINE ( 'NONE', #712, #1161 ) ;
#12 = EDGE_CURVE ( 'NONE', #6, #359, #847, .T. ) ;
#13 = VERTEX_POINT ( 'NONE', #955 ) ;
#14 = CARTESIAN_POINT ( 'NONE',  ( 3.499999999999999556, 1.477738927902551059E-16, 11.40099999999998737 ) ) ;
#15 = ORIENTED_EDGE ( 'NONE', *, *, #490, .F. ) ;
#16 = DIRECTION ( 'NONE',  ( 1.000000000000000000, 0.000000000000000000, 0.000000000000000000 ) ) ;
#17 = ADVANCED_FACE ( 'NONE', ( #153 ), #867, .F. ) ;
#18 = CARTESIAN_POINT ( 'NONE',  ( 1.899999999999998801, -6.777072482317503580E-22, 9.013925147326483867 ) ) ;
#19 = VECTOR ( 'NONE', #430, 1000.000000000000000 ) ;
#20 = ORIENTED_EDGE ( 'NONE', *, *, #62, .T. ) ;
#21 = DIRECTION ( 'NONE',  ( 1.000000000000000000, 0.000000000000000000, 0.000000000000000000 ) ) ;
#22 = CIRCLE ( 'NONE', #252, 8.600000000000108002 ) ;
#23 = ORIENTED_EDGE ( 'NONE', *, *, #1133, .T. ) ;
#24 = DIRECTION ( 'NONE',  ( 0.000000000000000000, -2.168404344971008868E-16, -1.000000000000000000 ) ) ;
#25 = AXIS2_PLACEMENT_3D ( 'NONE', #963, #519, #876 ) ;
#26 = PLANE ( 'NONE',  #488 ) ;
#27 = EDGE_CURVE ( 'NONE', #169, #1066, #275, .T. ) ;
#28 = AXIS2_PLACEMENT_3D ( 'NONE', #638, #197, #809 ) ;
#29 =( GEOMETRIC_REPRESENTATION_CONTEXT ( 3 ) GLOBAL_UNCERTAINTY_ASSIGNED_CONTEXT ( ( #237 ) ) GLOBAL_UNIT_ASSIGNED_CONTEXT ( ( #653, #657, #484 ) ) REPRESENTATION_CONTEXT ( 'NONE', 'WORKASPACE' ) );
#30 = ORIENTED_EDGE ( 'NONE', *, *, #668, .F. ) ;
#31 = FILL_AREA_STYLE_COLOUR ( '', #140 ) ;
#32 = VERTEX_POINT ( 'NONE', #364 ) ;
#33 = CARTESIAN_POINT ( 'NONE',  ( 21.00000000000000000, 0.000000000000000000, 0.000000000000000000 ) ) ;
#34 = ADVANCED_BREP_SHAPE_REPRESENTATION ( 'Idler Roller Hex Nut', ( #713, #1004 ), #299 ) ;
#35 = ORIENTED_EDGE ( 'NONE', *, *, #1041, .T. ) ;
#36 = ORIENTED_EDGE ( 'NONE', *, *, #459, .T. ) ;
#37 = CARTESIAN_POINT ( 'NONE',  ( 5.100000000000000533, 3.437173806538317522E-16, 6.800000000000000711 ) ) ;
#38 = DIRECTION ( 'NONE',  ( -1.000000000000000000, 0.000000000000000000, 0.000000000000000000 ) ) ;
#39 = DIRECTION ( 'NONE',  ( 0.7071067811865523467, 0.000000000000000000, 0.7071067811865427988 ) ) ;
#40 =( LENGTH_UNIT ( ) NAMED_UNIT ( * ) SI_UNIT ( .MILLI., .METRE. ) );
#41 = AXIS2_PLACEMENT_3D ( 'NONE', #1148, #1074, #707 ) ;
#42 = EDGE_CURVE ( 'NONE', #896, #873, #959, .T. ) ;
#43 = VECTOR ( 'NONE', #316, 1000.000000000000000 ) ;
#44 = VECTOR ( 'NONE', #406, 1000.000000000000000 ) ;
#45 = DIRECTION ( 'NONE',  ( 1.000000000000000000, 0.000000000000000000, 0.000000000000000000 ) ) ;
#46 = VERTEX_POINT ( 'NONE', #545 ) ;
#47 = EDGE_CURVE ( 'NONE', #556, #300, #437, .T. ) ;
#48 = CARTESIAN_POINT ( 'NONE',  ( -0.1857325677418044663, 2.949410969613035949, 4.299999999999999822 ) ) ;
#49 = FACE_OUTER_BOUND ( 'NONE', #508, .T. ) ;
#50 = ORIENTED_EDGE ( 'NONE', *, *, #744, .T. ) ;
#51 = DIRECTION ( 'NONE',  ( 1.000000000000000000, 0.000000000000000000, 0.000000000000000000 ) ) ;
#52 = DIRECTION ( 'NONE',  ( -1.000000000000000000, -0.000000000000000000, -0.000000000000000000 ) ) ;
#53 = EDGE_CURVE ( 'NONE', #120, #559, #609, .T. ) ;
#54 = DIRECTION ( 'NONE',  ( 0.000000000000000000, 2.168404344971009115E-16, 1.000000000000000000 ) ) ;
#55 = EDGE_CURVE ( 'NONE', #818, #396, #84, .T. ) ;
#56 = CARTESIAN_POINT ( 'NONE',  ( 20.00000000000000000, 0.000000000000000000, 0.000000000000000000 ) ) ;
#57 = EDGE_LOOP ( 'NONE', ( #1021, #465, #1123, #954 ) ) ;
#58 = ORIENTED_EDGE ( 'NONE', *, *, #659, .T. ) ;
#59 = CARTESIAN_POINT ( 'NONE',  ( -0.1569093084326576848, 2.999999999999998224, 4.299999999999999822 ) ) ;
#60 = DIRECTION ( 'NONE',  ( -0.000000000000000000, 1.000000000000000000, 2.168404344971009115E-16 ) ) ;
#61 = DIRECTION ( 'NONE',  ( 0.000000000000000000, -2.168404344971009115E-16, -1.000000000000000000 ) ) ;
#62 = EDGE_CURVE ( 'NONE', #896, #214, #755, .T. ) ;
#63 = AXIS2_PLACEMENT_3D ( 'NONE', #1104, #1024, #829 ) ;
#64 = DIRECTION ( 'NONE',  ( 0.000000000000000000, 0.000000000000000000, 1.000000000000000000 ) ) ;
#65 = ORIENTED_EDGE ( 'NONE', *, *, #579, .F. ) ;
#66 = EDGE_LOOP ( 'NONE', ( #404, #429 ) ) ;
#67 = CARTESIAN_POINT ( 'NONE',  ( -0.05251279360344502517, 2.999999999999998668, 4.426833009172352007 ) ) ;
#68 = CARTESIAN_POINT ( 'NONE',  ( 19.00000000000000000, 1.334865011070613864E-15, 10.39999999999999325 ) ) ;
#69 = PLANE ( 'NONE',  #601 ) ;
#70 = CARTESIAN_POINT ( 'NONE',  ( 5.017987540636180910, -0.5164373628633268654, 9.083003669163273841 ) ) ;
#71 = VERTEX_POINT ( 'NONE', #360 ) ;
#72 = CARTESIAN_POINT ( 'NONE',  ( 5.100000000000000533, 3.437173806538317029E-16, 11.40099999999998737 ) ) ;
#73 = DIRECTION ( 'NONE',  ( -1.000000000000000000, -0.000000000000000000, -0.000000000000000000 ) ) ;
#74 = DIRECTION ( 'NONE',  ( 1.000000000000000000, 0.000000000000000000, 0.000000000000000000 ) ) ;
#75 = CARTESIAN_POINT ( 'NONE',  ( 3.712973398997075236, -1.599492795511765042, 8.910597874832422605 ) ) ;
#76 = ORIENTED_EDGE ( 'NONE', *, *, #261, .T. ) ;
#77 = LINE ( 'NONE', #137, #1014 ) ;
#78 = VERTEX_POINT ( 'NONE', #789 ) ;
#79 = CARTESIAN_POINT ( 'NONE',  ( 2.220642336325699073, -0.9838037841736384514, 8.966372429642534669 ) ) ;
#80 = LINE ( 'NONE', #439, #219 ) ;
#81 = EDGE_CURVE ( 'NONE', #1066, #350, #1068, .T. ) ;
#82 = CARTESIAN_POINT ( 'NONE',  ( -0.3999999999999994671, 2.748181216732456189, 3.500000000000004441 ) ) ;
#83 = VERTEX_POINT ( 'NONE', #806 ) ;
#84 = LINE ( 'NONE', #344, #19 ) ;
#85 = AXIS2_PLACEMENT_3D ( 'NONE', #1083, #987, #284 ) ;
#86 = VERTEX_POINT ( 'NONE', #168 ) ;
#87 = SURFACE_SIDE_STYLE ('',( #711 ) ) ;
#88 = CARTESIAN_POINT ( 'NONE',  ( -0.3999999999999995226, -3.000000000000000888, 4.300000000000000711 ) ) ;
#89 = AXIS2_PLACEMENT_3D ( 'NONE', #56, #529, #64 ) ;
#90 = CARTESIAN_POINT ( 'NONE',  ( 20.60000000000000142, 0.000000000000000000, 0.000000000000000000 ) ) ;
#91 = CARTESIAN_POINT ( 'NONE',  ( 2.112531759927536612, 0.8036273486065194094, 8.981741757463574061 ) ) ;
#92 = VERTEX_POINT ( 'NONE', #627 ) ;
#93 = FILL_AREA_STYLE_COLOUR ( '', #1132 ) ;
#94 = CARTESIAN_POINT ( 'NONE',  ( 7.000000000000000000, -3.000000000000000888, 4.300000000000000711 ) ) ;
#95 = EDGE_CURVE ( 'NONE', #842, #83, #1121, .T. ) ;
#96 = EDGE_CURVE ( 'NONE', #319, #569, #77, .T. ) ;
#97 = EDGE_LOOP ( 'NONE', ( #674, #1023, #807, #898 ) ) ;
#98 = CARTESIAN_POINT ( 'NONE',  ( 20.00000000000000000, 1.396097351027981044E-15, 11.39999999999998614 ) ) ;
#99 = CARTESIAN_POINT ( 'NONE',  ( 20.59999999999999432, 0.000000000000000000, 0.000000000000000000 ) ) ;
#100 = VECTOR ( 'NONE', #786, 1000.000000000000114 ) ;
#101 = ORIENTED_EDGE ( 'NONE', *, *, #764, .F. ) ;
#102 = EDGE_CURVE ( 'NONE', #455, #1101, #408, .T. ) ;
#103 = CIRCLE ( 'NONE', #749, 129.6285714285714619 ) ;
#104 = ORIENTED_EDGE ( 'NONE', *, *, #1095, .T. ) ;
#105 = LINE ( 'NONE', #178, #1060 ) ;
#106 = AXIS2_PLACEMENT_3D ( 'NONE', #1118, #852, #950 ) ;
#107 = ORIENTED_EDGE ( 'NONE', *, *, #81, .F. ) ;
#108 = DIRECTION ( 'NONE',  ( -1.000000000000000000, -0.000000000000000000, -0.000000000000000000 ) ) ;
#109 = AXIS2_PLACEMENT_3D ( 'NONE', #186, #1167, #16 ) ;
#110 = EDGE_LOOP ( 'NONE', ( #101, #1 ) ) ;
#111 = CARTESIAN_POINT ( 'NONE',  ( -0.3999999999999905298, 0.000000000000000000, -5.000000000000000000 ) ) ;
#112 = EDGE_LOOP ( 'NONE', ( #550, #788 ) ) ;
#113 = DIRECTION ( 'NONE',  ( 0.000000000000000000, -1.000000000000000000, 0.000000000000000000 ) ) ;
#114 = ORIENTED_EDGE ( 'NONE', *, *, #1003, .T. ) ;
#115 = PLANE ( 'NONE',  #610 ) ;
#116 = VERTEX_POINT ( 'NONE', #925 ) ;
#117 = ADVANCED_FACE ( 'NONE', ( #848 ), #481, .F. ) ;
#118 = CARTESIAN_POINT ( 'NONE',  ( 20.00000000000000000, -2.606242505984429414, 3.100000000000000089 ) ) ;
#119 = B_SPLINE_CURVE_WITH_KNOTS ( 'NONE', 3,
 ( #510, #502, #496, #425, #67, #338, #683 ),
 .UNSPECIFIED., .F., .F.,
 ( 4, 3, 4 ),
 ( -0.0003113726482679901510, 0.000000000000000000, 0.0002464067766229638672 ),
 .UNSPECIFIED. ) ;
#120 = VERTEX_POINT ( 'NONE', #387 ) ;
#121 =( NAMED_UNIT ( * ) SI_UNIT ( $, .STERADIAN. ) SOLID_ANGLE_UNIT ( ) );
#122 = EDGE_LOOP ( 'NONE', ( #35, #365 ) ) ;
#123 = DIRECTION ( 'NONE',  ( 0.000000000000000000, 0.000000000000000000, -1.000000000000000000 ) ) ;
#124 = AXIS2_PLACEMENT_3D ( 'NONE', #33, #301, #312 ) ;
#125 = DIRECTION ( 'NONE',  ( 0.000000000000000000, -1.000000000000000000, 0.000000000000000000 ) ) ;
#126 = TOROIDAL_SURFACE ( 'NONE', #671, 138.6285714285714619, 129.6285714285714619 ) ;
#127 = ORIENTED_EDGE ( 'NONE', *, *, #617, .T. ) ;
#128 = ORIENTED_EDGE ( 'NONE', *, *, #586, .T. ) ;
#129 = LINE ( 'NONE', #386, #642 ) ;
#130 = DIRECTION ( 'NONE',  ( 0.000000000000000000, 0.000000000000000000, -1.000000000000000000 ) ) ;
#131 = ADVANCED_FACE ( 'NONE', ( #224 ), #306, .F. ) ;
#132 = ORIENTED_EDGE ( 'NONE', *, *, #102, .F. ) ;
#133 = PRESENTATION_STYLE_ASSIGNMENT (( #1102 ) ) ;
#134 = PLANE ( 'NONE',  #765 ) ;
#135 = EDGE_CURVE ( 'NONE', #136, #78, #665, .T. ) ;
#136 = VERTEX_POINT ( 'NONE', #737 ) ;
#137 = CARTESIAN_POINT ( 'NONE',  ( -0.3999999999999994671, 5.000000000000000000, 3.500000000000004441 ) ) ;
#138 = AXIS2_PLACEMENT_3D ( 'NONE', #241, #417, #677 ) ;
#139 = ORIENTED_EDGE ( 'NONE', *, *, #562, .T. ) ;
#140 = COLOUR_RGB ( '',0.7921568627450980005, 0.8196078431372548767, 0.9333333333333333481 ) ;
#141 = CARTESIAN_POINT ( 'NONE',  ( 0.4006190611126919654, 1.187945301733449031E-15, -9.000619061112825392 ) ) ;
#142 = ADVANCED_FACE ( 'NONE', ( #49 ), #941, .T. ) ;
#143 = DIRECTION ( 'NONE',  ( 1.000000000000000000, 0.000000000000000000, 0.000000000000000000 ) ) ;
#144 = DIRECTION ( 'NONE',  ( -1.000000000000000000, -0.000000000000000000, -0.000000000000000000 ) ) ;
#145 = ORIENTED_EDGE ( 'NONE', *, *, #102, .T. ) ;
#146 = ORIENTED_EDGE ( 'NONE', *, *, #149, .T. ) ;
#147 = CARTESIAN_POINT ( 'NONE',  ( -0.1713678246718554898, -2.974730896030872263, 4.300000000000000711 ) ) ;
#148 = DIRECTION ( 'NONE',  ( 0.000000000000000000, 0.000000000000000000, 1.000000000000000000 ) ) ;
#149 = EDGE_CURVE ( 'NONE', #13, #1061, #485, .T. ) ;
#150 = CARTESIAN_POINT ( 'NONE',  ( -1.983707139815061427E-14, 0.000000000000000000, 0.000000000000000000 ) ) ;
#151 = CARTESIAN_POINT ( 'NONE',  ( 4.937608769413877496, -0.7101230522889827590, 9.066818532721065083 ) ) ;
#152 = ORIENTED_EDGE ( 'NONE', *, *, #47, .F. ) ;
#153 = FACE_OUTER_BOUND ( 'NONE', #918, .T. ) ;
#154 = PLANE ( 'NONE',  #278 ) ;
#155 = DIRECTION ( 'NONE',  ( -1.000000000000000000, -0.000000000000000000, -0.000000000000000000 ) ) ;
#156 = DIRECTION ( 'NONE',  ( 0.000000000000000000, -0.000000000000000000, 1.000000000000000000 ) ) ;
#157 = CIRCLE ( 'NONE', #1076, 5.399999999999967493 ) ;
#158 = B_SPLINE_CURVE_WITH_KNOTS ( 'NONE', 3,
 ( #951, #964, #411, #163 ),
 .UNSPECIFIED., .F., .F.,
 ( 4, 4 ),
 ( 0.000000000000000000, 0.0005832208823496402546 ),
 .UNSPECIFIED. ) ;
#159 = CARTESIAN_POINT ( 'NONE',  ( 0.000000000000000000, 3.061616997868383141E-16, -2.500000000000000000 ) ) ;
#160 = EDGE_LOOP ( 'NONE', ( #30, #310, #390, #415, #919, #65, #798 ) ) ;
#161 = CARTESIAN_POINT ( 'NONE',  ( 2.694898067858302326, 1.398617928369161545, 8.919238156056470856 ) ) ;
#162 = FACE_OUTER_BOUND ( 'NONE', #1097, .T. ) ;
#163 = CARTESIAN_POINT ( 'NONE',  ( -0.3999999999999994671, 2.748181216732456189, 3.500000000000004441 ) ) ;
#164 = DIRECTION ( 'NONE',  ( 1.000000000000000000, 0.000000000000000000, 0.000000000000000000 ) ) ;
#165 = CARTESIAN_POINT ( 'NONE',  ( 3.292970781754917198, -1.590006703215750772, 8.900914803752234761 ) ) ;
#166 = EDGE_LOOP ( 'NONE', ( #723, #369, #385, #209 ) ) ;
#167 = EDGE_CURVE ( 'NONE', #120, #530, #576, .T. ) ;
#168 = CARTESIAN_POINT ( 'NONE',  ( 20.00000000000000000, 0.000000000000000000, 2.500000000000000000 ) ) ;
#169 = VERTEX_POINT ( 'NONE', #651 ) ;
#170 = CARTESIAN_POINT ( 'NONE',  ( -1.983707139815061427E-14, 9.000000000000007105, 0.000000000000000000 ) ) ;
#171 = DIRECTION ( 'NONE',  ( 0.000000000000000000, -1.000000000000000000, 1.445602896647339656E-16 ) ) ;
#172 = CARTESIAN_POINT ( 'NONE',  ( -1.635161925425355514E-14, 1.697710362703702566E-14, -138.6285714285714619 ) ) ;
#173 = CARTESIAN_POINT ( 'NONE',  ( 7.000000000000000000, -3.000000000000000888, 6.800000000000000711 ) ) ;
#174 = EDGE_LOOP ( 'NONE', ( #933, #58, #816, #841 ) ) ;
#175 = CARTESIAN_POINT ( 'NONE',  ( 1.951596719456512918, 0.4164953652791125172, 9.005652576227028305 ) ) ;
#176 = ORIENTED_EDGE ( 'NONE', *, *, #744, .F. ) ;
#177 = CARTESIAN_POINT ( 'NONE',  ( 1.899999999999998801, 1.477738927902551059E-16, 11.40099999999998737 ) ) ;
#178 = CARTESIAN_POINT ( 'NONE',  ( 13.50000000000000000, -3.000000000000000888, 6.800000000000000711 ) ) ;
#179 = FACE_OUTER_BOUND ( 'NONE', #916, .T. ) ;
#180 = AXIS2_PLACEMENT_3D ( 'NONE', #14, #199, #357 ) ;
#181 = CARTESIAN_POINT ( 'NONE',  ( 5.100000000000000533, 1.690134489436017793E-25, 9.100363957718803576 ) ) ;
#182 = AXIS2_PLACEMENT_3D ( 'NONE', #90, #447, #9 ) ;
#183 = ORIENTED_EDGE ( 'NONE', *, *, #440, .F. ) ;
#184 = SURFACE_STYLE_USAGE ( .BOTH. , #87 ) ;
#185 = ADVANCED_FACE ( 'NONE', ( #398 ), #134, .F. ) ;
#186 = CARTESIAN_POINT ( 'NONE',  ( 13.50000000000000000, 2.999999999999998224, 6.800000000000000711 ) ) ;
#187 = AXIS2_PLACEMENT_3D ( 'NONE', #613, #339, #971 ) ;
#188 = AXIS2_PLACEMENT_3D ( 'NONE', #333, #60, #418 ) ;
#189 = ADVANCED_FACE ( 'NONE', ( #487 ), #458, .T. ) ;
#190 = CARTESIAN_POINT ( 'NONE',  ( 7.000000000000000000, 2.999999999999998224, 6.800000000000000711 ) ) ;
#191 = CARTESIAN_POINT ( 'NONE',  ( 2.986795233271938965, 1.519111969237650239, 8.905835565104714746 ) ) ;
#192 = ORIENTED_EDGE ( 'NONE', *, *, #668, .T. ) ;
#193 = DIRECTION ( 'NONE',  ( 0.7071067811865500152, 8.659560562354902043E-17, 0.7071067811865450192 ) ) ;
#194 = DIRECTION ( 'NONE',  ( 0.000000000000000000, 0.000000000000000000, 1.000000000000000000 ) ) ;
#195 = EDGE_CURVE ( 'NONE', #1073, #454, #1116, .T. ) ;
#196 = EDGE_LOOP ( 'NONE', ( #881, #76 ) ) ;
#197 = DIRECTION ( 'NONE',  ( 1.000000000000000000, 0.000000000000000000, 0.000000000000000000 ) ) ;
#198 = APPLICATION_CONTEXT ( 'automotive_design' ) ;
#199 = DIRECTION ( 'NONE',  ( -0.000000000000000000, -0.000000000000000000, -1.000000000000000000 ) ) ;
#200 = CONICAL_SURFACE ( 'NONE', #307, 4.049999999999999822, 0.7853981633974482790 ) ;
#201 = AXIS2_PLACEMENT_3D ( 'NONE', #614, #973, #582 ) ;
#202 = CONICAL_SURFACE ( 'NONE', #138, 2.900000000000006573, 0.7853981633974467247 ) ;
#203 = ORIENTED_EDGE ( 'NONE', *, *, #467, .F. ) ;
#204 = CARTESIAN_POINT ( 'NONE',  ( -1.983707139815061427E-14, 0.000000000000000000, 0.000000000000000000 ) ) ;
#205 = VECTOR ( 'NONE', #262, 1000.000000000000000 ) ;
#206 = CARTESIAN_POINT ( 'NONE',  ( -0.2666992569576316918, -2.903508705321063310, 4.233300743042367920 ) ) ;
#207 = ORIENTED_EDGE ( 'NONE', *, *, #579, .T. ) ;
#208 = ADVANCED_FACE ( 'NONE', ( #474 ), #26, .T. ) ;
#209 = ORIENTED_EDGE ( 'NONE', *, *, #53, .F. ) ;
#210 = DIRECTION ( 'NONE',  ( 1.000000000000000000, 0.000000000000000000, 0.000000000000000000 ) ) ;
#211 = VERTEX_POINT ( 'NONE', #958 ) ;
#212 =( NAMED_UNIT ( * ) PLANE_ANGLE_UNIT ( ) SI_UNIT ( $, .RADIAN. ) );
#213 = CARTESIAN_POINT ( 'NONE',  ( 5.041540102057595618E-15, 0.000000000000000000, 0.000000000000000000 ) ) ;
#214 = VERTEX_POINT ( 'NONE', #513 ) ;
#215 = AXIS2_PLACEMENT_3D ( 'NONE', #578, #45, #130 ) ;
#216 = FACE_OUTER_BOUND ( 'NONE', #1026, .T. ) ;
#217 = VECTOR ( 'NONE', #669, 1000.000000000000000 ) ;
#218 = EDGE_CURVE ( 'NONE', #701, #13, #251, .T. ) ;
#219 = VECTOR ( 'NONE', #1043, 1000.000000000000000 ) ;
#220 = ORIENTED_EDGE ( 'NONE', *, *, #448, .F. ) ;
#221 = ORIENTED_EDGE ( 'NONE', *, *, #340, .T. ) ;
#222 = CARTESIAN_POINT ( 'NONE',  ( 0.1999999999999796940, -3.000000000000000888, 6.800000000000000711 ) ) ;
#223 = ADVANCED_FACE ( 'NONE', ( #952 ), #641, .T. ) ;
#224 = FACE_OUTER_BOUND ( 'NONE', #263, .T. ) ;
#225 = EDGE_CURVE ( 'NONE', #873, #1073, #1153, .T. ) ;
#226 = ORIENTED_EDGE ( 'NONE', *, *, #631, .F. ) ;
#227 = B_SPLINE_CURVE_WITH_KNOTS ( 'NONE', 3,
 ( #980, #206, #368, #810 ),
 .UNSPECIFIED., .F., .F.,
 ( 4, 4 ),
 ( 2.710505431213761085E-20, 0.0002896056204701866936 ),
 .UNSPECIFIED. ) ;
#228 = CARTESIAN_POINT ( 'NONE',  ( 0.1999999999999789724, 2.999999999999998224, 4.489988864128691581 ) ) ;
#229 = CONICAL_SURFACE ( 'NONE', #324, 11.39999999999998614, 0.7853981633974396193 ) ;
#230 = DIRECTION ( 'NONE',  ( -0.000000000000000000, 1.445602896647339656E-16, 1.000000000000000000 ) ) ;
#231 =( GEOMETRIC_REPRESENTATION_CONTEXT ( 3 ) GLOBAL_UNCERTAINTY_ASSIGNED_CONTEXT ( ( #380 ) ) GLOBAL_UNIT_ASSIGNED_CONTEXT ( ( #978, #899, #542 ) ) REPRESENTATION_CONTEXT ( 'NONE', 'WORKASPACE' ) );
#232 = VERTEX_POINT ( 'NONE', #965 ) ;
#233 = ADVANCED_FACE ( 'NONE', ( #863 ), #830, .T. ) ;
#234 = CARTESIAN_POINT ( 'NONE',  ( 20.00000000000000000, 0.000000000000000000, 0.000000000000000000 ) ) ;
#235 = CARTESIAN_POINT ( 'NONE',  ( -1.635161925425355514E-14, 0.000000000000000000, 0.000000000000000000 ) ) ;
#236 = CARTESIAN_POINT ( 'NONE',  ( 19.00000000000000000, 0.000000000000000000, 0.000000000000000000 ) ) ;
#237 = UNCERTAINTY_MEASURE_WITH_UNIT (LENGTH_MEASURE( 1.000000000000000082E-05 ), #653, 'distance_accuracy_value', 'NONE');
#238 = CARTESIAN_POINT ( 'NONE',  ( -0.2664649041145769615, -2.702020381224957468, 3.366464904114581991 ) ) ;
#239 = ORIENTED_EDGE ( 'NONE', *, *, #149, .F. ) ;
#240 = DIRECTION ( 'NONE',  ( -1.000000000000000000, -0.000000000000000000, -0.000000000000000000 ) ) ;
#241 = CARTESIAN_POINT ( 'NONE',  ( 21.00000000000000000, 0.000000000000000000, 0.000000000000000000 ) ) ;
#242 = DIRECTION ( 'NONE',  ( -1.000000000000000000, 0.000000000000000000, 0.000000000000000000 ) ) ;
#243 = B_SPLINE_CURVE_WITH_KNOTS ( 'NONE', 3,
 ( #59, #1143, #48, #410 ),
 .UNSPECIFIED., .F., .F.,
 ( 4, 4 ),
 ( 0.000000000000000000, 8.731628123213297488E-05 ),
 .UNSPECIFIED. ) ;
#244 = DIRECTION ( 'NONE',  ( -1.000000000000000000, -0.000000000000000000, -0.000000000000000000 ) ) ;
#245 = DIRECTION ( 'NONE',  ( 0.000000000000000000, 0.000000000000000000, 1.000000000000000000 ) ) ;
#246 = EDGE_LOOP ( 'NONE', ( #914, #532, #489, #291, #378, #1028 ) ) ;
#247 = ORIENTED_EDGE ( 'NONE', *, *, #1044, .T. ) ;
#248 = LINE ( 'NONE', #603, #1112 ) ;
#249 = DIRECTION ( 'NONE',  ( -1.000000000000000000, -0.000000000000000000, -0.000000000000000000 ) ) ;
#250 = AXIS2_PLACEMENT_3D ( 'NONE', #779, #74, #1045 ) ;
#251 = LINE ( 'NONE', #606, #666 ) ;
#252 = AXIS2_PLACEMENT_3D ( 'NONE', #282, #819, #288 ) ;
#253 = ADVANCED_FACE ( 'NONE', ( #419 ), #200, .F. ) ;
#254 = AXIS2_PLACEMENT_3D ( 'NONE', #854, #761, #51 ) ;
#255 = CARTESIAN_POINT ( 'NONE',  ( 0.1999999999999789446, -3.000000000000000888, 4.728636167014713010 ) ) ;
#256 = ORIENTED_EDGE ( 'NONE', *, *, #839, .F. ) ;
#257 = DIRECTION ( 'NONE',  ( 0.7071067811865486830, 8.659560562354920532E-17, 0.7071067811865464625 ) ) ;
#258 = DIRECTION ( 'NONE',  ( -0.7071067811865522357, 0.7071067811865429098, 1.533293416683364277E-16 ) ) ;
#259 = LINE ( 'NONE', #426, #716 ) ;
#260 = CARTESIAN_POINT ( 'NONE',  ( 3.499999999999999556, 1.477738927902551059E-16, 6.800000000000000711 ) ) ;
#261 = EDGE_CURVE ( 'NONE', #92, #116, #728, .T. ) ;
#262 = DIRECTION ( 'NONE',  ( 0.000000000000000000, -2.168404344971009115E-16, 1.000000000000000000 ) ) ;
#263 = EDGE_LOOP ( 'NONE', ( #1155, #831, #479, #1063 ) ) ;
#264 = DIRECTION ( 'NONE',  ( 0.000000000000000000, 1.000000000000000000, 0.000000000000000000 ) ) ;
#265 = DIRECTION ( 'NONE',  ( 0.000000000000000000, 0.000000000000000000, -1.000000000000000000 ) ) ;
#266 = DIRECTION ( 'NONE',  ( 0.000000000000000000, 0.000000000000000000, -1.000000000000000000 ) ) ;
#267 = EDGE_CURVE ( 'NONE', #569, #319, #1075, .T. ) ;
#268 = ORIENTED_EDGE ( 'NONE', *, *, #363, .T. ) ;
#269 = DIRECTION ( 'NONE',  ( 1.000000000000000000, -0.000000000000000000, -0.000000000000000000 ) ) ;
#270 = ADVANCED_FACE ( 'NONE', ( #684, #672 ), #69, .F. ) ;
#271 = ORIENTED_EDGE ( 'NONE', *, *, #448, .T. ) ;
#272 = CARTESIAN_POINT ( 'NONE',  ( 1.942091585353840966, -0.4200826755059188233, 9.006801785501913571 ) ) ;
#273 = DIRECTION ( 'NONE',  ( 0.000000000000000000, 1.000000000000000000, 0.000000000000000000 ) ) ;
#274 = LINE ( 'NONE', #362, #1127 ) ;
#275 = CIRCLE ( 'NONE', #320, 2.500000000000000000 ) ;
#276 = AXIS2_PLACEMENT_3D ( 'NONE', #590, #412, #1126 ) ;
#277 = CARTESIAN_POINT ( 'NONE',  ( 1.910450615559462273, 0.2106035681595273545, 9.012205120381393542 ) ) ;
#278 = AXIS2_PLACEMENT_3D ( 'NONE', #170, #970, #663 ) ;
#279 = LINE ( 'NONE', #999, #420 ) ;
#280 = VECTOR ( 'NONE', #323, 1000.000000000000000 ) ;
#281 = EDGE_CURVE ( 'NONE', #1061, #573, #879, .T. ) ;
#282 = CARTESIAN_POINT ( 'NONE',  ( -1.983707139815061427E-14, 0.000000000000000000, 0.000000000000000000 ) ) ;
#283 = CARTESIAN_POINT ( 'NONE',  ( 20.00000000000000000, 0.000000000000000000, 0.000000000000000000 ) ) ;
#284 = DIRECTION ( 'NONE',  ( 0.000000000000000000, -1.000000000000000000, 1.445602896647339656E-16 ) ) ;
#285 = EDGE_LOOP ( 'NONE', ( #662, #837, #523, #608 ) ) ;
#286 = LINE ( 'NONE', #634, #1094 ) ;
#287 = ORIENTED_EDGE ( 'NONE', *, *, #856, .F. ) ;
#288 = DIRECTION ( 'NONE',  ( 0.000000000000000000, 0.000000000000000000, -1.000000000000000000 ) ) ;
#289 = AXIS2_PLACEMENT_3D ( 'NONE', #393, #571, #935 ) ;
#290 = ADVANCED_FACE ( 'NONE', ( #348, #773 ), #521, .F. ) ;
#291 = ORIENTED_EDGE ( 'NONE', *, *, #62, .F. ) ;
#292 = CIRCLE ( 'NONE', #309, 1.600000000000000977 ) ;
#293 = VECTOR ( 'NONE', #392, 1000.000000000000000 ) ;
#294 = ORIENTED_EDGE ( 'NONE', *, *, #358, .F. ) ;
#295 = DIRECTION ( 'NONE',  ( 0.000000000000000000, 0.000000000000000000, 1.000000000000000000 ) ) ;
#296 = EDGE_LOOP ( 'NONE', ( #442, #546, #1147, #1107, #835 ) ) ;
#297 = DIRECTION ( 'NONE',  ( -1.000000000000000000, -0.000000000000000000, -0.000000000000000000 ) ) ;
#298 = CARTESIAN_POINT ( 'NONE',  ( 4.772338572136716195, 0.9757413358609099419, 9.035755192546393033 ) ) ;
#299 =( GEOMETRIC_REPRESENTATION_CONTEXT ( 3 ) GLOBAL_UNCERTAINTY_ASSIGNED_CONTEXT ( ( #476 ) ) GLOBAL_UNIT_ASSIGNED_CONTEXT ( ( #40, #212, #121 ) ) REPRESENTATION_CONTEXT ( 'NONE', 'WORKASPACE' ) );
#300 = VERTEX_POINT ( 'NONE', #334 ) ;
#301 = DIRECTION ( 'NONE',  ( -1.000000000000000000, -0.000000000000000000, -0.000000000000000000 ) ) ;
#302 = CARTESIAN_POINT ( 'NONE',  ( 7.000000000000000000, 2.999999999999998224, 4.299999999999999822 ) ) ;
#303 = EDGE_CURVE ( 'NONE', #1061, #136, #763, .T. ) ;
#304 = ORIENTED_EDGE ( 'NONE', *, *, #659, .F. ) ;
#305 = EDGE_CURVE ( 'NONE', #300, #556, #1018, .T. ) ;
#306 = CYLINDRICAL_SURFACE ( 'NONE', #939, 1.600000000000000977 ) ;
#307 = AXIS2_PLACEMENT_3D ( 'NONE', #1145, #857, #1030 ) ;
#308 = ORIENTED_EDGE ( 'NONE', *, *, #731, .F. ) ;
#309 = AXIS2_PLACEMENT_3D ( 'NONE', #664, #230, #113 ) ;
#310 = ORIENTED_EDGE ( 'NONE', *, *, #1142, .T. ) ;
#311 = EDGE_CURVE ( 'NONE', #652, #350, #1000, .T. ) ;
#312 = DIRECTION ( 'NONE',  ( 0.000000000000000000, 0.000000000000000000, 1.000000000000000000 ) ) ;
#313 = CONICAL_SURFACE ( 'NONE', #63, 2.900000000000006573, 0.7853981633974467247 ) ;
#314 = ORIENTED_EDGE ( 'NONE', *, *, #440, .T. ) ;
#315 = CARTESIAN_POINT ( 'NONE',  ( 0.000000000000000000, 0.000000000000000000, 11.39999999999998614 ) ) ;
#316 = DIRECTION ( 'NONE',  ( 0.000000000000000000, -1.000000000000000000, 0.000000000000000000 ) ) ;
#317 = EDGE_CURVE ( 'NONE', #599, #1073, #1109, .T. ) ;
#318 = LINE ( 'NONE', #880, #205 ) ;
#319 = VERTEX_POINT ( 'NONE', #82 ) ;
#320 = AXIS2_PLACEMENT_3D ( 'NONE', #750, #269, #622 ) ;
#321 = AXIS2_PLACEMENT_3D ( 'NONE', #433, #143, #1059 ) ;
#322 = CARTESIAN_POINT ( 'NONE',  ( -1.983707139815061427E-14, 3.200000000000000622, 4.349712634186268190 ) ) ;
#323 = DIRECTION ( 'NONE',  ( 0.7071067811865486830, 0.000000000000000000, -0.7071067811865464625 ) ) ;
#324 = AXIS2_PLACEMENT_3D ( 'NONE', #3, #553, #1087 ) ;
#325 = B_SPLINE_CURVE_WITH_KNOTS ( 'NONE', 3,
 ( #787, #238, #615, #413 ),
 .UNSPECIFIED., .F., .F.,
 ( 4, 4 ),
 ( 0.000000000000000000, 0.0005832208823496410136 ),
 .UNSPECIFIED. ) ;
#326 = CARTESIAN_POINT ( 'NONE',  ( -1.983707139815061427E-14, -3.200000000000002398, 4.489988864128689805 ) ) ;
#327 = CIRCLE ( 'NONE', #25, 1.600000000000000977 ) ;
#328 = AXIS2_PLACEMENT_3D ( 'NONE', #699, #1050, #265 ) ;
#329 = CARTESIAN_POINT ( 'NONE',  ( 4.888516672965275589, -0.8017934647330148268, 9.057195452308928196 ) ) ;
#330 = ORIENTED_EDGE ( 'NONE', *, *, #303, .F. ) ;
#331 = DIRECTION ( 'NONE',  ( -0.7071067811865536790, 0.000000000000000000, 0.7071067811865414665 ) ) ;
#332 = CARTESIAN_POINT ( 'NONE',  ( -0.1569093084326559362, -3.000000000000000888, 4.300000000000000711 ) ) ;
#333 = CARTESIAN_POINT ( 'NONE',  ( -0.3999999999999995226, -3.000000000000001332, 6.300000000000000711 ) ) ;
#334 = CARTESIAN_POINT ( 'NONE',  ( 1.899999999999998801, 1.477738927902551059E-16, 6.800000000000000711 ) ) ;
#335 = CARTESIAN_POINT ( 'NONE',  ( 4.307615193820026001, -1.396802978499437353, 8.963642150233477324 ) ) ;
#336 = ORIENTED_EDGE ( 'NONE', *, *, #1016, .F. ) ;
#337 = ORIENTED_EDGE ( 'NONE', *, *, #785, .T. ) ;
#338 = CARTESIAN_POINT ( 'NONE',  ( -0.1048239850495917419, 2.999999999999998224, 4.363508854464424935 ) ) ;
#339 = DIRECTION ( 'NONE',  ( 1.000000000000000000, 0.000000000000000000, 0.000000000000000000 ) ) ;
#340 = EDGE_CURVE ( 'NONE', #78, #701, #157, .T. ) ;
#341 = DIRECTION ( 'NONE',  ( 1.000000000000000000, 0.000000000000000000, 0.000000000000000000 ) ) ;
#342 = CARTESIAN_POINT ( 'NONE',  ( 0.1315859488339441163, 3.068414051166034273, 4.604211106754805272 ) ) ;
#343 = ORIENTED_EDGE ( 'NONE', *, *, #1044, .F. ) ;
#344 = CARTESIAN_POINT ( 'NONE',  ( 7.000000000000000000, 2.999999999999998224, 6.800000000000000711 ) ) ;
#345 = ORIENTED_EDGE ( 'NONE', *, *, #423, .F. ) ;
#346 = DIRECTION ( 'NONE',  ( 0.000000000000000000, 0.000000000000000000, 1.000000000000000000 ) ) ;
#347 = EDGE_CURVE ( 'NONE', #422, #983, #292, .T. ) ;
#348 = FACE_BOUND ( 'NONE', #112, .T. ) ;
#349 = CARTESIAN_POINT ( 'NONE',  ( 0.06635781236438993702, -3.000000000000000888, 4.569795785172656721 ) ) ;
#350 = VERTEX_POINT ( 'NONE', #1080 ) ;
#351 = CIRCLE ( 'NONE', #1020, 5.000000000000000000 ) ;
#352 = AXIS2_PLACEMENT_3D ( 'NONE', #817, #1071, #1082 ) ;
#353 = VERTEX_POINT ( 'NONE', #469 ) ;
#354 = STYLED_ITEM ( 'NONE', ( #133 ), #34 ) ;
#355 = CARTESIAN_POINT ( 'NONE',  ( 2.699469826157788965, -1.389252782407326858, 8.920741238060690748 ) ) ;
#356 = FACE_OUTER_BOUND ( 'NONE', #859, .T. ) ;
#357 = DIRECTION ( 'NONE',  ( -1.000000000000000000, 0.000000000000000000, 0.000000000000000000 ) ) ;
#358 = EDGE_CURVE ( 'NONE', #46, #71, #227, .T. ) ;
#359 = VERTEX_POINT ( 'NONE', #464 ) ;
#360 = CARTESIAN_POINT ( 'NONE',  ( -0.3999999999999995226, -2.861817604250834979, 4.100000000000001421 ) ) ;
#361 = DIRECTION ( 'NONE',  ( 0.7071067811865505703, 0.000000000000000000, -0.7071067811865444641 ) ) ;
#362 = CARTESIAN_POINT ( 'NONE',  ( 5.100000000000000533, 3.437173806538317029E-16, 11.40099999999998737 ) ) ;
#363 = EDGE_CURVE ( 'NONE', #687, #1039, #22, .T. ) ;
#364 = CARTESIAN_POINT ( 'NONE',  ( 20.00000000000000000, 0.000000000000000000, 11.39999999999998614 ) ) ;
#365 = ORIENTED_EDGE ( 'NONE', *, *, #1027, .T. ) ;
#366 = CARTESIAN_POINT ( 'NONE',  ( -1.983707139815061427E-14, 0.000000000000000000, -8.600000000000108002 ) ) ;
#367 = DIRECTION ( 'NONE',  ( -0.000000000000000000, 0.000000000000000000, 1.000000000000000000 ) ) ;
#368 = CARTESIAN_POINT ( 'NONE',  ( -0.3333669421447582049, -2.882772731503037367, 4.166633057855242406 ) ) ;
#369 = ORIENTED_EDGE ( 'NONE', *, *, #96, .F. ) ;
#370 = DIRECTION ( 'NONE',  ( 1.000000000000000000, 0.000000000000000000, 0.000000000000000000 ) ) ;
#371 = DIRECTION ( 'NONE',  ( 1.000000000000000000, -0.000000000000000000, -0.000000000000000000 ) ) ;
#372 = ORIENTED_EDGE ( 'NONE', *, *, #839, .T. ) ;
#373 = PLANE ( 'NONE',  #109 ) ;
#374 = ORIENTED_EDGE ( 'NONE', *, *, #12, .T. ) ;
#375 = ADVANCED_FACE ( 'NONE', ( #632 ), #602, .F. ) ;
#376 = CARTESIAN_POINT ( 'NONE',  ( -1.635161925425355514E-14, 0.000000000000000000, 138.6285714285714619 ) ) ;
#377 = ORIENTED_EDGE ( 'NONE', *, *, #617, .F. ) ;
#378 = ORIENTED_EDGE ( 'NONE', *, *, #42, .T. ) ;
#379 = LINE ( 'NONE', #111, #583 ) ;
#380 = UNCERTAINTY_MEASURE_WITH_UNIT (LENGTH_MEASURE( 1.000000000000000082E-05 ), #978, 'distance_accuracy_value', 'NONE');
#381 = CIRCLE ( 'NONE', #1129, 2.500000000000000000 ) ;
#382 = ORIENTED_EDGE ( 'NONE', *, *, #661, .T. ) ;
#383 = APPLICATION_PROTOCOL_DEFINITION ( 'draft international standard', 'automotive_design', 1998, #758 ) ;
#384 = AXIS2_PLACEMENT_3D ( 'NONE', #234, #587, #757 ) ;
#385 = ORIENTED_EDGE ( 'NONE', *, *, #930, .F. ) ;
#386 = CARTESIAN_POINT ( 'NONE',  ( 13.50000000000000000, 2.999999999999998224, 6.800000000000000711 ) ) ;
#387 = CARTESIAN_POINT ( 'NONE',  ( 5.204170427930421283E-15, -2.606242505984429414, 3.100000000000000089 ) ) ;
#388 = ADVANCED_FACE ( 'NONE', ( #705 ), #640, .F. ) ;
#389 = ADVANCED_FACE ( 'NONE', ( #548 ), #229, .T. ) ;
#390 = ORIENTED_EDGE ( 'NONE', *, *, #135, .F. ) ;
#391 = EDGE_LOOP ( 'NONE', ( #962, #698, #337, #15 ) ) ;
#392 = DIRECTION ( 'NONE',  ( 0.000000000000000000, 1.000000000000000000, -1.445602896647339656E-16 ) ) ;
#393 = CARTESIAN_POINT ( 'NONE',  ( 0.000000000000000000, 0.000000000000000000, 0.000000000000000000 ) ) ;
#394 = ADVANCED_FACE ( 'NONE', ( #179 ), #824, .T. ) ;
#395 = ORIENTED_EDGE ( 'NONE', *, *, #567, .F. ) ;
#396 = VERTEX_POINT ( 'NONE', #190 ) ;
#397 = CARTESIAN_POINT ( 'NONE',  ( 0.4006190611126919654, 0.000000000000000000, 0.000000000000000000 ) ) ;
#398 = FACE_OUTER_BOUND ( 'NONE', #166, .T. ) ;
#399 = DIRECTION ( 'NONE',  ( 0.000000000000000000, 1.000000000000000000, -0.000000000000000000 ) ) ;
#400 = CIRCLE ( 'NONE', #1110, 11.39999999999998614 ) ;
#401 = DIRECTION ( 'NONE',  ( -0.000000000000000000, 2.168404344971009115E-16, 1.000000000000000000 ) ) ;
#402 = DIRECTION ( 'NONE',  ( 1.000000000000000000, 0.000000000000000000, 0.000000000000000000 ) ) ;
#403 = CARTESIAN_POINT ( 'NONE',  ( -1.983707139815061427E-14, 0.000000000000000000, 0.000000000000000000 ) ) ;
#404 = ORIENTED_EDGE ( 'NONE', *, *, #311, .T. ) ;
#405 = CARTESIAN_POINT ( 'NONE',  ( 0.1999999999999789446, -3.000000000000000888, 4.728636167014713010 ) ) ;
#406 = DIRECTION ( 'NONE',  ( -1.000000000000000000, -0.000000000000000000, -0.000000000000000000 ) ) ;
#407 = EDGE_CURVE ( 'NONE', #896, #556, #274, .T. ) ;
#408 = LINE ( 'NONE', #302, #981 ) ;
#409 = CARTESIAN_POINT ( 'NONE',  ( 4.485010730491251429, -1.277900621674394221, 8.988363868038142357 ) ) ;
#410 = CARTESIAN_POINT ( 'NONE',  ( -0.1999999999999962086, 2.924038303442676234, 4.299999999999999822 ) ) ;
#411 = CARTESIAN_POINT ( 'NONE',  ( -0.2664649041146986974, 2.702020381224713219, 3.366464904114549128 ) ) ;
#412 = DIRECTION ( 'NONE',  ( 1.000000000000000000, 0.000000000000000000, 0.000000000000000000 ) ) ;
#413 = CARTESIAN_POINT ( 'NONE',  ( 5.204170427930421283E-15, -2.606242505984429414, 3.100000000000000089 ) ) ;
#414 = ORIENTED_EDGE ( 'NONE', *, *, #42, .F. ) ;
#415 = ORIENTED_EDGE ( 'NONE', *, *, #805, .T. ) ;
#416 = AXIS2_PLACEMENT_3D ( 'NONE', #1019, #1025, #833 ) ;
#417 = DIRECTION ( 'NONE',  ( 1.000000000000000000, -0.000000000000000000, -0.000000000000000000 ) ) ;
#418 = DIRECTION ( 'NONE',  ( 0.000000000000000000, -2.168404344971009115E-16, 1.000000000000000000 ) ) ;
#419 = FACE_OUTER_BOUND ( 'NONE', #391, .T. ) ;
#420 = VECTOR ( 'NONE', #547, 1000.000000000000000 ) ;
#421 = CARTESIAN_POINT ( 'NONE',  ( 5.048796882121597385, -0.4148676892403422301, 9.089469959842707780 ) ) ;
#422 = VERTEX_POINT ( 'NONE', #700 ) ;
#423 = EDGE_CURVE ( 'NONE', #709, #214, #103, .T. ) ;
#424 = ORIENTED_EDGE ( 'NONE', *, *, #845, .F. ) ;
#425 = CARTESIAN_POINT ( 'NONE',  ( -1.983707139815061427E-14, 2.999999999999998668, 4.489988864128691581 ) ) ;
#426 = CARTESIAN_POINT ( 'NONE',  ( -0.1999999999999972078, -2.551470164434612720, 4.300000000000000711 ) ) ;
#427 = CARTESIAN_POINT ( 'NONE',  ( 0.3666666666666450469, -2.833333333333333037, 6.633333333333332860 ) ) ;
#428 = DIRECTION ( 'NONE',  ( 0.000000000000000000, 0.000000000000000000, 1.000000000000000000 ) ) ;
#429 = ORIENTED_EDGE ( 'NONE', *, *, #567, .T. ) ;
#430 = DIRECTION ( 'NONE',  ( 0.000000000000000000, 1.000000000000000000, -0.000000000000000000 ) ) ;
#431 = EDGE_CURVE ( 'NONE', #1066, #86, #560, .T. ) ;
#432 = DIRECTION ( 'NONE',  ( 0.7071067811865462405, 8.659560562354950115E-17, 0.7071067811865489050 ) ) ;
#433 = CARTESIAN_POINT ( 'NONE',  ( -0.3999999999999994671, 0.000000000000000000, 0.000000000000000000 ) ) ;
#434 = CARTESIAN_POINT ( 'NONE',  ( 5.100000000000000533, -0.1058871441377955275, 9.100363957718801800 ) ) ;
#435 = ORIENTED_EDGE ( 'NONE', *, *, #706, .F. ) ;
#436 = CARTESIAN_POINT ( 'NONE',  ( -0.3999999999999995226, 2.861817604250835867, 4.100000000000001421 ) ) ;
#437 = CIRCLE ( 'NONE', #747, 1.600000000000000755 ) ;
#438 = PRESENTATION_STYLE_ASSIGNMENT (( #184 ) ) ;
#439 = CARTESIAN_POINT ( 'NONE',  ( 1.899999999999998801, 1.477738927902551059E-16, 11.40099999999998737 ) ) ;
#440 = EDGE_CURVE ( 'NONE', #32, #454, #400, .T. ) ;
#441 = CARTESIAN_POINT ( 'NONE',  ( -1.983707139815061427E-14, 0.000000000000000000, 0.000000000000000000 ) ) ;
#442 = ORIENTED_EDGE ( 'NONE', *, *, #549, .T. ) ;
#443 = VECTOR ( 'NONE', #780, 1000.000000000000000 ) ;
#444 = CARTESIAN_POINT ( 'NONE',  ( 3.086835909975660819, 1.549279033855958998, 8.902943885435739446 ) ) ;
#445 = ORIENTED_EDGE ( 'NONE', *, *, #1142, .F. ) ;
#446 = CARTESIAN_POINT ( 'NONE',  ( 20.59999999999999432, 0.000000000000000000, 2.500000000000000000 ) ) ;
#447 = DIRECTION ( 'NONE',  ( -1.000000000000000000, -0.000000000000000000, -0.000000000000000000 ) ) ;
#448 = EDGE_CURVE ( 'NONE', #6, #454, #536, .T. ) ;
#449 = ORIENTED_EDGE ( 'NONE', *, *, #195, .F. ) ;
#450 = CARTESIAN_POINT ( 'NONE',  ( 21.00000000000000000, 3.551475717527332707E-16, 2.900000000000006573 ) ) ;
#451 = LINE ( 'NONE', #366, #478 ) ;
#452 = FACE_OUTER_BOUND ( 'NONE', #760, .T. ) ;
#453 = DIRECTION ( 'NONE',  ( -1.000000000000000000, -0.000000000000000000, -0.000000000000000000 ) ) ;
#454 = VERTEX_POINT ( 'NONE', #724 ) ;
#455 = VERTEX_POINT ( 'NONE', #895 ) ;
#456 = FACE_OUTER_BOUND ( 'NONE', #122, .T. ) ;
#457 = DIRECTION ( 'NONE',  ( -0.7071067811865409114, 1.022195611122259409E-16, 0.7071067811865542341 ) ) ;
#458 = CONICAL_SURFACE ( 'NONE', #1017, 8.600000000000108002, 0.7853981633974502774 ) ;
#459 = EDGE_CURVE ( 'NONE', #1066, #169, #381, .T. ) ;
#460 = CARTESIAN_POINT ( 'NONE',  ( 21.00000000000000000, 0.000000000000000000, 10.99999999999999289 ) ) ;
#461 = CIRCLE ( 'NONE', #1035, 2.500000000000000000 ) ;
#462 = CIRCLE ( 'NONE', #28, 10.99999999999999289 ) ;
#463 = ORIENTED_EDGE ( 'NONE', *, *, #1133, .F. ) ;
#464 = CARTESIAN_POINT ( 'NONE',  ( 20.60000000000000142, 0.000000000000000000, 11.39999999999998614 ) ) ;
#465 = ORIENTED_EDGE ( 'NONE', *, *, #27, .T. ) ;
#466 = PLANE ( 'NONE',  #717 ) ;
#467 = EDGE_CURVE ( 'NONE', #359, #6, #1002, .T. ) ;
#468 = ORIENTED_EDGE ( 'NONE', *, *, #407, .F. ) ;
#469 = CARTESIAN_POINT ( 'NONE',  ( -0.1569093084326576848, 2.999999999999998224, 4.299999999999999822 ) ) ;
#470 = CARTESIAN_POINT ( 'NONE',  ( 3.923065982525688167, 1.557008875101179912, 8.924807600468783519 ) ) ;
#471 = EDGE_LOOP ( 'NONE', ( #268, #1157 ) ) ;
#472 = CARTESIAN_POINT ( 'NONE',  ( 7.000000000000000000, 2.999999999999998668, 6.299999999999999822 ) ) ;
#473 = ADVANCED_FACE ( 'NONE', ( #1001, #624 ), #720, .T. ) ;
#474 = FACE_OUTER_BOUND ( 'NONE', #296, .T. ) ;
#475 = VECTOR ( 'NONE', #920, 1000.000000000000000 ) ;
#476 = UNCERTAINTY_MEASURE_WITH_UNIT (LENGTH_MEASURE( 1.000000000000000082E-05 ), #40, 'distance_accuracy_value', 'NONE');
#477 = ORIENTED_EDGE ( 'NONE', *, *, #586, .F. ) ;
#478 = VECTOR ( 'NONE', #808, 1000.000000000000000 ) ;
#479 = ORIENTED_EDGE ( 'NONE', *, *, #47, .T. ) ;
#480 = LINE ( 'NONE', #472, #793 ) ;
#481 = CYLINDRICAL_SURFACE ( 'NONE', #289, 4.049999999999999822 ) ;
#482 = ADVANCED_FACE ( 'NONE', ( #635 ), #995, .F. ) ;
#483 = ORIENTED_EDGE ( 'NONE', *, *, #794, .F. ) ;
#484 =( NAMED_UNIT ( * ) SI_UNIT ( $, .STERADIAN. ) SOLID_ANGLE_UNIT ( ) );
#485 = LINE ( 'NONE', #1120, #43 ) ;
#486 = ORIENTED_EDGE ( 'NONE', *, *, #490, .T. ) ;
#487 = FACE_OUTER_BOUND ( 'NONE', #742, .T. ) ;
#488 = AXIS2_PLACEMENT_3D ( 'NONE', #1052, #498, #61 ) ;
#489 = ORIENTED_EDGE ( 'NONE', *, *, #423, .T. ) ;
#490 = EDGE_CURVE ( 'NONE', #559, #120, #1031, .T. ) ;
#491 = AXIS2_PLACEMENT_3D ( 'NONE', #784, #588, #242 ) ;
#492 = CARTESIAN_POINT ( 'NONE',  ( 3.499999999999999556, 1.477738927902551059E-16, 11.40099999999998737 ) ) ;
#493 = AXIS2_PLACEMENT_3D ( 'NONE', #670, #73, #1150 ) ;
#494 = PRODUCT_DEFINITION_FORMATION_WITH_SPECIFIED_SOURCE ( 'ANY', '', #826, .NOT_KNOWN. ) ;
#495 = VERTEX_POINT ( 'NONE', #741 ) ;
#496 = CARTESIAN_POINT ( 'NONE',  ( 0.06635781236438409447, 2.999999999999998668, 4.569795785172651392 ) ) ;
#497 = FACE_OUTER_BOUND ( 'NONE', #160, .T. ) ;
#498 = DIRECTION ( 'NONE',  ( 0.000000000000000000, -1.000000000000000000, 2.168404344971009115E-16 ) ) ;
#499 = CARTESIAN_POINT ( 'NONE',  ( -0.3999999999999995226, 2.861817604250835867, 4.100000000000001421 ) ) ;
#500 = EDGE_LOOP ( 'NONE', ( #1012, #304 ) ) ;
#501 = ORIENTED_EDGE ( 'NONE', *, *, #53, .T. ) ;
#502 = CARTESIAN_POINT ( 'NONE',  ( 0.1330383374775814531, 2.999999999999998224, 4.649335223385093308 ) ) ;
#503 = CYLINDRICAL_SURFACE ( 'NONE', #1160, 11.39999999999998614 ) ;
#504 = ADVANCED_FACE ( 'NONE', ( #216 ), #313, .F. ) ;
#505 = DIRECTION ( 'NONE',  ( 0.000000000000000000, -0.000000000000000000, 1.000000000000000000 ) ) ;
#506 = EDGE_CURVE ( 'NONE', #71, #842, #753, .T. ) ;
#507 = CARTESIAN_POINT ( 'NONE',  ( 3.923468693454605472, -1.556912048799709458, 8.924837679021466741 ) ) ;
#508 = EDGE_LOOP ( 'NONE', ( #445, #256, #822, #477, #226, #50, #702 ) ) ;
#509 = EDGE_LOOP ( 'NONE', ( #343, #486, #568, #637 ) ) ;
#510 = CARTESIAN_POINT ( 'NONE',  ( 0.1999999999999789724, 2.999999999999998224, 4.728636167014694358 ) ) ;
#511 = DIRECTION ( 'NONE',  ( 1.000000000000000000, 0.000000000000000000, 0.000000000000000000 ) ) ;
#512 = AXIS2_PLACEMENT_3D ( 'NONE', #260, #870, #1037 ) ;
#513 = CARTESIAN_POINT ( 'NONE',  ( 1.899999999999998801, -6.777072482317503580E-22, 9.013925147326483867 ) ) ;
#514 = ADVANCED_FACE ( 'NONE', ( #746 ), #838, .T. ) ;
#515 = AXIS2_PLACEMENT_3D ( 'NONE', #704, #812, #367 ) ;
#516 = CARTESIAN_POINT ( 'NONE',  ( 0.1999999999999789446, -3.000000000000000888, 4.728636167014713010 ) ) ;
#517 = EDGE_LOOP ( 'NONE', ( #377, #1091 ) ) ;
#518 = CARTESIAN_POINT ( 'NONE',  ( 5.089588092529738539, 0.2100531837720721051, 9.098106023665835096 ) ) ;
#519 = DIRECTION ( 'NONE',  ( -0.000000000000000000, 1.445602896647339656E-16, 1.000000000000000000 ) ) ;
#520 = CYLINDRICAL_SURFACE ( 'NONE', #493, 2.500000000000000000 ) ;
#521 = PLANE ( 'NONE',  #250 ) ;
#522 = DIRECTION ( 'NONE',  ( -1.000000000000000000, 0.000000000000000000, 0.000000000000000000 ) ) ;
#523 = ORIENTED_EDGE ( 'NONE', *, *, #195, .T. ) ;
#524 = CARTESIAN_POINT ( 'NONE',  ( 3.712639872909324179, 1.599557956403953263, 8.910576196517425274 ) ) ;
#525 = EDGE_LOOP ( 'NONE', ( #128, #767, #207, #820, #132, #681 ) ) ;
#526 = CARTESIAN_POINT ( 'NONE',  ( 1.899999999999998801, -6.777072482317503580E-22, 9.013925147326483867 ) ) ;
#527 = FACE_OUTER_BOUND ( 'NONE', #998, .T. ) ;
#528 = DIRECTION ( 'NONE',  ( -0.000000000000000000, 1.000000000000000000, 1.224646799147353207E-16 ) ) ;
#529 = DIRECTION ( 'NONE',  ( -1.000000000000000000, -0.000000000000000000, -0.000000000000000000 ) ) ;
#530 = VERTEX_POINT ( 'NONE', #118 ) ;
#531 = CARTESIAN_POINT ( 'NONE',  ( -0.2666992569576318584, 2.903508705321065531, 4.233300743042367031 ) ) ;
#532 = ORIENTED_EDGE ( 'NONE', *, *, #856, .T. ) ;
#533 = DIRECTION ( 'NONE',  ( -0.7071067811865536790, 8.659560562354858902E-17, -0.7071067811865414665 ) ) ;
#534 = LINE ( 'NONE', #88, #1081 ) ;
#535 = EDGE_CURVE ( 'NONE', #396, #455, #480, .T. ) ;
#536 = LINE ( 'NONE', #1072, #911 ) ;
#537 = VECTOR ( 'NONE', #692, 1000.000000000000000 ) ;
#538 = VECTOR ( 'NONE', #581, 1000.000000000000000 ) ;
#539 = CARTESIAN_POINT ( 'NONE',  ( 5.017856061814892854, 0.5167971025615103464, 9.082976754765281768 ) ) ;
#540 = VECTOR ( 'NONE', #511, 1000.000000000000000 ) ;
#541 = ORIENTED_EDGE ( 'NONE', *, *, #805, .F. ) ;
#542 =( NAMED_UNIT ( * ) SI_UNIT ( $, .STERADIAN. ) SOLID_ANGLE_UNIT ( ) );
#543 = CARTESIAN_POINT ( 'NONE',  ( -1.983707139815061427E-14, -3.200000000000002842, 7.000000000000002665 ) ) ;
#544 = CARTESIAN_POINT ( 'NONE',  ( 7.000000000000000000, 0.000000000000000000, 0.000000000000000000 ) ) ;
#545 = CARTESIAN_POINT ( 'NONE',  ( -0.1999999999999971523, -2.924038303442673126, 4.300000000000000711 ) ) ;
#546 = ORIENTED_EDGE ( 'NONE', *, *, #676, .T. ) ;
#547 = DIRECTION ( 'NONE',  ( 1.000000000000000000, -0.000000000000000000, -0.000000000000000000 ) ) ;
#548 = FACE_OUTER_BOUND ( 'NONE', #616, .T. ) ;
#549 = EDGE_CURVE ( 'NONE', #396, #990, #129, .T. ) ;
#550 = ORIENTED_EDGE ( 'NONE', *, *, #96, .T. ) ;
#551 = DIRECTION ( 'NONE',  ( 1.000000000000000000, 0.000000000000000000, 0.000000000000000000 ) ) ;
#552 = VECTOR ( 'NONE', #331, 1000.000000000000000 ) ;
#553 = DIRECTION ( 'NONE',  ( -1.000000000000000000, -0.000000000000000000, -0.000000000000000000 ) ) ;
#554 = AXIS2_PLACEMENT_3D ( 'NONE', #397, #1108, #1098 ) ;
#555 = PRODUCT_DEFINITION ( 'UNKNOWN', '', #494, #849 ) ;
#556 = VERTEX_POINT ( 'NONE', #37 ) ;
#557 = DIRECTION ( 'NONE',  ( -0.000000000000000000, -2.168404344971008868E-16, 1.000000000000000000 ) ) ;
#558 = MECHANICAL_DESIGN_GEOMETRIC_PRESENTATION_REPRESENTATION (  '', ( #354 ), #29 ) ;
#559 = VERTEX_POINT ( 'NONE', #736 ) ;
#560 = LINE ( 'NONE', #621, #909 ) ;
#561 = ORIENTED_EDGE ( 'NONE', *, *, #305, .T. ) ;
#562 = EDGE_CURVE ( 'NONE', #709, #599, #834, .T. ) ;
#563 = EDGE_LOOP ( 'NONE', ( #145, #23, #921, #600 ) ) ;
#564 = CARTESIAN_POINT ( 'NONE',  ( 20.00000000000000000, 0.000000000000000000, -11.39999999999998614 ) ) ;
#565 = EDGE_LOOP ( 'NONE', ( #10, #501, #247, #127 ) ) ;
#566 = CARTESIAN_POINT ( 'NONE',  ( 0.000000000000000000, 0.000000000000000000, 0.000000000000000000 ) ) ;
#567 = EDGE_CURVE ( 'NONE', #350, #652, #625, .T. ) ;
#568 = ORIENTED_EDGE ( 'NONE', *, *, #167, .T. ) ;
#569 = VERTEX_POINT ( 'NONE', #658 ) ;
#570 = DIRECTION ( 'NONE',  ( -1.000000000000000000, 0.000000000000000000, 0.000000000000000000 ) ) ;
#571 = DIRECTION ( 'NONE',  ( -1.000000000000000000, -0.000000000000000000, -0.000000000000000000 ) ) ;
#572 = PRESENTATION_LAYER_ASSIGNMENT (  '', '', ( #354 ) ) ;
#573 = VERTEX_POINT ( 'NONE', #222 ) ;
#574 = ORIENTED_EDGE ( 'NONE', *, *, #596, .T. ) ;
#575 = FACE_OUTER_BOUND ( 'NONE', #756, .T. ) ;
#576 = LINE ( 'NONE', #1006, #864 ) ;
#577 = ADVANCED_FACE ( 'NONE', ( #575 ), #934, .T. ) ;
#578 = CARTESIAN_POINT ( 'NONE',  ( -0.3999999999999905298, 0.000000000000000000, 0.000000000000000000 ) ) ;
#579 = EDGE_CURVE ( 'NONE', #46, #232, #714, .T. ) ;
#580 = ORIENTED_EDGE ( 'NONE', *, *, #27, .F. ) ;
#581 = DIRECTION ( 'NONE',  ( 0.000000000000000000, -2.168404344971009115E-16, -1.000000000000000000 ) ) ;
#582 = DIRECTION ( 'NONE',  ( 0.000000000000000000, 0.000000000000000000, 1.000000000000000000 ) ) ;
#583 = VECTOR ( 'NONE', #361, 1000.000000000000000 ) ;
#584 = CARTESIAN_POINT ( 'NONE',  ( -0.3999999999999995226, 0.000000000000000000, 0.000000000000000000 ) ) ;
#585 = VERTEX_POINT ( 'NONE', #1049 ) ;
#586 = EDGE_CURVE ( 'NONE', #353, #83, #243, .T. ) ;
#587 = DIRECTION ( 'NONE',  ( 1.000000000000000000, 0.000000000000000000, 0.000000000000000000 ) ) ;
#588 = DIRECTION ( 'NONE',  ( -0.000000000000000000, -0.000000000000000000, -1.000000000000000000 ) ) ;
#589 = ADVANCED_FACE ( 'NONE', ( #868, #956 ), #154, .F. ) ;
#590 = CARTESIAN_POINT ( 'NONE',  ( 20.00000000000000000, 0.000000000000000000, 0.000000000000000000 ) ) ;
#591 = CARTESIAN_POINT ( 'NONE',  ( -0.1048239850495900766, -3.000000000000000888, 4.363508854464424935 ) ) ;
#592 = ORIENTED_EDGE ( 'NONE', *, *, #883, .T. ) ;
#593 = DIRECTION ( 'NONE',  ( 0.000000000000000000, 0.000000000000000000, 1.000000000000000000 ) ) ;
#594 = CARTESIAN_POINT ( 'NONE',  ( 0.1999999999999789446, -3.000000000000001332, 6.300000000000000711 ) ) ;
#595 = FACE_OUTER_BOUND ( 'NONE', #246, .T. ) ;
#596 = EDGE_CURVE ( 'NONE', #359, #32, #777, .T. ) ;
#597 = CARTESIAN_POINT ( 'NONE',  ( -5.698348799390243968, -2.606242505984429414, 3.100000000000000089 ) ) ;
#598 = CARTESIAN_POINT ( 'NONE',  ( 2.793224484854719414, -1.439268775758388408, 8.914714047638520711 ) ) ;
#599 = VERTEX_POINT ( 'NONE', #141 ) ;
#600 = ORIENTED_EDGE ( 'NONE', *, *, #535, .T. ) ;
#601 = AXIS2_PLACEMENT_3D ( 'NONE', #597, #156, #947 ) ;
#602 = TOROIDAL_SURFACE ( 'NONE', #942, 138.6285714285714619, 129.6285714285714619 ) ;
#603 = CARTESIAN_POINT ( 'NONE',  ( -1.983707139815061427E-14, 1.053196247266736907E-15, 8.600000000000108002 ) ) ;
#604 = CARTESIAN_POINT ( 'NONE',  ( 0.000000000000000000, 0.000000000000000000, 0.000000000000000000 ) ) ;
#605 = AXIS2_PLACEMENT_3D ( 'NONE', #843, #297, #646 ) ;
#606 = CARTESIAN_POINT ( 'NONE',  ( -1.983707139815061427E-14, 3.200000000000001066, 6.800000000000000711 ) ) ;
#607 = CARTESIAN_POINT ( 'NONE',  ( 2.987391154450704800, -1.519295365999167702, 8.905817688396663101 ) ) ;
#608 = ORIENTED_EDGE ( 'NONE', *, *, #840, .T. ) ;
#609 = LINE ( 'NONE', #889, #710 ) ;
#610 = AXIS2_PLACEMENT_3D ( 'NONE', #751, #932, #401 ) ;
#611 = ORIENTED_EDGE ( 'NONE', *, *, #305, .F. ) ;
#612 = FACE_OUTER_BOUND ( 'NONE', #285, .T. ) ;
#613 = CARTESIAN_POINT ( 'NONE',  ( 0.4006190611126919654, 0.000000000000000000, 0.000000000000000000 ) ) ;
#614 = CARTESIAN_POINT ( 'NONE',  ( 21.00000000000000000, 0.000000000000000000, 0.000000000000000000 ) ) ;
#615 = CARTESIAN_POINT ( 'NONE',  ( -0.1331158929967432292, -2.654764505781660677, 3.233115892996748286 ) ) ;
#616 = EDGE_LOOP ( 'NONE', ( #1103, #696, #891, #1089 ) ) ;
#617 = EDGE_CURVE ( 'NONE', #968, #530, #770, .T. ) ;
#618 = CARTESIAN_POINT ( 'NONE',  ( 4.307088035490243882, 1.397093542209240535, 8.963578323893383271 ) ) ;
#619 = ORIENTED_EDGE ( 'NONE', *, *, #804, .T. ) ;
#620 = LINE ( 'NONE', #177, #1033 ) ;
#621 = CARTESIAN_POINT ( 'NONE',  ( 0.000000000000000000, 0.000000000000000000, 2.500000000000000000 ) ) ;
#622 = DIRECTION ( 'NONE',  ( 0.000000000000000000, 0.000000000000000000, 1.000000000000000000 ) ) ;
#623 = CARTESIAN_POINT ( 'NONE',  ( 20.00000000000000000, 4.049999999999999822, 0.000000000000000000 ) ) ;
#624 = FACE_BOUND ( 'NONE', #500, .T. ) ;
#625 = CIRCLE ( 'NONE', #124, 2.900000000000006573 ) ;
#626 = AXIS2_PLACEMENT_3D ( 'NONE', #872, #144, #766 ) ;
#627 = CARTESIAN_POINT ( 'NONE',  ( 5.100000000000000533, 3.437173806538317522E-16, 3.100000000000000533 ) ) ;
#628 = AXIS2_PLACEMENT_3D ( 'NONE', #283, #992, #905 ) ;
#629 = ADVANCED_FACE ( 'NONE', ( #162 ), #202, .F. ) ;
#630 = CARTESIAN_POINT ( 'NONE',  ( 19.00000000000000000, 0.000000000000000000, -10.39999999999999325 ) ) ;
#631 = EDGE_CURVE ( 'NONE', #725, #353, #119, .T. ) ;
#632 = FACE_OUTER_BOUND ( 'NONE', #689, .T. ) ;
#633 = ORIENTED_EDGE ( 'NONE', *, *, #676, .F. ) ;
#634 = CARTESIAN_POINT ( 'NONE',  ( 7.000000000000000000, -3.000000000000001332, 6.300000000000000711 ) ) ;
#635 = FACE_OUTER_BOUND ( 'NONE', #563, .T. ) ;
#636 = ADVANCED_FACE ( 'NONE', ( #612 ), #691, .T. ) ;
#637 = ORIENTED_EDGE ( 'NONE', *, *, #1088, .F. ) ;
#638 = CARTESIAN_POINT ( 'NONE',  ( 21.00000000000000000, 0.000000000000000000, 0.000000000000000000 ) ) ;
#639 = ORIENTED_EDGE ( 'NONE', *, *, #281, .F. ) ;
#640 = CYLINDRICAL_SURFACE ( 'NONE', #180, 1.600000000000000977 ) ;
#641 = CONICAL_SURFACE ( 'NONE', #276, 11.39999999999998614, 0.7853981633974447263 ) ;
#642 = VECTOR ( 'NONE', #923, 1000.000000000000000 ) ;
#643 = AXIS2_PLACEMENT_3D ( 'NONE', #1032, #1154, #522 ) ;
#644 = ORIENTED_EDGE ( 'NONE', *, *, #549, .F. ) ;
#645 = FACE_BOUND ( 'NONE', #1096, .T. ) ;
#646 = DIRECTION ( 'NONE',  ( 0.000000000000000000, 0.000000000000000000, 1.000000000000000000 ) ) ;
#647 = CARTESIAN_POINT ( 'NONE',  ( 4.937547289648750670, 0.7102281743409781800, 9.066806593874936482 ) ) ;
#648 = EDGE_CURVE ( 'NONE', #1039, #709, #248, .T. ) ;
#649 = ORIENTED_EDGE ( 'NONE', *, *, #708, .T. ) ;
#650 = ORIENTED_EDGE ( 'NONE', *, *, #303, .T. ) ;
#651 = CARTESIAN_POINT ( 'NONE',  ( 20.59999999999999432, 3.061616997868383141E-16, -2.500000000000000000 ) ) ;
#652 = VERTEX_POINT ( 'NONE', #861 ) ;
#653 =( LENGTH_UNIT ( ) NAMED_UNIT ( * ) SI_UNIT ( .MILLI., .METRE. ) );
#654 = AXIS2_PLACEMENT_3D ( 'NONE', #1040, #240, #593 ) ;
#655 = DIRECTION ( 'NONE',  ( -0.000000000000000000, -0.000000000000000000, -1.000000000000000000 ) ) ;
#656 = ORIENTED_EDGE ( 'NONE', *, *, #1016, .T. ) ;
#657 =( NAMED_UNIT ( * ) PLANE_ANGLE_UNIT ( ) SI_UNIT ( $, .RADIAN. ) );
#658 = CARTESIAN_POINT ( 'NONE',  ( -0.3999999999999994671, -2.748181216732456189, 3.500000000000004441 ) ) ;
#659 = EDGE_CURVE ( 'NONE', #983, #422, #327, .T. ) ;
#660 = FILL_AREA_STYLE ('',( #31 ) ) ;
#661 = EDGE_CURVE ( 'NONE', #983, #92, #1149, .T. ) ;
#662 = ORIENTED_EDGE ( 'NONE', *, *, #1003, .F. ) ;
#663 = DIRECTION ( 'NONE',  ( 0.000000000000000000, 0.000000000000000000, -1.000000000000000000 ) ) ;
#664 = CARTESIAN_POINT ( 'NONE',  ( 3.499999999999999556, 1.477738927902551059E-16, 4.299999999999999822 ) ) ;
#665 = CIRCLE ( 'NONE', #416, 5.399999999999967493 ) ;
#666 = VECTOR ( 'NONE', #54, 1000.000000000000000 ) ;
#667 = CARTESIAN_POINT ( 'NONE',  ( -0.1569093084326559362, -3.000000000000000888, 4.300000000000000711 ) ) ;
#668 = EDGE_CURVE ( 'NONE', #211, #71, #772, .T. ) ;
#669 = DIRECTION ( 'NONE',  ( -0.000000000000000000, -1.000000000000000000, -0.000000000000000000 ) ) ;
#670 = CARTESIAN_POINT ( 'NONE',  ( 0.000000000000000000, 0.000000000000000000, 0.000000000000000000 ) ) ;
#671 = AXIS2_PLACEMENT_3D ( 'NONE', #235, #249, #1064 ) ;
#672 = FACE_OUTER_BOUND ( 'NONE', #565, .T. ) ;
#673 = LINE ( 'NONE', #159, #443 ) ;
#674 = ORIENTED_EDGE ( 'NONE', *, *, #648, .F. ) ;
#675 = CARTESIAN_POINT ( 'NONE',  ( 20.60000000000000142, 1.396097351027981044E-15, -11.39999999999998614 ) ) ;
#676 = EDGE_CURVE ( 'NONE', #990, #725, #1029, .T. ) ;
#677 = DIRECTION ( 'NONE',  ( 0.000000000000000000, 0.000000000000000000, -1.000000000000000000 ) ) ;
#678 = CARTESIAN_POINT ( 'NONE',  ( 20.60000000000000142, 0.000000000000000000, 0.000000000000000000 ) ) ;
#679 = DIRECTION ( 'NONE',  ( 0.000000000000000000, 0.000000000000000000, -1.000000000000000000 ) ) ;
#680 = CARTESIAN_POINT ( 'NONE',  ( 5.089559788629052228, -0.2102062321120872213, 9.098100016615298102 ) ) ;
#681 = ORIENTED_EDGE ( 'NONE', *, *, #966, .F. ) ;
#682 = CARTESIAN_POINT ( 'NONE',  ( 20.60000000000000142, 0.000000000000000000, 11.39999999999998614 ) ) ;
#683 = CARTESIAN_POINT ( 'NONE',  ( -0.1569093084326576848, 2.999999999999998224, 4.299999999999999822 ) ) ;
#684 = FACE_BOUND ( 'NONE', #196, .T. ) ;
#685 = AXIS2_PLACEMENT_3D ( 'NONE', #846, #39, #399 ) ;
#686 = CARTESIAN_POINT ( 'NONE',  ( -1.983707139815061427E-14, 3.200000000000000622, 4.349712634186268190 ) ) ;
#687 = VERTEX_POINT ( 'NONE', #946 ) ;
#688 = CARTESIAN_POINT ( 'NONE',  ( 3.292332160565888621, 1.589919544661321016, 8.900914002864293906 ) ) ;
#689 = EDGE_LOOP ( 'NONE', ( #139, #800, #768, #414, #308, #345 ) ) ;
#690 = CARTESIAN_POINT ( 'NONE',  ( 5.100000000000000533, 3.437173806538317522E-16, 4.299999999999999822 ) ) ;
#691 = CONICAL_SURFACE ( 'NONE', #384, 11.39999999999998614, 0.7853981633974447263 ) ;
#692 = DIRECTION ( 'NONE',  ( 0.000000000000000000, 2.168404344971009115E-16, -1.000000000000000000 ) ) ;
#693 = EDGE_CURVE ( 'NONE', #116, #92, #926, .T. ) ;
#694 = VECTOR ( 'NONE', #193, 1000.000000000000000 ) ;
#695 = CARTESIAN_POINT ( 'NONE',  ( 0.06483922893293686540, 3.135160771067042607, 4.477909003859259940 ) ) ;
#696 = ORIENTED_EDGE ( 'NONE', *, *, #1041, .F. ) ;
#697 = CARTESIAN_POINT ( 'NONE',  ( 5.048781363357857543, 0.4149565428336876027, 9.089466659582623009 ) ) ;
#698 = ORIENTED_EDGE ( 'NONE', *, *, #267, .F. ) ;
#699 = CARTESIAN_POINT ( 'NONE',  ( -0.3999999999999905298, 0.000000000000000000, 0.000000000000000000 ) ) ;
#700 = CARTESIAN_POINT ( 'NONE',  ( 1.899999999999998579, 1.477738927902551059E-16, 4.299999999999999822 ) ) ;
#701 = VERTEX_POINT ( 'NONE', #322 ) ;
#702 = ORIENTED_EDGE ( 'NONE', *, *, #340, .F. ) ;
#703 = CARTESIAN_POINT ( 'NONE',  ( 0.1999999999999789724, 2.999999999999998224, 4.728636167014694358 ) ) ;
#704 = CARTESIAN_POINT ( 'NONE',  ( 21.00000000000000000, 2.500000000000000000, 0.000000000000000000 ) ) ;
#705 = FACE_OUTER_BOUND ( 'NONE', #174, .T. ) ;
#706 = EDGE_CURVE ( 'NONE', #687, #599, #451, .T. ) ;
#707 = DIRECTION ( 'NONE',  ( 0.000000000000000000, 0.000000000000000000, -1.000000000000000000 ) ) ;
#708 = EDGE_CURVE ( 'NONE', #585, #6, #1077, .T. ) ;
#709 = VERTEX_POINT ( 'NONE', #1158 ) ;
#710 = VECTOR ( 'NONE', #264, 1000.000000000000000 ) ;
#711 = SURFACE_STYLE_FILL_AREA ( #1070 ) ;
#712 = CARTESIAN_POINT ( 'NONE',  ( 0.1999999999999796940, 2.999999999999998224, 6.800000000000000711 ) ) ;
#713 = MANIFOLD_SOLID_BREP ( 'Chanfrein2', #997 ) ;
#714 = B_SPLINE_CURVE_WITH_KNOTS ( 'NONE', 3,
 ( #783, #1137, #147, #332 ),
 .UNSPECIFIED., .F., .F.,
 ( 4, 4 ),
 ( 0.0004228524141216582805, 0.0005101686953537969745 ),
 .UNSPECIFIED. ) ;
#715 = DIRECTION ( 'NONE',  ( 0.000000000000000000, 0.000000000000000000, 1.000000000000000000 ) ) ;
#716 = VECTOR ( 'NONE', #171, 1000.000000000000000 ) ;
#717 = AXIS2_PLACEMENT_3D ( 'NONE', #623, #7, #726 ) ;
#718 = LINE ( 'NONE', #722, #945 ) ;
#719 = EDGE_CURVE ( 'NONE', #422, #116, #620, .T. ) ;
#720 = PLANE ( 'NONE',  #85 ) ;
#721 = ORIENTED_EDGE ( 'NONE', *, *, #1027, .F. ) ;
#722 = CARTESIAN_POINT ( 'NONE',  ( 0.1999999999999796940, 2.999999999999998224, 6.800000000000000711 ) ) ;
#723 = ORIENTED_EDGE ( 'NONE', *, *, #785, .F. ) ;
#724 = CARTESIAN_POINT ( 'NONE',  ( 20.00000000000000000, 1.396097351027981044E-15, -11.39999999999998614 ) ) ;
#725 = VERTEX_POINT ( 'NONE', #703 ) ;
#726 = DIRECTION ( 'NONE',  ( 0.000000000000000000, 0.000000000000000000, -1.000000000000000000 ) ) ;
#727 = ORIENTED_EDGE ( 'NONE', *, *, #281, .T. ) ;
#728 = CIRCLE ( 'NONE', #960, 1.600000000000000755 ) ;
#729 = ORIENTED_EDGE ( 'NONE', *, *, #794, .T. ) ;
#730 = CARTESIAN_POINT ( 'NONE',  ( 3.499999999999999556, 1.477738927902551059E-16, 6.800000000000000711 ) ) ;
#731 = EDGE_CURVE ( 'NONE', #214, #896, #1119, .T. ) ;
#732 = AXIS2_PLACEMENT_3D ( 'NONE', #213, #570, #123 ) ;
#733 = VECTOR ( 'NONE', #533, 1000.000000000000000 ) ;
#734 = CIRCLE ( 'NONE', #626, 11.39999999999998614 ) ;
#735 = ORIENTED_EDGE ( 'NONE', *, *, #218, .T. ) ;
#736 = CARTESIAN_POINT ( 'NONE',  ( 5.204170427930421283E-15, 2.606242505984429414, 3.100000000000000089 ) ) ;
#737 = CARTESIAN_POINT ( 'NONE',  ( -1.983707139815061427E-14, -3.200000000000002398, 4.349712634186266413 ) ) ;
#738 = ORIENTED_EDGE ( 'NONE', *, *, #811, .T. ) ;
#739 = PRODUCT_CONTEXT ( 'NONE', #758, 'mechanical' ) ;
#740 = ORIENTED_EDGE ( 'NONE', *, *, #135, .T. ) ;
#741 = CARTESIAN_POINT ( 'NONE',  ( 20.00000000000000000, 3.061616997868383141E-16, -2.500000000000000000 ) ) ;
#742 = EDGE_LOOP ( 'NONE', ( #1069, #781, #287, #435 ) ) ;
#743 = SURFACE_STYLE_FILL_AREA ( #660 ) ;
#744 = EDGE_CURVE ( 'NONE', #725, #701, #871, .T. ) ;
#745 = ORIENTED_EDGE ( 'NONE', *, *, #924, .F. ) ;
#746 = FACE_OUTER_BOUND ( 'NONE', #1113, .T. ) ;
#747 = AXIS2_PLACEMENT_3D ( 'NONE', #730, #799, #982 ) ;
#748 = CARTESIAN_POINT ( 'NONE',  ( 5.204170427930421283E-15, -2.606242505984429414, 3.100000000000000089 ) ) ;
#749 = AXIS2_PLACEMENT_3D ( 'NONE', #376, #1065, #266 ) ;
#750 = CARTESIAN_POINT ( 'NONE',  ( 20.59999999999999432, 0.000000000000000000, 0.000000000000000000 ) ) ;
#751 = CARTESIAN_POINT ( 'NONE',  ( 0.1999999999999789446, 2.999999999999998668, 6.299999999999999822 ) ) ;
#752 = EDGE_CURVE ( 'NONE', #169, #495, #673, .T. ) ;
#753 = LINE ( 'NONE', #1092, #293 ) ;
#754 = DIRECTION ( 'NONE',  ( 0.000000000000000000, 0.000000000000000000, -1.000000000000000000 ) ) ;
#755 = B_SPLINE_CURVE_WITH_KNOTS ( 'NONE', 3,
 ( #181, #875, #518, #697, #539, #647, #882, #298, #989, #1062, #618, #470, #524, #1093, #688, #444, #191, #161, #782, #825, #969, #91, #897, #976, #175, #277, #904, #18 ),
 .UNSPECIFIED., .F., .F.,
 ( 4, 2, 2, 2, 2, 2, 2, 2, 2, 2, 2, 2, 2, 4 ),
 ( 0.003758500270282319217, 0.004071932598253725534, 0.004385364926225132284, 0.004698797254196538167, 0.005012229582167944918, 0.005639094238110759286, 0.006265958894053572786, 0.006579391222024980404, 0.006892823549996387154, 0.007519688205939199788, 0.007833120533910605671, 0.008146552861882011554, 0.008459985189853417437, 0.008773417517824821585 ),
 .UNSPECIFIED. ) ;
#756 = EDGE_LOOP ( 'NONE', ( #541, #330, #727, #483 ) ) ;
#757 = DIRECTION ( 'NONE',  ( 0.000000000000000000, 0.000000000000000000, -1.000000000000000000 ) ) ;
#758 = APPLICATION_CONTEXT ( 'automotive_design' ) ;
#759 = CARTESIAN_POINT ( 'NONE',  ( 3.399281045387361200, -1.600246671633889228, 8.901844419281070842 ) ) ;
#760 = EDGE_LOOP ( 'NONE', ( #176, #633, #336, #1015 ) ) ;
#761 = DIRECTION ( 'NONE',  ( 0.000000000000000000, -0.000000000000000000, 1.000000000000000000 ) ) ;
#762 = LINE ( 'NONE', #778, #540 ) ;
#763 = LINE ( 'NONE', #326, #537 ) ;
#764 = EDGE_CURVE ( 'NONE', #86, #495, #461, .T. ) ;
#765 = AXIS2_PLACEMENT_3D ( 'NONE', #748, #1099, #1011 ) ;
#766 = DIRECTION ( 'NONE',  ( 0.000000000000000000, 0.000000000000000000, 1.000000000000000000 ) ) ;
#767 = ORIENTED_EDGE ( 'NONE', *, *, #845, .T. ) ;
#768 = ORIENTED_EDGE ( 'NONE', *, *, #1115, .T. ) ;
#769 = AXIS2_PLACEMENT_3D ( 'NONE', #594, #258, #1042 ) ;
#770 = LINE ( 'NONE', #1057, #217 ) ;
#771 = CYLINDRICAL_SURFACE ( 'NONE', #491, 1.600000000000000977 ) ;
#772 = CIRCLE ( 'NONE', #106, 5.000000000000000000 ) ;
#773 = FACE_OUTER_BOUND ( 'NONE', #1010, .T. ) ;
#774 = CARTESIAN_POINT ( 'NONE',  ( -1.983707139815061427E-14, -3.200000000000002398, 4.349712634186266413 ) ) ;
#775 = ORIENTED_EDGE ( 'NONE', *, *, #1128, .T. ) ;
#776 = ORIENTED_EDGE ( 'NONE', *, *, #431, .F. ) ;
#777 = LINE ( 'NONE', #315, #44 ) ;
#778 = CARTESIAN_POINT ( 'NONE',  ( -0.3999999999999995226, 2.999999999999998224, 4.299999999999999822 ) ) ;
#779 = CARTESIAN_POINT ( 'NONE',  ( -0.3999999999999994671, 5.000000000000000000, 0.000000000000000000 ) ) ;
#780 = DIRECTION ( 'NONE',  ( -1.000000000000000000, -0.000000000000000000, -0.000000000000000000 ) ) ;
#781 = ORIENTED_EDGE ( 'NONE', *, *, #648, .T. ) ;
#782 = CARTESIAN_POINT ( 'NONE',  ( 2.518272936189256850, 1.280841836661744004, 8.934272997946031580 ) ) ;
#783 = CARTESIAN_POINT ( 'NONE',  ( -0.1999999999999971523, -2.924038303442673126, 4.300000000000000711 ) ) ;
#784 = CARTESIAN_POINT ( 'NONE',  ( 3.499999999999999556, 1.477738927902551059E-16, 11.40099999999998737 ) ) ;
#785 = EDGE_CURVE ( 'NONE', #569, #120, #325, .T. ) ;
#786 = DIRECTION ( 'NONE',  ( 0.5773502691896205130, 0.5773502691896283956, -0.5773502691896283956 ) ) ;
#787 = CARTESIAN_POINT ( 'NONE',  ( -0.3999999999999994671, -2.748181216732456189, 3.500000000000004441 ) ) ;
#788 = ORIENTED_EDGE ( 'NONE', *, *, #267, .T. ) ;
#789 = CARTESIAN_POINT ( 'NONE',  ( -1.983707139815061427E-14, 0.000000000000000000, -5.399999999999967493 ) ) ;
#790 = ORIENTED_EDGE ( 'NONE', *, *, #4, .F. ) ;
#791 = CARTESIAN_POINT ( 'NONE',  ( 2.525937628606426788, -1.273606826808599157, 8.934451267055877111 ) ) ;
#792 = CARTESIAN_POINT ( 'NONE',  ( 0.000000000000000000, 0.000000000000000000, 0.000000000000000000 ) ) ;
#793 = VECTOR ( 'NONE', #24, 1000.000000000000000 ) ;
#794 = EDGE_CURVE ( 'NONE', #1165, #573, #318, .T. ) ;
#795 = DIRECTION ( 'NONE',  ( 1.000000000000000000, 0.000000000000000000, 0.000000000000000000 ) ) ;
#796 = AXIS2_PLACEMENT_3D ( 'NONE', #792, #885, #346 ) ;
#797 = AXIS2_PLACEMENT_3D ( 'NONE', #204, #893, #908 ) ;
#798 = ORIENTED_EDGE ( 'NONE', *, *, #358, .T. ) ;
#799 = DIRECTION ( 'NONE',  ( 0.000000000000000000, -0.000000000000000000, -1.000000000000000000 ) ) ;
#800 = ORIENTED_EDGE ( 'NONE', *, *, #317, .T. ) ;
#801 = CARTESIAN_POINT ( 'NONE',  ( 2.445021458623355848, -1.207549898171477842, 8.942185661318568179 ) ) ;
#802 = LINE ( 'NONE', #98, #694 ) ;
#803 = DIRECTION ( 'NONE',  ( -0.000000000000000000, -0.000000000000000000, -1.000000000000000000 ) ) ;
#804 = EDGE_CURVE ( 'NONE', #232, #1165, #972, .T. ) ;
#805 = EDGE_CURVE ( 'NONE', #136, #1165, #853, .T. ) ;
#806 = CARTESIAN_POINT ( 'NONE',  ( -0.1999999999999962086, 2.924038303442676234, 4.299999999999999822 ) ) ;
#807 = ORIENTED_EDGE ( 'NONE', *, *, #706, .T. ) ;
#808 = DIRECTION ( 'NONE',  ( 0.7071067811865462405, 0.000000000000000000, -0.7071067811865489050 ) ) ;
#809 = DIRECTION ( 'NONE',  ( 0.000000000000000000, 0.000000000000000000, 1.000000000000000000 ) ) ;
#810 = CARTESIAN_POINT ( 'NONE',  ( -0.3999999999999995226, -2.861817604250834979, 4.100000000000001421 ) ) ;
#811 = EDGE_CURVE ( 'NONE', #495, #86, #1135, .T. ) ;
#812 = DIRECTION ( 'NONE',  ( -1.000000000000000000, 0.000000000000000000, -0.000000000000000000 ) ) ;
#813 = AXIS2_PLACEMENT_3D ( 'NONE', #236, #244, #1139 ) ;
#814 = DIRECTION ( 'NONE',  ( 0.000000000000000000, 0.000000000000000000, 1.000000000000000000 ) ) ;
#815 = AXIS2_PLACEMENT_3D ( 'NONE', #678, #155, #148 ) ;
#816 = ORIENTED_EDGE ( 'NONE', *, *, #719, .T. ) ;
#817 = CARTESIAN_POINT ( 'NONE',  ( 19.00000000000000000, 0.000000000000000000, 0.000000000000000000 ) ) ;
#818 = VERTEX_POINT ( 'NONE', #173 ) ;
#819 = DIRECTION ( 'NONE',  ( -1.000000000000000000, -0.000000000000000000, -0.000000000000000000 ) ) ;
#820 = ORIENTED_EDGE ( 'NONE', *, *, #1100, .T. ) ;
#821 = PLANE ( 'NONE',  #515 ) ;
#822 = ORIENTED_EDGE ( 'NONE', *, *, #95, .T. ) ;
#823 = ADVANCED_FACE ( 'NONE', ( #887 ), #1046, .F. ) ;
#824 = PLANE ( 'NONE',  #832 ) ;
#825 = CARTESIAN_POINT ( 'NONE',  ( 2.294790086492305203, 1.057617617087173612, 8.958388100576998525 ) ) ;
#826 = PRODUCT ( 'Idler Roller Hex Nut', 'Idler Roller Hex Nut', '', ( #739 ) ) ;
#827 = ORIENTED_EDGE ( 'NONE', *, *, #81, .T. ) ;
#828 = DIRECTION ( 'NONE',  ( 0.000000000000000000, 0.000000000000000000, 1.000000000000000000 ) ) ;
#829 = DIRECTION ( 'NONE',  ( 0.000000000000000000, 0.000000000000000000, -1.000000000000000000 ) ) ;
#830 = CONICAL_SURFACE ( 'NONE', #890, 8.600000000000108002, 0.7853981633974502774 ) ;
#831 = ORIENTED_EDGE ( 'NONE', *, *, #407, .T. ) ;
#832 = AXIS2_PLACEMENT_3D ( 'NONE', #906, #457, #910 ) ;
#833 = DIRECTION ( 'NONE',  ( 0.000000000000000000, 0.000000000000000000, -1.000000000000000000 ) ) ;
#834 = CIRCLE ( 'NONE', #554, 9.000619061112825392 ) ;
#835 = ORIENTED_EDGE ( 'NONE', *, *, #535, .F. ) ;
#836 = CIRCLE ( 'NONE', #1114, 10.99999999999999289 ) ;
#837 = ORIENTED_EDGE ( 'NONE', *, *, #1115, .F. ) ;
#838 = CYLINDRICAL_SURFACE ( 'NONE', #605, 11.39999999999998614 ) ;
#839 = EDGE_CURVE ( 'NONE', #842, #211, #351, .T. ) ;
#840 = EDGE_CURVE ( 'NONE', #454, #32, #734, .T. ) ;
#841 = ORIENTED_EDGE ( 'NONE', *, *, #261, .F. ) ;
#842 = VERTEX_POINT ( 'NONE', #499 ) ;
#843 = CARTESIAN_POINT ( 'NONE',  ( 0.000000000000000000, 0.000000000000000000, 0.000000000000000000 ) ) ;
#844 = DIRECTION ( 'NONE',  ( 1.000000000000000000, -0.000000000000000000, -0.000000000000000000 ) ) ;
#845 = EDGE_CURVE ( 'NONE', #83, #46, #259, .T. ) ;
#846 = CARTESIAN_POINT ( 'NONE',  ( 0.1999999999999796940, 2.999999999999998224, 6.800000000000000711 ) ) ;
#847 = CIRCLE ( 'NONE', #654, 11.39999999999998614 ) ;
#848 = FACE_OUTER_BOUND ( 'NONE', #509, .T. ) ;
#849 = PRODUCT_DEFINITION_CONTEXT ( 'detailed design', #198, 'design' ) ;
#850 = PRESENTATION_LAYER_ASSIGNMENT (  '', '', ( #1079 ) ) ;
#851 = CIRCLE ( 'NONE', #352, 10.39999999999999325 ) ;
#852 = DIRECTION ( 'NONE',  ( -1.000000000000000000, -0.000000000000000000, -0.000000000000000000 ) ) ;
#853 = B_SPLINE_CURVE_WITH_KNOTS ( 'NONE', 3,
 ( #774, #1140, #974, #255 ),
 .UNSPECIFIED., .F., .F.,
 ( 4, 4 ),
 ( 0.000000000000000000, 0.0004728456870176476362 ),
 .UNSPECIFIED. ) ;
#854 = CARTESIAN_POINT ( 'NONE',  ( 3.499999999999999556, 1.477738927902551059E-16, 3.100000000000000533 ) ) ;
#855 = DIRECTION ( 'NONE',  ( 0.000000000000000000, 0.000000000000000000, 1.000000000000000000 ) ) ;
#856 = EDGE_CURVE ( 'NONE', #599, #709, #988, .T. ) ;
#857 = DIRECTION ( 'NONE',  ( -1.000000000000000000, 0.000000000000000000, 0.000000000000000000 ) ) ;
#858 = DIRECTION ( 'NONE',  ( -1.000000000000000000, -0.000000000000000000, -0.000000000000000000 ) ) ;
#859 = EDGE_LOOP ( 'NONE', ( #36, #1141, #738, #776 ) ) ;
#860 = ORIENTED_EDGE ( 'NONE', *, *, #225, .F. ) ;
#861 = CARTESIAN_POINT ( 'NONE',  ( 21.00000000000000000, 0.000000000000000000, -2.900000000000006573 ) ) ;
#862 = LINE ( 'NONE', #979, #280 ) ;
#863 = FACE_OUTER_BOUND ( 'NONE', #97, .T. ) ;
#864 = VECTOR ( 'NONE', #844, 1000.000000000000000 ) ;
#865 = CARTESIAN_POINT ( 'NONE',  ( 5.100000000000000533, 1.690134489436017793E-25, 9.100363957718803576 ) ) ;
#866 = ORIENTED_EDGE ( 'NONE', *, *, #924, .T. ) ;
#867 = PLANE ( 'NONE',  #685 ) ;
#868 = FACE_OUTER_BOUND ( 'NONE', #471, .T. ) ;
#869 = CARTESIAN_POINT ( 'NONE',  ( 0.1999999999999796940, 2.999999999999998224, 6.800000000000000711 ) ) ;
#870 = DIRECTION ( 'NONE',  ( 0.000000000000000000, -0.000000000000000000, -1.000000000000000000 ) ) ;
#871 = B_SPLINE_CURVE_WITH_KNOTS ( 'NONE', 3,
 ( #967, #342, #695, #686 ),
 .UNSPECIFIED., .F., .F.,
 ( 4, 4 ),
 ( 0.000000000000000000, 0.0004728456870176313189 ),
 .UNSPECIFIED. ) ;
#872 = CARTESIAN_POINT ( 'NONE',  ( 20.00000000000000000, 0.000000000000000000, 0.000000000000000000 ) ) ;
#873 = VERTEX_POINT ( 'NONE', #68 ) ;
#874 = ADVANCED_FACE ( 'NONE', ( #527 ), #771, .F. ) ;
#875 = CARTESIAN_POINT ( 'NONE',  ( 5.099999999999999645, 0.1059098699315078052, 9.100363957718803576 ) ) ;
#876 = DIRECTION ( 'NONE',  ( 0.000000000000000000, -1.000000000000000000, 0.000000000000000000 ) ) ;
#877 = FACE_OUTER_BOUND ( 'NONE', #927, .T. ) ;
#878 = PRODUCT_DEFINITION_SHAPE ( 'NONE', 'NONE',  #555 ) ;
#879 = LINE ( 'NONE', #427, #100 ) ;
#880 = CARTESIAN_POINT ( 'NONE',  ( 0.1999999999999789446, -3.000000000000001332, 6.800000000000000711 ) ) ;
#881 = ORIENTED_EDGE ( 'NONE', *, *, #693, .T. ) ;
#882 = CARTESIAN_POINT ( 'NONE',  ( 4.888427170688108170, 0.8019891447828600972, 9.057176995918940321 ) ) ;
#883 = EDGE_CURVE ( 'NONE', #214, #300, #80, .T. ) ;
#884 = CARTESIAN_POINT ( 'NONE',  ( 2.101954721648044089, -0.8056162128230304198, 8.983034009651762020 ) ) ;
#885 = DIRECTION ( 'NONE',  ( -1.000000000000000000, -0.000000000000000000, -0.000000000000000000 ) ) ;
#886 = DIRECTION ( 'NONE',  ( 0.000000000000000000, -1.224646799147352961E-16, 1.000000000000000000 ) ) ;
#887 = FACE_OUTER_BOUND ( 'NONE', #1056, .T. ) ;
#888 = ORIENTED_EDGE ( 'NONE', *, *, #55, .F. ) ;
#889 = CARTESIAN_POINT ( 'NONE',  ( 5.204170427930421283E-15, -2.606242505984429414, 3.100000000000000089 ) ) ;
#890 = AXIS2_PLACEMENT_3D ( 'NONE', #150, #341, #679 ) ;
#891 = ORIENTED_EDGE ( 'NONE', *, *, #4, .T. ) ;
#892 = CARTESIAN_POINT ( 'NONE',  ( 1.899999999999998801, -0.2090070275178464998, 9.013925147326478537 ) ) ;
#893 = DIRECTION ( 'NONE',  ( -1.000000000000000000, -0.000000000000000000, -0.000000000000000000 ) ) ;
#894 = ADVANCED_FACE ( 'NONE', ( #356 ), #1138, .F. ) ;
#895 = CARTESIAN_POINT ( 'NONE',  ( 7.000000000000000000, 2.999999999999998224, 4.299999999999999822 ) ) ;
#896 = VERTEX_POINT ( 'NONE', #1159 ) ;
#897 = CARTESIAN_POINT ( 'NONE',  ( 2.062217024936321419, 0.7097495526112668207, 8.988942391893321116 ) ) ;
#898 = ORIENTED_EDGE ( 'NONE', *, *, #562, .F. ) ;
#899 =( NAMED_UNIT ( * ) PLANE_ANGLE_UNIT ( ) SI_UNIT ( $, .RADIAN. ) );
#900 = DIRECTION ( 'NONE',  ( -1.000000000000000000, -0.000000000000000000, -0.000000000000000000 ) ) ;
#901 = CARTESIAN_POINT ( 'NONE',  ( 20.00000000000000000, 0.000000000000000000, 0.000000000000000000 ) ) ;
#902 = ADVANCED_FACE ( 'NONE', ( #957 ), #503, .T. ) ;
#903 = ORIENTED_EDGE ( 'NONE', *, *, #840, .F. ) ;
#904 = CARTESIAN_POINT ( 'NONE',  ( 1.899999999999999023, 0.1045259425940332360, 9.013925147326478537 ) ) ;
#905 = DIRECTION ( 'NONE',  ( 0.000000000000000000, 0.000000000000000000, 1.000000000000000000 ) ) ;
#906 = CARTESIAN_POINT ( 'NONE',  ( -0.1999999999999972078, 2.999999999999998224, 4.299999999999999822 ) ) ;
#907 = EDGE_LOOP ( 'NONE', ( #146, #650, #740, #221, #735 ) ) ;
#908 = DIRECTION ( 'NONE',  ( 0.000000000000000000, 0.000000000000000000, -1.000000000000000000 ) ) ;
#909 = VECTOR ( 'NONE', #453, 1000.000000000000000 ) ;
#910 = DIRECTION ( 'NONE',  ( 0.000000000000000000, 1.000000000000000000, -1.445602896647339656E-16 ) ) ;
#911 = VECTOR ( 'NONE', #108, 1000.000000000000000 ) ;
#912 = CIRCLE ( 'NONE', #628, 4.049999999999999822 ) ;
#913 = ADVANCED_FACE ( 'NONE', ( #595 ), #126, .F. ) ;
#914 = ORIENTED_EDGE ( 'NONE', *, *, #317, .F. ) ;
#915 = FACE_BOUND ( 'NONE', #66, .T. ) ;
#916 = EDGE_LOOP ( 'NONE', ( #975, #949, #294, #424 ) ) ;
#917 = DIRECTION ( 'NONE',  ( -1.000000000000000000, -0.000000000000000000, -0.000000000000000000 ) ) ;
#918 = EDGE_LOOP ( 'NONE', ( #656, #1131, #639, #239 ) ) ;
#919 = ORIENTED_EDGE ( 'NONE', *, *, #804, .F. ) ;
#920 = DIRECTION ( 'NONE',  ( 0.7071067811865500152, 0.000000000000000000, -0.7071067811865450192 ) ) ;
#921 = ORIENTED_EDGE ( 'NONE', *, *, #55, .T. ) ;
#922 = ADVANCED_FACE ( 'NONE', ( #497 ), #1136, .T. ) ;
#923 = DIRECTION ( 'NONE',  ( -1.000000000000000000, -0.000000000000000000, -0.000000000000000000 ) ) ;
#924 = EDGE_CURVE ( 'NONE', #169, #652, #862, .T. ) ;
#925 = CARTESIAN_POINT ( 'NONE',  ( 1.899999999999998801, 1.477738927902551059E-16, 3.100000000000000533 ) ) ;
#926 = CIRCLE ( 'NONE', #254, 1.600000000000000755 ) ;
#927 = EDGE_LOOP ( 'NONE', ( #721, #649, #203, #790 ) ) ;
#928 = CONICAL_SURFACE ( 'NONE', #815, 11.39999999999998614, 0.7853981633974396193 ) ;
#929 = ORIENTED_EDGE ( 'NONE', *, *, #693, .F. ) ;
#930 = EDGE_CURVE ( 'NONE', #559, #319, #158, .T. ) ;
#931 = ORIENTED_EDGE ( 'NONE', *, *, #506, .T. ) ;
#932 = DIRECTION ( 'NONE',  ( -0.7071067811865537900, -0.7071067811865413555, 1.533293416683360826E-16 ) ) ;
#933 = ORIENTED_EDGE ( 'NONE', *, *, #661, .F. ) ;
#934 = PLANE ( 'NONE',  #769 ) ;
#935 = DIRECTION ( 'NONE',  ( 0.000000000000000000, 0.000000000000000000, 1.000000000000000000 ) ) ;
#936 = ORIENTED_EDGE ( 'NONE', *, *, #1095, .F. ) ;
#937 = SURFACE_SIDE_STYLE ('',( #743 ) ) ;
#938 = DIRECTION ( 'NONE',  ( 0.000000000000000000, 0.000000000000000000, -1.000000000000000000 ) ) ;
#939 = AXIS2_PLACEMENT_3D ( 'NONE', #492, #655, #38 ) ;
#940 = CARTESIAN_POINT ( 'NONE',  ( -0.1999999999999962086, 2.924038303442676234, 4.299999999999999822 ) ) ;
#941 = CONICAL_SURFACE ( 'NONE', #215, 5.000000000000000000, 0.7853981633974439491 ) ;
#942 = AXIS2_PLACEMENT_3D ( 'NONE', #993, #917, #194 ) ;
#943 = ORIENTED_EDGE ( 'NONE', *, *, #596, .F. ) ;
#944 = ADVANCED_FACE ( 'NONE', ( #877 ), #928, .T. ) ;
#945 = VECTOR ( 'NONE', #273, 1000.000000000000000 ) ;
#946 = CARTESIAN_POINT ( 'NONE',  ( -1.983707139815061427E-14, 0.000000000000000000, -8.600000000000108002 ) ) ;
#947 = DIRECTION ( 'NONE',  ( 1.000000000000000000, 0.000000000000000000, -0.000000000000000000 ) ) ;
#948 = CARTESIAN_POINT ( 'NONE',  ( 3.087344296219615813, -1.549418498539276490, 8.902931794007219679 ) ) ;
#949 = ORIENTED_EDGE ( 'NONE', *, *, #506, .F. ) ;
#950 = DIRECTION ( 'NONE',  ( 0.000000000000000000, 0.000000000000000000, 1.000000000000000000 ) ) ;
#951 = CARTESIAN_POINT ( 'NONE',  ( 5.204170427930421283E-15, 2.606242505984429414, 3.100000000000000089 ) ) ;
#952 = FACE_OUTER_BOUND ( 'NONE', #1086, .T. ) ;
#953 = CARTESIAN_POINT ( 'NONE',  ( 0.1330383374775930549, -3.000000000000000888, 4.649335223385105742 ) ) ;
#954 = ORIENTED_EDGE ( 'NONE', *, *, #764, .T. ) ;
#955 = CARTESIAN_POINT ( 'NONE',  ( -1.983707139815061427E-14, 3.200000000000001066, 7.000000000000002665 ) ) ;
#956 = FACE_BOUND ( 'NONE', #907, .T. ) ;
#957 = FACE_OUTER_BOUND ( 'NONE', #1048, .T. ) ;
#958 = CARTESIAN_POINT ( 'NONE',  ( -0.3999999999999995226, 0.000000000000000000, -5.000000000000000000 ) ) ;
#959 = CIRCLE ( 'NONE', #41, 129.6285714285714619 ) ;
#960 = AXIS2_PLACEMENT_3D ( 'NONE', #1151, #505, #164 ) ;
#961 = CARTESIAN_POINT ( 'NONE',  ( 4.705531432467196851, -1.057124874292686423, 9.024010477161109378 ) ) ;
#962 = ORIENTED_EDGE ( 'NONE', *, *, #930, .T. ) ;
#963 = CARTESIAN_POINT ( 'NONE',  ( 3.499999999999999556, 1.477738927902551059E-16, 4.299999999999999822 ) ) ;
#964 = CARTESIAN_POINT ( 'NONE',  ( -0.1331158929966762827, 2.654764505782046147, 3.233115892996681229 ) ) ;
#965 = CARTESIAN_POINT ( 'NONE',  ( -0.1569093084326559362, -3.000000000000000888, 4.300000000000000711 ) ) ;
#966 = EDGE_CURVE ( 'NONE', #353, #455, #762, .T. ) ;
#967 = CARTESIAN_POINT ( 'NONE',  ( 0.1999999999999789724, 2.999999999999998224, 4.728636167014694358 ) ) ;
#968 = VERTEX_POINT ( 'NONE', #1125 ) ;
#969 = CARTESIAN_POINT ( 'NONE',  ( 2.228641418406508645, 0.9770017347204196234, 8.966495470078163166 ) ) ;
#970 = DIRECTION ( 'NONE',  ( 1.000000000000000000, 0.000000000000000000, 0.000000000000000000 ) ) ;
#971 = DIRECTION ( 'NONE',  ( 0.000000000000000000, 0.000000000000000000, 1.000000000000000000 ) ) ;
#972 = B_SPLINE_CURVE_WITH_KNOTS ( 'NONE', 3,
 ( #667, #591, #1038, #1130, #349, #953, #516 ),
 .UNSPECIFIED., .F., .F.,
 ( 4, 3, 4 ),
 ( 2.710505431213761085E-20, 0.0002464067766229606146, 0.0005577794248909889296 ),
 .UNSPECIFIED. ) ;
#973 = DIRECTION ( 'NONE',  ( -1.000000000000000000, -0.000000000000000000, -0.000000000000000000 ) ) ;
#974 = CARTESIAN_POINT ( 'NONE',  ( 0.1315859488339413685, -3.068414051166039602, 4.604211106754818594 ) ) ;
#975 = ORIENTED_EDGE ( 'NONE', *, *, #95, .F. ) ;
#976 = CARTESIAN_POINT ( 'NONE',  ( 1.981978658102311108, 0.5163095160443932352, 9.000871195312052819 ) ) ;
#977 = ADVANCED_FACE ( 'NONE', ( #1144 ), #520, .F. ) ;
#978 =( LENGTH_UNIT ( ) NAMED_UNIT ( * ) SI_UNIT ( .MILLI., .METRE. ) );
#979 = CARTESIAN_POINT ( 'NONE',  ( 21.00000000000000000, 0.000000000000000000, -2.900000000000006573 ) ) ;
#980 = CARTESIAN_POINT ( 'NONE',  ( -0.1999999999999971523, -2.924038303442673126, 4.300000000000000711 ) ) ;
#981 = VECTOR ( 'NONE', #1111, 1000.000000000000000 ) ;
#982 = DIRECTION ( 'NONE',  ( 1.000000000000000000, 0.000000000000000000, 0.000000000000000000 ) ) ;
#983 = VERTEX_POINT ( 'NONE', #690 ) ;
#984 = FACE_OUTER_BOUND ( 'NONE', #517, .T. ) ;
#985 = ADVANCED_FACE ( 'NONE', ( #1036 ), #1058, .T. ) ;
#986 = VECTOR ( 'NONE', #1124, 1000.000000000000000 ) ;
#987 = DIRECTION ( 'NONE',  ( -0.000000000000000000, 1.445602896647339656E-16, 1.000000000000000000 ) ) ;
#988 = CIRCLE ( 'NONE', #187, 9.000619061112825392 ) ;
#989 = CARTESIAN_POINT ( 'NONE',  ( 4.705100044808684601, 1.057605076988238135, 9.023937578032823481 ) ) ;
#990 = VERTEX_POINT ( 'NONE', #869 ) ;
#991 = DIRECTION ( 'NONE',  ( -0.000000000000000000, -0.000000000000000000, -1.000000000000000000 ) ) ;
#992 = DIRECTION ( 'NONE',  ( -1.000000000000000000, -0.000000000000000000, -0.000000000000000000 ) ) ;
#993 = CARTESIAN_POINT ( 'NONE',  ( -1.635161925425355514E-14, 0.000000000000000000, 0.000000000000000000 ) ) ;
#994 = CARTESIAN_POINT ( 'NONE',  ( -1.983707139815061427E-14, 1.077727089810192368E-15, 8.600000000000108002 ) ) ;
#995 = PLANE ( 'NONE',  #1055 ) ;
#996 = ADVANCED_FACE ( 'NONE', ( #1078, #984 ), #466, .F. ) ;
#997 = CLOSED_SHELL ( 'NONE', ( #189, #922, #944, #504, #131, #823, #375, #223, #514, #894, #589, #290, #117, #996, #977, #1009, #902, #636, #913, #270, #985, #208, #473, #482, #388, #874, #629, #389, #142, #185, #253, #233, #1067, #394, #1163, #17, #577 ) ) ;
#998 = EDGE_LOOP ( 'NONE', ( #468, #20, #592, #561 ) ) ;
#999 = CARTESIAN_POINT ( 'NONE',  ( -5.698348799390243968, 2.606242505984429414, 3.100000000000000089 ) ) ;
#1000 = CIRCLE ( 'NONE', #201, 2.900000000000006573 ) ;
#1001 = FACE_OUTER_BOUND ( 'NONE', #525, .T. ) ;
#1002 = CIRCLE ( 'NONE', #182, 11.39999999999998614 ) ;
#1003 = EDGE_CURVE ( 'NONE', #873, #32, #802, .T. ) ;
#1004 = AXIS2_PLACEMENT_3D ( 'NONE', #566, #828, #21 ) ;
#1005 = VERTEX_POINT ( 'NONE', #460 ) ;
#1006 = CARTESIAN_POINT ( 'NONE',  ( -5.698348799390243968, -2.606242505984429414, 3.100000000000000089 ) ) ;
#1007 = EDGE_CURVE ( 'NONE', #1039, #687, #1022, .T. ) ;
#1008 = EDGE_LOOP ( 'NONE', ( #104, #775, #644, #888 ) ) ;
#1009 = ADVANCED_FACE ( 'NONE', ( #915, #456 ), #821, .F. ) ;
#1010 = EDGE_LOOP ( 'NONE', ( #372, #192, #931 ) ) ;
#1011 = DIRECTION ( 'NONE',  ( -0.000000000000000000, 1.000000000000000000, 0.000000000000000000 ) ) ;
#1012 = ORIENTED_EDGE ( 'NONE', *, *, #347, .F. ) ;
#1013 = SHAPE_DEFINITION_REPRESENTATION ( #878, #34 ) ;
#1014 = VECTOR ( 'NONE', #125, 1000.000000000000000 ) ;
#1015 = ORIENTED_EDGE ( 'NONE', *, *, #218, .F. ) ;
#1016 = EDGE_CURVE ( 'NONE', #13, #990, #11, .T. ) ;
#1017 = AXIS2_PLACEMENT_3D ( 'NONE', #403, #210, #754 ) ;
#1018 = CIRCLE ( 'NONE', #512, 1.600000000000000755 ) ;
#1019 = CARTESIAN_POINT ( 'NONE',  ( -1.983707139815061427E-14, 0.000000000000000000, 0.000000000000000000 ) ) ;
#1020 = AXIS2_PLACEMENT_3D ( 'NONE', #584, #858, #245 ) ;
#1021 = ORIENTED_EDGE ( 'NONE', *, *, #752, .F. ) ;
#1022 = CIRCLE ( 'NONE', #797, 8.600000000000108002 ) ;
#1023 = ORIENTED_EDGE ( 'NONE', *, *, #363, .F. ) ;
#1024 = DIRECTION ( 'NONE',  ( 1.000000000000000000, -0.000000000000000000, -0.000000000000000000 ) ) ;
#1025 = DIRECTION ( 'NONE',  ( 1.000000000000000000, 0.000000000000000000, 0.000000000000000000 ) ) ;
#1026 = EDGE_LOOP ( 'NONE', ( #1034, #827, #1117, #745 ) ) ;
#1027 = EDGE_CURVE ( 'NONE', #585, #1005, #462, .T. ) ;
#1028 = ORIENTED_EDGE ( 'NONE', *, *, #225, .T. ) ;
#1029 = LINE ( 'NONE', #228, #538 ) ;
#1030 = DIRECTION ( 'NONE',  ( 0.000000000000000000, 0.000000000000000000, 1.000000000000000000 ) ) ;
#1031 = CIRCLE ( 'NONE', #732, 4.049999999999999822 ) ;
#1032 = CARTESIAN_POINT ( 'NONE',  ( 3.499999999999999556, 1.477738927902551059E-16, 11.40099999999998737 ) ) ;
#1033 = VECTOR ( 'NONE', #991, 1000.000000000000000 ) ;
#1034 = ORIENTED_EDGE ( 'NONE', *, *, #459, .F. ) ;
#1035 = AXIS2_PLACEMENT_3D ( 'NONE', #1122, #1053, #428 ) ;
#1036 = FACE_OUTER_BOUND ( 'NONE', #1105, .T. ) ;
#1037 = DIRECTION ( 'NONE',  ( 1.000000000000000000, 0.000000000000000000, 0.000000000000000000 ) ) ;
#1038 = CARTESIAN_POINT ( 'NONE',  ( -0.05251279360344420638, -3.000000000000000888, 4.426833009172351119 ) ) ;
#1039 = VERTEX_POINT ( 'NONE', #994 ) ;
#1040 = CARTESIAN_POINT ( 'NONE',  ( 20.60000000000000142, 0.000000000000000000, 0.000000000000000000 ) ) ;
#1041 = EDGE_CURVE ( 'NONE', #1005, #585, #836, .T. ) ;
#1042 = DIRECTION ( 'NONE',  ( 0.000000000000000000, 2.168404344971009115E-16, -1.000000000000000000 ) ) ;
#1043 = DIRECTION ( 'NONE',  ( -0.000000000000000000, -0.000000000000000000, -1.000000000000000000 ) ) ;
#1044 = EDGE_CURVE ( 'NONE', #559, #968, #279, .T. ) ;
#1045 = DIRECTION ( 'NONE',  ( 0.000000000000000000, 0.000000000000000000, -1.000000000000000000 ) ) ;
#1046 = CYLINDRICAL_SURFACE ( 'NONE', #643, 1.600000000000000977 ) ;
#1047 = ORIENTED_EDGE ( 'NONE', *, *, #347, .T. ) ;
#1048 = EDGE_LOOP ( 'NONE', ( #220, #374, #574, #903 ) ) ;
#1049 = CARTESIAN_POINT ( 'NONE',  ( 21.00000000000000000, 1.371604415045034330E-15, -10.99999999999999289 ) ) ;
#1050 = DIRECTION ( 'NONE',  ( 1.000000000000000000, 0.000000000000000000, 0.000000000000000000 ) ) ;
#1051 = PRODUCT_RELATED_PRODUCT_CATEGORY ( 'part', '', ( #826 ) ) ;
#1052 = CARTESIAN_POINT ( 'NONE',  ( -0.3999999999999995226, 2.999999999999998668, 6.299999999999999822 ) ) ;
#1053 = DIRECTION ( 'NONE',  ( -1.000000000000000000, -0.000000000000000000, -0.000000000000000000 ) ) ;
#1054 = ORIENTED_EDGE ( 'NONE', *, *, #467, .T. ) ;
#1055 = AXIS2_PLACEMENT_3D ( 'NONE', #544, #402, #938 ) ;
#1056 = EDGE_LOOP ( 'NONE', ( #1047, #382, #929, #1084 ) ) ;
#1057 = CARTESIAN_POINT ( 'NONE',  ( 20.00000000000000000, -2.606242505984429414, 3.100000000000000089 ) ) ;
#1058 = PLANE ( 'NONE',  #188 ) ;
#1059 = DIRECTION ( 'NONE',  ( 0.000000000000000000, 0.000000000000000000, -1.000000000000000000 ) ) ;
#1060 = VECTOR ( 'NONE', #900, 1000.000000000000000 ) ;
#1061 = VERTEX_POINT ( 'NONE', #543 ) ;
#1062 = CARTESIAN_POINT ( 'NONE',  ( 4.484755685187832519, 1.278058961068309962, 8.988328997596081393 ) ) ;
#1063 = ORIENTED_EDGE ( 'NONE', *, *, #883, .F. ) ;
#1064 = DIRECTION ( 'NONE',  ( 0.000000000000000000, 0.000000000000000000, 1.000000000000000000 ) ) ;
#1065 = DIRECTION ( 'NONE',  ( 0.000000000000000000, -1.000000000000000000, 0.000000000000000000 ) ) ;
#1066 = VERTEX_POINT ( 'NONE', #446 ) ;
#1067 = ADVANCED_FACE ( 'NONE', ( #1085, #645 ), #373, .F. ) ;
#1068 = LINE ( 'NONE', #450, #1152 ) ;
#1069 = ORIENTED_EDGE ( 'NONE', *, *, #1007, .F. ) ;
#1070 = FILL_AREA_STYLE ('',( #93 ) ) ;
#1071 = DIRECTION ( 'NONE',  ( -1.000000000000000000, -0.000000000000000000, -0.000000000000000000 ) ) ;
#1072 = CARTESIAN_POINT ( 'NONE',  ( 0.000000000000000000, 1.396097351027981044E-15, -11.39999999999998614 ) ) ;
#1073 = VERTEX_POINT ( 'NONE', #630 ) ;
#1074 = DIRECTION ( 'NONE',  ( 0.000000000000000000, -1.000000000000000000, 0.000000000000000000 ) ) ;
#1075 = CIRCLE ( 'NONE', #321, 4.450000000000004619 ) ;
#1076 = AXIS2_PLACEMENT_3D ( 'NONE', #441, #795, #1162 ) ;
#1077 = LINE ( 'NONE', #1166, #733 ) ;
#1078 = FACE_BOUND ( 'NONE', #110, .T. ) ;
#1079 = STYLED_ITEM ( 'NONE', ( #438 ), #713 ) ;
#1080 = CARTESIAN_POINT ( 'NONE',  ( 21.00000000000000000, 3.551475717527332707E-16, 2.900000000000006573 ) ) ;
#1081 = VECTOR ( 'NONE', #370, 1000.000000000000000 ) ;
#1082 = DIRECTION ( 'NONE',  ( 0.000000000000000000, 0.000000000000000000, 1.000000000000000000 ) ) ;
#1083 = CARTESIAN_POINT ( 'NONE',  ( -0.3999999999999995226, 2.999999999999998224, 4.299999999999999822 ) ) ;
#1084 = ORIENTED_EDGE ( 'NONE', *, *, #719, .F. ) ;
#1085 = FACE_OUTER_BOUND ( 'NONE', #1008, .T. ) ;
#1086 = EDGE_LOOP ( 'NONE', ( #860, #114, #314, #449 ) ) ;
#1087 = DIRECTION ( 'NONE',  ( 0.000000000000000000, 0.000000000000000000, 1.000000000000000000 ) ) ;
#1088 = EDGE_CURVE ( 'NONE', #968, #530, #912, .T. ) ;
#1089 = ORIENTED_EDGE ( 'NONE', *, *, #12, .F. ) ;
#1090 = DIRECTION ( 'NONE',  ( 0.5773502691896197359, -0.5773502691896300609, -0.5773502691896275074 ) ) ;
#1091 = ORIENTED_EDGE ( 'NONE', *, *, #1088, .T. ) ;
#1092 = CARTESIAN_POINT ( 'NONE',  ( -0.3999999999999994671, 2.551470164434614052, 4.100000000000001421 ) ) ;
#1093 = CARTESIAN_POINT ( 'NONE',  ( 3.398708904291920962, 1.600215753200730617, 8.901834661488521760 ) ) ;
#1094 = VECTOR ( 'NONE', #557, 1000.000000000000000 ) ;
#1095 = EDGE_CURVE ( 'NONE', #818, #573, #105, .T. ) ;
#1096 = EDGE_LOOP ( 'NONE', ( #611, #152 ) ) ;
#1097 = EDGE_LOOP ( 'NONE', ( #107, #580, #866, #395 ) ) ;
#1098 = DIRECTION ( 'NONE',  ( 0.000000000000000000, 0.000000000000000000, 1.000000000000000000 ) ) ;
#1099 = DIRECTION ( 'NONE',  ( 0.7071067811865473507, 0.000000000000000000, 0.7071067811865476838 ) ) ;
#1100 = EDGE_CURVE ( 'NONE', #232, #1101, #534, .T. ) ;
#1101 = VERTEX_POINT ( 'NONE', #94 ) ;
#1102 = SURFACE_STYLE_USAGE ( .BOTH. , #937 ) ;
#1103 = ORIENTED_EDGE ( 'NONE', *, *, #708, .F. ) ;
#1104 = CARTESIAN_POINT ( 'NONE',  ( 21.00000000000000000, 0.000000000000000000, 0.000000000000000000 ) ) ;
#1105 = EDGE_LOOP ( 'NONE', ( #619, #729, #936, #463, #1164 ) ) ;
#1106 = APPLICATION_PROTOCOL_DEFINITION ( 'draft international standard', 'automotive_design', 1998, #198 ) ;
#1107 = ORIENTED_EDGE ( 'NONE', *, *, #966, .T. ) ;
#1108 = DIRECTION ( 'NONE',  ( 1.000000000000000000, 0.000000000000000000, 0.000000000000000000 ) ) ;
#1109 = CIRCLE ( 'NONE', #5, 129.6285714285714619 ) ;
#1110 = AXIS2_PLACEMENT_3D ( 'NONE', #901, #1168, #715 ) ;
#1111 = DIRECTION ( 'NONE',  ( 0.000000000000000000, -1.000000000000000000, 1.445602896647339410E-16 ) ) ;
#1112 = VECTOR ( 'NONE', #432, 1000.000000000000000 ) ;
#1113 = EDGE_LOOP ( 'NONE', ( #1054, #271, #183, #943 ) ) ;
#1114 = AXIS2_PLACEMENT_3D ( 'NONE', #2, #551, #295 ) ;
#1115 = EDGE_CURVE ( 'NONE', #1073, #873, #851, .T. ) ;
#1116 = LINE ( 'NONE', #564, #475 ) ;
#1117 = ORIENTED_EDGE ( 'NONE', *, *, #311, .F. ) ;
#1118 = CARTESIAN_POINT ( 'NONE',  ( -0.3999999999999995226, 0.000000000000000000, 0.000000000000000000 ) ) ;
#1119 = B_SPLINE_CURVE_WITH_KNOTS ( 'NONE', 3,
 ( #526, #892, #272, #884, #79, #801, #791, #355, #598, #607, #948, #165, #759, #75, #507, #335, #409, #961, #1146, #329, #151, #70, #421, #680, #434, #865 ),
 .UNSPECIFIED., .F., .F.,
 ( 4, 2, 2, 2, 2, 2, 2, 2, 2, 2, 2, 2, 4 ),
 ( 0.008773417517824821585, 0.009400147663198731365, 0.01002687780857264115, 0.01034024288125959604, 0.01065360795394654919, 0.01096697302663350582, 0.01128033809932045897, 0.01190706824469436875, 0.01253379839006827853, 0.01284716346275523342, 0.01316052853544218831, 0.01347389360812914320, 0.01378725868081609809 ),
 .UNSPECIFIED. ) ;
#1120 = CARTESIAN_POINT ( 'NONE',  ( -1.983707139815061427E-14, 9.000000000000007105, 7.000000000000002665 ) ) ;
#1121 = B_SPLINE_CURVE_WITH_KNOTS ( 'NONE', 3,
 ( #436, #1156, #531, #940 ),
 .UNSPECIFIED., .F., .F.,
 ( 4, 4 ),
 ( 0.000000000000000000, 0.0002896056204701877778 ),
 .UNSPECIFIED. ) ;
#1122 = CARTESIAN_POINT ( 'NONE',  ( 20.00000000000000000, 0.000000000000000000, 0.000000000000000000 ) ) ;
#1123 = ORIENTED_EDGE ( 'NONE', *, *, #431, .T. ) ;
#1124 = DIRECTION ( 'NONE',  ( -0.000000000000000000, -0.000000000000000000, -1.000000000000000000 ) ) ;
#1125 = CARTESIAN_POINT ( 'NONE',  ( 20.00000000000000000, 2.606242505984429414, 3.100000000000000089 ) ) ;
#1126 = DIRECTION ( 'NONE',  ( 0.000000000000000000, 0.000000000000000000, -1.000000000000000000 ) ) ;
#1127 = VECTOR ( 'NONE', #803, 1000.000000000000000 ) ;
#1128 = EDGE_CURVE ( 'NONE', #573, #990, #718, .T. ) ;
#1129 = AXIS2_PLACEMENT_3D ( 'NONE', #99, #371, #814 ) ;
#1130 = CARTESIAN_POINT ( 'NONE',  ( -1.976235278577996969E-14, -3.000000000000000888, 4.489988864128689805 ) ) ;
#1131 = ORIENTED_EDGE ( 'NONE', *, *, #1128, .F. ) ;
#1132 = COLOUR_RGB ( '',0.7921568627450980005, 0.8196078431372548767, 0.9333333333333333481 ) ;
#1133 = EDGE_CURVE ( 'NONE', #1101, #818, #286, .T. ) ;
#1134 = LINE ( 'NONE', #682, #552 ) ;
#1135 = CIRCLE ( 'NONE', #89, 2.500000000000000000 ) ;
#1136 = CONICAL_SURFACE ( 'NONE', #328, 5.000000000000000000, 0.7853981633974439491 ) ;
#1137 = CARTESIAN_POINT ( 'NONE',  ( -0.1857325677418044385, -2.949410969613034617, 4.300000000000000711 ) ) ;
#1138 = CYLINDRICAL_SURFACE ( 'NONE', #796, 2.500000000000000000 ) ;
#1139 = DIRECTION ( 'NONE',  ( 0.000000000000000000, 0.000000000000000000, 1.000000000000000000 ) ) ;
#1140 = CARTESIAN_POINT ( 'NONE',  ( 0.06483922893293893319, -3.135160771067042607, 4.477909003859262604 ) ) ;
#1141 = ORIENTED_EDGE ( 'NONE', *, *, #752, .T. ) ;
#1142 = EDGE_CURVE ( 'NONE', #211, #78, #379, .T. ) ;
#1143 = CARTESIAN_POINT ( 'NONE',  ( -0.1713678246718212672, 2.974730896030853611, 4.299999999999999822 ) ) ;
#1144 = FACE_OUTER_BOUND ( 'NONE', #57, .T. ) ;
#1145 = CARTESIAN_POINT ( 'NONE',  ( 5.041540102057595618E-15, 0.000000000000000000, 0.000000000000000000 ) ) ;
#1146 = CARTESIAN_POINT ( 'NONE',  ( 4.772832605419347729, -0.9750633157762228498, 9.035844425607823638 ) ) ;
#1147 = ORIENTED_EDGE ( 'NONE', *, *, #631, .T. ) ;
#1148 = CARTESIAN_POINT ( 'NONE',  ( -1.635161925425355514E-14, 0.000000000000000000, 138.6285714285714619 ) ) ;
#1149 = LINE ( 'NONE', #72, #986 ) ;
#1150 = DIRECTION ( 'NONE',  ( 0.000000000000000000, 0.000000000000000000, 1.000000000000000000 ) ) ;
#1151 = CARTESIAN_POINT ( 'NONE',  ( 3.499999999999999556, 1.477738927902551059E-16, 3.100000000000000533 ) ) ;
#1152 = VECTOR ( 'NONE', #257, 1000.000000000000000 ) ;
#1153 = CIRCLE ( 'NONE', #813, 10.39999999999999325 ) ;
#1154 = DIRECTION ( 'NONE',  ( -0.000000000000000000, -0.000000000000000000, -1.000000000000000000 ) ) ;
#1155 = ORIENTED_EDGE ( 'NONE', *, *, #731, .T. ) ;
#1156 = CARTESIAN_POINT ( 'NONE',  ( -0.3333669421447606473, 2.882772731503055130, 4.166633057855238853 ) ) ;
#1157 = ORIENTED_EDGE ( 'NONE', *, *, #1007, .T. ) ;
#1158 = CARTESIAN_POINT ( 'NONE',  ( 0.4006190611126919654, 0.000000000000000000, 9.000619061112825392 ) ) ;
#1159 = CARTESIAN_POINT ( 'NONE',  ( 5.100000000000000533, 1.690134489436017793E-25, 9.100363957718803576 ) ) ;
#1160 = AXIS2_PLACEMENT_3D ( 'NONE', #604, #52, #855 ) ;
#1161 = VECTOR ( 'NONE', #1090, 1000.000000000000000 ) ;
#1162 = DIRECTION ( 'NONE',  ( 0.000000000000000000, 0.000000000000000000, -1.000000000000000000 ) ) ;
#1163 = ADVANCED_FACE ( 'NONE', ( #452 ), #115, .T. ) ;
#1164 = ORIENTED_EDGE ( 'NONE', *, *, #1100, .F. ) ;
#1165 = VERTEX_POINT ( 'NONE', #405 ) ;
#1166 = CARTESIAN_POINT ( 'NONE',  ( 20.60000000000000142, 1.396097351027981044E-15, -11.39999999999998614 ) ) ;
#1167 = DIRECTION ( 'NONE',  ( -0.000000000000000000, 0.000000000000000000, 1.000000000000000000 ) ) ;
#1168 = DIRECTION ( 'NONE',  ( -1.000000000000000000, -0.000000000000000000, -0.000000000000000000 ) ) ;
ENDSEC;
END-ISO-10303-21;
